<?xml version="1.0" encoding="UTF-8" standalone="no"?>
<!-- Created with Inkscape (http://www.inkscape.org/) -->

<svg
   width="35mm"
   height="7mm"
   viewBox="0 0 35 7"
   version="1.1"
   id="svg5"
   inkscape:version="1.2.2 (b0a8486, 2022-12-01)"
   sodipodi:docname="createPostLOGO.svg"
   xmlns:inkscape="http://www.inkscape.org/namespaces/inkscape"
   xmlns:sodipodi="http://sodipodi.sourceforge.net/DTD/sodipodi-0.dtd"
   xmlns="http://www.w3.org/2000/svg"
   xmlns:svg="http://www.w3.org/2000/svg">
  <sodipodi:namedview
     id="namedview7"
     pagecolor="#ffffff"
     bordercolor="#000000"
     borderopacity="0.25"
     inkscape:showpageshadow="2"
     inkscape:pageopacity="0.0"
     inkscape:pagecheckerboard="0"
     inkscape:deskcolor="#d1d1d1"
     inkscape:document-units="mm"
     showgrid="false"
     inkscape:zoom="4.7488465"
     inkscape:cx="73.491531"
     inkscape:cy="22.637076"
     inkscape:window-width="1440"
     inkscape:window-height="771"
     inkscape:window-x="1156"
     inkscape:window-y="1644"
     inkscape:window-maximized="0"
     inkscape:current-layer="layer1" />
  <defs
     id="defs2">
    <rect
       x="-1.8951972"
       y="4.0009718"
       width="213.31496"
       height="77.703079"
       id="rect268" />
  </defs>
  <g
     inkscape:label="Layer 1"
     inkscape:groupmode="layer"
     id="layer1">
    <path
       style="color:#000000;fill:#000000;fill-rule:evenodd;-inkscape-stroke:none"
       d="m 4.4179687,7.6269531 v 0.21875 z"
       id="path208" />
    <text
       xml:space="preserve"
       transform="scale(0.26458333)"
       id="text266"
       style="font-size:53.3333px;font-family:KouzanBrushFontGyousyoOTF;-inkscape-font-specification:KouzanBrushFontGyousyoOTF;white-space:pre;shape-inside:url(#rect268);display:inline;fill:#000000" />
    <g
       aria-label="お裾分け準備"
       transform="scale(0.87935363,1.1371989)"
       id="text349"
       style="font-size:6.97128px;font-family:KouzanBrushFontGyousyoOTF;-inkscape-font-specification:KouzanBrushFontGyousyoOTF;fill:#1a1a1a;stroke-width:0.40219">
      <path
         d="M 0.6845596,5.7168463 0.85187032,5.6889612 C 0.94946824,5.6122771 1.0261523,5.535593 1.0888938,5.4379951 1.1376928,5.3403972 1.1864918,5.2497705 1.2352907,5.1452013 1.4862568,4.9500055 1.7581367,4.7826948 2.0439592,4.6572117 2.3297817,4.5317287 2.6295467,4.441102 2.9502256,4.3923031 c 0.174282,-0.013943 0.3415928,-0.00697 0.5089035,0.013942 0.174282,0.027885 0.3137076,0.097598 0.4461619,0.2161097 L 3.856492,4.7199533 3.208163,4.5735564 3.4103301,4.7199533 3.382445,4.7966373 v 0.020914 l 0.097598,0.027885 0.1394256,0.2509661 0.2579374,0.1533681 c 0.1045692,0.013943 0.1882245,0 0.2788512,-0.034856 0.090627,-0.034856 0.1673107,-0.062741 0.2509661,-0.090627 L 4.5048211,4.8942353 C 4.4839073,4.7757235 4.4629934,4.6781256 4.4351083,4.5874989 4.4002519,4.4968723 4.3444816,4.4062456 4.2677976,4.3225903 4.1562571,4.190136 4.0238028,4.1064806 3.8774059,4.0576816 3.7170664,4.015854 3.5636983,3.9879688 3.4103301,3.9740263 c -0.3625065,0 -0.7110706,0.048799 -1.0387207,0.1324543 C 2.0439592,4.1971072 1.7302516,4.3295616 1.4235153,4.489901 H 1.3816876 L 1.5211132,3.5208931 V 2.4194308 L 1.5001994,2.3915457 V 2.1684647 L 1.7581367,1.9662976 1.8557347,1.7501879 h 0.05577 v -0.05577 h 0.041828 l 0.013942,-0.05577 v -0.020914 h -0.05577 v -0.083655 h 0.041828 v -0.013942 l -0.097598,0.069713 v 0.027885 h -0.020914 v 0.020914 H 1.7860219 V 1.6177336 L 1.5211132,1.7780731 h -0.069713 v 0.013942 h -0.05577 C 1.367745,1.6107623 1.3398599,1.429509 1.3119748,1.2273419 1.2771184,1.0391174 1.2283194,0.85786408 1.1655779,0.68358208 H 1.1376928 L 1.3050035,1.6177336 1.291061,1.8896135 0.76124368,2.1126945 C 0.6148468,2.1336083 0.49633504,2.1196658 0.38479455,2.0778381 0.26628279,2.0429817 0.16171359,1.9941827 0.05017311,1.9453838 v -0.027885 l 0.06274152,0.048799 0.0278851,0.083655 c 0.0906266,0.041828 0.19519584,0.097598 0.29976504,0.1673107 0.0975979,0.069713 0.20913841,0.1185118 0.32067889,0.1463969 L 1.291061,2.2939478 v -0.048799 h 0.062742 l 0.027885,0.4043343 c 0.00697,0.348564 0.00697,0.697128 -0.027885,1.0317494 C 1.3189461,4.0228252 1.2492333,4.3435041 1.1376928,4.6432692 L 0.76124368,4.8454363 v 0.027885 h -0.0906266 l 0.0139426,0.097598 c -0.0278851,0.083655 -0.048799,0.1673108 -0.0627415,0.2509661 -0.0209138,0.076684 -0.0557702,0.1533682 -0.1045692,0.2161097 l 0.0766841,0.076684 0.0209138,0.1463969 0.0975979,0.027885 z M 3.95409,1.5340782 h 0.1463968 v -0.041828 c 0.041828,0 0.090627,0.00697 0.1394256,0.013942 0.048799,0.00697 0.076684,-0.013942 0.090627,-0.05577 L 4.4072232,1.4225378 4.5048211,1.2621983 4.476936,1.1994568 C 4.4141945,1.1088302 4.3444816,1.0460886 4.2677976,1.004261 4.1841422,0.96243328 4.0935156,0.9206056 4.0028889,0.89272048 c -0.1185117,0 -0.2300522,0.0139426 -0.3346214,0.0348564 C 3.5497557,0.955462 3.4382152,0.98334712 3.333646,1.0112322 l 0.048799,0.1115405 c 0.090627,0.062742 0.1882246,0.1185118 0.2858225,0.1673107 0.090627,0.048799 0.1882245,0.1115405 0.2858225,0.1882246 z"
         id="path405" />
      <path
         d="M 9.9284637,5.4728515 10.067889,5.4449664 9.9145211,5.1800577 H 9.8796647 L 9.837837,4.7826948 9.7332678,4.9778906 h -0.034856 v -0.00697 L 9.314991,4.6014415 9.2383069,4.5387 h -0.013942 c 0.034856,0.1324543 0.097598,0.2579373 0.174282,0.3903917 0.076684,0.125483 0.1463969,0.250966 0.2230809,0.3764491 0.048799,0.020914 0.1045692,0.048799 0.1533682,0.090627 0.041828,0.041828 0.090627,0.069713 0.1533682,0.076684 z m 0.4879893,-0.062741 0.01394,-0.013943 0.02091,0.013943 c 0.09063,-0.020914 0.181253,-0.048799 0.264908,-0.083655 0.09063,-0.034856 0.174282,-0.076684 0.257938,-0.125483 l 0.05577,-0.1882246 h 0.03486 v -0.034856 h 0.02789 l 0.02091,-0.05577 h 0.02788 l 0.0976,-0.1115405 0.118512,-0.2579374 0.0488,-0.034856 0.181253,-0.3206789 c 0,-0.041828 0,-0.076684 -0.007,-0.1045692 -0.007,-0.027885 -0.02091,-0.05577 -0.03486,-0.090627 l -0.125483,-0.048799 v -0.027885 l -0.264909,-0.083655 -0.06274,0.013942 -0.09063,-0.013942 -0.257938,0.048799 -0.369477,-0.090627 -0.188225,0.090627 h -0.02788 c 0.02091,-0.048799 0.0488,-0.097598 0.08366,-0.1463969 0.03486,-0.048799 0.06274,-0.097598 0.06971,-0.1463968 l 0.0488,-0.013943 0.04183,-0.1185118 0.0976,-0.1115404 c 0.104569,-0.048799 0.202167,-0.083655 0.320679,-0.1045692 0.118511,-0.013943 0.22308,-0.020914 0.334621,-0.041828 0.11154,-0.013943 0.223081,-0.013943 0.32765,0 0.0976,0.020914 0.195196,0.034856 0.292794,0.069713 0.0488,0.00697 0.08366,0 0.118512,-0.020914 0.03486,-0.020914 0.06971,-0.027885 0.11154,-0.034856 v -0.048799 l -0.06274,-0.013943 V 3.1235301 C 11.86648,3.046846 11.789795,3.0119896 11.685226,3.0050183 c -0.104569,-0.00697 -0.202167,-0.020914 -0.299765,-0.05577 l -0.06274,-0.05577 -0.167311,-0.027885 -0.306736,0.076684 v 0.00697 l 0.125483,0.048799 v 0.034856 l -0.383421,0.090627 h -0.07668 L 10.465252,2.9283343 10.34674,2.7889087 c -0.04183,-0.034856 -0.09063,-0.048799 -0.146396,-0.048799 -0.06274,0 -0.111541,-0.013943 -0.16034,-0.034856 l -0.097598,0.020914 v 0.041828 l 0.062742,0.048799 0.06274,0.1115405 v 0.348564 L 9.3777325,3.493008 H 9.314991 C 9.3916751,3.3256972 9.4474453,3.1653578 9.4962443,2.9910758 9.538072,2.8237651 9.6008135,2.6634256 9.6844689,2.5100575 l 0.062741,0.034856 h 0.027885 l 0.041828,0.1463968 C 9.9563488,2.6494831 10.088803,2.6076554 10.214286,2.5588564 10.34674,2.5100575 10.465252,2.4473159 10.590735,2.3706319 v -0.027885 h 0.0488 l 0.04183,-0.125483 0.09063,-0.048799 0.01394,-0.090627 h 0.03486 c 0.0488,-0.05577 0.0976,-0.125483 0.139425,-0.1951958 0.03486,-0.062742 0.06971,-0.1254831 0.09063,-0.2021672 l 0.06274,-0.048799 0.111541,-0.1951959 0.04183,-0.013942 v -0.034856 h 0.02789 v -0.027885 h -0.01394 v -0.076684 l -0.07668,-0.034856 -0.01394,-0.048799 -0.418276,-0.1185118 c -0.237024,0.020914 -0.453134,0.069713 -0.669243,0.1254831 -0.2091387,0.069713 -0.4182771,0.125483 -0.6343868,0.1673107 0.05577,0.041828 0.1115405,0.069713 0.1882245,0.083655 0.069713,0.020914 0.1394256,0.034856 0.2091384,0.048799 l 0.2021669,-0.013942 0.02091,-0.041828 c 0.06274,-0.00697 0.125483,-0.034856 0.188225,-0.083655 0.05577,-0.048799 0.118511,-0.083655 0.188224,-0.1045692 h 0.07668 c -0.007,0.1603395 -0.03486,0.2997651 -0.06971,0.4391907 -0.03486,0.1394256 -0.09063,0.2718799 -0.174282,0.3903917 -0.0488,0.062742 -0.10457,0.1115404 -0.167311,0.1463968 -0.05577,0.034856 -0.125483,0.062742 -0.2021673,0.076684 H 9.712354 V 2.049953 L 9.6356699,1.9732689 9.489273,1.9872115 v 0.020914 L 9.3010484,2.0220679 9.314991,2.1266371 9.36379,2.1405796 C 9.3428761,2.3845744 9.3080197,2.6285692 9.2592208,2.8655927 9.2173931,3.1026163 9.1546516,3.3256972 9.0709962,3.5487782 l -0.097598,0.020914 v 0.013943 h 0.034856 v 0.027885 h 0.027885 C 8.9733983,3.8276294 8.9106568,4.0437391 8.8200301,4.2389349 8.7294035,4.4341308 8.6248343,4.6362979 8.4993512,4.8314937 L 8.5481502,4.8105799 8.666662,4.6781256 c 0.048799,-0.062742 0.090627,-0.1254831 0.125483,-0.1951959 0.034856,-0.069713 0.062741,-0.1324543 0.097598,-0.2091384 h 0.027885 l 0.027885,-0.062742 0.062741,-0.027885 0.2021671,-0.4740471 0.1045692,0.027885 C 9.440474,3.7509453 9.5450433,3.7300315 9.6496125,3.66729 9.7472104,3.6115197 9.837837,3.5627208 9.9424062,3.5208931 h 0.062742 c -0.00697,0.1185117 -0.027885,0.2300522 -0.05577,0.3276501 -0.034856,0.1115405 -0.083655,0.2161097 -0.1533682,0.2997651 l 0.013943,0.048799 h 0.041828 c 0.020914,-0.00697 0.041828,-0.020914 0.062741,-0.041828 0.020914,-0.013943 0.027885,-0.034856 0.027885,-0.062742 h 0.048799 l 0.048799,0.1045692 h 0.0488 l 0.03486,0.097598 0.745927,-0.1882246 h 0.09063 c 0,0.1673107 -0.02788,0.3137076 -0.08366,0.4461619 -0.06274,0.1324544 -0.139426,0.2509661 -0.223081,0.3694779 -0.03486,0.041828 -0.06971,0.062742 -0.111541,0.083655 -0.04183,0.020914 -0.09063,0.041828 -0.139425,0.048799 l -0.104569,-0.013943 -0.153369,0.013943 0.01394,0.1115405 0.202167,0.1673107 0.01394,0.048799 z M 7.6697689,5.3473685 c 0.020914,0 0.048799,0 0.069713,-0.00697 0.020914,-0.00697 0.034856,-0.013943 0.041828,-0.034856 l -0.013943,-0.062742 c 0,-0.2091384 0,-0.4043343 0.00697,-0.5995301 0.00697,-0.1951959 0.027885,-0.3764492 0.083655,-0.5507312 0,-0.048799 0,-0.097598 -0.00697,-0.1394256 -0.00697,-0.041828 -0.027885,-0.083655 -0.05577,-0.125483 L 7.8091945,3.7230602 V 3.6951751 L 7.7813094,3.7997443 7.6279412,3.6603187 C 7.572171,3.6254623 7.5164007,3.5975772 7.4676018,3.5766633 7.4118315,3.5557495 7.34909,3.5418069 7.2863485,3.5348356 L 7.4885156,3.2071855 h 0.027885 L 7.8998211,2.6634256 v -0.027885 l 0.048799,-0.013943 C 8.0392467,2.4961149 8.1298734,2.3706319 8.2205,2.2521201 8.3111267,2.1266371 8.394782,2.0081253 8.4993512,1.8826423 L 8.6457481,1.8199007 8.7015184,1.7432167 8.6806045,1.6804751 8.5969492,1.6316762 8.5830066,1.5898485 8.2414139,1.4922506 8.1298734,1.603791 C 7.9904478,1.6804751 7.8510222,1.7641305 7.7255391,1.8547571 7.5861135,1.9593263 7.4466879,2.049953 7.3002911,2.1266371 H 7.2584634 L 7.397889,1.8965848 7.5303433,1.7989869 v -0.020914 h 0.034856 L 7.8370796,1.4852793 7.8579935,1.4504229 8.0253042,1.3458537 8.1647298,1.1994568 8.3738682,0.955462 8.4714661,0.87180664 v -0.0348564 h 0.027885 l 0.020914,-0.0278851 c 0.00697,-0.0418277 0.00697,-0.0766841 -0.00697,-0.1045692 C 8.49238,0.6766108 8.4784374,0.65569696 8.4575236,0.63478312 8.3808395,0.55809904 8.3041554,0.50232879 8.2135288,0.46747239 8.1159308,0.43261599 8.0253042,0.40473087 7.9346775,0.36987447 l -0.125483,0.0348564 0.3694779,0.18822457 v 0.0906266 C 8.1298734,0.78815128 8.0741032,0.8857492 8.0183329,0.98334712 7.9555914,1.0879163 7.8858786,1.1924855 7.8091945,1.2831122 7.7325104,1.3946526 7.6488551,1.4992218 7.5582284,1.6107623 7.4745731,1.7223028 7.3769751,1.8199007 7.2724059,1.9244699 l -0.062741,0.062742 -0.013943,0.034856 -0.3346215,0.2300522 0.05577,0.2091384 0.027885,0.020914 0.048799,0.076684 0.7877547,-0.4531332 h 0.027885 C 7.7673668,2.2451488 7.697654,2.3706319 7.6209699,2.5030862 7.5442859,2.6355405 7.4745731,2.7610235 7.4118315,2.8934779 l -0.090627,0.076684 -0.4043342,0.6762142 -0.027885,0.013943 -0.2718799,0.4461619 h -0.034856 l -0.090627,0.1882246 h -0.034856 l -0.27188,0.3694778 v 0.020914 l 0.1463969,-0.05577 0.097598,-0.076684 0.048799,-0.076684 h 0.027885 L 6.5195077,4.441102 6.6380195,4.3574467 7.0144686,3.8276294 h 0.041828 L 7.2584634,3.569692 7.4466879,3.6463761 c 0.020914,0.034856 0.041828,0.062742 0.05577,0.097598 0.020914,0.034856 0.027885,0.069713 0.027885,0.1115405 0,0.2161097 -0.00697,0.4182768 -0.013943,0.620444 -0.00697,0.2091384 -0.048799,0.3973629 -0.1324543,0.5646736 0.027885,0.048799 0.069713,0.097598 0.1254831,0.1463969 0.05577,0.048799 0.1115404,0.097598 0.1603394,0.1603395 z M 8.2065575,3.9391699 H 8.269299 V 3.9043135 L 8.3529544,3.8764284 8.3320405,3.7370028 H 8.318098 L 8.3320405,3.6951751 8.318098,3.6324336 8.1786724,3.7091176 7.9346775,3.6324336 h -0.034856 l 0.034856,0.125483 0.1812533,0.083655 0.013943,0.083655 z M 7.9346775,3.493008 c 0.034856,-0.00697 0.069713,-0.020914 0.1045692,-0.027885 0.027885,-0.00697 0.05577,-0.027885 0.090627,-0.062742 l 0.034856,-0.048799 0.125483,-0.076684 V 3.2420419 H 8.318098 L 8.5830066,2.9841045 8.5342076,2.8795353 8.3320405,2.8167938 8.2553564,2.8307363 8.1647298,2.8167938 8.1159308,2.8795353 H 8.0810744 L 7.8998211,3.4163239 v 0.062742 z"
         id="path407" />
      <path
         d="m 15.582158,5.8074729 0.01394,-0.013942 0.01394,0.013942 0.08366,-0.027885 0.02788,-0.1185117 0.09063,-0.034856 C 15.993464,5.1521726 16.167746,4.6850969 16.314143,4.2110498 16.46054,3.743974 16.592994,3.2629557 16.718477,2.7819374 h 0.0488 l 0.0488,-0.083655 -0.0488,-0.125483 C 16.648764,2.5170287 16.51631,2.4682298 16.390827,2.4194308 16.251401,2.3706319 16.118947,2.3427467 15.986493,2.3218329 h -0.03486 v 0.034856 l -0.07668,-0.013943 c -0.250966,0.00697 -0.494961,0.048799 -0.71107,0.1324544 -0.223081,0.090627 -0.43222,0.1812532 -0.648329,0.2927937 l 0.02091,0.048799 c 0.06274,0.048799 0.132455,0.083655 0.202168,0.1185117 0.05577,0.027885 0.139425,0.034856 0.230052,0.027885 l -0.02091,0.048799 -0.118512,0.05577 0.03486,0.1324543 c -0.06274,0.2509661 -0.125483,0.5089034 -0.202168,0.7668408 -0.07668,0.2579374 -0.139425,0.5158747 -0.195195,0.7807834 -0.007,0.069713 -0.007,0.1324543 0.01394,0.1951958 0.01394,0.05577 0.04183,0.1045692 0.09063,0.1533682 h 0.02789 c 0.02091,-0.048799 0.0488,-0.090627 0.06971,-0.1254831 0.02091,-0.034856 0.03486,-0.076684 0.03486,-0.1185117 l 0.0488,-0.020914 C 14.892002,4.5665851 15.017485,4.3016764 15.115083,4.0297965 15.219652,3.7648879 15.324221,3.493008 15.42879,3.2141568 l -0.03486,-0.2021672 -0.390392,-0.013943 0.07668,-0.076684 c 0.132455,-0.013943 0.257938,-0.041828 0.383421,-0.083655 0.118511,-0.034856 0.237023,-0.069713 0.362506,-0.1045692 h 0.146397 c -0.01394,0.4182768 -0.0488,0.8295824 -0.104569,1.2478592 -0.06274,0.4113055 -0.188225,0.8016972 -0.376449,1.1642037 l -0.111541,-0.013942 -0.0976,-0.2161097 h -0.03486 c 0,-0.1185118 -0.01394,-0.2300522 -0.0488,-0.3346214 -0.03486,-0.1045692 -0.06274,-0.2091385 -0.08366,-0.3276502 h -0.03486 l 0.01394,0.2300522 -0.01394,0.2509661 0.01394,0.048799 -0.0488,0.4949609 v 0.062741 l 0.08366,0.090627 0.313708,0.2439948 0.139425,0.1185118 z m -2.202924,-2.042585 0.06971,-0.020914 c 0.0976,-0.1882245 0.174282,-0.3764491 0.250966,-0.5716449 0.07668,-0.1951959 0.160339,-0.3834204 0.257937,-0.5646737 h 0.03486 c 0.04183,-0.048799 0.07668,-0.097598 0.0976,-0.1533682 0.02091,-0.05577 0.06274,-0.097598 0.11154,-0.1324543 l 0.08366,-0.027885 v -0.034856 h 0.118512 l 0.02091,-0.069713 c 0,-0.034856 0,-0.069713 0,-0.1045692 0,-0.027885 -0.01394,-0.05577 -0.03486,-0.076684 l 0.0488,-0.2021671 h 0.02788 l 0.08366,-0.1254831 0.104569,-0.034856 v -0.069713 h 0.03486 l 0.01394,-0.174282 0.07668,0.027885 h 0.02091 v -0.013942 h -0.03486 v -0.034856 l -0.0976,-0.013943 -0.03486,-0.083655 0.02091,-0.1115405 c 0,-0.034856 -0.01394,-0.062742 -0.04183,-0.083655 -0.02789,-0.013942 -0.03486,-0.034856 -0.02789,-0.069713 -0.05577,0 -0.104569,-0.00697 -0.146396,-0.0278851 -0.0488,-0.0209138 -0.09063,-0.0418277 -0.132455,-0.0766841 V 0.8857492 l -0.06971,-0.0627415 -0.209138,-0.1394256 -0.05577,0.0209138 0.02091,0.18125328 v 0.0975979 l -0.10457,0.0139426 -0.007,0.15336812 h -0.02091 l -0.0976,0.2997651 0.03486,0.1115405 c -0.07668,0.3625065 -0.153368,0.7319844 -0.21611,1.0875197 -0.06971,0.3625065 -0.139426,0.7319844 -0.202167,1.0944909 z m 4.41282,-0.7180419 0.0976,-0.069713 0.03486,-0.076684 h 0.04183 l 0.03486,-0.1324543 h 0.03486 l 0.03486,-0.069713 0.132455,-0.062742 0.08366,0.027885 v -0.076684 l 0.0976,-0.048799 0.06971,0.013942 h 0.09063 L 18.53101,2.524 v -0.05577 l 0.08366,0.020914 0.118512,-0.034856 -0.0976,-0.1324543 v -0.027885 l 0.118512,0.013942 h 0.09063 V 2.224235 L 18.663464,2.0848094 18.649522,2.0081253 18.405527,1.7920156 C 18.175475,1.7292741 17.945422,1.6595613 17.71537,1.5828772 17.492289,1.5131644 17.262237,1.4573942 17.032185,1.4016239 h -0.01394 l 0.146397,0.2439948 c 0.07668,0.076684 0.153368,0.1603395 0.223081,0.2509661 0.06971,0.097598 0.139426,0.1882246 0.209138,0.2788512 l 0.243995,0.2091384 0.0488,0.1045692 c 0.01394,0.097598 0.007,0.1882246 -0.01394,0.2858225 -0.02091,0.097598 -0.0488,0.1812533 -0.08366,0.2718799 z"
         id="path409" />
      <path
         d="m 23.682772,5.9747837 0.132454,-0.05577 v -0.048799 l -0.04183,0.027885 h -0.0488 l 0.146397,-0.5925588 h 0.04183 l -0.0976,0.4043342 v 0.069713 l 0.07668,-0.125483 -0.02091,-0.069713 v -0.041828 h 0.04183 l 0.05577,-0.1394256 h -0.05577 l 0.02788,-0.1394256 h 0.0488 l 0.160339,-0.8853526 h 0.0488 c 0.0488,-0.2161097 0.09063,-0.4182768 0.125483,-0.6274152 0.02789,-0.2091384 0.0488,-0.4182768 0.06971,-0.6413577 l -0.07668,-1.0526633 0.02091,-0.7668409 0.362507,0.027885 c 0.0488,0 0.104569,0 0.16731,0.00697 0.05577,0.00697 0.104569,-0.013942 0.139426,-0.062741 l -0.02091,-0.062742 C 24.909717,1.178543 24.833033,1.1436866 24.770291,1.0948876 24.70755,1.0460886 24.637837,1.004261 24.582067,0.955462 l -0.02091,-0.19519584 c -0.02091,-0.0627415 -0.05577,-0.11154048 -0.111541,-0.1394256 -0.05577,-0.0348564 -0.11154,-0.0627415 -0.153368,-0.0975979 l -0.146397,0.048799 -0.09063,0.16731072 h -0.0488 l 0.02789,-0.16731072 h 0.02091 l -0.06971,0.11851176 0.02091,0.174282 V 1.1715717 c -0.243995,0.041828 -0.460105,0.1185117 -0.662272,0.2230809 -0.209138,0.097598 -0.432219,0.1812533 -0.669243,0.2300523 l -0.355535,0.3346214 v 0.027885 c 0.07668,-0.020914 0.146397,-0.013943 0.195196,0.00697 0.0488,0.020914 0.09063,0.069713 0.139425,0.1254831 l 0.118512,-0.013943 0.0488,-0.1463969 c 0.188225,-0.076684 0.369478,-0.174282 0.557703,-0.2858224 0.181253,-0.1115405 0.369477,-0.2021672 0.557702,-0.2858225 h 0.06971 l 0.118512,1.5964231 c -0.02091,0.5019322 -0.06274,0.9899218 -0.125483,1.4709401 -0.07668,0.4879896 -0.181254,0.9620367 -0.320679,1.4151699 z m -2.11927,-1.0038644 h 0.0488 v -0.090627 h 0.06971 L 21.6611,4.7826948 h -0.0488 c 0.02091,-0.1254831 0.02789,-0.2579374 0.02789,-0.3903917 0,-0.1394256 0.01394,-0.2718799 0.04183,-0.397363 V 3.967055 c -0.02788,0.062741 -0.06971,0.125483 -0.118512,0.174282 -0.0488,0.062741 -0.07668,0.1324543 -0.07668,0.2161097 l -0.09063,-0.1254831 c -0.01394,-0.348564 0.007,-0.6831854 0.06274,-0.996893 0.05577,-0.2997651 0.09063,-0.6274152 0.104569,-0.9620367 0.01394,-0.250966 0,-0.5019321 -0.03486,-0.7459269 C 21.486818,1.2900834 21.410134,1.0739738 21.27768,0.8857492 l 0.0976,0.6204439 c 0,0.3206789 -0.01394,0.6274152 -0.0488,0.9341516 -0.03486,0.3067363 -0.05577,0.6134726 -0.06971,0.9271802 0,0.2718799 0,0.5437599 0,0.8156398 0,0.2718799 0.06274,0.5089034 0.188225,0.7180418 z"
         id="path411" />
      <path
         d="m 29.970854,6.1211806 h 0.06274 c 0.07668,-0.2021672 0.111541,-0.4113056 0.132455,-0.6343865 0.01394,-0.223081 0.03486,-0.4391907 0.06971,-0.6483291 l -0.01394,-0.062742 0.01394,-0.090627 -0.01394,-0.090627 0.02788,-0.1394256 -0.01394,-0.1045692 0.01394,-0.090627 -0.01394,-0.1254831 0.01394,-0.034856 -0.01394,-0.048799 0.02091,-0.2927938 c 0.334622,-0.062742 0.676215,-0.1045692 1.024779,-0.1185118 0.334621,-0.00697 0.683185,-0.013942 1.045692,-0.020914 0,-0.020914 0,-0.041828 0,-0.069713 0,-0.020914 0.007,-0.027885 0.02789,-0.027885 l -0.0488,-0.048799 v -0.125483 c -0.104569,-0.041828 -0.202167,-0.069713 -0.306737,-0.076684 -0.11154,-0.00697 -0.209138,-0.034856 -0.299765,-0.097598 l -0.104569,0.090627 -0.02788,0.048799 c -0.21611,0.00697 -0.432219,0.027885 -0.641358,0.048799 -0.209138,0.020914 -0.425248,0.05577 -0.620444,0.097598 l -0.0488,-0.013943 -0.02788,-0.3206789 -0.03486,-0.027885 -0.01394,-0.076684 -0.08366,-0.027885 v -0.034856 h 0.04183 c -0.007,-0.062742 0,-0.1254831 0.01394,-0.1812533 0.02091,-0.048799 0.03486,-0.1045692 0.04183,-0.1603394 l -0.01394,-0.2021672 0.03486,-0.2718799 -0.01394,-0.1045692 0.06274,-0.4252481 h 0.0488 v -0.013942 h 0.02789 l -0.01394,0.041828 c 0.02091,0.062742 0.05577,0.125483 0.09063,0.174282 0.02789,0.05577 0.0488,0.1185117 0.05577,0.1951958 l 0.125483,0.083655 0.07668,0.097598 -0.01394,0.041828 c -0.0488,0.062742 -0.10457,0.1115404 -0.153369,0.1394256 -0.05577,0.034856 -0.11154,0.05577 -0.188224,0.05577 0.007,0.062742 0.02091,0.125483 0.04183,0.1812533 0.01394,0.048799 0.04183,0.1045692 0.07668,0.1533681 0.09063,-0.027885 0.188224,-0.041828 0.285822,-0.048799 0.09063,-0.00697 0.188225,-0.020914 0.278851,-0.048799 0.07668,0 0.16034,0 0.250966,0.00697 0.08366,0.00697 0.16034,0.013943 0.237024,0.034856 l 0.132454,-0.013943 -0.05577,-0.1951958 c -0.06274,-0.020914 -0.118512,-0.041828 -0.174282,-0.062742 -0.06274,-0.020914 -0.11154,-0.034856 -0.174282,-0.041828 l -0.0488,0.013943 v 0.027885 l -0.195196,0.020914 h -0.139425 l 0.01394,-0.048799 0.0976,-0.013943 c 0.01394,-0.069713 0.0488,-0.1324543 0.09063,-0.1812533 0.0488,-0.048799 0.09063,-0.1115405 0.11154,-0.1673107 l -0.08366,-0.1673107 -0.111541,-0.076684 0.01394,-0.1533682 0.08366,-0.041828 0.07668,-0.1185117 V 1.3737388 l -0.02789,-0.013943 -0.0488,-0.090627 -0.05577,-0.034856 0.01394,-0.083655 0.362506,-0.18822452 v -0.048799 l -0.04183,-0.006971 -0.01394,-0.048799 -0.223081,-0.0906266 -0.0488,-0.0766841 -0.04183,0.0139426 -0.139425,-0.0278851 h -0.139426 l 0.01394,0.0557702 -0.01394,0.19519584 c -0.06274,0.0278851 -0.118512,0.048799 -0.181253,0.0697128 -0.06274,0.0209138 -0.118512,0.0627415 -0.167311,0.11154052 -0.02091,0.041828 -0.04183,0.083655 -0.06274,0.1115404 -0.02091,0.034856 -0.03486,0.083655 -0.03486,0.1324544 h -0.02789 l 0.132454,-0.59255884 h 0.02789 l 0.153368,-0.11154048 v -0.0278851 h 0.195196 v -0.0836554 l -0.04183,-0.0139426 -0.01394,-0.048799 -0.320679,-0.15336816 h -0.139425 v 0.0557702 h -0.02091 l -0.01394,0.0627415 -0.146396,0.0906266 h -0.03486 l 0.02091,-0.1045692 c 0.007,-0.0766841 0.007,-0.1394256 -0.01394,-0.20216712 -0.02091,-0.0627415 -0.06971,-0.11154048 -0.132454,-0.14639688 -0.0488,0.06274152 -0.09063,0.13245432 -0.11154,0.22308096 -0.02789,0.0836554 -0.06274,0.16731072 -0.10457,0.25096609 l 0.02091,0.16033944 0.04183,0.0348564 0.0488,0.0278851 0.01394,0.0627415 0.06971,0.0697128 0.0976,0.048799 0.04183,-0.0139426 h 0.03486 c -0.04183,0.27885116 -0.08366,0.55770236 -0.118512,0.83655366 -0.04183,0.2788512 -0.08366,0.5507311 -0.139425,0.822611 0,0.05577 0.02091,0.1045692 0.05577,0.1394256 0.02789,0.034856 0.05577,0.083655 0.07668,0.1324543 l 0.118512,0.069713 v 0.034856 c -0.07668,0 -0.153368,-0.00697 -0.21611,-0.027885 -0.07668,-0.00697 -0.146397,-0.027885 -0.223081,-0.048799 h -0.02788 c 0,0.041828 0.007,0.069713 0.01394,0.1045692 0.007,0.034857 0.02789,0.05577 0.06274,0.076684 l 0.03486,0.083655 0.04183,0.020914 c 0.0488,0.027885 0.06971,0.062742 0.06274,0.1185118 -0.007,0.062742 0,0.1115405 0.03486,0.1533682 l -0.02091,0.069713 -0.118511,0.027885 c -0.07668,0 -0.132455,-0.00697 -0.188225,-0.020914 -0.06274,-0.013943 -0.118512,-0.034856 -0.167311,-0.076684 -0.125483,0.034856 -0.257937,0.097598 -0.369477,0.1882245 -0.125483,0.090627 -0.257938,0.1603395 -0.390392,0.1951959 l -0.04183,-0.013943 -0.230052,0.041828 -0.02091,0.048799 c -0.118512,0.00697 -0.230052,0.034856 -0.348564,0.076684 -0.11154,0.041828 -0.230052,0.062742 -0.348564,0.069713 h 0.01394 v 0.041828 h -0.03486 v 0.013943 c 0.08366,0.048799 0.167311,0.097598 0.257938,0.1324543 0.08366,0.041828 0.174282,0.083655 0.264908,0.125483 0.278851,-0.083655 0.550731,-0.1603394 0.822611,-0.2370235 0.27188,-0.069713 0.536789,-0.1673107 0.787755,-0.2927938 l 0.09063,0.013943 0.06971,0.048799 c 0.03486,0.069713 0.0488,0.1463968 0.0488,0.2230809 0,0.083655 0.007,0.1603395 0.01394,0.2370235 v 0.6274153 c 0.007,0.1324543 0.01394,0.2649086 0.02091,0.3973629 0.007,0.1324543 0.02091,0.2579374 0.04183,0.3764491 z m -1.52671,-2.6212014 h 0.02788 c 0.04183,-0.1603394 0.07668,-0.3137076 0.104569,-0.474047 0.02091,-0.1533682 0.06274,-0.3137076 0.11154,-0.4670758 l 0.007,-0.1951958 h -0.01394 l -0.007,0.041828 -0.153368,0.1882245 -0.0488,-0.013943 0.03486,-0.1603395 v -0.041828 l -0.139426,0.3346215 -0.04183,0.013943 -0.125483,0.223081 -0.104569,0.083655 0.104569,0.2300522 h 0.02789 l 0.11154,0.1882246 z m 0.146396,-1.3803134 0.04183,-0.048799 0.07668,-0.020914 0.09063,-0.1603395 0.0488,-0.013942 0.06274,-0.1185118 0.111541,-0.027885 -0.08366,-0.2021671 -0.369477,-0.2161097 h -0.04183 c 0.02788,0.062742 0.05577,0.125483 0.08365,0.1812533 0.02789,0.062742 0.0488,0.125483 0.05577,0.1882245 0,0.083655 -0.007,0.1533682 -0.01394,0.223081 -0.01394,0.076684 -0.03486,0.1394256 -0.06274,0.1951958 z m 2.105327,-0.2091384 -0.02091,0.020914 h -0.02788 v -0.034856 h -0.03486 L 30.507642,1.701389 30.633125,1.5340782 h 0.04183 l -0.06274,0.1045693 c -0.007,0.048799 0,0.097598 0.03486,0.1394256 0.03486,0.034856 0.05577,0.076684 0.06274,0.125483 z m -0.334621,-0.3346215 -0.02091,0.020914 -0.01394,-0.020914 0.06274,-0.2858225 c 0.02091,-0.034856 0.04183,-0.069713 0.06274,-0.097598 0.02788,-0.034856 0.06274,-0.05577 0.104569,-0.069713 l 0.167311,0.00697 v 0.1951958 c -0.07668,0.020914 -0.139425,0.048799 -0.202167,0.097598 -0.06274,0.048799 -0.11154,0.090627 -0.160339,0.1394256 z m -1.547625,-0.4601045 0.139426,-0.041828 c 0,-0.048799 -0.01394,-0.097598 -0.04183,-0.13245436 -0.02788,-0.0348564 -0.04183,-0.0697128 -0.04183,-0.11154048 -0.08366,-0.048799 -0.174282,-0.0975979 -0.257938,-0.13245432 -0.09063,-0.0348564 -0.188224,-0.0627415 -0.27188,-0.0766841 h -0.06274 l 0.418277,0.37644912 0.01394,0.0766841 z"
         id="path413" />
      <path
         d="m 37.799589,5.8353581 0.02091,0.00697 0.04183,-0.097598 0.0488,-0.034856 c 0.08366,-0.2091384 0.146396,-0.4391906 0.181253,-0.6831854 0.03486,-0.2439948 0.05577,-0.4879896 0.07668,-0.7389557 l 0.306736,-0.2439948 0.09063,-0.1185118 v -0.048799 l -0.0488,-0.048799 h -0.03486 l 0.007,-0.027885 -0.06971,-0.069713 -0.139426,-0.069713 v -0.034856 l 0.264909,-0.1185118 c -0.02091,-0.05577 -0.05577,-0.090627 -0.11154,-0.097598 -0.05577,-0.00697 -0.10457,-0.020914 -0.146397,-0.041828 l -0.05577,0.034856 -0.104569,-0.027885 -0.07668,-0.1394256 v -0.034856 l 0.21611,-0.062742 0.05577,-0.05577 0.299765,0.013943 c 0.05577,0.2649086 0.104569,0.5367886 0.146397,0.8156398 0.04183,0.2788512 0.06274,0.5646737 0.06971,0.8435249 l -0.01394,0.4949608 -0.0976,0.013943 -0.223081,-0.013943 h -0.05577 l 0.02788,0.097598 h 0.03486 v 0.027885 l 0.0488,0.013943 0.007,0.062742 0.0488,0.020914 0.01394,0.041828 0.285823,0.2091384 0.02091,0.00697 v -0.041828 l 0.06971,-0.048799 0.111541,0.05577 h 0.02788 l -0.02788,-0.223081 0.02788,-0.7528982 0.007,-0.020914 -0.007,-0.05577 0.01394,-0.090627 -0.007,-0.048799 0.007,-0.062742 -0.02788,-0.3764491 c 0.007,-0.076684 0.007,-0.1603394 0.01394,-0.2439948 0,-0.069713 0.007,-0.1533681 0.03486,-0.2300522 0.007,-0.090627 0,-0.1882246 -0.01394,-0.2927938 -0.01394,-0.097598 -0.02788,-0.2021671 -0.0488,-0.3067363 -0.0488,-0.041828 -0.111541,-0.062742 -0.181253,-0.083655 -0.07668,-0.013942 -0.139426,-0.027885 -0.202167,-0.041828 -0.223081,-0.020914 -0.446162,0 -0.655301,0.048799 -0.209138,0.048799 -0.404334,0.1394256 -0.578616,0.2649087 h 0.02789 v 0.048799 l -0.0488,0.00697 0.181253,0.020914 -0.03486,0.083655 0.02788,0.1115405 V 3.493008 L 37.248858,3.66729 36.976978,3.5418069 37.03972,3.39541 h 0.02788 l 0.07668,-0.1394256 0.05577,-0.013943 c 0.02091,-0.062742 0.06274,-0.1254831 0.118512,-0.1812533 0.0488,-0.05577 0.08366,-0.1185118 0.09063,-0.174282 h 0.02788 l 0.06274,-0.1115405 0.04183,-0.013943 0.03486,-0.069713 c 0.03486,-0.041828 0.06971,-0.076684 0.0976,-0.125483 0.02091,-0.041828 0.05577,-0.076684 0.104569,-0.1045692 l -0.01394,-0.1324543 -0.06274,-0.013943 0.007,-0.034856 1.296658,-0.2021671 0.118512,0.013943 -0.09063,0.2021671 -0.05577,0.00697 h -0.01394 c 0.07668,-0.013943 0.160339,-0.041828 0.230052,-0.090627 0.07668,-0.041828 0.153368,-0.083655 0.223081,-0.1324543 0.02091,-0.00697 0.03486,-0.00697 0.06971,-0.00697 0.02789,0 0.0488,-0.013943 0.05577,-0.048799 l 0.250966,-0.05577 -0.03486,-0.048799 c -0.03486,-0.048799 -0.08366,-0.076684 -0.139426,-0.083655 -0.05577,0 -0.104569,-0.013943 -0.146397,-0.048799 -0.299765,0.00697 -0.585587,0.034856 -0.864438,0.069713 -0.278852,0.041828 -0.550732,0.090627 -0.81564,0.1533682 h -0.06274 c 0.02789,-0.076684 0.06971,-0.1463969 0.132455,-0.2091384 0.05577,-0.05577 0.08366,-0.125483 0.08366,-0.2021671 h 0.0488 l 0.02091,-0.083655 h 0.02789 v -0.027885 l 0.0488,0.00697 0.11154,-0.1812533 0.32765,-0.034856 0.01394,-0.048799 0.250966,-0.083655 -0.05577,-0.013943 v -0.041828 c -0.05577,-0.041828 -0.125483,-0.069713 -0.202167,-0.076684 -0.09063,-0.00697 -0.174282,-0.0348564 -0.250966,-0.0697128 -0.007,-0.048799 -0.007,-0.1045692 -0.007,-0.16033944 0,-0.0557702 -0.007,-0.11154048 -0.03486,-0.16033944 l -0.355535,-0.13942561 -0.118512,0.0418277 -0.111541,0.10456921 v 0.0139426 l 0.167311,0.0348564 0.04183,0.0697128 -0.04183,0.3625066 -0.411305,0.125483 h -0.06274 l -0.007,-0.048799 h -0.0488 l -0.01394,-0.048799 -0.362506,-0.15336818 h -0.02788 l 0.007,0.0766841 h 0.01394 l 0.111541,0.1951958 v 0.1045692 l -0.397363,0.013943 v 0.034856 l -0.07668,0.00697 c 0.06971,0.062742 0.139426,0.1185117 0.21611,0.1673107 0.06274,0.048799 0.139425,0.076684 0.230052,0.083655 0.007,0.1045692 0,0.1882245 -0.01394,0.2718799 -0.02091,0.083655 -0.0488,0.1673107 -0.08366,0.2579374 -0.125483,0.027885 -0.243995,0.069713 -0.348564,0.1324543 -0.104569,0.05577 -0.223081,0.097598 -0.334622,0.1185117 l -0.153368,-0.020914 -0.06274,0.00697 -0.007,0.034856 -0.07668,0.013943 V 2.524 l 0.320679,0.2021671 0.299765,-0.041828 0.02788,-0.034856 c 0.111541,-0.041828 0.230053,-0.090627 0.341593,-0.1254831 0.118512,-0.034856 0.230052,-0.069713 0.341593,-0.1185117 h 0.06274 c -0.07668,0.2230809 -0.16731,0.425248 -0.271879,0.6204439 -0.111541,0.2021671 -0.230053,0.397363 -0.369478,0.5855875 l -0.06274,0.048799 c -0.01394,0.048799 -0.03486,0.083655 -0.06971,0.1185117 -0.02789,0.034856 -0.05577,0.076684 -0.06971,0.1254831 h -0.02789 l -0.06971,0.076684 -0.04183,0.097598 h -0.02788 l -0.376449,0.4531332 v 0.013943 l 0.02788,-0.048799 0.02789,0.00697 0.007,-0.027885 h 0.05577 l 0.02091,-0.05577 0.167311,-0.1115405 0.01394,-0.069713 h 0.02789 l 0.02091,-0.048799 0.04183,-0.020914 0.0488,-0.069713 h 0.0488 l 0.383421,-0.4601045 0.202167,0.1533682 -0.02091,0.6762142 -0.06274,0.1394256 c -0.01394,0.076684 -0.007,0.1463969 0.02788,0.2091384 0.02789,0.062742 0.06274,0.125483 0.111541,0.174282 l 0.03486,0.00697 v 0.034856 h 0.04183 l 0.06274,-0.05577 v -0.034856 l 0.09063,0.027885 h 0.02788 l -0.02091,-0.2230809 0.007,-0.090627 c 0.09063,-0.013943 0.188224,-0.034856 0.278851,-0.069713 0.09063,-0.034856 0.167311,-0.069713 0.243995,-0.1115404 0.0488,0.00697 0.06274,0.041828 0.0488,0.090627 -0.01394,0.048799 -0.007,0.090627 0.01394,0.1185118 l -0.03486,0.8016972 -0.08366,0.3276501 z M 35.02502,5.2009716 c 0.04183,-0.00697 0.07668,-0.020914 0.118511,-0.041828 0.03486,-0.020914 0.07668,-0.034856 0.125483,-0.027885 -0.02091,-0.076684 -0.05577,-0.1533682 -0.104569,-0.223081 -0.05577,-0.076684 -0.08366,-0.1533681 -0.08366,-0.2370235 0,-0.2300523 0.02091,-0.4531332 0.07668,-0.6622716 0.05577,-0.2091384 0.104569,-0.4252481 0.146397,-0.6413578 l -0.06274,-0.1951958 -0.08366,-0.05577 V 3.0817024 L 34.794967,2.7889087 C 34.906508,2.5518851 35.02502,2.3288042 35.143531,2.0987519 35.262043,1.875671 35.373584,1.6386475 35.46421,1.3876814 l 0.111541,-0.083655 c -0.007,-0.069713 -0.02091,-0.125483 -0.02788,-0.1812533 -0.01394,-0.05577 -0.03486,-0.1115405 -0.06274,-0.17428198 C 35.429354,0.91363432 35.373584,0.8857492 35.317813,0.8508928 35.255072,0.8160364 35.199302,0.78815128 35.13656,0.78118 V 0.7463236 l -0.04183,-0.0209138 -0.05577,0.0139426 0.0488,0.11851176 -0.02091,0.32765012 h -0.0488 l -0.01394,0.027885 0.02788,0.1463968 c -0.01394,0.076684 -0.03486,0.1533682 -0.06971,0.2300523 -0.03486,0.076684 -0.06971,0.1533682 -0.11154,0.2161097 l -0.111541,0.041828 c -0.007,0.034856 -0.007,0.069713 0,0.097598 0.007,0.027885 0.02091,0.05577 0.0488,0.083655 -0.09063,0.2927938 -0.202167,0.571645 -0.32765,0.8504962 -0.132454,0.2788512 -0.264909,0.5577024 -0.397363,0.8365536 h -0.02789 l -0.104569,0.1533682 v 0.027885 l 0.0488,-0.041828 0.0488,-0.069713 0.06971,-0.020914 0.132455,-0.2439948 h 0.04183 l 0.09063,-0.1045692 c 0.04183,-0.076684 0.09063,-0.1533682 0.139426,-0.2091384 0.0488,-0.062742 0.08366,-0.1394256 0.104569,-0.2161097 h 0.03486 l 0.06971,-0.1254831 0.05577,0.00697 c 0.007,0.090627 0.02788,0.1882246 0.08366,0.2788512 0.0488,0.090627 0.08366,0.1882246 0.104569,0.2858225 l -0.02788,0.7947259 -0.0488,0.2509661 -0.174282,0.1254831 -0.01394,0.027885 0.0488,0.2370235 0.167311,0.2300523 0.02788,0.069713 z m 2.321436,-0.9062664 -0.01394,0.013942 -0.02091,-0.013942 0.05577,-0.5158748 0.404334,-0.076684 h 0.0488 l 0.01394,0.069713 -0.03486,0.1045692 -0.11154,0.090627 -0.209139,0.1812533 -0.104569,0.1324543 h -0.02788 z m 0.453133,-0.020914 -0.348564,0.1324543 h -0.03486 c 0.03486,-0.090627 0.0976,-0.174282 0.174282,-0.2370235 0.07668,-0.062741 0.153368,-0.1185117 0.230052,-0.1882245 l 0.03486,0.00697 0.02788,0.1951959 -0.02091,0.069713 z m 0.453133,-0.2230809 -0.02091,0.013942 -0.05577,-0.00697 -0.007,-0.076684 0.01394,-0.034856 -0.01394,-0.069713 0.007,-0.090627 0.05577,0.00697 0.03486,0.2091384 z M 37.618336,2.0290391 37.506795,2.0708668 37.2628,2.049953 c 0.007,-0.090627 0.02091,-0.1812533 0.04183,-0.2579374 0.02091,-0.069713 0.0488,-0.1533681 0.08366,-0.2300522 l 0.334621,-0.1254831 h 0.0488 c -0.007,0.097598 -0.02091,0.2021672 -0.04183,0.3067364 -0.02788,0.097598 -0.06274,0.1951958 -0.11154,0.2858224 z"
         id="path415" />
    </g>
  </g>
</svg>
