<?xml version="1.0" encoding="UTF-8" standalone="no"?>
<!-- Created with Inkscape (http://www.inkscape.org/) -->

<svg
   width="50.000999mm"
   height="7mm"
   viewBox="0 0 50.000998 7"
   version="1.1"
   id="svg5"
   inkscape:version="1.2.2 (b0a8486, 2022-12-01)"
   sodipodi:docname="editProfile.svg"
   xmlns:inkscape="http://www.inkscape.org/namespaces/inkscape"
   xmlns:sodipodi="http://sodipodi.sourceforge.net/DTD/sodipodi-0.dtd"
   xmlns="http://www.w3.org/2000/svg"
   xmlns:svg="http://www.w3.org/2000/svg">
  <sodipodi:namedview
     id="namedview7"
     pagecolor="#ffffff"
     bordercolor="#000000"
     borderopacity="0.25"
     inkscape:showpageshadow="2"
     inkscape:pageopacity="0.0"
     inkscape:pagecheckerboard="0"
     inkscape:deskcolor="#d1d1d1"
     inkscape:document-units="mm"
     showgrid="false"
     inkscape:zoom="4.7488465"
     inkscape:cx="78.54539"
     inkscape:cy="27.690935"
     inkscape:window-width="1440"
     inkscape:window-height="771"
     inkscape:window-x="1080"
     inkscape:window-y="1616"
     inkscape:window-maximized="0"
     inkscape:current-layer="layer1" />
  <defs
     id="defs2">
    <rect
       x="-1.8951972"
       y="4.0009718"
       width="213.31496"
       height="77.703079"
       id="rect268" />
  </defs>
  <g
     inkscape:label="Layer 1"
     inkscape:groupmode="layer"
     id="layer1">
    <text
       xml:space="preserve"
       style="font-size:8.85995px;font-family:KouzanBrushFontGyousyoOTF;-inkscape-font-specification:KouzanBrushFontGyousyoOTF;fill:#000000;stroke-width:0.166124"
       x="-1.3619121"
       y="8.4681635"
       id="text214"
       transform="scale(0.67763293,1.4757252)"><tspan
         sodipodi:role="line"
         id="tspan212"
         style="stroke-width:0.166124"
         x="-1.3619121"
         y="8.4681635" /></text>
    <text
       xml:space="preserve"
       transform="scale(0.26458333)"
       id="text266"
       style="font-size:53.3333px;font-family:KouzanBrushFontGyousyoOTF;-inkscape-font-specification:KouzanBrushFontGyousyoOTF;white-space:pre;shape-inside:url(#rect268);display:inline;fill:#000000" />
    <g
       aria-label="プロフィール編集"
       transform="scale(0.90773014,1.101649)"
       id="text539"
       style="font-size:7.0774px;font-family:KouzanBrushFontGyousyoOTF;-inkscape-font-specification:KouzanBrushFontGyousyoOTF;fill:#1a1a1a;stroke-width:0.408311">
      <path
         d="M 1.416504,5.2416965 C 1.5863616,5.1213807 1.7420644,4.9869101 1.9048446,4.8595169 2.05347,4.7250463 2.2020954,4.5764209 2.336566,4.4065633 l 0.049542,-0.077851 0.084929,-0.021232 C 2.6125846,4.1305447 2.7116682,3.9394549 2.7824422,3.7200555 2.8532162,3.5077334 2.9452224,3.3166436 3.079693,3.1255538 h 0.056619 C 3.2141636,2.9627736 3.2990924,2.7999934 3.3910986,2.651368 3.4831048,2.5027426 3.5609562,2.3399624 3.6458851,2.1701048 L 3.8015879,2.1488726 V 2.0214794 h 0.099084 L 3.8228201,1.7242286 C 3.7378913,1.6392998 3.6458851,1.5826806 3.539724,1.5472936 3.4406404,1.5119066 3.3486342,1.4765196 3.256628,1.4340552 h -0.02831 v 0.021232 L 2.9098354,1.4340552 H 2.8249066 L 2.8036744,1.6039128 C 2.3507208,1.660532 1.9048446,1.731306 1.4377362,1.7950026 0.97770517,1.8657766 0.53890636,1.9577828 0.10718495,2.0922534 c 0.0849288,0.092006 0.176935,0.141548 0.28309601,0.176935 0.106161,0.035387 0.1910898,0.070774 0.2760186,0.1203158 0.36802484,0 0.70774004,-0.049542 1.03330044,-0.1557028 C 2.0251604,2.1417952 2.3436434,2.049789 2.6762812,1.9719376 h 0.099084 l 0.049542,0.176935 C 2.7045908,2.686755 2.5276558,3.21756 2.301179,3.7412877 2.0676248,4.2720927 1.770374,4.7604333 1.416504,5.2204643 Z M 4.3677799,1.7737704 4.4951731,1.7242286 4.5447149,1.554371 c 0.092006,0 0.1627802,-0.021232 0.2335542,-0.063697 C 4.8419657,1.4552874 4.9127397,1.412823 4.9764363,1.377436 4.9976685,1.2995846 4.9976685,1.2146558 4.9693589,1.1368044 4.9481267,1.058953 4.9127397,0.99525637 4.8773527,0.93155977 l -0.2264768,-0.0990836 -0.5166502,0.035387 -0.049542,0.23355423 0.021232,0.3751022 c 0.035387,0.049542 0.077851,0.106161 0.1132384,0.1557028 0.035387,0.063697 0.084929,0.106161 0.1486254,0.141548 z m 0.2052446,-0.2760186 -0.02831,0.035387 -0.070774,-0.176935 -0.106161,0.077851 -0.1273932,-0.035387 0.077851,-0.41048923 0.283096,0.0424644 0.077851,0.106161 c 0,0.063697 -0.00708,0.1344706 -0.014155,0.1910898 -0.00708,0.070774 -0.042464,0.1273932 -0.092006,0.1698576 z"
         id="path541" />
      <path
         d="m 8.9185349,4.8099751 c 0.3255604,0 0.6440434,-0.014155 0.955449,-0.035387 0.3043281,-0.021232 0.6086561,-0.056619 0.9200621,-0.106161 l 0.02831,-0.077851 0.0637,-0.021232 c 0.08493,-0.3043282 0.155703,-0.6157338 0.205245,-0.9412943 0.04954,-0.3255604 0.113238,-0.636966 0.212322,-0.9483716 h 0.04954 L 11.473476,2.4885878 11.749495,2.3187302 11.721185,2.1984144 C 11.586715,2.1347178 11.459322,2.0639438 11.317774,2.0002472 11.176226,1.9365506 11.048832,1.872854 10.914362,1.80208 l -0.297251,0.084929 -0.16278,-0.02831 c -0.325561,0 -0.6369663,0.035387 -0.9342171,0.106161 -0.3043282,0.077851 -0.6086564,0.141548 -0.9129847,0.2052446 h -0.141548 l -0.02831,-0.049542 h -0.070774 l 0.021232,0.092006 v 0.077851 L 8.2815688,2.7009098 H 8.232027 v 0.02831 h 0.02831 v 0.070774 L 7.9206214,2.6584454 h -0.070774 v 0.042464 l -0.070774,-0.021232 -0.02831,0.049542 -0.1840124,-0.070774 v -0.02831 c 0.056619,0.1486254 0.1203158,0.2901734 0.1840124,0.424644 0.063697,0.1344706 0.1557028,0.2689412 0.2689412,0.3963344 l 0.049542,0.02831 c 0.077851,0.2052446 0.1486254,0.4246441 0.2193994,0.6511209 0.063697,0.2264768 0.1627802,0.4387988 0.2901734,0.636966 z m 1.2668541,-0.4387988 -0.09908,0.02831 c -0.2123221,0 -0.4246441,0 -0.6440435,0 -0.212322,0 -0.4104892,-0.035387 -0.601579,-0.099084 C 8.8052965,4.0456159 8.7699095,3.8049843 8.7062128,3.57143 8.6425162,3.3378758 8.5222004,3.1043216 8.3664976,2.8919996 V 2.8495352 C 8.6495936,2.6726002 8.9539219,2.50982 9.2724049,2.3611946 9.5908879,2.2125692 9.9306031,2.1417952 10.277396,2.120563 l 0.07785,0.02831 0.02123,0.1698576 h 0.04954 l 0.04954,0.5732694 c 0,0.2406316 -0.0071,0.4883406 -0.02123,0.7218948 -0.02123,0.2335543 -0.08493,0.4458763 -0.19109,0.6440435 l -0.07785,0.021232 z"
         id="path543" />
      <path
         d="m 16.165779,4.9373683 0.120316,-0.042464 0.198167,-0.2264768 0.155703,-0.077851 h 0.148626 v 0.049542 c 0.368024,-0.3821796 0.67943,-0.813901 0.920062,-1.2739321 0.240631,-0.4671084 0.481263,-0.9271394 0.721894,-1.380093 l 0.141548,0.02831 0.08493,-0.02831 0.04954,-0.092006 h 0.08493 L 18.763185,1.7808478 18.628715,1.660532 C 18.501321,1.6039128 18.352696,1.5685258 18.204071,1.5472936 18.048368,1.5331388 17.920975,1.4694422 17.800659,1.3562038 h -0.02831 v 0.070774 l -0.169857,-0.021232 -0.276019,0.1203158 -0.02831,-0.02831 c -0.396334,0 -0.778514,0.014155 -1.153616,0.035387 -0.382179,0.02831 -0.750204,0.077851 -1.104074,0.1486254 -0.07077,0 -0.148626,0 -0.226477,0 -0.07785,0 -0.148626,-0.014155 -0.2194,-0.049542 h -0.09908 v 0.099084 h -0.07785 l 0.02123,0.099084 0.127393,0.042464 c 0.09201,0.035387 0.155703,0.070774 0.205244,0.1344706 0.04954,0.063697 0.09908,0.1344706 0.155703,0.1981672 0.368025,-0.1132384 0.73605,-0.212322 1.11823,-0.2901734 0.382179,-0.070774 0.764359,-0.1203158 1.174848,-0.1344706 h 0.07785 l 0.02831,0.070774 C 17.220312,2.3965816 17.078764,2.9273866 16.915984,3.4511142 16.746126,3.9819193 16.49134,4.4773373 16.165779,4.9373683 Z"
         id="path545" />
      <path
         d="m 24.37555,5.9423591 0.05662,-0.014155 c 0.01416,-0.176935 0.01416,-0.3397152 0,-0.5095728 -0.02123,-0.176935 -0.04954,-0.3326378 -0.07785,-0.495418 l 0.02123,-0.056619 -0.02123,-0.1344706 0.04246,-0.460031 -0.02123,-0.1273932 0.04246,-0.2547864 c -0.01415,-0.049542 -0.02123,-0.1132384 -0.02123,-0.176935 0,-0.056619 -0.02123,-0.1132385 -0.07077,-0.1557029 l -0.176935,0.021232 h -0.07785 C 24.21277,3.3732628 24.37555,3.1750956 24.545408,2.9910832 24.722343,2.7999934 24.842659,2.5947488 24.927587,2.368272 c 0,-0.042464 0,-0.084929 0,-0.1344706 0,-0.042464 -0.01415,-0.084929 -0.04954,-0.1203158 l -0.283096,-0.056619 -0.141548,-0.2052446 -0.05662,0.2052446 -0.13447,0.1132384 0.02123,0.1132384 c -0.04954,0.2335542 -0.141548,0.4529536 -0.283096,0.6440434 -0.148625,0.1981672 -0.283096,0.3963344 -0.403412,0.5945016 h -0.03539 l -1.288087,1.6631891 v 0.021232 c 0.290174,-0.1273932 0.530805,-0.318483 0.728973,-0.5449598 0.198167,-0.2264768 0.410489,-0.4387988 0.644043,-0.6511208 l 0.155703,-0.2193994 0.0637,0.021232 c 0.04246,0.106161 0.106161,0.2052446 0.19109,0.2972508 0.07785,0.092006 0.106161,0.1981672 0.09201,0.3255604 0,0.1698576 0,0.3467926 0,0.5166502 0,0.1840124 -0.02123,0.3397152 -0.07785,0.4883406 0,0.070774 0.02123,0.141548 0.05662,0.2052446 0.02831,0.063697 0.05662,0.1273932 0.08493,0.1910898 z"
         id="path547" />
      <path
         d="m 29.174014,3.4228046 c 0.460031,-0.084929 0.920062,-0.1627802 1.387171,-0.2193994 0.460031,-0.056619 0.927139,-0.106161 1.401325,-0.1344706 0.233554,0 0.467108,0.00708 0.700662,0.014155 0.226477,0.00708 0.424645,0.070774 0.615734,0.2052446 l 0.07785,-0.02831 0.106161,-0.2689412 0.13447,-0.02831 -0.02123,-0.084929 c -0.09201,-0.056619 -0.184012,-0.099084 -0.276018,-0.1344706 -0.08493,-0.035387 -0.19109,-0.063697 -0.304329,-0.084929 -0.559114,0.056619 -1.132384,0.106161 -1.712731,0.1486254 -0.587424,0.049542 -1.160693,0.099084 -1.726885,0.1557028 C 29.343872,2.9840058 29.145705,2.934464 28.96877,2.8212256 28.798912,2.7150646 28.607822,2.651368 28.409655,2.6301358 l 0.488341,0.5732694 z"
         id="path549" />
      <path
         d="m 38.141065,5.3124705 c 0.04954,-0.106161 0.120316,-0.1840124 0.219399,-0.2618638 0.09908,-0.070774 0.198168,-0.1344706 0.283096,-0.1910898 l 0.184013,-0.2193994 h 0.04954 c 0.08493,-0.1910898 0.233554,-0.3680248 0.417566,-0.530805 0.184013,-0.1557028 0.325561,-0.3397152 0.410489,-0.5449599 l -0.02831,-0.1557028 -0.04954,0.049542 h -0.02831 V 3.2600244 c -0.09908,0.1203158 -0.212322,0.2335542 -0.35387,0.3609474 -0.13447,0.1203159 -0.268941,0.2547865 -0.396334,0.3821797 l -0.70774,0.5945016 h -0.07785 V 3.6563588 c 0.08493,-0.3043282 0.127393,-0.6228112 0.127393,-0.9625264 0,-0.3397152 0.03539,-0.6581982 0.09908,-0.9696038 l -0.02831,-0.106161 c -0.0637,-0.02831 -0.127393,-0.056619 -0.19109,-0.077851 -0.07077,-0.021232 -0.141548,-0.021232 -0.226477,-0.00708 l -0.120316,-0.2264768 0.02831,0.042464 V 1.554371 h -0.07077 v 0.1273932 l 0.07077,0.1981672 -0.02831,0.106161 0.07077,1.1819258 -0.02123,0.092006 0.04954,0.6865079 c 0,0.141548 -0.0071,0.2901734 -0.01415,0.4387988 -0.0071,0.1557028 -0.03539,0.2972508 -0.08493,0.4317214 l -0.120315,0.021232 -0.02123,0.035387 v 0.042464 l 0.311406,0.247709 0.148625,0.063697 v 0.042464 z M 36.308018,4.5127243 36.492031,4.3782537 c 0.141548,-0.247709 0.261864,-0.5024954 0.360947,-0.7572819 0.09908,-0.2547864 0.155703,-0.5237276 0.16278,-0.8209784 h 0.02831 l -0.02831,-0.1273932 0.05662,-0.35387 -0.02831,-0.1981672 -0.318483,-0.092006 -0.09908,-0.042464 V 1.943628 l -0.07077,-0.021232 -0.02123,-0.084929 h -0.02123 l 0.02123,0.042464 v 0.2193994 l -0.09908,0.021232 0.120315,0.4175666 -0.02123,0.106161 0.02123,0.1557028 c -0.01415,0.2689412 -0.04954,0.5166502 -0.113238,0.743127 -0.07077,0.2335543 -0.155703,0.4671085 -0.240632,0.7077401 v 0.1273932 h 0.03539 l -0.02123,0.084929 h 0.09201 z"
         id="path551" />
      <path
         d="m 46.110206,6.1759133 c 0.106161,-0.3680248 0.169858,-0.7502044 0.2194,-1.1536162 0.04246,-0.3963344 0.09201,-0.7926688 0.155702,-1.1890032 l 0.09908,-0.021232 0.219399,0.035387 h 0.07077 l 0.09201,-0.063697 -0.02123,-0.077851 -0.339715,-0.092006 v -0.02831 l -0.07785,-0.042464 -0.02123,-0.049542 -0.04954,-0.014155 -0.07077,-0.1344706 0.01415,-0.070774 0.438798,-0.1910898 c 0.03539,0 0.08493,0 0.134471,0 0.04954,0.00708 0.09908,0.014155 0.134471,0.042464 0.04246,0.042464 0.07077,0.099084 0.07785,0.1627802 0.0071,0.063697 0.02123,0.1273932 0.04246,0.1981672 -0.0071,0.2406317 -0.02123,0.4883407 -0.04246,0.7148175 -0.02831,0.2264768 -0.07785,0.4458762 -0.16278,0.6652756 l -0.226477,-0.035387 h -0.01416 c 0.0071,0.049542 0.02123,0.106161 0.03539,0.1698576 0.01416,0.063697 0.04246,0.1203158 0.09908,0.1627802 0.02831,0.02831 0.04954,0.063697 0.05662,0.1132384 0.0071,0.049542 0.03539,0.084929 0.08493,0.092006 l 0.01416,0.063697 0.0637,0.021232 0.198167,-0.099084 c 0.03539,-0.3609474 0.09908,-0.70774 0.205245,-1.0403778 0.106161,-0.3326378 0.16278,-0.6794305 0.184012,-1.0545327 l -0.03539,-0.1344706 c -0.106161,-0.056619 -0.212322,-0.099084 -0.32556,-0.1273932 -0.120316,-0.02831 -0.226477,-0.056619 -0.339715,-0.084929 -0.283096,0.049542 -0.566192,0.106161 -0.835133,0.1698576 -0.276019,0.056619 -0.530805,0.176935 -0.778514,0.3397152 l 0.120315,0.014155 c -0.03539,0.077851 -0.05662,0.1557028 -0.07077,0.2335542 -0.01415,0.077851 -0.03539,0.1627803 -0.05662,0.2406317 l -0.615734,0.2972508 0.0637,0.077851 c 0.08493,0 0.169858,-0.00708 0.254786,-0.00708 0.08493,-0.00708 0.162781,-0.021232 0.233555,-0.042464 h 0.0637 l 0.03539,0.2972508 -0.02123,0.099084 0.09908,0.2547864 0.07785,0.049542 0.0637,-0.014155 c 0.07077,-0.1273932 0.13447,-0.2760186 0.169857,-0.4175666 0.03539,-0.1486254 0.07077,-0.3043282 0.09201,-0.4671084 l 0.19109,-0.077851 h 0.02831 l 0.01415,0.6794304 -0.0071,0.9625264 0.01416,0.021232 c -0.0071,0.084929 -0.01416,0.1698576 -0.01416,0.2618638 0,0.099084 -0.01415,0.176935 -0.03539,0.2547864 z m -3.071592,-0.4034118 0.03539,-0.070774 C 43.02446,5.4540185 42.960763,5.2275417 42.875834,5.0152197 42.783828,4.8028977 42.677667,4.5905757 42.543196,4.3924085 h -0.02831 l -0.02123,-0.056619 C 42.437035,4.2791701 42.387494,4.2367057 42.323797,4.2013187 42.2601,4.1659317 42.189326,4.1446995 42.12563,4.1376221 h -0.03539 c 0.184012,0.1981672 0.32556,0.4175666 0.424644,0.6440434 0.09908,0.2264768 0.184012,0.4671084 0.254786,0.7148174 0.03539,0.063697 0.07077,0.1203158 0.120316,0.1627802 0.04954,0.049542 0.09908,0.084929 0.148625,0.1132384 z m 1.953363,-0.5237276 0.03539,-0.014155 v -0.056619 h 0.03539 l 0.01416,-0.106161 -0.07077,-0.2264768 0.0637,-0.2760186 v -0.077851 h -0.01415 v -0.014155 h -0.02123 v -0.014155 h -0.02123 l -0.04246,0.1273932 h -0.0637 C 44.892893,4.5268791 44.871661,4.4561051 44.836274,4.3853311 44.800887,4.3216345 44.7655,4.2650153 44.715958,4.2083961 44.659339,4.1517769 44.60272,4.0951577 44.546101,4.0456159 44.489482,3.9960741 44.418708,3.9748419 44.340856,3.9677645 v -0.049542 h 0.03539 c 0.08493,-0.1486254 0.16278,-0.2901735 0.247709,-0.4387989 0.07785,-0.1344706 0.141548,-0.2901734 0.184013,-0.4458762 h 0.03539 c 0.0637,-0.1627802 0.13447,-0.3114056 0.198167,-0.460031 0.05662,-0.141548 0.106161,-0.2972508 0.141548,-0.460031 -0.0071,-0.084929 -0.04954,-0.1273932 -0.106161,-0.1344706 -0.07077,-0.00708 -0.141548,-0.021232 -0.205245,-0.042464 h -0.09908 l 0.0637,0.099084 c -0.113238,0.495418 -0.276018,0.9837586 -0.481263,1.450867 -0.212322,0.4812633 -0.460031,0.9342169 -0.73605,1.3800931 l 0.0637,-0.00708 0.01415,-0.070774 h 0.05662 L 43.92329,4.5834983 c 0.03539,-0.042464 0.07077,-0.084929 0.09908,-0.1203158 0.02831,-0.035387 0.04954,-0.084929 0.0637,-0.1344706 h 0.02831 l 0.176935,-0.318483 h 0.02831 c 0.148625,0.1698576 0.219399,0.35387 0.233554,0.5591146 0.01415,0.212322 0.08493,0.389257 0.205245,0.5520372 h 0.03539 z M 43.328788,4.4631825 h 0.05662 l 0.03539,-0.084929 c 0,-0.049542 -0.01416,-0.092006 -0.03539,-0.1273932 -0.02831,-0.035387 -0.04954,-0.077851 -0.07077,-0.1273932 L 43.144776,4.0314611 H 43.02446 v 0.056619 c 0.03539,0.070774 0.07077,0.141548 0.120316,0.212322 0.04954,0.077851 0.113238,0.1273932 0.184012,0.1627802 z m 2.321387,-0.042464 -0.02123,0.014155 -0.02831,-0.070774 V 4.1446995 l 0.113239,-0.035387 h 0.03539 z M 43.725122,3.9889967 43.859593,3.9465323 V 3.7766747 L 43.583574,3.6351266 h -0.127393 z m 2.130298,-0.2335542 -0.254787,0.084929 h -0.03539 l 0.05662,-0.2618639 h 0.03539 l 0.0071,-0.042464 0.176935,-0.084929 h 0.08493 l -0.0637,0.247709 z m 0.276018,-0.070774 -0.04954,0.014155 h -0.04246 l 0.04246,-0.1486254 h 0.03539 l 0.01415,0.042464 z m -3.425461,-0.1627802 0.04954,-0.014155 v -0.035387 l 0.141548,-0.1203158 0.01415,-0.042464 0.346793,-0.2547864 0.07785,-0.084929 0.01416,-0.049542 h 0.04246 l 0.02123,-0.056619 0.141548,-0.077851 0.08493,-0.1557028 0.04954,-0.00708 0.08493,-0.1486254 h 0.03539 l 0.08493,0.1486254 -0.03539,0.1840124 v 0.02831 h 0.0637 l 0.02123,-0.042464 0.04954,-0.014155 0.03539,-0.070774 0.07077,-0.049542 0.02831,-0.092006 c -0.0071,-0.056619 -0.02123,-0.106161 -0.02831,-0.1698576 -0.01416,-0.063697 -0.04246,-0.1203158 -0.09201,-0.1698576 -0.03539,-0.035387 -0.07785,-0.063697 -0.120315,-0.084929 -0.04954,-0.014155 -0.09908,-0.035387 -0.148626,-0.063697 l -0.127393,0.021232 0.05662,0.035387 0.07077,0.1344706 -0.290173,0.2760186 v 0.035387 h -0.03539 l -0.113239,0.1203158 v 0.035387 L 43.088156,2.86369 42.981995,2.969851 h -0.04954 c 0.127394,-0.212322 0.261864,-0.4317214 0.38218,-0.6440434 0.127393,-0.212322 0.276019,-0.4104892 0.431722,-0.6157338 L 43.831283,1.625145 43.817129,1.5119066 43.548187,1.3986682 43.35002,1.412823 c 0.0071,0.077851 0,0.1486254 -0.02123,0.1981672 -0.02123,0.049542 -0.05662,0.106161 -0.09201,0.1627802 -0.09201,0.063697 -0.184013,0.1344706 -0.268942,0.1910898 -0.09201,0.070774 -0.184012,0.1203158 -0.283096,0.1557028 h -0.03539 l 0.08493,-0.2547864 0.212322,-0.2547864 v -0.042464 l 0.09908,-0.084929 0.0637,-0.1203158 h 0.04246 l 0.05662,-0.1486254 h 0.03539 l 0.07785,-0.23355423 -0.0637,-0.24063161 -0.325561,-0.29725081 h -0.04954 l 0.13447,0.40341182 c 0.0071,0.21939943 -0.02123,0.42464403 -0.09908,0.59450163 -0.08493,0.1840124 -0.184013,0.35387 -0.297251,0.5237276 l -0.106161,0.049542 -0.134471,0.1273932 c 0.02123,0.070774 0.04246,0.1557028 0.07785,0.2406316 0.03539,0.084929 0.0637,0.1627802 0.08493,0.2406316 h 0.03539 v 0.035387 l 0.106161,-0.014155 0.04246,-0.1486254 0.141548,-0.099084 v -0.035387 l 0.184012,-0.1486254 0.03539,-0.063697 0.05662,-0.021232 h 0.03539 L 43.010305,2.545207 h -0.04246 l -0.290173,0.5520372 -0.07077,0.014155 c 0,0.070774 0.0071,0.141548 0.02831,0.212322 0.01415,0.070774 0.03539,0.1273932 0.07077,0.1840124 z m 2.66818,-1.0049908 c 0.155702,-0.02831 0.311405,-0.077851 0.474185,-0.1486254 0.148626,-0.063697 0.297251,-0.1344706 0.438799,-0.1910898 v -0.035387 l 0.120316,-0.056619 0.141548,-0.1132384 0.07077,-0.1344706 h 0.03539 l 0.04954,-0.1203158 0.07077,-0.035387 0.03539,-0.070774 c 0.02831,-0.042464 0.05662,-0.063697 0.09201,-0.063697 0.03539,0 0.08493,0 0.134471,0.00708 l 0.148625,-0.1557028 -0.03539,-0.077851 C 47.07981,1.2641976 46.994881,1.2288106 46.88872,1.2075784 46.789637,1.1863462 46.690553,1.1509592 46.598547,1.1014174 h -0.08493 v 0.042464 l -0.09201,-0.014155 -0.02831,0.063697 -0.169857,0.035387 -0.0071,0.02831 c -0.233554,0.035387 -0.452953,0.070774 -0.672353,0.1132384 -0.226477,0.049542 -0.467108,0.092006 -0.70774,0.1132384 l 0.02123,0.063697 c 0.04954,0.049542 0.106161,0.077851 0.155703,0.092006 0.04954,0.021232 0.09908,0.035387 0.155703,0.042464 0.19109,0.021232 0.360947,-0.00708 0.51665,-0.070774 0.16278,-0.070774 0.311406,-0.1344706 0.474186,-0.1910898 l 0.09201,0.00708 -0.32556,0.5874242 -0.283096,0.106161 -0.106161,-0.02831 c -0.05662,0 -0.113239,0.00708 -0.16278,0.014155 -0.04246,0.014155 -0.09201,0.035387 -0.141548,0.070774 l 0.04954,0.2689412 z m 0.16278,-1.450867 c 0.13447,-0.035387 0.276018,-0.063697 0.424644,-0.0990836 0.13447,-0.035387 0.268941,-0.0778514 0.396334,-0.1273932 l 0.04954,-0.18401241 h 0.04954 V 0.57061236 L 46.088974,0.45737395 h -0.05662 v 0.035387 l -0.09908,-0.0141548 h -0.04954 v 0.035387 c -0.16278,0.0424644 -0.318483,0.0849288 -0.474185,0.1344706 -0.155703,0.0495418 -0.325561,0.0778514 -0.509573,0.0778514 0.09201,0.0849288 0.19109,0.16278021 0.297251,0.22647681 0.106161,0.0636966 0.212322,0.0990836 0.339715,0.11323843 z"
         id="path553" />
      <path
         d="m 51.885353,6.3103839 0.106161,-0.021232 0.01415,-0.084929 0.148626,-0.063697 -0.04954,-0.3255604 0.02123,-0.247709 -0.02123,-0.049542 c 0.01415,-0.1486254 0.02123,-0.3114056 0.02831,-0.4671084 0.0071,-0.1627802 0.02123,-0.3114056 0.04954,-0.4671084 0,-0.049542 0,-0.099084 -0.0071,-0.1486254 -0.0071,-0.042464 -0.02123,-0.084929 -0.03539,-0.1344706 v -0.056619 h 0.02831 v -0.035387 c 0.254787,-0.056619 0.509573,-0.099084 0.76436,-0.1273932 0.254786,-0.021232 0.51665,-0.056619 0.778514,-0.092006 v -0.070774 c 0.04246,-0.035387 0.09201,-0.056619 0.155702,-0.056619 0.05662,0 0.106161,-0.00708 0.155703,-0.02831 l 0.02831,-0.035387 v -0.035387 h -0.02831 v -0.02831 c -0.07785,-0.049542 -0.155703,-0.063697 -0.247709,-0.063697 -0.09201,0 -0.169857,-0.014155 -0.247709,-0.049542 l -0.09908,0.014155 C 53.20175,3.5926622 52.975273,3.5572752 52.741719,3.5289656 52.515242,3.500656 52.288765,3.4581916 52.069366,3.4015724 V 3.359108 c 0.106161,-0.042464 0.212322,-0.099084 0.304328,-0.1698576 0.08493,-0.063697 0.19109,-0.106161 0.304328,-0.141548 l 0.04954,0.014155 h 0.0637 c 0.03539,-0.00708 0.05662,-0.02831 0.07785,-0.056619 0.01415,-0.02831 0.02123,-0.063697 0.02123,-0.106161 l 0.08493,-0.021232 0.01415,-0.049542 0.04954,-0.014155 v -0.042464 c -0.0637,-0.014155 -0.134471,-0.035387 -0.205245,-0.056619 -0.07785,-0.021232 -0.134471,-0.049542 -0.19109,-0.099084 l -0.0637,0.035387 h -0.08493 c 0,-0.042464 0,-0.092006 0,-0.141548 0,-0.042464 0.01415,-0.084929 0.03539,-0.1203158 0.05662,-0.021232 0.106161,-0.056619 0.155703,-0.106161 0.04246,-0.042464 0.07785,-0.070774 0.120315,-0.084929 l 0.02123,-0.035387 V 2.1276404 C 52.770028,2.1064082 52.720487,2.085176 52.663867,2.0639438 52.607248,2.049789 52.550629,2.0285568 52.49401,1.9931698 l 0.01415,-0.141548 0.13447,-0.1486254 c 0.01416,-0.021232 0.03539,-0.049542 0.0637,-0.070774 0.02831,-0.014155 0.03539,-0.042464 0.02123,-0.077851 h 0.02831 l 0.120315,-0.1627802 c -0.03539,-0.056619 -0.08493,-0.077851 -0.148625,-0.077851 -0.07785,0 -0.148625,0 -0.219399,0 0,-0.070774 0.0071,-0.141548 0.01415,-0.212322 0.0071,-0.070774 0.02123,-0.12739323 0.04246,-0.18401243 l 0.311405,-0.13447061 0.134471,-0.141548 v -0.035387 c -0.05662,-0.0141548 -0.113238,-0.0283096 -0.16278,-0.0495418 -0.04954,-0.0141548 -0.09908,-0.035387 -0.134471,-0.070774 -0.05662,0 -0.106161,0.007077 -0.155703,0.0212322 -0.04954,0.0212322 -0.09908,0.0424644 -0.141548,0.0778514 h -0.02831 l 0.07077,-0.27601861 -0.0071,-0.1627802 -0.120315,-0.09908361 c -0.02123,0 -0.04246,0 -0.07077,0 -0.02831,0 -0.04954,0.0141548 -0.0637,0.035387 h -0.04246 v 0.035387 l -0.09908,0.0283096 v 0.0283096 l 0.113238,0.0212322 c -0.01415,0.1557028 -0.04954,0.29017341 -0.120315,0.41756661 -0.07077,0.1273932 -0.148626,0.24770901 -0.233555,0.36802481 l -0.155702,0.0636966 -0.03539,0.1132384 0.08493,0.283096 0.283096,-0.1486254 v -0.02831 l 0.205245,-0.106161 h 0.03539 l -0.01416,0.212322 c -0.09908,0.035387 -0.198167,0.077851 -0.290173,0.1344706 -0.08493,0.056619 -0.169858,0.1203158 -0.247709,0.1981672 0,0.063697 0,0.1273932 0.0071,0.1910898 0.0071,0.056619 0.02123,0.1132384 0.04246,0.1698576 l 0.02831,0.014155 c 0.04954,0.049542 0.07785,0.092006 0.09908,0.1344706 0.0071,0.049542 0.02831,0.099084 0.04954,0.141548 0.02123,0.092006 0.0071,0.1557028 -0.04246,0.212322 -0.04246,0.056619 -0.09908,0.1132384 -0.155703,0.1698576 -0.0071,0.063697 0,0.1203158 0.02831,0.176935 0.02831,0.056619 0.05662,0.1132384 0.07785,0.1698576 v 0.092006 l -0.05662,0.014155 -0.02831,0.070774 C 51.453632,3.465269 51.177613,3.677591 50.908672,3.8757583 50.639731,4.0739255 50.349557,4.2437831 50.045229,4.3570215 l -0.19109,0.1840124 c 0,0.070774 0.01415,0.1344706 0.03539,0.1981672 0.02123,0.063697 0.04954,0.1203158 0.08493,0.1698576 0.283096,-0.084929 0.559115,-0.1840124 0.828056,-0.2972508 0.268941,-0.099084 0.537882,-0.1981672 0.820979,-0.2760186 l 0.07077,0.021232 c 0.04246,0.106161 0.07077,0.2193994 0.07785,0.3467926 0.0071,0.1344706 0.01416,0.2547864 0.02123,0.3751022 l -0.01415,0.6581982 -0.212322,0.056619 -0.297251,-0.014155 -0.29725,0.035387 0.184012,0.049542 v 0.02831 c 0.127393,0.021232 0.247709,0.070774 0.360948,0.141548 0.106161,0.056619 0.219399,0.1273932 0.32556,0.2052446 v 0.035387 z m 2.47709,-0.3326378 -0.04954,-0.1627802 h -0.03539 v -0.063697 h 0.02123 l -0.02123,-0.049542 0.02123,-0.049542 h 0.03539 v 0.035387 l 0.07785,0.014155 0.05662,0.1132384 h 0.01416 v -0.063697 l 0.113239,-0.1203158 0.07785,0.035387 h 0.07077 l -0.03539,-0.099084 v -0.035387 l 0.198167,0.049542 h 0.02831 v -0.02831 l 0.08493,-0.049542 v -0.035387 l -0.03539,-0.014155 v -0.077851 h 0.02123 L 54.9711,5.2416965 C 54.772933,5.1426129 54.560611,5.0647615 54.348289,5.0081423 54.135967,4.9586005 53.923645,4.8949039 53.711323,4.8312073 h -0.07077 l 0.07077,0.042464 v 0.035387 L 53.52731,4.8524395 h -0.02831 c 0.0637,0.1273932 0.127393,0.2547864 0.191089,0.3680248 0.0637,0.1203158 0.141548,0.2406316 0.233555,0.3609474 h 0.127393 l 0.04954,0.070774 0.106161,0.049542 0.01415,0.077851 z M 50.172622,5.7158823 c 0.03539,0 0.0637,0 0.08493,0 0.02123,0 0.03539,-0.014155 0.04246,-0.049542 0.05662,-0.035387 0.106161,-0.063697 0.16278,-0.092006 0.05662,-0.02831 0.106161,-0.063697 0.155703,-0.106161 v -0.042464 c -0.07785,0 -0.148626,-0.021232 -0.212322,-0.070774 -0.05662,-0.042464 -0.120316,-0.077851 -0.184013,-0.099084 l -0.02123,-0.035387 c -0.0637,-0.021232 -0.127393,-0.042464 -0.19109,-0.056619 -0.0637,-0.014155 -0.13447,-0.02831 -0.205244,-0.035387 h -0.02123 l -0.02123,0.042464 0.283096,0.495418 z m 1.436713,-1.6702664 c -0.169858,0.063697 -0.346793,0.1273932 -0.530805,0.1910898 -0.176935,0.056619 -0.35387,0.1273932 -0.516651,0.2193994 h -0.02831 v -0.035387 l 0.02831,-0.049542 0.07077,-0.049542 c 0.127394,-0.092006 0.261864,-0.1910898 0.396335,-0.2972508 0.141548,-0.092006 0.276018,-0.1840124 0.417567,-0.2618638 h 0.05662 z m 0.969604,-0.2618638 -0.587425,0.1627802 h -0.07077 c -0.0071,-0.056619 -0.02123,-0.1132384 -0.03539,-0.1698576 -0.02123,-0.049542 -0.04246,-0.092006 -0.09201,-0.1415481 h -0.03539 v -0.084929 l 0.233554,-0.1344706 c 0.09908,-0.00708 0.169858,0.021232 0.233555,0.084929 0.0637,0.070774 0.13447,0.1132384 0.226476,0.1344706 v 0.035387 z m -1.818892,-0.1273933 0.0637,-0.021232 V 3.57143 c 0.03539,-0.014155 0.07077,-0.035387 0.106161,-0.056619 0.03539,-0.021232 0.0637,-0.021232 0.106161,-0.014155 0,-0.1557028 0.02123,-0.3255604 0.0637,-0.4812632 0.03539,-0.1627802 0.0637,-0.3114056 0.08493,-0.4671084 0.01415,-0.070774 0.0071,-0.1486254 -0.01416,-0.212322 -0.02123,-0.063697 -0.05662,-0.1273932 -0.09908,-0.176935 -0.09201,-0.035387 -0.176935,-0.063697 -0.268941,-0.084929 -0.09201,-0.021232 -0.19109,-0.02831 -0.304328,-0.014155 l 0.01416,-0.084929 h 0.03539 l 0.09908,-0.092006 0.03539,-0.070774 0.127393,-0.084929 -0.01415,-0.099084 0.240631,-0.389257 h 0.03539 c 0.05662,-0.021232 0.09908,-0.056619 0.134471,-0.092006 0.03539,-0.035387 0.0637,-0.077851 0.09201,-0.1203158 l 0.07077,-0.11323843 v -0.0849288 l -0.05662,-0.0141548 -0.07077,-0.16278021 c -0.106161,-0.0566192 -0.198167,-0.1203158 -0.283096,-0.1840124 -0.09201,-0.0566192 -0.19109,-0.0990836 -0.290174,-0.11323841 h -0.02123 l 0.03539,0.12739321 c 0,0.1132384 -0.0071,0.2193994 -0.02831,0.318483 -0.02123,0.10616101 -0.05662,0.21232204 -0.106161,0.30432824 -0.02123,0.035387 -0.04246,0.063697 -0.05662,0.099084 -0.02123,0.035387 -0.04246,0.063697 -0.07785,0.084929 -0.09201,0.2618638 -0.205245,0.5237276 -0.32556,0.778514 -0.134471,0.2547864 -0.268942,0.5024954 -0.41049,0.743127 V 2.86369 h 0.05662 l 0.276018,-0.2760186 0.04954,-0.099084 0.04246,-0.014155 0.07077,-0.1203158 0.04954,-0.014155 0.113239,-0.176935 0.0637,-0.035387 0.198167,0.049542 0.127394,0.1273932 -0.07785,0.70774 -0.09908,0.092006 -0.03539,0.1203158 z m 1.19608,-1.663189 -0.01415,0.021232 h -0.03539 l -0.04954,-0.1132384 0.01415,-0.099084 0.29725,-0.1981672 h 0.04954 c 0,0.042464 0,0.084929 -0.0071,0.1273932 -0.0071,0.049542 -0.02831,0.084929 -0.05662,0.1203158 z"
         id="path555" />
    </g>
  </g>
</svg>
