<?xml version="1.0" encoding="UTF-8" standalone="no"?>
<!-- Created with Inkscape (http://www.inkscape.org/) -->

<svg
   width="35mm"
   height="7mm"
   viewBox="0 0 35 7"
   version="1.1"
   id="svg5"
   inkscape:version="1.2.2 (b0a8486, 2022-12-01)"
   sodipodi:docname="editPostLOGO.svg"
   xmlns:inkscape="http://www.inkscape.org/namespaces/inkscape"
   xmlns:sodipodi="http://sodipodi.sourceforge.net/DTD/sodipodi-0.dtd"
   xmlns="http://www.w3.org/2000/svg"
   xmlns:svg="http://www.w3.org/2000/svg">
  <sodipodi:namedview
     id="namedview7"
     pagecolor="#ffffff"
     bordercolor="#000000"
     borderopacity="0.25"
     inkscape:showpageshadow="2"
     inkscape:pageopacity="0.0"
     inkscape:pagecheckerboard="0"
     inkscape:deskcolor="#d1d1d1"
     inkscape:document-units="mm"
     showgrid="false"
     inkscape:zoom="4.7488465"
     inkscape:cx="73.491531"
     inkscape:cy="22.637076"
     inkscape:window-width="1440"
     inkscape:window-height="771"
     inkscape:window-x="1080"
     inkscape:window-y="1616"
     inkscape:window-maximized="0"
     inkscape:current-layer="layer1" />
  <defs
     id="defs2">
    <rect
       x="-1.8951972"
       y="4.0009718"
       width="213.31496"
       height="77.703079"
       id="rect268" />
  </defs>
  <g
     inkscape:label="Layer 1"
     inkscape:groupmode="layer"
     id="layer1">
    <path
       style="color:#000000;fill:#000000;fill-rule:evenodd;-inkscape-stroke:none"
       d="m 4.4179687,7.6269531 v 0.21875 z"
       id="path552" />
    <text
       xml:space="preserve"
       transform="scale(0.26458333)"
       id="text266"
       style="font-size:53.3333px;font-family:KouzanBrushFontGyousyoOTF;-inkscape-font-specification:KouzanBrushFontGyousyoOTF;white-space:pre;shape-inside:url(#rect268);display:inline;fill:#000000" />
    <g
       aria-label="お裾分け編集"
       transform="scale(0.88559099,1.1291894)"
       id="text492"
       style="font-size:6.90479px;font-family:KouzanBrushFontGyousyoOTF;-inkscape-font-specification:KouzanBrushFontGyousyoOTF;fill:#1a1a1a;stroke-width:0.398353">
      <path
         d="M 0.67815649,5.8191489 0.84387144,5.7915298 C 0.9405385,5.7155771 1.0164912,5.6396244 1.0786343,5.5429573 1.1269678,5.4462903 1.1753014,5.356528 1.2236349,5.2529561 1.4722073,5.059622 1.7414941,4.8939071 2.0245905,4.7696208 2.3076869,4.6453346 2.6045929,4.5555724 2.9222132,4.5072388 c 0.1726198,-0.013809 0.3383347,-0.0069 0.5040497,0.01381 0.1726197,0.027619 0.3107155,0.096667 0.4419065,0.2140485 L 3.8198359,4.831764 3.1776904,4.6867634 3.3779293,4.831764 3.3503102,4.9077166 v 0.020714 l 0.096667,0.027619 0.1380958,0.2485724 0.2554773,0.1519054 c 0.1035718,0.01381 0.1864293,0 0.2761916,-0.034524 0.089762,-0.034524 0.1657149,-0.062143 0.2485724,-0.089762 L 4.4619814,5.0043837 C 4.441267,4.8870023 4.4205526,4.7903352 4.3929335,4.7005729 4.3584095,4.6108107 4.3031712,4.5210484 4.2272185,4.4381909 4.1167419,4.3069999 3.9855509,4.2241424 3.8405503,4.1758089 3.6817401,4.1343802 3.5298347,4.106761 3.3779293,4.0929514 c -0.359049,0 -0.7042885,0.048334 -1.0288137,0.131191 C 2.0245905,4.3139047 1.713875,4.4450957 1.4100642,4.6039059 H 1.3686355 L 1.5067313,3.6441401 V 2.5531833 L 1.4860169,2.5255641 V 2.3046108 L 1.7414941,2.1043719 1.8381612,1.8903234 h 0.055238 v -0.055238 h 0.041429 l 0.01381,-0.055238 V 1.7591324 H 1.8933995 V 1.676275 h 0.041429 v -0.01381 l -0.096667,0.069048 v 0.027619 h -0.020714 v 0.020714 h -0.048333 v -0.020714 l -0.262382,0.1588102 h -0.069048 v 0.01381 H 1.3824451 C 1.3548259,1.7522277 1.3272067,1.5727031 1.2995876,1.3724642 1.2650636,1.1860349 1.2167301,1.0065103 1.154587,0.83389059 H 1.1269678 L 1.2926828,1.7591324 1.2788732,2.0284192 0.75410917,2.2493725 C 0.60910859,2.2700869 0.49172716,2.2562773 0.38125052,2.2148486 0.26386909,2.1803246 0.16029724,2.1319911 0.0498206,2.0836576 v -0.027619 l 0.06214311,0.048334 0.0276192,0.082858 c 0.0897623,0.041429 0.19333412,0.096667 0.29690597,0.165715 0.0966671,0.069048 0.2071437,0.1173814 0.31762033,0.1450006 L 1.2788732,2.4288971 v -0.048334 h 0.062143 l 0.027619,0.4004778 c 0.0069,0.3452395 0.0069,0.690479 -0.027619,1.021909 -0.034524,0.3383347 -0.1035718,0.655955 -0.2140485,0.952861 L 0.75410917,4.9560502 v 0.027619 h -0.0897623 l 0.0138096,0.096667 c -0.0276192,0.082857 -0.0483335,0.165715 -0.0621431,0.2485724 -0.0207144,0.075953 -0.0552383,0.1519054 -0.10357185,0.2140485 l 0.0759527,0.075953 0.0207144,0.1450006 0.0966671,0.027619 z M 3.916503,1.676275 h 0.1450005 v -0.041429 c 0.041429,0 0.089762,0.0069 0.1380958,0.01381 0.048334,0.0069 0.075953,-0.01381 0.089762,-0.055238 L 4.3653143,1.5657983 4.4619814,1.4069882 4.4343622,1.344845 C 4.3722191,1.2550828 4.3031712,1.1929397 4.2272185,1.1515109 4.144361,1.1100822 4.0545988,1.0686534 3.9648365,1.0410343 c -0.1173814,0 -0.2278581,0.01381 -0.3314299,0.034524 -0.1173815,0.027619 -0.2278581,0.055238 -0.3314299,0.082858 l 0.048334,0.1104767 c 0.089762,0.062143 0.1864293,0.1173814 0.2830964,0.1657149 0.089762,0.048334 0.1864293,0.1104767 0.2830964,0.1864293 z"
         id="path549" />
      <path
         d="M 9.8338946,5.5774813 9.9719904,5.5498621 9.820085,5.2874801 H 9.785561 L 9.7441323,4.8939071 9.6405605,5.0872412 h -0.034524 v -0.0069 L 9.2262731,4.7143825 9.1503204,4.6522394 h -0.01381 c 0.034524,0.131191 0.096667,0.2554772 0.1726197,0.3866683 0.075953,0.1242862 0.1450006,0.2485724 0.2209533,0.3728586 0.048334,0.020714 0.1035719,0.048334 0.1519054,0.089762 0.041429,0.041429 0.089762,0.069048 0.1519054,0.075953 z m 0.4833354,-0.062143 0.01381,-0.01381 0.02071,0.01381 c 0.08976,-0.020714 0.179524,-0.048334 0.262382,-0.082858 0.08976,-0.034524 0.17262,-0.075953 0.255477,-0.1242862 l 0.05524,-0.1864294 h 0.03452 v -0.034524 h 0.02762 l 0.02072,-0.055238 h 0.02762 l 0.09667,-0.1104767 0.117382,-0.2554772 0.04833,-0.034524 0.179525,-0.3176203 c 0,-0.041429 0,-0.075953 -0.0069,-0.1035718 -0.0069,-0.027619 -0.02072,-0.055238 -0.03452,-0.089762 L 11.31152,4.0722371 v -0.027619 l -0.262382,-0.082858 -0.06214,0.01381 -0.08976,-0.01381 -0.255477,0.048334 -0.365954,-0.089762 -0.186429,0.089762 h -0.02762 c 0.02071,-0.048334 0.04833,-0.096667 0.08286,-0.1450006 0.03452,-0.048334 0.06214,-0.096667 0.06905,-0.1450006 l 0.04833,-0.01381 0.04143,-0.1173814 0.09667,-0.1104767 c 0.103572,-0.048334 0.200239,-0.082857 0.317621,-0.1035718 0.117381,-0.01381 0.220953,-0.020714 0.33143,-0.041429 0.110476,-0.013809 0.220953,-0.013809 0.324525,0 0.09667,0.020714 0.193334,0.034524 0.290001,0.069048 0.04833,0.0069 0.08286,0 0.117381,-0.020714 0.03452,-0.020714 0.06905,-0.027619 0.110477,-0.034524 v -0.048334 l -0.06214,-0.01381 v -0.034524 c -0.07595,-0.075953 -0.151906,-0.1104767 -0.255477,-0.1173815 -0.103572,-0.0069 -0.200239,-0.020714 -0.296906,-0.055238 l -0.06214,-0.055238 -0.165715,-0.027619 -0.303811,0.075953 v 0.0069 l 0.124286,0.048334 v 0.034524 l -0.379763,0.089762 h -0.07595 L 10.365563,3.0572329 10.248182,2.9191371 c -0.04143,-0.034524 -0.08976,-0.048334 -0.145001,-0.048334 -0.06214,0 -0.1104763,-0.01381 -0.1588098,-0.034524 l -0.096667,0.020714 v 0.041429 l 0.062143,0.048334 0.062143,0.1104766 V 3.4024724 L 9.2884162,3.6165209 H 9.2262731 C 9.3022257,3.450806 9.3574641,3.2919958 9.4057976,3.1193761 9.4472263,2.9536611 9.5093694,2.7948509 9.5922269,2.6429456 l 0.062143,0.034524 h 0.027619 l 0.041429,0.1450006 c 0.1380958,-0.041429 0.2692868,-0.082857 0.3935731,-0.131191 0.131191,-0.048334 0.248572,-0.1104767 0.372859,-0.1864293 v -0.027619 h 0.04833 l 0.04143,-0.1242862 0.08976,-0.048334 0.01381,-0.089762 h 0.03452 c 0.04833,-0.055238 0.09667,-0.1242862 0.138095,-0.1933341 0.03452,-0.062143 0.06905,-0.1242863 0.08976,-0.200239 l 0.06214,-0.048334 0.110477,-0.1933341 0.04143,-0.01381 v -0.034524 h 0.02762 v -0.027619 h -0.01381 v -0.075953 l -0.07595,-0.034524 -0.01381,-0.048334 -0.414288,-0.1173814 c -0.234763,0.020714 -0.448811,0.069048 -0.66286,0.1242862 -0.2071434,0.069048 -0.4142871,0.1242863 -0.6283356,0.165715 0.055238,0.041429 0.1104767,0.069048 0.1864294,0.082858 0.069048,0.020714 0.1380958,0.034524 0.2071437,0.048334 l 0.2002389,-0.01381 0.020714,-0.041429 c 0.062143,-0.0069 0.1242863,-0.034524 0.1864293,-0.082858 0.05524,-0.048333 0.117381,-0.082857 0.186429,-0.1035718 h 0.07595 c -0.0069,0.1588101 -0.03452,0.2969059 -0.06905,0.4350017 -0.03452,0.1380958 -0.08976,0.2692868 -0.17262,0.3866683 -0.04833,0.062143 -0.103571,0.1104766 -0.165715,0.1450005 -0.055238,0.034524 -0.1242857,0.062143 -0.2002384,0.075953 H 9.6198461 v -0.262382 l -0.075953,-0.075953 -0.1450006,0.01381 v 0.020714 l -0.1864293,0.01381 0.01381,0.1035718 0.048334,0.01381 C 9.2538922,2.5186593 9.2193683,2.760327 9.1710347,2.9950898 9.129606,3.2298527 9.0674629,3.450806 8.9846054,3.6717592 l -0.096667,0.020714 v 0.01381 h 0.034524 v 0.027619 h 0.027619 C 8.8879384,3.9479508 8.8257952,4.1619993 8.736033,4.3553335 8.6462707,4.5486676 8.5426989,4.7489065 8.4184126,4.9422406 l 0.048334,-0.020714 0.1173814,-0.131191 c 0.048334,-0.062143 0.089762,-0.1242862 0.1242862,-0.1933341 0.034524,-0.069048 0.062143,-0.131191 0.096667,-0.2071437 H 8.8327 l 0.027619,-0.062143 0.062143,-0.027619 0.2002389,-0.4695257 0.1035719,0.027619 c 0.1242862,0.01381 0.227858,-0.0069 0.3314299,-0.069048 C 9.65437,3.7339024 9.7441323,3.6855688 9.8477042,3.6441401 h 0.062143 c -0.0069,0.1173814 -0.027619,0.2278581 -0.055238,0.3245251 -0.034524,0.1104767 -0.082857,0.2140485 -0.1519053,0.296906 l 0.01381,0.048334 h 0.041429 c 0.020714,-0.0069 0.041429,-0.020714 0.062143,-0.041429 0.020714,-0.01381 0.027619,-0.034524 0.027619,-0.062143 h 0.048334 l 0.048334,0.1035718 h 0.048334 l 0.034524,0.096667 0.738812,-0.1864294 h 0.08976 c 0,0.165715 -0.02762,0.3107156 -0.08286,0.4419066 -0.06214,0.131191 -0.138096,0.2485724 -0.220953,0.3659539 -0.03452,0.041429 -0.06905,0.062143 -0.110477,0.082857 -0.04143,0.020714 -0.08976,0.041429 -0.138096,0.048334 l -0.103572,-0.01381 -0.151905,0.01381 0.01381,0.1104766 0.200239,0.165715 0.01381,0.048334 z M 7.5967426,5.4531951 c 0.020714,0 0.048334,0 0.069048,-0.0069 0.020714,-0.0069 0.034524,-0.01381 0.041429,-0.034524 l -0.01381,-0.062143 c 0,-0.2071437 0,-0.4004778 0.0069,-0.5938119 0.0069,-0.1933342 0.027619,-0.3728587 0.082858,-0.5454784 0,-0.048334 0,-0.096667 -0.0069,-0.1380958 -0.0069,-0.041429 -0.027619,-0.082857 -0.055238,-0.1242863 L 7.7348384,3.844379 V 3.8167598 L 7.7072193,3.9203317 7.5553139,3.7822359 C 7.5000756,3.7477119 7.4448373,3.7200928 7.3965037,3.6993784 7.3412654,3.678664 7.2791223,3.6648545 7.2169792,3.6579497 L 7.4172181,3.3334245 h 0.027619 L 7.8246007,2.7948509 v -0.027619 l 0.048334,-0.01381 C 7.9626965,2.629136 8.0524588,2.5048498 8.142221,2.3874683 8.2319833,2.2631821 8.3148408,2.1458007 8.4184126,2.0215145 L 8.5634132,1.9593713 8.6186515,1.8834187 8.5979372,1.8212755 8.5150797,1.772942 8.5012701,1.7315133 8.1629354,1.6348462 8.0524588,1.7453229 C 7.914363,1.8212755 7.7762672,1.904133 7.651981,1.9938953 7.5138852,2.0974671 7.3757894,2.1872294 7.2307888,2.2631821 H 7.18936 L 7.3274558,2.035324 7.4586468,1.938657 v -0.020714 h 0.034524 L 7.7624576,1.6279414 7.783172,1.5934175 7.9488869,1.4898456 8.0869827,1.344845 8.2941264,1.1031774 8.3907935,1.0203199 v -0.0345239 h 0.027619 l 0.020714,-0.0276192 c 0.0069,-0.0414287 0.0069,-0.0759527 -0.0069,-0.10357185 C 8.4115078,0.8269858 8.3976983,0.80627143 8.3769839,0.78555706 8.3010312,0.70960437 8.2250785,0.65436605 8.1353163,0.6198421 8.0386492,0.58531815 7.9488869,0.55769899 7.8591247,0.52317504 l -0.1242863,0.0345239 0.3659539,0.18642933 v 0.0897623 C 8.0524588,0.93746244 7.9972205,1.0341295 7.9419821,1.1307966 7.879839,1.2343684 7.8107911,1.3379403 7.7348384,1.4277025 7.6588857,1.5381792 7.5760283,1.641751 7.486266,1.7522277 7.4034085,1.8627043 7.3067415,1.9593713 7.2031696,2.0629432 l -0.062143,0.062143 -0.01381,0.034524 -0.3314299,0.227858 0.055238,0.2071437 0.027619,0.020714 0.048334,0.075953 0.7802413,-0.4488114 h 0.027619 C 7.6934097,2.3805635 7.6243618,2.5048498 7.5484091,2.6360408 7.4724564,2.7672318 7.4034085,2.891518 7.3412654,3.022709 l -0.089762,0.075953 -0.4004778,0.6697646 -0.027619,0.01381 -0.2692868,0.4419065 H 6.5195954 L 6.4298331,4.4105718 H 6.3953092 L 6.1260224,4.7765256 V 4.79724 L 6.271023,4.7420017 6.36769,4.666049 6.4160236,4.5900963 h 0.027619 l 0.01381,-0.034524 0.1173814,-0.082858 0.3728587,-0.5247641 h 0.041429 L 7.18936,3.6924736 7.3757894,3.7684263 c 0.020714,0.034524 0.041429,0.062143 0.055238,0.096667 0.020714,0.034524 0.027619,0.069048 0.027619,0.1104766 0,0.2140485 -0.0069,0.4142874 -0.01381,0.6145263 -0.0069,0.2071437 -0.048334,0.393573 -0.131191,0.559288 0.027619,0.048334 0.069048,0.096667 0.1242862,0.1450006 0.055238,0.048334 0.1104766,0.096667 0.1588101,0.1588102 z M 8.1284115,4.0584275 h 0.062143 v -0.034524 l 0.082857,-0.027619 -0.020714,-0.1380958 h -0.01381 l 0.01381,-0.041429 -0.01381,-0.062143 -0.1380958,0.075953 -0.2416676,-0.075953 h -0.034524 l 0.034524,0.1242862 0.1795245,0.082858 0.01381,0.082858 z M 7.8591247,3.6165209 c 0.034524,-0.0069 0.069048,-0.020714 0.1035718,-0.027619 0.027619,-0.0069 0.055238,-0.027619 0.089762,-0.062143 l 0.034524,-0.048334 0.1242862,-0.075953 v -0.034524 h 0.027619 l 0.262382,-0.2554772 -0.048334,-0.1035719 -0.2002389,-0.062143 -0.075953,0.01381 -0.089762,-0.01381 -0.048334,0.062143 H 8.0041252 L 7.8246007,3.5405682 v 0.062143 z"
         id="path546" />
      <path
         d="m 15.433666,5.9089112 0.01381,-0.01381 0.01381,0.01381 0.08286,-0.027619 0.02762,-0.1173814 0.08976,-0.034524 c 0.179524,-0.4695257 0.352144,-0.9321466 0.497145,-1.4016723 0.145,-0.4626209 0.276191,-0.9390514 0.400478,-1.4154819 h 0.04833 l 0.04833,-0.082858 -0.04833,-0.1242862 C 16.490099,2.6498503 16.358908,2.6015168 16.234621,2.5531833 16.096526,2.5048498 15.965335,2.4772306 15.834144,2.4565162 h -0.03452 v 0.034524 l -0.07595,-0.01381 c -0.248572,0.0069 -0.49024,0.048334 -0.704289,0.131191 -0.220953,0.089762 -0.428097,0.1795245 -0.642145,0.2900012 l 0.02071,0.048334 c 0.06214,0.048334 0.131191,0.082857 0.200239,0.1173814 0.05524,0.027619 0.138096,0.034524 0.227858,0.027619 l -0.02071,0.048334 -0.117381,0.055238 0.03452,0.1311911 c -0.06214,0.2485724 -0.124286,0.5040496 -0.200238,0.7595268 -0.07595,0.2554773 -0.138096,0.5109545 -0.193335,0.7733365 -0.0069,0.069048 -0.0069,0.131191 0.01381,0.1933341 0.01381,0.055238 0.04143,0.1035719 0.08976,0.1519054 h 0.02762 c 0.02072,-0.048334 0.04833,-0.089762 0.06905,-0.1242862 0.02072,-0.034524 0.03452,-0.075953 0.03452,-0.1173814 l 0.04833,-0.020714 c 0.138096,-0.262382 0.262382,-0.524764 0.359049,-0.7940508 0.103572,-0.2623821 0.207144,-0.5316689 0.310715,-0.8078605 l -0.03452,-0.2002389 -0.386669,-0.01381 0.07595,-0.075953 c 0.131191,-0.01381 0.255477,-0.041429 0.379763,-0.082858 0.117382,-0.034524 0.234763,-0.069048 0.359049,-0.1035719 h 0.145001 c -0.01381,0.4142874 -0.04833,0.82167 -0.103572,1.2359574 -0.06214,0.4073826 -0.186429,0.7940509 -0.372858,1.1530999 L 15.233427,5.2391466 15.13676,5.0250981 h -0.03452 c 0,-0.1173815 -0.01381,-0.2278581 -0.04833,-0.3314299 -0.03452,-0.1035719 -0.06214,-0.2071437 -0.08286,-0.3245252 h -0.03452 l 0.01381,0.2278581 -0.01381,0.2485724 0.01381,0.048334 -0.04833,0.4902401 v 0.062143 l 0.08286,0.089762 0.310715,0.2416677 0.138096,0.1173814 z M 13.251752,3.8858077 13.3208,3.8650934 c 0.09667,-0.1864294 0.17262,-0.3728587 0.248573,-0.5661928 0.07595,-0.1933341 0.15881,-0.3797635 0.255477,-0.559288 h 0.03452 c 0.04143,-0.048334 0.07595,-0.096667 0.09667,-0.1519054 0.02071,-0.055238 0.06214,-0.096667 0.110476,-0.131191 l 0.08286,-0.027619 v -0.034524 h 0.117381 l 0.02071,-0.069048 c 0,-0.034524 0,-0.069048 0,-0.1035718 0,-0.027619 -0.01381,-0.055238 -0.03452,-0.075953 l 0.04833,-0.2002389 h 0.02762 l 0.08286,-0.1242863 0.103572,-0.034524 v -0.069048 h 0.03452 l 0.01381,-0.1726197 0.07595,0.027619 h 0.02071 v -0.01381 h -0.03452 v -0.034524 l -0.09667,-0.01381 -0.03452,-0.082857 0.02071,-0.1104766 c 0,-0.034524 -0.01381,-0.062143 -0.04143,-0.082858 -0.02762,-0.01381 -0.03452,-0.034524 -0.02762,-0.069048 -0.05524,0 -0.103572,-0.0069 -0.145001,-0.027619 -0.04833,-0.020714 -0.08976,-0.041429 -0.131191,-0.075953 v -0.027619 l -0.06905,-0.0621431 -0.207143,-0.1380958 -0.05524,0.0207144 0.02072,0.17952454 v 0.096667 l -0.103572,0.01381 -0.0069,0.1519054 h -0.02071 l -0.09667,0.296906 0.03452,0.1104766 c -0.07595,0.3590491 -0.151906,0.725003 -0.214049,1.0771472 -0.06905,0.3590491 -0.138096,0.725003 -0.200239,1.0840521 z m 4.370732,-0.7111933 0.09667,-0.069048 0.03452,-0.075953 h 0.04143 l 0.03452,-0.131191 h 0.03452 l 0.03452,-0.069048 0.131191,-0.062143 0.08286,0.027619 v -0.075953 l 0.09667,-0.048334 0.06905,0.01381 h 0.08976 l -0.01381,-0.027619 v -0.055238 l 0.08286,0.020714 0.117382,-0.034524 -0.09667,-0.131191 v -0.027619 l 0.117381,0.01381 h 0.08976 V 2.3598492 L 18.485583,2.2217534 18.471773,2.1458007 18.230106,1.9317522 C 18.002248,1.8696091 17.77439,1.8005612 17.546532,1.7246085 17.325578,1.6555606 17.09772,1.6003223 16.869862,1.545084 h -0.01381 l 0.145,0.2416676 c 0.07595,0.075953 0.151906,0.1588102 0.220953,0.2485724 0.06905,0.096667 0.138096,0.1864294 0.207144,0.2761916 l 0.241668,0.2071437 0.04833,0.1035719 c 0.01381,0.096667 0.0069,0.1864293 -0.01381,0.2830964 -0.02072,0.096667 -0.04833,0.1795245 -0.08286,0.2692868 z"
         id="path543" />
      <path
         d="m 23.457017,6.0746261 0.131191,-0.055238 v -0.048334 l -0.04143,0.027619 h -0.04833 l 0.145001,-0.5869072 h 0.04143 l -0.09667,0.4004778 v 0.069048 l 0.07595,-0.1242862 -0.02071,-0.069048 v -0.041429 h 0.04143 l 0.05524,-0.1380958 h -0.05524 l 0.02762,-0.1380958 h 0.04833 l 0.15881,-0.8769083 h 0.04833 c 0.04833,-0.2140485 0.08976,-0.4142874 0.124286,-0.6214311 0.02762,-0.2071437 0.04833,-0.4142874 0.06905,-0.6352407 l -0.07595,-1.0426233 0.02071,-0.7595269 0.359049,0.027619 c 0.04833,0 0.103572,0 0.165715,0.0069 0.05524,0.0069 0.103572,-0.01381 0.138096,-0.062143 l -0.02071,-0.062143 c -0.07595,-0.020714 -0.151905,-0.055238 -0.214048,-0.1035718 -0.06214,-0.048334 -0.131191,-0.089762 -0.18643,-0.1380958 l -0.02071,-0.19333412 c -0.02071,-0.0621431 -0.05524,-0.11047664 -0.110477,-0.1380958 -0.05524,-0.034524 -0.110476,-0.0621431 -0.151905,-0.0966671 l -0.145001,0.0483335 -0.08976,0.16571496 h -0.04833 l 0.02762,-0.16571496 h 0.02071 l -0.06905,0.11738143 0.02071,0.17261972 v 0.3038108 c -0.241668,0.041429 -0.455717,0.1173814 -0.655955,0.2209533 -0.207144,0.096667 -0.428097,0.1795245 -0.66286,0.227858 l -0.352145,0.3314299 v 0.027619 c 0.07595,-0.020714 0.145001,-0.01381 0.193335,0.0069 0.04833,0.020714 0.08976,0.069048 0.138095,0.1242862 l 0.117382,-0.01381 0.04833,-0.1450006 c 0.18643,-0.075953 0.365954,-0.1726197 0.552383,-0.2830963 0.179525,-0.1104767 0.365954,-0.2002389 0.552384,-0.2830964 h 0.06905 l 0.117381,1.5811969 c -0.02071,0.4971448 -0.06214,0.9804801 -0.124286,1.4569106 -0.07595,0.4833353 -0.179525,0.952861 -0.317621,1.4016724 z M 21.357961,5.0803364 h 0.04833 v -0.089762 h 0.06905 l -0.02071,-0.096667 h -0.04833 c 0.02071,-0.1242863 0.02762,-0.2554773 0.02762,-0.3866683 0,-0.1380958 0.01381,-0.2692868 0.04143,-0.393573 v -0.027619 c -0.02762,0.062143 -0.06905,0.1242863 -0.117382,0.1726198 -0.04833,0.062143 -0.07595,0.131191 -0.07595,0.2140485 l -0.08976,-0.1242862 c -0.01381,-0.3452395 0.0069,-0.6766695 0.06214,-0.987385 0.05524,-0.296906 0.08976,-0.6214311 0.103572,-0.952861 0.01381,-0.2485724 0,-0.4971449 -0.03452,-0.7388125 -0.04143,-0.2347629 -0.117381,-0.4488114 -0.248572,-0.6352407 l 0.09667,0.6145263 c 0,0.3176203 -0.01381,0.6214311 -0.04833,0.9252419 -0.03452,0.3038107 -0.05524,0.6076215 -0.06905,0.918337 0,0.2692868 0,0.5385736 0,0.8078604 0,0.2692868 0.06214,0.5040497 0.186429,0.7111934 z"
         id="path540" />
      <path
         d="m 30.865845,6.0746261 c 0.103571,-0.359049 0.165715,-0.7319077 0.214048,-1.1254807 0.04143,-0.3866683 0.08976,-0.7733365 0.151905,-1.1600047 l 0.09667,-0.020714 0.214048,0.034524 h 0.06905 l 0.08976,-0.062143 -0.02071,-0.075953 -0.33143,-0.089762 V 3.547473 l -0.07595,-0.041429 -0.02071,-0.048334 -0.04833,-0.01381 -0.06905,-0.131191 0.01381,-0.069048 0.428097,-0.1864294 c 0.03452,0 0.08286,0 0.131191,0 0.04833,0.0069 0.09667,0.01381 0.131191,0.041429 0.04143,0.041429 0.06905,0.096667 0.07595,0.1588102 0.0069,0.062143 0.02071,0.1242862 0.04143,0.1933341 -0.0069,0.2347628 -0.02071,0.4764305 -0.04143,0.6973838 -0.02762,0.2209532 -0.07595,0.4350017 -0.15881,0.6490502 L 31.535609,4.7627161 H 31.5218 c 0.0069,0.048334 0.02071,0.1035718 0.03452,0.1657149 0.01381,0.062143 0.04143,0.1173814 0.09667,0.1588102 0.02762,0.027619 0.04833,0.062143 0.05524,0.1104766 0.0069,0.048334 0.03452,0.082857 0.08286,0.089762 l 0.01381,0.062143 0.06214,0.020714 0.193334,-0.096667 c 0.03452,-0.3521443 0.09667,-0.690479 0.200239,-1.0150041 0.103572,-0.3245251 0.15881,-0.6628598 0.179525,-1.0288137 l -0.03452,-0.131191 c -0.103572,-0.055238 -0.207144,-0.096667 -0.317621,-0.1242862 -0.117381,-0.027619 -0.220953,-0.055238 -0.331429,-0.082857 -0.276192,0.048334 -0.552384,0.1035718 -0.814766,0.1657149 -0.269286,0.055238 -0.517859,0.1726198 -0.759527,0.33143 l 0.117382,0.01381 c -0.03452,0.075953 -0.05524,0.1519054 -0.06905,0.2278581 -0.01381,0.075953 -0.03452,0.1588102 -0.05524,0.2347629 l -0.600717,0.2900011 0.06214,0.075953 c 0.08286,0 0.165715,-0.0069 0.248572,-0.0069 0.08286,-0.0069 0.158811,-0.020714 0.227859,-0.041429 h 0.06214 l 0.03452,0.2900012 -0.02072,0.096667 0.09667,0.2485725 0.07595,0.048334 0.06214,-0.01381 c 0.06905,-0.1242862 0.131191,-0.2692868 0.165715,-0.4073826 0.03452,-0.1450006 0.06905,-0.2969059 0.08976,-0.4557161 l 0.18643,-0.075953 h 0.02762 l 0.01381,0.6628598 -0.0069,0.9390515 0.01381,0.020714 c -0.0069,0.082857 -0.01381,0.165715 -0.01381,0.2554773 0,0.096667 -0.01381,0.1726197 -0.03452,0.2485724 z m -2.996679,-0.393573 0.03452,-0.069048 C 27.855356,5.3703376 27.793213,5.1493843 27.710356,4.9422406 27.620593,4.7350969 27.517022,4.5279532 27.385831,4.3346191 h -0.02762 l -0.02071,-0.055238 c -0.05524,-0.055238 -0.103572,-0.096667 -0.165715,-0.131191 -0.06214,-0.034524 -0.131191,-0.055238 -0.193334,-0.062143 h -0.03452 c 0.179524,0.1933342 0.31762,0.4073827 0.414287,0.6283359 0.09667,0.2209533 0.179525,0.4557162 0.248573,0.6973838 0.03452,0.062143 0.06905,0.1173814 0.117381,0.1588102 0.04833,0.048334 0.09667,0.082858 0.145001,0.1104766 z m 1.905722,-0.5109544 0.03452,-0.01381 v -0.055238 h 0.03452 l 0.01381,-0.1035719 -0.06905,-0.2209533 0.06214,-0.2692868 v -0.075953 h -0.01381 v -0.01381 h -0.02071 v -0.01381 h -0.02072 l -0.04143,0.1242862 h -0.06214 c -0.01381,-0.062143 -0.03452,-0.131191 -0.06905,-0.2002389 -0.03452,-0.062143 -0.06905,-0.1173814 -0.117381,-0.1726198 -0.05524,-0.055238 -0.110477,-0.1104766 -0.165715,-0.1588101 -0.05524,-0.048334 -0.124286,-0.069048 -0.200239,-0.075953 v -0.048334 h 0.03452 c 0.08286,-0.1450006 0.15881,-0.2830964 0.241668,-0.428097 0.07595,-0.131191 0.138096,-0.2830964 0.179524,-0.4350018 h 0.03452 c 0.06214,-0.1588102 0.131191,-0.3038107 0.193334,-0.4488113 0.05524,-0.1380958 0.103572,-0.2900012 0.138096,-0.4488114 -0.0069,-0.082857 -0.04833,-0.1242862 -0.103572,-0.131191 -0.06905,-0.0069 -0.138095,-0.020714 -0.200239,-0.041429 h -0.09667 l 0.06214,0.096667 C 29.512506,2.5186593 29.353696,2.9950898 29.153457,3.450806 28.946313,3.9203317 28.704645,4.3622382 28.435359,4.79724 l 0.06214,-0.0069 0.01381,-0.069048 h 0.05524 l 0.165715,-0.2002389 c 0.03452,-0.041429 0.06905,-0.082857 0.09667,-0.1173814 0.02762,-0.034524 0.04833,-0.082858 0.06214,-0.131191 h 0.02762 l 0.17262,-0.3107156 h 0.02762 c 0.145,0.165715 0.214048,0.3452395 0.227858,0.5454784 0.01381,0.2071437 0.08286,0.3797635 0.200239,0.5385736 h 0.03452 z M 28.152262,4.403667 h 0.05524 l 0.03452,-0.082858 c 0,-0.048334 -0.01381,-0.089762 -0.03452,-0.1242862 -0.02762,-0.034524 -0.04833,-0.075953 -0.06905,-0.1242862 l -0.165715,-0.089762 h -0.117382 v 0.055238 c 0.03452,0.069048 0.06905,0.1380958 0.117382,0.2071437 0.04833,0.075953 0.110476,0.1242862 0.179524,0.1588102 z m 2.264771,-0.041429 -0.02071,0.01381 -0.02762,-0.069048 V 4.0929514 l 0.110476,-0.034524 H 30.5137 Z M 28.53893,3.9410461 28.670121,3.8996173 V 3.7339024 L 28.400835,3.5958066 H 28.276548 Z M 30.617272,3.713188 30.3687,3.7960455 h -0.03452 l 0.05524,-0.2554773 h 0.03452 l 0.0069,-0.041429 0.17262,-0.082858 h 0.08286 l -0.06214,0.2416677 z m 0.269287,-0.069048 -0.04833,0.01381 h -0.04143 l 0.04143,-0.1450006 h 0.03452 l 0.01381,0.041429 z m -3.341918,-0.1588102 0.04833,-0.01381 v -0.034524 l 0.138096,-0.1173814 0.01381,-0.041429 0.338334,-0.2485724 0.07595,-0.082857 0.01381,-0.048334 h 0.04143 l 0.02071,-0.055238 0.138095,-0.075953 0.08286,-0.1519054 0.04833,-0.0069 0.08286,-0.1450006 h 0.03452 l 0.08286,0.1450006 -0.03452,0.1795245 v 0.027619 h 0.06214 l 0.02071,-0.041429 0.04833,-0.01381 0.03452,-0.069048 0.06905,-0.048334 0.02762,-0.089762 c -0.0069,-0.055238 -0.02071,-0.1035719 -0.02762,-0.165715 -0.01381,-0.062143 -0.04143,-0.1173814 -0.08976,-0.1657149 -0.03452,-0.034524 -0.07595,-0.062143 -0.117381,-0.082857 -0.04833,-0.01381 -0.09667,-0.034524 -0.145001,-0.062143 l -0.124286,0.020714 0.05524,0.034524 0.06905,0.131191 -0.283096,0.2692868 v 0.034524 h -0.03452 l -0.110477,0.1173814 v 0.034524 l -0.207144,0.1242863 -0.103572,0.1035718 h -0.04833 C 27.88988,2.7396126 28.021071,2.5255641 28.138453,2.3184204 28.262739,2.1112767 28.407739,1.9179426 28.559645,1.7177037 l 0.08286,-0.082858 -0.01381,-0.1104766 -0.262382,-0.1104767 -0.193334,0.01381 c 0.0069,0.075953 0,0.1450006 -0.02071,0.1933341 -0.02071,0.048334 -0.05524,0.1035719 -0.08976,0.1588102 -0.08976,0.062143 -0.179525,0.131191 -0.262382,0.1864293 -0.08976,0.069048 -0.179525,0.1173815 -0.276192,0.1519054 h -0.03452 l 0.08286,-0.2485724 0.207144,-0.2485725 v -0.041429 l 0.09667,-0.082858 0.06214,-0.1173814 h 0.04143 l 0.05524,-0.1450006 h 0.03452 l 0.07595,-0.2278581 -0.06214,-0.23476282 -0.31762,-0.29000118 h -0.04833 l 0.131191,0.39357303 c 0.0069,0.21404847 -0.02071,0.41428737 -0.09667,0.58000237 -0.08286,0.1795245 -0.179524,0.3452395 -0.290001,0.5109544 l -0.103572,0.048334 -0.131191,0.1242862 c 0.02071,0.069048 0.04143,0.1519054 0.07595,0.2347628 0.03452,0.082857 0.06214,0.1588102 0.08286,0.2347629 h 0.03452 v 0.034524 l 0.103572,-0.01381 0.04143,-0.1450006 0.138096,-0.096667 v -0.034524 l 0.179524,-0.1450006 0.03452,-0.062143 0.05524,-0.020714 h 0.03452 l -0.165715,0.4073826 h -0.04143 l -0.283096,0.5385736 -0.06905,0.01381 c 0,0.069048 0.0069,0.1380958 0.02762,0.2071437 0.01381,0.069048 0.03452,0.1242862 0.06905,0.1795245 z m 2.603105,-0.9804801 c 0.151906,-0.027619 0.303811,-0.075953 0.462621,-0.1450006 0.145001,-0.062143 0.290002,-0.131191 0.428097,-0.1864294 v -0.034524 l 0.117382,-0.055238 0.138096,-0.1104767 0.06905,-0.131191 h 0.03452 l 0.04833,-0.1173814 0.06905,-0.034524 0.03452,-0.069048 c 0.02762,-0.041429 0.05524,-0.062143 0.08976,-0.062143 0.03452,0 0.08286,0 0.131191,0.0069 l 0.145001,-0.1519054 -0.03452,-0.075953 C 31.811801,1.2827019 31.728943,1.248178 31.625372,1.2274636 31.528704,1.2067492 31.432037,1.1722253 31.342275,1.1238918 h -0.08286 v 0.041429 l -0.08976,-0.01381 -0.02762,0.062143 -0.165715,0.034524 -0.0069,0.027619 c -0.227858,0.034524 -0.441906,0.069048 -0.655955,0.1104767 -0.220953,0.048334 -0.455716,0.089762 -0.690479,0.1104766 l 0.02071,0.062143 c 0.04833,0.048334 0.103572,0.075953 0.151905,0.089762 0.04833,0.020714 0.09667,0.034524 0.151906,0.041429 0.186429,0.020714 0.352144,-0.0069 0.504049,-0.069048 0.15881,-0.069048 0.303811,-0.131191 0.462621,-0.1864293 l 0.08976,0.0069 -0.31762,0.5730976 -0.276192,0.1035718 -0.103571,-0.027619 c -0.05524,0 -0.110477,0.0069 -0.158811,0.013809 -0.04143,0.01381 -0.08976,0.034524 -0.138095,0.069048 l 0.04833,0.2623821 z m 0.158811,-1.415482 c 0.131191,-0.034524 0.269286,-0.062143 0.414287,-0.096667 0.131191,-0.0345239 0.262382,-0.0759527 0.386668,-0.12428622 L 31.155846,0.68889 h 0.04833 V 0.60603252 L 30.84513,0.49555588 h -0.05524 v 0.034524 l -0.09667,-0.0138096 h -0.04833 v 0.0345239 c -0.15881,0.0414287 -0.310715,0.0828575 -0.462621,0.13119101 -0.151905,0.0483335 -0.31762,0.0759527 -0.497144,0.0759527 0.08976,0.0828575 0.186429,0.15881017 0.290001,0.22095328 0.103572,0.0621431 0.207143,0.096667 0.33143,0.11047662 z"
         id="path537" />
      <path
         d="m 36.500141,6.2058172 0.103572,-0.020714 0.01381,-0.082858 0.145001,-0.062143 -0.04833,-0.3176203 0.02072,-0.2416677 -0.02072,-0.048334 c 0.01381,-0.1450006 0.02072,-0.3038108 0.02762,-0.4557162 0.0069,-0.1588101 0.02072,-0.3038107 0.04833,-0.4557161 0,-0.048334 0,-0.096667 -0.0069,-0.1450006 -0.0069,-0.041429 -0.02071,-0.082858 -0.03452,-0.131191 v -0.055238 h 0.02762 v -0.034524 c 0.248573,-0.055238 0.497145,-0.096667 0.745718,-0.1242862 0.248572,-0.020714 0.504049,-0.055238 0.759527,-0.089762 v -0.069048 c 0.04143,-0.034524 0.08976,-0.055238 0.151905,-0.055238 0.05524,0 0.103572,-0.0069 0.151905,-0.027619 l 0.02762,-0.034524 v -0.034524 h -0.02762 v -0.027619 c -0.07595,-0.048334 -0.151905,-0.062143 -0.241667,-0.062143 -0.08976,0 -0.165715,-0.01381 -0.241668,-0.048334 l -0.09667,0.01381 C 37.784432,3.5543778 37.563478,3.5198539 37.33562,3.4922347 37.114667,3.4646156 36.893714,3.4231868 36.679665,3.3679485 v -0.041429 c 0.103572,-0.041429 0.207144,-0.096667 0.296906,-0.165715 0.08286,-0.062143 0.18643,-0.1035719 0.296906,-0.1380958 l 0.04833,0.01381 h 0.06214 c 0.03452,-0.0069 0.05524,-0.027619 0.07595,-0.055238 0.01381,-0.027619 0.02071,-0.062143 0.02071,-0.1035719 l 0.08286,-0.020714 0.01381,-0.048334 0.04833,-0.01381 v -0.041429 c -0.06214,-0.01381 -0.131191,-0.034524 -0.200239,-0.055238 -0.07595,-0.020714 -0.131191,-0.048334 -0.18643,-0.096667 l -0.06214,0.034524 h -0.08286 c 0,-0.041429 0,-0.089762 0,-0.1380958 0,-0.041429 0.01381,-0.082858 0.03452,-0.1173815 0.05524,-0.020714 0.103572,-0.055238 0.151905,-0.1035718 0.04143,-0.041429 0.07595,-0.069048 0.117382,-0.082857 l 0.02071,-0.034524 v -0.034524 c -0.05524,-0.020714 -0.103572,-0.041429 -0.15881,-0.062143 -0.05524,-0.01381 -0.110477,-0.034524 -0.165715,-0.069048 l 0.01381,-0.1380958 0.131191,-0.1450006 c 0.01381,-0.020714 0.03452,-0.048333 0.06214,-0.069048 0.02762,-0.01381 0.03452,-0.041429 0.02071,-0.075953 h 0.02762 l 0.117381,-0.1588101 c -0.03452,-0.055238 -0.08286,-0.075953 -0.145,-0.075953 -0.07595,0 -0.145001,0 -0.214049,0 0,-0.069048 0.0069,-0.1380958 0.01381,-0.2071437 0.0069,-0.069048 0.02071,-0.12428625 0.04143,-0.17952457 l 0.30381,-0.13119101 0.131191,-0.1380958 v -0.0345239 c -0.05524,-0.0138096 -0.110476,-0.0276192 -0.15881,-0.0483335 -0.04833,-0.0138096 -0.09667,-0.0345239 -0.131191,-0.0690479 -0.05524,0 -0.103572,0.006905 -0.151905,0.0207144 -0.04833,0.0207144 -0.09667,0.0414287 -0.138096,0.0759527 h -0.02762 l 0.06905,-0.2692868 -0.0069,-0.15881017 -0.117381,-0.09666706 c -0.02071,0 -0.04143,0 -0.06905,0 -0.02762,0 -0.04833,0.01380958 -0.06214,0.03452395 h -0.04143 v 0.0345239 l -0.09667,0.0276192 v 0.0276192 l 0.110476,0.0207144 c -0.01381,0.15190538 -0.04833,0.28309638 -0.117381,0.4073826 -0.06905,0.12428622 -0.145001,0.24166765 -0.227858,0.35904904 l -0.151905,0.062143 -0.03452,0.1104767 0.08286,0.2761916 0.276192,-0.1450006 v -0.027619 l 0.200239,-0.1035718 h 0.03452 l -0.01381,0.2071437 c -0.09667,0.034524 -0.193334,0.075953 -0.283096,0.131191 -0.08286,0.055238 -0.165715,0.1173814 -0.241668,0.1933341 0,0.062143 0,0.1242862 0.0069,0.1864293 0.0069,0.055238 0.02071,0.1104767 0.04143,0.165715 l 0.02762,0.01381 c 0.04833,0.048334 0.07595,0.089762 0.09667,0.131191 0.0069,0.048334 0.02762,0.096667 0.04833,0.1380958 0.02072,0.089762 0.0069,0.1519054 -0.04143,0.2071437 -0.04143,0.055238 -0.09667,0.1104766 -0.151905,0.1657149 -0.0069,0.062143 0,0.1173815 0.02762,0.1726198 0.02762,0.055238 0.05524,0.1104766 0.07595,0.1657149 v 0.089762 l -0.05524,0.01381 -0.02762,0.069048 C 36.078949,3.4300916 35.809662,3.6372353 35.54728,3.8305694 35.284898,4.0239035 35.001801,4.1896185 34.704895,4.3000951 l -0.186429,0.1795246 c 0,0.069048 0.01381,0.131191 0.03452,0.1933341 0.02071,0.062143 0.04833,0.1173814 0.08286,0.1657149 0.276191,-0.082857 0.545478,-0.1795245 0.80786,-0.2900011 0.262382,-0.096667 0.524764,-0.1933341 0.800956,-0.2692868 l 0.06905,0.020714 c 0.04143,0.1035719 0.06905,0.2140485 0.07595,0.3383347 0.0069,0.131191 0.01381,0.2485725 0.02071,0.3659539 l -0.01381,0.6421455 -0.207144,0.055238 -0.290001,-0.01381 -0.290001,0.034524 0.179524,0.048334 v 0.027619 c 0.124287,0.020714 0.241668,0.069048 0.352145,0.1380958 0.103572,0.055238 0.214048,0.1242863 0.31762,0.200239 v 0.034524 z M 38.916817,5.881292 38.868484,5.7224819 h -0.03452 v -0.062143 h 0.02071 l -0.02071,-0.048334 0.02071,-0.048333 h 0.03452 v 0.034524 l 0.07595,0.01381 0.05524,0.1104767 h 0.01381 v -0.062143 l 0.110476,-0.1173814 0.07595,0.034524 h 0.06905 l -0.03452,-0.096667 v -0.034524 l 0.193334,0.048334 h 0.02762 v -0.027619 l 0.08286,-0.048334 v -0.034524 l -0.03452,-0.01381 v -0.075953 h 0.02071 l -0.03452,-0.131191 C 39.317295,5.0665268 39.110151,4.9905741 38.903008,4.9353358 38.695864,4.8870023 38.48872,4.8248592 38.281577,4.7627161 h -0.06905 l 0.06905,0.041429 v 0.034524 l -0.179525,-0.055238 h -0.02762 c 0.06214,0.1242862 0.124286,0.2485725 0.186429,0.3590491 0.06214,0.1173814 0.138096,0.2347629 0.227858,0.3521443 h 0.124287 l 0.04833,0.069048 0.103572,0.048333 0.01381,0.075953 z M 34.829182,5.6258148 c 0.03452,0 0.06214,0 0.08286,0 0.02071,0 0.03452,-0.01381 0.04143,-0.048334 0.05524,-0.034524 0.103572,-0.062143 0.15881,-0.089762 0.05524,-0.027619 0.103572,-0.062143 0.151905,-0.1035718 v -0.041429 c -0.07595,0 -0.145,-0.020714 -0.207143,-0.069048 -0.05524,-0.041429 -0.117382,-0.075953 -0.179525,-0.096667 l -0.02071,-0.034524 c -0.06214,-0.020714 -0.124286,-0.041429 -0.18643,-0.055238 -0.06214,-0.01381 -0.131191,-0.027619 -0.200238,-0.034524 h -0.02071 l -0.02071,0.041429 0.276191,0.4833353 z m 1.401672,-1.6295304 c -0.165715,0.062143 -0.338335,0.1242862 -0.517859,0.1864293 -0.17262,0.055238 -0.34524,0.1242862 -0.50405,0.2140485 h -0.02762 v -0.034524 l 0.02762,-0.048334 0.06905,-0.048334 C 35.402279,4.1758089 35.53347,4.0791419 35.664661,3.97557 35.802757,3.8858077 35.933948,3.7960455 36.072044,3.7200928 h 0.05524 z M 37.17681,3.7408071 36.603713,3.8996173 h -0.06905 c -0.0069,-0.055238 -0.02071,-0.1104766 -0.03452,-0.1657149 -0.02072,-0.048334 -0.04143,-0.089762 -0.08976,-0.1380958 h -0.03452 v -0.082857 l 0.227858,-0.131191 c 0.09667,-0.0069 0.165715,0.020714 0.227858,0.082858 0.06214,0.069048 0.131191,0.1104766 0.220953,0.131191 v 0.034524 z m -1.774531,-0.1242862 0.06214,-0.020714 v -0.062143 c 0.03452,-0.01381 0.06905,-0.034524 0.103572,-0.055238 0.03452,-0.020714 0.06214,-0.020714 0.103572,-0.013809 0,-0.1519054 0.02071,-0.3176204 0.06214,-0.4695258 0.03452,-0.1588101 0.06214,-0.3038107 0.08286,-0.4557161 0.01381,-0.069048 0.0069,-0.1450006 -0.01381,-0.2071437 -0.02071,-0.062143 -0.05524,-0.1242862 -0.09667,-0.1726197 -0.08976,-0.034524 -0.17262,-0.062143 -0.262382,-0.082858 -0.08976,-0.020714 -0.186429,-0.027619 -0.296906,-0.01381 l 0.01381,-0.082857 h 0.03452 l 0.09667,-0.089762 0.03452,-0.069048 0.124286,-0.082857 -0.01381,-0.096667 0.234763,-0.3797634 h 0.03452 c 0.05524,-0.020714 0.09667,-0.055238 0.131191,-0.089762 0.03452,-0.034524 0.06214,-0.075953 0.08976,-0.1173814 l 0.06905,-0.11047667 V 0.86150975 L 35.940853,0.84770017 35.871805,0.68889 C 35.768233,0.63365168 35.678471,0.57150857 35.595613,0.50936546 35.505851,0.45412714 35.409184,0.41269841 35.312517,0.39888883 h -0.02071 l 0.03452,0.12428621 c 0,0.11047664 -0.0069,0.21404849 -0.02762,0.31071555 -0.02071,0.10357185 -0.05524,0.20714371 -0.103571,0.29690601 -0.02071,0.034524 -0.04143,0.062143 -0.05524,0.096667 -0.02071,0.034524 -0.04143,0.062143 -0.07595,0.082857 -0.08976,0.2554772 -0.200239,0.5109544 -0.317621,0.7595269 -0.131191,0.2485724 -0.262382,0.4902401 -0.400478,0.7250029 v 0.048334 h 0.05524 l 0.269286,-0.2692868 0.04833,-0.096667 0.04143,-0.01381 0.06905,-0.1173814 0.04833,-0.01381 0.110477,-0.1726197 0.06214,-0.034524 0.193334,0.048334 0.124286,0.1242863 -0.07595,0.6904789 -0.09667,0.089762 -0.03452,0.1173814 z m 1.16691,-1.6226256 -0.01381,0.020714 h -0.03452 l -0.04833,-0.1104767 0.01381,-0.096667 0.290001,-0.1933341 h 0.04833 c 0,0.041429 0,0.082857 -0.0069,0.1242862 -0.0069,0.048334 -0.02762,0.082857 -0.05524,0.1173814 z"
         id="path534" />
    </g>
  </g>
</svg>
