<?xml version="1.0" encoding="UTF-8" standalone="no"?>
<!-- Created with Inkscape (http://www.inkscape.org/) -->

<svg
   width="40mm"
   height="7mm"
   viewBox="0 0 40 7"
   version="1.1"
   id="svg5"
   inkscape:version="1.2.2 (b0a8486, 2022-12-01)"
   sodipodi:docname="guestLoginLOGO.svg"
   xmlns:inkscape="http://www.inkscape.org/namespaces/inkscape"
   xmlns:sodipodi="http://sodipodi.sourceforge.net/DTD/sodipodi-0.dtd"
   xmlns="http://www.w3.org/2000/svg"
   xmlns:svg="http://www.w3.org/2000/svg">
  <sodipodi:namedview
     id="namedview7"
     pagecolor="#ffffff"
     bordercolor="#000000"
     borderopacity="0.25"
     inkscape:showpageshadow="2"
     inkscape:pageopacity="0.0"
     inkscape:pagecheckerboard="0"
     inkscape:deskcolor="#d1d1d1"
     inkscape:document-units="mm"
     showgrid="false"
     inkscape:zoom="4.7488465"
     inkscape:cx="124.97772"
     inkscape:cy="36.535188"
     inkscape:window-width="1440"
     inkscape:window-height="771"
     inkscape:window-x="1080"
     inkscape:window-y="1616"
     inkscape:window-maximized="0"
     inkscape:current-layer="layer1" />
  <defs
     id="defs2">
    <rect
       x="-1.8951972"
       y="4.0009718"
       width="213.31496"
       height="77.703079"
       id="rect268" />
  </defs>
  <g
     inkscape:label="Layer 1"
     inkscape:groupmode="layer"
     id="layer1">
    <path
       style="fill:none;fill-rule:evenodd;stroke:#000000;stroke-width:0.21864px;stroke-linecap:butt;stroke-linejoin:miter;stroke-opacity:1"
       d="m 4.4186655,7.736698 v 0"
       id="path208"
       inkscape:connector-type="polyline"
       inkscape:connector-curvature="0" />
    <g
       aria-label="ゲストログイン"
       transform="scale(0.80675687,1.2395308)"
       id="text214"
       style="font-size:7.51527px;font-family:KouzanBrushFontGyousyoOTF;-inkscape-font-specification:KouzanBrushFontGyousyoOTF;stroke-width:0.140911">
      <path
         d="M 1.7748298,5.3880736 1.9702268,5.342982 C 2.143078,4.9897643 2.3008987,4.6290313 2.4436888,4.2682984 2.5789637,3.9075654 2.6466011,3.5242866 2.6240553,3.1034315 2.6466011,2.9982177 2.61654,2.9080345 2.5489026,2.8253665 2.4812652,2.7426985 2.4361735,2.6525153 2.3985972,2.5698473 L 2.0303489,2.4345724 H 1.947681 v 0.060122 L 1.8124061,2.4646335 h -0.090183 v 0.082668 h -0.030061 l 0.1427901,0.1728512 0.1352749,0.3832788 c 0.022546,0.390794 0,0.7665576 -0.052607,1.1197753 -0.060122,0.3607329 -0.1728512,0.6989201 -0.3457024,1.0220767 v 0.022546 h 0.060122 z M 0.00122598,2.7426985 h 0.02254581 v -0.045092 h 0.0526069 l 0.03006108,-0.060122 h 0.0601222 v 0.060122 L 0.36195895,2.6374847 0.47468801,2.4946946 0.70014612,2.3068128 H 0.7302072 L 0.76026828,2.3594197 1.0759096,1.4951637 0.92560422,1.1118849 0.47468801,0.84885042 v 0.0901832 h -0.0526069 v -0.0225458 l -0.278065,-0.13527486 h -0.0375763 l 0.0601222,0.13527486 v 0.0751527 H 0.02377179 l 0.14279014,0.28558025 -0.12024432,1.11226 v 0.022546 H 0.07637869 Z M 1.8574977,2.1114158 C 2.1280475,2.08887 2.3760514,2.0437784 2.6090248,1.9836562 2.8419981,1.9160188 3.090002,1.8483814 3.3304907,1.7732287 V 1.7506828 L 3.6686779,1.6529843 3.6386168,1.4951637 2.9923035,1.3899499 2.6541164,1.4425568 2.6240553,1.5252247 C 2.4436888,1.6078927 2.2482918,1.6755301 2.0528948,1.7206218 1.8574977,1.7732287 1.6470702,1.8183203 1.4366426,1.8558966 l -0.082668,-0.030061 h -0.090183 c 0.097699,0.067638 0.2029123,0.1202444 0.3006108,0.1427902 0.1052138,0.022546 0.2029123,0.067637 0.2930955,0.1427901 z M 4.006865,1.2396445 c 0.037576,-0.030061 0.075153,-0.045092 0.1127291,-0.045092 0.037576,0 0.090183,0 0.1427901,0 l 0.030061,-0.060122 c 0,-0.067637 -0.00752,-0.1202443 -0.015031,-0.17285123 C 4.2698995,0.90897258 4.2398384,0.85636569 4.202262,0.8037588 4.1045635,0.72860609 4.0143803,0.66848393 3.9091665,0.64593812 3.8039527,0.62339231 3.6987389,0.59333123 3.5860099,0.56327015 h -0.090183 l 0.030061,0.1503054 0.090183,0.0150305 0.052607,0.12024433 c 0.037576,0.0976985 0.082668,0.16533598 0.1427901,0.21042758 0.052607,0.052607 0.1202443,0.1052138 0.195397,0.1578207 z M 4.7358462,0.84885042 5.0289418,0.83381988 4.9162127,0.60836177 C 4.8185142,0.49563272 4.7057851,0.42048001 4.5780256,0.36787312 4.4427507,0.31526623 4.3225064,0.26265934 4.202262,0.21005245 H 4.089533 c 0.097698,0.12775959 0.2029123,0.23297338 0.3006108,0.34570243 0.097698,0.11272905 0.2179428,0.21042757 0.3457024,0.29309554 z"
         id="path292" />
      <path
         d="M 7.9974592,5.1175239 C 8.1778257,4.786852 8.4107991,4.4561801 8.6888641,4.1330235 8.9669291,3.8098669 9.1923872,3.4716797 9.3727537,3.1259773 l 0.1653359,0.1052138 h 0.030061 l 0.030061,0.060122 0.2705497,0.1202444 0.5410995,0.4659467 0.323157,0.3081261 v 0.045092 h -0.05261 l 0.127759,0.2705498 0.187882,0.090183 0.03006,0.067637 c 0.12776,0.037576 0.240489,0.082668 0.353218,0.1427902 0.112729,0.060122 0.217943,0.1277596 0.330672,0.195397 h 0.187881 v -0.052607 l 0.11273,-0.067637 C 11.950491,4.6891535 11.845278,4.5163023 11.679942,4.3659969 11.522121,4.2156915 11.3643,4.0653861 11.22151,3.9000501 L 11.07872,3.839928 11.056174,3.75726 10.838231,3.6219851 10.80817,3.5468324 C 10.65035,3.3890118 10.469983,3.283798 10.267071,3.2236758 10.049128,3.1560384 9.8387004,3.1034315 9.6207576,3.0583399 h -0.052607 v 0.037576 L 9.4253606,3.0733704 C 9.6508187,2.7877901 9.883792,2.5097251 10.139311,2.2391754 10.39483,1.9686257 10.642834,1.6905607 10.898354,1.420011 l 0.07515,-0.1127291 0.293096,-0.067637 -0.01503,-0.29309557 c -0.0977,-0.0450916 -0.195397,-0.0901832 -0.293095,-0.13527486 -0.0977,-0.0375763 -0.195397,-0.0751527 -0.278065,-0.11272906 l -0.105214,0.082668 C 10.334708,0.86388096 10.101735,0.93151839 9.8687615,0.98412528 9.6282728,1.0367322 9.3802689,1.0818238 9.132265,1.1194001 H 8.9218374 L 8.8917764,1.0442474 8.7038946,1.059278 8.6512877,1.2095834 8.380738,1.3523735 8.4032838,1.420011 c 0.1653359,0.097699 0.3381872,0.1803664 0.5185536,0.2329733 0.1728513,0.045092 0.3757636,0.067638 0.5861911,0.052607 0.060122,0 0.1202443,-0.00752 0.1803665,-0.022546 0.060122,-0.022546 0.1127291,-0.045092 0.1503054,-0.067637 h 0.082668 L 9.1022039,2.9831872 C 8.9068069,3.2687674 8.7189251,3.5543477 8.5235281,3.8324127 8.3356464,4.117993 8.1177035,4.3735122 7.8546691,4.6140008 l -0.022546,0.045092 c 0.01503,0.082668 0.022546,0.165336 0.022546,0.2480039 0,0.090183 0.045092,0.1578207 0.1427901,0.2104276 z"
         id="path294" />
      <path
         d="m 17.0308,5.3955889 h 0.06012 c -0.02255,-0.3457024 -0.04509,-0.6989201 -0.06764,-1.0596531 -0.03006,-0.3532177 -0.05261,-0.7064354 -0.07515,-1.0521378 -0.02255,-0.1728512 -0.02255,-0.3457025 0,-0.4960079 0.02255,-0.1578206 0.04509,-0.308126 0.08267,-0.4659467 h 0.09018 l 0.728981,0.6763743 v 0.052607 l -0.04509,0.030061 0.789103,0.4659467 h 0.28558 l 0.03006,-0.1052138 V 3.3364049 h -0.06012 l -0.593706,-0.7515271 -0.999531,-0.473462 -0.07515,-0.9920157 0.02255,-0.33818711 c 0.01503,-0.0976985 0.0075,-0.2029123 -0.0075,-0.30061081 -0.03006,-0.0901832 -0.05261,-0.18788176 -0.07515,-0.30061081 -0.06012,-0.0375764 -0.12776,-0.0526069 -0.202912,-0.0526069 -0.07515,0 -0.150306,0 -0.225458,0 l -0.09018,-0.09769852 v 0.09769852 h -0.04509 l -0.09018,-0.18036649 h -0.06012 l -0.02255,0.08266797 c 0.05261,0.278065 0.135275,0.54861473 0.240489,0.80413392 0.105214,0.25551922 0.150306,0.53358422 0.12776,0.84171022 v 0.2029123 h -0.06012 v 0.030061 h -0.03006 c 0.03758,0.037576 0.06764,0.075153 0.07515,0.1127291 0.0075,0.045092 0.02255,0.090183 0.04509,0.1427901 l -0.06012,0.4960078 0.06012,0.6237675 -0.06012,0.8943171 0.03006,0.1202444 c 0,0.112729 0.0075,0.2029123 0.01503,0.3006108 0.0075,0.097698 -0.01503,0.195397 -0.07515,0.2705497 0,0.112729 0.03758,0.2029123 0.120244,0.278065 0.07515,0.082668 0.14279,0.1503054 0.217943,0.2179428 z"
         id="path296" />
      <path
         d="m 24.207869,4.4411496 c 0.345703,0 0.68389,-0.015031 1.014562,-0.037576 0.323157,-0.022546 0.646313,-0.060122 0.976985,-0.112729 l 0.03006,-0.082668 0.06764,-0.022546 c 0.09018,-0.3231566 0.165336,-0.6538285 0.217942,-0.9995309 0.05261,-0.3457025 0.120245,-0.6763744 0.225459,-1.0070463 h 0.05261 l 0.12776,-0.2029122 0.293096,-0.1803665 -0.03006,-0.1277596 c -0.14279,-0.067638 -0.278065,-0.1427902 -0.42837,-0.2104276 -0.150305,-0.067637 -0.28558,-0.1352749 -0.42837,-0.2104276 l -0.315642,0.090183 -0.172851,-0.030061 c -0.345702,0 -0.676374,0.037576 -0.992016,0.1127291 -0.323156,0.082668 -0.646313,0.1503054 -0.969469,0.2179428 h -0.150306 l -0.03006,-0.052607 h -0.07515 l 0.02255,0.097698 v 0.082668 l -0.112729,0.4358857 h -0.05261 v 0.030061 h 0.03006 v 0.075153 L 23.148216,2.1565074 h -0.07515 v 0.045092 l -0.07515,-0.022546 -0.03006,0.052607 -0.195397,-0.075153 v -0.030061 c 0.06012,0.1578206 0.127759,0.308126 0.195397,0.4509162 0.06764,0.1427901 0.165336,0.2855802 0.28558,0.4208551 l 0.05261,0.030061 c 0.08267,0.2179428 0.157821,0.4509162 0.232973,0.6914048 0.06764,0.2404887 0.172852,0.4659468 0.308126,0.6763744 z m 1.345234,-0.4659468 -0.105214,0.030061 c -0.225458,0 -0.450916,0 -0.68389,0 -0.225458,0 -0.435885,-0.037576 -0.638798,-0.1052138 C 24.087625,3.6295004 24.050049,3.3739812 23.982411,3.1259773 23.914774,2.8779734 23.787014,2.6299695 23.621678,2.4045114 V 2.3594197 C 23.922289,2.171538 24.245446,1.9986868 24.583633,1.8408661 24.92182,1.6830454 25.282553,1.6078927 25.650801,1.5853469 l 0.08267,0.030061 0.02255,0.1803665 h 0.05261 l 0.05261,0.6087369 c 0,0.2555191 -0.0075,0.5185536 -0.02255,0.7665575 -0.02255,0.2480039 -0.09018,0.473462 -0.202912,0.6838896 l -0.08267,0.022546 z"
         id="path298" />
      <path
         d="m 30.716078,5.5158332 0.187882,-0.030061 0.278065,-0.2930956 0.09018,-0.052607 c 0.150306,-0.2329734 0.263035,-0.4809773 0.330672,-0.751527 0.05261,-0.2630345 0.120244,-0.5260689 0.195397,-0.8041339 l 0.0977,-0.090183 0.225458,-0.2630344 C 32.256709,2.9982177 32.361922,2.7727596 32.44459,2.532271 32.519743,2.2917823 32.624957,2.0663242 32.782778,1.8634119 h 0.05261 l 0.12776,-0.2855803 h 0.05261 L 33.383999,1.2396445 V 1.1118849 c -0.0977,-0.030061 -0.195397,-0.045092 -0.28558,-0.052607 -0.105214,0 -0.195397,-0.030061 -0.263035,-0.082668 l -0.345702,0.0526069 -0.0977,0.1427901 -0.06764,0.045092 -0.248004,0.045092 c -0.05261,0 -0.0977,-0.00752 -0.14279,-0.015031 -0.03758,-0.00752 -0.07515,-0.022546 -0.112729,-0.052607 h -0.02255 l 0.157821,0.2630345 0.165336,0.1202443 0.09018,-0.052607 h 0.06764 c -0.150305,0.6914049 -0.368248,1.3752945 -0.646313,2.0441535 -0.27055,0.6838896 -0.578676,1.3226876 -0.916863,1.916394 z m 0.571161,-0.4358856 -0.01503,0.01503 -0.02255,-0.01503 0.02255,-0.082668 H 31.3173 Z M 30.670987,2.2917823 31.039235,2.1489922 31.430029,1.7431676 31.550273,1.5252247 31.527727,1.3448583 31.016689,0.99915582 h -0.02255 v 0.0300611 l -0.06764,0.030061 0.03006,0.1352748 c -0.03758,0.1728513 -0.09018,0.3457025 -0.165336,0.4960079 -0.08267,0.1653359 -0.150305,0.3231566 -0.225458,0.4809773 v 0.052607 h 0.02255 v 0.022546 h 0.08267 z m 3.20902,-0.834195 0.255519,-0.075153 0.02255,-0.067637 -0.04509,-0.31564138 c -0.07515,-0.082668 -0.165336,-0.1503054 -0.263034,-0.21794283 -0.0977,-0.0601222 -0.195397,-0.11272906 -0.28558,-0.15782068 h -0.07515 c 0.05261,0.12024432 0.0977,0.24800392 0.14279,0.37576351 0.04509,0.12775958 0.0977,0.26303448 0.165336,0.38327878 l 0.08267,0.022546 z m 0.533584,-0.48097729 0.225458,-0.0676374 c 0.02255,-0.0526069 0.01503,-0.10521378 -0.0075,-0.15782067 -0.02255,-0.0375764 -0.05261,-0.0751527 -0.08267,-0.10521379 L 33.95516,0.34532731 h -0.05261 l 0.05261,0.17285122 0.06764,0.0225458 0.09018,0.20291229 z"
         id="path300" />
      <path
         d="m 40.561067,5.4932874 0.08267,-0.030061 c 0.01503,-0.2179428 0.0075,-0.4358856 -0.01503,-0.6463132 -0.03006,-0.2179428 -0.06012,-0.4283704 -0.09018,-0.6312827 l 0.02255,-0.075153 -0.02255,-0.1803665 0.04509,-0.6012216 -0.02255,-0.1503054 0.05261,-0.3306719 c -0.02255,-0.067637 -0.03006,-0.1427901 -0.03006,-0.2254581 0,-0.082668 -0.02255,-0.1578207 -0.06764,-0.2104276 l -0.210427,0.030061 h -0.105214 c 0.172851,-0.2705497 0.360733,-0.5185536 0.571161,-0.7590423 0.210427,-0.2404886 0.353217,-0.5035231 0.450916,-0.8041339 0,-0.0526069 0,-0.11272905 0,-0.16533595 0,-0.0601222 -0.02255,-0.11272905 -0.06012,-0.16533594 l -0.338188,-0.0751527 -0.15782,-0.26303446 -0.08267,0.26303446 -0.157821,0.1503054 0.03006,0.15030541 C 40.403246,1.0743085 40.290517,1.3598888 40.117666,1.6078927 39.95233,1.8634119 39.786994,2.1114158 39.644204,2.366935 h -0.04509 l -1.533115,2.1493673 v 0.030061 C 38.4117,4.3735122 38.69728,4.1405388 38.930253,3.8474432 39.163227,3.5543477 39.426261,3.2687674 39.696811,2.9982177 l 0.187882,-0.278065 0.07515,0.030061 c 0.05261,0.1352749 0.12776,0.2555192 0.225458,0.3757635 0.0977,0.1202443 0.135275,0.2630345 0.120245,0.4283704 0,0.2179428 0,0.4358857 0,0.6613438 0,0.2329734 -0.03758,0.4434009 -0.105214,0.6237674 0,0.1052138 0.02255,0.195397 0.06764,0.278065 0.03758,0.075153 0.07515,0.165336 0.105214,0.2480039 z"
         id="path302" />
      <path
         d="m 45.926958,4.8544895 0.503524,-0.3757636 c 0.112729,-0.052607 0.217942,-0.1052137 0.315641,-0.1578206 0.0977,-0.052607 0.187882,-0.1202444 0.278065,-0.1953971 l 0.05261,-0.082668 h 0.06012 l 0.849225,-0.5486148 0.39831,-0.4133398 h 0.06012 l 0.195397,-0.1728512 v -0.052607 l 0.09018,-0.030061 c 0.165336,-0.1728512 0.323157,-0.3381872 0.458432,-0.5185537 0.14279,-0.1803664 0.255519,-0.3682482 0.330672,-0.5711605 v -0.097698 h -0.06012 V 1.615408 h -0.02255 c -0.0977,0.1352748 -0.210428,0.2705497 -0.330672,0.3983093 -0.12776,0.1427901 -0.255519,0.2705497 -0.375764,0.3832788 v 0.052607 c -0.480977,0.3757635 -0.954439,0.7139506 -1.450447,1.029592 -0.488492,0.3156413 -1.007046,0.5711605 -1.563176,0.7665576 -0.03006,0.022546 -0.06764,0.030061 -0.105214,0.030061 -0.03758,0 -0.06764,0.022546 -0.08267,0.075153 l -0.195397,0.082668 0.248004,0.165336 0.135275,0.082668 0.09018,0.1503054 z M 46.94152,1.5853469 47.106856,1.5703164 47.257161,1.4350415 47.106856,1.1043696 46.543211,0.93151839 46.347814,0.77369772 46.11484,0.72860609 h -0.06012 v 0.0676374 l -0.03006,0.082668 v 0.1277596 c 0.0977,0.097699 0.210428,0.1803665 0.315641,0.2404886 0.112729,0.060122 0.225458,0.1352749 0.315642,0.2404887 z"
         id="path304" />
    </g>
    <text
       xml:space="preserve"
       transform="scale(0.26458333)"
       id="text266"
       style="font-size:53.3333px;font-family:KouzanBrushFontGyousyoOTF;-inkscape-font-specification:KouzanBrushFontGyousyoOTF;white-space:pre;shape-inside:url(#rect268);display:inline;fill:#000000" />
  </g>
</svg>
