<?xml version="1.0" encoding="UTF-8" standalone="no"?>
<!-- Created with Inkscape (http://www.inkscape.org/) -->

<svg
   width="30mm"
   height="7mm"
   viewBox="0 0 30 7"
   version="1.1"
   id="svg5"
   inkscape:version="1.2.2 (b0a8486, 2022-12-01)"
   sodipodi:docname="introductionLOGO.svg"
   xmlns:inkscape="http://www.inkscape.org/namespaces/inkscape"
   xmlns:sodipodi="http://sodipodi.sourceforge.net/DTD/sodipodi-0.dtd"
   xmlns="http://www.w3.org/2000/svg"
   xmlns:svg="http://www.w3.org/2000/svg">
  <sodipodi:namedview
     id="namedview7"
     pagecolor="#ffffff"
     bordercolor="#000000"
     borderopacity="0.25"
     inkscape:showpageshadow="2"
     inkscape:pageopacity="0.0"
     inkscape:pagecheckerboard="0"
     inkscape:deskcolor="#d1d1d1"
     inkscape:document-units="mm"
     showgrid="false"
     inkscape:zoom="4.7488465"
     inkscape:cx="76.439615"
     inkscape:cy="23.900541"
     inkscape:window-width="1440"
     inkscape:window-height="771"
     inkscape:window-x="1080"
     inkscape:window-y="1616"
     inkscape:window-maximized="0"
     inkscape:current-layer="layer1" />
  <defs
     id="defs2">
    <rect
       x="-1.8951972"
       y="4.0009718"
       width="213.31496"
       height="77.703079"
       id="rect268" />
  </defs>
  <g
     inkscape:label="Layer 1"
     inkscape:groupmode="layer"
     id="layer1">
    <path
       style="color:#000000;fill:#000000;fill-rule:evenodd;-inkscape-stroke:none"
       d="m 4.4179687,7.6269531 v 0.21875 z"
       id="path552" />
    <text
       xml:space="preserve"
       transform="scale(0.26458333)"
       id="text266"
       style="font-size:53.3333px;font-family:KouzanBrushFontGyousyoOTF;-inkscape-font-specification:KouzanBrushFontGyousyoOTF;white-space:pre;shape-inside:url(#rect268);display:inline;fill:#000000" />
    <g
       aria-label="自己紹介"
       transform="scale(0.97781458,1.0226888)"
       id="text586"
       style="font-size:8.39499px;font-family:KouzanBrushFontGyousyoOTF;-inkscape-font-specification:KouzanBrushFontGyousyoOTF;fill:#1a1a1a;stroke-width:0.484327">
      <path
         d="M 3.8459582,6.8527442 3.9802781,6.8107693 V 6.7687943 H 4.022253 L 4.039043,6.6932394 4.1817578,6.5505246 C 4.1481779,6.4749697 4.1229929,6.3910198 4.1062029,6.2986749 4.081018,6.214725 4.072623,6.1223801 4.072623,6.0216402 l 0.0084,-0.9234489 c 0.00839,-0.2938246 0.03358,-0.5792543 0.075555,-0.856289 0.041975,-0.2686397 0.092345,-0.5288843 0.1427148,-0.797524 l -0.01679,-0.1007399 0.03358,-0.1175299 h 0.041975 V 3.1169737 h 0.058765 l 0.08395,-0.092345 -0.092345,-0.2350597 c 0.0084,-0.1511099 0.03358,-0.3022197 0.058765,-0.4449345 0.025185,-0.1427148 0.05037,-0.2854297 0.075555,-0.4365395 L 4.5007675,1.7821703 C 4.3664476,1.7150103 4.2237328,1.6478504 4.072623,1.5890855 3.9131182,1.5303206 3.7787983,1.4631606 3.6360835,1.3792107 l -0.041975,-0.00839 -0.01679,0.025185 c -0.075555,0.092345 -0.1595049,0.1343199 -0.2686397,0.1343199 -0.1091349,0 -0.2098748,0.01679 -0.3190096,0.041975 L 2.5699198,1.3960007 h -0.03358 v 0.03358 h -0.075555 v 0.058765 L 2.36844,1.5639005 v 0.041975 L 2.0914053,1.7401953 2.0158504,1.7150103 c -0.058765,-0.00839 -0.1175298,-0.00839 -0.1678998,0.00839 -0.058765,0.01679 -0.1091348,0.03358 -0.1511098,0.058765 L 1.503756,1.9584651 c 0.041975,0.1343198 0.06716,0.2770346 0.06716,0.4281444 0,0.1511099 0.05037,0.2854297 0.1511098,0.4029596 l 0.2266647,0.075555 0.1091349,0.1175298 0.08395,-0.01679 0.1091348,-0.1846898 0.2770347,-0.1762948 0.1762948,0.041975 0.1595048,-0.05037 h 0.058765 L 3.1323841,2.839939 3.4010238,2.9574689 c 0.041975,0.2602447 0.075555,0.5372793 0.1091348,0.805919 0.025185,0.2770347 0.058765,0.5540693 0.08395,0.831104 l -0.00839,0.9990038 -0.05037,0.2350597 -0.058765,0.01679 -0.2014798,-0.041975 -0.1007399,0.041975 0.01679,0.092345 -0.03358,0.092345 -0.4701195,-0.06716 -0.6548092,0.025185 -0.2686397,-0.00839 c 0.025185,-0.05037 0.058765,-0.1007399 0.08395,-0.1427149 0.025185,-0.041975 0.03358,-0.092345 0.041975,-0.1511098 l 0.075555,-0.025185 0.092345,-0.1678998 0.2350597,-0.2602447 c 0.058765,-0.00839 0.1007399,0 0.1175299,0.01679 0.025185,0.03358 0.05037,0.06716 0.092345,0.092345 l 0.03358,-0.058765 0.1427148,-0.01679 v -0.092345 l 0.1259249,-0.0084 V 5.0478214 h -0.01679 v -0.058765 l -0.05037,-0.01679 0.03358,-0.1678998 0.1175299,-0.01679 -0.041975,-0.1175299 C 2.7462146,4.6112819 2.6202897,4.5777019 2.4775749,4.552517 2.343255,4.544122 2.2173302,4.510542 2.0998003,4.4517771 c -0.1091348,0 -0.2182697,0.01679 -0.3106146,0.041975 -0.08395,0.03358 -0.1846898,0.058765 -0.2938247,0.1007399 v 0.01679 l 0.1595049,0.1343198 0.075555,0.08395 C 1.6968408,4.9974514 1.6464709,5.1737462 1.5793109,5.341646 1.503756,5.5179408 1.4114111,5.6690506 1.2938813,5.8285554 h -0.03358 l -0.01679,-0.1343198 0.025185,-0.1007399 -0.025185,-0.05037 0.025185,-0.075555 -0.025185,-0.058765 0.025185,-0.1343198 -0.05037,-0.9066589 0.01679,-0.1511098 c 0,-0.06716 0.00839,-0.1511099 0.01679,-0.2266648 0.0084,-0.075555 -0.025185,-0.1427148 -0.08395,-0.1846898 C 1.0000566,3.679438 0.84055183,3.5703031 0.66425704,3.4779582 0.49635724,3.3772184 0.31166746,3.2932685 0.12697768,3.2345035 l -0.0839499,-0.0084 c 0.02518497,0.1343199 0.0839499,0.2602447 0.1678998,0.3693796 0.0839499,0.1175299 0.15950481,0.2266647 0.24345471,0.3274046 h 0.0419749 c 0.0755549,0.092345 0.12592485,0.1930848 0.13431984,0.3106146 0.008395,0.1259249 0.025185,0.2434547 0.03358,0.3525896 l -0.008395,0.7555491 c -0.008395,0.058765 -0.01679,0.1091349 -0.025185,0.1678998 -0.008395,0.058765 -0.03358,0.092345 -0.0839499,0.1343199 0.008395,0.1595048 0.041975,0.2938246 0.10913487,0.4113545 0.0671599,0.1259248 0.15110982,0.2350597 0.24345471,0.3525895 L 1.1595614,6.5421296 c 0.025185,-0.025185 0.058765,-0.05037 0.092345,-0.06716 0.025185,-0.01679 0.06716,-0.01679 0.1091349,-0.0084 l 0.025185,-0.075555 0.1175298,0.1091348 0.075555,0.041975 0.1259249,-0.075555 0.075555,0.01679 c 0.2602447,-0.00839 0.5036994,-0.025185 0.7387591,-0.058765 0.2350597,-0.03358 0.4785145,-0.06716 0.7135742,-0.092345 h 0.1007398 l 0.2938247,0.3441946 z m -1.3180134,-2.6528168 0.041975,-0.05037 h 0.075555 l 0.01679,-0.03358 0.058765,-0.025185 c 0.03358,-0.0084 0.05037,-0.025185 0.05037,-0.06716 0,-0.041975 0.0084,-0.06716 0.025185,-0.092345 h 0.03358 l -0.0084,-0.058765 v -0.05037 h 0.03358 l 0.041975,-0.058765 C 2.8721394,3.696228 2.8469544,3.6290681 2.8385594,3.5619081 2.8301645,3.4947482 2.8049795,3.4359833 2.7797945,3.3772184 2.6706596,3.3688234 2.5615248,3.3520334 2.4691799,3.3100584 2.38523,3.2680835 2.2760951,3.2345035 2.1669602,3.1925286 l -0.075555,0.01679 -0.1259248,-0.041975 -0.4365395,0.03358 -0.025185,0.058765 h -0.03358 L 1.8479506,3.696228 c 0.025185,0.041975 0.058765,0.058765 0.1007399,0.06716 0.03358,0.00839 0.06716,0.00839 0.1007399,0.00839 l 0.025185,0.058765 0.2014797,0.1259249 c 0.03358,0.041975 0.06716,0.06716 0.1091349,0.092345 0.03358,0.025185 0.05037,0.06716 0.05037,0.1259248 z m -1.89726772,-2.0483776 0.0587649,-0.06716 0.0755549,-0.025185 0.15110982,-0.2266647 0.0587649,-0.01679 0.0335799,-0.075555 0.075555,-0.03358 0.075555,-0.1343199 h 0.041975 l 0.075555,-0.075555 0.025185,-0.041975 h 0.05037 l 0.1091349,0.1427148 0.058765,-0.025185 0.1175299,0.041975 h 0.041975 l 0.01679,-0.1175299 0.05037,-0.01679 0.041975,-0.058765 0.1175299,0.025185 h 0.01679 L 1.8479506,1.3204458 1.8731356,1.160941 c 0.041975,0 0.075555,0 0.1091349,0 0.025185,0 0.05037,0.01679 0.06716,0.058765 l 0.06716,-0.03358 0.075555,-0.058765 c 0.025185,-0.041975 0.06716,-0.06716 0.1091349,-0.08395 0.041975,0 0.075555,-0.00839 0.1091349,-0.00839 v -0.03358 l 0.075555,-0.0587649 -0.041975,-0.10073988 h -0.03358 l 0.01679,-0.11752986 -0.01679,-0.0503699 0.058765,-0.11752986 v -0.03358 l -0.041975,-0.01679 -0.01679,-0.0839499 C 2.2425152,0.39699692 2.0830103,0.35502197 1.9402955,0.29625704 1.7807907,0.22909712 1.6380759,0.1619372 1.4785711,0.09477728 c -0.05037,-0.008395 -0.1007399,-0.008395 -0.1343199,0.01678998 -0.041975,0.025185 -0.08395,0.0503699 -0.1259248,0.0587649 v 0.0587649 l -0.2014798,0.15110982 -0.0923449,-0.03358 -0.0587649,0.025185 c 0,0.041975 0.008395,0.0755549 0.01679,0.10913487 0.008395,0.0419749 0.01679,0.0755549 0.041975,0.10073988 L 0.90771175,0.68242658 1.0336366,0.95106626 0.63907207,2.1095749 Z"
         id="path590" />
      <path
         d="m 9.8315699,5.8789254 0.01679,-0.03358 0.01679,0.03358 0.01679,-0.041975 0.1762952,-0.0084 0.663204,0.06716 c 0.159505,0.00839 0.319009,-0.01679 0.461724,-0.06716 0.142715,-0.05037 0.30222,-0.075555 0.45333,-0.08395 l 0.01679,-0.058765 c 0.260244,-0.041975 0.528884,-0.092345 0.789129,-0.1343198 0.251849,-0.041975 0.503699,-0.1091349 0.755549,-0.1930848 l 0.06716,0.01679 0.10074,-0.01679 v -0.075555 l 0.09234,-0.01679 0.04197,0.025185 0.07555,-0.01679 v -0.03358 h 0.03358 l 0.01679,-0.041975 v -0.03358 l -0.167899,-0.06716 0.05876,-0.06716 0.0084,-0.058765 c -0.05037,-0.025185 -0.100739,-0.03358 -0.151109,-0.041975 -0.05037,-0.0084 -0.09235,-0.025185 -0.125925,-0.041975 l -0.10074,0.01679 h -0.05877 v -0.01679 L 12.912531,4.8631316 12.753026,4.7120218 h -0.04198 l -0.05876,-0.092345 -0.0084,-0.075555 -0.08395,-0.0084 V 4.476962 h -0.02518 l -0.03358,-0.2770346 h -0.03358 c 0,-0.025185 0,-0.06716 0,-0.1175299 0,-0.041975 -0.01679,-0.075555 -0.04197,-0.1007399 -0.03358,0.2098748 -0.07556,0.3945646 -0.125925,0.5708594 -0.05876,0.1846897 -0.10074,0.3609845 -0.159505,0.5540693 -0.209875,0.075555 -0.402959,0.1343198 -0.604439,0.2098747 -0.20148,0.075555 -0.411355,0.1259249 -0.654809,0.1511099 L 9.9910747,5.4423859 C 9.7979899,5.383621 9.6049051,5.341646 9.4118204,5.316461 9.2271306,5.2912761 9.0340458,5.2493011 8.8409611,5.1905362 L 8.7150362,4.7875767 8.7570112,4.2754823 8.8157761,4.2335073 C 8.891331,4.0823975 8.9668859,3.9228927 9.0508358,3.7717829 9.1347857,3.6206731 9.1935506,3.4611683 9.2271306,3.2764785 l -0.025185,-0.1343199 -0.058765,-0.025185 -0.01679,-0.058765 0.0084,-0.092345 C 9.2775005,2.9238889 9.4118204,2.873519 9.5545352,2.823149 9.69725,2.7811741 9.8231749,2.7224091 9.9490997,2.6552492 l 0.1427153,0.03358 0.587649,-0.1091349 0.226665,-0.1595048 0.218269,-0.2518497 h 0.03358 l 0.109135,-0.2350597 0.05876,-0.01679 c 0.05877,-0.075555 0.109135,-0.1678998 0.15111,-0.2518497 0.02519,-0.092345 0.05876,-0.1762948 0.09234,-0.2686397 l 0.04197,0.00839 0.01679,-0.025185 c 0.09234,-0.058765 0.193084,-0.092345 0.277034,-0.1175298 0.09234,-0.025185 0.193085,-0.041975 0.293825,-0.06716 l 0.05876,-0.08395 h 0.02519 l -0.04197,-0.058765 -0.06716,-0.025185 v -0.058765 h -0.04197 l -0.04198,-0.0587649 C 11.947107,0.86711636 11.812788,0.81674642 11.670073,0.75798149 11.527358,0.69921656 11.384643,0.6656366 11.241928,0.63205664 v -0.0419749 h -0.01679 v 0.0419749 l -0.125925,-0.008395 v 0.0503699 l -0.07556,-0.01679 -0.117529,0.01679 v 0.03358 l -0.08395,0.0587649 -0.05037,0.008395 v 0.0419749 L 10.259714,0.92588129 9.8987298,0.79995644 C 9.7811999,0.85872137 9.6720651,0.92588129 9.5629302,0.99304121 9.4454003,1.0602011 9.3194755,1.0937811 9.1767607,1.1021761 l -0.041975,-0.01679 h -0.05037 l -0.03358,0.06716 -0.06716,0.025185 -0.3441946,-0.025185 -0.2854297,-0.0084 0.3274046,0.2518497 0.1007399,0.1595048 0.1175299,0.041975 c 0.1511098,0.01679 0.2854296,0.00839 0.4281445,-0.025185 0.1259248,-0.025185 0.2602447,-0.05037 0.3945645,-0.075555 v -0.075555 c 0.1595048,-0.05037 0.3358,-0.1091349 0.503699,-0.1678998 0.176295,-0.05037 0.344195,-0.1007399 0.528885,-0.1511098 l 0.05037,0.00839 c -0.0084,0.2014797 -0.05037,0.3861695 -0.109135,0.5624643 -0.06716,0.1678998 -0.159505,0.3441946 -0.26864,0.5036994 -0.193085,0.03358 -0.377774,0.08395 -0.5708592,0.1511098 -0.1846897,0.06716 -0.3693795,0.1343199 -0.5372793,0.2098748 L 9.0340458,2.5041394 H 8.916516 l -0.01679,0.058765 -0.1175299,0.03358 0.06716,0.1762948 v 0.06716 l -0.2602446,-0.06716 -0.1175299,-0.0084 0.058765,0.1930848 -0.2266647,1.628628 c 0,0.1259249 0,0.2518497 0,0.3609846 -0.0084,0.1175298 0.025185,0.2266647 0.08395,0.3190096 0.2014798,0.2098748 0.4281445,0.3441946 0.6799942,0.4029595 0.2602447,0.06716 0.5120944,0.1343199 0.7639441,0.2098748 z"
         id="path592" />
      <path
         d="m 17.101615,6.2315149 0.01679,-0.01679 0.01679,0.01679 0.04198,-0.03358 0.20148,0.0084 h 0.08395 v -0.075555 h -0.02518 C 17.37865,6.0216402 17.303095,5.9209003 17.22754,5.8201604 17.151985,5.7194206 17.09322,5.6102857 17.034455,5.5095458 16.92532,5.4675709 16.82458,5.4004109 16.74063,5.3080661 16.639891,5.2241162 16.539151,5.1485612 16.430016,5.0897963 h -0.06716 c 0.03358,0.1678998 0.07555,0.3357996 0.13432,0.5036994 0.05037,0.1595048 0.125925,0.3106146 0.235059,0.4449345 l 0.159505,0.1091349 v 0.01679 z m 3.509106,-0.4281444 0.01679,-0.1091349 C 20.585536,5.4339909 20.501586,5.1821412 20.375661,4.9386865 20.249736,4.7036268 20.098626,4.476962 19.905542,4.2670873 l -0.04198,-0.041975 -0.01679,-0.041975 -0.05877,0.0084 c -0.04197,0.092345 -0.07555,0.1930848 -0.10074,0.3022196 -0.02519,0.1007399 -0.05037,0.2182698 -0.07556,0.3274046 -0.0084,0.1343199 0.0084,0.2770347 0.04198,0.4029596 0.03358,0.1259248 0.10074,0.2350597 0.20148,0.3274046 l 0.293824,0.1511098 h 0.05037 v -0.058765 l 0.109135,0.025185 0.01679,0.05037 c 0.05037,0.00839 0.10074,0.01679 0.159505,0.025185 0.05877,0.0084 0.10074,0.025185 0.125925,0.058765 z m 0.310614,-0.5372794 0.08395,-0.01679 0.01679,0.01679 0.377775,-0.06716 -0.0084,-0.041975 0.04198,-0.0084 0.03358,-0.075555 v -0.03358 l -0.209875,-0.03358 v -0.05037 l 0.05876,-0.01679 v -0.041975 l 0.25185,-0.1259248 c 0.02519,-0.0084 0.05877,-0.025185 0.07556,-0.03358 0.02518,-0.0084 0.03358,-0.025185 0.03358,-0.058765 l 0.125924,-0.05037 0.07556,-0.075555 0.109135,-0.1930848 h 0.04198 l 0.01679,-0.092345 h 0.01679 l 0.10074,-0.2182697 -0.06716,-0.2098748 h -0.07556 l -0.0084,-0.03358 C 21.928734,3.7465979 21.836389,3.704623 21.744044,3.679438 21.643305,3.654253 21.542565,3.637463 21.43343,3.6290681 c -0.18469,-0.0084 -0.360985,0.025185 -0.5037,0.092345 -0.159504,0.06716 -0.302219,0.1595049 -0.428144,0.2938247 0.09235,-0.041975 0.176295,-0.075555 0.277035,-0.1007399 0.09234,-0.025185 0.184689,-0.058765 0.285429,-0.075555 l 0.344195,0.01679 -0.02519,0.1427148 C 21.324295,4.1327675 21.257135,4.2502973 21.148,4.3678272 21.038865,4.493752 20.938125,4.6028869 20.84578,4.7120218 l -0.293824,0.2014797 c 0,0.058765 0.02519,0.1091349 0.05877,0.1427149 0.04197,0.041975 0.05876,0.092345 0.06716,0.1595048 z m -3.374786,-0.2182697 0.26864,-0.05037 v -0.05037 l -0.06716,-0.06716 -0.327404,-0.1930848 h -0.05877 v 0.01679 l -0.09235,-0.0084 h -0.03358 v 0.01679 l -0.05877,0.01679 c 0,0.058765 0.02519,0.1091349 0.07556,0.1427149 0.04197,0.03358 0.08395,0.06716 0.11753,0.1007399 z m 0.663205,-0.3777746 0.07556,-0.025185 0.01679,-0.092345 0.109134,-0.0084 -0.0084,-0.025185 h 0.05877 l 0.01679,-0.03358 v -0.041975 c -0.109135,-0.06716 -0.226664,-0.1091349 -0.335799,-0.1343199 -0.11753,-0.025185 -0.243455,-0.041975 -0.36938,-0.05037 h -0.09234 l 0.01679,0.1091349 0.142715,0.1343198 0.193085,0.05037 0.01679,0.075555 z m -1.678998,-0.05037 0.159504,-0.075555 0.03358,-0.1343199 1.166904,-0.9234489 0.125925,-0.1846897 h 0.05877 l 0.125925,-0.1762948 0.142714,0.1511098 c 0,0.041975 0,0.08395 -0.0084,0.1175298 -0.0084,0.041975 -0.02518,0.075555 -0.05037,0.1007399 l 0.0084,0.03358 0.142714,-0.041975 v -0.03358 l 0.23506,-0.08395 0.06716,0.01679 h 0.07555 l 0.01679,-0.03358 c 0,-0.1259249 -0.03358,-0.2266647 -0.09234,-0.3190096 -0.06716,-0.092345 -0.13432,-0.1762948 -0.20148,-0.2602447 -0.04198,-0.05037 -0.08395,-0.092345 -0.142715,-0.1259249 -0.05876,-0.03358 -0.117529,-0.058765 -0.176294,-0.06716 h -0.20148 l 0.02519,0.092345 0.10074,0.1175299 0.0084,0.075555 -0.889869,0.7051791 H 17.21075 C 17.27791,3.4527733 17.34507,3.3184534 17.41223,3.1757386 17.4626,3.0414188 17.521364,2.9070989 17.563339,2.7811741 h 0.04198 c 0.04198,-0.1091349 0.10074,-0.2098748 0.1679,-0.3022197 0.05877,-0.08395 0.109135,-0.1846897 0.142715,-0.2938246 h 0.04198 c 0.09235,-0.1511098 0.1679,-0.3190096 0.226665,-0.4701195 0.06716,-0.1595048 0.125925,-0.3274046 0.184689,-0.5036994 l 0.159505,-0.06716 -0.0084,-0.041975 c -0.04198,-0.03358 -0.10074,-0.05037 -0.1679,-0.058765 -0.07555,0 -0.142714,-0.00839 -0.201479,-0.03358 l -0.243455,0.03358 c -0.01679,0.025185 -0.02518,0.05037 -0.03358,0.06716 -0.0084,0.01679 -0.02519,0.025185 -0.05037,0.025185 l 0.01679,0.058765 C 17.790004,1.3708158 17.714449,1.5303206 17.630499,1.6898254 17.538154,1.8409352 17.44581,2.00044 17.353465,2.1431548 h -0.03358 l -0.3358,0.2854297 -0.04198,0.0084 C 17.02606,2.2354997 17.101615,2.042415 17.19396,1.8409352 17.286305,1.6478504 17.353465,1.4379757 17.41223,1.2364959 17.403835,1.0937811 17.353465,0.96785624 17.26112,0.85872137 17.168775,0.7495865 17.084825,0.64884662 17.00927,0.52292177 h -0.01679 v 0.0587649 h -0.05037 l -0.02519,0.14271483 0.05037,0.21826974 C 16.9589,1.194521 16.90853,1.4295807 16.816185,1.6562454 c -0.08395,0.2266647 -0.184689,0.4533295 -0.293824,0.6799942 -0.03358,0.058765 -0.06716,0.1091349 -0.10074,0.1595048 -0.02518,0.058765 -0.08395,0.1007399 -0.159505,0.1343199 l -0.07555,0.1511098 0.159505,0.3609845 0.26864,-0.041975 0.01679,-0.03358 0.629624,-0.3106146 h 0.01679 C 17.21075,2.9910488 17.118405,3.2177136 17.00927,3.4443783 16.89174,3.662648 16.749025,3.8809178 16.589521,4.0991875 l -0.20148,0.03358 -0.0084,0.1427148 c 0.01679,0.05037 0.04197,0.1007399 0.06716,0.1511098 0.02519,0.058765 0.03358,0.1175299 0.04198,0.1678998 z m 3.173306,-1.4691233 0.142715,-0.08395 0.05037,-0.1091348 0.05037,-0.092345 h 0.04197 l 0.01679,-0.041975 0.10074,-0.075555 0.05877,-0.1259248 h 0.05037 v -0.03358 h 0.03358 l 0.40296,-0.6967842 0.13432,-0.1678998 0.07555,-0.075555 0.07555,-0.075555 -0.05877,-0.1091349 -0.310614,-0.075555 0.01679,-0.075555 0.05037,-0.01679 0.05037,-0.1343198 0.159504,-0.075555 v -0.041975 l 0.26864,-0.0923448 0.05877,0.01679 0.05877,0.29382466 -0.0084,0.2098747 0.01679,0.075555 c -0.01679,0.1846898 -0.04198,0.3525896 -0.07556,0.5288844 -0.03358,0.1678998 -0.08395,0.3357996 -0.15111,0.4953044 l -0.125925,-0.058765 -0.04197,-0.06716 -0.01679,0.025185 0.117529,0.4785145 0.05037,-0.01679 0.07555,0.0084 0.15111,-0.01679 C 21.324295,2.6384592 21.41664,2.3446346 21.50059,2.042415 21.58454,1.7401953 21.6517,1.4379757 21.718859,1.127361 l 0.08395,-0.06716 0.08395,0.01679 h 0.02518 l -0.01679,-0.05037 c -0.07556,-0.0755549 -0.15111,-0.13431987 -0.235059,-0.17629482 -0.08395,-0.041975 -0.176295,-0.0671599 -0.277035,-0.0923449 -0.260245,0.03358 -0.52049,0.0671599 -0.780734,0.10073988 -0.260245,0.0419749 -0.52049,0.0839499 -0.772339,0.14271483 l -0.277035,-0.025185 h -0.10074 l -0.03358,0.0671599 0.20148,0.2602447 0.109135,0.041975 0.10074,0.1427148 h 0.05877 v 0.01679 l 0.08395,0.041975 0.09234,-0.03358 h 0.07556 c -0.04198,0.2854296 -0.10074,0.5792543 -0.167899,0.847894 -0.07556,0.2770346 -0.159505,0.5372793 -0.26864,0.789129 z"
         id="path594" />
      <path
         d="m 27.905951,6.6932394 0.01679,-0.092345 0.109135,-0.01679 c 0.06716,-0.1091348 0.109135,-0.2434547 0.13432,-0.3777745 0.02519,-0.1427148 0.04197,-0.2770347 0.06716,-0.4113545 l -0.03358,-0.4113545 0.01679,-0.2434547 -0.0084,-0.5708594 0.07556,-0.5960443 -0.01679,-0.041975 0.01679,-0.1259249 -0.01679,-0.058765 0.01679,-0.1427148 c 0,-0.1007399 0,-0.1930848 0.0084,-0.3022196 0,-0.1007399 -0.0084,-0.1846898 -0.05037,-0.2770347 v -0.041975 h 0.04198 l 0.03358,-0.3777745 0.10074,-0.058765 -0.05877,-0.08395 0.01679,-0.1427149 c 0.360985,0.1930848 0.721969,0.3777746 1.082954,0.5456744 0.360985,0.1762948 0.730364,0.3190096 1.108139,0.4533294 h 0.01679 l -0.01679,-0.06716 v -0.01679 h 0.07555 l -0.05876,-0.041975 0.0084,-0.05037 h 0.02519 v -0.01679 l -0.08395,-0.01679 V 3.0833937 C 30.130623,2.823149 29.727664,2.5796943 29.333099,2.3278446 28.921745,2.0843899 28.518785,1.8157502 28.124221,1.5387156 V 1.4967406 C 28.031876,1.4379757 27.964716,1.3624208 27.914346,1.2700759 27.855581,1.177731 27.805211,1.0853861 27.754841,1.0014362 27.679286,0.92588129 27.603731,0.85032638 27.519781,0.78316646 27.427436,0.71600654 27.335092,0.67403159 27.234352,0.64884662 l 0.01679,-0.0587649 c 0,-0.0587649 -0.0084,-0.10073988 -0.01679,-0.13431984 -0.01679,-0.025185 -0.04198,-0.0671599 -0.06716,-0.10913487 l -0.822709,-0.27703467 -0.1679,0.05876493 0.05037,0.0923449 c -0.04198,0.28542966 -0.125925,0.54567435 -0.25185,0.79752407 -0.13432,0.2434547 -0.23506,0.4953044 -0.327404,0.7471541 h -0.04198 c -0.05876,0.1175298 -0.11753,0.2350597 -0.1679,0.3357996 -0.05876,0.1175298 -0.109135,0.2434547 -0.15111,0.3609846 l -0.05877,0.025185 c -0.18469,0.3861696 -0.35259,0.7975241 -0.495304,1.2172736 -0.15111,0.4197495 -0.260245,0.847894 -0.31901,1.2844334 v 0.058765 h 0.03358 L 24.6403,4.3678272 h 0.01679 c 0.235059,-0.5624644 0.512094,-1.1081387 0.822709,-1.6370231 0.302219,-0.5288843 0.579254,-1.0577687 0.847894,-1.611838 0.04198,-0.058765 0.08395,-0.1091349 0.142715,-0.16789984 0.05037,-0.0587649 0.100739,-0.10913487 0.167899,-0.1678998 l 0.23506,0.0587649 c 0.21827,0.15950481 0.40296,0.35258961 0.562464,0.57925431 0.15111,0.2434547 0.35259,0.4197495 0.58765,0.5624643 l -0.02519,0.058765 c -0.04198,0.00839 -0.06716,0 -0.09234,-0.03358 -0.03358,-0.025185 -0.06716,-0.058765 -0.09235,-0.08395 l -0.05877,-0.00839 v 0.058765 l -0.13432,0.01679 V 2.03402 l -0.10074,0.041975 c 0,0.08395 0.01679,0.1678998 0.05877,0.2434547 0.03358,0.075555 0.06716,0.1511098 0.09235,0.2266648 -0.0084,0.1595048 -0.0084,0.3022196 0,0.4617244 0,0.1511098 -0.03358,0.2938247 -0.09235,0.4365395 0.13432,0.5120944 0.21827,1.0409787 0.226665,1.5866531 0.0084,0.5540693 0.04198,1.0913487 0.10074,1.620233 z m -2.107143,-0.6464142 0.09234,-0.058765 0.02519,-0.1259248 0.05877,-0.01679 0.04198,-0.092345 0.1679,-0.1175298 0.03358,-0.1091349 h 0.04197 l 0.05877,-0.058765 0.06716,-0.075555 0.04197,-0.075555 h 0.03358 l 0.05877,-0.1678998 h 0.03358 c 0.125925,-0.2098747 0.209875,-0.4281444 0.260245,-0.6799941 0.05037,-0.2518497 0.08395,-0.4953045 0.109135,-0.7303642 l -0.0084,-0.1762948 c 0.02519,-0.05037 0.05037,-0.1007398 0.05877,-0.1762947 0.0084,-0.06716 0.02519,-0.1259249 0.04198,-0.1762948 L 26.965712,3.0414188 C 26.864972,2.9406789 26.747442,2.873519 26.621517,2.831544 26.495593,2.7895691 26.369668,2.7559891 26.260533,2.6972242 l -0.13432,0.01679 c 0.02519,0.1007398 0.05877,0.1930847 0.11753,0.2854296 0.05877,0.092345 0.09235,0.1846898 0.10074,0.2938247 l -0.01679,0.9234489 c -0.03358,0.3357996 -0.10074,0.6548092 -0.193085,0.9486338 -0.109135,0.3022197 -0.21827,0.5960443 -0.3358,0.881474 z"
         id="path596" />
    </g>
  </g>
</svg>
