<?xml version="1.0" encoding="UTF-8" standalone="no"?>
<!-- Created with Inkscape (http://www.inkscape.org/) -->

<svg
   width="25mm"
   height="7mm"
   viewBox="0 0 25 7"
   version="1.1"
   id="svg5"
   inkscape:version="1.2.2 (b0a8486, 2022-12-01)"
   sodipodi:docname="loginLOGO.svg"
   xmlns:inkscape="http://www.inkscape.org/namespaces/inkscape"
   xmlns:sodipodi="http://sodipodi.sourceforge.net/DTD/sodipodi-0.dtd"
   xmlns="http://www.w3.org/2000/svg"
   xmlns:svg="http://www.w3.org/2000/svg">
  <sodipodi:namedview
     id="namedview7"
     pagecolor="#ffffff"
     bordercolor="#000000"
     borderopacity="0.25"
     inkscape:showpageshadow="2"
     inkscape:pageopacity="0.0"
     inkscape:pagecheckerboard="0"
     inkscape:deskcolor="#d1d1d1"
     inkscape:document-units="mm"
     showgrid="false"
     inkscape:zoom="4.7488465"
     inkscape:cx="107.71037"
     inkscape:cy="36.114033"
     inkscape:window-width="1440"
     inkscape:window-height="771"
     inkscape:window-x="1080"
     inkscape:window-y="1616"
     inkscape:window-maximized="0"
     inkscape:current-layer="layer1" />
  <defs
     id="defs2">
    <rect
       x="-1.8951972"
       y="4.0009718"
       width="213.31496"
       height="77.703079"
       id="rect268" />
  </defs>
  <g
     inkscape:label="Layer 1"
     inkscape:groupmode="layer"
     id="layer1">
    <path
       style="fill:none;fill-rule:evenodd;stroke:#000000;stroke-width:0.21864px;stroke-linecap:butt;stroke-linejoin:miter;stroke-opacity:1"
       d="m 4.4186655,7.736698 v 0"
       id="path208"
       inkscape:connector-type="polyline"
       inkscape:connector-curvature="0" />
    <text
       xml:space="preserve"
       style="font-size:5.73324px;font-family:KouzanBrushFontGyousyoOTF;-inkscape-font-specification:KouzanBrushFontGyousyoOTF;fill:#000000;stroke-width:0.107499"
       x="-1.033013"
       y="5.4494734"
       id="text214"
       transform="scale(0.94583325,1.0572688)"><tspan
         sodipodi:role="line"
         id="tspan212"
         style="stroke-width:0.107499"
         x="-1.033013"
         y="5.4494734" /></text>
    <text
       xml:space="preserve"
       transform="scale(0.26458333)"
       id="text266"
       style="font-size:53.3333px;font-family:KouzanBrushFontGyousyoOTF;-inkscape-font-specification:KouzanBrushFontGyousyoOTF;white-space:pre;shape-inside:url(#rect268);fill:#000000" />
    <text
       xml:space="preserve"
       style="font-size:5.75965px;font-family:KouzanBrushFontGyousyoOTF;-inkscape-font-specification:KouzanBrushFontGyousyoOTF;fill:#000000;stroke-width:0.107994"
       x="-0.7901544"
       y="5.3301029"
       id="text646"
       transform="scale(0.93810213,1.065982)"><tspan
         sodipodi:role="line"
         id="tspan644"
         style="stroke-width:0.107994"
         x="-0.7901544"
         y="5.3301029" /></text>
    <g
       aria-label="ログイン"
       transform="scale(0.8432545,1.1858816)"
       id="text650"
       style="font-size:8.30572px;font-family:KouzanBrushFontGyousyoOTF;-inkscape-font-specification:KouzanBrushFontGyousyoOTF;stroke-width:0.155733">
      <path
         d="m 1.650684,4.7420892 c 0.3820631,0 0.7558205,-0.016611 1.1212722,-0.041529 0.357146,-0.024917 0.714292,-0.066446 1.0797437,-0.1245858 l 0.033223,-0.091363 0.074751,-0.024917 C 4.0593429,4.1025487 4.1424001,3.737097 4.2005401,3.3550339 4.2586802,2.9729708 4.3334317,2.6075191 4.4497117,2.2420674 h 0.05814 L 4.649049,2.0178129 4.9729721,1.8184757 4.9397492,1.6772784 C 4.7819406,1.6025269 4.6324376,1.5194697 4.4663232,1.4447182 4.3002088,1.3699668 4.1507058,1.2952153 3.9928971,1.2121581 L 3.6440569,1.3118267 3.4530253,1.2786038 c -0.3820631,0 -0.7475148,0.041529 -1.0963551,0.1245858 C 1.9995243,1.4945526 1.6423783,1.569304 1.2852323,1.6440555 H 1.1191179 l -0.033223,-0.05814 h -0.083057 l 0.024917,0.1079743 v 0.091363 L 0.90316917,2.2669846 h -0.05814 v 0.033223 h 0.0332229 v 0.083057 L 0.47957743,2.2171502 h -0.0830572 v 0.049834 l -0.0830572,-0.024917 -0.0332229,0.05814 -0.21594873,-0.083057 v -0.033223 c 0.06644577,0.1744202 0.14119725,0.3405346 0.21594873,0.4983433 0.0747515,0.1578087 0.18272585,0.3156173 0.31561738,0.4651203 l 0.05814,0.033223 c 0.0913629,0.2408659 0.17442012,0.4983432 0.25747733,0.7641263 0.0747515,0.265783 0.19103161,0.5149546 0.34053451,0.7475148 z m 1.4867239,-0.5149547 -0.11628,0.033223 c -0.2491717,0 -0.4983433,0 -0.7558206,0 -0.2491716,0 -0.4817318,-0.041529 -0.7059862,-0.1162801 C 1.5177925,3.8450714 1.4762639,3.5626769 1.4015124,3.2885882 1.3267609,3.0144994 1.1855637,2.7404106 1.0028378,2.491239 V 2.4414047 C 1.3350666,2.2337617 1.6922126,2.0427301 2.06597,1.86831 2.4397274,1.6938898 2.838402,1.6108326 3.2453823,1.5859155 l 0.091363,0.033223 0.024917,0.1993373 h 0.05814 l 0.05814,0.6727633 c 0,0.2823945 -0.00831,0.5730947 -0.024917,0.8471835 -0.024917,0.2740887 -0.099669,0.5232604 -0.2242544,0.7558205 l -0.091363,0.024917 z"
         id="path296" />
      <path
         d="m 8.8434216,5.9298072 0.207643,-0.033223 0.3073117,-0.3239231 0.099669,-0.05814 C 9.6241593,5.2570439 9.7487451,4.9829551 9.8234966,4.6839492 9.8816366,4.393249 9.9563881,4.1025487 10.039445,3.7952371 l 0.107975,-0.099669 0.249171,-0.2907002 c 0.149503,-0.2574773 0.265783,-0.5066489 0.357146,-0.772432 0.08306,-0.265783 0.199338,-0.5149546 0.373758,-0.7392091 h 0.05814 l 0.141197,-0.3156173 h 0.05814 l 0.40698,-0.3737575 V 1.0626551 c -0.107974,-0.033223 -0.215948,-0.049834 -0.315617,-0.05814 -0.11628,0 -0.215949,-0.0332229 -0.2907,-0.091363 l -0.382063,0.05814 -0.107975,0.15780872 -0.07475,0.049834 -0.274089,0.049834 c -0.05814,0 -0.107974,-0.00831 -0.157809,-0.016611 -0.04153,-0.00831 -0.08306,-0.024917 -0.124586,-0.05814 h -0.02492 l 0.17442,0.2907002 0.182726,0.1328916 0.09967,-0.05814 h 0.07475 C 10.404897,2.283596 10.164031,3.0394165 9.8567195,3.7786257 9.5577135,4.5344462 9.217179,5.2404324 8.8434216,5.8965843 Z m 0.6312347,-0.4817318 -0.016611,0.016612 -0.024917,-0.016612 0.024917,-0.091363 h 0.049834 z M 8.7935873,2.3666532 9.2005676,2.2088445 9.632465,1.7603356 9.7653565,1.5194697 9.7404394,1.3201324 9.1756504,0.9380693 h -0.024917 v 0.0332229 L 9.0759818,1.0045151 9.1092046,1.154018 C 9.067676,1.3450496 9.009536,1.5360812 8.9264788,1.7021956 8.8351159,1.8849214 8.7603644,2.0593415 8.6773072,2.2337617 v 0.05814 h 0.024917 v 0.024917 h 0.091363 z m 3.5465427,-0.921935 0.282394,-0.083057 0.02492,-0.074751 -0.04983,-0.3488403 C 12.51455,0.84670637 12.414881,0.77195489 12.306907,0.69720341 12.198933,0.63075765 12.090958,0.5726176 11.99129,0.52278328 h -0.08306 c 0.05814,0.13289153 0.107975,0.27408877 0.157809,0.41528602 0.04983,0.1411972 0.107974,0.2907002 0.182726,0.4235917 l 0.09136,0.024917 z m 0.589706,-0.53156606 0.249172,-0.0747515 c 0.02492,-0.05814 0.01661,-0.11628008 -0.0083,-0.17442012 -0.02492,-0.0415286 -0.05814,-0.0830572 -0.09136,-0.11628009 L 12.423187,0.21547163 h -0.05814 l 0.05814,0.19103157 0.07475,0.0249172 0.09967,0.22425445 z"
         id="path298" />
      <path
         d="m 19.723899,5.9048901 0.09136,-0.033223 c 0.01661,-0.2408659 0.0083,-0.4817318 -0.01661,-0.714292 -0.03322,-0.2408659 -0.06644,-0.473426 -0.09967,-0.6976805 l 0.02492,-0.083057 -0.02492,-0.1993373 0.04983,-0.6644576 -0.02492,-0.1661144 0.05814,-0.3654517 c -0.02492,-0.074752 -0.03322,-0.1578087 -0.03322,-0.2491716 0,-0.091363 -0.02492,-0.1744201 -0.07475,-0.2325602 l -0.23256,0.033223 h -0.116281 c 0.191032,-0.2990059 0.398675,-0.5730947 0.631235,-0.8388778 0.23256,-0.265783 0.390369,-0.5564832 0.498343,-0.88871203 0,-0.05814 0,-0.1245858 0,-0.18272584 0,-0.0664458 -0.02492,-0.12458581 -0.06645,-0.18272585 l -0.373758,-0.0830572 -0.17442,-0.29070021 -0.09136,0.29070021 -0.17442,0.16611441 0.03322,0.16611441 C 19.549479,1.0211265 19.424893,1.3367439 19.233862,1.6108326 19.051136,1.8932271 18.86841,2.1673159 18.710601,2.4497104 h -0.04983 L 16.9664,4.8251464 v 0.033223 c 0.382063,-0.1910316 0.69768,-0.4485089 0.955158,-0.772432 0.257477,-0.3239231 0.548177,-0.6395405 0.847183,-0.9385464 l 0.207643,-0.3073116 0.08306,0.033223 c 0.05814,0.149503 0.141198,0.2823945 0.249172,0.4152861 0.107974,0.1328915 0.149503,0.2907002 0.132892,0.473426 0,0.2408659 0,0.4817318 0,0.7309034 0,0.2574773 -0.04153,0.4900375 -0.116281,0.6893748 0,0.1162801 0.02492,0.2159487 0.07475,0.3073116 0.04153,0.083057 0.08306,0.1827259 0.11628,0.2740888 z"
         id="path300" />
      <path
         d="m 25.654167,5.1989038 0.556483,-0.415286 c 0.124586,-0.05814 0.240866,-0.1162801 0.348841,-0.1744201 0.107974,-0.05814 0.207643,-0.1328915 0.307311,-0.2159487 l 0.05814,-0.091363 h 0.06645 l 0.938546,-0.6063176 0.440204,-0.4568146 h 0.06644 l 0.215949,-0.1910315 v -0.05814 l 0.09967,-0.033223 C 28.934927,2.7653278 29.109347,2.5826019 29.25885,2.3832646 29.416658,2.1839273 29.541244,1.9762843 29.624301,1.7520299 V 1.6440555 h -0.06644 v -0.024917 h -0.02492 c -0.107975,0.1495029 -0.232561,0.2990059 -0.365452,0.4402031 -0.141197,0.1578087 -0.282395,0.299006 -0.415286,0.4235918 v 0.05814 c -0.531566,0.415286 -1.054827,0.7890435 -1.603004,1.1378837 -0.539872,0.3488403 -1.112967,0.6312348 -1.72759,0.8471835 -0.03322,0.024917 -0.07475,0.033223 -0.11628,0.033223 -0.04153,0 -0.07475,0.024917 -0.09136,0.083057 l -0.215949,0.091363 0.274089,0.1827258 0.149503,0.091363 0.09967,0.1661144 z M 26.775439,1.5859155 26.958165,1.569304 27.12428,1.4198011 26.958165,1.0543494 26.335236,0.86331781 26.119287,0.68889769 25.86181,0.63906337 h -0.06645 v 0.0747515 l -0.03322,0.0913629 v 0.14119725 c 0.107975,0.10797438 0.232561,0.19933728 0.348841,0.26578308 0.124586,0.066446 0.249171,0.1495029 0.34884,0.265783 z"
         id="path302" />
    </g>
  </g>
</svg>
