<?xml version="1.0" encoding="UTF-8" standalone="no"?>
<!-- Created with Inkscape (http://www.inkscape.org/) -->

<svg
   width="45mm"
   height="7mm"
   viewBox="0 0 45 7"
   version="1.1"
   id="svg5"
   inkscape:version="1.2.2 (b0a8486, 2022-12-01)"
   sodipodi:docname="mapsearchLOGO.svg"
   xmlns:inkscape="http://www.inkscape.org/namespaces/inkscape"
   xmlns:sodipodi="http://sodipodi.sourceforge.net/DTD/sodipodi-0.dtd"
   xmlns="http://www.w3.org/2000/svg"
   xmlns:svg="http://www.w3.org/2000/svg">
  <sodipodi:namedview
     id="namedview7"
     pagecolor="#ffffff"
     bordercolor="#000000"
     borderopacity="0.25"
     inkscape:showpageshadow="2"
     inkscape:pageopacity="0.0"
     inkscape:pagecheckerboard="0"
     inkscape:deskcolor="#d1d1d1"
     inkscape:document-units="mm"
     showgrid="false"
     inkscape:zoom="4.7488465"
     inkscape:cx="94.654565"
     inkscape:cy="36.745766"
     inkscape:window-width="1440"
     inkscape:window-height="771"
     inkscape:window-x="1080"
     inkscape:window-y="1616"
     inkscape:window-maximized="0"
     inkscape:current-layer="layer1" />
  <defs
     id="defs2">
    <rect
       x="-1.8951972"
       y="4.0009718"
       width="213.31496"
       height="77.703079"
       id="rect268" />
  </defs>
  <g
     inkscape:label="Layer 1"
     inkscape:groupmode="layer"
     id="layer1">
    <path
       style="fill:none;fill-rule:evenodd;stroke:#000000;stroke-width:0.21864px;stroke-linecap:butt;stroke-linejoin:miter;stroke-opacity:1"
       d="m 4.4186655,7.736698 v 0"
       id="path208"
       inkscape:connector-type="polyline"
       inkscape:connector-curvature="0" />
    <text
       xml:space="preserve"
       style="font-size:8.85995px;font-family:KouzanBrushFontGyousyoOTF;-inkscape-font-specification:KouzanBrushFontGyousyoOTF;fill:#000000;stroke-width:0.166124"
       x="-1.3619121"
       y="8.4681635"
       id="text214"
       transform="scale(0.67763293,1.4757252)"><tspan
         sodipodi:role="line"
         id="tspan212"
         style="stroke-width:0.166124"
         x="-1.3619121"
         y="8.4681635" /></text>
    <text
       xml:space="preserve"
       transform="scale(0.26458333)"
       id="text266"
       style="font-size:53.3333px;font-family:KouzanBrushFontGyousyoOTF;-inkscape-font-specification:KouzanBrushFontGyousyoOTF;white-space:pre;shape-inside:url(#rect268);display:inline;fill:#000000" />
    <g
       aria-label="マップから検索"
       transform="scale(0.9090048,1.1001042)"
       id="text932"
       style="font-size:7.43295px;font-family:KouzanBrushFontGyousyoOTF;-inkscape-font-specification:KouzanBrushFontGyousyoOTF;stroke-width:0.139366">
      <path
         d="M 3.2532685,4.940642 3.6397819,4.8291477 3.5282876,4.5838604 C 3.1863719,4.2122129 2.7924256,3.9594926 2.3538815,3.8256995 1.9079045,3.6919064 1.4619275,3.5729792 1.0159505,3.4614849 H 0.88959037 v 0.014866 C 1.0605482,3.6473087 1.238939,3.7811018 1.4544946,3.9074619 1.6626172,4.0263891 1.8633068,4.1304504 2.0714294,4.2196458 L 2.4207781,4.4797991 C 2.5471382,4.5838604 2.6809313,4.6730558 2.8147244,4.7622512 2.9559505,4.8588795 3.0971765,4.9183431 3.2532685,4.940642 Z M 2.3241497,3.6101439 2.6289007,3.5283815 2.7552608,3.3871554 2.9708164,3.3351248 C 3.1863719,3.2533623 3.3573298,3.1121363 3.4911229,2.9188796 3.617483,2.7256229 3.7810079,2.5843968 3.9891305,2.5026344 V 2.4580367 L 4.3459121,2.3614083 4.3756439,2.257347 4.4871382,2.2127493 4.4574064,2.0863892 4.3756439,2.0194926 C 4.2269849,1.9154313 4.06346,1.8336689 3.9073681,1.7593394 3.7364102,1.6850099 3.5728853,1.6106804 3.4019275,1.5437838 h -0.029732 v 0.081763 C 2.9187857,1.7593394 2.4505099,1.8634007 1.9970999,1.9525961 1.5288241,2.0417915 1.0679812,2.1458528 0.59970532,2.257347 l -0.25272031,-0.044598 -0.1783908,0.066897 -0.0222988,0.1040613 h -0.0743295 l 0.0743295,0.052031 v 0.066897 l 0.0966283,0.1040613 0.0445977,0.022299 0.0594636,0.096628 h 0.0520307 v 0.044598 l 0.12636015,0.07433 C 0.90445627,2.7330558 1.2835367,2.6215616 1.6626172,2.5100673 2.0342647,2.413439 2.4133451,2.3168106 2.8147244,2.2350482 h 0.07433 C 2.7998585,2.4506037 2.7180961,2.6587263 2.6363336,2.8668489 2.5471382,3.0749715 2.4430769,3.2830941 2.3241497,3.4763508 h -0.052031 l -0.029732,0.052031 h 0.141226 l -0.059464,0.052031 z"
         id="path294" />
      <path
         d="M 9.0583881,6.0630174 C 9.221913,5.9217914 9.3928709,5.8177301 9.5712617,5.7359676 9.7570854,5.6542052 9.9206103,5.5575768 10.091568,5.4535155 10.388886,5.1041669 10.641606,4.7399523 10.842296,4.3534389 11.050419,3.9743585 11.22881,3.5878451 11.384901,3.1864658 c 0,-0.066897 0,-0.1263602 0,-0.1858238 0,-0.052031 -0.01486,-0.1114942 -0.0446,-0.1635249 -0.08176,-0.037165 -0.163525,-0.07433 -0.245288,-0.1189272 -0.08176,-0.044598 -0.156092,-0.1189272 -0.222988,-0.2155555 h -0.0223 c 0.01487,0.044598 0.01487,0.081762 0.0074,0.1189272 -0.01487,0.037165 -0.0446,0.066896 -0.08176,0.089195 l 0.03716,0.081762 c 0,0.3121839 -0.0446,0.594636 -0.148659,0.8622222 C 10.552411,3.9223278 10.455783,4.1750481 10.344288,4.4277684 10.203062,4.7399523 10.024672,5.0298374 9.816549,5.3048565 9.5935605,5.5798757 9.3408402,5.8400289 9.0583881,6.0630174 Z M 8.7908019,3.7588029 8.9840586,3.6919064 8.924595,3.3797225 H 8.8874303 C 8.8725644,3.3425577 8.8502655,3.3128259 8.8205337,3.2756612 8.783369,3.2384964 8.7685031,3.1938987 8.7685031,3.1418681 L 8.6718747,3.1641669 8.3596908,3.0378068 H 8.329959 l 0.052031,0.3567816 0.059464,0.059464 h 0.044598 v 0.037165 h 0.037165 v 0.037165 h 0.037165 l 0.089195,0.1635249 z M 9.6455912,3.5729792 9.8983115,3.3945884 c 0,-0.059464 -0.00743,-0.1189272 -0.022299,-0.1783908 C 9.8611467,3.156734 9.8462808,3.1047033 9.823982,3.0601056 9.7570854,2.9783432 9.675323,2.9263125 9.5861276,2.9040137 9.4969322,2.8817148 9.4151697,2.8445501 9.3334073,2.7925194 h -0.059464 c 0.014866,0.1114943 0.044598,0.2155556 0.089195,0.304751 0.044598,0.096628 0.1040613,0.1858237 0.1709578,0.2824521 l 0.07433,0.037165 0.037165,0.1337931 z"
         id="path296" />
      <path
         d="M 16.023048,5.3271554 C 16.201439,5.2007952 16.364964,5.0595692 16.535922,4.9257761 16.692013,4.78455 16.848105,4.6284581 16.989331,4.4500673 l 0.05203,-0.081762 0.0892,-0.022299 c 0.148659,-0.1858238 0.25272,-0.3865134 0.327049,-0.6169349 0.07433,-0.2229885 0.170958,-0.4236781 0.312184,-0.6243678 h 0.05946 c 0.08176,-0.1709578 0.170958,-0.3419157 0.267586,-0.4980076 0.09663,-0.156092 0.178391,-0.3270498 0.267586,-0.5054406 l 0.163525,-0.022299 V 1.9451631 h 0.104061 l -0.08176,-0.3121839 c -0.0892,-0.089195 -0.185824,-0.148659 -0.297318,-0.1858237 -0.104061,-0.037165 -0.20069,-0.074329 -0.297318,-0.1189272 h -0.02973 v 0.022299 L 17.5914,1.3282283 h -0.0892 l -0.0223,0.1783908 c -0.475709,0.059464 -0.943984,0.1337931 -1.434559,0.2006896 -0.483142,0.074329 -0.943985,0.1709579 -1.397395,0.3121839 0.0892,0.096628 0.185824,0.148659 0.297318,0.1858238 0.111494,0.037165 0.20069,0.074329 0.289885,0.1263601 0.386514,0 0.743295,-0.052031 1.085211,-0.1635249 0.341916,-0.096628 0.676398,-0.1932567 1.025747,-0.2750191 h 0.104061 l 0.05203,0.1858237 C 17.375845,2.6438604 17.190021,3.2013317 16.952167,3.75137 16.706879,4.3088412 16.394695,4.8217148 16.023048,5.3048565 Z m 3.09954,-3.6421455 0.133793,-0.052031 0.05203,-0.1783908 c 0.09663,0 0.170958,-0.022299 0.245287,-0.066896 0.0669,-0.037165 0.141226,-0.081763 0.208123,-0.1189272 0.0223,-0.081762 0.0223,-0.1709579 -0.0074,-0.2527203 -0.0223,-0.0817625 -0.05946,-0.14865902 -0.09663,-0.21555557 l -0.237855,-0.1040613 -0.542605,0.0371647 -0.05203,0.24528735 0.0223,0.39394637 c 0.03717,0.052031 0.08176,0.1114942 0.118927,0.1635249 0.03717,0.066897 0.0892,0.1114942 0.156092,0.148659 z m 0.215556,-0.2898851 -0.02973,0.037165 -0.07433,-0.1858238 -0.111494,0.081762 -0.133793,-0.037165 0.08176,-0.43111107 0.297318,0.0445977 0.08176,0.11149427 c 0,0.066897 -0.0074,0.141226 -0.01487,0.2006896 -0.0074,0.074329 -0.0446,0.1337931 -0.09663,0.1783908 z"
         id="path298" />
      <path
         d="m 23.909394,5.2230941 0.118927,-0.089195 c 0,-0.4311111 0.0669,-0.8250575 0.222988,-1.196705 0.148659,-0.3716475 0.289885,-0.7507279 0.445977,-1.1223754 0,-0.1635249 0,-0.3493487 0,-0.5351724 0,-0.1783908 -0.0446,-0.3419157 -0.141226,-0.4682759 -0.133793,-0.074329 -0.275019,-0.1189272 -0.431111,-0.1263601 -0.156092,-0.00743 -0.32705,-0.014866 -0.490574,-0.014866 -0.0223,-0.1337931 -0.0223,-0.2675862 -0.01487,-0.4236782 0.0074,-0.148659 -0.0223,-0.26758617 -0.09663,-0.35678157 L 23.299892,1.0011785 c -0.08176,0.1337931 -0.133793,0.2750191 -0.163525,0.4311111 -0.03717,0.1560919 -0.08176,0.3121839 -0.118927,0.4608429 -0.156092,0.074329 -0.297318,0.1560919 -0.445977,0.2378544 -0.148659,0.081762 -0.297318,0.1635249 -0.445977,0.2378544 l -0.111495,0.1114942 h -0.0892 l -0.304751,0.2824521 v 0.052031 h 0.334483 l 0.05946,0.1114942 c 0.148659,-0.037165 0.282453,-0.096628 0.408813,-0.1783908 0.118927,-0.081762 0.245287,-0.1560919 0.371647,-0.2155555 h 0.05946 l -0.111494,0.8473563 c 0,0.1040613 0.0074,0.2155555 0.01487,0.3121839 0.0074,0.1040613 0.02973,0.2081226 0.0669,0.3047509 l 0.163525,0.07433 c 0.03716,-0.297318 0.08176,-0.6020689 0.133793,-0.9142528 0.0446,-0.304751 0.08176,-0.602069 0.118927,-0.899387 l 0.20069,-0.089195 h 0.05203 l -0.05203,1.1521073 c 0,0.2378544 -0.0074,0.4757088 -0.01487,0.7061302 -0.0074,0.2378544 0.0446,0.445977 0.178391,0.6318008 v 0.1114942 h -0.05946 l 0.05946,0.148659 0.05946,0.014866 0.08176,0.2006897 z m 0,-0.899387 -0.0223,0.029732 -0.111494,-0.029732 -0.111495,-0.4757088 v -1.783908 l 0.245288,-0.089195 0.148659,0.029732 c 0.0669,0.1337931 0.111494,0.2750192 0.133793,0.4385441 0.0223,0.1560919 0.03716,0.3196168 0.05946,0.4831417 -0.0223,0.2378544 -0.05946,0.4757088 -0.12636,0.7135632 -0.05946,0.2378544 -0.133793,0.4608429 -0.215555,0.6838314 z m 3.894865,-1.5609195 0.104062,-0.081762 v -0.089195 h 0.05946 v 0.059464 l -0.02973,-0.1932567 h -0.02973 v -0.089195 h -0.05946 V 2.257347 h -0.0446 v 0.059464 l -0.02973,-0.1337931 h -0.05946 V 2.1235539 L 27.35085,1.7890712 C 27.187325,1.6924428 27.016367,1.5958145 26.837976,1.521485 26.652152,1.4397225 26.473761,1.3579601 26.295371,1.2761976 l 0.973716,0.9811494 v 0.1189272 l -0.312184,0.2452874 v 0.029732 l 0.0892,-0.029732 c 0.156092,0 0.282452,0.029732 0.408812,0.081762 0.118927,0.059464 0.25272,0.096628 0.408812,0.1189272 z m -4.363141,-0.9737164 -0.02973,0.029732 -0.0223,-0.029732 0.0223,-0.3642146 h 0.05946 z"
         id="path300" />
      <path
         d="m 32.457272,5.9440902 0.01487,-0.044598 0.148659,-0.044598 h 0.07433 v 0.044598 L 33.364092,5.3717531 33.557348,4.933209 c 0,-0.089195 0,-0.1858237 0,-0.2824521 0,-0.089195 -0.03716,-0.1635249 -0.104061,-0.2229885 -0.07433,-0.096628 -0.178391,-0.1709578 -0.289885,-0.2229885 -0.104061,-0.052031 -0.215555,-0.089195 -0.32705,-0.1189272 -0.334482,0 -0.646666,0.059464 -0.929118,0.1709579 -0.282453,0.1114942 -0.572338,0.2229885 -0.85479,0.3344827 -0.0446,0 -0.09663,0.00743 -0.156092,0.014866 -0.0669,0.00743 -0.118927,-0.00743 -0.148659,-0.059464 0.01487,-0.438544 0.0669,-0.8547892 0.148659,-1.2487356 0.07433,-0.4013793 0.178391,-0.7953256 0.304751,-1.181839 l -0.07433,-0.4385441 c -0.12636,0.4088123 -0.245288,0.8101916 -0.364215,1.2115709 -0.12636,0.4088122 -0.200689,0.8250574 -0.237854,1.2636015 0,0.148659 0.0074,0.2750191 0.01487,0.4013793 0.0074,0.1189272 0.05946,0.2378544 0.133793,0.3567816 l 0.0446,0.022299 c 0.133793,0.014866 0.25272,0.00743 0.37908,-0.00743 0.118927,-0.022299 0.230421,-0.044598 0.341916,-0.059464 v -0.052031 c 0.193256,-0.066896 0.393946,-0.148659 0.587203,-0.2304214 0.193256,-0.089195 0.393946,-0.1635249 0.594636,-0.2155556 l 0.334483,0.059464 0.0223,0.1189272 c 0,0.2601533 -0.0446,0.5054406 -0.141226,0.7358621 -0.08919,0.2452873 -0.222988,0.4534099 -0.37908,0.6466666 z m -0.639234,-4.5340995 0.304751,-0.022299 c 0.0223,-0.081763 0.01487,-0.156092 -0.01487,-0.2155556 -0.03717,-0.066896 -0.08176,-0.1337931 -0.133793,-0.20068962 -0.08176,-0.0743295 -0.156092,-0.1337931 -0.25272,-0.1783908 -0.09663,-0.0371648 -0.193257,-0.0966284 -0.282452,-0.17095785 h -0.0446 c 0.09663,0.0891954 0.178391,0.1783908 0.267586,0.2675862 0.08176,0.0817625 0.148659,0.18582377 0.193257,0.30475097 l -0.0669,0.1932567 z"
         id="path302" />
      <path
         d="m 37.719788,6.0853163 0.05203,-0.037165 c -0.05203,-0.2229885 -0.0892,-0.4608429 -0.118927,-0.7061302 -0.03717,-0.2452874 -0.0669,-0.4831418 -0.09663,-0.7209962 -0.0223,-0.3047509 0.0446,-0.5649042 0.208123,-0.7804597 0.170958,-0.2081226 0.304751,-0.4385441 0.431111,-0.6763985 h 0.03716 l 0.0669,-0.096628 v -0.156092 h -0.01487 l -0.237854,0.2527203 c -0.05946,0.081762 -0.133793,0.156092 -0.208123,0.2229885 -0.07433,0.081762 -0.12636,0.1635249 -0.178391,0.2452874 h -0.0446 c 0.0223,-0.2081226 0.03717,-0.4088123 0.05946,-0.602069 0.0223,-0.2006896 0.0446,-0.3865134 0.0892,-0.5723371 l 0.490574,-0.2675862 -0.01487,-0.044598 0.05203,-0.1412261 v -0.014866 h -0.05203 v -0.052031 h -0.03716 l 0.0074,-0.066897 -0.02973,0.014866 c -0.0446,-0.022299 -0.09663,-0.029732 -0.148659,-0.022299 -0.05946,0.014866 -0.111494,0.00743 -0.156092,-0.029732 l 0.05203,-0.2527203 -0.01487,-0.1114943 0.01487,-0.066896 -0.01487,-0.066897 0.01487,-0.2006896 v -0.052031 h -0.03717 l -0.03717,-0.17839077 c -0.09663,-0.0520306 -0.178391,-0.1040613 -0.260153,-0.148659 -0.0892,-0.0445977 -0.170958,-0.1040613 -0.245287,-0.1783908 h -0.05203 c 0.05946,0.1189272 0.111494,0.2378544 0.141226,0.3567816 0.03716,0.12636017 0.07433,0.25272027 0.118927,0.37164747 -0.0074,0.096628 -0.01487,0.1858238 -0.0223,0.2750192 -0.0074,0.096628 -0.0223,0.1858237 -0.05946,0.2601532 l 0.0223,0.089195 v 0.1337931 l -0.126361,-0.029732 h -0.03716 l -0.170958,0.2006897 -0.01487,0.029732 c -0.156092,0.1114942 -0.32705,0.1858237 -0.505441,0.2081226 -0.17839,0.037165 -0.356781,0.07433 -0.535172,0.1189272 l -0.01487,0.037165 0.08176,0.037165 0.05203,0.141226 0.08176,0.037165 -0.0074,0.037165 c 0.0446,0.037165 0.0892,0.074329 0.133793,0.1189272 0.03716,0.044598 0.08176,0.066897 0.133793,0.066897 l 0.193257,-0.066897 0.02973,-0.081762 0.163525,-0.029732 0.0074,-0.037165 0.12636,-0.052031 h 0.0223 c -0.0446,0.289885 -0.09663,0.587203 -0.163525,0.8696551 -0.0669,0.2898851 -0.141226,0.5723372 -0.215555,0.8473563 l -0.104062,0.1040613 -0.08176,0.1263602 0.0074,0.1263601 0.156092,0.029732 v 0.029732 l 0.05203,0.022299 v 0.037165 h 0.02973 v 0.029732 l 0.133793,0.1412261 0.118928,-0.037165 c 0.05946,-0.1263601 0.111494,-0.2452873 0.163525,-0.3790804 0.05203,-0.1263602 0.111494,-0.2452874 0.17839,-0.3642146 h 0.02973 l 0.08176,1.1744061 -0.03717,0.089195 -0.215556,-0.1114942 h -0.03716 v 0.022299 h -0.01487 l 0.133793,0.2229885 0.08919,0.037165 z m 1.077778,-0.156092 0.215555,-0.1114942 0.03717,-0.052031 0.03717,-0.052031 0.05203,-0.022299 c 0.02973,-0.029732 0.05946,-0.059464 0.09663,-0.081762 0.02973,-0.022299 0.0446,-0.059464 0.0446,-0.096628 h 0.02973 c 0.141226,-0.2081226 0.252721,-0.4162452 0.341916,-0.6392337 0.09663,-0.2229885 0.170958,-0.445977 0.230422,-0.6838314 h 0.0223 v -0.029732 l 0.334483,-0.141226 v -0.022299 h 0.03716 c 0.03717,-0.066896 0.08176,-0.1337931 0.133793,-0.1932567 0.05203,-0.052031 0.111494,-0.1040613 0.178391,-0.141226 l 0.02973,-0.066897 0.05203,-0.029732 0.118927,-0.2452873 h 0.0446 l 0.0223,-0.052031 0.148659,0.022299 0.07433,-0.022299 0.07433,-0.081762 0.05203,-0.089195 v -0.07433 C 41.086914,2.9709102 40.967987,2.9337455 40.841627,2.9114466 40.7227,2.8891478 40.603773,2.8371171 40.499711,2.7627876 l -0.156092,0.029732 -0.01486,0.066897 -0.460843,0.1560919 -0.05203,-0.022299 -0.01487,-0.066897 -0.312184,-0.1114942 -0.185824,0.037165 0.0223,0.1040613 v 0.052031 l -0.07433,0.029732 -0.05203,0.081762 0.148659,0.3270498 0.09663,0.052031 0.0223,0.1189272 -0.0074,0.3865134 -0.215555,0.059464 h -0.07433 l -0.05203,-0.059464 C 39.020554,3.9148949 38.931359,3.8331324 38.819865,3.7662359 38.70837,3.6993393 38.604309,3.6398757 38.500248,3.5729792 h -0.0669 c 0.0669,0.1114942 0.133793,0.2155555 0.20069,0.3270498 0.05946,0.1040613 0.118927,0.2229885 0.178391,0.3344827 l 0.25272,0.2155556 h 0.01487 v -0.014866 l 0.08919,-0.037165 v -0.029732 l 0.185824,-0.037165 h 0.03716 c -0.03716,0.2452873 -0.09663,0.4682758 -0.170958,0.6912643 -0.08919,0.2229885 -0.208123,0.4311111 -0.349349,0.6243678 l -0.222988,0.1412261 0.05946,0.1040613 z m 3.277931,0.00743 h 0.01487 l -0.111495,-0.096628 v -0.037165 l 0.05203,0.014866 h 0.01487 c -0.0074,-0.037165 -0.02973,-0.059464 -0.05203,-0.066897 -0.02973,-0.00743 -0.05946,-0.022299 -0.09663,-0.037165 l -0.08176,-0.1189272 v -0.029732 l 0.118927,0.081762 -0.01487,-0.029732 v -0.052031 l 0.118927,0.014866 0.0446,0.089195 0.05203,0.029732 h 0.02973 c 0.01487,-0.044598 0.01487,-0.081762 0,-0.1114943 -0.0223,-0.029732 -0.0446,-0.044598 -0.08176,-0.066897 v -0.052031 h 0.02973 c 0.0223,-0.014866 0.03716,-0.029732 0.0446,-0.044598 0.0074,-0.014866 0.0074,-0.037165 0.0074,-0.059464 h 0.0223 v -0.014866 h -0.0223 v 0.029732 l -0.12636,-0.1040613 v -0.029732 l 0.05946,0.014866 h 0.03716 l -0.0223,-0.029732 -0.09663,-0.066897 c -0.0669,-0.037165 -0.12636,-0.07433 -0.193256,-0.1189272 -0.0669,-0.044598 -0.126361,-0.07433 -0.208123,-0.089195 V 4.933209 L 40.878792,4.6804887 h -0.09663 c 0.104061,0.156092 0.222988,0.2898851 0.341915,0.4311111 0.111494,0.1337931 0.237855,0.2675862 0.371648,0.3790805 l 0.05203,0.00743 0.01487,0.052031 c 0.0223,0.014866 0.05203,0.044598 0.08176,0.07433 0.0223,0.029732 0.05203,0.044598 0.0892,0.044598 l 0.03717,0.081762 0.156092,0.052031 0.0669,0.081762 z m -5.024674,-1.6278161 -0.01487,0.00743 -0.01487,-0.00743 c 0.0446,-0.1932567 0.0892,-0.3716475 0.156092,-0.5500383 0.0669,-0.1709578 0.141226,-0.3493486 0.230421,-0.5203065 h 0.02973 l -0.01487,0.052031 0.01487,0.1040613 -0.01487,0.2229885 0.01487,0.081762 c 0,0.066897 -0.01487,0.1337931 -0.02973,0.1932567 -0.0223,0.066897 -0.05946,0.1114943 -0.104061,0.156092 h -0.03716 v 0.037165 h -0.02973 z m 2.980613,-0.6169348 -0.01487,0.00743 -0.104062,-0.022299 -0.0223,-0.089195 0.0074,-0.304751 0.260154,-0.07433 h 0.03716 z m -1.650115,-0.304751 h 0.01487 c 0.111494,-0.2750191 0.230421,-0.5426053 0.341915,-0.7953256 0.111494,-0.2527203 0.252721,-0.4980077 0.438544,-0.750728 h 0.03717 c 0.03717,-0.059464 0.07433,-0.1337931 0.12636,-0.2006896 0.05203,-0.066897 0.104062,-0.1189272 0.156092,-0.1783908 l 0.03717,-0.052031 h 0.02973 l 0.02973,-0.052031 0.05203,0.00743 0.386514,0.4385441 h 0.03716 v 0.029732 l 0.156092,0.1189272 v 0.037165 c 0.260154,0.2006897 0.52774,0.3716475 0.810192,0.5054406 0.282452,0.1412261 0.572337,0.2452874 0.884521,0.3121839 h 0.118927 l -0.01487,-0.044598 -0.05203,-0.022299 V 2.710757 L 41.451129,2.413439 V 2.3837072 C 41.257872,2.2796459 41.072049,2.1755846 40.886225,2.0789562 40.707834,1.9748949 40.536876,1.8411018 40.388217,1.6850099 L 40.187528,1.4843202 h -0.03717 l -0.0669,-0.1337931 -0.0669,-0.066897 -0.0892,-0.037165 -0.01487,-0.059464 h -0.01487 v -0.037165 h 0.01487 l 0.01487,-0.15609197 v -0.0297318 l -0.460843,-0.0891954 -0.0669,0.0148659 -0.148659,-0.0520306 -0.0669,0.0222988 -0.02973,0.0445977 v 0.0148659 h 0.01487 C 39.042853,1.3207953 38.916493,1.7296076 38.775267,2.1458528 38.634041,2.554665 38.500248,2.9709102 38.381321,3.3871554 Z m 0.951417,-0.6020689 c 0.12636,-0.022299 0.252721,-0.037165 0.386514,-0.059464 0.12636,-0.022299 0.245287,-0.059464 0.356781,-0.1189272 l 0.01487,-0.052031 0.07433,-0.052031 0.05946,-0.148659 v -0.029732 l -0.37908,-0.052031 h -0.208123 v 0.052031 l -0.03717,-0.00743 -0.0223,0.081762 -0.602069,0.2378544 v 0.029732 l 0.0669,0.07433 z"
         id="path304" />
      <path
         d="m 46.854867,6.2860059 c 0.02973,-0.014866 0.05946,-0.022299 0.0892,-0.022299 0.02973,-0.00743 0.05203,-0.022299 0.0669,-0.052031 0.0074,-0.2229885 0.01487,-0.4608429 0.0223,-0.6986973 0,-0.2452873 0,-0.4757088 -0.0074,-0.7061302 -0.0074,-0.066897 0,-0.1337931 0.0223,-0.1858238 0.01487,-0.059464 0.0446,-0.1114942 0.09663,-0.1560919 0.01487,-0.037165 0.0223,-0.081762 0.01487,-0.1263602 -0.0074,-0.029732 -0.02973,-0.066897 -0.05946,-0.1040613 l 0.0223,-0.066896 0.327049,-0.1709579 v -0.029732 l 0.0892,-0.029732 h 0.01487 l -0.01487,0.052031 -0.245287,0.141226 v 0.029732 h 0.163524 l 0.09663,0.022299 c 0.0892,-0.00743 0.185824,-0.014866 0.289885,-0.014866 0.09663,0.00743 0.185824,0 0.275019,-0.014866 l 0.0074,-0.037165 h 0.03716 l 0.01487,-0.044598 c -0.0074,-0.066897 -0.0223,-0.1263601 -0.05946,-0.1783908 -0.03716,-0.052031 -0.07433,-0.1114942 -0.111494,-0.1709578 h -0.03716 l -0.0074,-0.044598 -0.141226,-0.1189272 -0.0074,-0.052031 c -0.0669,-0.052031 -0.141226,-0.1040613 -0.20069,-0.141226 -0.0669,-0.044598 -0.141226,-0.066897 -0.222988,-0.07433 l 0.05203,-0.2155556 0.05946,-0.014866 -0.05946,-0.141226 -0.245288,-0.059464 -0.237854,-0.022299 -0.05203,0.089195 c -0.07433,0.07433 -0.156092,0.1337931 -0.237854,0.1783908 -0.0892,0.052031 -0.178391,0.096628 -0.260154,0.1337931 h -0.02973 c 0.0074,-0.037165 0.01487,-0.066896 0.0446,-0.096628 0.02973,-0.022299 0.0446,-0.052031 0.0446,-0.081762 h 0.05203 l 0.0074,-0.052031 0.03716,0.00743 0.133794,-0.3121839 c 0.0074,-0.066896 0,-0.1337931 -0.01487,-0.2006896 -0.0223,-0.059464 -0.05203,-0.1263602 -0.07433,-0.1858238 h -0.03717 V 2.2796459 L 46.371726,2.1458528 h -0.05203 l 0.08176,0.1709578 c -0.0446,0.156092 -0.111495,0.3121839 -0.193257,0.45341 -0.08176,0.1560919 -0.178391,0.3047509 -0.297318,0.438544 l -0.0669,0.037165 -0.07433,0.089195 v 0.066896 L 46.000078,3.75137 c 0.08176,-0.014866 0.148659,-0.037165 0.230422,-0.066897 0.07433,-0.029732 0.148659,-0.066896 0.215555,-0.1040613 l 0.0074,-0.037165 0.05203,-0.014866 0.01487,-0.044598 0.111494,-0.059464 h 0.02973 c -0.0669,0.1560919 -0.156092,0.289885 -0.260153,0.4162452 -0.104062,0.1263601 -0.215556,0.2452873 -0.319617,0.3716475 l -0.12636,0.052031 c -0.03717,-0.00743 -0.05946,-0.00743 -0.0669,0.014866 -0.01487,0.022299 -0.02973,0.037165 -0.03717,0.059464 l 0.118927,0.3790805 0.05203,-0.052031 0.0669,-0.044598 0.520306,-0.2155555 h 0.02973 c 0.02973,0.2155555 0.05203,0.4311111 0.05946,0.6540996 0.01487,0.2229885 0.0223,0.445977 0.02973,0.6689655 l -0.02973,0.089195 -0.118928,0.052031 c -0.111494,-0.00743 -0.208122,-0.029732 -0.304751,-0.074329 -0.09663,-0.044598 -0.193256,-0.096628 -0.282452,-0.148659 l 0.05203,0.1412261 c 0.133793,0.07433 0.275019,0.1635249 0.393946,0.2601532 0.12636,0.089195 0.260154,0.1635249 0.416245,0.2378544 z m -1.53862,-0.7730268 0.163525,-0.029732 0.0074,-0.052031 0.193256,-0.052031 v -0.037165 l 0.05203,-0.014866 v -0.022299 l -0.104061,0.029732 -0.208123,-0.029732 -0.01487,-0.089195 C 45.293948,5.1784964 45.19732,5.1264657 45.115557,5.0744351 45.026362,5.0224044 44.9223,4.9778067 44.818239,4.9480749 h -0.05203 l 0.0669,0.2229885 c 0.05946,0.074329 0.141226,0.1412261 0.222989,0.2081226 0.08176,0.066897 0.163524,0.1114943 0.260153,0.1337931 z m 3.530651,0.1635249 h 0.01487 l -0.03717,-0.052031 0.0074,-0.052031 h 0.03717 V 5.535278 l 0.118927,0.089195 h 0.0223 l 0.0074,-0.014866 -0.07433,-0.044598 0.0446,-0.059464 0.104061,0.014866 v 0.014866 l -0.0223,-0.059464 -0.05946,-0.029732 v -0.037165 l -0.01487,-0.00743 v -0.029732 l 0.0669,0.00743 0.03716,0.059464 0.0223,0.014866 0.05946,-0.00743 v -0.07433 l -0.07433,-0.07433 -0.07433,-0.1337931 v -0.052031 h 0.03717 l 0.0074,-0.029732 C 48.943526,4.9926726 48.8023,4.933209 48.638775,4.9109102 48.475251,4.8886113 48.319159,4.8514466 48.1705,4.7994159 l -0.245288,-0.014866 -0.0074,0.066897 -0.07433,-0.00743 0.282452,0.2898851 0.07433,0.037165 0.01487,0.052031 0.185824,0.148659 0.05203,0.037165 0.104061,0.1858238 0.0074,-0.044598 0.08176,-0.00743 0.0892,0.00743 0.07433,0.1040613 z m -2.058927,-1.6724137 -0.05203,0.022299 h -0.02973 c 0.01487,-0.044598 0.0446,-0.089195 0.09663,-0.1263601 0.0446,-0.037165 0.07433,-0.081762 0.09663,-0.1412261 l 0.02973,0.00743 v -0.029732 l 0.05946,-0.037165 0.118927,-0.1709578 0.02973,0.00743 0.0223,-0.037165 0.05203,-0.00743 0.111494,-0.1189272 h 0.0446 l 0.156092,0.1932567 -0.0074,0.029732 -0.05203,0.022299 0.0074,0.07433 h 0.05203 v 0.052031 c -0.12636,0.022299 -0.245287,0.059464 -0.371648,0.1040613 -0.12636,0.052031 -0.245287,0.1040613 -0.364214,0.156092 z m -1.709579,-0.743295 0.0669,-0.014866 -0.0446,-0.2378544 0.0223,-0.052031 c 0.0074,-0.1040613 0.01487,-0.1932567 0.0223,-0.289885 0.0074,-0.096628 -0.01487,-0.1783908 -0.08176,-0.2452874 -0.03717,-0.052031 -0.0892,-0.096628 -0.141227,-0.1337931 -0.05203,-0.037165 -0.104061,-0.07433 -0.170957,-0.1040613 l 0.03716,0.148659 -0.07433,0.3196169 -0.07433,-0.00743 -0.03716,0.052031 0.0074,0.096628 0.230421,0.3196169 0.12636,0.066896 v 0.037165 z m 3.389426,-0.8324904 c 0.08919,-0.022299 0.17839,-0.052031 0.260153,-0.089195 0.08176,-0.037165 0.156092,-0.066897 0.25272,-0.089195 v -0.029732 h 0.05203 v -0.022299 l 0.156092,-0.029732 0.118927,0.022299 0.193257,-0.029732 c 0.01487,-0.029732 0.01487,-0.052031 -0.0074,-0.066897 -0.01487,-0.00743 -0.03716,-0.022299 -0.05946,-0.037165 l -0.0223,-0.1189272 C 49.270576,1.8411018 49.121917,1.7890712 48.958392,1.7667723 48.794867,1.7444735 48.631343,1.7073087 48.482684,1.662711 48.133335,1.6032474 47.791419,1.5958145 47.464369,1.6478451 47.13732,1.6998758 46.81027,1.7519064 46.48322,1.8039371 h -0.03717 l 0.0669,-0.044598 0.32705,-0.3419157 c 0.17839,-0.07433 0.371647,-0.1412261 0.550038,-0.1932567 0.185824,-0.044598 0.356781,-0.096628 0.527739,-0.1635249 l 0.104062,-0.059464 -0.02973,-0.0891954 -0.05203,-0.007433 -0.104061,-0.11149425 c -0.08176,-0.0520307 -0.178391,-0.0891954 -0.282452,-0.11149425 -0.111494,-0.0148659 -0.222989,-0.0371648 -0.312184,-0.0594636 l -0.0669,0.007433 -0.05203,-0.0222988 -0.05946,-0.1040613 c -0.05946,-0.1040613 -0.133793,-0.1932567 -0.222988,-0.2675862 -0.09663,-0.0743295 -0.178391,-0.148659 -0.267587,-0.23042145 h -0.0223 c 0.03716,0.1337931 0.05203,0.2675862 0.0446,0.39394635 -0.0074,0.1337931 0,0.26015325 0.0074,0.4013793 l -0.02973,0.12636015 c -0.09663,0.0371647 -0.185823,0.0668965 -0.289885,0.0891954 -0.104061,0.029732 -0.208122,0.044598 -0.319617,0.044598 L 45.65073,1.0160444 h -0.02973 l 0.05203,0.1114942 0.08176,0.029732 v 0.037165 c 0.0669,0.044598 0.133793,0.096628 0.20069,0.148659 0.0669,0.052031 0.133793,0.089195 0.222988,0.1114942 l 0.230421,-0.022299 0.0669,0.00743 c 0.0074,0.081762 -0.0074,0.1412261 -0.0446,0.2006897 -0.03716,0.059464 -0.0669,0.1263601 -0.0892,0.1932567 l -0.520307,0.081762 0.208123,0.066897 c 0.148659,0.014866 0.312184,0.029732 0.475709,0.044598 0.163525,0.014866 0.304751,-0.00743 0.445977,-0.066897 v -0.029732 c 0.163525,-0.029732 0.319617,-0.074329 0.468276,-0.1189272 0.148659,-0.052031 0.304751,-0.074329 0.475708,-0.081762 0.133794,0 0.282453,0.022299 0.416246,0.059464 0.141226,0.037165 0.260153,0.081762 0.37908,0.148659 -0.0223,0.096628 -0.05203,0.1783908 -0.09663,0.2452873 -0.0446,0.07433 -0.0892,0.1412261 -0.141226,0.2081226 z"
         id="path306" />
    </g>
  </g>
</svg>
