<?xml version="1.0" encoding="UTF-8" standalone="no"?>
<!-- Created with Inkscape (http://www.inkscape.org/) -->

<svg
   width="60mm"
   height="7mm"
   viewBox="0 0 60 7"
   version="1.1"
   id="svg5"
   inkscape:version="1.2.2 (b0a8486, 2022-12-01)"
   sodipodi:docname="navModal.svg"
   xmlns:inkscape="http://www.inkscape.org/namespaces/inkscape"
   xmlns:sodipodi="http://sodipodi.sourceforge.net/DTD/sodipodi-0.dtd"
   xmlns="http://www.w3.org/2000/svg"
   xmlns:svg="http://www.w3.org/2000/svg">
  <sodipodi:namedview
     id="namedview7"
     pagecolor="#ffffff"
     bordercolor="#000000"
     borderopacity="0.25"
     inkscape:showpageshadow="2"
     inkscape:pageopacity="0.0"
     inkscape:pagecheckerboard="0"
     inkscape:deskcolor="#d1d1d1"
     inkscape:document-units="mm"
     showgrid="false"
     inkscape:zoom="1.2750331"
     inkscape:cx="276.85556"
     inkscape:cy="40.391108"
     inkscape:window-width="1440"
     inkscape:window-height="771"
     inkscape:window-x="1080"
     inkscape:window-y="1616"
     inkscape:window-maximized="0"
     inkscape:current-layer="layer1" />
  <defs
     id="defs2">
    <rect
       x="-1.8951972"
       y="4.0009718"
       width="213.31496"
       height="77.703079"
       id="rect268" />
  </defs>
  <g
     inkscape:label="Layer 1"
     inkscape:groupmode="layer"
     id="layer1">
    <path
       style="color:#000000;fill:#000000;fill-rule:evenodd;-inkscape-stroke:none"
       d="m 4.4179687,7.6269531 v 0.21875 z"
       id="path208" />
    <text
       xml:space="preserve"
       transform="scale(0.26458333)"
       id="text266"
       style="font-size:53.3333px;font-family:KouzanBrushFontGyousyoOTF;-inkscape-font-specification:KouzanBrushFontGyousyoOTF;white-space:pre;shape-inside:url(#rect268);display:inline;fill:#000000" />
    <g
       aria-label="たべきろ魚メニュー"
       transform="matrix(0.3614781,0,0,0.43886941,0.14313487,0.08575725)"
       id="text351"
       style="font-size:19.0994px;font-family:KouzanBrushFontGyousyoOTF;-inkscape-font-specification:KouzanBrushFontGyousyoOTF;fill:#1a1a1a;stroke-width:1.10189">
      <path
         d="m 1.1041309,15.369866 0.2291928,-0.0764 c 0.1527952,-0.171895 0.2291928,-0.381988 0.2291928,-0.611181 0,-0.210094 0.019099,-0.401088 0.057298,-0.572982 L 1.5625165,13.784616 2.40289,10.15573 H 2.5556852 C 2.7657786,9.1816607 3.0331702,8.2075914 3.3196612,7.2717208 3.5870528,6.3167508 3.9117426,5.3808802 4.2364324,4.4450096 L 5.5924898,3.5855367 5.6688874,3.3754433 6.1654718,3.0507535 V 2.9934553 H 6.031776 V 2.7260637 L 4.31283,2.6496661 C 4.2364324,2.3440757 4.1791342,2.0384853 4.121836,1.7137955 4.0645378,1.4082051 3.9881402,1.1026147 3.8926432,0.81612373 L 3.262363,0.12854534 H 3.1859654 L 3.262363,0.28134054 3.1095678,0.68242793 2.880375,1.0644159 c 0,0.2291928 0,0.4583856 0,0.6493796 0,0.2291928 0.076398,0.4392862 0.2291928,0.6111808 L 3.0331702,4.0630217 2.2500948,4.3113138 1.8872062,4.177618 c -0.2100933,0 -0.4392861,0.057298 -0.6493795,0.1718946 -0.190994,0.1145964 -0.43928623,0.1527952 -0.68757842,0.095497 l -0.0763976,0.190994 -0.21009339,0.076398 0.0572982,0.5347832 0.61118079,0.4392862 C 1.2378267,5.686471 1.5434171,5.667372 1.8108087,5.5718746 2.0591008,5.4954766 2.3455918,5.419079 2.6320828,5.323582 h 0.190994 C 2.5556852,6.8706334 2.211896,8.379486 1.8490075,9.8501397 1.4479201,11.320793 1.0659321,12.829646 0.70304348,14.3003 l 0.0763976,0.802175 v -0.0764 h 0.1527952 z m 0.4583856,-1.375157 -0.076398,0.0764 -0.076398,-0.0764 v -0.210093 h 0.1527952 z m 8.8048235,-0.93587 0.802174,-0.0573 0.133696,-0.267392 -0.0764,-0.267392 -1.203263,-0.267391 C 9.5651649,11.931974 9.1067793,11.588185 8.7247913,11.206197 8.3046045,10.80511 7.9608153,10.404022 7.6552249,9.9456367 h -0.076398 l -0.076398,0.4201873 c 0.057298,0.229192 0.095497,0.477484 0.1527952,0.706677 0.057298,0.229193 0.1527952,0.458386 0.3055904,0.668479 0.3055904,0.343789 0.6875784,0.64938 1.0886658,0.897672 0.4010874,0.229193 0.8403736,0.381988 1.3178597,0.420187 z M 7.2541375,7.042528 8.7438907,6.9088322 9.5842643,6.9661304 10.940322,6.8324346 V 6.6987388 H 11.30321 L 11.37961,6.565043 V 6.4313472 l -0.592082,-0.190994 c -0.763976,0 -1.4706533,0.038199 -2.1582317,0.1336958 -0.6875784,0.095497 -1.3751568,0.190994 -2.0245364,0.3246898 0,0.1336958 0.076398,0.2100934 0.2482922,0.2100934 0.1718946,0 0.3055904,0.038199 0.4010874,0.1336958 z"
         id="path343" />
      <path
         d="m 31.013754,10.957905 v -0.32469 h 0.0764 v -0.171894 h 0.267392 V 10.327625 L 31.14745,10.136631 H 31.013754 V 10.002935 H 30.727263 V 9.8119409 L 30.326176,9.6782451 V 9.5063505 l -0.572982,-0.2673916 -0.0573,-0.190994 C 29.524001,8.9142691 29.352107,8.7996727 29.180212,8.6468775 29.008317,8.4940824 28.836423,8.3985854 28.588131,8.3412872 V 8.2075914 h -0.0573 V 8.0738956 L 27.766856,7.6537088 27.155676,7.3863172 V 7.2717208 H 27.00288 V 7.138025 C 26.468097,6.66054 25.856916,6.2976514 25.245736,6.0111604 24.634555,5.7246694 24.004275,5.514576 23.335796,5.3426814 c -0.401088,0.057298 -0.802175,0.1145964 -1.145964,0.190994 -0.381988,0.095497 -0.744877,0.2100934 -1.126865,0.381988 h -0.267391 v -0.057298 c -0.229193,0.038199 -0.458386,0.095497 -0.64938,0.190994 -0.210093,0.095497 -0.439286,0.1336958 -0.668479,0.1336958 l -0.0764,0.1336958 c -0.171894,0.1336958 -0.362888,0.2482922 -0.572982,0.4201868 -0.210093,0.1718946 -0.420186,0.286491 -0.649379,0.3437892 l 0.210093,1.2032622 3.858079,-1.90994 c 1.375157,0.2482922 2.673916,0.7257772 3.838979,1.3942562 1.184163,0.6875784 2.330127,1.3560573 3.476091,2.0436357 V 9.9456367 Z M 30.249778,9.8692391 29.753194,9.6400463 V 9.4299529 l 0.496584,0.2482922 z M 29.753194,9.5636487 H 29.5622 V 9.4299529 L 29.352107,9.3726547 V 9.2389589 l 0.401087,0.076398 z m -1.298759,-4.6029553 0.0764,-0.1145964 0.0573,0.038199 H 28.74093 V 4.788799 h 0.133696 l 0.0573,-0.2100934 h 0.0764 L 28.874622,3.9484253 C 28.588131,3.8147295 28.320739,3.7192325 28.053347,3.6237355 27.766856,3.5282385 27.480365,3.4709403 27.212974,3.4327415 h -0.133696 v 0.057298 l -0.286491,-0.057298 h -0.0764 l 0.152796,0.3246898 h 0.133695 v 0.190994 l 0.34379,0.3055903 0.420186,0.190994 v 0.1336958 z m 2.139133,-1.2796597 h 0.0573 V 3.5664373 L 30.880059,3.3563439 30.727263,2.9170577 C 30.498071,2.7069643 30.230679,2.5541691 29.905989,2.4968709 29.600399,2.4586721 29.25661,2.4013739 28.93192,2.3440757 h -0.190994 l 0.133696,0.190994 0.267391,0.2482922 h 0.133696 l 0.0764,0.2100934 0.401087,0.2482922 v 0.1145964 z"
         id="path340" />
      <path
         d="m 46.560629,14.720487 1.203263,-0.210094 v -0.0573 C 46.560629,14.3003 45.414665,14.071107 44.268701,13.822815 43.141837,13.593622 42.014972,13.249833 40.907207,12.829646 40.773511,12.69595 40.620716,12.562254 40.467921,12.428559 40.315126,12.294863 40.257827,12.103869 40.315126,11.893775 l -0.439286,0.0573 c 0,0.30559 0.0764,0.592081 0.210093,0.821274 0.152795,0.210093 0.286491,0.458385 0.381988,0.744876 0.878572,0.458386 1.852642,0.783076 2.884009,0.935871 1.050467,0.171895 2.120034,0.267392 3.208699,0.267391 z M 45.548361,9.8310403 c 0.114597,-0.1336958 0.305591,-0.2291928 0.534783,-0.3055904 0.229193,-0.057298 0.420187,-0.1145964 0.630281,-0.1718946 l 0.229192,-0.8021747 c 0,-0.4201868 -0.0573,-0.8021748 -0.152795,-1.2032622 -0.0955,-0.381988 -0.229193,-0.763976 -0.381988,-1.1077652 -0.0382,-0.190994 -0.0191,-0.3437892 0.0382,-0.4583856 0.0764,-0.095497 0.171895,-0.2291928 0.267392,-0.3628886 0.0573,-0.381988 0.0191,-0.7066778 -0.0764,-1.0122682 C 46.54153,4.1203199 46.407834,3.8529283 46.274138,3.5855367 V 3.3563439 l 1.031368,-0.8021748 -0.0764,-0.4583856 -0.668479,-0.3628886 -2.062735,0.076398 -0.687578,-0.076398 c -0.0573,-0.2291928 -0.0764,-0.477485 -0.0764,-0.7257772 0,-0.22919277 -0.114596,-0.45838557 -0.362888,-0.64937956 l -0.305591,0.15279519 0.0955,0.74487657 v 0.6111808 l -1.566151,0.3437892 h -0.381988 v -0.076398 c -0.210093,0.190994 -0.439286,0.3628886 -0.744876,0.477485 -0.30559,0.1527952 -0.553883,0.286491 -0.802175,0.4201868 v 0.1336958 l 1.031368,0.1336958 0.897671,-0.1336958 0.190994,0.076398 c 0.267392,0 0.534784,-0.019099 0.802175,-0.038199 0.267392,-0.019099 0.515684,-0.076398 0.706678,-0.1718946 l 0.229193,0.076398 0.572982,0.9931688 -1.413356,1.7189459 H 42.549754 L 42.034071,6.507745 c 0,0.2673916 0.0191,0.5347832 0.0764,0.763976 0.0573,0.2482922 0.171895,0.4583856 0.362889,0.5920814 0.611181,0.057298 1.145964,-0.019099 1.642548,-0.2100934 0.496585,-0.1718946 0.95497,-0.4201868 1.432455,-0.7448766 h 0.114597 l 0.534783,1.5661508 c 0.0573,0.2864909 0,0.5156837 -0.152795,0.7448765 -0.152796,0.2291928 -0.32469,0.4392862 -0.496585,0.6111808 z M 44.707988,6.374049 43.294632,6.9852298 h -0.534783 c 0.152795,-0.4201868 0.343789,-0.8212742 0.534783,-1.241461 0.210093,-0.4010874 0.477485,-0.8021748 0.802175,-1.145964 h 0.248292 l 0.878572,1.2796598 z M 46.044946,5.2853832 C 45.796653,5.1516874 45.605659,4.9606934 45.452864,4.7315006 45.300069,4.5023078 45.128174,4.2922144 44.918081,4.1012205 V 3.9866241 c 0.152795,-0.057298 0.32469,-0.076398 0.496584,-0.076398 0.171895,0 0.305591,-0.095497 0.401088,-0.2673916 h 0.30559 l 0.152795,0.2673916 c 0,0.2291928 0,0.4392861 0,0.6493795 0,0.2100934 -0.0764,0.381988 -0.229192,0.572982 z m -1.260561,-1.6425483 -0.0764,0.076398 h -0.133693 l -0.32469,-0.744877 V 2.8406601 l 1.050467,-0.2291928 h 0.171895 z"
         id="path337" />
      <path
         d="m 66.041979,14.701387 1.375157,-1.470654 h 0.152795 l -0.152795,0.248293 v 0.133695 l 0.152795,-0.381988 0.210093,-0.0764 0.0764,-0.190994 0.190994,-0.0764 0.572982,-1.222361 c 0,-0.401088 -0.0382,-0.744877 -0.0955,-1.107765 C 68.4485,10.213023 68.295707,9.9074329 68.047415,9.6591407 67.684526,9.2771527 67.24524,8.9906617 66.767755,8.7996677 66.29027,8.5895743 65.774586,8.4558786 65.258902,8.3603816 c -1.184162,0 -2.234629,0.2100933 -3.208699,0.6111807 -0.993169,0.4201868 -1.929039,0.9167712 -2.807611,1.5279517 h -0.0764 c 0.553883,-1.3369577 1.298759,-2.5784186 2.253729,-3.7625814 0.916771,-1.145964 1.60435,-2.4256238 2.024536,-3.8007805 0,-0.2673916 0.0191,-0.5347832 0.0382,-0.8212742 0.0191,-0.286491 -0.114596,-0.5156838 -0.381988,-0.6875784 -0.477485,-0.038199 -0.897672,0 -1.298759,0.095497 -0.381988,0.1145964 -0.783075,0.2482922 -1.165063,0.4201868 L 59.796475,1.0262171 h -0.0764 c -0.0382,0.3246898 0,0.5920814 0.114596,0.8212742 0.0955,0.2482922 0.229193,0.4965844 0.381988,0.7448766 l 0.496584,0.2673916 c 0.267392,0 0.534783,-0.057298 0.783076,-0.1718946 0.210093,-0.095497 0.439286,-0.2100934 0.687578,-0.3437892 h 0.133696 c -0.32469,1.6998466 -0.97407,3.2659973 -1.948139,4.7175517 -0.993169,1.4706538 -1.948139,2.9031087 -2.884009,4.3355636 -0.0955,0.0955 -0.190994,0.190994 -0.305591,0.286491 -0.114596,0.114596 -0.248292,0.152795 -0.381988,0.114596 l 0.0573,0.64938 h 0.152795 l 0.0764,0.706678 0.267392,0.133696 c 0.420187,-0.210094 0.840374,-0.458386 1.26056,-0.744877 0.439287,-0.286491 0.840374,-0.572982 1.260561,-0.878572 l 0.114596,-0.267392 c 0.668479,-0.458386 1.336958,-0.916771 1.986338,-1.317858 0.649379,-0.4201873 1.336958,-0.7257777 2.100934,-0.9358711 0.477485,0 0.897671,0.038199 1.336958,0.095497 0.420186,0.057298 0.821274,0.2100934 1.165063,0.4201868 0.190994,0.1145964 0.343789,0.286491 0.477485,0.4774853 0.0955,0.210093 0.171895,0.401087 0.229193,0.63028 0.0382,0.725777 -0.0573,1.413355 -0.248292,2.081834 -0.210094,0.687579 -0.553883,1.29876 -0.99317,1.852642 z"
         id="path334" />
      <path
         d="m 76.221924,14.491294 0.267392,-0.0382 v -0.0764 l 0.210093,-0.0382 v -0.133696 l 0.706678,-0.133696 c -0.0382,-0.0573 -0.0955,-0.114596 -0.152795,-0.152795 -0.0764,-0.0382 -0.114596,-0.0955 -0.114596,-0.190994 l -0.171895,-0.114597 0.114596,-0.267391 v -0.0573 l -0.343789,0.0955 c -0.477485,-0.0955 -0.95497,-0.210094 -1.432455,-0.362889 -0.477485,-0.133696 -0.95497,-0.248292 -1.413355,-0.362889 h -0.0764 l 0.210093,0.515684 0.515684,0.439286 v 0.0573 l 0.783076,0.534783 h 0.171894 l 0.0382,0.133696 z m 3.705284,0 -0.114596,-0.114597 0.0191,-0.133695 0.229193,0.0955 0.783075,-0.401088 v -0.0764 h 0.0382 L 80.652985,13.67002 v -0.0573 l -0.152795,-0.0573 -0.0382,-0.133696 c -0.381988,-0.133695 -0.744876,-0.267391 -1.145964,-0.362888 -0.381988,-0.0955 -0.802175,-0.171895 -1.184163,-0.210094 H 77.63528 l 0.0573,0.133696 0.305591,0.229193 v 0.0764 c 0.229192,0.171894 0.439286,0.324689 0.687578,0.420186 0.229193,0.133696 0.439286,0.286491 0.687578,0.458386 l 0.0382,-0.0573 0.267392,0.0955 z m 4.583856,-0.248292 -0.133696,-0.267392 v -0.171895 l 0.171895,0.133696 c 0.114596,0 0.229192,0.0191 0.324689,0.0764 0.0955,0.0573 0.190994,0.114596 0.286491,0.152795 l 0.133696,-0.0573 v -0.0764 h -0.0955 l -0.0955,-0.171894 v -0.0955 c 0.133696,0.0573 0.248292,0.0955 0.362889,0.0955 0.133696,0 0.248292,0.0191 0.381988,0.0382 h 0.133696 l 0.133695,-0.171894 v -0.0955 l -0.496584,-0.152795 v -0.0955 h 0.171895 v -0.0382 h -0.0382 v -0.171895 c -0.229193,-0.0573 -0.420187,-0.133696 -0.63028,-0.229193 -0.210094,-0.0955 -0.439287,-0.152795 -0.64938,-0.210093 v -0.0764 c -0.32469,-0.171894 -0.668479,-0.286491 -1.012268,-0.343789 -0.362889,-0.0382 -0.706678,-0.114596 -1.069567,-0.229193 h -0.133695 l 0.401087,0.706678 h 0.0764 v 0.0573 l 0.286491,0.32469 h 0.0955 l 0.229192,0.210094 0.34379,0.0955 0.286491,0.420186 -0.0382,-0.133695 v -0.0955 l 0.401087,0.30559 z m 1.89084,-0.763976 c 0.267392,-0.0955 0.534784,-0.190994 0.783076,-0.286491 0.248292,-0.0955 0.515684,-0.190994 0.763976,-0.248293 0.171894,-0.0191 0.343789,0.0191 0.477485,0.133696 0.133696,0.114597 0.248292,0.210094 0.381988,0.267392 h 0.133696 v -0.133696 l 0.171894,0.0764 h 0.0955 v -0.0764 h 0.0955 v -0.0955 l 0.496584,0.0955 0.32469,-0.0382 -0.0955,-0.190994 -0.133696,-0.0382 -0.0382,-0.114596 C 89.41961,12.504956 88.961224,12.256664 88.502838,12.06567 88.025353,11.893775 87.50967,11.76008 86.974886,11.702781 l -0.229192,0.0382 -0.0382,-0.0382 -1.088666,0.171895 c 0.267392,0.0382 0.534783,0.0764 0.783075,0.133696 0.267392,0.0382 0.515684,0.114596 0.725778,0.210093 -0.0573,0.229193 -0.133696,0.439286 -0.267392,0.63028 -0.133696,0.210094 -0.286491,0.401088 -0.458386,0.572982 z m -7.29597,-2.826711 c 0.496584,-0.0764 0.95497,-0.190994 1.394256,-0.362889 0.420187,-0.171895 0.878572,-0.3437893 1.336958,-0.4965845 l 0.171894,0.057298 0.64938,-0.2100934 0.133696,0.019099 0.496584,0.7066779 0.401088,-0.133696 0.210093,0.0955 0.210093,-0.0955 C 84.32007,9.6209469 84.511064,8.9715673 84.663859,8.3412872 84.835754,7.711007 85.045847,7.0807268 85.294139,6.4504466 h 0.0764 l 0.0382,-0.1336958 0.171894,-0.095497 v -0.076398 l 0.133696,-0.057298 c 0.0573,-0.076398 0.0955,-0.1527952 0.133696,-0.2482922 0.0191,-0.095497 0.0573,-0.1527952 0.0764,-0.2482922 l 0.190994,-0.057298 0.0764,-0.477485 h 0.152795 L 86.21091,4.8078982 c -0.0382,-0.019099 -0.0764,-0.076398 -0.114596,-0.1336958 -0.0573,-0.057298 -0.114596,-0.057298 -0.210093,-0.038199 l -0.0955,-0.2291928 C 85.542431,4.2349162 85.294139,4.1012205 85.026748,4.0248229 84.759356,3.9484253 84.491964,3.8911271 84.167275,3.8529283 l -1.29876,0.2291928 c -0.286491,0 -0.553882,-0.076398 -0.744876,-0.2291928 C 81.894446,3.7192325 81.646154,3.6428349 81.416961,3.6428349 V 3.5091391 l 0.190994,-0.095497 0.0382,-0.076398 c 0.30559,-0.038199 0.572982,-0.1336958 0.802175,-0.2673916 0.229192,-0.1145964 0.496584,-0.190994 0.763976,-0.2100934 l 0.0382,-0.1336958 0.267392,-0.038199 v -0.095497 l 0.286491,-0.076398 v -0.038199 l 0.171895,-0.076398 V 2.3058769 L 83.785287,2.0766841 C 83.422398,1.9620877 83.097708,1.8092925 82.792118,1.6564973 82.467428,1.4846027 82.123639,1.3700063 81.741651,1.3509069 l -0.171895,0.038199 -0.381988,-0.038199 -0.0382,-0.076398 C 80.786681,1.0644159 80.442892,0.89252132 80.080003,0.73972613 79.736214,0.60603033 79.354226,0.45323513 78.991337,0.31953934 h -0.0382 l 0.0382,0.21009339 v 0.1336958 C 78.609349,1.2936087 78.246461,1.9238889 77.883572,2.5541691 c -0.362888,0.6493796 -0.783075,1.241461 -1.26056,1.7762441 l 0.515684,-0.2482921 0.592081,-0.6302802 0.64938,-0.3628886 0.0764,-0.1336958 0.0955,-0.1336958 h 0.0955 v -0.095497 h 0.0764 l 0.0573,-0.1336958 c 0.30559,-0.1145964 0.63028,-0.2482922 0.974069,-0.381988 0.305591,-0.1145964 0.64938,-0.2482922 0.95497,-0.381988 l 0.171895,0.076398 C 80.538402,2.5159707 80.213712,3.1271515 79.927221,3.7383323 79.659829,4.349513 79.31604,4.9415944 78.953152,5.5336758 v 0.095497 l 0.152795,-0.095497 0.133696,-0.2482922 0.133695,-0.057298 h 0.0955 l 0.210094,0.6493796 0.133696,0.038199 V 6.04936 h 0.0764 v 0.095497 l 0.133696,0.1336958 0.133696,0.038199 0.171894,-0.038199 c 0.0955,0 0.171895,0 0.248293,0 0.0573,0 0.0955,0.038199 0.133695,0.1336958 l -0.0573,0.4965844 C 80.290097,7.0807268 79.908109,7.2717208 79.54522,7.424516 79.163232,7.5964106 78.800343,7.7874046 78.418355,7.997498 H 78.28466 L 78.036367,7.520013 C 77.654379,7.3099196 77.291491,7.1571244 76.890403,6.9852298 76.508415,6.8133352 76.126427,6.6414406 75.763539,6.4504466 h -0.133696 l 0.993169,0.8785724 c 0.152795,0.2100934 0.286491,0.4392862 0.381988,0.6493796 0.0955,0.190994 0.133696,0.4392862 0.133696,0.7066777 l 0.210093,0.1718946 0.210093,0.381988 0.611181,0.477485 0.381988,-0.057298 v -0.057298 l 0.305591,0.057298 v 0.095497 l -0.133696,0.095497 0.0573,0.4392861 z m 0.171894,-1.1841633 -0.0382,0.038199 -0.210094,-0.038199 C 78.953139,9.3153565 78.89584,9.1434619 78.857642,8.9715673 78.800343,8.8187721 78.723946,8.6468775 78.59025,8.5131818 l 0.0573,-0.1336958 c 0.286491,-0.1527952 0.592082,-0.286491 0.935871,-0.381988 0.30559,-0.1145964 0.63028,-0.2291928 0.95497,-0.3437892 h 0.114596 c 0.0573,0.2291928 0.0191,0.4010874 -0.133696,0.5156838 C 80.347397,8.3030884 80.2328,8.474983 80.156403,8.6468775 h -0.0955 L 79.335127,9.3726547 Z M 80.843979,9.2962571 80.1946,9.5445493 H 80.022705 V 9.4108535 l 0.210093,-0.038199 v -0.076398 l 0.362889,-0.2291928 h 0.152795 l 0.133696,0.1718946 z m 1.413356,-0.190994 H 81.741651 L 81.913545,8.5131818 81.875347,8.283989 82.047241,7.8638022 C 82.276434,7.6919076 82.524726,7.5391124 82.792118,7.424516 83.021311,7.3099196 83.269603,7.1762238 83.479696,6.9661304 L 83.346,6.8324346 V 6.7369376 C 83.135907,6.6796394 82.925814,6.6032418 82.71572,6.5459436 82.505627,6.4886454 82.257335,6.4886454 82.009042,6.5268442 L 81.875347,6.3549496 V 6.1448562 l 0.133695,-0.095497 V 5.9729612 C 82.257335,5.820166 82.505627,5.6673708 82.753919,5.4572774 82.983112,5.247184 83.231404,5.1134882 83.517895,5.0179912 h 0.286491 c 0,0.6875784 -0.0382,1.3560574 -0.133696,2.005437 -0.0955,0.6493796 -0.229193,1.2796598 -0.381988,1.9099399 l -0.171894,0.038199 H 82.868515 V 8.9333685 L 82.295533,8.7805733 82.047241,8.4176848 h -0.0382 l 0.171895,0.5538825 h 0.0764 z"
         id="path331" />
      <path
         d="m 96.409955,13.689119 0.783076,-0.32469 h 0.133696 v 0.0764 c 0.267391,-0.0573 0.496584,-0.190994 0.706677,-0.420187 0.190994,-0.190994 0.420187,-0.362889 0.687579,-0.458386 v -0.133695 l 0.725777,-0.458386 0.477485,-0.687578 h 0.133695 l 0.64938,-0.802175 0.55388,-0.9167713 0.51569,-0.6302802 0.21009,-0.3055904 c 0.47749,0.1336958 0.91677,0.3628886 1.31786,0.7448766 0.40109,0.381988 0.84037,0.6493793 1.31786,0.7830753 h 0.28649 V 9.9456367 h 0.26739 l 0.0764,-0.3055904 0.19099,-0.076398 c -0.26739,-0.477485 -0.64938,-0.8212742 -1.12686,-1.0886657 -0.51569,-0.2673916 -0.87858,-0.6302802 -1.14597,-1.145964 l 0.2101,-0.668479 0.64938,-0.8785724 c 0.28649,-0.4201868 0.49658,-0.8976718 0.70667,-1.3560574 0.2101,-0.4583855 0.40109,-0.9549699 0.55389,-1.4324549 l -0.0382,-0.6111808 h -0.2101 l 0.0573,-0.2100934 V 1.9047895 l -0.91677,-0.1336958 v -0.076398 l -0.0764,0.286491 h -0.13369 v 0.2673916 l -0.1337,0.057298 c -0.17189,0.8021748 -0.43928,1.5661508 -0.76397,2.2728285 -0.32469,0.7257772 -0.66848,1.432455 -1.01227,2.1582322 L 98.1671,6.278552 h -0.0382 c 0.496585,0.381988 1.012269,0.668479 1.60435,0.8021748 0.57298,0.1336958 1.08867,0.4010874 1.58525,0.8021748 -0.55388,1.1077651 -1.26056,2.1391324 -2.139133,3.0750034 -0.878572,0.93587 -1.814443,1.833542 -2.769413,2.673916 z"
         id="path328" />
      <path
         d="m 115.8531,11.244396 c 0.85948,-0.248292 1.69985,-0.534783 2.52112,-0.802175 0.80218,-0.286491 1.66165,-0.5156837 2.55932,-0.6875783 0.89767,0 1.79535,0.057298 2.67392,0.1527952 0.85947,0.095497 1.71894,0.2291931 2.52112,0.4010871 l 0.70668,-0.30559 -0.0573,-0.3628887 c -0.47749,-0.2100934 -0.95497,-0.381988 -1.50885,-0.477485 -0.53479,-0.095497 -1.05047,-0.190994 -1.58525,-0.286491 h -0.43929 v 0.2100934 l -0.21009,0.057298 -0.61118,-0.057298 c -1.33696,-0.057298 -2.63572,0.057298 -3.83898,0.3055904 -1.22237,0.2482922 -2.46383,0.4201868 -3.74349,0.5538826 v 0.1909943 l -1.08866,0.30559 v 0.0382 l 0.42019,0.210093 v 0.133696 h 0.61118 v 0.30559 z m 2.17733,-4.870347 c 0.82128,-0.038199 1.58525,-0.1718946 2.33013,-0.381988 0.72578,-0.2100934 1.45155,-0.4392862 2.17733,-0.7448766 l -0.0573,-0.3055904 c -0.36288,-0.1336958 -0.70667,-0.2482922 -1.10776,-0.3246898 -0.38199,-0.057298 -0.76398,-0.1336958 -1.14597,-0.2291928 h -0.26739 v 0.1336958 c -0.49658,0.2482922 -1.08866,0.381988 -1.71894,0.4201868 -0.64938,0.057298 -1.24146,0.1718946 -1.79535,0.381988 l 0.30559,0.190994 0.0764,0.1718946 0.32469,0.1145964 0.24829,0.2673916 z"
         id="path325" />
      <path
         d="m 135.23896,14.052008 c 0.64938,-0.267392 1.33696,-0.458386 2.04363,-0.592082 0.68758,-0.133696 1.41336,-0.30559 2.10094,-0.477485 0.70668,0.0764 1.41335,0.190994 2.10093,0.32469 0.68758,0.133696 1.35606,0.286491 2.04364,0.401087 l 0.80217,-0.152795 v -0.114596 h -0.0382 v -0.248292 h -0.0573 v -0.152796 c -0.32469,-0.152795 -0.68758,-0.248292 -1.05047,-0.343789 -0.40109,-0.0764 -0.76398,-0.171894 -1.16506,-0.286491 v -0.0573 l -0.3056,0.0573 v 0.0764 c -0.40108,0 -0.78307,-0.0382 -1.18416,-0.114597 -0.38199,-0.0764 -0.80217,-0.0955 -1.20326,-0.0764 v -0.0955 l 0.36289,-0.190994 c 0.28649,-0.381988 0.51568,-0.763976 0.70668,-1.203262 0.19099,-0.401088 0.32469,-0.8403739 0.38198,-1.2796601 l 0.2483,-0.1527952 c 0.11459,-0.095497 0.22919,-0.2100934 0.34379,-0.3246898 0.0955,-0.095497 0.22919,-0.1527952 0.38198,-0.1527952 l -0.0382,-0.3628885 -0.15279,-0.057298 V 8.379486 L 140.2239,7.7301064 V 7.61551 l -0.11459,-0.076398 h -0.0955 v 0.190994 h -0.22919 V 7.672808 c -0.2483,0.095497 -0.49659,0.190994 -0.76398,0.2482922 -0.28649,0.076398 -0.53478,0.1336958 -0.78308,0.1527952 -0.21009,-0.057298 -0.42018,-0.1145964 -0.63028,-0.1336958 -0.22919,-0.019099 -0.45838,-0.038199 -0.66847,-0.057298 h -0.1528 v 0.190994 l -0.17189,-0.038199 h -0.1528 l 0.1528,0.2291928 0.74487,0.6875783 0.28649,0.190994 1.35606,-0.381988 0.1337,0.038199 0.0955,0.2482922 0.0955,0.057298 0.0955,0.5538826 c 0,0.3246898 -0.0191,0.6302805 -0.0382,0.9358705 -0.0382,0.32469 -0.0955,0.63028 -0.1528,0.897672 l -0.22919,0.248292 v 0.305591 l 0.17189,0.152795 v 0.0955 l -2.54022,0.439286 -0.47748,-0.0573 -0.63028,0.0573 -0.28649,-0.0573 -0.26739,0.0573 -0.0955,0.190994 -0.28649,-0.0955 h -0.0382 v 0.0955 l -0.1337,0.0573 -0.24829,-0.0573 h -0.0573 v 0.114596 h -0.15279 l 0.1146,0.0573 v 0.0573 h -0.1337 l 0.42019,0.401087 c 0.15279,0.0955 0.32469,0.152795 0.47748,0.171895 0.1719,0.0191 0.30559,0.114596 0.40109,0.32469 z"
         id="path322" />
      <path
         d="m 153.89904,8.1502932 c 1.24146,-0.2291928 2.48292,-0.4392862 3.74348,-0.5920814 1.24146,-0.1527952 2.50202,-0.286491 3.78168,-0.3628886 0.63028,0 1.26056,0.019099 1.89084,0.038199 0.61118,0.019099 1.14597,0.190994 1.66165,0.5538826 l 0.21009,-0.076398 0.28649,-0.7257772 0.36289,-0.076398 -0.0573,-0.2291928 c -0.24829,-0.1527952 -0.49658,-0.2673916 -0.74487,-0.3628886 -0.2292,-0.095497 -0.51569,-0.1718946 -0.82128,-0.2291928 -1.50885,0.1527952 -3.0559,0.286491 -4.62205,0.4010874 -1.58525,0.1336958 -3.1323,0.2673916 -4.66025,0.4201868 -0.57299,0.057298 -1.10777,-0.076398 -1.58526,-0.381988 -0.45838,-0.286491 -0.97406,-0.4583856 -1.50885,-0.5156838 l 1.31786,1.5470514 z"
         id="path319" />
    </g>
  </g>
</svg>
