<?xml version="1.0" encoding="UTF-8" standalone="no"?>
<!-- Created with Inkscape (http://www.inkscape.org/) -->

<svg
   width="60.000999mm"
   height="15mm"
   viewBox="0 0 60.000999 15"
   version="1.1"
   id="svg5"
   inkscape:version="1.2.2 (b0a8486, 2022-12-01)"
   sodipodi:docname="newPostLOGO.svg"
   xmlns:inkscape="http://www.inkscape.org/namespaces/inkscape"
   xmlns:sodipodi="http://sodipodi.sourceforge.net/DTD/sodipodi-0.dtd"
   xmlns="http://www.w3.org/2000/svg"
   xmlns:svg="http://www.w3.org/2000/svg">
  <sodipodi:namedview
     id="namedview7"
     pagecolor="#ffffff"
     bordercolor="#000000"
     borderopacity="0.25"
     inkscape:showpageshadow="2"
     inkscape:pageopacity="0.0"
     inkscape:pagecheckerboard="0"
     inkscape:deskcolor="#d1d1d1"
     inkscape:document-units="mm"
     showgrid="false"
     inkscape:zoom="2.6959044"
     inkscape:cx="100.70832"
     inkscape:cy="30.601975"
     inkscape:window-width="1440"
     inkscape:window-height="771"
     inkscape:window-x="1080"
     inkscape:window-y="1616"
     inkscape:window-maximized="0"
     inkscape:current-layer="layer1" />
  <defs
     id="defs2">
    <rect
       x="-1.8951972"
       y="4.0009718"
       width="213.31496"
       height="77.703079"
       id="rect268" />
  </defs>
  <g
     inkscape:label="Layer 1"
     inkscape:groupmode="layer"
     id="layer1">
    <path
       style="fill:none;fill-rule:evenodd;stroke:#000000;stroke-width:0.21864px;stroke-linecap:butt;stroke-linejoin:miter;stroke-opacity:1"
       d="m 4.4186655,7.736698 v 0"
       id="path208"
       inkscape:connector-type="polyline"
       inkscape:connector-curvature="0" />
    <g
       aria-label="新着投稿"
       transform="scale(0.947401,1.0555193)"
       id="text214"
       style="font-size:16.6642px;font-family:KouzanBrushFontGyousyoOTF;-inkscape-font-specification:KouzanBrushFontGyousyoOTF;stroke-width:0.312455">
      <path
         d="m 10.453384,14.31404 c 0.166642,-0.11665 0.249963,-0.233299 0.249963,-0.399941 0,-0.166642 0.03333,-0.333284 0.08332,-0.483262 l 0.03333,-2.149682 -0.03333,-0.03333 0.03333,-0.199971 -0.03333,-0.149977 0.04999,-0.199971 -0.04999,-1.5331062 v -0.083321 h 0.06666 c 0.01666,-0.249963 0.03333,-0.5165902 0.04999,-0.7665532 0.01666,-0.249963 0.04999,-0.4832618 0.08332,-0.7165606 l -0.01666,-0.1166494 c 0.03333,-0.2666272 0.08332,-0.5165902 0.09999,-0.7998816 0.01666,-0.249963 0.04999,-0.499926 0.133313,-0.7332248 l 0.199971,-0.066657 -0.03333,-0.1833062 0.04999,-0.1166494 c 0.233299,-0.083321 0.466597,-0.1499778 0.71656,-0.1999704 0.233299,-0.049993 0.499926,-0.083321 0.766554,-0.1333136 0.09999,-0.016664 0.166642,-0.066657 0.183306,-0.1499778 0.01666,-0.066657 0.04999,-0.1499778 0.08332,-0.249963 V 4.765453 h -0.08332 c 0.03333,-0.099985 0.03333,-0.1833062 0.01666,-0.2666272 C 13.069664,4.4155048 13.036335,4.348848 12.986343,4.265527 12.836365,4.182206 12.669723,4.1322134 12.503081,4.0822208 12.353103,4.0488924 12.186461,3.9822356 12.036483,3.8822504 L 11.919834,3.8655862 11.836513,4.015564 C 11.203273,4.1655418 10.603362,4.3655122 10.020115,4.6154752 9.4202039,4.8821024 8.8536211,5.1653938 8.2870383,5.4820136 8.1203963,5.4653494 7.9537543,5.432021 7.8037765,5.3487 7.6371345,5.265379 7.4871567,5.2153864 7.3371789,5.1653938 c -0.1166494,0 -0.2666272,-0.016664 -0.416605,-0.033328 C 6.7872603,5.1154012 6.6372825,5.1487296 6.5206331,5.265379 l 0.049993,0.1166494 0.3832766,0.1833062 c 0.166642,0.2666272 0.249963,0.5665828 0.249963,0.916531 -0.016664,0.333284 0,0.6832322 0.033328,1.0165162 l -0.066657,0.416605 0.049993,0.1166494 c 0,0.3499482 -0.033328,0.6499038 -0.099985,0.9331952 -0.083321,0.2832914 -0.1999704,0.5499186 -0.3499482,0.8165458 0.016664,0.1833062 0.066657,0.3832768 0.1833062,0.5665828 0.099985,0.183306 0.2166346,0.349948 0.3666124,0.499926 h 0.1499778 l 0.049993,-0.08332 -0.033328,-0.116649 C 7.6038061,10.014676 7.7371197,9.3814364 7.8537691,8.7148684 7.9704185,8.0483004 8.0704037,7.3983966 8.1370605,6.7484928 l 0.8165458,-0.416605 c 0.083321,0.016664 0.1499778,0.016664 0.2166346,0.033328 0.066657,0.016664 0.1166494,0.049993 0.166642,0.099985 l 0.083321,0.2166346 0.2332988,0.1499778 c 0.1499778,1.1498298 0.2666272,2.332988 0.3666123,3.5161462 0.08332,1.183158 0.233299,2.349652 0.433269,3.466154 z M 4.1376526,13.114217 h 0.049993 C 4.2376378,12.281007 4.3209588,11.464461 4.4042798,10.647916 4.4876008,9.8147056 4.5709218,8.9981598 4.6542428,8.181614 4.7375638,8.0483004 4.8708774,7.931651 5.0375194,7.8649942 5.1874972,7.7816732 5.337475,7.6983522 5.4541244,7.5817028 V 7.4650534 H 5.4374602 V 7.3983966 L 4.8875416,7.1984262 4.6542428,6.7151644 4.4542724,6.6318434 4.4876008,6.4818656 4.8708774,6.265231 5.5707737,5.7486408 C 5.6540947,5.7319766 5.7207515,5.6986482 5.8040725,5.6653198 5.8873935,5.6486556 5.9373861,5.598663 5.9540503,5.515342 L 5.7707441,5.1987222 C 5.6374305,5.098737 5.4707886,5.015416 5.3041466,4.9987518 5.1041762,4.9820876 4.92087,4.9487592 4.7708922,4.8987666 l 0.016664,-0.166642 C 4.9375342,4.7154604 5.087512,4.6488036 5.2374898,4.5321542 5.3874676,4.4155048 5.5207811,4.3655122 5.6707589,4.348848 V 4.265527 L 5.8540651,4.2321986 V 4.0322282 L 5.6707589,3.8322578 C 5.5207811,3.7156084 5.3874676,3.6489516 5.2041614,3.598959 5.0208552,3.5489664 4.8208848,3.4989738 4.6542428,3.4156528 H 4.4709366 L 4.0709958,3.6989442 H 3.9710106 L 4.6209144,2.9657195 V 2.8823985 L 4.7375638,2.8324059 4.7708922,2.7157565 C 4.9042058,2.6324355 5.0375194,2.5491145 5.1874972,2.4657935 5.337475,2.3824725 5.4707886,2.3158157 5.6207663,2.2491589 L 5.5374453,1.9325391 C 5.4374602,1.8158897 5.3041466,1.7325687 5.1208404,1.6992403 4.9375342,1.6659119 4.754228,1.6159193 4.6209144,1.5825909 V 1.5159341 L 4.837549,1.4326131 V 1.0493365 L 4.670907,0.86603027 C 4.4376082,0.71605247 4.2043094,0.58273888 3.9710106,0.46608948 3.7210476,0.34944008 3.4710846,0.24945488 3.2211216,0.14946968 L 3.1044722,0.24945488 H 2.9878228 v 0.0333284 l 0.83321,0.69989639 c 0.083321,0.083321 0.1499778,0.16664203 0.2166346,0.24996303 0.033328,0.099985 0.066657,0.1999704 0.066657,0.2999556 l 0.083321,0.016664 -0.1166494,0.2332988 -2.3829806,1.083173 v 0.049993 c 0.1833062,0.083321 0.3499482,0.1166494 0.5665828,0.166642 0.2166346,0.049993 0.3999408,0.083321 0.6165754,0.099985 C 2.754524,3.4156528 2.6545388,3.6489516 2.5212252,3.848922 2.3879116,4.0655566 2.2212696,4.2821912 2.0379634,4.4488332 V 4.5654826 C 2.1046202,4.7154604 2.2046054,4.8821024 2.3212548,5.0320802 2.4379042,5.182058 2.587882,5.3153716 2.7211956,5.432021 H 2.837845 L 3.3544352,4.7154604 H 3.421092 L 3.6043982,4.5321542 V 4.4488332 L 4.0376674,4.2321986 h 0.099985 C 4.0376674,4.432169 3.9376822,4.6154752 3.8043686,4.7987814 3.6543908,4.9820876 3.504413,5.1154012 3.337771,5.2487148 v 0.083321 l 0.066657,-0.049993 H 3.587734 C 3.087808,5.5653346 2.5712178,5.8152976 2.004635,6.098589 1.4547164,6.3818804 0.8881336,6.598515 0.2882224,6.7984854 L 0.13824461,6.7484928 h -0.083321 L 1.0547756,7.6150312 1.2714102,7.598367 1.3047386,7.4817176 3.3211068,6.4985298 h 0.066657 V 6.6985002 L 2.42124,7.6483596 2.337919,7.8150016 C 2.2212696,7.8649942 2.1212844,7.9149868 2.0212992,7.9983078 1.921314,8.0816288 1.8046646,8.1316214 1.6880152,8.1316214 L 1.5213732,8.2815992 1.8546572,9.0814808 3.587734,8.5815548 V 8.514898 L 3.8543612,8.4815696 V 8.3982486 H 4.004339 l 0.049993,1.1331656 C 4.0376674,9.9646834 4.0376674,10.414617 4.004339,10.847886 3.9710106,11.297819 3.921018,11.714424 3.8710254,12.114365 H 3.671055 L 3.3211068,11.631103 h -0.049993 c -0.033328,0.09999 -0.033328,0.199971 0,0.299956 0.016664,0.09999 0.049993,0.183306 0.083321,0.266627 h 0.083321 z m -2.1830102,-0.916531 0.2332988,-0.06666 0.1999704,-0.283291 h 0.066657 c 0.333284,-0.383277 0.5999112,-0.799882 0.7665532,-1.249815 0.1333136,-0.466598 0.333284,-0.8998668 0.583247,-1.333136 L 3.7710402,8.6148832 H 3.7377118 L 3.0711438,9.5480784 2.9544944,9.598071 2.9045018,9.7147204 2.754524,9.7813772 1.9546424,9.5814068 h -0.049993 l -0.583247,1.5497702 h -0.099985 l -0.083321,0.149978 v 0.09999 l 0.083321,0.01666 0.166642,0.349948 h 0.066657 l 0.049993,0.116649 0.2332988,0.149978 v 0.06666 z M 3.8543612,7.7483448 2.3712474,8.3815844 2.2046054,8.3315918 C 2.3712474,8.0816288 2.587882,7.8649942 2.8211808,7.6650238 3.0711438,7.4650534 3.3211068,7.265083 3.5544056,7.0817768 h 0.083321 L 3.8710254,7.598367 Z M 6.9205739,4.8821024 7.3871715,4.8987666 7.8537691,4.3988406 8.0537395,4.2155344 8.1703889,3.9988998 h 0.049993 C 8.2703741,3.9155788 8.3370309,3.848922 8.4203519,3.7822652 8.4870087,3.7322726 8.5203371,3.6656158 8.5203371,3.5489664 h 0.066657 L 8.8202927,3.2490108 8.9036137,3.1323615 h 0.066657 l 0.2666272,-0.249963 0.4332692,-0.4665976 0.1499778,-0.1333136 0.033328,-0.1166494 0.4332689,0.016664 0.01666,-0.083321 -0.01666,-0.1166494 0.03333,-0.1499778 V 1.6325835 h -0.04999 L 10.186757,1.4492773 10.070108,1.3992847 10.036779,1.2826353 C 9.8534731,1.1826501 9.6535027,1.1159933 9.4535323,1.0826649 9.2368977,1.0660007 9.0202631,0.99934387 8.8202927,0.93268707 L 8.5036729,1.0326723 C 8.4536803,1.1326575 8.4203519,1.2326427 8.4036877,1.3492921 8.3703593,1.4659415 8.3037025,1.5659267 8.2037173,1.6325835 L 8.0537395,1.5659267 h -0.033328 v 0.049993 h -0.083321 v 0.166642 h 0.083321 l 0.066657,0.1833062 C 7.9037617,2.4491293 7.7204555,2.9490553 7.5371493,3.4489812 7.3705073,3.9489072 7.1705369,4.432169 6.9205739,4.8821024 Z"
         id="path292" />
      <path
         d="m 26.201021,13.48083 0.31662,-0.149978 0.133313,-0.383277 0.349948,-0.01666 -0.04999,-0.433269 0.06666,-0.349948 -0.08332,-0.816546 0.133313,-1.4497856 -0.03333,-0.166642 0.04999,-0.1166494 -0.03333,-0.1999704 0.04999,-0.6332396 -0.03333,-0.2166346 0.06666,-0.6332396 0.349948,-0.2666272 0.133314,-0.333284 0.01666,-0.083321 C 27.384179,7.1650978 27.15088,7.0817768 26.95091,6.9984558 26.717611,6.9151348 26.484312,6.8151496 26.267678,6.6985002 l -0.183307,0.033328 -0.04999,0.099985 -0.266627,-0.016664 -0.06666,0.066657 L 25.28449,6.6985002 V 6.6485076 C 25.001198,6.765157 24.734571,6.8818064 24.484608,7.01512 24.217981,7.1650978 23.951354,7.265083 23.634734,7.348404 l -0.149978,0.1999704 -0.233299,0.099985 c 0.03333,0.1333136 0.06666,0.2666272 0.09999,0.416605 0.01666,0.166642 0.09999,0.2999556 0.19997,0.416605 l 0.416605,-0.083321 v -0.066657 l 0.933195,-0.4665976 0.299956,0.099985 0.09999,0.2832914 0.216635,0.049993 c 0.06666,0.2666272 0.133313,0.5665828 0.183306,0.8665384 0.03333,0.2999556 0.06666,0.5999112 0.08332,0.8998672 l -0.06666,1.833062 -0.149978,-0.04999 -1.233151,0.01666 -0.383276,-0.01666 0.399941,-0.616575 0.133313,-0.04999 0.266627,-0.383277 0.11665,-0.03333 c 0,-0.08332 0.03333,-0.116649 0.133313,-0.166642 0.08332,-0.04999 0.133314,-0.116649 0.149978,-0.216635 h 0.08332 l 0.133314,-0.09999 V 10.14799 L 24.65125,9.8980266 24.484608,9.9146908 c -0.149978,0.016664 -0.283291,0.016664 -0.399941,0.033328 -0.149977,0 -0.266627,-0.033328 -0.383276,-0.1166494 l 0.08332,-0.1499778 c 0.149978,-0.1166494 0.31662,-0.2332988 0.483262,-0.3499482 0.166642,-0.099985 0.366612,-0.166642 0.583247,-0.2166346 l 0.149977,-0.1833062 0.183307,-0.1166494 0.01666,-0.1499778 -0.183306,-0.033328 -0.199971,0.016664 -0.19997,-0.033328 c -0.183306,0.049993 -0.349948,0.083321 -0.51659,0.099985 -0.183307,0.033328 -0.333284,0.099985 -0.466598,0.1999704 l 0.433269,0.1833062 v 0.1166494 l -0.666568,0.583247 c 0,0.099985 0.01666,0.166642 0.06666,0.2499626 0.01666,0.08332 0.06666,0.149978 0.133314,0.216635 l 0.566582,0.166642 -0.566582,0.933195 -0.283292,0.11665 -0.283291,0.266627 -0.149978,0.283291 0.63324,0.733225 1.449785,-0.116649 h 0.283291 l 0.183307,0.166642 h 0.06666 l 0.09999,0.266627 0.416605,0.366612 z m -3.832766,-1.299808 0.09999,0.01666 v -0.09998 l 0.166642,-0.01666 v -0.349948 l 0.116649,0.01666 v -0.08332 l 0.09999,-0.06666 c 0.01666,-0.449933 -0.01666,-0.883203 -0.06666,-1.283143 -0.04999,-0.383277 -0.249963,-0.7332252 -0.599911,-1.049845 l -0.166642,-0.083321 -0.31662,-0.3499482 -0.04999,-0.016664 0.433269,1.2331504 c -0.01666,0.166642 -0.03333,0.349949 -0.08332,0.533255 -0.04999,0.166642 -0.149977,0.349948 -0.283291,0.499926 l 0.08332,0.183306 -0.03333,0.08332 0.233298,0.616575 0.09999,0.01666 v 0.06666 l 0.266627,0.08332 z m -4.182714,-0.31662 0.683232,-0.533254 c 0.09999,-0.133314 0.19997,-0.249963 0.299955,-0.366613 0.08332,-0.09999 0.149978,-0.19997 0.199971,-0.316619 l 0.133313,-0.01666 0.08332,-0.166642 0.08332,-0.01666 0.649904,-0.6665678 0.01666,-0.099985 h 0.09999 l 0.03333,-0.1166494 h 0.08332 l 0.483262,-0.583247 0.216634,-0.099985 0.283292,-0.3499482 h 0.08332 l 0.31662,-0.249963 0.166642,-0.2166346 0.283291,-0.1499778 0.03333,-0.1166494 h 0.06666 v -0.083321 l 0.09999,-0.016664 0.333284,-0.249963 0.133314,-0.1499778 0.183306,0.049993 h 0.133314 l -0.08332,-0.1166494 c 0.01666,-0.083321 0.06666,-0.1833062 0.149978,-0.2832914 0.04999,-0.083321 0.09999,-0.1833062 0.116649,-0.2999556 l -0.01666,-0.166642 v -0.066657 c 0.283291,-0.099985 0.583247,-0.166642 0.899867,-0.1999704 0.316619,-0.033328 0.583247,-0.1499778 0.83321,-0.3666124 l 0.06666,-0.099985 0.166642,-0.099985 -0.06666,-0.1333136 V 5.432021 h 0.06666 L 25.117848,5.3153716 c -0.333284,0.033328 -0.683232,0.083321 -1.016516,0.166642 -0.349949,0.083321 -0.649904,0.1833062 -0.94986,0.3166198 l -0.133313,-0.016664 0.01666,-0.083321 0.71656,-0.3499482 1.066509,-0.6499038 0.04999,-0.099985 0.133313,-0.066657 0.08332,-0.083321 0.233299,-0.049993 0.149978,-0.3499482 0.216635,-0.099985 -0.06666,-0.2166346 -0.499926,-0.166642 c -0.199971,0.066657 -0.399941,0.099985 -0.616576,0.1166494 -0.216634,0.016664 -0.416605,0.049993 -0.616575,0.1333136 l -0.09999,-0.016664 c 0.01666,-0.099985 0.06666,-0.2166346 0.116649,-0.3166198 0.04999,-0.083321 0.09999,-0.1833062 0.166642,-0.2666272 0.233299,-0.083321 0.499926,-0.1666419 0.766553,-0.2166345 0.249963,-0.066657 0.516591,-0.1166494 0.783218,-0.166642 l 0.483262,-0.2832914 -0.09999,-0.016664 0.04999,-0.166642 0.116649,-0.033328 -0.04999,-0.099985 -1.066509,-0.4332692 -0.433269,0.1999704 -0.03333,0.083321 -0.116649,0.049993 -0.283291,-0.083321 V 1.9325391 l 0.549918,-0.3832766 0.166642,-0.083321 0.03333,-0.099985 0.283291,-0.1166494 0.03333,-0.083321 0.366613,-0.18330623 0.08332,-0.1499778 c 0.08332,0 0.149978,-0.0333284 0.19997,-0.083321 0.04999,-0.0499926 0.08332,-0.083321 0.11665,-0.13331359 v -0.2166346 l -0.883203,-0.3666124 c -0.149978,-0.0333283977 -0.299956,-0.0333283977 -0.449933,0 -0.166642,0.0499926 -0.333284,0.083321 -0.499926,0.1166494 l 0.616575,0.2999556 c -0.04999,0.249963 -0.149978,0.49992599 -0.266627,0.74988902 -0.133314,0.249963 -0.299956,0.4665976 -0.499926,0.6832322 l -0.233299,-0.049993 c -0.06666,0 -0.116649,0 -0.166642,0.016664 -0.04999,0.016664 -0.08332,0.033328 -0.09999,0.066657 l -0.233299,-0.033328 -0.166642,-0.016664 -0.03333,0.083321 c -0.399941,0.249963 -0.816546,0.4832618 -1.199823,0.6998964 -0.416605,0.2166346 -0.799881,0.3832766 -1.199822,0.5332543 l -0.06666,0.1333136 -0.116649,0.033328 -0.216635,0.2999556 0.06666,0.4499334 h 0.08332 v 0.1499778 l 0.166642,0.099985 0.08332,0.099985 h 0.133313 v -0.066657 c 0.31662,0 0.566583,-0.083321 0.816546,-0.2332988 0.249963,-0.1499778 0.466598,-0.2832914 0.716561,-0.3832766 h 0.133313 l -0.04999,0.1833062 c -0.31662,0.2166346 -0.63324,0.416605 -0.983188,0.5665828 -0.333284,0.1833062 -0.699896,0.333284 -1.03318,0.4832618 l -0.09999,0.099985 h -0.08332 l -0.03333,0.2166346 0.283291,0.6998964 0.183307,-0.1166494 1.166494,-0.5332544 h 0.133313 l -0.183306,0.3666124 c -0.216635,0.1333136 -0.399941,0.2666272 -0.583247,0.416605 -0.19997,0.1499778 -0.416605,0.2666272 -0.616575,0.333284 l -0.216635,0.1833062 -0.08332,0.1499778 c -0.01666,0.1333136 0,0.2666272 0.04999,0.3666124 0.03333,0.1333136 0.08332,0.2666272 0.149977,0.3832766 l 0.483262,-0.166642 h 0.09999 c -0.366612,0.7832174 -0.783217,1.5497706 -1.283143,2.2829954 -0.499926,0.749889 -1.049845,1.483114 -1.616427,2.18301 z m 2.532958,-8.8486899 c 0.08332,0 0.133314,-0.016664 0.183306,-0.066657 0.03333,-0.049993 0.04999,-0.099985 0.04999,-0.1833062 l 0.366612,-0.083321 -0.09999,-0.2832914 -0.01666,-0.099985 h 0.116649 v -0.066657 l 0.06666,0.016664 V 2.2158305 L 21.168432,2.0491885 C 21.11844,1.9991959 21.051783,1.9325391 21.00179,1.8658823 20.951798,1.8158897 20.935134,1.7492329 20.985126,1.6659119 l -0.133313,0.083321 H 20.668506 V 1.6659119 L 20.301894,1.3492921 19.96861,1.1326575 c 0.01666,0.2166346 0.04999,0.416605 0.09998,0.6165754 0.04999,0.2166346 0.11665,0.4332692 0.199971,0.6165754 l 0.08332,0.016664 0.03333,0.1333136 h 0.09999 l 0.04999,0.3166198 0.133313,0.016664 z"
         id="path294" />
      <path
         d="m 36.399479,13.397509 h 0.116649 l 0.04999,-0.11665 c -0.11665,-0.383276 -0.233299,-0.749889 -0.349949,-1.14983 -0.116649,-0.383276 -0.19997,-0.783217 -0.233298,-1.199822 -0.03333,-0.766553 0.01666,-1.499778 0.166642,-2.1996744 0.149977,-0.6998964 0.466597,-1.333136 0.933195,-1.9330472 V 6.4485372 L 36.516128,6.931799 h -0.133314 c 0.04999,-0.3832766 0.11665,-0.7332248 0.166642,-1.083173 0.04999,-0.333284 0.08332,-0.6832322 0.133314,-1.0165162 0.19997,-0.049993 0.383277,-0.1333136 0.566583,-0.249963 0.149978,-0.1166494 0.333284,-0.1833062 0.549918,-0.1833062 l 0.233299,-0.1999704 0.06666,-0.1166494 c 0,-0.1499778 -0.03333,-0.2999556 -0.06666,-0.3999408 C 37.982578,3.5656306 37.932585,3.432317 37.899257,3.3156676 37.765943,3.1990182 37.615965,3.1323615 37.465987,3.0823689 37.332674,3.0490405 37.166032,3.0157121 37.016054,2.9823837 l -0.08332,-0.3999408 0.03333,-0.1166494 C 37.016054,2.1991663 37.016054,1.9158749 36.932733,1.6659119 36.849412,1.4326131 36.766091,1.1993143 36.716098,0.96601547 36.549456,0.89935867 36.36615,0.83270187 36.149516,0.76604507 35.949545,0.69938828 35.749575,0.63273148 35.53294,0.58273888 h -0.166642 c 0.233299,0.26662719 0.383277,0.54991862 0.449934,0.89986682 0.04999,0.333284 0.09999,0.666568 0.116649,0.9831878 L 35.866224,3.598959 C 35.316306,3.9155788 34.783051,4.2155344 34.249797,4.4654974 33.716542,4.7487888 33.133295,4.9487592 32.51672,5.0654086 v 0.099985 l -0.149978,0.033328 0.03333,0.1166494 c 0.116649,0.083321 0.19997,0.166642 0.316619,0.2166346 0.09999,0.066657 0.216635,0.099985 0.349949,0.099985 v 0.083321 l 0.849874,0.4832618 c 0.31662,-0.049993 0.599911,-0.1499778 0.866538,-0.2666272 0.266627,-0.1166494 0.51659,-0.2666272 0.783218,-0.4499334 h 0.149977 l -0.01666,1.9830398 C 35.316306,7.7483448 34.949693,8.0316362 34.599745,8.348256 34.266461,8.6648758 33.899849,8.9981598 33.5499,9.3314438 v 0.083321 h -0.08332 v 0.066657 h -0.06666 v 0.083321 h -0.08332 l -0.483262,0.5999114 -0.416605,0.19997 v 0.149978 l 0.533254,0.383277 0.199971,0.316619 0.133313,0.01666 0.249963,-0.03333 c 0.283292,-0.349948 0.583247,-0.633239 0.933195,-0.916531 0.31662,-0.2832912 0.649904,-0.5499184 0.966524,-0.849874 V 9.348108 l 0.116649,-0.066657 h 0.08332 l 0.01667,1.9330468 0.09998,0.616576 v 0.19997 l -0.433269,-0.166642 -0.31662,-0.483262 -0.08332,-0.03333 h -0.08332 l 0.449933,0.933195 0.466598,0.549919 z M 47.364522,12.84759 47.731134,12.797597 47.447843,12.630955 46.68129,12.247679 C 45.981393,11.781081 45.264833,11.347812 44.564936,10.914543 43.848376,10.514602 43.181808,9.9980118 42.548568,9.4147648 42.765203,8.931503 42.948509,8.4482412 43.165144,7.9649794 43.365114,7.4983818 43.565085,7.01512 43.731727,6.4985298 l 0.316619,-0.066657 0.06666,-0.2332988 c 0,-0.1333136 -0.01666,-0.2666272 -0.03333,-0.3832766 -0.03333,-0.099985 -0.08332,-0.2166346 -0.166642,-0.3166198 l -0.899867,-0.2832914 -0.133314,0.016664 -0.116649,0.166642 -0.849874,0.416605 h -0.11665 C 42.148628,5.598663 42.481912,5.3153716 42.83186,5.015416 43.165144,4.6987962 43.531756,4.432169 43.915033,4.265527 l 0.233299,0.049993 h 0.299955 l 0.03333,-0.166642 c 0.03333,-0.2166346 0,-0.3832766 -0.08332,-0.5165902 -0.08332,-0.1499778 -0.133314,-0.3166198 -0.183307,-0.4999259 l -0.899866,-0.416605 -0.199971,0.049993 h -0.116649 c 0,-0.2166346 0.03333,-0.416605 0.09998,-0.5999112 0.06666,-0.1999704 0.116649,-0.3832766 0.166642,-0.5499186 L 43.498428,1.4159489 43.631741,1.1826501 V 0.93268707 h -0.09998 l 0.04999,-0.2166346 v -0.083321 l -0.08332,-0.0333284 -0.03333,-0.2332988 -0.783217,-0.1999704 h -0.233299 c -0.133313,0.1333136 -0.283291,0.2666272 -0.499926,0.3832766 -0.216634,0.1166494 -0.399941,0.26662719 -0.533254,0.39994079 l -0.08332,0.11664943 h -0.08332 l -0.983188,1.0331804 v 0.1166494 h 0.19997 v 0.099985 l 0.683233,-0.3166198 v -0.066657 l 0.916531,-0.249963 h 0.08332 l -0.01667,0.3666124 c 0,0.2999556 0.04999,0.583247 0.149978,0.8665384 0.09998,0.2666271 0.249963,0.5165901 0.466598,0.7498889 l 0.01666,0.2166346 h -0.08332 l -1.14983,1.6330916 h -0.08332 L 40.948805,6.0652606 40.84882,6.265231 c -0.09999,0.049993 -0.19997,0.1166494 -0.283291,0.1833062 -0.09999,0.049993 -0.216635,0.083321 -0.349949,0.083321 l -0.09999,0.1499778 v 0.033328 h 0.06666 v 0.1833062 h -0.09998 L 40.21558,7.348404 v 0.083321 l -0.766553,-0.1499778 -0.433269,0.049993 v 0.083321 l -0.249963,0.033328 0.04999,0.1166494 1.283143,0.5165902 c 0.266627,0.249963 0.51659,0.499926 0.733225,0.7832174 0.19997,0.2999556 0.416605,0.5665828 0.649904,0.83321 l -0.09999,0.2332988 c -0.266627,0.333284 -0.566582,0.583247 -0.916531,0.716561 -0.349948,0.149977 -0.699896,0.283291 -1.03318,0.416605 l 0.06666,0.19997 0.166642,0.03333 v 0.06666 l 0.299955,0.08332 c 0.31662,-0.03333 0.616576,-0.09999 0.883203,-0.183306 0.283291,-0.08332 0.533254,-0.249963 0.749889,-0.499926 v -0.06666 l 0.116649,-0.04999 0.233299,-0.333284 0.416605,0.19997 v 0.08332 c 0.733225,0.63324 1.516442,1.116501 2.382981,1.483114 0.849874,0.383276 1.716412,0.633239 2.616279,0.766553 z M 42.015314,8.848182 41.981986,8.8815104 41.198768,7.9483152 40.865484,7.7483448 V 7.6316954 l 1.716413,-0.8832026 h 0.06666 c -0.04999,0.3832766 -0.11665,0.7165606 -0.233299,1.0665088 -0.11665,0.333284 -0.249963,0.666568 -0.399941,0.9831878 z M 39.932289,5.7986334 h 0.149978 l 0.08332,-0.416605 -0.03333,-0.1333136 0.03333,-0.416605 -0.03333,-0.2332988 0.03333,-0.499926 C 40.148924,3.8655862 40.148924,3.6656158 40.115595,3.4489812 40.065603,3.2323466 39.982282,3.0323763 39.865632,2.8657343 L 39.365706,2.5991071 h -0.03333 l -0.03333,0.083321 0.03333,0.033328 c -0.01666,0.1833062 -0.04999,0.3666124 -0.09998,0.5499185 -0.04999,0.1999704 -0.133314,0.3666124 -0.249963,0.499926 l 0.04999,0.6165754 h 0.03333 l 0.366612,0.9498594 0.133314,0.049993 0.08332,0.2332988 0.116649,0.066657 z"
         id="path296" />
      <path
         d="m 53.313607,12.630955 v -0.116649 l 0.366612,-0.03333 c -0.04999,-0.549919 -0.09999,-1.116502 -0.149977,-1.66642 -0.04999,-0.533255 -0.08332,-1.0998376 -0.06666,-1.6830846 -0.03333,-0.5165902 -0.01666,-0.999852 0.06666,-1.4664496 0.08332,-0.4832618 0.249963,-0.916531 0.51659,-1.2831434 v -0.166642 h -0.01666 L 53.76354,6.5651866 h -0.08332 l 0.09999,-0.6499038 h 0.08332 c 0,-0.1333136 0,-0.249963 0.01666,-0.3832766 0.01666,-0.1166494 0.04999,-0.2332988 0.09999,-0.333284 l -0.03333,-0.7165606 0.04999,-0.166642 c 0.166642,-0.083321 0.349948,-0.166642 0.533255,-0.249963 0.183306,-0.083321 0.366612,-0.1499778 0.583247,-0.166642 -0.09999,-0.1166494 -0.249963,-0.1833062 -0.416605,-0.1833062 -0.199971,0 -0.383277,-0.016664 -0.533255,-0.083321 h -0.216634 l -0.03333,0.2832914 C 53.730212,3.8989146 53.580234,3.8322578 53.430256,3.7489368 53.296943,3.68228 53.146965,3.6156232 52.996987,3.5822948 h -0.333284 l 0.183306,0.7165606 v 0.099985 C 52.180441,4.6321394 51.563866,4.932095 50.963955,5.265379 50.364044,5.6153272 49.71414,5.8819544 49.030908,6.0819248 c 0.09999,0.1499778 0.216634,0.2832914 0.383276,0.3832766 0.166642,0.099985 0.333284,0.1833062 0.499926,0.249963 l 0.383277,-0.1166494 0.333284,0.033328 0.233299,0.016664 v -0.066657 h 0.03333 V 6.4652014 h 0.11665 l 0.333283,-0.3166198 0.199971,-0.1499778 0.31662,-0.2999556 0.08332,-0.1166494 0.333284,-0.166642 h 0.09998 c -0.08332,0.6499038 -0.216635,1.2831434 -0.433269,1.916383 -0.199971,0.6332396 -0.483262,1.2331508 -0.816546,1.7664052 l -0.216635,0.166642 -0.09998,0.1999704 0.11665,0.1999704 0.266627,0.4832622 0.216634,-0.03333 0.299956,0.03333 0.08332,-0.2832918 0.216634,-0.2166346 0.08332,-0.1499778 h 0.06666 l 0.666568,-0.9331952 c 0.06666,0.2832914 0.09998,0.6332396 0.11665,0.999852 0.01666,0.3832766 0.03333,0.7498894 0.06666,1.0831734 v 0.583247 l -0.366612,-0.383277 h -0.06666 l 0.04999,1.166494 0.09998,0.03333 0.149978,0.183307 h 0.08332 v 0.08332 l 0.116649,0.116649 z m 8.282107,0.04999 h 0.149978 c 0.216635,-0.616575 0.416605,-1.216487 0.599911,-1.816398 0.166642,-0.599911 0.31662,-1.2164864 0.43327,-1.8663902 h 0.06666 L 63.078828,7.681688 63.228806,7.6150312 63.195478,7.3817324 C 63.028836,7.1984262 62.795537,7.098441 62.545574,7.01512 62.295611,6.9484632 62.045648,6.8651422 61.829013,6.765157 61.37908,6.8318138 60.912482,6.8984706 60.42922,6.9484632 c -0.466597,0.049993 -0.916531,0.166642 -1.366464,0.2999556 -0.09999,-0.016664 -0.166642,-0.049993 -0.233299,-0.083321 -0.08332,-0.049993 -0.166642,-0.083321 -0.266627,-0.099985 h -0.08332 v 0.066657 L 57.629635,7.598367 v 0.083321 l -0.283292,0.1166494 -0.233298,-0.033328 -0.199971,0.033328 c -0.01666,0.1333136 0,0.2666272 0.08332,0.3666124 0.06666,0.099985 0.11665,0.2166346 0.133314,0.3499482 l 0.116649,0.099985 c 0.183306,0 0.333284,-0.016664 0.499926,-0.049993 0.166642,-0.016664 0.333284,-0.066657 0.466598,-0.1499778 v -0.083321 l 0.366612,-0.1833062 0.06666,-0.1166494 0.166642,-0.049993 v -0.066657 c 0.31662,-0.1333136 0.649904,-0.249963 0.983188,-0.3499482 0.349948,-0.099985 0.683232,-0.166642 1.049844,-0.2166346 l 0.43327,0.033328 c 0,0.099985 0.03333,0.1999704 0.09999,0.2999556 0.06666,0.099985 0.116649,0.1833062 0.166642,0.249963 -0.01666,0.6499038 -0.06666,1.2998076 -0.166642,1.916383 -0.09999,0.616575 -0.283292,1.216487 -0.51659,1.783069 l -0.383277,-0.116649 h -0.149978 v 0.166642 l 0.149978,0.116649 0.183306,0.31662 h 0.06666 l 0.19997,0.31662 h 0.04999 v 0.08332 c 0.116649,0.01666 0.216635,0.03333 0.333284,0.04999 0.116649,0.01666 0.19997,0.06666 0.283291,0.116649 z M 57.21303,11.18117 h 0.116649 c -0.04999,-0.233299 -0.09998,-0.466598 -0.133313,-0.699896 -0.03333,-0.249963 -0.09999,-0.4832622 -0.199971,-0.6998968 h -0.08332 V 9.7147204 C 56.813089,9.6647278 56.69644,9.5814068 56.596454,9.4980858 56.496469,9.4147648 56.37982,9.3647722 56.26317,9.348108 V 9.264787 C 56.113193,9.181466 55.946551,9.0814808 55.779909,8.9981598 55.613267,8.9148388 55.446625,8.8148536 55.279983,8.7315326 h -0.04999 c 0.149978,0.249963 0.299956,0.499926 0.483262,0.7165606 0.183306,0.249963 0.283291,0.499926 0.299955,0.7998818 l -0.03333,0.283291 h -0.08332 v 0.03333 h 0.08332 l 0.09999,0.133313 0.11665,0.11665 0.383276,0.233298 0.183306,-0.01666 z m 0.999852,-0.183306 0.233299,-0.03333 0.233298,0.03333 h 0.149978 l -0.31662,-0.783218 v -0.08332 l 0.399941,0.466598 0.133314,0.08332 0.133313,-0.03333 0.183307,0.06666 h 0.06666 l 0.01667,-0.06666 0.566582,-0.233299 v -0.149978 h -0.116649 l 0.116649,-0.2666272 0.266628,-0.166642 0.06666,-0.1166494 0.11665,-0.033328 0.166642,-0.2999556 h 0.08332 L 60.829161,9.0481524 60.779169,8.931503 C 60.662519,8.8315178 60.512541,8.764861 60.362564,8.7315326 60.22925,8.6982042 60.062608,8.6482116 59.91263,8.598219 c -0.283291,0.049993 -0.533254,0.1333136 -0.799881,0.2332988 -0.266628,0.099985 -0.533255,0.2166346 -0.783218,0.333284 l 0.416605,0.1333136 0.383277,-0.033328 h 0.06666 l -0.249963,0.4665976 -0.216635,0.1166494 -0.183306,0.249963 h -0.08332 L 58.04624,9.4147648 57.52965,9.1148092 h -0.199971 c 0.03333,0.2332988 0.08332,0.4832618 0.133314,0.7332248 0.04999,0.233299 0.09999,0.466598 0.216634,0.699896 z m -5.582507,-3.1328698 -0.04999,0.033328 -0.03333,-0.033328 0.299955,-0.5665828 h 0.06666 c 0.01666,0.1333136 -0.01666,0.2332988 -0.09998,0.3166198 -0.08332,0.083321 -0.149978,0.166642 -0.183306,0.249963 z m 4.932603,-1.6330916 0.19997,-0.083321 0.349949,0.099985 h 0.06666 l 0.03333,-0.1499778 -0.11665,-0.6832322 v -0.033328 l 0.09999,0.033328 0.06666,0.2666272 0.199971,0.1499778 L 58.7628,5.765305 V 5.681984 c 0.133314,-0.016664 0.233299,-0.066657 0.349949,-0.1166494 0.116649,-0.049993 0.216634,-0.1333136 0.333284,-0.249963 l -0.04999,-0.1833062 -0.149978,0.033328 -0.266627,-0.016664 v -0.099985 l 0.533254,-0.249963 0.06666,-0.1166494 c 0.09998,0 0.216635,-0.033328 0.299956,-0.083321 0.08332,-0.049993 0.166642,-0.099985 0.249963,-0.1499778 v -0.049993 l 0.116649,-0.049993 c 0.03333,-0.033328 0.08332,-0.083321 0.133314,-0.166642 0.03333,-0.083321 0.04999,-0.1499778 0.04999,-0.2332988 h 0.06666 l 0.04999,-0.083321 V 3.6989442 C 60.462549,3.5822948 60.329235,3.515638 60.195922,3.4989738 60.045944,3.4823096 59.895966,3.4489812 59.762652,3.3989886 l -0.249963,0.049993 v 0.033328 c -0.249963,0.049993 -0.499926,0.1499778 -0.733224,0.249963 -0.249963,0.1166494 -0.516591,0.2332988 -0.749889,0.333284 v 0.033328 l 0.283291,0.1166494 0.599911,-0.1499778 h 0.11665 l -0.366613,0.6332396 -0.499926,0.2832914 -0.03333,0.1333136 c -0.08332,0.016664 -0.133314,0.016664 -0.183306,-0.016664 -0.04999,-0.016664 -0.08332,-0.066657 -0.08332,-0.1333136 h -0.08332 L 57.679627,4.7321246 C 57.579642,4.6488036 57.479657,4.5821468 57.363008,4.51549 57.229694,4.4488332 57.09638,4.3988406 56.963067,4.3988406 l -0.366613,-0.016664 0.299956,0.1833062 c 0.133314,0.2832914 0.216635,0.5665828 0.266627,0.8665384 0.03333,0.3166198 0.166642,0.5665828 0.399941,0.7998816 z M 56.829753,3.598959 c 0.31662,-0.1499778 0.63324,-0.2832914 0.94986,-0.3999408 0.333284,-0.099985 0.649903,-0.1833061 0.983187,-0.2999555 v -0.066657 l 0.549919,-0.1333136 v -0.083321 c 0.266627,-0.049993 0.51659,-0.1166494 0.783217,-0.1999704 0.233299,-0.066657 0.499926,-0.083321 0.783218,-0.049993 V 2.1158453 C 60.679183,1.9825317 60.462549,1.8992107 60.245914,1.8658823 60.012615,1.8325539 59.795981,1.7492329 59.59601,1.6325835 l -0.216634,0.033328 v 0.033328 h -0.08332 l -0.03333,0.083321 c -0.233298,0.1499778 -0.449933,0.2666272 -0.699896,0.3666124 -0.249963,0.099985 -0.483262,0.1833062 -0.749889,0.2832914 h -0.116649 l 0.04999,-0.1499778 c 0.149978,-0.016664 0.299956,-0.083321 0.433269,-0.2166346 0.09999,-0.1166494 0.249963,-0.1999704 0.399941,-0.2166346 l 0.04999,-0.083321 c 0.116649,-0.049993 0.249963,-0.099985 0.366612,-0.1499778 0.11665,-0.033328 0.233299,-0.083321 0.333284,-0.166642 L 59.312719,1.2159785 58.962771,0.83270187 58.746136,0.71605247 58.712808,0.59940308 58.162889,0.41609688 h -0.19997 v 0.0666568 h 0.08332 v 0.083321 l 0.366612,0.48326182 -0.233299,0.6332396 h -0.08332 l -0.416605,0.5665828 -0.733224,0.4832618 -0.249963,-0.083321 -0.233299,0.066657 0.03333,0.2999556 h 0.08332 l 0.183306,0.5499185 z M 51.780501,3.182354 52.647039,2.6657639 v -0.066657 l 0.416605,-0.1166494 0.04999,-0.1166494 c 0.149977,-0.049993 0.299955,-0.1166494 0.449933,-0.1999704 0.149978,-0.083321 0.31662,-0.1333136 0.483262,-0.1499778 v -0.083321 c 0.183306,-0.083321 0.383276,-0.1166494 0.599911,-0.1166494 0.19997,0.016664 0.399941,-0.033328 0.583247,-0.1333136 L 55.113341,1.3492921 C 54.91337,1.2159785 54.730064,1.0826649 54.530094,0.96601547 54.313459,0.86603027 54.096824,0.78270927 53.88019,0.73271667 l -0.349948,0.0333284 v 0.166642 l -0.83321,1.13316563 -0.349949,0.5332544 h -0.08332 l -0.51659,0.499926 z"
         id="path298" />
    </g>
    <text
       xml:space="preserve"
       transform="scale(0.26458333)"
       id="text266"
       style="font-size:53.3333px;font-family:KouzanBrushFontGyousyoOTF;-inkscape-font-specification:KouzanBrushFontGyousyoOTF;white-space:pre;shape-inside:url(#rect268);display:inline;fill:#000000" />
  </g>
</svg>
