<?xml version="1.0" encoding="UTF-8" standalone="no"?>
<!-- Created with Inkscape (http://www.inkscape.org/) -->

<svg
   width="25.000999mm"
   height="7mm"
   viewBox="0 0 25.000999 7"
   version="1.1"
   id="svg5"
   inkscape:version="1.2.2 (b0a8486, 2022-12-01)"
   sodipodi:docname="newsessionsLOGO.svg"
   xmlns:inkscape="http://www.inkscape.org/namespaces/inkscape"
   xmlns:sodipodi="http://sodipodi.sourceforge.net/DTD/sodipodi-0.dtd"
   xmlns="http://www.w3.org/2000/svg"
   xmlns:svg="http://www.w3.org/2000/svg">
  <sodipodi:namedview
     id="namedview7"
     pagecolor="#ffffff"
     bordercolor="#000000"
     borderopacity="0.25"
     inkscape:showpageshadow="2"
     inkscape:pageopacity="0.0"
     inkscape:pagecheckerboard="0"
     inkscape:deskcolor="#d1d1d1"
     inkscape:document-units="mm"
     showgrid="false"
     inkscape:zoom="4.7488465"
     inkscape:cx="85.389157"
     inkscape:cy="34.850568"
     inkscape:window-width="1440"
     inkscape:window-height="771"
     inkscape:window-x="1080"
     inkscape:window-y="1616"
     inkscape:window-maximized="0"
     inkscape:current-layer="layer1" />
  <defs
     id="defs2">
    <rect
       x="-1.8951972"
       y="4.0009718"
       width="213.31496"
       height="77.703079"
       id="rect268" />
  </defs>
  <g
     inkscape:label="Layer 1"
     inkscape:groupmode="layer"
     id="layer1">
    <path
       style="fill:none;fill-rule:evenodd;stroke:#000000;stroke-width:0.21864px;stroke-linecap:butt;stroke-linejoin:miter;stroke-opacity:1"
       d="m 4.4186655,7.736698 v 0"
       id="path208"
       inkscape:connector-type="polyline"
       inkscape:connector-curvature="0" />
    <g
       aria-label="新規登録"
       transform="scale(0.90044726,1.1105592)"
       id="text214"
       style="font-size:7.29448px;font-family:KouzanBrushFontGyousyoOTF;-inkscape-font-specification:KouzanBrushFontGyousyoOTF;stroke-width:0.136772">
      <path
         d="m 4.6095464,6.2697267 c 0.072945,-0.051061 0.1094172,-0.1021227 0.1094172,-0.1750675 0,-0.072945 0.014589,-0.1458896 0.036472,-0.21154 L 4.770025,4.9421313 4.755436,4.9275424 4.770025,4.8400086 4.755436,4.7743583 4.7773195,4.6868246 4.755436,4.0157324 V 3.97926 h 0.029178 c 0.00729,-0.1094172 0.014589,-0.2261289 0.021883,-0.3355461 0.00729,-0.1094172 0.021883,-0.2115399 0.036472,-0.3136626 l -0.00729,-0.051061 c 0.014589,-0.1167116 0.036472,-0.2261288 0.043767,-0.350135 0.00729,-0.1094172 0.021883,-0.2188344 0.058356,-0.3209571 l 0.087534,-0.029178 -0.014589,-0.080239 0.021884,-0.051061 c 0.1021227,-0.036472 0.2042454,-0.06565 0.3136626,-0.087534 0.1021227,-0.021883 0.2188344,-0.036472 0.3355461,-0.058356 0.043767,-0.00729 0.072945,-0.029178 0.080239,-0.06565 0.00729,-0.029178 0.021883,-0.06565 0.036472,-0.1094172 V 2.0899897 H 5.7620743 C 5.7766632,2.0462228 5.7766632,2.0097504 5.7693687,1.973278 5.7547798,1.9368056 5.7401908,1.9076277 5.7183074,1.8711553 5.6526571,1.8346829 5.5797123,1.8127995 5.5067675,1.7909161 5.4411171,1.7763271 5.3681723,1.7471492 5.302522,1.7033823 l -0.051061,-0.00729 -0.036472,0.06565 C 4.937798,1.8273885 4.6751968,1.9149222 4.41989,2.0243394 4.1572887,2.1410511 3.9092764,2.2650572 3.6612641,2.4036524 3.5883193,2.3963579 3.5153745,2.3817689 3.4497241,2.3452965 3.3767793,2.3088241 3.311129,2.2869407 3.2454787,2.2650572 c -0.051061,0 -0.1167117,-0.00729 -0.182362,-0.014589 -0.058356,-0.00729 -0.1240061,0.00729 -0.1750675,0.058356 l 0.021883,0.051061 0.1677731,0.080239 c 0.072945,0.1167116 0.1094172,0.2480123 0.1094172,0.4011963 -0.00729,0.1458896 0,0.2990737 0.014589,0.4449633 l -0.029178,0.182362 0.021883,0.051061 c 0,0.1531841 -0.014589,0.2844847 -0.043767,0.4084908 -0.036472,0.1240062 -0.087534,0.2407179 -0.1531841,0.3574296 0.00729,0.080239 0.029178,0.167773 0.080239,0.2480123 0.043767,0.080239 0.094828,0.1531841 0.1604785,0.2188344 h 0.06565 L 3.325718,4.7160025 3.311129,4.6649411 C 3.3621904,4.3877509 3.4205462,4.1105606 3.4716076,3.8187814 3.5226689,3.5270023 3.5664358,3.2425175 3.5956137,2.9580328 l 0.3574296,-0.182362 c 0.036472,0.00729 0.06565,0.00729 0.094828,0.014589 0.029178,0.00729 0.051061,0.021883 0.072945,0.043767 l 0.036472,0.094828 0.1021227,0.06565 c 0.06565,0.5033191 0.1167117,1.0212272 0.1604786,1.5391353 0.036472,0.517908 0.1021227,1.0285216 0.1896564,1.5172518 z M 1.8449386,5.7445241 h 0.021883 c 0.021883,-0.364724 0.058356,-0.7221535 0.094828,-1.079583 0.036472,-0.364724 0.072945,-0.7221535 0.1094172,-1.079583 0.036472,-0.058356 0.094828,-0.1094172 0.167773,-0.1385951 0.06565,-0.036472 0.1313006,-0.072945 0.182362,-0.1240062 V 3.2716955 H 2.413908 V 3.2425175 L 2.1731902,3.1549838 2.0710675,2.9434439 1.9835337,2.9069715 1.9981227,2.8413211 2.1658957,2.7464929 2.4722638,2.520364 c 0.036472,-0.00729 0.06565,-0.021883 0.1021228,-0.036472 0.036472,-0.00729 0.058356,-0.029178 0.06565,-0.06565 L 2.5597976,2.2796462 C 2.5014418,2.2358793 2.428497,2.1994069 2.3555522,2.1921124 2.2680184,2.184818 2.1877791,2.170229 2.1221288,2.1483456 l 0.00729,-0.072945 c 0.06565,-0.00729 0.1313006,-0.036472 0.1969509,-0.087534 0.06565,-0.051061 0.1240062,-0.072945 0.1896565,-0.080239 V 1.8711553 L 2.59627,1.8565664 V 1.7690326 L 2.5160307,1.6814989 C 2.4503804,1.6304375 2.3920246,1.6012596 2.3117853,1.5793761 2.231546,1.5574927 2.1440123,1.5356093 2.0710675,1.4991369 H 1.9908282 L 1.8157607,1.623143 H 1.7719938 L 2.0564785,1.3021859 v -0.036472 l 0.051061,-0.021883 0.014589,-0.051061 c 0.058356,-0.036472 0.1167117,-0.072945 0.182362,-0.1094172 0.06565,-0.036472 0.1240062,-0.06565 0.1896565,-0.0948282 L 2.4576749,0.84992815 C 2.413908,0.79886679 2.3555522,0.76239439 2.2753129,0.74780543 2.1950736,0.73321647 2.1148343,0.71133303 2.0564785,0.69674407 v -0.0291779 l 0.094828,-0.0364724 V 0.46332072 L 2.0783619,0.38308144 C 1.9762392,0.31743112 1.8741165,0.25907528 1.7719938,0.20801393 1.6625766,0.15695257 1.5531594,0.11318569 1.4437422,0.06941881 l -0.051061,0.04376688 h -0.051061 v 0.014589 l 0.364724,0.30636815 c 0.036472,0.0364724 0.06565,0.0729448 0.094828,0.1094172 0.014589,0.0437669 0.029178,0.0875338 0.029178,0.13130064 L 1.866822,0.68215512 1.8157607,0.78427783 0.77265004,1.258419 v 0.021883 c 0.0802393,0.036472 0.15318408,0.051061 0.24801236,0.072945 0.094828,0.021883 0.1750675,0.036472 0.2698957,0.043767 C 1.2394968,1.4991369 1.1957299,1.6012596 1.137374,1.6887933 1.0790182,1.7836216 1.0060734,1.8784498 0.92583412,1.9513946 v 0.051061 c 0.0291779,0.06565 0.0729448,0.1385951 0.12400618,0.2042454 0.051061,0.06565 0.1167117,0.1240062 0.1750675,0.1750675 h 0.051061 L 1.502098,2.0681063 h 0.029178 l 0.080239,-0.080239 v -0.036472 l 0.1896565,-0.094828 h 0.043767 C 1.8011717,1.9441001 1.7574048,2.0243394 1.699049,2.1045787 1.6333987,2.184818 1.5677483,2.2431738 1.4948035,2.3015296 v 0.036472 l 0.029178,-0.021883 h 0.080239 C 1.3853863,2.4401248 1.1592575,2.549542 0.91124516,2.6735481 0.67052732,2.7975543 0.42251501,2.8923825 0.15991373,2.9799163 L 0.09426342,2.9580328 h -0.0364724 l 0.43766879,0.379313 0.0948282,-0.00729 0.014589,-0.051061 0.8826321,-0.4303743 h 0.029178 v 0.087534 l -0.4230798,0.4157853 -0.036472,0.072945 c -0.051061,0.021883 -0.0948283,0.043767 -0.13859516,0.080239 -0.0437669,0.036472 -0.0948282,0.058356 -0.1458896,0.058356 L 0.69970524,3.629125 0.84559484,3.97926 1.6042207,3.7604256 v -0.029178 l 0.1167117,-0.014589 v -0.036472 h 0.06565 l 0.021883,0.4960247 c -0.00729,0.1896564 -0.00729,0.3866074 -0.021883,0.5762639 -0.014589,0.1969509 -0.036472,0.3793129 -0.058356,0.5543804 H 1.6406931 L 1.4875091,5.0953154 h -0.021883 c -0.014589,0.043767 -0.014589,0.087534 0,0.1313007 0.00729,0.043767 0.021883,0.080239 0.036472,0.1167116 h 0.036472 z M 0.88936172,5.3433277 0.99148444,5.3141498 1.0790182,5.1901437 h 0.029178 C 1.2540857,5.0223706 1.3707974,4.8400086 1.4437422,4.6430577 1.502098,4.4388122 1.5896318,4.2491558 1.699049,4.0594993 L 1.68446,3.7750146 h -0.014589 l -0.2917792,0.4084908 -0.051061,0.021884 -0.021883,0.051061 -0.06565,0.029178 -0.35013508,-0.087534 H 0.86747828 L 0.61217148,4.876481 h -0.0437669 l -0.0364724,0.06565 v 0.043767 l 0.0364724,0.00729 0.0729448,0.1531841 h 0.0291779 l 0.0218834,0.051061 0.10212272,0.06565 v 0.029178 z M 1.7209324,3.3957016 1.0717237,3.6728919 0.99877892,3.6510084 C 1.0717237,3.5415912 1.166552,3.446763 1.2686747,3.3592292 1.3780919,3.2716955 1.4875091,3.1841617 1.5896318,3.1039224 h 0.036472 l 0.1021227,0.2261289 z m 1.3421843,-1.2546505 0.2042454,0.00729 0.2042455,-0.2188344 0.087534,-0.080239 0.051061,-0.094828 h 0.021883 c 0.021883,-0.036472 0.051061,-0.06565 0.087534,-0.094828 0.029178,-0.021883 0.043767,-0.051061 0.043767,-0.1021227 h 0.029178 l 0.1021227,-0.1313006 0.036472,-0.051061 h 0.029178 l 0.1167117,-0.1094172 0.1896565,-0.2042454 0.06565,-0.058356 0.014589,-0.0510613 0.1896564,0.007294 0.00729,-0.0364724 -0.00729,-0.0510614 0.014589,-0.0656503 V 0.71862751 H 4.5293072 L 4.4928348,0.63838824 4.4417734,0.6165048 4.4271844,0.56544344 C 4.3469452,0.52167656 4.2594114,0.49249864 4.1718776,0.47790968 4.0770494,0.4706152 3.9822212,0.44143728 3.8946874,0.41225936 l -0.1385951,0.0437669 c -0.021883,0.0437669 -0.036472,0.0875338 -0.043767,0.13859512 -0.014589,0.0510614 -0.043767,0.0948282 -0.087534,0.12400615 l -0.06565,-0.0291779 h -0.014589 v 0.0218834 H 3.50808 v 0.0729448 h 0.036472 l 0.029178,0.0802393 C 3.493491,1.076057 3.4132517,1.2948914 3.3330125,1.5137258 3.2600677,1.7325602 3.1725339,1.9441001 3.0631167,2.1410511 Z"
         id="path292" />
      <path
         d="M 9.0299874,5.7591131 9.1466991,5.7226407 9.2707052,5.5986345 v -0.029178 l 0.058356,-0.014589 c 0.058356,-0.094828 0.1167117,-0.1896565 0.182362,-0.2698958 0.06565,-0.072945 0.1167116,-0.167773 0.153184,-0.2626013 h 0.029178 C 9.7959078,4.8618921 9.905325,4.6868246 10.007448,4.5190515 10.094981,4.358573 10.197104,4.1907999 10.291932,4.0303214 h 0.02918 c 0.01459,-0.051061 0.04377,-0.080239 0.09483,-0.1021228 0.04377,-0.021883 0.08753,-0.036472 0.124006,-0.043767 V 3.7458367 h -0.03647 v -0.051061 l -0.07294,-0.072945 c -0.09483,0 -0.175068,-0.021883 -0.240718,-0.06565 -0.07294,-0.036472 -0.160479,-0.058356 -0.2480126,-0.058356 v -0.036472 l 0.6127366,-0.4011964 0.02188,-0.036472 c 0.05836,-0.036472 0.131301,-0.058356 0.204246,-0.072945 0.07294,-0.00729 0.138595,-0.043767 0.189656,-0.1021227 h 0.08753 l 0.09483,0.3136627 h 0.03647 l 0.06565,0.087534 c 0.02188,0.014589 0.03647,0.036472 0.05836,0.058356 0.02188,0.021883 0.04377,0.029178 0.08024,0.014589 v 0.036472 l 0.05836,0.051061 0.189656,0.1385951 0.189657,-0.014589 0.01459,-0.058356 C 11.816479,3.3008734 11.780006,3.1331003 11.728945,2.9507383 11.677884,2.7829653 11.656,2.5933088 11.656,2.3963579 c 0.01459,-0.1458896 0.02188,-0.2917792 0.02188,-0.4449633 0,-0.1458896 0.01459,-0.2990737 0.03647,-0.4303743 l -0.02188,-0.094828 0.03647,-0.1677731 0.05106,-0.036472 0.02188,-0.1458896 h 0.04377 l 0.07294,-0.13859509 -0.08753,-0.31366263 h -0.05106 v -0.0364724 l -0.233423,-0.0875338 v -0.0364724 c -0.05106,-0.0218834 -0.109417,-0.0364724 -0.175068,-0.0437669 -0.06565,-0.007294 -0.1313,-0.007294 -0.182362,-0.0218834 H 10.95573 l -0.335546,0.27719024 v 0.0218834 l 0.14589,0.014589 0.328251,-0.0364724 0.05836,0.0218834 c 0.0073,0.32095713 0.02188,0.64191423 0.04377,0.96287133 0.02188,0.3209571 0.03647,0.6492087 0.05836,0.9774603 v 0.2844847 l -0.06565,-0.021883 -0.07294,-0.1167117 0.01459,-0.087534 -0.01459,-0.094828 -0.196951,-0.06565 c -0.08753,-0.00729 -0.182362,0 -0.269896,0.021883 -0.08753,0.029178 -0.167773,0.072945 -0.240718,0.1385952 h -0.03647 v -0.058356 h 0.03647 l 0.320957,-0.350135 v -0.036472 h 0.03647 l 0.262601,-0.3136627 v -0.06565 l -0.335546,-0.072945 v -0.051061 c 0.08024,-0.072945 0.160478,-0.1385951 0.226129,-0.2188344 0.07294,-0.080239 0.138595,-0.1677731 0.196951,-0.2553068 v -0.087534 c -0.03647,-0.021883 -0.08024,-0.036472 -0.124007,-0.036472 -0.05106,0 -0.08753,-0.00729 -0.138595,-0.021883 -0.02188,0 -0.05106,0 -0.08753,-0.00729 -0.03647,-0.00729 -0.06565,0.00729 -0.07294,0.043767 -0.07295,0.014589 -0.153184,0.051061 -0.218835,0.1094172 -0.06565,0.051061 -0.138595,0.1021227 -0.196951,0.1385951 l -0.09483,0.1094172 -0.05106,-0.021883 -0.08753,-0.1896565 h -0.03647 V 1.273008 C 9.9345029,1.2219466 9.8542636,1.1708853 9.7813188,1.1125294 9.708374,1.0541736 9.6354292,1.0104067 9.5551899,0.97393431 h -0.021883 c 0.06565,0.0802393 0.1094172,0.16777299 0.1385951,0.26260129 0.029178,0.087534 0.036472,0.1896565 0.036472,0.2990737 -0.014589,0.1385951 -0.036472,0.2917792 -0.043767,0.4376687 -0.014589,0.1531841 -0.043767,0.2917792 -0.094828,0.4230799 L 9.6281347,2.549542 9.905325,2.8340267 9.6427237,3.1331003 9.6281347,3.1768672 h -0.058356 l 0.1896565,0.3939019 0.094828,-0.072945 h 0.036472 l 0.014589,0.072945 C 9.8323802,3.9573766 9.7156685,4.329395 9.5624844,4.6868246 9.4020059,5.0515485 9.2269384,5.4089781 9.0299874,5.7591131 Z M 11.429871,5.5183953 c 0.342841,-0.036472 0.685681,-0.072945 1.028522,-0.1021228 0.34284,-0.029178 0.663798,-0.094828 0.970166,-0.182362 l 0.01459,-0.1240061 0.09483,-0.014589 -0.02188,-0.058356 -0.05106,-0.014589 v -0.036472 h -0.05836 v -0.029178 h -0.03647 V 4.9202479 L 13.20243,4.8473031 13.129485,4.7743583 12.99089,4.723297 12.976301,4.6430577 h -0.07294 l -0.02188,-0.072945 -0.06565,-0.051061 -0.124006,-0.1969509 h -0.03647 l 0.02188,0.06565 c -0.01459,0.087534 -0.02918,0.1750675 -0.03647,0.2626013 -0.0073,0.080239 -0.02918,0.167773 -0.05106,0.2553067 -0.14589,0.072945 -0.29178,0.1385952 -0.452258,0.1750676 -0.153184,0.043767 -0.306368,0.087534 -0.459552,0.1385951 -0.09483,0.00729 -0.182362,0.00729 -0.277191,-0.014589 -0.09483,-0.014589 -0.182362,-0.036472 -0.269895,-0.072945 l -0.08753,-0.1458896 c 0.0073,-0.1167117 0.02188,-0.2407178 0.03647,-0.3574295 0.0073,-0.1240061 0.03647,-0.2334233 0.07294,-0.3355461 0,-0.094828 0,-0.1896564 -0.0073,-0.2698957 -0.0073,-0.080239 -0.03647,-0.1604786 -0.08753,-0.2261289 l -0.06565,-0.06565 -0.08753,0.014589 c -0.06565,0.1750675 -0.116712,0.350135 -0.14589,0.5397915 -0.03647,0.1896564 -0.06565,0.3793129 -0.08753,0.5616749 0.01459,0.072945 0.04377,0.1313006 0.08024,0.196951 0.03647,0.06565 0.07294,0.1313006 0.116711,0.1896564 0.08753,0.043767 0.182362,0.094828 0.277191,0.1604786 0.08024,0.06565 0.175067,0.1094172 0.284484,0.1240062 z M 7.184484,4.9858982 7.5783859,4.6430577 7.7461589,4.4461067 C 7.8191037,4.3221006 7.8847541,4.1907999 7.9431099,4.0667938 8.0014657,3.9500821 8.0452326,3.811487 8.081705,3.6728919 h 0.072945 l 0.1677731,0.1385951 0.058356,0.051061 0.1385951,0.021884 v 0.014589 l 0.014589,-0.014589 h 0.036472 v 0.014589 h 0.014589 L 8.6069076,3.796898 8.6944413,3.7750146 8.6798524,3.6947753 H 8.6579689 L 8.64338,3.6364195 8.4683125,3.5853581 V 3.5488857 H 8.4172511 V 3.5124133 L 8.2713615,3.4759409 V 3.432174 L 8.1984167,3.4102906 8.2932449,2.9726218 8.4537235,2.8340267 V 2.7975543 L 8.8695088,2.4474192 8.9424536,2.3744744 V 2.338002 l 0.051061,-0.014589 0.036472,-0.072945 h 0.051061 L 9.2196439,2.0972842 9.1831715,2.0097504 8.993515,1.9368056 8.7819751,1.9513946 8.4318401,2.2504683 h -0.036472 c 0.014589,-0.072945 0.021883,-0.1604786 0.021883,-0.2553068 0,-0.080239 0.014589,-0.167773 0.036472,-0.2480123 L 8.5704352,1.6523209 8.6069076,1.5720817 8.6579689,1.5574927 8.7819751,1.4116031 9.008104,1.3094804 9.0299874,1.273008 V 1.2219466 H 8.993515 V 1.1854742 C 8.9205702,1.1271184 8.8476254,1.090646 8.7746806,1.076057 8.6944413,1.0687625 8.6214965,1.0395846 8.5485517,0.99581775 l -0.167773,0.029178 -0.087534,-0.014589 -0.036472,-0.0729448 -0.2844847,-0.10212272 -0.1167117,0.014589 c 0.043767,0.0510614 0.072945,0.10212272 0.094828,0.15318405 0.014589,0.043767 0.029178,0.1021227 0.043767,0.1604786 L 7.9576989,1.273008 C 7.8409872,1.3240693 7.73157,1.3751307 7.6221528,1.4480755 7.5200301,1.5210203 7.4106129,1.5793761 7.2866067,1.623143 v 0.06565 l 0.072945,0.021884 v 0.051061 l 0.051061,0.051061 0.2261288,0.094828 0.3209572,-0.021883 0.1094172,0.021883 0.014589,0.029178 -0.072945,0.196951 v 0.014589 l 0.021884,-0.014589 h 0.036472 L 8.0452326,2.5641309 C 7.9649933,2.6297812 7.8847541,2.6954316 7.8118093,2.7756708 7.73157,2.8486156 7.6440362,2.899677 7.5565025,2.9361494 v 0.014589 l -0.1750675,0.036472 -0.021883,0.058356 -0.036472,0.014589 c 0.014589,0.06565 0.043767,0.1094172 0.087534,0.1531841 0.036472,0.051061 0.058356,0.1094172 0.058356,0.182362 l 0.051061,0.014589 0.021883,0.06565 0.06565,0.036472 h 0.06565 L 7.6950976,3.4102906 7.899343,3.3081679 h 0.036472 v 0.072945 H 7.8847541 L 7.899343,3.432174 C 7.8847541,3.629125 7.8409872,3.811487 7.7753369,3.993849 7.7096865,4.1689165 7.6294473,4.3366895 7.5565025,4.4971681 L 7.169895,4.9713093 Z m 2.983442,-2.4655342 -0.02188,0.014589 -0.01459,-0.014589 0.01459,-0.182362 0.07294,0.058356 z m 0.07295,-0.7075645 -0.02188,0.021883 -0.05106,-0.1240061 V 1.5210203 l 0.05106,0.014589 0.226128,-0.036472 h 0.05836 z"
         id="path294" />
      <path
         d="m 16.098325,5.8831192 h 0.02918 v -0.021883 l 0.226129,-0.06565 0.02188,-0.036472 c 0.255307,-0.058356 0.517908,-0.1021227 0.780509,-0.1240062 0.262601,-0.021883 0.539792,-0.029178 0.831571,-0.021883 l 0.218834,0.036472 0.07295,-0.014589 0.248012,0.036472 -0.01459,0.043767 -0.08753,0.043767 v 0.029178 l 0.08024,0.072945 c 0.160478,0.021883 0.313663,0.014589 0.452258,-0.021883 0.138595,-0.043767 0.27719,-0.080239 0.423079,-0.1021228 l 0.08024,0.014589 0.08024,0.00729 0.02188,-0.029178 -0.124006,-0.3501351 C 19.38084,5.3287388 19.31519,5.2849719 19.256834,5.255794 c -0.05836,-0.036472 -0.1313,-0.058356 -0.204245,-0.072945 L 18.40338,5.1390823 c -0.204245,-0.00729 -0.408491,-0.00729 -0.612736,0 -0.204246,0.00729 -0.401197,0.014589 -0.590853,0.036472 h -0.02918 l 0.01459,-0.051061 0.401196,-0.2917792 c 0.03647,-0.036472 0.08753,-0.072945 0.138596,-0.1094171 0.05106,-0.029178 0.08753,-0.06565 0.116711,-0.1167117 L 17.76876,4.4023398 c -0.04377,-0.036472 -0.08753,-0.06565 -0.138595,-0.087534 -0.04377,-0.021884 -0.102122,-0.051061 -0.153184,-0.080239 -0.09483,0.029178 -0.175067,0.051061 -0.262601,0.058356 -0.09483,0.014589 -0.182362,0.036472 -0.269896,0.058356 h -0.07295 l 0.05836,-0.072945 0.116712,-0.1094172 0.48873,-0.3282516 v -0.051061 l -0.116712,-0.1313006 0.01459,-0.06565 0.06565,-0.036472 0.496024,-0.379313 c 0,-0.029178 0,-0.06565 0,-0.094828 -0.0073,-0.029178 -0.02188,-0.058356 -0.04377,-0.080239 l -0.07294,-0.058356 v -0.051061 l -0.262602,-0.072945 -0.08024,-0.00729 v 0.029178 c -0.21154,0.06565 -0.401196,0.1604786 -0.590853,0.2844848 -0.196951,0.1167116 -0.364724,0.2698957 -0.532497,0.4303743 l -0.02918,-0.00729 -0.04377,-0.3282516 0.05836,-0.2553068 0.02918,0.00729 0.09483,-0.1167117 0.04377,-0.036472 c 0.218835,-0.072945 0.444964,-0.1531841 0.671092,-0.2334233 0.218835,-0.072945 0.452258,-0.1385952 0.692976,-0.1896565 l -0.01459,-0.087534 -0.02188,-0.00729 -0.01459,-0.06565 c -0.04377,-0.051061 -0.09483,-0.094828 -0.160479,-0.1167117 -0.06565,-0.021883 -0.124006,-0.043767 -0.196951,-0.06565 l -0.08753,-0.00729 -0.0073,0.051061 c -0.196951,0.029178 -0.386608,0.080239 -0.554381,0.1531841 -0.175067,0.080239 -0.357429,0.1604785 -0.532497,0.2334233 h -0.06565 l 0.14589,-0.350135 h 0.03647 l 0.05836,-0.182362 h 0.02918 l 0.240718,-0.3939019 0.218834,-0.051061 c 0.539792,0.3428406 1.064994,0.7221535 1.590197,1.1306444 0.525202,0.4230798 1.116055,0.6929756 1.772558,0.8242762 l 0.167773,-0.021883 V 3.4248795 C 20.139466,3.3081679 19.767448,3.1331003 19.431902,2.8923825 19.10365,2.6589592 18.76081,2.4255358 18.425264,2.1921124 v -0.029178 l -0.379313,-0.3720184 0.0073,-0.06565 0.153184,-0.029178 v -0.029178 c 0.05106,0.00729 0.102123,-0.00729 0.14589,-0.036472 0.03647,-0.014589 0.08024,-0.043767 0.116711,-0.080239 l 0.05836,-0.094828 h 0.03647 l 0.08753,-0.072945 0.05836,-0.094828 -0.05106,-0.2042454 -0.109417,-0.080239 v -0.0364724 l -0.09483,-0.0583558 -0.299074,-0.007294 c 0.01459,0.0364724 0.04377,0.0583558 0.07295,0.0802393 0.03647,0.0218834 0.06565,0.0291779 0.102122,0.0364724 -0.03647,0.1021227 -0.109417,0.1969509 -0.196951,0.2917792 -0.09483,0.087534 -0.189656,0.1750675 -0.262601,0.2698957 -0.1313,-0.072945 -0.262601,-0.1458896 -0.379313,-0.2261288 -0.124006,-0.06565 -0.255307,-0.1167117 -0.401196,-0.1531841 l 0.09483,-0.1604786 c 0.04377,-0.00729 0.08753,-0.021883 0.116712,-0.0583558 0.03647,-0.0291779 0.07295,-0.0437669 0.124006,-0.0364724 l 0.05106,-0.13859512 0.240718,-0.014589 -0.07295,-0.19695095 c -0.02188,-0.014589 -0.03647,-0.0364724 -0.05836,-0.0583558 -0.02188,-0.0218834 -0.05106,-0.0291779 -0.08753,-0.0218834 v -0.0218834 l -0.605442,-0.22612888 -0.07294,0.007294 -0.218834,0.35013504 -0.620031,0.10941719 c -0.08753,-0.007294 -0.175068,-0.007294 -0.248012,-0.014589 -0.08753,0 -0.167773,-0.014589 -0.240718,-0.0510614 h -0.04377 l -0.0073,0.0364724 v 0.0218834 l 0.153184,0.17506752 c 0.03647,0.0364724 0.08024,0.0802393 0.116712,0.12400619 0.03647,0.051061 0.07295,0.080239 0.131301,0.094828 l -0.0073,0.036472 h 0.03647 l 0.05836,0.1240062 0.393901,0.036472 -0.124006,0.350135 h -0.02918 c -0.06565,0.167773 -0.138595,0.3209571 -0.233423,0.4741412 -0.09483,0.1531841 -0.175068,0.3136626 -0.255307,0.4741412 l -0.03647,-0.00729 C 15.507472,2.8413211 15.361582,3.06745 15.193809,3.2789899 15.026036,3.4978243 14.872852,3.7239532 14.719668,3.9427876 h -0.02918 l -0.09483,0.072945 0.01459,0.072945 0.07294,0.029178 c 0.04377,-0.00729 0.09483,-0.00729 0.153185,-0.00729 0.04377,0.00729 0.08753,-0.00729 0.124006,-0.036472 0.02188,-0.00729 0.04377,-0.014589 0.06565,-0.014589 0.02188,-0.00729 0.03647,-0.021883 0.04377,-0.058356 l 0.06565,-0.029178 0.03647,-0.051061 0.06565,-0.014589 C 15.419938,3.7166587 15.580416,3.5051188 15.733601,3.2935789 15.87949,3.082039 16.02538,2.8632046 16.15668,2.6589592 l 0.153184,0.036472 0.262602,-0.00729 h 0.04377 l -0.0073,0.06565 h -0.02918 c -0.167773,0.1167117 -0.255307,0.2771902 -0.284485,0.4668467 -0.02918,0.196951 -0.06565,0.3866074 -0.109417,0.5689694 l 0.02188,0.1385951 0.240718,0.3209572 0.05106,0.021883 -0.03647,0.080239 0.01459,0.182362 0.03647,0.00729 c 0,0.043767 0.01459,0.080239 0.03647,0.1094172 0.02188,0.021883 0.05106,0.051061 0.07295,0.072945 l 0.496025,-0.1677731 h 0.03647 l -0.510613,0.532497 c -0.116712,0.072945 -0.233424,0.1313007 -0.350136,0.1677731 -0.124006,0.036472 -0.233423,0.072945 -0.357429,0.1021227 l -0.04377,0.080239 0.05106,0.2407178 h 0.03647 l -0.0073,0.051061 z m 0.517908,-1.6485524 -0.01459,0.00729 -0.04377,-0.1167117 C 16.57976,3.97926 16.616233,3.8260759 16.681883,3.6947753 16.732944,3.5561802 16.813184,3.432174 16.908012,3.3081679 L 17.21438,3.1768672 h 0.05106 l -0.313662,0.2771903 -0.05836,0.1021227 c 0,0.043767 0.0073,0.087534 0.02918,0.1240061 0.02188,0.036472 0.03647,0.072945 0.05836,0.1240062 -0.03647,0.080239 -0.09483,0.1531841 -0.167773,0.2188344 -0.07295,0.058356 -0.131301,0.1313006 -0.196951,0.1969509 z m -0.99205,-1.991393 0.06565,0.00729 0.02188,-0.06565 h 0.05106 l -0.03647,-0.1677731 c -0.05836,-0.058356 -0.116712,-0.1021227 -0.167773,-0.153184 -0.05836,-0.051061 -0.116712,-0.080239 -0.196951,-0.094828 -0.06565,-0.00729 -0.138595,-0.00729 -0.21154,-0.014589 -0.08024,-0.00729 -0.153184,0.00729 -0.21154,0.036472 l 0.09483,0.1240061 c 0.09483,0.058356 0.189657,0.1240062 0.284485,0.1896565 0.09483,0.06565 0.196951,0.1167117 0.306368,0.1385951 z m 3.340872,0.1458896 c 0.153184,-0.036472 0.284485,-0.094828 0.408491,-0.167773 0.116712,-0.080239 0.240718,-0.1604786 0.364724,-0.2407179 v -0.036472 h 0.02918 l 0.175067,-0.1094172 0.02188,-0.036472 -0.03647,-0.1750675 -0.05106,-0.00729 0.0073,-0.036472 -0.05106,-0.051061 c -0.04377,-0.036472 -0.08753,-0.072945 -0.1313,-0.094828 -0.05106,-0.021883 -0.102123,-0.043767 -0.160479,-0.058356 l -0.474141,0.051061 c 0.05106,0.036472 0.102123,0.058356 0.167773,0.080239 0.05836,0.021883 0.124006,0.043767 0.189656,0.058356 -0.04377,0.1458896 -0.109417,0.2917792 -0.204245,0.4084908 -0.09483,0.1313007 -0.196951,0.2553068 -0.313663,0.364724 z"
         id="path296" />
      <path
         d="m 25.799969,5.6715793 0.06565,-0.029178 c 0.05106,-0.06565 0.08753,-0.1313006 0.09483,-0.2042454 0.0073,-0.06565 0.02188,-0.1458896 0.03647,-0.2261289 L 25.945859,4.5919963 V 3.2789899 l 0.08024,-0.4668467 V 2.4547137 l -0.182362,-0.058356 v -0.051061 c 0.240718,-0.051061 0.48873,-0.1094172 0.736742,-0.1531841 0.248013,-0.051061 0.496025,-0.072945 0.758626,-0.072945 L 27.441227,1.987867 27.419343,1.8857443 26.952497,1.7252657 c -0.102123,0.094828 -0.218835,0.1531841 -0.342841,0.1750675 -0.138595,0.021883 -0.255307,0.051061 -0.379313,0.087534 h -0.102122 c 0.03647,-0.2407178 0.09483,-0.4668467 0.182362,-0.6710921 0.08753,-0.21154 0.167773,-0.40849091 0.255306,-0.61273635 V 0.57273792 L 26.128221,0.41225936 c -0.189657,0 -0.35743,0.0364724 -0.510614,0.10212272 -0.153184,0.0729448 -0.342841,0.10212272 -0.547086,0.0802393 l 0.02918,0.0802393 c 0.05106,0.0364724 0.109417,0.0656503 0.167773,0.10941719 0.05836,0.0437669 0.124006,0.0729448 0.196951,0.0948282 0.05836,0 0.1313,-0.007294 0.204245,-0.014589 0.06565,-0.007294 0.131301,-0.0291779 0.175068,-0.0656503 h 0.05106 L 25.865619,1.0833515 H 25.63949 l -0.02918,0.051061 -0.76592,0.2844847 0.124006,0.1604785 0.153184,-0.029178 h 0.131301 C 25.216411,1.6814989 25.15076,1.8127995 25.048637,1.9222167 24.93922,2.0316339 24.851687,2.1483456 24.764153,2.2650572 L 24.45049,2.5057751 c -0.05106,0 -0.09483,0.014589 -0.138595,0.029178 -0.04377,0.029178 -0.07295,0.072945 -0.08753,0.1240062 l 0.07295,0.3063681 0.853454,-0.3866074 c 0.05106,-0.021883 0.09483,-0.00729 0.138595,0.036472 0.04377,0.043767 0.08024,0.072945 0.116712,0.094828 l 0.08024,0.2261289 0.04377,0.029178 c 0.124006,0.2042454 0.182362,0.4376688 0.175068,0.6856811 -0.0073,0.2480123 0,0.4814357 0.03647,0.7075646 V 5.1609657 L 25.486306,5.1026099 25.274766,4.876481 25.435245,5.3870946 Z M 24.734975,5.1317878 c 0.05106,-0.167773 0.124006,-0.350135 0.204245,-0.5252025 0.08753,-0.182362 0.175068,-0.3574295 0.262602,-0.5324971 h 0.05106 l 0.05106,-0.1021227 -0.204245,0.182362 -0.313663,0.2771903 h -0.05106 c 0.05106,-0.1458896 0.109417,-0.3136627 0.167773,-0.4741412 0.05836,-0.1677731 0.124006,-0.3209571 0.196951,-0.4814357 V 3.3008734 l -0.386608,-0.080239 -0.284484,0.058356 0.255306,0.196951 c 0,0.2334234 -0.01459,0.4449633 -0.05106,0.6492087 -0.03647,0.2115399 -0.116712,0.3939019 -0.255307,0.5689694 l 0.02188,0.1313007 h 0.08024 v 0.051061 z m -2.057043,-0.080239 1.385951,-0.714859 -0.02918,-0.1313006 c -0.167773,-0.021884 -0.328252,0.00729 -0.459552,0.087534 -0.138596,0.072945 -0.277191,0.1458896 -0.415786,0.196951 h -0.05106 l 0.109417,-0.2042454 h 0.131301 l 0.02188,-0.1313007 0.153184,-0.182362 0.08024,-0.1531841 h 0.05106 l 0.182362,-0.1823619 v -0.051061 h 0.05106 L 23.990938,3.432174 v -0.080239 l -0.182362,-0.072945 h -0.233423 v 0.051061 l -0.102123,0.021883 h -0.05106 c -0.02188,-0.153184 -0.0073,-0.2917792 0.02918,-0.4230798 0.03647,-0.1240061 0.09483,-0.2407178 0.182362,-0.350135 V 2.4547137 l -0.109417,-0.080239 -0.1313,-0.1750675 V 2.0899897 l 0.08024,-0.029178 0.21154,-0.3063681 -0.02918,-0.051061 -0.05106,-0.029178 c -0.109417,-0.014589 -0.19695,0 -0.255306,0.051061 -0.07295,0.051061 -0.153184,0.1021228 -0.240718,0.1385952 h -0.04377 V 1.7544437 l -0.240718,0.1604785 0.109417,0.3063682 h 0.131301 L 22.648754,2.885088 c -0.02188,0.072945 -0.0073,0.1313007 0.04377,0.182362 0.04377,0.051061 0.08024,0.1021227 0.109418,0.1531841 l 0.306368,-0.1240062 h 0.08024 l 0.02918,0.1240062 V 3.432174 L 22.699815,3.7896035 22.473686,3.6874808 h -0.05106 v 0.072945 l 0.255307,0.2626013 c 0.05106,0.021883 0.09483,0.014589 0.109417,-0.014589 0.02188,-0.021883 0.05836,-0.051061 0.09483,-0.087534 h 0.05106 L 23.035361,4.0959717 22.90406,4.358573 c -0.05106,0.087534 -0.116711,0.1385951 -0.189656,0.153184 -0.08024,0.021883 -0.14589,0.06565 -0.196951,0.1313007 0,0.080239 0.01459,0.153184 0.05106,0.2188344 0.03647,0.06565 0.07295,0.1240061 0.109418,0.1896564 z m 4.639289,-0.4595522 0.07295,-0.029178 V 4.511757 l 0.1313,-0.021883 0.153184,-0.1531841 -0.02918,-0.051061 v -0.058356 l 0.08024,0.029178 h 0.02918 L 27.696534,4.176211 C 27.528761,4.161622 27.360988,4.1251496 27.215098,4.0740882 27.054619,4.0303214 26.901435,3.9719655 26.740957,3.9209042 h -0.06565 l 0.05106,0.1021227 -0.05106,0.3136626 v 0.072945 l 0.06565,-0.051061 h 0.291779 v 0.051061 z m -4.157854,-0.7002701 -0.02188,0.029178 -0.153184,-0.029178 0.05106,-0.1458895 0.102123,-0.058356 h 0.05106 z m -1.597491,-0.4157853 0.240718,-0.094828 c 0.09483,-0.1094172 0.189656,-0.2188344 0.284485,-0.3355461 0.08024,-0.1240062 0.138595,-0.2480123 0.175067,-0.3866074 h 0.05106 l 0.02918,-0.1240062 h 0.05106 c 0.102123,-0.2698958 0.218834,-0.5252026 0.350135,-0.7732149 0.124006,-0.2480123 0.27719,-0.4887301 0.444963,-0.729448 l 0.182362,-0.021883 0.02188,-0.0802393 0.291779,0.0802393 v 0.072945 L 23.188545,1.6012596 C 23.349024,1.5137258 23.502208,1.4261921 23.662686,1.3386583 23.808576,1.258419 23.983643,1.2146521 24.1733,1.2146521 V 1.0104067 c -0.124006,-0.0875338 -0.255307,-0.13859511 -0.393902,-0.14588959 -0.131301,-0.007294 -0.27719,-0.0218834 -0.408491,-0.0364724 l -0.05106,-0.15318407 -0.386608,-0.182362 h -0.1313 l 0.02188,0.10212272 C 22.707109,1.1125294 22.553925,1.6158485 22.364269,2.1045787 22.167318,2.5933088 21.897422,3.0455666 21.547287,3.4540575 Z m 4.668467,-0.06565 c 0.08753,-0.072945 0.182362,-0.1385951 0.284485,-0.1896565 0.109417,-0.051061 0.21154,-0.094828 0.306368,-0.1458896 l 0.233423,0.051061 0.233424,-0.080239 v -0.080239 h 0.05106 l 0.02188,-0.051061 v -0.072945 l -0.590853,-0.1823619 -0.233424,0.021883 -0.02188,0.1313006 -0.175068,0.1240062 0.07295,0.058356 z m -3.326283,-0.4741412 -0.02188,0.029178 h -0.05836 c 0.02188,-0.1094172 0.05836,-0.1969509 0.124006,-0.2844847 0.05836,-0.087534 0.124006,-0.1604786 0.189657,-0.2261289 h 0.05106 v 0.2844847 z m 2.837553,-0.8169818 -0.926399,0.3355461 h -0.08024 v -0.058356 h 0.05106 l 0.437669,-0.4668467 0.05106,-0.06565 0.444964,-0.3136627 h 0.08024 l -0.02918,0.1750675 -0.21154,0.058356 0.182362,0.2553068 z"
         id="path298" />
    </g>
    <text
       xml:space="preserve"
       transform="scale(0.26458333)"
       id="text266"
       style="font-size:53.3333px;font-family:KouzanBrushFontGyousyoOTF;-inkscape-font-specification:KouzanBrushFontGyousyoOTF;white-space:pre;shape-inside:url(#rect268);display:inline;fill:#000000" />
  </g>
</svg>
