<?xml version="1.0" encoding="UTF-8" standalone="no"?>
<!-- Created with Inkscape (http://www.inkscape.org/) -->

<svg
   width="35.000999mm"
   height="7mm"
   viewBox="0 0 35.000998 7"
   version="1.1"
   id="svg5"
   inkscape:version="1.2.2 (b0a8486, 2022-12-01)"
   sodipodi:docname="postDetail.svg"
   xmlns:inkscape="http://www.inkscape.org/namespaces/inkscape"
   xmlns:sodipodi="http://sodipodi.sourceforge.net/DTD/sodipodi-0.dtd"
   xmlns="http://www.w3.org/2000/svg"
   xmlns:svg="http://www.w3.org/2000/svg">
  <sodipodi:namedview
     id="namedview7"
     pagecolor="#ffffff"
     bordercolor="#000000"
     borderopacity="0.25"
     inkscape:showpageshadow="2"
     inkscape:pageopacity="0.0"
     inkscape:pagecheckerboard="0"
     inkscape:deskcolor="#d1d1d1"
     inkscape:document-units="mm"
     showgrid="false"
     inkscape:zoom="4.7488465"
     inkscape:cx="62.962658"
     inkscape:cy="27.26978"
     inkscape:window-width="1440"
     inkscape:window-height="771"
     inkscape:window-x="1080"
     inkscape:window-y="1616"
     inkscape:window-maximized="0"
     inkscape:current-layer="layer1" />
  <defs
     id="defs2">
    <rect
       x="-1.8951972"
       y="4.0009718"
       width="213.31496"
       height="77.703079"
       id="rect268" />
  </defs>
  <g
     inkscape:label="Layer 1"
     inkscape:groupmode="layer"
     id="layer1">
    <text
       xml:space="preserve"
       style="font-size:8.85995px;font-family:KouzanBrushFontGyousyoOTF;-inkscape-font-specification:KouzanBrushFontGyousyoOTF;fill:#000000;stroke-width:0.166124"
       x="-1.3619121"
       y="8.4681635"
       id="text214"
       transform="scale(0.67763293,1.4757252)"><tspan
         sodipodi:role="line"
         id="tspan212"
         style="stroke-width:0.166124"
         x="-1.3619121"
         y="8.4681635" /></text>
    <text
       xml:space="preserve"
       transform="scale(0.26458333)"
       id="text266"
       style="font-size:53.3333px;font-family:KouzanBrushFontGyousyoOTF;-inkscape-font-specification:KouzanBrushFontGyousyoOTF;white-space:pre;shape-inside:url(#rect268);display:inline;fill:#000000" />
    <g
       aria-label="お裾分け詳細"
       transform="scale(0.87580888,1.1418016)"
       id="text729"
       style="font-size:7.0029px;font-family:KouzanBrushFontGyousyoOTF;-inkscape-font-specification:KouzanBrushFontGyousyoOTF;fill:#1a1a1a;stroke-width:0.404014">
      <path
         d="m 0.75125543,5.5997325 0.1680696,-0.028012 C 1.0173656,5.494689 1.0943975,5.4176571 1.1574236,5.3196165 1.2064439,5.2215759 1.2554642,5.1305382 1.3044845,5.0254947 1.5565889,4.8294135 1.829702,4.6613439 2.116821,4.5352917 2.4039399,4.4092395 2.7050646,4.3182018 3.027198,4.2691815 c 0.1750725,-0.014006 0.3431421,-0.007 0.5112117,0.014006 0.1750725,0.028012 0.3151305,0.098041 0.4481856,0.2170899 l -0.04902,0.098041 -0.6512697,-0.1470609 0.2030841,0.1470609 -0.028012,0.077032 v 0.021009 l 0.098041,0.028012 0.140058,0.2521044 0.2591073,0.1540638 c 0.1050435,0.014006 0.1890783,0 0.280116,-0.035014 0.091038,-0.035014 0.1680696,-0.063026 0.2521044,-0.091038 L 4.5888447,4.7733903 C 4.567836,4.654341 4.5468273,4.5563004 4.5188157,4.4652627 4.4838012,4.374225 4.427778,4.2831873 4.3507461,4.1991525 4.2386997,4.0660974 4.1056446,3.9820626 3.9585837,3.9330423 3.797517,3.8910249 3.6434532,3.8630133 3.4893894,3.8490075 c -0.3641508,0 -0.7142958,0.04902 -1.0434321,0.1330551 C 2.116821,4.0731003 1.8016904,4.2061554 1.4935628,4.3672221 H 1.4515454 L 1.5916034,3.393819 V 2.2873608 L 1.5705947,2.2593492 V 2.0352564 L 1.829702,1.8321723 1.9277426,1.6150824 h 0.056023 v -0.056023 h 0.042017 L 2.039789,1.503036 v -0.021009 h -0.056023 v -0.084035 h 0.042017 v -0.014006 l -0.098041,0.070029 v 0.028012 h -0.021009 v 0.021009 h -0.04902 V 1.4820273 L 1.5916034,1.643094 h -0.070029 v 0.014006 H 1.4655512 C 1.4375396,1.4750244 1.409528,1.292949 1.3815164,1.0898649 1.3465019,0.90078656 1.2974816,0.71871115 1.2344555,0.54363865 H 1.2064439 L 1.3745135,1.4820273 1.3605077,1.7551404 0.82828733,1.9792332 c -0.1470609,0.021009 -0.26611021,0.007 -0.37815661,-0.035014 -0.1190493,-0.035014 -0.2240928,-0.084035 -0.3361392,-0.1330551 V 1.783152 l 0.0630261,0.04902 0.0280116,0.084035 c 0.0910377,0.042017 0.1960812,0.098041 0.3011247,0.1680696 0.0980406,0.070029 0.21008701,0.1190493 0.32213341,0.1470609 L 1.3605077,2.1613086 v -0.04902 h 0.063026 l 0.028012,0.4061682 c 0.007,0.350145 0.007,0.70029 -0.028012,1.0364292 C 1.3885193,3.8980278 1.3184903,4.2201612 1.2064439,4.5212859 L 0.82828733,4.72437 v 0.028012 h -0.0910377 l 0.0140058,0.098041 c -0.0280116,0.084035 -0.0490203,0.1680696 -0.0630261,0.2521044 -0.0210087,0.077032 -0.0560232,0.1540638 -0.10504351,0.2170899 l 0.0770319,0.077032 0.0210087,0.1470609 0.0980406,0.028012 z m 3.28436017,-4.20174 h 0.1470609 v -0.042017 c 0.042017,0 0.091038,0.007 0.140058,0.014006 0.04902,0.007 0.077032,-0.014006 0.091038,-0.056023 l 0.077032,-0.028012 0.098041,-0.1610667 -0.028012,-0.063026 C 4.497807,0.97081556 4.427778,0.90778946 4.3507461,0.86577205 4.2667113,0.82375465 4.1756736,0.78173725 4.0846359,0.75372565 c -0.1190493,0 -0.2310957,0.0140058 -0.3361392,0.0350145 -0.1190493,0.0280116 -0.2310957,0.0560232 -0.3361392,0.0840348 l 0.04902,0.11204641 c 0.091038,0.0630261 0.1890783,0.11904934 0.2871189,0.16806964 0.091038,0.04902 0.1890783,0.1120464 0.2871189,0.1890783 z"
         id="path731" />
      <path
         d="M 10.037088,5.354631 10.177146,5.3266194 10.023082,5.0605092 H 9.9880673 L 9.9460499,4.6613439 9.8410064,4.8574251 h -0.035014 v -0.007 L 9.4208324,4.4792685 9.3438005,4.4162424 h -0.014006 c 0.035014,0.1330551 0.098041,0.2591073 0.1750725,0.3921624 0.077032,0.1260522 0.1470609,0.2521044 0.2240928,0.3781566 0.04902,0.021009 0.1050435,0.04902 0.1540638,0.091038 0.042017,0.042017 0.091038,0.070029 0.1540642,0.077032 z m 0.490203,-0.063026 0.01401,-0.014006 0.02101,0.014006 c 0.09104,-0.021009 0.182076,-0.04902 0.26611,-0.084035 0.09104,-0.035014 0.175073,-0.077032 0.259108,-0.1260522 l 0.05602,-0.1890783 h 0.03501 v -0.035014 h 0.02801 l 0.02101,-0.056023 h 0.02801 l 0.09804,-0.1120464 0.119049,-0.2591073 0.04902,-0.035014 0.182076,-0.3221334 c 0,-0.042017 0,-0.077032 -0.007,-0.1050435 -0.007,-0.028012 -0.02101,-0.056023 -0.03502,-0.091038 l -0.126052,-0.04902 v -0.028012 l -0.26611,-0.084035 -0.06303,0.014006 -0.09104,-0.014006 -0.259107,0.04902 -0.371154,-0.091038 -0.189078,0.091038 h -0.02801 c 0.02101,-0.04902 0.04902,-0.098041 0.08404,-0.1470609 0.03501,-0.04902 0.06303,-0.098041 0.07003,-0.1470609 l 0.04902,-0.014006 0.04202,-0.1190493 0.09804,-0.1120464 c 0.105044,-0.04902 0.203085,-0.084035 0.322134,-0.1050435 0.119049,-0.014006 0.224093,-0.021009 0.336139,-0.042017 0.112046,-0.014006 0.224093,-0.014006 0.329136,0 0.09804,0.021009 0.196082,0.035014 0.294122,0.070029 0.04902,0.007 0.08404,0 0.119049,-0.021009 0.03501,-0.021009 0.07003,-0.028012 0.112047,-0.035015 v -0.04902 l -0.06303,-0.014006 v -0.035014 c -0.07703,-0.077032 -0.154064,-0.1120464 -0.259108,-0.1190493 -0.105043,-0.007 -0.203084,-0.021009 -0.301124,-0.056023 l -0.06303,-0.056023 -0.16807,-0.028012 -0.308128,0.077032 v 0.007 l 0.126053,0.04902 v 0.035014 l -0.38516,0.091038 h -0.07703 l -0.04902,-0.1960812 -0.119049,-0.140058 c -0.04202,-0.035014 -0.09104,-0.04902 -0.147061,-0.04902 -0.06303,0 -0.112047,-0.014006 -0.161067,-0.035014 l -0.09804,0.021009 v 0.042017 l 0.06303,0.04902 0.06303,0.1120464 v 0.350145 L 9.4838585,3.3658074 H 9.4208324 C 9.4978643,3.1977378 9.5538875,3.0366711 9.6029078,2.8615986 9.6449252,2.693529 9.7079513,2.5324623 9.7919861,2.3783985 l 0.063026,0.035014 h 0.028012 l 0.042017,0.1470609 c 0.1400578,-0.042017 0.2731128,-0.084035 0.3991658,-0.1330551 0.133055,-0.04902 0.252104,-0.1120464 0.378156,-0.1890783 v -0.028012 h 0.04902 l 0.04202,-0.1260522 0.09104,-0.04902 0.014,-0.091038 h 0.03501 c 0.04902,-0.056023 0.09804,-0.1260522 0.140058,-0.1960812 0.03501,-0.063026 0.07003,-0.1260522 0.09104,-0.2030841 l 0.06303,-0.04902 0.112046,-0.1960812 0.04202,-0.014006 v -0.035015 h 0.02801 V 1.22292 h -0.01401 v -0.077032 l -0.07703,-0.035015 -0.01401,-0.04902 -0.420174,-0.11904934 C 10.64634,0.96381266 10.42925,1.012833 10.21216,1.0688562 10.002073,1.1388852 9.7919861,1.1949084 9.5748962,1.2369258 c 0.056023,0.042017 0.1120464,0.070029 0.1890783,0.084035 0.070029,0.021009 0.140058,0.035014 0.210087,0.04902 l 0.2030845,-0.014006 0.02101,-0.042017 c 0.06303,-0.007 0.126053,-0.035014 0.189079,-0.084035 0.05602,-0.04902 0.119049,-0.084035 0.189078,-0.1050435 h 0.07703 c -0.007,0.1610667 -0.03501,0.3011247 -0.07003,0.4411827 -0.03501,0.140058 -0.09104,0.2731131 -0.175073,0.3921624 -0.04902,0.063026 -0.105043,0.1120464 -0.168069,0.1470609 -0.05602,0.035014 -0.126052,0.063026 -0.203084,0.077032 H 9.8199977 V 1.9162071 L 9.7429658,1.8391752 9.5959049,1.853181 v 0.021009 l -0.1890783,0.014006 0.014006,0.1050435 0.04902,0.014006 C 9.448844,2.2523463 9.4138295,2.4974478 9.3648092,2.7355464 9.3227918,2.973645 9.2597657,3.1977378 9.1757309,3.4218306 l -0.098041,0.021009 v 0.014006 h 0.035014 v 0.028012 h 0.028012 C 9.0776903,3.7019466 9.0146642,3.9190365 8.9236265,4.1151177 8.8325888,4.3111989 8.7275453,4.514283 8.6014931,4.7103642 l 0.04902,-0.021009 0.1190493,-0.1330551 c 0.04902,-0.063026 0.091038,-0.1260522 0.1260522,-0.1960812 0.035015,-0.070029 0.063026,-0.1330551 0.098041,-0.210087 h 0.028012 l 0.028012,-0.063026 0.063026,-0.028012 0.2030841,-0.4761972 0.1050435,0.028012 c 0.1260522,0.014006 0.2310957,-0.007 0.3361392,-0.070029 0.098041,-0.056023 0.1890783,-0.1050435 0.2941214,-0.1470609 h 0.06303 c -0.007,0.1190493 -0.02801,0.2310957 -0.05602,0.3291363 -0.03501,0.1120464 -0.084035,0.2170899 -0.1540635,0.3011247 l 0.014006,0.04902 h 0.042017 c 0.021009,-0.007 0.042017,-0.021009 0.063026,-0.042017 0.02101,-0.014006 0.02801,-0.035015 0.02801,-0.063026 h 0.04902 l 0.04902,0.1050435 h 0.04902 l 0.03501,0.098041 0.74931,-0.1890783 h 0.09104 c 0,0.1680696 -0.02801,0.3151305 -0.08404,0.4481856 -0.06303,0.1330551 -0.140058,0.2521044 -0.224093,0.3711537 -0.03501,0.042017 -0.07003,0.063026 -0.112046,0.084035 -0.04202,0.021009 -0.09104,0.042017 -0.140058,0.04902 l -0.105044,-0.014006 -0.154063,0.014006 0.01401,0.1120464 0.203084,0.1680696 0.01401,0.04902 z M 7.768148,5.2285788 c 0.021009,0 0.04902,0 0.070029,-0.007 0.021009,-0.007 0.035014,-0.014006 0.042017,-0.035014 l -0.014006,-0.063026 c 0,-0.210087 0,-0.4061682 0.007,-0.6022494 0.007,-0.1960812 0.028012,-0.3781566 0.084035,-0.5532291 0,-0.04902 0,-0.098041 -0.007,-0.140058 -0.007,-0.042017 -0.028012,-0.084035 -0.056023,-0.1260522 L 7.908206,3.5969031 V 3.5688915 L 7.8801944,3.673935 7.7261306,3.533877 C 7.6701074,3.4988625 7.6140842,3.4708509 7.5650639,3.4498422 7.5090407,3.4288335 7.4460146,3.4148277 7.3829885,3.4078248 L 7.5860726,3.0786885 h 0.028012 L 7.9992437,2.5324623 v -0.028012 l 0.04902,-0.014006 C 8.1393017,2.3643927 8.2303394,2.2383405 8.3213771,2.1192912 8.4124148,1.993239 8.4964496,1.8741897 8.6014931,1.7481375 L 8.748554,1.6851114 8.8045772,1.6080795 8.7835685,1.5450534 8.6995337,1.4960331 8.6855279,1.4540157 8.3423858,1.3559751 8.2303394,1.4680215 C 8.0902814,1.5450534 7.9502234,1.6290882 7.8241712,1.7201259 7.6841132,1.8251694 7.5440552,1.9162071 7.3969943,1.993239 H 7.3549769 L 7.4950349,1.7621433 7.62809,1.6641027 V 1.643094 h 0.035014 l 0.2731131,-0.2941218 0.021009,-0.035014 0.1680696,-0.1050435 0.140058,-0.1470609 0.210087,-0.24510155 0.098041,-0.0840348 v -0.0350145 h 0.028012 l 0.021009,-0.0280116 c 0.007,-0.0420174 0.007,-0.0770319 -0.007,-0.1050435 -0.021009,-0.0280116 -0.035015,-0.0490203 -0.056023,-0.070029 C 8.4824438,0.41758645 8.4054119,0.36156325 8.3143742,0.32654875 8.2163336,0.29153424 8.1252959,0.26352264 8.0342582,0.22850814 L 7.908206,0.26352264 8.2793597,0.45260095 v 0.0910377 C 8.2303394,0.64868215 8.1743162,0.74672275 8.118293,0.84476335 8.0552669,0.94980686 7.9852379,1.0548504 7.908206,1.1458881 7.8311741,1.2579345 7.7471393,1.362978 7.6561016,1.4750244 7.5720668,1.5870708 7.4740262,1.6851114 7.3689827,1.7901549 l -0.063026,0.063026 -0.014006,0.035014 -0.3361392,0.2310957 0.056023,0.210087 0.028012,0.021009 0.04902,0.077032 0.7913277,-0.4551885 H 7.908206 C 7.8661886,2.1122883 7.7961596,2.2383405 7.7191277,2.3713956 7.6420958,2.5044507 7.5720668,2.6305029 7.5090407,2.763558 L 7.418003,2.8405899 7.0118348,3.5198712 6.9838232,3.533877 6.7107101,3.9820626 H 6.6756956 L 6.5846579,4.1711409 H 6.5496434 L 6.2765303,4.5422946 v 0.021009 l 0.1470609,-0.056023 0.098041,-0.077032 0.04902,-0.077032 h 0.028012 L 6.6126695,4.3182018 6.7317188,4.234167 7.1098754,3.7019466 h 0.042017 l 0.2030841,-0.2591073 0.1890783,0.077032 c 0.021009,0.035014 0.042017,0.063026 0.056023,0.098041 0.021009,0.035014 0.028012,0.070029 0.028012,0.1120464 0,0.2170899 -0.007,0.420174 -0.014006,0.6232581 -0.007,0.210087 -0.04902,0.3991653 -0.1330551,0.5672349 0.028012,0.04902 0.070029,0.098041 0.1260522,0.1470609 0.056023,0.04902 0.1120464,0.098041 0.1610667,0.1610667 z M 8.3073713,3.813993 h 0.063026 v -0.035014 l 0.084035,-0.028012 -0.021009,-0.140058 h -0.014006 l 0.014006,-0.042017 -0.014006,-0.063026 -0.140058,0.077032 -0.2451015,-0.077032 h -0.035014 l 0.035014,0.1260522 0.1820754,0.084035 0.014006,0.084035 z M 8.0342582,3.3658074 c 0.035015,-0.007 0.070029,-0.021009 0.1050435,-0.028012 0.028012,-0.007 0.056023,-0.028012 0.091038,-0.063026 l 0.035014,-0.04902 0.1260522,-0.077032 V 3.113703 h 0.028012 l 0.2661102,-0.2591073 -0.04902,-0.1050435 -0.2030841,-0.063026 -0.077032,0.014006 -0.091038,-0.014006 -0.04902,0.063026 H 8.1813191 L 7.9992437,3.2887755 v 0.063026 z"
         id="path733" />
      <path
         d="m 15.716426,5.6907702 0.01401,-0.014006 0.01401,0.014006 0.08404,-0.028012 0.02801,-0.1190493 0.09104,-0.035014 C 16.129597,5.0324976 16.30467,4.5633033 16.451731,4.0871061 16.598792,3.6179118 16.731847,3.1347117 16.857899,2.6515116 h 0.04902 l 0.04902,-0.084035 -0.04902,-0.1260522 C 16.78787,2.3854014 16.654815,2.3363811 16.528763,2.2873608 16.388705,2.2383405 16.25565,2.2103289 16.122594,2.1893202 h -0.03501 v 0.035014 l -0.07703,-0.014006 c -0.252104,0.007 -0.497206,0.04902 -0.714296,0.1330551 -0.224093,0.091038 -0.43418,0.1820754 -0.651269,0.2941218 l 0.02101,0.04902 c 0.06303,0.04902 0.133055,0.084035 0.203084,0.1190493 0.05602,0.028012 0.140058,0.035014 0.231096,0.028012 l -0.02101,0.04902 -0.119049,0.056023 0.03501,0.1330551 c -0.06303,0.2521044 -0.126053,0.5112117 -0.203085,0.770319 -0.07703,0.2591073 -0.140058,0.5182146 -0.196081,0.7843248 -0.007,0.070029 -0.007,0.1330551 0.01401,0.1960812 0.01401,0.056023 0.04202,0.1050435 0.09104,0.1540638 h 0.02801 c 0.02101,-0.04902 0.04902,-0.091038 0.07003,-0.1260522 0.02101,-0.035014 0.03501,-0.077032 0.03501,-0.1190493 l 0.04902,-0.021009 c 0.140058,-0.2661102 0.26611,-0.5322204 0.364151,-0.8053335 0.105043,-0.2661102 0.210087,-0.5392233 0.31513,-0.8193393 l -0.03501,-0.2030841 -0.392162,-0.014006 0.07703,-0.077032 c 0.133056,-0.014006 0.259108,-0.042017 0.38516,-0.084035 0.119049,-0.035014 0.238099,-0.070029 0.364151,-0.1050435 h 0.147061 c -0.01401,0.420174 -0.04902,0.8333451 -0.105044,1.2535191 -0.06303,0.4131711 -0.189078,0.8053335 -0.378156,1.1694843 L 15.513342,5.0114889 15.415302,4.794399 h -0.03502 c 0,-0.1190493 -0.01401,-0.2310957 -0.04902,-0.3361392 -0.03501,-0.1050435 -0.06303,-0.210087 -0.08404,-0.3291363 h -0.03501 l 0.01401,0.2310957 -0.01401,0.2521044 0.01401,0.04902 -0.04902,0.4972059 v 0.063026 l 0.08404,0.091038 0.31513,0.2451015 0.140058,0.1190493 z m -2.212916,-2.0518497 0.07003,-0.021009 c 0.09804,-0.1890783 0.175072,-0.3781566 0.252104,-0.5742378 0.07703,-0.1960812 0.161067,-0.3851595 0.259108,-0.5672349 h 0.03501 c 0.04202,-0.04902 0.07703,-0.098041 0.09804,-0.1540638 0.02101,-0.056023 0.06303,-0.098041 0.112046,-0.1330551 l 0.08404,-0.028012 v -0.035014 h 0.119049 l 0.02101,-0.070029 c 0,-0.035014 0,-0.070029 0,-0.1050435 0,-0.028012 -0.01401,-0.056023 -0.03502,-0.077032 l 0.04902,-0.2030841 h 0.02801 l 0.08404,-0.1260522 0.105044,-0.035014 v -0.070029 h 0.03501 l 0.01401,-0.1750725 0.07703,0.028012 h 0.02101 v -0.014006 h -0.03501 v -0.035014 l -0.09804,-0.014006 -0.03501,-0.084035 0.02101,-0.1120464 c 0,-0.0350145 -0.01401,-0.0630261 -0.04202,-0.0840348 -0.02801,-0.0140058 -0.03501,-0.0350145 -0.02801,-0.070029 -0.05602,0 -0.105044,-0.007003 -0.147061,-0.0280116 -0.04902,-0.0210087 -0.09104,-0.0420174 -0.133055,-0.0770319 v -0.0280116 l -0.07003,-0.0630261 -0.210087,-0.140058 -0.05602,0.0210087 0.02101,0.1820754 v 0.0980406 l -0.105043,0.0140058 -0.007,0.15406385 h -0.02101 l -0.09804,0.3011247 0.03501,0.1120464 c -0.07703,0.3641508 -0.154064,0.7353045 -0.21709,1.0924524 -0.07003,0.3641508 -0.140058,0.7353045 -0.203084,1.0994553 z m 4.432836,-0.7212987 0.09804,-0.070029 0.03501,-0.077032 h 0.04202 l 0.03501,-0.1330551 h 0.03501 l 0.03502,-0.070029 0.133055,-0.063026 0.08404,0.028012 v -0.077032 l 0.09804,-0.04902 0.07003,0.014006 h 0.09104 l -0.01401,-0.028012 v -0.056023 l 0.08404,0.021009 0.119049,-0.035014 -0.09804,-0.1330551 v -0.028012 l 0.119049,0.014006 h 0.09104 V 2.0912796 L 18.811708,1.9512216 18.797702,1.8741897 18.552601,1.6570998 C 18.321505,1.5940737 18.090409,1.5240447 17.859314,1.4470128 17.635221,1.3769838 17.404125,1.3209606 17.17303,1.2649374 h -0.01401 l 0.147061,0.2451015 c 0.07703,0.077032 0.154063,0.1610667 0.224092,0.2521044 0.07003,0.098041 0.140058,0.1890783 0.210087,0.280116 l 0.245102,0.210087 0.04902,0.1050435 c 0.01401,0.098041 0.007,0.1890783 -0.01401,0.2871189 -0.02101,0.098041 -0.04902,0.1820754 -0.08403,0.2731131 z"
         id="path735" />
      <path
         d="m 23.853782,5.8588398 0.133055,-0.056023 v -0.04902 l -0.04202,0.028012 h -0.04902 L 24.04286,5.1865614 h 0.04202 l -0.09804,0.4061682 v 0.070029 l 0.07703,-0.1260522 -0.02101,-0.070029 V 5.42466 h 0.04202 l 0.05602,-0.140058 h -0.05602 l 0.02801,-0.140058 h 0.04902 l 0.161066,-0.8893683 h 0.04902 c 0.04902,-0.2170899 0.09104,-0.420174 0.126052,-0.630261 0.02801,-0.210087 0.04902,-0.420174 0.07003,-0.6442668 l -0.07703,-1.0574379 0.02101,-0.770319 0.36415,0.028012 c 0.04902,0 0.105044,0 0.16807,0.007 0.05602,0.007 0.105043,-0.014006 0.140058,-0.063026 l -0.02101,-0.063026 c -0.07703,-0.021009 -0.154064,-0.056023 -0.21709,-0.10504354 -0.06303,-0.0490203 -0.133055,-0.0910377 -0.189078,-0.14005801 l -0.02101,-0.1960812 c -0.02101,-0.0630261 -0.05602,-0.1120464 -0.112046,-0.140058 -0.05602,-0.0350145 -0.112046,-0.0630261 -0.154064,-0.0980406 l -0.147061,0.0490203 -0.09104,0.1680696 h -0.04902 l 0.02801,-0.1680696 h 0.02101 l -0.07003,0.1190493 0.02101,0.1750725 V 1.0338417 c -0.245101,0.042017 -0.462191,0.1190493 -0.665275,0.2240928 -0.210087,0.098041 -0.43418,0.1820754 -0.672279,0.2310957 l -0.357148,0.3361392 v 0.028012 c 0.07703,-0.021009 0.147061,-0.014006 0.196082,0.007 0.04902,0.021009 0.09104,0.070029 0.140058,0.1260522 l 0.119049,-0.014006 0.04902,-0.1470609 c 0.189079,-0.077032 0.371154,-0.1750725 0.560232,-0.2871189 0.182076,-0.1120464 0.371154,-0.2030841 0.560232,-0.2871189 h 0.07003 l 0.11905,1.6036641 c -0.02101,0.5042088 -0.06303,0.9944118 -0.126053,1.4776119 -0.07703,0.490203 -0.182075,0.9664002 -0.322133,1.4215887 z M 21.7249,4.8504222 h 0.04902 v -0.091038 h 0.07003 l -0.02101,-0.098041 h -0.04902 c 0.02101,-0.1260522 0.02801,-0.2591073 0.02801,-0.3921624 0,-0.140058 0.01401,-0.2731131 0.04202,-0.3991653 v -0.028012 c -0.02801,0.063026 -0.07003,0.1260522 -0.11905,0.1750725 -0.04902,0.063026 -0.07703,0.1330551 -0.07703,0.2170899 l -0.09104,-0.1260522 c -0.01401,-0.350145 0.007,-0.6862842 0.06303,-1.0014147 0.05602,-0.3011247 0.09104,-0.630261 0.105043,-0.9664002 0.01401,-0.2521044 0,-0.5042088 -0.03501,-0.7493103 -0.04202,-0.2380986 -0.11905,-0.45518854 -0.252105,-0.64426685 l 0.09804,0.62325815 c 0,0.3221334 -0.01401,0.630261 -0.04902,0.9383886 -0.03502,0.3081276 -0.05602,0.6162552 -0.07003,0.9313857 0,0.2731131 0,0.5462262 0,0.8193393 0,0.2731131 0.06303,0.5112117 0.189078,0.7212987 z"
         id="path737" />
      <path
         d="m 32.187221,5.7818079 0.03501,-0.014006 c -0.03501,-0.1820754 -0.05602,-0.3781566 -0.06303,-0.5812407 -0.007,-0.1960812 -0.02801,-0.3991653 -0.05602,-0.6022494 l 0.04202,-0.2521044 -0.01401,-0.1820754 0.06303,-0.5042088 0.392162,-0.2030841 0.07703,-0.084035 0.126052,-0.1750725 c 0.007,-0.042017 0,-0.077032 -0.02101,-0.1050435 -0.02101,-0.035014 -0.04902,-0.063026 -0.07003,-0.098041 l -0.07003,-0.091038 -0.03501,0.007 v -0.028012 h -0.02801 L 32.47434,2.7425493 32.52336,2.6445087 32.509354,2.5184565 31.998142,2.273355 v -0.042017 l 0.196082,-0.210087 0.02801,-0.04902 0.147061,-0.084035 v -0.028012 c 0.02801,0.007 0.05602,0 0.07703,-0.021009 0.02101,-0.021009 0.04202,-0.042017 0.06303,-0.063026 l 0.02801,-0.04902 0.112046,-0.056023 v -0.042017 h 0.02801 v -0.028012 h -0.02801 V 1.5660621 C 32.57238,1.5380505 32.495348,1.503036 32.418316,1.4610186 32.348287,1.4190012 32.264253,1.3909896 32.180218,1.3699809 l -0.07003,0.014006 h -0.105044 v -0.028012 l 0.238099,-0.210087 0.007,-0.084035 h 0.03501 c 0.07703,-0.056023 0.140058,-0.13305514 0.21709,-0.22409285 0.07003,-0.0840348 0.147061,-0.1540638 0.21709,-0.2030841 v -0.0350145 l 0.238099,-0.1610667 -0.007,-0.0840348 -0.126052,-0.13305511 -0.462192,-0.1820754 c -0.336139,0.0770319 -0.637264,0.2170899 -0.903374,0.44118271 -0.26611,0.2240928 -0.553229,0.3921624 -0.861357,0.52521755 l -0.119049,0.007 -0.182075,-0.21008705 h -0.07003 l -0.01401,0.0420174 c -0.007,0.0840348 0.01401,0.15406381 0.06303,0.20308415 0.04902,0.042017 0.09104,0.098041 0.133055,0.1540638 0.03501,0.007 0.06303,0.028012 0.09104,0.063026 0.02101,0.035014 0.04902,0.04902 0.08404,0.042017 v 0.035014 l 0.07703,0.056023 h 0.196082 c 0.04902,-0.04902 0.09104,-0.1050435 0.140058,-0.1610667 0.04202,-0.056023 0.09104,-0.1050435 0.147061,-0.1470609 l 0.140058,-0.19608124 h 0.03501 l 0.259107,-0.22409281 v -0.0350145 l 0.287119,-0.1540638 v -0.0280116 l 0.245102,-0.0770319 h 0.02801 l -0.126052,0.2521044 -0.08404,0.0840348 -0.133055,0.1610667 -0.04902,0.0840348 -0.112046,0.0630261 -0.55323,0.4832001 v 0.035014 h -0.03501 l -0.154064,0.1750725 -0.01401,0.04902 0.007,0.04902 c 0.02101,0.063026 0.04902,0.1120464 0.09804,0.1540638 0.04902,0.04902 0.09804,0.098041 0.154064,0.140058 l 0.119049,-0.042017 0.08404,0.021009 c 0.007,0.035014 0.007,0.070029 0.01401,0.1050435 0.007,0.035014 0.02101,0.063026 0.04202,0.084035 l -0.01401,0.063026 -0.08404,0.028012 -0.08403,0.1050435 0.126052,0.2941218 0.04902,0.014006 0.08404,0.091038 0.182075,-0.098041 h 0.06303 c -0.06303,0.1540638 -0.140058,0.3011247 -0.224092,0.4341798 -0.09104,0.1470609 -0.196082,0.280116 -0.308128,0.4131711 l -0.112046,0.04902 -0.04902,0.070029 c 0.01401,0.063026 0.03502,0.1260522 0.05602,0.1750725 0.02101,0.056023 0.05602,0.098041 0.09804,0.140058 0.09804,-0.014006 0.203084,-0.042017 0.301125,-0.077032 0.09104,-0.035014 0.182075,-0.077032 0.26611,-0.1190493 h 0.04902 l 0.03501,0.5672349 0.01401,0.6652755 -0.02801,0.1680696 -0.119049,0.04902 0.02801,0.084035 -0.01401,0.04902 v 0.021009 h 0.02801 l 0.007,0.035014 c 0.05602,0.035014 0.105043,0.070029 0.154064,0.1190493 0.04902,0.042017 0.105043,0.070029 0.168069,0.077032 v 0.035014 h 0.04202 v 0.021009 z m -3.23534,-0.350145 h 0.01401 C 28.909863,5.3266194 28.867846,5.214573 28.818826,5.1095295 28.769805,4.9974831 28.699776,4.8924396 28.615742,4.8014019 l -0.04202,-0.028012 v -0.035014 l -0.07703,-0.007 -0.343142,-0.3291363 0.287119,0.7493103 0.04902,0.014006 0.02101,0.04902 c 0.06303,0.063026 0.133055,0.1050435 0.210087,0.1330551 0.07703,0.028012 0.161067,0.056023 0.231096,0.084035 z m 0.259107,-0.4341798 0.06303,-0.007 0.09804,-0.098041 c 0.02101,-0.1190493 0.07003,-0.2380986 0.154064,-0.3431421 0.09104,-0.1120464 0.154063,-0.2310957 0.196081,-0.350145 l -0.02101,-0.1960812 -0.04902,-0.014006 v -0.028012 l -0.26611,-0.1050435 c -0.105044,-0.021009 -0.203084,-0.007 -0.280116,0.042017 -0.09104,0.04902 -0.175073,0.1120464 -0.245102,0.1890783 v 0.014006 l 0.343142,0.028012 c 0.007,0.077032 0,0.140058 -0.02101,0.210087 -0.01401,0.070029 -0.04202,0.140058 -0.07003,0.2030841 l -0.09804,0.028012 v 0.077032 l -0.04902,0.021009 0.119049,0.2170899 0.112046,0.063026 z M 28.53871,3.673935 c 0.175072,-0.04902 0.350145,-0.1120464 0.511211,-0.1890783 0.154064,-0.077032 0.322134,-0.1330551 0.490203,-0.1960812 L 29.302026,3.1557204 c -0.105044,0.007 -0.196081,0.028012 -0.280116,0.070029 -0.09104,0.04902 -0.16807,0.098041 -0.252105,0.1540638 h -0.06303 l 0.06303,-0.063026 0.09804,-0.084035 0.09804,-0.1050435 0.126052,-0.1190493 V 2.973645 h 0.03501 c 0.05602,-0.056023 0.126053,-0.1190493 0.203084,-0.1820754 0.07003,-0.063026 0.140058,-0.1190493 0.210087,-0.1610667 v -0.04902 l -0.154063,-0.063026 v -0.028012 l -0.196082,-0.056023 c -0.140058,0.021009 -0.26611,0.063026 -0.371153,0.1260522 -0.11905,0.077032 -0.231096,0.1470609 -0.350145,0.2170899 h -0.02801 l 0.182076,-0.2310957 0.126052,-0.1540638 0.322133,-0.280116 0.02101,-0.028012 0.168069,-0.1190493 0.01401,-0.028012 c 0.05602,-0.035014 0.112047,-0.070029 0.161067,-0.1050435 0.04202,-0.035015 0.105043,-0.070029 0.16807,-0.098041 v -0.028012 h 0.03501 v -0.035014 l 0.315131,-0.1120464 v -0.04902 l -0.08404,-0.028012 -0.05602,-0.063026 c -0.05602,-0.035015 -0.11905,-0.063026 -0.175073,-0.084035 -0.06303,-0.021009 -0.126052,-0.042017 -0.182075,-0.063026 h -0.06303 l -0.01401,0.04902 c -0.357148,0.098041 -0.70029,0.2380986 -1.022424,0.3991653 -0.322133,0.1750725 -0.644267,0.3361392 -0.980406,0.5112117 h -0.07003 l 0.04202,-0.2240928 v -0.035014 l -0.21709,0.1540638 -0.007,0.04902 0.05602,0.1680696 0.196081,0.1260522 c 0.259108,-0.063026 0.504209,-0.1470609 0.735305,-0.2451015 0.224093,-0.1050435 0.469194,-0.210087 0.707293,-0.3081276 l 0.07003,-0.007 -0.252105,0.3221334 h -0.03501 l -0.007,0.04902 -0.04902,0.014006 c -0.09804,0.1120464 -0.189079,0.2170899 -0.273113,0.3151305 -0.09104,0.1050435 -0.161067,0.210087 -0.210087,0.3291363 l 0.112046,0.1960812 0.588244,-0.2380986 h 0.04902 L 28.531707,3.3097842 28.37064,3.4288335 c 0,0.035014 0.007,0.063026 0.01401,0.098041 0.007,0.035014 0.02101,0.056023 0.05602,0.077032 z m 3.263351,-0.1540638 -0.126052,0.063026 h -0.06303 l 0.119049,-0.2030841 h 0.06303 l 0.01401,0.063026 z m 0.43418,-0.2451015 -0.04902,0.035015 h -0.03502 l 0.02101,-0.1960812 -0.02801,-0.007 0.02101,-0.063026 0.06303,-0.063026 v -0.042017 l 0.175073,0.1890783 v 0.028012 z m -3.417415,-2.40199475 0.01401,-0.0140058 0.189078,0.007003 c 0.08404,-0.0350145 0.161067,-0.0630261 0.238098,-0.0980406 0.07703,-0.0210087 0.161067,-0.0420174 0.238099,-0.0630261 l -0.08404,-0.1470609 -0.07003,-0.0630261 V 0.46660675 L 29.224994,0.36856615 C 29.154965,0.33355165 29.077933,0.29153424 29.000901,0.24251394 28.916866,0.20049654 28.839834,0.17948784 28.7558,0.16548204 l -0.112047,0.0140058 c 0.04202,0.0490203 0.09804,0.0910377 0.175073,0.1190493 0.07003,0.0350145 0.126052,0.0770319 0.168069,0.14005801 l 0.05602,0.0210087 -0.154064,0.3221334 h -0.02101 v 0.0350145 l -0.07003,0.0420174 z"
         id="path739" />
      <path
         d="m 35.23347,6.1039413 0.06303,-0.014006 0.05602,-0.077032 C 35.303499,5.8238253 35.254479,5.6417499 35.205458,5.4456687 35.156438,5.2635933 35.107418,5.0815179 35.058397,4.8854367 h -0.02801 l -0.02101,0.2170899 h -0.03501 C 34.925342,5.0114889 34.869319,4.9204512 34.806293,4.8434193 34.743267,4.7593845 34.680241,4.6753497 34.603209,4.5913149 L 34.414131,4.4372511 h -0.02101 c 0.08404,0.2240928 0.175072,0.4551885 0.273113,0.6862842 0.08404,0.2310957 0.16807,0.4621914 0.231096,0.70029 l 0.119049,0.070029 v 0.035014 z m 3.774563,-1.3935771 0.126052,-0.056023 0.01401,-0.042017 0.04902,-0.021009 c 0.09804,-0.3641508 0.16807,-0.7493103 0.203084,-1.1484756 0.03502,-0.3921624 0.133056,-0.7773219 0.287119,-1.1414727 l 0.126053,-0.063026 0.06303,0.007 h 0.04202 l 0.04202,-0.1610667 c -0.02101,-0.028012 -0.02801,-0.063026 -0.02801,-0.1120464 0,-0.042017 -0.01401,-0.077032 -0.03502,-0.1120464 h -0.02801 l -0.04902,-0.056023 C 39.70132,1.7271288 39.589274,1.6641027 39.456219,1.6220853 39.330166,1.5800679 39.190108,1.5450534 39.064056,1.5100389 l -0.413171,0.056023 c -0.09104,0.021009 -0.161067,0.014006 -0.224093,-0.035014 -0.06303,-0.04902 -0.119049,-0.091038 -0.182075,-0.1330551 l -0.05602,0.007 -0.01401,0.035014 c -0.09104,0.084035 -0.182076,0.1680696 -0.26611,0.2521044 -0.09104,0.091038 -0.210087,0.1260522 -0.33614,0.1190493 l -0.105043,0.1470609 c 0.02101,0.063026 0.03501,0.1190493 0.05602,0.1820754 0.02101,0.063026 0.03502,0.1190493 0.05602,0.1820754 l 0.03501,0.014006 0.03501,0.091038 0.175073,0.056023 0.133055,-0.014006 0.04202,-0.091038 h 0.03502 l 0.04202,-0.077032 h 0.03502 l 0.01401,0.140058 0.07703,-0.035014 0.02101,-0.007 v 0.3151305 c -0.154064,0.028012 -0.294122,0.077032 -0.43418,0.140058 -0.140058,0.070029 -0.273113,0.1330551 -0.413171,0.1890783 v 0.014006 l 0.252105,0.1890783 c 0.08403,-0.035014 0.175072,-0.063026 0.26611,-0.091038 0.07703,-0.028012 0.168069,-0.04902 0.259107,-0.084035 h 0.04902 c 0.02101,0.1680696 0,0.3221334 -0.07703,0.4551885 -0.07703,0.1330551 -0.182076,0.2521044 -0.294122,0.3641508 l -0.02801,0.056023 -0.175072,0.1190493 h -0.04902 c 0.007,-0.280116 -0.04902,-0.5462262 -0.154063,-0.7913277 -0.09804,-0.2451015 -0.231096,-0.4761972 -0.378157,-0.7072929 h -0.02801 V 2.5394652 L 36.68307,2.273355 h -0.02801 c 0.06303,0.1960812 0.126052,0.3781566 0.210087,0.5532291 0.07703,0.1820754 0.140058,0.3641508 0.182075,0.5672349 l 0.007,0.2731131 -0.04902,0.021009 -0.01401,0.04902 0.238098,0.350145 0.04902,0.014006 0.119049,0.1750725 h 0.08404 l -0.007,-0.028012 0.105043,-0.028012 0.04902,0.014006 0.105043,0.210087 c 0.007,0.021009 0.02101,0.035014 0.04202,0.04902 0.014,0.021009 0.02801,0.028012 0.04902,0.035014 0.126052,-0.035014 0.26611,-0.070029 0.399165,-0.1120464 0.126052,-0.042017 0.252105,-0.091038 0.371154,-0.1470609 h 0.04202 c 0.02101,0 0.04202,0.007 0.04902,0.028012 0.007,0.021009 0.01401,0.04902 0.01401,0.077032 z m -3.417415,-0.056023 0.02101,-0.014006 0.01401,0.014006 0.07703,-0.014006 0.06303,-0.077032 -0.01401,-0.1050435 h -0.02801 l -0.04202,-0.3921624 -0.09104,0.2240928 -0.259108,-0.070029 -0.08403,0.028012 0.06303,0.1680696 z m -0.560232,-0.4061682 0.01401,-0.04902 c 0.04902,-0.091038 0.119049,-0.1820754 0.196081,-0.2591073 0.07003,-0.084035 0.147061,-0.1610667 0.224093,-0.2240928 l 0.04902,-0.035014 0.133055,-0.1890783 0.04202,-0.014006 0.04202,-0.084035 0.04902,-0.007 0.112046,-0.1540638 h 0.03502 l 0.21709,-0.210087 0.03501,-0.077032 h 0.04202 l 0.09804,0.2240928 -0.01401,0.2240928 v 0.042017 l 0.140058,-0.042017 0.161066,-0.3431421 c 0.007,-0.077032 0,-0.140058 -0.01401,-0.2030841 -0.01401,-0.056023 -0.03501,-0.1050435 -0.05602,-0.1540638 -0.05602,-0.091038 -0.112046,-0.1750725 -0.175072,-0.2591073 -0.07003,-0.084035 -0.147061,-0.1540638 -0.231096,-0.2030841 l -0.08404,0.007 v 0.021009 h -0.04202 v 0.014006 h 0.04202 l 0.06303,0.3011247 0.007,0.063026 -0.154064,0.1190493 v 0.035014 l -0.133055,0.084035 -0.210087,0.1960812 -0.014,0.028012 h -0.02101 l 0.140058,-0.3081276 0.07703,-0.04902 v -0.028012 l 0.04902,-0.014006 0.02101,-0.098041 -0.01401,-0.077032 c 0.02101,-0.1890783 0.07003,-0.3641508 0.161067,-0.5252175 0.09104,-0.1540638 0.182075,-0.3151305 0.273113,-0.4691943 L 36.269899,1.3349664 35.919754,1.2159171 h -0.05602 l -0.01401,0.063026 h -0.02801 l -0.04202,0.1470609 c -0.112046,0.1610667 -0.224093,0.3081276 -0.350145,0.4691943 -0.126052,0.1540638 -0.26611,0.2731131 -0.420174,0.3571479 h -0.02801 l 0.105044,-0.2871189 h 0.03501 l 0.231096,-0.5322204 0.04202,-0.084035 c 0.02101,-0.035014 0.03501,-0.070029 0.04902,-0.1120464 0.007,-0.035015 0.03501,-0.063026 0.07003,-0.070029 l 0.04902,-0.04902 0.02801,-0.070029 c 0,-0.0630261 -0.007,-0.11904934 -0.01401,-0.18207545 -0.01401,-0.0560232 -0.04202,-0.1050435 -0.08404,-0.1540638 l -0.287119,-0.1750725 -0.007,-0.0350145 h -0.02801 l -0.07703,-0.0980406 -0.03502,0.0140058 c -0.007,0.0490203 -0.007,0.0910377 0.01401,0.1260522 0.02101,0.0350145 0.03502,0.0770319 0.05602,0.1120464 -0.007,0.30812761 -0.05602,0.58824365 -0.147061,0.84735095 -0.09804,0.2661102 -0.196081,0.5252175 -0.287118,0.7913277 l -0.09104,0.028012 -0.06303,0.1120464 c 0.007,0.063026 0.03501,0.1050435 0.08404,0.1540638 0.04202,0.04902 0.07003,0.098041 0.07703,0.1610667 l 0.147061,0.1820754 0.04902,-0.007 0.07703,-0.084035 v -0.028012 l 0.126052,-0.1470609 0.05602,-0.140058 c 0.06303,-0.056023 0.126052,-0.1190493 0.182075,-0.1960812 0.06303,-0.077032 0.11905,-0.1330551 0.175073,-0.1820754 l 0.08404,-0.140058 h 0.03501 c -0.02801,0.1750725 -0.06303,0.3431421 -0.112046,0.5112117 -0.05602,0.1610667 -0.11905,0.3151305 -0.189079,0.4761972 h -0.02801 l -0.08404,0.210087 c -0.04902,0.098041 -0.105043,0.1890783 -0.16807,0.2731131 -0.05602,0.091038 -0.126052,0.1680696 -0.203084,0.2240928 l -0.04902,0.1260522 h -0.01401 v 0.028012 h 0.02801 z m 1.274528,-0.042017 c 0.007,0 0.02801,-0.007 0.04902,-0.014006 0.02101,-0.007 0.02101,-0.028012 0.007,-0.04902 l 0.06303,-0.014006 v -0.028012 h 0.03501 l -0.03501,-0.1190493 0.01401,-0.1050435 v -0.014006 l -0.476198,-0.1050435 -0.161066,0.014006 v 0.035014 h 0.02801 v 0.028012 l 0.189079,0.1260522 v 0.021009 l 0.252104,0.210087 z M 38.860972,4.0590945 38.790943,4.02408 38.580856,3.7019466 v -0.042017 l 0.16807,-0.1610667 0.03501,-0.077032 0.09104,-0.035014 h 0.04902 c 0.007,0.1050435 0,0.2170899 -0.01401,0.3151305 -0.01401,0.1050435 -0.02801,0.210087 -0.04902,0.3081276 z m 0.08404,-1.2885336 -0.336139,-0.084035 c -0.007,-0.084035 -0.01401,-0.1680696 -0.02101,-0.2451015 -0.007,-0.077032 -0.02101,-0.1540638 -0.04202,-0.2170899 -0.02801,-0.042017 -0.07703,-0.063026 -0.133056,-0.063026 -0.05602,0 -0.105043,-0.007 -0.14706,-0.014006 l 0.014,-0.04902 c 0.09104,-0.04902 0.189079,-0.091038 0.287119,-0.1190493 0.105044,-0.028012 0.203084,-0.04902 0.301125,-0.070029 h 0.04902 v 0.042017 l -0.04902,0.014006 -0.02801,0.063026 0.03502,0.1680696 -0.04202,0.1050435 v 0.028012 l 0.02801,0.014006 c 0.04902,0.035014 0.07703,0.070029 0.07703,0.1190493 0,0.04902 0.007,0.084035 0.02101,0.1260522 l -0.01401,0.028012 z"
         id="path741" />
    </g>
  </g>
</svg>
