<?xml version="1.0" encoding="UTF-8" standalone="no"?>
<!-- Created with Inkscape (http://www.inkscape.org/) -->

<svg
   width="35.000999mm"
   height="7mm"
   viewBox="0 0 35.000998 7"
   version="1.1"
   id="svg5"
   inkscape:version="1.2.2 (b0a8486, 2022-12-01)"
   sodipodi:docname="quitForm.svg"
   xmlns:inkscape="http://www.inkscape.org/namespaces/inkscape"
   xmlns:sodipodi="http://sodipodi.sourceforge.net/DTD/sodipodi-0.dtd"
   xmlns="http://www.w3.org/2000/svg"
   xmlns:svg="http://www.w3.org/2000/svg">
  <sodipodi:namedview
     id="namedview7"
     pagecolor="#ffffff"
     bordercolor="#000000"
     borderopacity="0.25"
     inkscape:showpageshadow="2"
     inkscape:pageopacity="0.0"
     inkscape:pagecheckerboard="0"
     inkscape:deskcolor="#d1d1d1"
     inkscape:document-units="mm"
     showgrid="false"
     inkscape:zoom="4.7488465"
     inkscape:cx="82.756939"
     inkscape:cy="27.26978"
     inkscape:window-width="1440"
     inkscape:window-height="771"
     inkscape:window-x="1080"
     inkscape:window-y="1616"
     inkscape:window-maximized="0"
     inkscape:current-layer="layer1" />
  <defs
     id="defs2">
    <rect
       x="-1.8951972"
       y="4.0009718"
       width="213.31496"
       height="77.703079"
       id="rect268" />
  </defs>
  <g
     inkscape:label="Layer 1"
     inkscape:groupmode="layer"
     id="layer1">
    <text
       xml:space="preserve"
       style="font-size:8.85995px;font-family:KouzanBrushFontGyousyoOTF;-inkscape-font-specification:KouzanBrushFontGyousyoOTF;fill:#000000;stroke-width:0.166124"
       x="-1.3619121"
       y="8.4681635"
       id="text214"
       transform="scale(0.67763293,1.4757252)"><tspan
         sodipodi:role="line"
         id="tspan212"
         style="stroke-width:0.166124"
         x="-1.3619121"
         y="8.4681635" /></text>
    <text
       xml:space="preserve"
       transform="scale(0.26458333)"
       id="text266"
       style="font-size:53.3333px;font-family:KouzanBrushFontGyousyoOTF;-inkscape-font-specification:KouzanBrushFontGyousyoOTF;white-space:pre;shape-inside:url(#rect268);display:inline;fill:#000000" />
    <g
       aria-label="退会フォーム"
       transform="scale(0.82151861,1.2172579)"
       id="text609"
       style="font-size:7.46074px;font-family:KouzanBrushFontGyousyoOTF;-inkscape-font-specification:KouzanBrushFontGyousyoOTF;fill:#1a1a1a;stroke-width:0.430428">
      <path
         d="m 4.9682484,5.2545737 0.022382,-0.014921 0.067147,0.014921 C 5.326364,5.2321915 5.5874899,5.2023485 5.8560765,5.1725055 6.1172024,5.1501233 6.3783283,5.1128196 6.6394542,5.0680552 L 6.5946898,4.9785263 5.8635372,4.9113796 5.841155,4.8740759 H 5.7217832 l 0.00746,0.022382 -0.052225,0.00746 -0.00746,-0.037304 C 4.9384055,4.8591545 4.1997922,4.7920078 3.4686397,4.6577145 2.7374871,4.5383426 2.0287168,4.3443634 1.334868,4.0906982 v -0.037304 h 0.029843 l -0.00746,-0.037304 0.052225,-0.014921 c 0.037304,-0.059686 0.067147,-0.1119111 0.089529,-0.1790577 0.022382,-0.067147 0.037304,-0.1342933 0.044764,-0.20144 C 1.5512295,3.4639961 1.5139258,3.322242 1.4094754,3.2177916 1.305025,3.1058805 1.2229569,2.9865087 1.1408888,2.8671369 1.133428,2.747765 1.1558102,2.6507754 1.1931139,2.5537858 1.2304176,2.4642569 1.2677213,2.374728 1.334868,2.2926599 l 0.09699,-0.067147 0.022382,-0.044764 c 0.044764,-0.022382 0.089529,-0.052225 0.1342934,-0.074607 0.044764,-0.022382 0.09699,-0.029843 0.1492148,-0.022382 L 1.7302872,1.9196229 H 1.7004443 L 1.6407583,1.830094 H 1.5885332 V 1.7778688 L 1.2901036,1.7405651 v -0.00746 L 0.93198804,1.6883399 0.87230212,1.8151725 h -0.029843 L 0.79769472,1.9569266 C 0.69324436,2.031534 0.59625474,2.0986806 0.49926512,2.1807488 0.40227549,2.2628169 0.29782513,2.3299636 0.17845329,2.374728 l -0.0522252,-0.00746 H 0.07400293 v 0.014921 l 0.34319404,0.2835082 0.23128295,-0.037304 0.0895289,0.022382 C 0.7753125,2.7850687 0.84245916,2.9119013 0.93198804,3.0088909 1.0215169,3.1133413 1.0886636,3.2327131 1.1259673,3.3670064 v 0.3058904 c -0.022382,0.059686 -0.052225,0.1193718 -0.1044504,0.171597 -0.0522252,0.052225 -0.0969896,0.089529 -0.15667552,0.1119111 l -0.1865185,-0.029843 -0.1492148,0.022382 -0.0969896,0.1641362 c 0.0522252,0.067147 0.0969896,0.1268326 0.14175407,0.1939793 0.0373037,0.067147 0.0746074,0.1342933 0.12683258,0.20144 h 0.11937184 l 0.0149215,-0.052225 0.11937184,-0.022382 C 1.6332976,4.5308819 2.2973035,4.7024789 2.9463879,4.9412226 3.5954723,5.1799663 4.2743996,5.2918774 4.9682484,5.2545737 Z M 3.0657597,4.1503841 3.1851315,4.0906982 c 0.052225,-0.082068 0.1044504,-0.171597 0.1566756,-0.2536651 0.044764,-0.082068 0.074607,-0.1790578 0.1044504,-0.2685867 h 0.014921 c 0.029843,-0.089529 0.067147,-0.171597 0.1193719,-0.2536651 0.052225,-0.074607 0.082068,-0.1566756 0.1044503,-0.2536652 l 0.044764,-0.022382 0.082068,-0.1492148 h 0.029843 L 4.0281952,2.7030006 c 0.074607,0.00746 0.141754,0.037304 0.2089007,0.089529 0.059686,0.059686 0.1193718,0.1044504 0.1865185,0.1342934 -0.00746,0.059686 -0.037304,0.1268326 -0.082068,0.1939792 -0.052225,0.067147 -0.09699,0.1342933 -0.1342934,0.1939793 v 0.014921 l 0.044764,-0.037304 h 0.037304 l 0.00746,0.067147 0.074607,-0.022382 0.044764,-0.067147 0.1044503,0.029843 0.2536652,-0.059686 h 0.052225 v 0.014921 L 5.1622277,3.3595457 5.2741388,3.3297027 V 3.1954094 h 0.029843 L 5.2442958,3.1655665 5.1846099,3.0163517 C 5.0279344,2.9268228 4.8712588,2.8372939 4.6996618,2.7626865 4.5355255,2.6955398 4.349007,2.6656969 4.1624885,2.6656969 l -0.00746,-0.037304 C 4.3117033,2.5612465 4.4609181,2.4866391 4.6175936,2.3896495 4.7593477,2.3075813 4.923484,2.2404347 5.095081,2.1956702 l -0.059686,-0.141754 c -0.09699,0 -0.1939793,-0.022382 -0.2909689,-0.044765 -0.089529,-0.022382 -0.1865185,-0.044764 -0.2835081,-0.074607 h -0.067147 v 0.029843 L 4.1028026,2.3225028 4.0580381,2.3672673 V 2.404571 L 3.8789804,2.5388643 V 2.576168 L 3.3865715,2.8745976 3.5357863,2.919362 v 0.052225 L 3.2895819,3.2028702 3.2746604,3.2550953 2.9090842,3.5982894 H 2.8792412 C 2.8717805,3.3670064 2.8867019,3.150645 2.9314664,2.949205 2.9687701,2.747765 3.0135345,2.546325 3.058299,2.3374243 3.1925923,2.2628169 3.3418071,2.2105917 3.4984826,2.173288 3.6626189,2.1434451 3.7969122,2.0762984 3.9237448,1.9867695 L 3.97597,1.8823192 4.0878811,1.9494658 4.1550278,1.9270836 C 4.2370959,1.7331044 4.3042426,1.5242036 4.3415463,1.3153029 4.37885,1.1064022 4.4534574,0.89750147 4.550447,0.7184437 L 4.6474366,0.68114 4.6772796,0.6065326 h 0.052225 V 0.5692289 h 0.014922 l -0.00746,-0.0373037 -0.082068,-0.029843 -0.014921,-0.0895289 C 4.5429862,0.3454067 4.4310751,0.29318152 4.3266248,0.26333856 4.2072529,0.2334956 4.0953418,0.1961919 3.9983522,0.1588882 l -0.1044503,0.007461 -0.022382,0.0447644 C 3.6626189,0.25587782 3.4537182,0.31556374 3.2522782,0.3827104 3.0508382,0.44985706 2.8344768,0.50954298 2.6181153,0.56176816 l -0.1790578,-0.007461 h -0.037304 c 0.1119111,0.0671467 0.231283,0.11937184 0.3506548,0.17159702 0.1119111,0.0522252 0.2387437,0.0820682 0.3581155,0.10445037 0.067147,-0.007461 0.1417541,-0.007461 0.2238222,-0.0149215 0.074607,0 0.1268326,-0.0223822 0.1641363,-0.0820682 l 0.089529,-0.0447644 v -0.0522252 h 0.052225 l 0.082068,-0.0895289 0.00746,-0.0522252 0.1790577,-0.0746074 h 0.029843 L 3.8939019,1.0392555 C 3.8491374,1.0317948 3.804373,1.0094126 3.7670693,0.97956961 3.7223048,0.95718739 3.6850011,0.93480517 3.6402367,0.92734443 3.4761004,0.94972665 3.3268856,0.98703035 3.1776708,1.054177 3.028456,1.1213237 2.8792412,1.1660881 2.7374871,1.2033918 L 2.998613,1.3899103 c 0.1417541,-0.00746 0.2909689,-0.029843 0.4252622,-0.052225 0.1417541,-0.022382 0.2685867,-0.074607 0.373037,-0.1641362 l 0.067147,-0.00746 -0.014921,0.2163615 -0.1044503,0.022382 c 0,0.044764 0.014921,0.09699 0.044764,0.1417541 0.029843,0.052225 0.044764,0.1044503 0.052225,0.1641362 l 0.037304,-0.00746 0.037304,0.059686 v 0.014922 L 3.6775404,1.7629473 H 3.57309 L 3.5507078,1.8450155 3.1179849,2.0688377 H 3.0732204 C 3.0657597,1.9196229 3.0209953,1.7704081 2.9389271,1.6435755 2.856859,1.5092822 2.7747908,1.3899103 2.6778012,1.2630777 L 2.5136649,1.1511666 h -0.037304 l 0.1342934,0.6714666 c 0.014921,0.3282726 0.014921,0.6490844 0,0.9624355 -0.014922,0.3133511 -0.037304,0.6192414 -0.067147,0.9251318 l 0.014922,0.1044503 h 0.037304 l 0.20144,0.1715971 c 0.044764,0.037304 0.082068,0.067147 0.1193718,0.09699 0.037304,0.037304 0.082068,0.059686 0.1492148,0.067147 z m -2.27552572,-2.9469923 0.0373037,-0.052225 0.0969896,0.014922 0.2238222,-0.074607 0.3282726,0.067147 0.044764,-0.059686 h 0.029843 l -0.067147,-0.022382 v -0.0895289 h 0.037304 L 1.4020147,0.77066889 C 1.2901036,0.7184437 1.1781925,0.66621852 1.0513599,0.61399334 0.9245273,0.56176816 0.80515546,0.5319252 0.67832288,0.50954298 l -0.13429332,0.007461 0.0373037,0.0895289 0.3357333,0.27604739 c -0.007461,0.0522252 -0.0149215,0.1119111 -0.0373037,0.16413631 -0.0223822,0.052225 -0.0522252,0.09699 -0.0895289,0.141754 z"
         id="path611" />
      <path
         d="m 9.8997833,5.2545737 0.014922,-0.052225 c 0.1268322,0.00746 0.2536652,-0.00746 0.3581152,-0.044764 0.111911,-0.037304 0.223823,-0.074607 0.343194,-0.1119111 l 0.358116,-0.2462045 0.01492,-0.089529 h 0.05223 l 0.06715,-0.089529 0.134294,-0.1715971 V 4.41151 c -0.179058,0.00746 -0.365577,0.022382 -0.529713,0.044765 -0.171597,0.022382 -0.343194,0.067147 -0.50733,0.1268326 h -0.04476 l 0.305891,-0.4625659 0.05222,-0.014921 0.04476,-0.082068 h 0.02984 l 0.01492,-0.067147 0.0373,-0.00746 0.01492,-0.044765 h 0.02984 l 0.05222,-0.052225 v -0.029843 h 0.0373 l 0.08207,-0.082068 0.0373,-0.1044503 0.171598,-0.067147 0.01492,-0.044764 c 0.07461,-0.037304 0.149215,-0.067147 0.231283,-0.1044504 0.08207,-0.037304 0.156675,-0.067147 0.231283,-0.089529 l 0.02984,-0.089529 h 0.0373 l -0.05969,-0.1865185 -0.126833,-0.067147 v -0.022382 c -0.08207,-0.022382 -0.149215,-0.044764 -0.216361,-0.067147 -0.05969,-0.022382 -0.126833,-0.052225 -0.20144,-0.089529 l -0.05969,0.022382 -0.08207,-0.014921 -0.164137,0.014921 -0.01492,0.1119112 -0.380498,0.1193718 -0.04476,0.00746 v -0.052225 c 0.06715,-0.044764 0.126832,-0.1044504 0.186518,-0.1790578 0.05969,-0.067147 0.111911,-0.1268326 0.179058,-0.171597 l 0.06715,-0.1193719 0.126832,-0.037304 0.04476,-0.1268326 h 0.08953 l 0.06715,-0.1044503 -0.02984,-0.20144 -0.06715,-0.00746 -0.01492,-0.022382 -0.373037,-0.074607 -1.0295822,0.1790578 c 0.074607,0.074607 0.1492148,0.1417541 0.2387437,0.1939792 0.082068,0.044764 0.1865185,0.074607 0.2909685,0.067147 v 0.044764 C 9.9445478,2.5836287 9.8624796,2.7104613 9.7804115,2.8372939 9.6908826,2.9641265 9.6013537,3.0834983 9.4969034,3.2028702 c -0.014922,0.074607 -0.00746,0.1342933 0.022382,0.1865185 0.022382,0.059686 0.067147,0.1119111 0.1268326,0.1641362 0.052225,0.067147 0.1193718,0.1119111 0.2014399,0.1193719 0.074607,0.014921 0.1417541,0.029843 0.2238219,0.044764 -0.06715,0.1268326 -0.134293,0.2462044 -0.2238219,0.3581155 -0.09699,0.1193719 -0.1790577,0.231283 -0.2462044,0.3581156 L 9.422296,4.5607249 9.3402278,4.7472434 9.56405,5.1053589 Z M 12.645336,5.01583 c 0.02984,-0.00746 0.05969,-0.014921 0.08207,-0.029843 0.01492,-0.014921 0.02984,-0.037304 0.04476,-0.074607 l 0.04476,-0.014921 0.01492,-0.044764 -0.09699,-0.2312829 -0.119372,-0.059686 V 4.5383426 C 12.511042,4.4786567 12.414053,4.4264315 12.302142,4.3742063 12.190231,4.3294419 12.08578,4.2846775 11.973869,4.2473738 h -0.02984 v 0.022382 l -0.223822,-0.037304 -0.134293,0.00746 0.09699,0.1417541 c 0,0.044764 -0.01492,0.089529 -0.0373,0.1268326 -0.02238,0.037304 -0.05223,0.074607 -0.08953,0.1044503 v 0.052225 l 0.0373,0.014921 0.149215,-0.037304 c 0.10445,-0.00746 0.20144,0.014921 0.290969,0.067147 0.08207,0.059686 0.179058,0.1119111 0.283508,0.1492148 v 0.037304 c 0.05222,0.014921 0.10445,0.029843 0.164136,0.044764 0.05223,0.022382 0.111911,0.044764 0.164137,0.074607 z M 7.6615613,3.8071901 c 0.067147,0 0.1268326,-0.014922 0.1790578,-0.044764 0.052225,-0.022382 0.1119111,-0.052225 0.1641362,-0.082068 v -0.029843 l 0.2685867,-0.1939793 0.052225,-0.059686 0.029843,-0.082068 0.09699,-0.044764 0.059686,-0.1119111 0.09699,-0.082068 C 8.6911434,2.9641265 8.7732116,2.8447546 8.847819,2.7328435 8.9224264,2.6283932 8.989573,2.5090213 9.049259,2.3821887 h 0.029843 l 0.029843,-0.089529 h 0.037304 l 0.014921,-0.082068 0.052225,-0.022382 0.373037,-0.6043199 0.1939793,0.022382 h 0.052225 l 0.014921,-0.1119111 -0.074607,-0.1939793 0.029843,-0.1641363 0.1268326,-0.1268325 0.014921,-0.0447645 0.2312832,-0.13429332 -0.0075,-0.0223822 0.05222,-0.0149215 c 0.08207,0.0447644 0.171597,0.0969896 0.253665,0.15667554 0.08207,0.059686 0.149215,0.12683255 0.216362,0.19397925 h 0.0373 l 0.208901,0.2462044 c 0.410341,0.3506548 0.857985,0.6640059 1.335473,0.9325925 0.477487,0.2611259 0.969896,0.4998696 1.462305,0.7162311 l 0.01492,0.067147 0.216362,-0.059686 0.01492,-0.052225 h 0.02984 L 13.965887,2.7850687 C 13.473478,2.5388643 12.98853,2.2851991 12.496121,2.031534 12.003712,1.7704081 11.541146,1.4645177 11.123345,1.1138629 V 1.0765592 C 11.011434,0.96464813 10.892062,0.86765851 10.757768,0.79305111 10.616014,0.71098296 10.489182,0.62145408 10.362349,0.5319252 l 0.0075,-0.0373037 V 0.24095634 C 10.287742,0.21111338 10.213134,0.18873116 10.123606,0.15142746 10.034077,0.1215845 9.9445478,0.09920228 9.8624796,0.0842808 H 9.8475581 V 0.12904524 L 9.7281863,0.09920228 9.6908826,0.11412376 v 0.029843 l -0.089529,0.007461 -0.00746,0.0373037 0.014921,0.10445036 -0.022382,0.21636146 -0.067147,0.0149215 0.014921,0.029843 -0.1417541,0.31335109 -0.1417541,0.0746074 -0.052225,0.0969896 0.037304,0.067147 v 0.059686 C 9.0791019,1.4645177 8.9298871,1.7704081 8.788133,2.0762984 8.646379,2.3896495 8.4598605,2.6806183 8.2509598,2.9566657 L 8.101745,3.150645 C 8.0345983,3.2625561 7.9599909,3.3595457 7.8853835,3.4639961 7.8107761,3.5759072 7.728708,3.665436 7.6167969,3.7624257 v 0.037304 z"
         id="path613" />
      <path
         d="m 17.696242,4.61295 0.126833,-0.044764 0.208901,-0.2387437 0.164136,-0.082068 h 0.156676 v 0.052225 c 0.387958,-0.4028799 0.716231,-0.8579851 0.969896,-1.3429332 0.253665,-0.4924088 0.50733,-0.9773569 0.760995,-1.4548443 l 0.149215,0.029843 0.08953,-0.029843 0.05222,-0.09699 h 0.08953 L 20.434334,1.28546 20.29258,1.1586274 C 20.158287,1.0989414 20.001611,1.0616377 19.844936,1.0392555 19.680799,1.024334 19.546506,0.95718739 19.419673,0.83781555 h -0.02984 v 0.0746074 l -0.179057,-0.0223822 -0.290969,0.12683257 -0.02984,-0.029843 c -0.417802,0 -0.820682,0.0149215 -1.216101,0.0373037 -0.40288,0.029843 -0.790838,0.082068 -1.163875,0.1566756 -0.07461,0 -0.156676,0 -0.238744,0 -0.08207,0 -0.156675,-0.014922 -0.231283,-0.052225 h -0.10445 v 0.1044504 h -0.08207 l 0.02238,0.1044503 0.134293,0.044764 c 0.09699,0.037304 0.164136,0.074607 0.216362,0.141754 0.05222,0.067147 0.10445,0.1417541 0.164136,0.2089008 C 16.778571,1.6137325 17.16653,1.5092822 17.56941,1.427214 17.97229,1.3526066 18.37517,1.3003814 18.807893,1.28546 h 0.08207 l 0.02984,0.074607 C 18.807893,1.9345443 18.658678,2.4940998 18.487081,3.0461946 18.308023,3.6057501 18.039436,4.1280019 17.696242,4.61295 Z"
         id="path615" />
      <path
         d="M 26.044796,5.7246003 26.104482,5.6574536 26.0821,5.4783959 26.104482,5.1352018 26.0821,4.9412226 26.104482,4.2473738 26.0821,4.0459338 26.104482,3.8295723 26.0821,3.7176612 26.104482,3.6430538 26.0821,3.3670064 c 0,-0.074607 0,-0.1492148 -0.0075,-0.2387436 -0.0075,-0.082068 0.0075,-0.1492148 0.0373,-0.2163615 l 1.11165,-0.1417541 v -0.037304 h 0.04476 v -0.074607 h -0.04476 l -0.02238,-0.074607 C 27.0893,2.546325 26.98485,2.5239428 26.872938,2.5090213 26.761027,2.5015606 26.656577,2.4717176 26.552127,2.4194924 l -0.111912,0.022382 -0.02238,0.074607 -0.223822,0.089529 h -0.08953 l 0.0075,-0.059686 -0.0075,-0.3058903 0.0075,-0.171597 -0.0075,-0.1566756 -0.328272,-0.1193718 -0.119372,-0.1268326 0.02238,0.09699 v 0.029843 h -0.05222 c 0.02238,0.089529 0.04476,0.1790577 0.06715,0.2685866 0.02238,0.09699 0.0373,0.1939793 0.05223,0.2909689 l -0.02238,0.3208118 -0.671466,0.171597 -0.231283,-0.044764 c -0.05222,-0.014921 -0.09699,0 -0.134293,0.037304 -0.0373,0.037304 -0.08207,0.059686 -0.134294,0.059686 l -0.0075,0.037304 -0.305891,0.089529 c 0.04476,0.00746 0.08953,0.029843 0.141754,0.052225 0.04477,0.022382 0.08953,0.037304 0.141754,0.037304 l 0.06715,0.09699 0.05969,0.022382 0.04476,0.067147 0.828142,-0.2611259 h 0.111912 c -0.08207,0.3058903 -0.223823,0.5893984 -0.432723,0.8654458 -0.20144,0.2685867 -0.373037,0.5371733 -0.529713,0.8206814 h -0.04476 L 24.448198,4.9412226 24.67202,4.8367722 25.134586,4.2249915 h 0.0373 l 0.186518,-0.2014399 0.0373,-0.067147 c 0.0373,-0.037304 0.07461,-0.074607 0.09699,-0.1119111 0.02984,-0.037304 0.07461,-0.059686 0.134294,-0.074607 l 0.119372,-0.20144 h 0.04476 l 0.08953,1.119111 c -0.0075,0.09699 -0.0075,0.20144 0.0075,0.3133511 0.0075,0.1119111 -0.01492,0.20144 -0.08207,0.2685867 0.01492,0.089529 0.04476,0.171597 0.09699,0.2312829 0.04477,0.067147 0.08953,0.1417541 0.141754,0.2238222 z"
         id="path617" />
      <path
         d="m 31.409054,3.0163517 c 0.484948,-0.089529 0.969896,-0.1715971 1.462305,-0.231283 0.484948,-0.059686 0.977357,-0.1119111 1.477227,-0.1417541 0.246204,0 0.492409,0.00746 0.738613,0.014921 0.238744,0.00746 0.447644,0.074607 0.649084,0.2163615 l 0.08207,-0.029843 0.111912,-0.2835081 0.141754,-0.029843 -0.02238,-0.089529 c -0.09699,-0.059686 -0.193979,-0.1044504 -0.290968,-0.1417541 -0.08953,-0.037304 -0.20144,-0.067147 -0.320812,-0.089529 -0.589399,0.059686 -1.193719,0.1119111 -1.805499,0.1566756 -0.619242,0.052225 -1.223562,0.1044503 -1.820421,0.1641362 C 31.588112,2.5537858 31.379211,2.5015606 31.192693,2.3821887 31.013635,2.2702776 30.812195,2.203131 30.603294,2.1807488 l 0.514791,0.6043199 z"
         id="path619" />
      <path
         d="M 38.825014,5.1501233 C 39.250276,4.8367722 39.712842,4.5980286 40.19779,4.4338923 40.682738,4.2622952 41.152764,4.0757767 41.61533,3.866876 l 0.06715,-0.1566755 -0.02238,-0.1417541 v -0.141754 l 0.07461,0.029843 c 0.09699,0.1119111 0.156676,0.2462044 0.179058,0.4178015 0.02238,0.1641362 0.06715,0.313351 0.149215,0.4252621 0.05222,0.082068 0.10445,0.1417541 0.171597,0.1790578 0.05969,0.037304 0.119372,0.059686 0.186518,0.082068 l 0.164137,-0.022382 0.02238,-0.089529 h 0.02984 V 4.1578449 l -0.05222,-0.029843 C 42.577766,3.9489442 42.533001,3.7848079 42.458394,3.6132109 42.383787,3.4490746 42.301718,3.292399 42.21219,3.1581057 42.01075,2.949205 41.81677,2.7701472 41.61533,2.6358539 41.40643,2.4940998 41.197529,2.374728 40.973707,2.2777384 h -0.05223 l 0.141755,0.2909688 0.246204,0.2387437 0.350655,0.5222518 v 0.067147 c -0.410341,0.074607 -0.820682,0.1790578 -1.20864,0.2984296 -0.380498,0.1342933 -0.775917,0.2611259 -1.178797,0.3954192 h -0.04476 c 0.179058,-0.4625659 0.373037,-0.917671 0.59686,-1.3727762 0.231283,-0.4476444 0.358115,-0.9400532 0.41034,-1.462305 0,-0.082068 -0.01492,-0.1566756 -0.0373,-0.2387437 -0.02238,-0.0820681 -0.05969,-0.14921479 -0.104451,-0.20890071 L 39.869517,0.75574741 39.757606,0.48716076 h -0.02238 l -0.05222,0.23874368 -0.09699,0.029843 0.02238,0.29842959 c -0.05222,0.3655763 -0.08953,0.7311525 -0.119372,1.119111 -0.02238,0.3879585 -0.10445,0.746074 -0.238743,1.0743466 v 0.052225 h 0.05222 v 0.029843 h 0.07461 v 0.1268326 h -0.05222 v -0.052225 l -0.126832,0.3804978 h -0.08953 l 0.04476,-0.2387437 h 0.02238 v -0.029843 h -0.02238 v -0.059686 h 0.04476 v -0.029843 l -0.04476,-0.022382 h -0.02984 L 38.89216,3.9862479 c -0.05222,0.09699 -0.10445,0.1566755 -0.171597,0.1790577 -0.07461,0.014921 -0.156675,0.014921 -0.238744,0 l -0.01492,0.3431941 h -0.02238 z"
         id="path621" />
    </g>
  </g>
</svg>
