<?xml version="1.0" encoding="UTF-8" standalone="no"?>
<!-- Created with Inkscape (http://www.inkscape.org/) -->

<svg
   width="35.000999mm"
   height="7mm"
   viewBox="0 0 35.000998 7"
   version="1.1"
   id="svg5"
   inkscape:version="1.2.2 (b0a8486, 2022-12-01)"
   sodipodi:docname="quitReasonConfirm.svg"
   xmlns:inkscape="http://www.inkscape.org/namespaces/inkscape"
   xmlns:sodipodi="http://sodipodi.sourceforge.net/DTD/sodipodi-0.dtd"
   xmlns="http://www.w3.org/2000/svg"
   xmlns:svg="http://www.w3.org/2000/svg">
  <sodipodi:namedview
     id="namedview7"
     pagecolor="#ffffff"
     bordercolor="#000000"
     borderopacity="0.25"
     inkscape:showpageshadow="2"
     inkscape:pageopacity="0.0"
     inkscape:pagecheckerboard="0"
     inkscape:deskcolor="#d1d1d1"
     inkscape:document-units="mm"
     showgrid="false"
     inkscape:zoom="4.7488465"
     inkscape:cx="62.962658"
     inkscape:cy="27.26978"
     inkscape:window-width="1440"
     inkscape:window-height="771"
     inkscape:window-x="1080"
     inkscape:window-y="1616"
     inkscape:window-maximized="0"
     inkscape:current-layer="layer1" />
  <defs
     id="defs2">
    <rect
       x="-1.8951972"
       y="4.0009718"
       width="213.31496"
       height="77.703079"
       id="rect268" />
  </defs>
  <g
     inkscape:label="Layer 1"
     inkscape:groupmode="layer"
     id="layer1">
    <text
       xml:space="preserve"
       style="font-size:8.85995px;font-family:KouzanBrushFontGyousyoOTF;-inkscape-font-specification:KouzanBrushFontGyousyoOTF;fill:#000000;stroke-width:0.166124"
       x="-1.3619121"
       y="8.4681635"
       id="text214"
       transform="scale(0.67763293,1.4757252)"><tspan
         sodipodi:role="line"
         id="tspan212"
         style="stroke-width:0.166124"
         x="-1.3619121"
         y="8.4681635" /></text>
    <text
       xml:space="preserve"
       transform="scale(0.26458333)"
       id="text266"
       style="font-size:53.3333px;font-family:KouzanBrushFontGyousyoOTF;-inkscape-font-specification:KouzanBrushFontGyousyoOTF;white-space:pre;shape-inside:url(#rect268);display:inline;fill:#000000" />
    <g
       aria-label="退会理由確認"
       transform="scale(0.82681217,1.2094645)"
       id="text669"
       style="font-size:7.25855px;font-family:KouzanBrushFontGyousyoOTF;-inkscape-font-specification:KouzanBrushFontGyousyoOTF;fill:#1a1a1a;stroke-width:0.418763">
      <path
         d="m 4.8351384,5.3987989 0.021776,-0.014517 0.065327,0.014517 C 5.1835488,5.3770232 5.4375981,5.347989 5.6989059,5.3189548 5.9529551,5.2971792 6.2070044,5.2608864 6.4610536,5.2173351 L 6.4175023,5.1302325 5.7061644,5.0649056 5.6843888,5.0286128 H 5.568252 l 0.00726,0.021776 -0.05081,0.00726 -0.00726,-0.036293 C 4.8061042,5.0140957 4.0875077,4.9487688 3.3761698,4.8181149 2.6648319,4.7019781 1.9752696,4.5132558 1.3002245,4.266465 v -0.036293 h 0.029034 l -0.00726,-0.036293 0.05081,-0.014517 C 1.4091027,4.121294 1.4381369,4.0704842 1.4599126,4.0051572 1.4816882,3.9398303 1.4962053,3.8745033 1.5034639,3.8091764 1.5107224,3.6567468 1.4744297,3.5188344 1.37281,3.4172147 1.2711903,3.3083364 1.1913462,3.1921996 1.1115022,3.0760628 1.1042436,2.959926 1.1260193,2.8655649 1.162312,2.7712037 1.1986048,2.6841011 1.2348975,2.5969985 1.3002245,2.5171545 l 0.094361,-0.065327 0.021776,-0.043551 c 0.043551,-0.021776 0.087103,-0.05081 0.1306539,-0.072586 0.043551,-0.021776 0.094361,-0.029034 0.145171,-0.021776 L 1.6849276,2.1542269 H 1.6558934 L 1.597825,2.0671243 h -0.05081 v -0.05081 l -0.290342,-0.036293 v -0.00726 L 0.90826275,1.9292119 0.85019435,2.0526072 H 0.82116015 L 0.77760885,2.1905197 C 0.67598915,2.2631052 0.581628,2.3284322 0.48726684,2.4082762 0.39290569,2.4881203 0.29128599,2.5534472 0.17514919,2.5969985 L 0.12433934,2.58974 H 0.07352948 v 0.014517 l 0.33389331,0.2758249 0.22501506,-0.036293 0.0871026,0.021776 C 0.7558332,2.9962188 0.82116015,3.1196141 0.90826275,3.2139753 0.99536536,3.315595 1.0606923,3.4317318 1.0969851,3.5623857 V 3.8599862 C 1.0752094,3.9180546 1.0461752,3.976123 0.99536536,4.0269329 0.9445555,4.0777427 0.9010042,4.1140355 0.8429358,4.1358111 L 0.66147205,4.1067769 0.51630104,4.1285526 0.42193989,4.2882407 c 0.0508098,0.065327 0.0943612,0.1233953 0.13791246,0.1887223 0.0362927,0.065327 0.0725855,0.1306539 0.12339535,0.1959809 h 0.1161368 l 0.0145171,-0.05081 0.1161368,-0.021776 c 0.6605281,0.094361 1.306539,0.2613078 1.9380329,0.4935814 0.6314939,0.2322736 1.2920219,0.3411518 1.9670671,0.3048591 z M 2.9842081,4.3245334 3.1003449,4.266465 C 3.1511548,4.186621 3.2019646,4.0995184 3.2527745,4.0196743 3.2963258,3.9398303 3.32536,3.8454691 3.3543942,3.7583665 h 0.014517 c 0.029034,-0.087103 0.065327,-0.1669466 0.1161368,-0.2467907 0.05081,-0.072586 0.079844,-0.1524295 0.1016197,-0.2467907 l 0.043551,-0.021776 0.079844,-0.145171 h 0.029034 L 3.9205611,2.9163747 c 0.072586,0.00726 0.1379124,0.036293 0.2032394,0.087103 0.058068,0.058068 0.1161368,0.1016197 0.1814637,0.1306539 -0.00726,0.058068 -0.036293,0.1233954 -0.079844,0.1887223 -0.05081,0.065327 -0.094361,0.1306539 -0.1306539,0.1887223 v 0.014517 l 0.043551,-0.036293 h 0.036293 l 0.00726,0.065327 0.072586,-0.021776 0.043551,-0.065327 0.1016197,0.029034 0.2467907,-0.058068 h 0.05081 v 0.014517 L 5.0238607,3.5551271 5.132739,3.5260929 V 3.395439 h 0.029034 L 5.1037047,3.3664048 5.0456363,3.2212338 C 4.8932068,3.1341312 4.7407772,3.0470286 4.5738306,2.9744431 4.4141425,2.9091162 4.2326787,2.880082 4.051215,2.880082 l -0.00726,-0.036293 C 4.196386,2.7784623 4.341557,2.7058768 4.4939865,2.6115156 4.631899,2.5316716 4.7915871,2.4663446 4.9585337,2.4227933 L 4.9004653,2.2848808 c -0.094361,0 -0.1887223,-0.021776 -0.2830834,-0.043551 C 4.5302793,2.2195539 4.4359181,2.1977782 4.341557,2.168744 H 4.27623 v 0.029034 L 3.9931466,2.5461887 3.9495953,2.58974 v 0.036293 L 3.7753901,2.7566866 v 0.036293 l -0.4790643,0.290342 0.145171,0.043551 v 0.05081 l -0.2395322,0.2250151 -0.014517,0.05081 -0.355669,0.3338933 h -0.029034 c -0.00726,-0.225015 0.00726,-0.435513 0.05081,-0.6314938 C 2.8898469,2.959926 2.9333982,2.7639452 2.9769496,2.5607058 3.1076035,2.4881203 3.2527745,2.4373104 3.405204,2.4010177 3.5648921,2.3719835 3.695546,2.3066565 3.8189414,2.2195539 l 0.05081,-0.1016197 0.1088783,0.065327 0.065327,-0.021776 C 4.1238005,1.9727632 4.1891274,1.7695238 4.2254202,1.5662844 4.2617129,1.363045 4.3342984,1.1598056 4.4286596,0.98560037 l 0.094361,-0.0362927 0.029034,-0.0725855 h 0.05081 v -0.0362928 h 0.014517 l -0.00726,-0.0362927 -0.079844,-0.0290342 -0.014517,-0.0871026 C 4.421401,0.62267286 4.3125228,0.57186301 4.2109031,0.54282881 4.0947663,0.51379461 3.985888,0.47750186 3.8915269,0.44120911 l -0.1016197,0.007259 -0.021776,0.0435513 C 3.5648921,0.53557026 3.3616527,0.59363866 3.1656719,0.65896561 2.969691,0.72429256 2.759193,0.78236096 2.5486951,0.83317082 l -0.1742052,-0.007259 h -0.036293 c 0.1088783,0.065327 0.2250151,0.1161368 0.3411519,0.16694665 0.1088782,0.0508099 0.2322736,0.0798441 0.3484104,0.10161968 0.065327,-0.00726 0.1379125,-0.00726 0.2177565,-0.014517 0.072586,0 0.1233954,-0.021776 0.1596881,-0.079844 l 0.087103,-0.0435513 v -0.0508099 h 0.05081 l 0.079844,-0.0871026 0.00726,-0.0508099 0.1742052,-0.0725855 h 0.029034 L 3.7899072,1.297718 C 3.7463559,1.2904595 3.7028046,1.2686838 3.6665118,1.2396496 3.6229605,1.217874 3.5866678,1.1960983 3.5431165,1.1888398 3.3834284,1.2106154 3.2382574,1.2469082 3.0930864,1.3122351 2.9479154,1.3775621 2.8027443,1.4211134 2.6648319,1.4574061 L 2.9188811,1.6388699 C 3.0567936,1.6316113 3.2019646,1.6098357 3.3326185,1.58806 3.470531,1.5662844 3.5939263,1.5154745 3.695546,1.4283719 l 0.065327,-0.00726 -0.014517,0.2104979 -0.1016197,0.021776 c 0,0.043551 0.014517,0.094361 0.043551,0.1379124 0.029034,0.05081 0.043551,0.1016197 0.05081,0.1596881 l 0.036293,-0.00726 0.036293,0.058068 v 0.014517 L 3.5794092,2.0017974 H 3.4777895 L 3.4560139,2.0816414 3.035018,2.2993979 H 2.9914667 C 2.9842081,2.1542269 2.9406568,2.0090559 2.8608127,1.8856606 2.7809687,1.7550067 2.7011246,1.6388699 2.6067635,1.5154745 L 2.4470754,1.4065963 h -0.036293 l 0.1306539,0.6532695 c 0.014517,0.3193762 0.014517,0.6314939 0,0.936353 -0.014517,0.3048591 -0.036293,0.6024596 -0.065327,0.9000602 l 0.014517,0.1016197 h 0.036293 l 0.1959809,0.1669466 c 0.043551,0.036293 0.079844,0.065327 0.1161368,0.094361 0.036293,0.036293 0.079844,0.058068 0.145171,0.065327 z m -2.2138578,-2.8671273 0.0362927,-0.05081 0.0943612,0.014517 0.2177565,-0.072586 0.3193762,0.065327 0.043551,-0.058068 h 0.029034 l -0.065327,-0.021776 v -0.087103 h 0.036293 L 1.3655514,1.0364102 C 1.2566732,0.98560037 1.1477949,0.93479052 1.0243996,0.88398067 0.9010042,0.83317082 0.7848674,0.80413662 0.66147205,0.78236096 l -0.13065391,0.007259 0.0362928,0.0871026 0.32663475,0.26856638 c -0.007259,0.05081 -0.0145171,0.1088782 -0.0362927,0.1596881 -0.0217756,0.05081 -0.0508098,0.094361 -0.0871026,0.1379124 z"
         id="path671" />
      <path
         d="m 9.6330262,5.3987989 0.014517,-0.05081 C 9.7709387,5.3552476 9.894334,5.3407305 9.9959537,5.3044377 10.104832,5.268145 10.21371,5.2318522 10.329847,5.1955595 l 0.34841,-0.2395322 0.01452,-0.087103 h 0.05081 l 0.06533,-0.087103 0.130654,-0.1669466 v -0.036293 c -0.174205,0.00726 -0.355669,0.021776 -0.515357,0.043551 -0.166946,0.021776 -0.333893,0.065327 -0.4935812,0.1233954 h -0.043551 l 0.2976005,-0.4500302 0.05081,-0.014517 0.04355,-0.079844 h 0.02903 l 0.01452,-0.065327 0.03629,-0.00726 0.01452,-0.043551 h 0.02904 l 0.05081,-0.05081 v -0.029034 h 0.03629 l 0.07984,-0.079844 0.03629,-0.1016197 0.166947,-0.065327 0.01452,-0.043551 c 0.07259,-0.036293 0.145171,-0.065327 0.225015,-0.1016197 0.07984,-0.036293 0.152429,-0.065327 0.225015,-0.087103 l 0.02903,-0.087103 h 0.03629 L 11.244424,3.2575266 11.121029,3.1921996 V 3.170424 c -0.07984,-0.021776 -0.145171,-0.043551 -0.210498,-0.065327 -0.05807,-0.021776 -0.123395,-0.05081 -0.195981,-0.087103 l -0.05807,0.021776 -0.07984,-0.014517 -0.159688,0.014517 -0.01452,0.1088782 -0.370187,0.1161368 -0.043551,0.00726 v -0.05081 c 0.065327,-0.043551 0.1233958,-0.1016197 0.1814638,-0.1742052 0.05807,-0.065327 0.108878,-0.1233953 0.174205,-0.1669466 l 0.06533,-0.1161368 0.123395,-0.036293 0.04355,-0.1233953 h 0.0871 l 0.06533,-0.1016197 -0.02903,-0.1959809 -0.06533,-0.00726 -0.01452,-0.021776 -0.362927,-0.072586 -1.0016804,0.1742052 c 0.072586,0.072585 0.145171,0.1379125 0.2322736,0.1887223 0.079844,0.043551 0.1814638,0.072586 0.2830835,0.065327 v 0.043551 C 9.6765775,2.8002379 9.5967335,2.9236333 9.5168894,3.0470286 9.4297868,3.170424 9.3426842,3.2865608 9.2410645,3.4026976 c -0.014517,0.072585 -0.00726,0.1306539 0.021776,0.1814637 0.021776,0.058068 0.065327,0.1088783 0.1233953,0.1596881 0.05081,0.065327 0.1161368,0.1088783 0.1959809,0.1161368 0.072586,0.014517 0.1379124,0.029034 0.2177565,0.043551 C 9.7346459,4.0269329 9.669319,4.1430697 9.5822164,4.2519479 9.4878552,4.3680847 9.4080112,4.476963 9.3426842,4.6003584 L 9.168479,4.7237537 9.088635,4.9052175 9.3063915,5.2536279 Z M 12.304173,5.1665253 c 0.02903,-0.00726 0.05807,-0.014517 0.07984,-0.029034 0.01452,-0.014517 0.02903,-0.036293 0.04355,-0.072585 l 0.04355,-0.014517 0.01452,-0.043551 -0.09436,-0.2250151 -0.116137,-0.058068 V 4.7019781 C 12.173519,4.6439097 12.079158,4.5930998 11.970279,4.54229 11.861401,4.4987387 11.759781,4.4551873 11.650903,4.4188946 h -0.02903 v 0.021776 l -0.217757,-0.036293 -0.130653,0.00726 0.09436,0.1379125 c 0,0.043551 -0.01452,0.087103 -0.03629,0.1233954 -0.02178,0.036293 -0.05081,0.072585 -0.0871,0.1016197 v 0.05081 l 0.03629,0.014517 0.145171,-0.036293 c 0.10162,-0.00726 0.195981,0.014517 0.283084,0.065327 0.07984,0.058068 0.174205,0.1088783 0.275824,0.145171 v 0.036293 c 0.05081,0.014517 0.10162,0.029034 0.159689,0.043551 0.05081,0.021776 0.108878,0.043551 0.159688,0.072585 z M 7.4554612,3.9906401 c 0.065327,0 0.1233953,-0.014517 0.1742052,-0.043551 0.05081,-0.021776 0.1088782,-0.05081 0.1596881,-0.079844 v -0.029034 l 0.2613078,-0.1887223 0.05081,-0.058068 0.029034,-0.079844 0.094361,-0.043551 0.058068,-0.1088782 0.094361,-0.079844 C 8.4571411,3.170424 8.5369852,3.0542872 8.6095707,2.9454089 8.6821562,2.8437892 8.7474831,2.7276524 8.8055515,2.6042571 h 0.029034 l 0.029034,-0.087103 h 0.036293 l 0.014517,-0.079844 0.05081,-0.021776 0.3629275,-0.5879426 0.1887223,0.021776 h 0.05081 L 9.5822164,1.7404896 9.5096309,1.5517673 9.5386651,1.3920792 9.6620604,1.2686838 9.6765775,1.2251325 9.9015926,1.0944786 9.894334,1.072703 l 0.05081,-0.014517 c 0.079844,0.043551 0.1669471,0.094361 0.2467911,0.1524295 0.07984,0.058068 0.145171,0.1233954 0.210498,0.1887223 h 0.03629 l 0.20324,0.2395322 c 0.39922,0.3411518 0.834733,0.6460109 1.29928,0.9073188 0.464547,0.2540492 0.943612,0.4863228 1.422676,0.6968208 l 0.01452,0.065327 0.210498,-0.058068 0.01452,-0.05081 h 0.02903 L 13.588936,2.9962188 C 13.109872,2.7566866 12.638066,2.5098959 12.159002,2.2631052 11.679937,2.0090559 11.229907,1.7114554 10.823428,1.3703035 V 1.3340108 C 10.71455,1.2251325 10.598413,1.1307714 10.467759,1.0581859 10.329847,0.97834182 10.206452,0.89123922 10.083056,0.80413662 l 0.0073,-0.0362928 V 0.52105316 C 10.010471,0.49201896 9.9378853,0.47024331 9.8507827,0.43395056 9.7636801,0.40491636 9.6765775,0.38314071 9.5967335,0.36862361 h -0.014517 v 0.0435513 l -0.1161368,-0.0290342 -0.036293,0.0145171 v 0.0290342 l -0.087103,0.007259 -0.00726,0.0362928 0.014517,0.1016197 -0.021776,0.21049795 -0.065327,0.0145171 0.014517,0.0290342 -0.1379125,0.30485913 -0.1379124,0.072585 -0.05081,0.094361 0.036293,0.065327 v 0.058068 C 8.8345857,1.7114554 8.6894147,2.0090559 8.5515023,2.3066565 8.4135898,2.6115156 8.232126,2.8945991 8.0288866,3.1631654 L 7.8837156,3.3518877 C 7.8183887,3.460766 7.7458032,3.5551271 7.6732177,3.6567468 7.6006322,3.7656251 7.5207881,3.8527277 7.4119099,3.9470888 v 0.036293 z"
         id="path673" />
      <path
         d="m 17.457729,5.4568673 c 0.232274,-0.036293 0.464548,-0.1016197 0.682304,-0.1742052 0.225015,-0.079844 0.457289,-0.1306539 0.696821,-0.1524296 l 0.174205,0.029034 -0.174205,0.1887223 v 0.014517 l 0.123395,0.043551 c 0.10162,-0.058068 0.225015,-0.094361 0.348411,-0.1016197 0.116137,-0.014517 0.239532,-0.029034 0.355669,-0.036293 l 0.02178,0.014517 0.05081,-0.014517 c 0.10162,0.014517 0.20324,0.029034 0.304859,0.036293 0.108879,0.021776 0.210498,0.05081 0.304859,0.087103 l 0.261308,-0.05081 0.02178,-0.1814638 0.108878,-0.05081 V 5.0068372 l -0.05081,-0.00726 V 4.9632859 C 20.564389,4.8979589 20.440994,4.8398905 20.303081,4.7890807 20.172427,4.7382708 20.05629,4.687461 19.954671,4.6076169 l -0.137913,0.029034 -0.03629,-0.021776 h -0.10162 l -0.0073,0.036293 -0.239532,-0.036293 -0.740372,-0.014517 0.01452,-0.05081 0.297601,-0.1887223 0.02178,-0.05081 h 0.02178 l 0.07259,-0.1016197 h 0.05081 l 0.442772,-0.370186 -0.04355,-0.2032394 C 19.453831,3.5551271 19.344953,3.4970587 19.221557,3.4535074 19.098162,3.4026976 18.960249,3.3881805 18.800561,3.4099561 l 0.04355,-0.3629275 0.06533,-0.05081 0.116136,-0.1959809 0.04355,0.014517 0.07259,0.1306539 0.06533,0.072586 0.145171,0.087103 c 0.07984,0.014517 0.145171,-0.00726 0.195981,-0.058068 0.05081,-0.05081 0.108878,-0.072586 0.188722,-0.065327 0.05081,-0.2177565 0.0871,-0.435513 0.116137,-0.6605281 0.02178,-0.2177565 0.07984,-0.4209959 0.166947,-0.6242353 h 0.03629 l 0.159689,-0.3411519 0.04355,-0.014517 0.01452,-0.05081 0.07259,-0.014517 0.06533,-0.31211768 -0.0073,-0.0508098 C 20.281305,0.87672212 20.165169,0.82591227 20.049032,0.76784386 19.932895,0.70977546 19.8095,0.65896561 19.686104,0.61541431 l -0.341151,0.0435513 c -0.10162,0.0217757 -0.188723,0.0145171 -0.25405,-0.0362927 -0.05807,-0.0435513 -0.130654,-0.0725855 -0.210498,-0.0871026 H 18.75701 l -0.123395,0.18146375 c -0.09436,0.0508099 -0.188723,0.0798441 -0.275825,0.10887826 -0.09436,0.0362927 -0.195981,0.0580684 -0.290342,0.065327 l -0.0073,0.065327 -0.06533,-0.007259 0.01452,0.0508099 v 0.036293 l -0.05081,0.014517 0.108879,0.4572887 0.05081,-0.021776 0.06533,0.036293 0.885544,-0.355669 h 0.06533 l 0.137912,0.1596881 h 0.108878 l -0.03629,-0.036293 0.02177,-0.087103 0.07984,0.043551 -0.03629,0.3847031 -0.268566,-0.094361 -0.246791,0.00726 h -0.101619 v -0.029034 l -0.09436,-0.072585 -0.116137,0.021776 -0.06533,0.1814637 -0.624236,0.2540493 v 0.05081 l 0.15243,0.1524296 0.268566,-0.036293 0.195981,0.00726 c 0.03629,0.2032394 -0.0073,0.355669 -0.137912,0.4790643 -0.137913,0.1161368 -0.232274,0.2540493 -0.304859,0.3919617 l 0.166946,0.3701861 0.20324,-0.014517 0.05081,0.00726 v 0.1814638 c -0.108879,0.014517 -0.225015,0.043551 -0.333894,0.079844 -0.108878,0.036293 -0.210498,0.094361 -0.304859,0.1596881 l -0.02903,0.065327 0.01452,0.079844 0.09436,0.05081 v 0.036293 l -0.01452,-0.05081 0.03629,-0.087103 0.166947,0.058068 0.232273,-0.036293 h 0.0871 v 0.05081 l -0.297601,0.2830834 -0.04355,-0.014517 -0.02178,0.079844 -0.101619,0.043551 v 0.036293 h -0.02904 l -0.275825,0.2613079 c -0.07259,0.079844 -0.145171,0.1233953 -0.232273,0.145171 -0.09436,0.021776 -0.174205,0.05081 -0.246791,0.094361 0.0073,0.1088783 0.03629,0.1959809 0.07259,0.2758249 0.04355,0.087103 0.07984,0.1742052 0.116136,0.2540493 h 0.02904 z m -2.460648,-0.7185965 0.0871,-0.014517 c 0.02903,-0.087103 0.07984,-0.1669466 0.137912,-0.2395322 0.05081,-0.065327 0.108878,-0.1306539 0.166947,-0.2104979 h 0.02903 l 0.123395,-0.1379125 0.06533,-0.058068 0.159688,-0.145171 0.25405,-0.2467907 0.03629,-0.05081 0.137913,-0.079844 0.06533,-0.094361 0.05081,-0.021776 0.09436,-0.1306539 h 0.03629 l 0.159689,-0.145171 0.02903,-0.065327 0.06533,-0.05081 v -0.014517 h -0.01452 v 0.036293 l -0.370186,0.2395321 h -0.02904 l 0.02178,-0.1161368 -0.01452,-0.1306539 0.04355,-0.1596881 0.05081,-0.014517 v -0.029034 l 0.06533,-0.05081 0.145171,-0.1379125 0.174205,-0.3266347 -0.0073,-0.1451711 c -0.06533,-0.043551 -0.137913,-0.072586 -0.210498,-0.087103 -0.07984,-0.014517 -0.159688,-0.05081 -0.225015,-0.1088782 l 0.07984,-0.3121177 0.24679,-0.1233953 0.181464,-0.1814638 0.0073,-0.029034 -0.06533,-0.036293 0.05081,-0.1379125 -0.01452,-0.1233953 c -0.09436,-0.05081 -0.188723,-0.0798441 -0.290342,-0.10161973 -0.108879,-0.0217757 -0.20324,-0.0362927 -0.30486,-0.0580684 -0.232273,0.0798441 -0.471805,0.17420523 -0.69682,0.29034203 -0.225015,0.1161368 -0.471806,0.1814637 -0.733114,0.1887223 v 0.043551 l 0.09436,0.1016197 c 0.108878,0.1088782 0.232274,0.1742052 0.370186,0.2104979 0.137913,0.036293 0.261308,0.1016197 0.384703,0.1959809 l 0.05081,0.043551 0.04355,0.072585 -0.01452,0.1524295 c -0.116136,0.05081 -0.232273,0.1016197 -0.34841,0.1524296 -0.123395,0.058068 -0.239532,0.1306539 -0.333893,0.2177565 v 0.065327 c 0.04355,0.043551 0.0871,0.079844 0.152429,0.1016197 0.05807,0.021776 0.116137,0.043551 0.174205,0.058068 l 0.195981,-0.05081 0.130654,0.021776 c 0,0.058068 -0.0073,0.1088782 -0.02903,0.1524295 -0.02178,0.05081 -0.05807,0.1016197 -0.10162,0.145171 l 0.05081,0.1016197 -0.254049,0.4790643 -0.275825,0.2758249 -0.10162,0.1959809 c -0.03629,0 -0.05807,0.00726 -0.07984,0.029034 -0.02177,0.021776 -0.04355,0.029034 -0.07984,0.021776 l -0.04355,0.065327 0.188722,0.4935814 z m 0.827475,-1.0887825 -0.01452,0.014517 h -0.03629 l 0.02178,-0.087103 0.05081,-0.014517 h 0.03629 z m 2.685663,-0.7331136 -0.130654,0.043551 h -0.02903 l 0.123396,-0.1887223 h 0.03629 z m -0.820216,-0.1088782 0.0073,-0.079844 h 0.108878 v 0.029034 h 0.02903 v -0.065327 h 0.03629 l 0.05081,-0.1088783 0.02903,-0.087103 h 0.02178 V 2.3719835 C 17.849691,2.2122953 17.726296,2.0453487 17.573866,1.8856606 17.428695,1.7187139 17.261749,1.5808015 17.102061,1.4574061 h -0.02178 c 0.07259,0.210498 0.130654,0.4209959 0.174205,0.6314939 0.04355,0.2177565 0.130654,0.4209959 0.268566,0.5952011 z m 1.139592,-0.1161368 h -0.05081 c 0,-0.065327 0.0073,-0.1233954 0.01452,-0.1887223 0.0073,-0.065327 0.03629,-0.1161368 0.0871,-0.1669467 h 0.03629 c 0,0.058068 -0.0073,0.1161368 -0.01452,0.1742052 -0.01452,0.058068 -0.03629,0.1016197 -0.07259,0.145171 z m 0.370187,-0.1596881 h -0.07259 L 19.083645,2.234071 V 2.168744 l 0.0871,-0.072585 0.0871,-0.1161368 h 0.06533 c -0.0073,0.094361 -0.02178,0.1814638 -0.04355,0.2685664 -0.02178,0.087103 -0.04355,0.1742052 -0.07984,0.2540493 z M 18.75701,2.0889 18.742493,2.1106756 18.727976,2.0889 v -0.079844 h 0.07984 z"
         id="path675" />
      <path
         d="m 26.320404,5.4859015 0.05081,-0.014517 0.0871,0.00726 0.203239,-0.05081 c 0.01452,-0.036293 0.03629,-0.072585 0.05807,-0.1233954 0.02177,-0.036293 0.02903,-0.079844 0.01452,-0.1233953 h 0.03629 c 0.03629,-0.4790643 0.101619,-0.9436116 0.188722,-1.4009002 0.0871,-0.4645472 0.174205,-0.9218359 0.254049,-1.3936416 l 0.05807,-0.05081 0.04355,-0.1016197 c 0.02178,-0.043551 0.05807,-0.065327 0.10162,-0.065327 0.03629,0 0.07259,-0.00726 0.101619,-0.021776 l 0.01452,-0.05081 0.02178,-0.00726 0.10162,-0.087103 -0.123396,-0.1016197 v -0.036293 l 0.03629,-0.00726 -0.04355,-0.094361 C 27.380153,1.7041968 27.234982,1.653387 27.104328,1.58806 26.959157,1.5299916 26.821244,1.4646647 26.683332,1.3848206 l -0.130654,0.021776 -0.07984,0.065327 -0.01452,0.036293 c -0.20324,0.014517 -0.39922,0.05081 -0.580684,0.1088782 -0.181464,0.058068 -0.377445,0.1088783 -0.566167,0.145171 h -0.05081 c 0,-0.1524295 0.0073,-0.3121176 0.01452,-0.4645472 0.0073,-0.1596881 0.02178,-0.30485908 0.04355,-0.45728863 l -0.02904,-0.25404926 0.02178,-0.145171 -0.03629,-0.0871026 c -0.06533,-0.0580684 -0.137912,-0.0871026 -0.225015,-0.0943612 -0.09436,0 -0.181464,-0.0145171 -0.246791,-0.0508098 -0.05807,-0.007259 -0.123395,0 -0.174205,0.0290342 -0.05081,0.0290342 -0.09436,0.065327 -0.123395,0.1161368 l 0.02178,0.065327 0.254049,0.1161368 c 0.07259,0.15242955 0.108878,0.31937621 0.116137,0.50083994 0,0.1742052 0.0073,0.3484104 0.02177,0.5153571 V 1.6606455 L 24.78885,1.7767823 24.600128,1.7114554 v -0.036293 l -0.05081,-0.029034 c -0.05807,0.058068 -0.116137,0.1233954 -0.188722,0.1814638 -0.07259,0.065327 -0.15243,0.1088782 -0.225015,0.145171 l -0.10162,0.1306539 -0.06533,0.1306539 c 0.01452,0.1306539 0.03629,0.2613078 0.07259,0.3847032 0.02903,0.1306539 0.06533,0.2540492 0.108878,0.3629275 0.130654,-0.043551 0.254049,-0.1161368 0.355669,-0.2250151 0.108878,-0.1088782 0.225015,-0.1742052 0.355669,-0.1887223 h 0.03629 l 0.0073,0.3992203 c -0.145171,0.029034 -0.290342,0.072586 -0.420996,0.1233953 -0.137912,0.058068 -0.268566,0.1306539 -0.377444,0.2322736 l -0.02904,0.05081 -0.07984,0.094361 v 0.014517 l 0.116137,0.021776 0.631494,-0.087103 0.130654,-0.00726 c -0.0073,0.145171 -0.01452,0.2976006 -0.02178,0.4427716 -0.0073,0.1524295 -0.04355,0.2976005 -0.0871,0.435513 l -0.06533,-0.014517 h -0.01452 l -0.02178,0.1233953 c -0.04355,0.043551 -0.09436,0.094361 -0.15243,0.1379125 -0.05081,0.05081 -0.09436,0.1016197 -0.123395,0.1669467 l -0.03629,0.014517 -0.03629,0.079844 c -0.0073,0.1088783 0.0073,0.1959809 0.05081,0.2613078 0.04355,0.079844 0.07259,0.1596881 0.07984,0.2467907 0.03629,0.036293 0.07984,0.058068 0.152429,0.058068 0.06533,0 0.130654,0.00726 0.181464,0.014517 0.195981,-0.00726 0.384703,-0.021776 0.566167,-0.058068 0.174205,-0.021776 0.355669,-0.058068 0.537132,-0.1088782 l 0.02904,-0.1379125 h 0.0871 l 0.07984,0.1814638 h 0.03629 v 0.05081 h 0.02903 v 0.029034 h 0.03629 v 0.036293 z M 23.758136,5.1447496 h 0.01452 l -0.01452,-0.014517 v -0.036293 h 0.06533 l 0.02178,-0.05081 0.07984,-0.021776 -0.0073,-0.043551 h 0.07984 l 0.02178,-0.036293 V 4.8035978 l -0.05081,-0.014517 C 23.961376,4.6293926 23.917824,4.4697044 23.830722,4.3390505 23.736361,4.2011381 23.663775,4.0704842 23.612965,3.9253132 h -0.05807 L 23.424243,3.7801422 C 23.250038,3.6930396 23.075833,3.5841613 22.916144,3.460766 22.749198,3.3301121 22.567734,3.2357509 22.371753,3.1921996 h -0.0073 l 0.02903,0.029034 v 0.065327 h -0.02178 l 0.05081,0.021776 v 0.05081 l -0.05807,-0.036293 h -0.02178 l 0.55165,0.5371327 h 0.03629 v 0.036293 l 0.145171,0.1233953 c 0.05081,0.058068 0.09436,0.1088783 0.137912,0.1669467 0.03629,0.065327 0.06533,0.1306539 0.07259,0.2104979 l -0.02903,0.079844 c 0,0.058068 0.02178,0.1088783 0.05081,0.1524296 0.03629,0.05081 0.06533,0.087103 0.10162,0.1306539 l 0.07259,0.036293 v 0.05081 h 0.03629 l 0.06533,0.1379124 h 0.02903 z m 2.170307,-0.3048591 -0.02178,0.014517 c -0.137912,-0.021776 -0.268566,-0.036293 -0.406479,-0.043551 -0.137912,-0.00726 -0.283083,-0.021776 -0.413737,-0.029034 0.0073,-0.2467907 0.07259,-0.4645472 0.210498,-0.6677866 0.130654,-0.1959809 0.268566,-0.3919617 0.39922,-0.6024597 l 0.181464,-0.1669466 0.02178,-0.05081 h 0.01452 l 0.01452,-0.1161368 -0.01452,-0.1016197 C 25.805047,2.9962188 25.696169,2.9454089 25.572774,2.9236333 25.449378,2.9018576 25.318725,2.9018576 25.180812,2.9163747 L 25.166295,2.814755 c 0.02178,-0.065327 0.02903,-0.145171 0.02903,-0.2322736 -0.0073,-0.079844 0.01452,-0.1524295 0.06533,-0.2104979 0.174205,-0.05081 0.362928,-0.094361 0.537133,-0.1451711 0.181464,-0.05081 0.34841,-0.1016197 0.508098,-0.1596881 h 0.03629 l 0.03629,0.1161368 -0.02903,0.1379125 0.05081,0.1814638 h 0.03629 l 0.02178,0.9290944 c -0.01452,0.2032394 -0.02178,0.3992202 -0.02903,0.6024596 -0.0073,0.2032394 -0.02178,0.4064788 -0.05081,0.6169768 L 26.117165,4.5277729 25.826823,4.186621 l 0.0073,0.1016197 h -0.03629 l 0.01452,0.1306539 -0.01452,0.05081 c 0.02177,0.058069 0.04355,0.1233954 0.05081,0.1959809 0.0073,0.065327 0.02903,0.1233954 0.07984,0.1742052 z m -0.682304,-1.2049193 -0.01452,0.021776 -0.03629,-0.079844 0.01452,-0.058068 -0.01452,-0.058068 0.02903,-0.1088783 0.0871,-0.036293 h 0.0871 z"
         id="path677" />
      <path
         d="m 32.678882,5.7544678 h 0.01452 l 0.02177,-0.072585 h 0.02903 v -0.036293 h 0.03629 c -0.02177,-0.05081 -0.03629,-0.1161368 -0.03629,-0.1887223 0,-0.065327 -0.0073,-0.1306539 -0.02903,-0.1814638 l 0.01452,-0.1088782 -0.01452,-0.087103 c 0.0073,-0.1596881 0.02178,-0.3193762 0.04355,-0.4790643 0.01452,-0.1669467 0.04355,-0.3121177 0.09436,-0.4645473 0.0073,-0.072585 0.0073,-0.1524295 -0.0073,-0.2322736 -0.02177,-0.079844 -0.05081,-0.145171 -0.10162,-0.2104979 -0.05807,-0.072586 -0.116136,-0.1306539 -0.181463,-0.1814638 -0.07259,-0.036293 -0.15243,-0.058068 -0.239532,-0.058068 v -0.021776 h -0.07259 v -0.05081 h 0.05081 c 0.02178,-0.036293 0.05081,-0.065327 0.06533,-0.1016197 0.02178,-0.029034 0.03629,-0.065327 0.03629,-0.1016197 h 0.03629 l 0.06533,-0.2104979 h 0.02178 l 0.05081,-0.087103 c 0.02178,-0.094361 0.05807,-0.1814638 0.09436,-0.2613078 0.03629,-0.072585 0.07259,-0.1596881 0.09436,-0.2540493 h 0.03629 l 0.05081,-0.1524296 0.05081,-0.021776 c 0.03629,-0.1233954 0.0871,-0.2395322 0.159688,-0.3484104 0.06533,-0.1088783 0.116136,-0.2250151 0.152429,-0.355669 h 0.03629 l 0.09436,-0.2758249 c 0.06533,-0.036293 0.123395,-0.058068 0.181464,-0.079844 0.05081,-0.014517 0.116137,-0.029034 0.181464,-0.043551 l 0.261307,0.021776 c -0.03629,0.1669467 -0.09436,0.3121177 -0.152429,0.4645472 -0.07259,0.145171 -0.159688,0.290342 -0.254049,0.4064788 v 0.021776 c 0.03629,0 0.07984,-0.014517 0.116136,-0.029034 0.03629,-0.021776 0.06533,-0.05081 0.10162,-0.087103 l 0.03629,-0.058068 c 0.05081,-0.043551 0.116137,-0.079844 0.181464,-0.1088783 0.06533,-0.029034 0.123395,-0.058068 0.174205,-0.1088782 h 0.03629 v 0.014517 l 0.06533,-0.05081 v -0.036293 c 0.06533,-0.00726 0.116136,-0.036293 0.159688,-0.087103 0.03629,-0.05081 0.07984,-0.065327 0.137912,-0.05081 l 0.10162,-0.065327 -0.01452,-0.1379125 C 34.529812,1.1380299 34.406416,1.0799615 34.283021,1.0364102 34.159626,0.98560037 34.021713,0.94930762 33.883801,0.93479052 l -0.377445,0.0362928 h -0.06533 c 0.02178,-0.065327 0.03629,-0.145171 0.04355,-0.21775651 0.0073,-0.079844 0.02177,-0.1596881 0.04355,-0.2322736 l -0.03629,-0.18872231 -0.05081,-0.0145171 -0.02177,-0.0508098 -0.413738,-0.2032394 h -0.137912 l 0.05807,0.05080985 v 0.0362928 l 0.05807,0.0435513 c -0.0073,0.17420521 -0.02904,0.33389331 -0.05807,0.50083996 -0.03629,0.15968811 -0.07258,0.31937624 -0.108878,0.47906434 l -0.515357,0.145171 v 0.05081 c 0.06533,0.014517 0.137912,0.036293 0.203239,0.05081 0.06533,0.021776 0.137913,0.021776 0.210498,0.014517 l -0.101619,0.3919617 h -0.01452 c -0.02178,0.072585 -0.05081,0.1379124 -0.07259,0.1959808 -0.02178,0.065327 -0.04355,0.1379125 -0.05081,0.2032394 h -0.03629 c 0,0.1016198 -0.02177,0.1887224 -0.07258,0.2685664 -0.04355,0.079844 -0.07259,0.1524296 -0.07984,0.2467907 l -0.05081,0.036293 c -0.03629,0.079844 -0.07259,0.1596881 -0.108878,0.2395321 -0.03629,0.079844 -0.06533,0.1669467 -0.07984,0.2540493 l -0.0871,0.087103 -0.02178,0.1742052 h -0.02903 l -0.05807,0.225015 h -0.05081 l -0.07984,0.2976006 h -0.03629 c -0.03629,0.1088782 -0.07984,0.2177565 -0.130654,0.3121176 -0.05081,0.094361 -0.09436,0.2032395 -0.123395,0.3193763 v 0.014517 h 0.01452 l 0.06533,-0.065327 0.06533,-0.1596881 h 0.03629 l 0.05807,-0.1524296 h 0.02903 l 0.06533,-0.065327 0.03629,-0.1088783 0.07259,-0.065327 0.03629,-0.087103 0.0871,-0.05081 0.05081,-0.087103 c 0,-0.065327 0.02903,-0.1233953 0.06533,-0.1669466 0.03629,-0.036293 0.05081,-0.094361 0.05081,-0.1596881 l 0.05081,-0.036293 0.03629,-0.014517 0.0871,0.014517 0.07984,0.2830835 c -0.02178,0.2467907 -0.02903,0.5008399 -0.02903,0.7548892 0,0.2613078 -0.04355,0.50084 -0.137913,0.7403721 v 0.029034 h 0.02178 v 0.065327 h 0.01452 v 0.036293 l 0.06533,0.072585 v 0.036293 l 0.05081,0.05081 h 0.03629 v 0.036293 h 0.03629 v 0.029034 l 0.0871,0.014517 0.06533,0.072585 z m 1.691242,-0.2395321 c 0.04355,0 0.0871,-0.014517 0.116137,-0.036293 0.03629,-0.021776 0.06533,-0.05081 0.101619,-0.087103 l 0.07259,-0.058068 0.203239,-0.094361 0.195981,0.065327 c 0.05807,0.00726 0.130654,0.00726 0.203239,-0.00726 0.06533,-0.014517 0.123396,-0.036293 0.181464,-0.072586 v -0.072585 l -0.05081,-0.05081 c -0.07259,-0.065327 -0.159688,-0.1016197 -0.24679,-0.1379124 -0.07984,-0.036293 -0.174206,-0.065327 -0.268567,-0.087103 v -0.014517 h -0.05081 v -0.021776 l -0.09436,-0.014517 -0.834733,0.036293 H 33.782181 V 4.7527879 c 0.10162,-0.05081 0.20324,-0.1016197 0.304859,-0.1524295 0.0871,-0.05081 0.188723,-0.1088783 0.283084,-0.1742053 V 4.3100163 l -0.210498,-0.145171 h -0.01452 v 0.021776 h -0.03629 v -0.021776 l -0.225015,-0.014517 v -0.05081 l 0.174205,-0.1379125 v -0.029034 l 0.130654,-0.036293 0.02178,-0.058068 0.137912,-0.043551 c 0.02178,0 0.05081,0 0.07259,0 0.02177,0 0.03629,-0.014517 0.03629,-0.036293 h 0.04355 l 0.03629,-0.05081 v -0.05081 l -0.225015,-0.087103 v -0.036293 l -0.166946,-0.065327 -0.123396,0.043551 h -0.0871 l -0.188723,-0.2540492 -0.05081,-0.036293 0.03629,-0.065327 c 0.166947,-0.043551 0.348411,-0.079844 0.522616,-0.1161368 0.181464,-0.029034 0.355669,-0.05081 0.537133,-0.058068 l 0.0871,0.014517 0.05807,-0.014517 -0.02178,-0.087103 -0.39922,-0.1669467 h -0.04355 V 2.669584 l -0.101619,-0.014517 -0.108879,0.036293 v 0.036293 c -0.07259,0.021776 -0.137912,0.043551 -0.210497,0.058068 -0.07984,0.021776 -0.15243,0.043551 -0.217757,0.065327 h -0.0871 l 0.07259,-0.145171 h 0.03629 l 0.05807,-0.1814638 -0.02903,-0.1959808 c -0.06533,-0.043551 -0.137913,-0.072586 -0.210498,-0.087103 -0.07984,-0.00726 -0.15243,-0.021776 -0.232274,-0.029034 l -0.159688,0.036293 -0.05081,0.043551 v 0.036293 c 0.04355,0.00726 0.0871,0.021776 0.123396,0.043551 0.03629,0.021776 0.07259,0.029034 0.116136,0.029034 l -0.05081,0.2540492 -0.20324,0.2758249 v 0.036293 l -0.0871,-0.021776 -0.0871,0.036293 -0.05807,0.1088782 0.09436,0.290342 0.06533,0.05081 v 0.021776 h 0.02178 v -0.036293 h 0.03629 l 0.01452,-0.036293 0.239532,-0.1233953 h 0.05081 l 0.03629,0.1233953 v 0.2177565 c -0.108878,0.021776 -0.210498,0.058068 -0.297601,0.094361 -0.101619,0.043551 -0.19598,0.1016197 -0.275824,0.1669466 l 0.05081,0.087103 c 0.09436,0 0.181464,-0.021776 0.246791,-0.058068 0.06533,-0.036293 0.145171,-0.058068 0.225015,-0.065327 h 0.03629 l -0.03629,0.1596881 -0.290342,0.1669466 0.09436,0.3266348 0.159688,0.036293 V 4.622134 l -0.07258,-0.021776 h -0.01452 l -0.02178,0.1016197 c -0.04355,0.043551 -0.0871,0.079844 -0.130654,0.1016197 -0.05081,0.021776 -0.101619,0.036293 -0.159688,0.036293 -0.02178,0.014517 -0.04355,0.029034 -0.06533,0.036293 -0.02178,0.00726 -0.02903,0.036293 -0.02178,0.072585 l -0.06533,0.036293 0.06533,0.058068 0.123395,0.3121177 c 0.203239,0 0.406479,-0.029034 0.580684,-0.079844 0.181464,-0.058068 0.355669,-0.1016197 0.537133,-0.1233953 h 0.159688 l -0.02178,0.05081 v 0.021776 h 0.07259 v 0.029034 h 0.05081 c 0.0073,0.05081 0,0.1016197 -0.02177,0.1379124 -0.03629,0.043551 -0.05807,0.087103 -0.07984,0.1233954 z M 30.167423,5.1011983 30.28356,5.0794227 v -0.014517 h 0.03629 l 0.03629,-0.065327 v -0.036293 h -0.01452 c 0.0073,-0.065327 0,-0.1306539 -0.03629,-0.1814638 -0.03629,-0.05081 -0.05807,-0.1016197 -0.07259,-0.1596881 h -0.02903 l -0.01452,-0.058068 -0.05081,-0.014517 v -0.036293 l -0.145171,-0.130654 c -0.0871,-0.072585 -0.181464,-0.1379124 -0.290342,-0.1887223 -0.10162,-0.05081 -0.210498,-0.094361 -0.326635,-0.1088782 v -0.029034 h 0.03629 c 0.02178,-0.05081 0.05807,-0.094361 0.10162,-0.1379125 0.03629,-0.036293 0.06533,-0.087103 0.07259,-0.1379124 h 0.04355 c 0.02178,-0.05081 0.05081,-0.094361 0.07985,-0.1306539 0.02903,-0.036293 0.04355,-0.072585 0.04355,-0.1161368 l 0.05807,-0.021776 0.05081,-0.1161368 0.05081,-0.014517 0.152429,-0.2395321 0.03629,-0.021776 c 0.04355,-0.079844 0.0871,-0.1669466 0.130654,-0.2467907 0.05081,-0.087103 0.0871,-0.1742052 0.123395,-0.2685663 h 0.03629 l 0.326635,-0.5371328 0.03629,-0.05081 h 0.03629 l 0.03629,-0.079844 h 0.02903 v -0.036293 h 0.02903 l 0.02178,-0.036293 0.210498,-0.036293 0.02903,-0.05081 V 1.6606455 C 31.045708,1.6170942 30.936829,1.5808015 30.83521,1.5445087 30.726332,1.5154745 30.617453,1.4936989 30.515834,1.4719232 l -0.174206,0.05081 v 0.036293 c -0.09436,0.058068 -0.188722,0.1088783 -0.290342,0.145171 -0.108878,0.05081 -0.203239,0.087103 -0.312117,0.1233954 l -0.261308,-0.05081 h -0.05081 l 0.07259,0.1233954 c 0.09436,0.079844 0.188722,0.1306539 0.2976,0.1596881 0.108878,0.029034 0.225015,0.036293 0.355669,0.029034 -0.02178,0.1379124 -0.06533,0.2613078 -0.116137,0.3847032 -0.05081,0.1161368 -0.101619,0.2467907 -0.137912,0.3774446 h -0.03629 c -0.116137,0.2467907 -0.232274,0.5008399 -0.362927,0.7476306 -0.130654,0.2540493 -0.261308,0.50084 -0.399221,0.7476307 v 0.014517 l 0.108879,-0.1596881 0.06533,-0.014517 0.05081,-0.072585 0.15243,0.072585 0.188722,0.2758249 -0.03629,0.1016197 0.02178,0.058068 0.06533,0.029034 v 0.036293 l 0.261308,0.3121176 0.174205,0.043551 z m 0.312118,-0.2395321 c 0.05081,-0.036293 0.07259,-0.079844 0.09436,-0.1306539 0.01452,-0.036293 0.03629,-0.072585 0.07259,-0.1088783 l 0.108879,-0.036293 0.03629,-0.1088783 h 0.03629 l 0.01452,-0.072585 0.04355,-0.00726 c 0.06533,-0.094361 0.123395,-0.1887223 0.188722,-0.2830834 0.06533,-0.087103 0.10162,-0.1887223 0.123395,-0.3048591 l 0.07259,-0.014517 0.03629,-0.1959809 h 0.02903 l 0.07259,-0.2032394 -0.01452,-0.087103 -0.638752,-0.1887223 -0.210498,0.072585 v 0.043551 l -0.464547,0.2322736 v 0.029034 h -0.01452 v 0.014517 l 0.0871,0.021776 0.377445,-0.065327 h 0.101619 c -0.0073,0.145171 -0.02903,0.2976006 -0.05807,0.435513 -0.03629,0.145171 -0.06533,0.2830835 -0.108878,0.4209959 -0.05081,-0.00726 -0.09436,-0.00726 -0.130654,0 -0.04355,0.014517 -0.07984,0.036293 -0.108878,0.072585 0.0073,0.065327 0.02903,0.130654 0.07259,0.1959809 0.03629,0.065327 0.07259,0.1233954 0.09436,0.1959809 h 0.05081 z m 1.429934,-2.3953216 0.05081,-0.014517 0.09436,-0.05081 c 0,-0.1233954 -0.0073,-0.2467908 -0.04355,-0.3701861 -0.03629,-0.1088783 -0.07259,-0.2177565 -0.123395,-0.3266348 -0.05807,-0.029034 -0.116137,-0.058068 -0.166947,-0.094361 -0.05807,-0.036293 -0.116137,-0.065327 -0.174205,-0.087103 h -0.02178 l -0.01452,0.3992202 c 0.0073,0.072585 0.03629,0.145171 0.0871,0.210498 0.05081,0.065327 0.09436,0.1306539 0.137912,0.1959809 h 0.02903 v 0.036293 l 0.145171,0.05081 z"
         id="path679" />
      <path
         d="m 37.513063,5.5875212 0.10162,-0.029034 0.02177,-0.079844 0.0871,-0.087103 -0.06533,-0.3048591 v -0.079844 l 0.05081,0.014517 c 0.02178,0.036293 0.03629,0.065327 0.05081,0.094361 0.0073,0.029034 0.03629,0.05081 0.06533,0.072585 H 37.9268 l 0.02178,-0.079844 0.15243,-0.1524296 0.166946,-0.1379124 0.09436,-0.1161368 c 0.03629,-0.1379125 0.05807,-0.2685664 0.07984,-0.3992203 0.02178,-0.1306539 0.05807,-0.2540493 0.108879,-0.3774446 l 0.07984,-0.094361 v -0.036293 c -0.06533,-0.014517 -0.137913,-0.021776 -0.20324,-0.029034 -0.06533,-0.00726 -0.137912,-0.014517 -0.203239,-0.021776 l -0.123395,0.029034 -0.05081,-0.014517 -0.05081,0.00726 v 0.043551 l -0.0871,0.014517 -0.39922,0.290342 0.02178,0.065327 0.370186,-0.065327 h 0.03629 c 0.0073,0.087103 0.01452,0.1669466 0.0073,0.2467907 -0.0073,0.072585 -0.02178,0.145171 -0.03629,0.2250151 l -0.116136,0.036293 -0.0871,0.087103 -0.05807,0.1379125 h -0.03629 L 37.534839,4.687461 c -0.07259,-0.05081 -0.15243,-0.079844 -0.239532,-0.087103 -0.0871,-0.00726 -0.166947,-0.021776 -0.261308,-0.058068 l -0.06533,0.00726 0.03629,0.043551 v 0.029034 l -0.05081,-0.00726 v 0.05081 l 0.232273,0.1379125 0.05807,0.1887223 0.0073,0.3266347 v 0.05081 z m 3.534914,-0.4137374 0.03629,-0.014517 h 0.159688 l 0.246791,-0.1088782 v -0.029034 l 0.232273,-0.1016197 -0.0073,-0.036293 c 0.05081,-0.036293 0.108878,-0.072585 0.166946,-0.1088782 0.05081,-0.036293 0.108879,-0.058068 0.166947,-0.065327 v -0.029034 l -0.07984,-0.029034 -0.0073,-0.029034 -0.05081,-0.014517 V 4.5713242 H 41.88271 V 4.5350314 C 41.773832,4.4551873 41.657695,4.411636 41.527041,4.4043775 41.396387,4.3971189 41.272992,4.3680847 41.156855,4.2954992 l -0.01452,0.021776 0.02178,0.072585 -0.03629,0.2322736 -0.362927,0.2032394 C 40.576171,4.8181149 40.409225,4.7745636 40.242278,4.6947195 40.08259,4.6148755 39.915643,4.5205143 39.763214,4.411636 h -0.01452 l 0.137912,0.2032395 c 0.174205,0.1596881 0.355669,0.290342 0.55165,0.3847031 0.188722,0.087103 0.384703,0.145171 0.609718,0.1742052 z M 39.276891,4.9415102 h 0.01452 c 0.02903,-0.036293 0.04355,-0.072585 0.04355,-0.1233953 0,-0.043551 0,-0.087103 0.0073,-0.1233954 C 39.327701,4.5205143 39.298666,4.3535676 39.247857,4.186621 39.197047,4.0269329 39.102686,3.8745033 38.986549,3.751108 h -0.02903 v -0.014517 c -0.03629,0.072586 -0.05807,0.145171 -0.07984,0.225015 -0.02178,0.079844 -0.03629,0.145171 -0.04355,0.2250151 0.0073,0.1016197 0.01452,0.1959808 0.02178,0.2830834 0.0073,0.094361 0.03629,0.1887224 0.07984,0.2685664 z m 1.654949,-0.7403721 0.01452,-0.014517 -0.0073,-0.021776 h -0.01452 l -0.0871,-0.1669466 -0.04355,-0.014517 v -0.065327 h -0.02178 c -0.0073,-0.043551 -0.0073,-0.094361 -0.0073,-0.1379124 0,-0.05081 0.02178,-0.087103 0.05807,-0.1233954 L 40.801186,3.54061 c -0.101619,0.1088783 -0.232273,0.1669467 -0.377444,0.1669467 -0.15243,0.00726 -0.297601,0.021776 -0.435513,0.05081 l 0.01452,0.058068 c 0.05081,0.058068 0.101619,0.1016197 0.152429,0.1379125 0.05081,0.036293 0.09436,0.058068 0.159688,0.065327 l 0.195981,0.1161368 c 0.05807,0.021776 0.123396,0.036293 0.20324,0.029034 0.07984,-0.00726 0.145171,0.00726 0.217756,0.036293 z m 1.408159,-0.6387524 h 0.02178 l -0.0073,-0.021776 h -0.02903 c -0.0073,-0.058068 -0.02903,-0.1161368 -0.05807,-0.1742052 -0.03629,-0.05081 -0.06533,-0.1088782 -0.09436,-0.1596881 h -0.03629 l -0.0073,-0.021776 -0.413737,-0.05081 -0.261308,0.072585 0.01452,0.05081 0.152429,0.043551 -0.04355,0.225015 v 0.036293 c 0.06533,-0.014517 0.137913,-0.029034 0.20324,-0.043551 0.06533,-0.014517 0.130653,-0.036293 0.188722,-0.072585 0.05081,0.036293 0.108878,0.043551 0.181464,0.043551 0.07258,0 0.137912,0.021776 0.188722,0.072586 z m -5.117278,0.145171 c 0.09436,-0.021776 0.195981,-0.058068 0.290342,-0.1088783 0.09436,-0.043551 0.203239,-0.079844 0.304859,-0.1088782 0.07984,-0.036293 0.15243,-0.079844 0.225015,-0.1306539 0.05807,-0.05081 0.116137,-0.1088783 0.15243,-0.1814638 l -0.0073,-0.036293 -0.06533,-0.014517 -0.09436,0.014517 -0.06533,-0.00726 h -0.174205 c -0.05081,0.079844 -0.116137,0.145171 -0.195981,0.1814638 -0.07984,0.036293 -0.152429,0.079844 -0.225015,0.1306539 l -0.108878,-0.014517 -0.05081,-0.094361 -0.01452,0.021776 0.0073,0.1596881 0.03629,-0.00726 v 0.065327 l -0.04355,0.00726 v -0.014517 h -0.01452 l 0.03629,0.1233954 z M 40.561654,3.315595 h 0.03629 c 0.0871,-0.3484104 0.181464,-0.6750452 0.275825,-0.9944214 0.101619,-0.3121177 0.203239,-0.6314939 0.290342,-0.9508701 l 0.217756,-0.021776 v -0.05081 l -0.07258,-0.072585 -0.188723,-0.1233953 c -0.05081,-0.029034 -0.108878,-0.043551 -0.166946,-0.058068 -0.06533,-0.00726 -0.116137,-0.029034 -0.15243,-0.0580684 h -0.05081 v 0.0362927 l -0.116136,-0.00726 c -0.217757,0.00726 -0.420996,0.043551 -0.631494,0.094361 -0.20324,0.065327 -0.406479,0.1161368 -0.624236,0.1596881 l -0.04355,0.087103 c 0.108878,0.043551 0.225015,0.094361 0.341152,0.145171 0.116137,0.05081 0.232274,0.094361 0.34841,0.1379125 l -0.123395,0.4863228 -0.341152,0.079844 v 0.029034 l 0.239532,0.072585 -0.24679,0.5734255 h -0.03629 l -0.130654,0.1669466 v 0.036293 h 0.07984 v -0.036293 c 0.06533,-0.00726 0.130654,-0.036293 0.188722,-0.087103 0.05807,-0.05081 0.116137,-0.079844 0.166947,-0.1161368 l 0.09436,-0.1887223 h 0.05081 l 0.159688,-0.145171 h 0.03629 l 0.03629,0.3484104 0.02903,0.014517 0.188722,0.3266348 0.05807,0.05081 z M 37.135618,3.1341312 c 0.04355,-0.014517 0.07984,-0.043551 0.116137,-0.079844 0.03629,-0.036293 0.0871,-0.065327 0.145171,-0.072586 h 0.02903 l -0.01452,0.058068 v 0.014517 l 0.03629,0.014517 0.123395,-0.079844 0.01452,-0.058068 0.217756,-0.1016197 c 0.01452,-0.014517 0.03629,-0.021776 0.05807,-0.029034 0.02178,-0.00726 0.02904,-0.021776 0.02904,-0.058068 l 0.123395,-0.058068 0.116137,-0.1742052 0.0871,-0.05081 v -0.029034 c -0.07984,-0.014517 -0.145171,-0.021776 -0.217756,-0.029034 -0.07259,0 -0.145171,-0.00726 -0.203239,-0.029034 l -0.06533,0.087103 -0.479065,0.2758249 -0.05081,0.00726 -0.01452,-0.094361 -0.116137,0.05081 h -0.02903 l 0.03629,0.1306539 v 0.036293 l -0.06533,0.014517 z m 3.251831,-0.3193762 -0.01452,0.021776 -0.15243,-0.3847032 v -0.036293 l 0.261308,0.094361 z m 0.159688,-0.4572886 -0.02178,0.021776 h -0.02177 l -0.05807,-0.1088783 -0.05807,-0.05081 -0.07984,-0.043551 c 0.0073,-0.079844 0.02903,-0.145171 0.06533,-0.2032394 0.02903,-0.065327 0.05081,-0.1306539 0.05807,-0.210498 l 0.06533,-0.065327 v -0.029034 h -0.01452 v -0.036293 l -0.05081,-0.014517 -0.01452,-0.05081 -0.05081,-0.014517 -0.0073,-0.079844 0.275825,-0.1524295 0.05081,-0.00726 c 0.0073,0.1814638 -0.0073,0.3629275 -0.02903,0.5371327 -0.02903,0.1742052 -0.06533,0.3484104 -0.108878,0.5080986 z m -3.687343,0.036293 0.0073,-0.014517 0.03629,0.014517 c 0.09436,-0.014517 0.181464,-0.043551 0.261308,-0.087103 0.07258,-0.036293 0.152429,-0.072585 0.24679,-0.1088783 l 0.05081,-0.00726 -0.02903,0.1016197 h -0.03629 l -0.02903,0.05081 0.0073,0.029034 0.275825,-0.210498 0.03629,-0.05081 0.03629,-0.029034 0.02178,-0.05081 0.384703,-0.1524296 0.01452,-0.05081 h 0.02903 c 0.0073,-0.00726 0.02903,-0.021776 0.05081,-0.029034 0.02178,-0.00726 0.02903,-0.029034 0.02178,-0.065327 l 0.07984,-0.036293 v -0.072585 h 0.03629 l 0.04355,-0.065327 -0.0073,-0.021776 -0.275825,-0.036293 v -0.014517 l -0.09436,-0.029034 h -0.05081 v 0.014517 l -0.09436,0.00726 v 0.014517 h -0.03629 l -0.0073,0.087103 c -0.217757,0.087103 -0.420996,0.1887223 -0.624235,0.3121176 -0.20324,0.1233954 -0.413738,0.210498 -0.646011,0.2613078 v 0.05081 h -0.03629 l -0.02903,0.029034 0.0073,0.036293 z m 0.827474,-1.0089385 0.181464,-0.1669466 0.04355,-0.065327 0.137913,0.00726 h 0.0871 l 0.07259,-0.1161368 0.07258,-0.0871026 -0.07984,-0.10887825 c -0.130654,-0.0798441 -0.261307,-0.13791246 -0.39922,-0.18146376 -0.130654,-0.0435513 -0.268566,-0.0943612 -0.391962,-0.145171 l -0.05081,0.007259 0.05081,0.0580684 h 0.01452 l -0.01452,0.0508099 v 0.0290342 l 0.384704,0.36292754 -0.09436,0.3121176 -0.04355,0.029034 v 0.00726 z"
         id="path681" />
    </g>
  </g>
</svg>
