<?xml version="1.0" encoding="UTF-8" standalone="no"?>
<!-- Created with Inkscape (http://www.inkscape.org/) -->

<svg
   width="35.000999mm"
   height="7mm"
   viewBox="0 0 35.000998 7"
   version="1.1"
   id="svg5"
   inkscape:version="1.2.2 (b0a8486, 2022-12-01)"
   sodipodi:docname="reportFormConfirm.svg"
   xmlns:inkscape="http://www.inkscape.org/namespaces/inkscape"
   xmlns:sodipodi="http://sodipodi.sourceforge.net/DTD/sodipodi-0.dtd"
   xmlns="http://www.w3.org/2000/svg"
   xmlns:svg="http://www.w3.org/2000/svg">
  <sodipodi:namedview
     id="namedview7"
     pagecolor="#ffffff"
     bordercolor="#000000"
     borderopacity="0.25"
     inkscape:showpageshadow="2"
     inkscape:pageopacity="0.0"
     inkscape:pagecheckerboard="0"
     inkscape:deskcolor="#d1d1d1"
     inkscape:document-units="mm"
     showgrid="false"
     inkscape:zoom="4.7488465"
     inkscape:cx="31.797195"
     inkscape:cy="16.319753"
     inkscape:window-width="1440"
     inkscape:window-height="771"
     inkscape:window-x="1080"
     inkscape:window-y="1616"
     inkscape:window-maximized="0"
     inkscape:current-layer="layer1" />
  <defs
     id="defs2">
    <rect
       x="-1.8951972"
       y="4.0009718"
       width="213.31496"
       height="77.703079"
       id="rect268" />
  </defs>
  <g
     inkscape:label="Layer 1"
     inkscape:groupmode="layer"
     id="layer1">
    <text
       xml:space="preserve"
       style="font-size:8.85995px;font-family:KouzanBrushFontGyousyoOTF;-inkscape-font-specification:KouzanBrushFontGyousyoOTF;fill:#000000;stroke-width:0.166124"
       x="-1.3619121"
       y="8.4681635"
       id="text214"
       transform="scale(0.67763293,1.4757252)"><tspan
         sodipodi:role="line"
         id="tspan212"
         style="stroke-width:0.166124"
         x="-1.3619121"
         y="8.4681635" /></text>
    <text
       xml:space="preserve"
       transform="scale(0.26458333)"
       id="text266"
       style="font-size:53.3333px;font-family:KouzanBrushFontGyousyoOTF;-inkscape-font-specification:KouzanBrushFontGyousyoOTF;white-space:pre;shape-inside:url(#rect268);display:inline;fill:#000000" />
    <g
       aria-label="通報内容確認"
       transform="scale(0.83974729,1.1908345)"
       id="text479"
       style="font-size:7.14357px;font-family:KouzanBrushFontGyousyoOTF;-inkscape-font-specification:KouzanBrushFontGyousyoOTF;fill:#1a1a1a;stroke-width:0.412129">
      <path
         d="m 5.1271189,5.6796051 0.028574,-0.00714 0.014287,0.00714 0.1643021,-0.00714 h 0.085723 C 5.5628767,5.6653179 5.691461,5.6438872 5.8271888,5.6081694 5.9629166,5.5724515 6.0843573,5.5295901 6.2200851,5.4795851 v -0.028574 h 0.057149 l 0.00714,-0.057148 0.078579,-0.035718 -0.1142971,0.021431 C 5.4485796,5.3438573 4.6556433,5.2295602 3.8698506,5.0509709 3.0697708,4.8723817 2.2911217,4.6795053 1.5267597,4.4937725 l 0.035718,-0.1071536 h 0.028574 c 0.014287,-0.042861 0.035718,-0.071436 0.057149,-0.1071535 0.021431,-0.035718 0.035718,-0.078579 0.035718,-0.1285843 h 0.028574 c -0.00714,-0.050005 -0.00714,-0.10001 -0.014287,-0.1428714 -0.00714,-0.042861 -0.021431,-0.085723 -0.057149,-0.1285842 L 1.6053389,3.8579947 1.4481804,3.5865391 1.355314,3.5008162 C 1.2910219,3.4508113 1.2267297,3.3936627 1.1838683,3.322227 1.1267198,3.2579349 1.0981455,3.172212 1.0910019,3.0864892 l 0.071436,-0.3714656 0.1142971,-0.085723 0.028574,-0.050005 0.10001,-0.035718 0.021431,-0.021431 0.20002,-0.035718 -0.050005,-0.028574 V 2.4221372 L 1.5481904,2.40785 v -0.028574 h 0.042861 L 1.5481904,2.3649886 1.4981854,2.2506915 C 1.4124626,2.2149737 1.3124526,2.1863994 1.205299,2.1649687 1.1052891,2.143538 1.0124226,2.1078201 0.91955623,2.0721023 H 0.8552641 l -0.16430211,0.050005 0.0142871,0.057149 -0.007144,0.10001 L 0.14090711,2.6935928 0.0480407,2.6793057 V 2.6507314 H 0.01232285 L 0.1909121,2.857895 c 0.0571486,0.021431 0.12144069,0.028574 0.20001996,0.021431 0.0785793,0 0.15001497,0 0.2143071,0 0.007144,0.1214406 0.0428614,0.2285942 0.10000997,0.314317 0.0571486,0.10001 0.12858426,0.1928764 0.2143071,0.2643121 l 0.050005,0.035718 0.27859928,0.3714656 c 0.00714,0.092866 -0.00714,0.1714457 -0.042862,0.2357378 -0.028574,0.071436 -0.078579,0.1357279 -0.1428714,0.20002 L 0.84097696,4.4723418 0.7838284,4.4580546 c -0.050005,-0.00714 -0.10000998,-0.00714 -0.13572783,0 -0.0428614,0.014287 -0.0714357,0.035718 -0.10715354,0.071436 0.007144,0.092866 0.0428614,0.1714457 0.0857228,0.2428814 0.050005,0.078579 0.11429712,0.150015 0.18573282,0.2143071 0.11429712,0 0.22859422,-0.014287 0.34289132,-0.035718 0.10001,-0.021431 0.2143071,-0.035718 0.3214607,-0.064292 0.6072034,0.092866 1.2144069,0.2285943 1.8144668,0.4000399 0.6000598,0.1785893 1.2144068,0.3071735 1.8358974,0.3928964 z m -0.6714955,-0.964382 0.1357278,-0.028574 0.028574,-0.057149 h 0.042861 v 0.00714 l 0.042861,-0.00714 v -0.021431 h 0.035718 L 4.7056483,4.4937725 4.7842276,3.6008262 4.7699404,3.1579249 4.7842276,2.6721621 4.7699404,2.60787 4.8128019,2.5364343 c 0.021431,-0.10001 0.042861,-0.2071635 0.057148,-0.3071735 0.014287,-0.1071536 0.028574,-0.2143071 0.042861,-0.3071735 l 0.092866,-0.1214407 0.10001,0.014287 h 0.050005 L 5.1342625,1.743498 C 4.9842475,1.6506316 4.8199454,1.6006266 4.6484997,1.5649088 4.4770541,1.5363345 4.312752,1.4863295 4.1698806,1.4077503 L 4.0555834,1.5077602 C 3.9555735,1.4863295 3.8698506,1.4577552 3.7841278,1.4220374 3.6912614,1.3863195 3.598395,1.3577453 3.498385,1.3363146 L 3.54839,1.2648789 3.5769643,1.2005867 3.6484,1.179156 V 1.1505817 L 3.8055585,1.029141 v -0.028574 h 0.028574 L 3.9055685,0.9219875 C 4.0198656,0.81483395 4.1484498,0.75054182 4.2913212,0.72911111 4.4413362,0.7076804 4.5699205,0.65767541 4.6985047,0.57909614 L 4.727079,0.53623472 V 0.50051687 C 4.5627769,0.45051188 4.4127619,0.39336332 4.2484598,0.32907119 4.0913013,0.27192263 3.9269992,0.22191764 3.7626971,0.18619979 h -0.042861 v 0.0785793 L 3.6126821,0.30764048 3.598395,0.37907618 C 3.3840879,0.44336831 3.1697808,0.51480401 2.9483301,0.59338328 2.7125923,0.67910612 2.4839981,0.72911111 2.2554038,0.75054182 l -0.2714556,-0.10000998 -0.035718,0.007144 v 0.0285743 l -0.035718,0.0214307 v 0.050005 l 0.3286042,0.34289131 0.1357278,0.042862 v 0.028574 l 0.021431,0.014287 c 0.1071536,0 0.2214507,-0.014287 0.3214607,-0.042861 0.1071535,-0.021431 0.2071635,-0.071436 0.2928863,-0.1285843 v -0.0357179 l 0.1071536,-0.0142871 0.00714,-0.0642921 h 0.035718 v -0.0142871 l -0.042861,-0.0285743 v -0.0642921 c 0.057148,-0.0357178 0.1142971,-0.0714357 0.1643021,-0.10715355 0.057148,-0.0357179 0.1142971,-0.0571486 0.1785892,-0.0642921 h 0.021431 L 3.0626272,1.429181 2.9197558,1.4220374 H 2.7411666 l 0.364322,0.2785992 -0.021431,0.050005 -0.2000199,0.1643021 c 0,0.064292 0.014287,0.1285843 0.050005,0.1928764 0.035718,0.064292 0.057148,0.1214407 0.078579,0.1714457 l 0.057149,0.035718 0.050005,-0.021431 0.1643021,0.021431 0.00714,0.1714457 c -0.085723,0.014287 -0.1785893,0.035718 -0.2714557,0.064292 -0.085723,0.035718 -0.1714457,0.078579 -0.250025,0.1285843 L 2.7197359,2.6650186 2.6697309,2.5435779 C 2.6054387,2.5007165 2.5411466,2.4649986 2.4697109,2.4364243 2.3911316,2.4149936 2.3268395,2.3935629 2.2625474,2.3792758 h -0.050005 l 0.1285843,0.2000199 c -0.014287,0.2143071 -0.035718,0.4143271 -0.064292,0.6000599 -0.028574,0.20002 -0.078579,0.3857528 -0.1428714,0.564342 0.00714,0.057149 0.014287,0.1071536 0.035718,0.150015 0.014287,0.050005 0.035718,0.092866 0.064292,0.1285843 h 0.028574 l 0.10001,0.1571585 0.035718,0.035718 v 0.050005 l 0.035718,-0.014287 h 0.1357278 v 0.021431 h 0.057148 l 0.021431,-0.042861 0.1357278,-0.00714 v 0.035718 l 0.064292,-0.014287 C 2.8268894,4.186599 2.8054587,4.136594 2.7697408,4.0937326 2.734023,4.0580147 2.7197359,4.0151533 2.7197359,3.9508612 l 0.014287,-0.5571985 0.050005,0.014287 0.1785892,-0.035718 0.035718,0.014287 0.2643121,-0.050005 c 0.035718,0.042861 0.050005,0.10001 0.042861,0.1714457 -0.00714,0.078579 0,0.1428714 0.035718,0.20002 l 0.042861,-0.00714 c 0.035718,-0.064292 0.064292,-0.1285843 0.078579,-0.1928764 0.014287,-0.064292 0.028574,-0.1214407 0.035718,-0.2000199 0.1071535,-0.050005 0.2214507,-0.092866 0.3286042,-0.1285843 0.10001,-0.035718 0.20002,-0.085723 0.3000299,-0.1571585 -0.00714,-0.042861 -0.035718,-0.064292 -0.078579,-0.064292 -0.050005,0.00714 -0.092866,0 -0.1285843,-0.00714 l -0.1428714,0.021431 -0.1428714,0.00714 0.050005,-0.2857428 c 0.064292,-0.00714 0.1214407,-0.028574 0.1857328,-0.050005 0.057149,-0.021431 0.1142971,-0.042861 0.1643021,-0.078579 V 2.5221472 L 3.7626971,2.4364243 C 3.7412664,2.3721322 3.7198357,2.3149836 3.7126921,2.2578351 3.7055485,2.2078301 3.6841178,2.1578251 3.6484,2.1078201 l 0.042861,-0.064292 v -0.035718 h 0.050005 l 0.014287,-0.050005 0.092866,-0.00714 0.064292,0.028574 -0.014287,0.1071536 0.078579,0.1643021 0.035718,0.00714 c 0.1142971,0.1643021 0.1714457,0.3500349 0.1857328,0.5571984 0.00714,0.20002 0.028574,0.4071835 0.050005,0.614347 L 4.2341727,4.036584 h -0.057149 l -0.028574,-0.035718 h -0.028574 c 0,-0.050005 -0.014287,-0.1000099 -0.035718,-0.1428714 C 4.062727,3.8222769 4.0270092,3.7794155 3.9912913,3.7436976 L 3.912712,3.7151233 3.8841378,3.6222569 h -0.035718 c 0.028574,0.1214407 0.050005,0.250025 0.071436,0.3786092 0.021431,0.1214407 0.028574,0.250025 0.028574,0.3786092 0.085723,0.057149 0.1714457,0.1142972 0.2571685,0.1714457 0.085723,0.057149 0.1714457,0.1071536 0.250025,0.1643021 z M 3.298365,3.0793456 3.1340629,3.1293506 H 3.0554836 V 3.0936328 L 3.2269293,2.9864792 3.298365,3.0007663 Z M 2.9054687,2.9793356 2.7911716,3.0436278 H 2.7554537 V 2.8221771 l 0.092866,0.028574 0.1857328,-0.071436 h 0.042862 z M 0.68381842,1.8149337 C 0.74811055,1.8077902 0.81954625,1.7792159 0.88383838,1.743498 0.94098694,1.7077802 0.9981355,1.6720623 1.0624276,1.6434881 l 0.035718,-0.050005 0.1071535,-0.00714 0.078579,0.00714 h 0.014287 L 1.2124426,1.3648888 C 1.1124326,1.2648789 0.99099193,1.1862996 0.87669481,1.129151 0.75525412,1.0720025 0.61952629,1.0434282 0.49094204,1.0362846 h -0.0785793 v 0.028574 l 0.3071735,0.1571585 v 0.035718 l 0.12144069,0.10001 c 0.007144,0.092866 -0.007144,0.1714456 -0.0285743,0.2428813 -0.0285743,0.071436 -0.0714357,0.1357279 -0.12858426,0.20002 z"
         id="path481" />
      <path
         d="m 8.848905,5.8510508 c 0.035718,-0.00714 0.071436,-0.014287 0.10001,-0.014287 0.035718,0 0.064292,-0.014287 0.085723,-0.028574 L 8.9560586,5.6081694 c -0.014287,-0.2857428 0,-0.5571985 0.042861,-0.814367 0.035718,-0.2500249 0.10001,-0.4929063 0.1857328,-0.7429313 -0.00714,-0.035718 -0.00714,-0.078579 -0.00714,-0.1214407 0,-0.035718 -0.014287,-0.078579 -0.042862,-0.1142971 l 0.042862,-0.078579 C 9.2632321,3.6722619 9.3560985,3.6222569 9.4489649,3.5793955 9.5346878,3.5436777 9.6346977,3.4865291 9.7275641,3.4150934 l -0.014287,-0.035718 -0.3643221,0.00714 -0.014287,0.035718 -0.057149,0.014287 v 0.035718 l -0.092866,0.071436 c -0.028574,0 -0.050005,0 -0.064292,-0.00714 -0.021431,-0.00714 -0.035718,-0.021431 -0.042861,-0.042861 L 8.89891,3.4365241 9.1132171,3.222217 9.1060736,3.1864992 C 9.1846528,3.1579249 9.2560885,3.1150635 9.3275242,3.0436278 9.3918164,2.9721921 9.4703956,2.9293307 9.5561185,2.9221871 l 0.021431,-0.035718 -0.021431,-0.085723 -0.2214507,-0.071436 h -0.071436 l -0.021431,0.057149 -0.092866,0.00714 -0.014287,0.050005 -0.4286142,0.2214507 H 8.6774594 C 8.7560386,2.9579049 8.848905,2.8721821 8.948915,2.80789 9.048925,2.7435978 9.148935,2.6793057 9.2418014,2.6150136 v -0.042861 l 0.092866,-0.028574 C 9.3918164,2.50786 9.4418214,2.457855 9.4846828,2.3935629 9.5275442,2.3292708 9.5561185,2.2721222 9.5846927,2.2149737 l 0.050005,-0.050005 C 9.6204106,2.1221072 9.5918363,2.1006765 9.5418313,2.093533 9.4989699,2.0863894 9.4489649,2.0792458 9.4132471,2.0649587 l -0.4000399,0.10001 v 0.028574 h -0.028574 v 0.028574 L 9.1560786,2.2364044 9.09893,2.3864193 H 9.0632121 L 8.8560486,2.7221671 H 8.8274743 V 2.757885 H 8.7917565 L 8.6631722,2.9507614 H 8.6131672 L 8.4917265,3.0936328 c -0.057149,0.021431 -0.1071535,0.050005 -0.1500149,0.085723 -0.042861,0.035718 -0.10001,0.057149 -0.1643021,0.057149 l -0.021431,0.035718 c 0,0.050005 0.021431,0.085723 0.057149,0.1214407 0.035718,0.035718 0.042861,0.071436 0.035718,0.1142971 L 8.7989001,3.2079299 h 0.014287 l -0.042861,0.1357278 -0.057149,-0.00714 h -0.028574 v 0.014287 L 8.6488851,3.4865291 8.2559887,3.9008562 8.1345481,3.936574 8.0488252,4.0222969 8.1559788,4.2937525 h 0.1214406 l 0.014287,-0.071436 0.1357278,-0.057148 V 4.1294504 L 8.7989001,3.936574 c 0.042861,0 0.057149,0.021431 0.050005,0.057149 -0.00714,0.042861 0,0.071436 0.021431,0.092866 0,0.2500249 -0.014287,0.5000499 -0.042861,0.7429313 -0.028574,0.2428813 -0.085723,0.4786191 -0.1714456,0.6929262 0,0.071436 0.021431,0.1357279 0.064292,0.1857329 0.042861,0.050005 0.085723,0.1000099 0.1285842,0.1428714 z m 4.479018,-0.6929263 -0.01429,-0.021431 0.04286,-0.028574 0.05001,-0.00714 v 0.014287 l 0.02143,0.014287 h 0.05715 v -0.014287 l -0.07144,-0.064292 -0.04286,-0.021431 V 5.0009659 L 13.249344,4.8866688 13.092186,4.7866588 V 4.7437974 L 13.02075,4.6795053 12.777869,4.5223467 V 4.4794853 C 12.649284,4.3866189 12.5207,4.3008961 12.399259,4.2008861 12.270675,4.1080197 12.149234,4.0294404 12.02065,3.9508612 v -0.028574 l -0.05715,-0.021431 c -0.05001,-0.092866 -0.107154,-0.1785893 -0.171446,-0.2714557 -0.06429,-0.092866 -0.114297,-0.1785892 -0.157159,-0.2643121 0.03572,-0.092866 0.07144,-0.1785892 0.114297,-0.2643121 0.04286,-0.085723 0.07858,-0.1714456 0.10001,-0.2571685 l 0.03572,-0.014287 c 0.05715,-0.1357279 0.10001,-0.2857428 0.135728,-0.4500449 0.03572,-0.1571586 0.06429,-0.3143171 0.09287,-0.4643321 l -0.03572,-0.1071535 -0.264312,-0.071436 c -0.07144,0 -0.135728,0.014287 -0.185733,0.042861 -0.04286,0.035718 -0.10001,0.064292 -0.157159,0.085723 h -0.03572 l 0.01429,-0.050005 0.07143,-0.042861 v -0.050005 h 0.03572 l 0.185733,-0.2071635 c 0.02143,-0.035718 0.05001,-0.064292 0.08572,-0.085723 0.03572,-0.021431 0.07144,-0.028574 0.107153,-0.028574 l 0.257169,-0.42147065 0.04286,-0.0142871 0.05715,-0.0857228 h 0.02857 l 0.09287,-0.0857228 0.02858,-0.0428614 0.07858,-0.050005 -0.01429,-0.12858426 c -0.07144,-0.0571486 -0.150015,-0.0928664 -0.228594,-0.10715355 -0.07144,0 -0.150015,-0.0214307 -0.221451,-0.0571486 h -0.04286 l -0.02858,0.0571486 -0.178589,0.0142871 -0.01429,0.0285743 C 11.627754,0.564809 11.470595,0.62910113 11.32058,0.7076804 11.156278,0.7791161 11.006263,0.83626466 10.841961,0.88626965 v 0.0642921 l 0.264312,0.15001492 h 0.02857 l -0.0071,-0.035718 0.542911,-0.22859424 0.09287,-0.007144 C 11.706333,1.0148539 11.642041,1.1934432 11.577749,1.3720324 11.506313,1.5649088 11.39916,1.7292109 11.270575,1.8792259 l -0.357178,0.2785992 c -0.03572,0 -0.06429,0 -0.08572,0 -0.02857,0.00714 -0.05001,0.028574 -0.07144,0.064292 l 0.05001,0.20002 0.07858,0.078579 0.05715,-0.071436 c 0.107154,-0.042861 0.221451,-0.1071536 0.328604,-0.1857329 0.10001,-0.078579 0.207164,-0.1500149 0.321461,-0.2143071 h 0.07144 c -0.01429,0.1857329 -0.03572,0.3643221 -0.05001,0.5429114 -0.02143,0.1857328 -0.06429,0.364322 -0.121441,0.5429113 -0.128584,-0.1357279 -0.257169,-0.2285943 -0.407184,-0.2857428 -0.142871,-0.064292 -0.307173,-0.078579 -0.485762,-0.050005 0.02143,-0.1643021 0.04286,-0.3214607 0.06429,-0.4857628 0.01429,-0.1571585 0.02143,-0.3143171 0.02857,-0.464332 0.0071,-0.150015 -0.01429,-0.2857428 -0.06429,-0.4143271 -0.05715,-0.1214407 -0.114297,-0.2500249 -0.178589,-0.364322 L 10.284763,0.91484393 h -0.05715 l -0.04286,0.18573277 c 0.05,0.2357379 0.08572,0.4643321 0.12144,0.6929263 0.03572,0.2285943 0.05,0.4643321 0.05715,0.7072135 -0.0071,0.3286042 -0.03572,0.6429212 -0.07144,0.9643819 -0.04286,0.3214606 -0.10001,0.6357777 -0.164302,0.9429512 l -0.107153,0.150015 c -0.0071,0.085723 0.0071,0.1571585 0.05715,0.2143071 0.04286,0.064292 0.07858,0.1285843 0.128584,0.1928764 l 0.128585,-0.014287 0.02143,0.014287 c 0.02143,0 0.04286,0 0.06429,-0.00714 0.0071,-0.00714 0.02143,-0.021431 0.03572,-0.035718 l -0.03572,-0.10001 c 0.0071,-0.3214607 0.01429,-0.6429213 0.03572,-0.964382 0.02143,-0.3214606 0.06429,-0.6286341 0.114297,-0.928664 0.06429,-0.00714 0.114298,-0.00714 0.157159,0.014287 0.05,0.021431 0.09287,0.057148 0.135728,0.092866 0.07858,0.092866 0.150015,0.1928764 0.207163,0.3000299 0.05715,0.10001 0.114297,0.2071636 0.164302,0.3071735 l -0.01429,0.10001 h -0.04286 l -0.264312,0.3214607 -0.01429,0.057148 -0.271456,0.1285843 0.01429,0.050005 0.207164,-0.028574 0.328604,-0.3000299 V 3.936574 h 0.04286 l 0.06429,-0.1142971 h 0.06429 l 0.05001,0.071436 c 0.285742,0.2643121 0.592916,0.4857627 0.907233,0.6786391 0.314317,0.1857329 0.642921,0.3571785 0.971525,0.5143371 v 0.050005 z M 8.5917365,3.8794255 8.4560087,3.9437176 H 8.4060037 L 8.6846029,3.6079698 v -0.035718 h 0.064292 l 0.050005,0.078579 v 0.10001 z M 8.184553,2.8650385 8.3917166,2.8364642 c 0.00714,-0.064292 0.00714,-0.1214406 0.014287,-0.1857328 0.00714,-0.064292 0.035718,-0.1071535 0.10001,-0.1357278 V 2.5007165 L 8.4488651,2.557865 8.384573,2.5864393 8.0916866,2.4149936 8.1059738,2.3649886 C 8.2774194,2.2792658 8.4488651,2.2078301 8.6274544,2.1292508 8.7989001,2.0578151 8.9774893,2.0078101 9.1775093,1.9720923 c 0.042861,-0.00714 0.085723,-0.00714 0.1357278,-0.00714 0.050005,0 0.1071535,0.014287 0.1571585,0.035718 0.042861,-0.021431 0.085723,-0.042862 0.1357279,-0.050005 0.050005,0 0.092866,-0.00714 0.1428714,-0.021431 L 9.713277,1.8077902 C 9.6418413,1.7720723 9.563262,1.743498 9.4846828,1.7363545 9.3989599,1.7292109 9.3203807,1.7149238 9.248945,1.6792059 l -0.078579,0.021431 v 0.035718 L 9.048925,1.8077902 C 8.7846129,1.9149437 8.5203008,2.0220973 8.2488452,2.1363944 7.9773895,2.2506915 7.6987903,2.3364143 7.4201911,2.4149936 L 7.205884,2.3935629 7.1273047,2.4149936 v 0.050005 l -0.10001,0.028574 v 0.050005 H 7.005864 c 0.057149,0.021431 0.1214407,0.042861 0.1928764,0.050005 0.078579,0.014287 0.1428714,0.042861 0.2000199,0.092866 0.1142972,-0.00714 0.2214507,-0.035718 0.3214607,-0.085723 0.085723,-0.050005 0.1785892,-0.1000099 0.2714557,-0.1500149 h 0.035718 l -0.014287,0.071436 c -0.021431,0.071436 -0.014287,0.1428714 0.035718,0.1928764 0.042861,0.050005 0.085723,0.1071535 0.1357278,0.1500149 z M 8.5560187,1.8792259 h 0.035718 L 8.6060237,1.8506516 8.8274743,1.7363545 8.9417715,1.4506117 9.4561085,1.3077403 v -0.014287 h -0.042861 v -0.078579 l 0.1214407,-0.014287 0.00714,-0.050005 0.057149,-0.00714 -0.042861,-0.1214407 -0.1643021,-0.0428614 c -0.071436,0 -0.1357279,0.007144 -0.1928764,0.0142871 C 9.1346478,1.0005668 9.0774993,1.029141 9.0346379,1.0720025 H 8.9774893 L 9.1275043,0.4933733 9.0774993,0.28620977 8.6774594,0.17191265 h -0.035718 v 0.0214307 l -0.078579,0.0214307 0.00714,0.0785793 0.050005,0.0285743 0.028574,0.16430211 L 8.6131672,1.229161 C 8.4988701,1.2934531 8.3774294,1.3434581 8.2559887,1.379176 8.1274045,1.4220374 8.0059638,1.4434681 7.870236,1.4363245 c 0.050005,0.078579 0.1142971,0.1357279 0.1928764,0.1857329 0.085723,0.042861 0.1714456,0.085723 0.2571685,0.1285842 l 0.050005,-0.00714 v -0.035718 l 0.092866,-0.057149 h 0.042861 l -0.014287,0.092866 h -0.042861 l 0.014287,0.085723 z"
         id="path483" />
      <path
         d="M 19.035622,5.1938423 V 5.165268 h 0.04286 v -0.035718 l 0.17859,-0.021431 0.06429,0.021431 0.05715,-0.014287 c 0.05,-0.1214407 0.08572,-0.2357379 0.107154,-0.3643221 0.02143,-0.1214407 0.04286,-0.2428814 0.06429,-0.3714657 0.0071,-0.1000099 0.0071,-0.2071635 0.01429,-0.314317 0.0071,-0.092866 0,-0.1928764 -0.01429,-0.2857428 l 0.01429,-0.057149 -0.0071,-0.1785892 0.04286,-0.5500549 0.0071,-0.5429113 0.01429,-0.028574 -0.02858,-0.1714457 0.02143,-0.014287 -0.01429,-0.1142972 0.02143,-0.092866 -0.02143,-0.2214506 0.01429,-0.050005 -0.0071,-0.150015 0.07144,-0.3000299 0.128585,-0.078579 -0.0071,-0.064292 C 19.678543,1.1005767 19.564246,1.0505718 19.442805,1.0077103 19.321365,0.96484892 19.19278,0.92913107 19.064196,0.90770036 c -0.157158,0 -0.30003,0.007144 -0.450045,0.0142871 -0.150015,0.007144 -0.292886,0.0357179 -0.435757,0.0857228 l -0.114298,-0.0642921 0.02143,-0.1428714 -0.0071,-0.2857428 c -0.06429,-0.050005 -0.135728,-0.0785793 -0.207164,-0.10715355 -0.07858,-0.0285743 -0.157158,-0.050005 -0.235738,-0.0714357 l -0.171445,0.0142871 -0.08572,-0.0285743 -0.121441,0.10000998 0.08572,0.0714357 0.02143,0.17858925 -0.01429,0.0785793 0.01429,0.0142871 -0.02858,0.27145564 -0.192876,0.1142971 -0.01429,0.050005 -0.07858,0.028574 v 0.035718 c -0.08572,0.050005 -0.17859,0.092866 -0.257169,0.1428714 -0.07858,0.057149 -0.164302,0.092866 -0.264312,0.1071535 l -0.06429,0.064292 -0.0071,0.050005 h 0.03572 l 0.128584,0.3500349 0.05,0.014287 v 0.050005 c 0.05715,-0.00714 0.114297,-0.028574 0.164302,-0.071436 0.05001,-0.028574 0.107154,-0.057149 0.164303,-0.071436 l 0.02143,-0.064292 0.114297,-0.042861 0.03572,-0.042861 0.05,-0.014287 h 0.02857 c -0.03572,0.3071735 -0.08572,0.6000598 -0.157158,0.8858026 -0.07144,0.2857428 -0.178589,0.5571985 -0.342891,0.8072234 -0.03572,0.028574 -0.07144,0.050005 -0.09287,0.071436 -0.03572,0.021431 -0.07144,0.028574 -0.114297,0.028574 l -0.05,0.064292 -0.114297,0.042861 v 0.028574 l 0.09287,0.050005 0.214307,-0.021431 0.02143,-0.042861 h 0.06429 l 0.08572,-0.092866 0.121441,-0.078579 c 0.03572,-0.035718 0.07858,-0.071436 0.128584,-0.1142971 0.04286,-0.035718 0.07144,-0.085723 0.07858,-0.1428714 h 0.03572 l 0.01429,-0.042861 0.06429,-0.042861 c 0.17859,-0.2785992 0.314318,-0.5571985 0.421471,-0.8500848 0.107154,-0.2928864 0.235738,-0.5786292 0.40004,-0.8572284 0.114297,-0.021431 0.221451,-0.050005 0.328604,-0.085723 0.10001,-0.042861 0.207164,-0.071436 0.314317,-0.085723 h 0.114297 l 0.17859,2.4716752 c 0,0.1428714 0,0.3000299 -0.0071,0.4429013 -0.0071,0.1571586 -0.03572,0.30003 -0.07144,0.4357578 l -0.12144,0.10001 c -0.09287,-0.050005 -0.157159,-0.1071536 -0.214307,-0.20002 -0.05715,-0.085723 -0.128585,-0.1571585 -0.20002,-0.2071635 h -0.05001 l 0.10001,0.4786192 0.06429,0.014287 0.04286,0.1142971 z m -3.136027,-0.6214906 0.01429,-0.014287 0.02143,0.014287 0.235737,-0.1285842 v -0.050005 l -0.02857,-0.014287 c -0.03572,-0.1071535 -0.05715,-0.2214506 -0.06429,-0.3428913 -0.01429,-0.1071536 -0.02857,-0.2214507 -0.04286,-0.3357478 0.0071,-0.042861 0.01429,-0.092866 0.01429,-0.150015 -0.0071,-0.050005 0.0071,-0.092866 0.03572,-0.1142971 l 0.10001,-0.057149 -0.05715,-0.1714457 -0.04286,-0.035718 c -0.0071,-0.042861 0,-0.10001 0.01429,-0.1500149 0.02143,-0.050005 0.03572,-0.10001 0.05715,-0.1428714 l -0.0071,-0.2571686 0.05715,-0.085723 -0.01429,-0.2071635 0.02857,-0.1214407 0.06429,-0.035718 -0.02858,-0.1285842 C 16.135333,1.9792358 16.028179,1.9149437 15.921025,1.8363644 15.806728,1.7577852 15.692431,1.7006366 15.563847,1.6506316 h -0.06429 c 0.01429,0.092866 0.04286,0.1857328 0.08572,0.2785993 0.03572,0.085723 0.07858,0.1785892 0.114297,0.2714556 l -0.03572,0.078579 0.02857,0.1214407 c -0.0071,0.10001 -0.02857,0.1785892 -0.06429,0.2500249 -0.03572,0.078579 -0.07858,0.1571586 -0.114297,0.2357378 h 0.01429 l 0.09287,0.1928764 0.12144,0.1428714 c -0.02143,0.150015 -0.02857,0.30003 -0.03572,0.4500449 -0.0071,0.150015 -0.05001,0.2928864 -0.114297,0.4143271 l -0.0071,0.078579 0.05,0.014287 0.01429,0.071436 h 0.02857 l 0.107154,0.2643121 z m 2.285942,-1.0715355 c 0.05715,-0.028574 0.107154,-0.050005 0.157159,-0.064292 0.05,-0.021431 0.107153,-0.035718 0.164302,-0.042861 l 0.06429,0.021431 0.228594,-0.064292 0.04286,-0.092866 -0.01429,-0.078579 h -0.03572 L 18.757023,3.122207 C 18.607008,3.0079099 18.449849,2.9078999 18.278404,2.8293207 18.114101,2.7507414 17.935512,2.6864493 17.756923,2.6435879 h -0.05 l -0.0071,0.014287 -0.05001,-0.00714 v 0.014287 l 0.264312,0.2928863 h 0.02858 l 0.285743,0.3714657 -0.06429,0.1357278 v 0.014287 z"
         id="path485" />
      <path
         d="m 23.886092,5.7867586 0.07143,-0.014287 -0.02143,-0.035718 v -0.035718 h 0.05715 v -0.028574 l 0.128584,0.014287 h 0.02143 c -0.02143,-0.064292 -0.03572,-0.1357278 -0.06429,-0.2000199 -0.03572,-0.064292 -0.05,-0.1357278 -0.05,-0.2143071 l -0.07144,-0.014287 C 23.886092,5.1152631 23.814656,4.9723917 23.728933,4.8438074 23.636067,4.7080796 23.536057,4.5866389 23.428903,4.4651982 h -0.05715 c 0,0.2285942 0.02857,0.4571885 0.08572,0.6714956 0.05,0.2143071 0.150015,0.4000399 0.314318,0.564342 z m 0.571485,-0.3000299 c 0.09287,-0.021431 0.192877,-0.021431 0.30003,-0.014287 0.107154,0.00714 0.207164,-0.00714 0.278599,-0.050005 l 0.02143,-0.085723 0.171446,-0.028574 -0.02143,-0.050005 c -0.04286,-0.035718 -0.08572,-0.064292 -0.135728,-0.085723 -0.05,-0.021431 -0.09287,-0.035718 -0.150015,-0.050005 l 0.135728,-0.1714457 0.02857,-0.042861 0.09287,-0.014287 0.207163,-0.2214507 0.02858,-0.092866 h 0.03572 l 0.03572,-0.1285843 c 0.01429,-0.050005 0.01429,-0.092866 0.0071,-0.1214406 -0.01429,-0.028574 -0.03572,-0.057149 -0.05715,-0.092866 -0.06429,-0.050005 -0.128584,-0.092866 -0.185732,-0.1142972 -0.07144,-0.021431 -0.142872,-0.035718 -0.214308,-0.042861 -0.142871,-0.014287 -0.292886,-0.00714 -0.42147,0.028574 -0.142872,0.035718 -0.264312,0.085723 -0.378609,0.1571585 l -0.07858,0.064292 -0.02857,0.014287 0.278599,-0.042861 c 0.08572,0 0.17859,0 0.271456,-0.00714 0.08572,-0.00714 0.178589,0.00714 0.264312,0.035718 v 0.042861 c -0.07144,0.1071535 -0.142871,0.2071635 -0.214307,0.2928863 -0.06429,0.10001 -0.150015,0.1857329 -0.242881,0.2643121 l -0.01429,0.021431 -0.114297,0.057149 -0.04286,0.20002 h -0.01429 l 0.07143,0.064292 z m -2.193076,-0.028574 0.03572,-0.050005 0.178589,-0.1357278 0.814367,-1.0215305 0.05,-0.014287 c 0.05,-0.071436 0.10001,-0.1428714 0.157159,-0.20002 0.05,-0.064292 0.09287,-0.1428714 0.128584,-0.2214507 l 0.05715,-0.014287 0.01429,-0.064292 h 0.03572 c 0.07858,-0.092867 0.142871,-0.1857329 0.207163,-0.2928864 0.05715,-0.092866 0.107154,-0.1928764 0.157159,-0.2928864 l 0.09287,-0.042861 v -0.057149 l 0.221451,0.1357279 v 0.035718 h 0.04286 l 0.01429,0.050005 0.06429,0.028574 0.02857,0.057148 c 0.364322,0.2714557 0.742931,0.5071935 1.142971,0.7072135 0.40004,0.2071635 0.807223,0.3928963 1.22155,0.564342 h 0.257169 C 26.707802,4.3008961 26.207752,3.986579 25.700558,3.6936926 25.193365,3.4008063 24.693315,3.122207 24.178978,2.857895 l -0.05715,0.014287 h -0.107153 l -0.07858,-0.085723 h -0.08572 l 0.02143,0.042861 c -0.05,0.1571585 -0.121441,0.314317 -0.20002,0.4714756 -0.08572,0.1571585 -0.150015,0.3214606 -0.192877,0.4786192 l -0.05001,0.021431 C 23.278888,4.0723018 23.114586,4.3366139 22.928853,4.600926 22.74312,4.8580945 22.557388,5.1081195 22.357368,5.3581444 h -0.02858 z m 0.807224,-2.7145566 0.12144,-0.1000099 h 0.05715 l 0.01429,-0.035718 c 0.03572,-0.057149 0.08572,-0.085723 0.142871,-0.092866 0.05715,-0.00714 0.114298,-0.014287 0.171446,-0.035718 l 0.192877,-0.1500149 -0.01429,-0.1142971 c -0.06429,-0.035718 -0.12144,-0.057149 -0.185732,-0.064292 -0.05715,-0.00714 -0.114298,-0.028574 -0.157159,-0.071436 h -0.107154 l -0.01429,0.050005 h -0.04286 l 0.01429,0.035718 L 23.071725,2.70788 Z M 24.614736,2.50786 c 0.09287,-0.021431 0.171445,-0.042861 0.264312,-0.071436 0.08572,-0.028574 0.164302,-0.057149 0.250025,-0.092866 l 0.157158,0.050005 c 0.06429,0.00714 0.121441,0 0.164302,-0.035718 0.03572,-0.035718 0.09287,-0.042861 0.157159,-0.028574 l -0.05,-0.1142971 -0.428614,-0.1857329 -0.314317,0.014287 0.128584,0.1214407 c -0.03572,0.064292 -0.08572,0.1142971 -0.150015,0.1643021 -0.06429,0.050005 -0.121441,0.1071535 -0.178589,0.1643021 z m -2.135928,-0.064292 0.242882,-0.035718 -0.02143,-0.078579 0.09287,-0.4000399 c 0,-0.042862 0,-0.078579 -0.0071,-0.1142972 -0.0071,-0.035718 -0.02143,-0.071436 -0.04286,-0.1071535 C 22.671685,1.6506316 22.600249,1.5934831 22.514526,1.5506217 22.42166,1.5077602 22.343081,1.4434681 22.278788,1.3648888 l 0.114298,0.2857428 -0.03572,0.2785993 h -0.02858 l -0.02857,0.071436 c 0,0.085723 0.02143,0.1643021 0.05715,0.2285942 0.03572,0.064292 0.07858,0.1357278 0.12144,0.20002 z m 2.886003,-0.4714756 c 0.03572,-0.00714 0.07144,-0.021431 0.107153,-0.050005 0.03572,-0.028574 0.06429,-0.057149 0.10001,-0.092866 l 0.03572,-0.050005 c 0.02143,0 0.03572,0 0.05715,-0.00714 0.01429,-0.00714 0.02857,-0.014287 0.05001,-0.035718 0.06429,-0.071436 0.142871,-0.1285843 0.22145,-0.1785893 0.07858,-0.050005 0.178589,-0.057149 0.285743,-0.035718 l 0.121441,-0.1071536 0.07144,0.014287 0.150015,-0.035718 -0.05,-0.1071535 c -0.08572,-0.050005 -0.185732,-0.092866 -0.292886,-0.1214407 -0.10001,-0.021431 -0.192876,-0.057149 -0.285743,-0.10001 h -0.08572 v 0.035718 l -0.52148,-0.035718 c -0.335748,0.021431 -0.678639,0.050005 -1.014387,0.085723 -0.342892,0.035718 -0.664352,0.10001 -0.971526,0.1857329 0.07858,0.035718 0.171446,0.057149 0.257169,0.064292 0.09287,0.00714 0.185733,0.021431 0.271456,0.042861 0.185732,-0.00714 0.357178,-0.042861 0.52148,-0.092866 0.157159,-0.050005 0.321461,-0.092866 0.492906,-0.1285843 0.157159,-0.00714 0.314318,-0.00714 0.442902,0.014287 0.135728,0.021431 0.278599,0.057149 0.414327,0.10001 -0.03572,0.1071535 -0.09287,0.2143071 -0.150015,0.3071735 -0.07144,0.085723 -0.128584,0.1928763 -0.178589,0.3071735 h -0.02858 z m -1.593016,-0.8715156 0.06429,-0.10715351 0.08572,-0.0357178 0.03572,-0.0571486 0.164302,-0.050005 -0.02143,-0.0857228 C 23.957527,0.67910612 23.814656,0.60052685 23.664641,0.53623472 23.52177,0.47194259 23.364611,0.4219376 23.22174,0.37193261 c 0.06429,0.10715355 0.157158,0.20716353 0.278599,0.30002994 0.107153,0.0857228 0.20002,0.19287639 0.271456,0.32146064 z"
         id="path487" />
      <path
         d="m 32.179763,5.6653179 h 0.01429 l 0.02143,-0.071436 h 0.02857 v -0.035718 h 0.03572 c -0.02143,-0.050005 -0.03572,-0.1142971 -0.03572,-0.1857328 0,-0.064292 -0.0071,-0.1285843 -0.02857,-0.1785893 l 0.01429,-0.1071535 -0.01429,-0.085723 c 0.0071,-0.1571585 0.02143,-0.314317 0.04286,-0.4714756 0.01429,-0.1643021 0.04286,-0.3071735 0.09287,-0.4571885 0.0071,-0.071436 0.0071,-0.1500149 -0.0071,-0.2285942 -0.02143,-0.078579 -0.05,-0.1428714 -0.10001,-0.2071635 -0.05715,-0.071436 -0.114297,-0.1285843 -0.178589,-0.1785893 -0.07144,-0.035718 -0.150015,-0.057148 -0.235738,-0.057148 v -0.021431 h -0.07144 v -0.050005 h 0.05 c 0.02143,-0.035718 0.05,-0.064292 0.06429,-0.10001 0.02143,-0.028574 0.03572,-0.064292 0.03572,-0.10001 h 0.03572 l 0.06429,-0.2071635 h 0.02143 l 0.05,-0.085723 c 0.02143,-0.092866 0.05715,-0.1785892 0.09287,-0.2571685 0.03572,-0.071436 0.07144,-0.1571585 0.09287,-0.2500249 h 0.03572 l 0.05,-0.150015 0.05001,-0.021431 c 0.03572,-0.1214407 0.08572,-0.2357378 0.157158,-0.3428914 0.06429,-0.1071535 0.114297,-0.2214506 0.150015,-0.3500349 h 0.03572 l 0.09287,-0.2714556 c 0.06429,-0.035718 0.121441,-0.057149 0.17859,-0.078579 0.05,-0.014287 0.114297,-0.028574 0.178589,-0.042861 l 0.257168,0.021431 c -0.03572,0.1643021 -0.09287,0.3071735 -0.150015,0.4571885 -0.07143,0.1428713 -0.157158,0.2857427 -0.250024,0.4000399 v 0.021431 c 0.03572,0 0.07858,-0.014287 0.114297,-0.028574 0.03572,-0.021431 0.06429,-0.050005 0.10001,-0.085723 l 0.03572,-0.057149 c 0.05001,-0.042861 0.114298,-0.078579 0.17859,-0.1071536 0.06429,-0.028574 0.12144,-0.057148 0.171445,-0.1071535 h 0.03572 v 0.014287 l 0.06429,-0.050005 v -0.035718 c 0.06429,-0.00714 0.114298,-0.035718 0.157159,-0.085723 0.03572,-0.050005 0.07858,-0.064292 0.135728,-0.050005 l 0.10001,-0.064292 -0.01429,-0.1357278 c -0.128585,-0.057149 -0.250025,-0.1142971 -0.371466,-0.1571585 -0.121441,-0.050005 -0.257169,-0.0857229 -0.392896,-0.10001 l -0.371466,0.0357179 h -0.06429 c 0.02143,-0.0642921 0.03572,-0.1428714 0.04286,-0.2143071 0.0071,-0.0785793 0.02143,-0.15715854 0.04286,-0.22859424 l -0.03572,-0.18573282 -0.05001,-0.0142871 -0.02143,-0.050005 -0.407183,-0.20001996 h -0.135728 l 0.05715,0.05000499 v 0.0357179 l 0.05715,0.0428614 c -0.0071,0.17144568 -0.02857,0.32860422 -0.05715,0.49290633 -0.03572,0.15715854 -0.07144,0.31431711 -0.107153,0.47147561 l -0.507194,0.1428714 v 0.050005 c 0.06429,0.014287 0.135728,0.035718 0.20002,0.050005 0.06429,0.021431 0.135728,0.021431 0.207164,0.014287 l -0.10001,0.3857528 h -0.01429 c -0.02143,0.071436 -0.05001,0.1357278 -0.07144,0.1928764 -0.02143,0.064292 -0.04286,0.1357278 -0.05,0.2000199 h -0.03572 c 0,0.10001 -0.02143,0.1857329 -0.07144,0.2643121 -0.04286,0.078579 -0.07144,0.150015 -0.07858,0.2428814 l -0.05,0.035718 c -0.03572,0.078579 -0.07144,0.1571585 -0.107153,0.2357378 -0.03572,0.078579 -0.06429,0.1643021 -0.07858,0.2500249 l -0.08572,0.085723 -0.02143,0.1714456 h -0.02857 l -0.05715,0.2214507 h -0.05 l -0.07858,0.2928864 h -0.03572 c -0.03572,0.1071535 -0.07858,0.2143071 -0.128584,0.3071735 -0.05001,0.092866 -0.09287,0.2000199 -0.121441,0.3143171 v 0.014287 h 0.01429 l 0.06429,-0.064292 0.06429,-0.1571586 h 0.03572 l 0.05715,-0.1500149 h 0.02857 l 0.06429,-0.064292 0.03572,-0.1071535 0.07144,-0.064292 0.03572,-0.085723 0.08572,-0.050005 0.05,-0.085723 c 0,-0.064292 0.02858,-0.1214407 0.06429,-0.1643021 0.03572,-0.035718 0.05,-0.092866 0.05,-0.1571586 l 0.05,-0.035718 0.03572,-0.014287 0.08572,0.014287 0.07858,0.2785992 c -0.02143,0.2428814 -0.02857,0.4929063 -0.02857,0.7429313 0,0.2571685 -0.04286,0.4929063 -0.135728,0.7286441 v 0.028574 h 0.02143 v 0.064292 h 0.01429 v 0.035718 l 0.06429,0.071436 v 0.035718 l 0.05001,0.050005 h 0.03572 v 0.035718 h 0.03572 v 0.028574 l 0.08572,0.014287 0.06429,0.071436 z m 1.664452,-0.2357378 c 0.04286,0 0.08572,-0.014287 0.114297,-0.035718 0.03572,-0.021431 0.06429,-0.050005 0.10001,-0.085723 l 0.07144,-0.057149 0.20002,-0.092866 0.192876,0.064292 c 0.05715,0.00714 0.128584,0.00714 0.20002,-0.00714 0.06429,-0.014287 0.121441,-0.035718 0.178589,-0.071436 v -0.071436 l -0.05,-0.050005 C 34.780022,4.9581045 34.6943,4.9223867 34.608577,4.8866688 34.529998,4.850951 34.437131,4.8223767 34.344265,4.800946 v -0.014287 h -0.05 v -0.021431 l -0.09287,-0.014287 -0.82151,0.035718 H 33.265586 V 4.6795053 c 0.10001,-0.050005 0.20002,-0.10001 0.30003,-0.150015 0.08572,-0.050005 0.185732,-0.1071535 0.278599,-0.1714457 V 4.2437475 L 33.637051,4.1008761 h -0.01429 v 0.021431 h -0.03572 V 4.1008761 L 33.365596,4.086589 V 4.036584 l 0.171445,-0.1357278 v -0.028574 l 0.128585,-0.035718 0.02143,-0.057149 0.135728,-0.042861 c 0.02143,0 0.05,0 0.07144,0 0.02143,0 0.03572,-0.014287 0.03572,-0.035718 h 0.04286 l 0.03572,-0.050005 v -0.050005 l -0.221451,-0.085723 v -0.035718 l -0.164302,-0.064292 -0.121441,0.042861 h -0.08572 l -0.185733,-0.2500249 -0.05001,-0.035718 0.03572,-0.064292 c 0.164302,-0.042861 0.342891,-0.078579 0.514337,-0.1142971 0.178589,-0.028574 0.350035,-0.050005 0.528624,-0.057149 l 0.08572,0.014287 0.05715,-0.014287 -0.02143,-0.085723 -0.392897,-0.1643021 h -0.04286 v -0.057149 l -0.10001,-0.014287 -0.107154,0.035718 v 0.035718 c -0.07143,0.021431 -0.135728,0.042861 -0.207163,0.057148 -0.07858,0.021431 -0.150015,0.042862 -0.214307,0.064292 h -0.08572 l 0.07143,-0.1428714 h 0.03572 l 0.05715,-0.1785893 -0.02857,-0.1928764 c -0.06429,-0.042861 -0.135728,-0.071436 -0.207164,-0.085723 -0.07858,-0.00714 -0.150015,-0.021431 -0.228594,-0.028574 l -0.157159,0.035718 -0.05,0.042861 v 0.035718 c 0.04286,0.00714 0.08572,0.021431 0.121441,0.042861 0.03572,0.021431 0.07144,0.028574 0.114297,0.028574 l -0.05001,0.250025 -0.20002,0.2714556 v 0.035718 l -0.08572,-0.021431 -0.08572,0.035718 -0.05715,0.1071536 0.09287,0.2857428 0.06429,0.050005 v 0.021431 h 0.02143 v -0.035718 h 0.03572 l 0.01429,-0.035718 0.235738,-0.1214407 h 0.05 l 0.03572,0.1214407 v 0.2143071 c -0.107154,0.021431 -0.207164,0.057149 -0.292887,0.092866 -0.10001,0.042861 -0.192876,0.10001 -0.271455,0.1643021 l 0.05,0.085723 c 0.09287,0 0.178589,-0.021431 0.242881,-0.057149 0.06429,-0.035718 0.142872,-0.057149 0.221451,-0.064292 h 0.03572 l -0.03572,0.1571586 -0.285743,0.1643021 0.09287,0.3214606 0.157159,0.035718 V 4.550921 l -0.07144,-0.021431 h -0.01429 l -0.02143,0.10001 c -0.04286,0.042861 -0.08572,0.078579 -0.128584,0.10001 -0.05,0.021431 -0.10001,0.035718 -0.157158,0.035718 -0.02143,0.014287 -0.04286,0.028574 -0.06429,0.035718 -0.02143,0.00714 -0.02857,0.035718 -0.02143,0.071436 l -0.06429,0.035718 0.06429,0.057149 0.12144,0.3071735 c 0.20002,0 0.40004,-0.028574 0.571486,-0.078579 0.178589,-0.057149 0.350035,-0.10001 0.528624,-0.1214407 h 0.157159 l -0.02143,0.050005 v 0.021431 h 0.07144 v 0.028574 h 0.05001 c 0.0071,0.050005 0,0.10001 -0.02143,0.1357278 -0.03572,0.042861 -0.05715,0.085723 -0.07858,0.1214407 z m -4.136127,-0.4071835 0.114297,-0.021431 v -0.014287 h 0.03572 l 0.03572,-0.064292 v -0.035718 h -0.01429 c 0.0071,-0.064292 0,-0.1285842 -0.03572,-0.1785892 -0.03572,-0.050005 -0.05715,-0.10001 -0.07144,-0.1571586 h -0.02857 l -0.01429,-0.057148 -0.05,-0.014287 V 4.4437675 L 29.536642,4.3151832 C 29.450919,4.2437475 29.358053,4.1794554 29.250899,4.1294504 29.150889,4.0794454 29.043736,4.036584 28.929439,4.0222969 v -0.028574 h 0.03572 c 0.02143,-0.050005 0.05715,-0.092866 0.10001,-0.1357279 0.03572,-0.035718 0.06429,-0.085723 0.07144,-0.1357278 h 0.04286 c 0.02143,-0.050005 0.05001,-0.092866 0.07858,-0.1285842 0.02857,-0.035718 0.04286,-0.071436 0.04286,-0.1142972 l 0.05715,-0.021431 0.05,-0.1142971 0.05,-0.014287 0.150015,-0.2357378 0.03572,-0.021431 c 0.04286,-0.078579 0.08572,-0.1643021 0.128584,-0.2428813 0.05001,-0.085723 0.08572,-0.1714457 0.121441,-0.2643121 h 0.03572 l 0.321461,-0.5286242 0.03572,-0.050005 h 0.03572 l 0.03572,-0.078579 h 0.02857 v -0.035718 h 0.02857 l 0.02143,-0.035718 0.207163,-0.035718 0.02858,-0.050005 V 1.6363445 C 30.57246,1.5934831 30.465306,1.5577652 30.365296,1.5220474 30.258143,1.4934731 30.150989,1.4720424 30.050979,1.4506117 l -0.171446,0.050005 v 0.035718 c -0.09287,0.057149 -0.185732,0.1071536 -0.285742,0.1428714 -0.107154,0.050005 -0.20002,0.085723 -0.307174,0.1214407 l -0.257168,-0.050005 h -0.05 l 0.07143,0.1214407 c 0.09287,0.078579 0.185733,0.1285843 0.292887,0.1571585 0.107153,0.028574 0.22145,0.035718 0.350035,0.028574 -0.02143,0.1357278 -0.06429,0.2571685 -0.114297,0.3786092 -0.05,0.1142971 -0.10001,0.2428814 -0.135728,0.3714657 h -0.03572 C 29.293761,3.0507713 29.179464,3.3007963 29.050879,3.5436777 28.922295,3.7937026 28.793711,4.036584 28.657983,4.2794654 v 0.014287 l 0.107154,-0.1571585 0.06429,-0.014287 0.05,-0.071436 0.150015,0.071436 0.185732,0.2714557 -0.03572,0.10001 0.02143,0.057148 0.06429,0.028574 v 0.035718 l 0.257169,0.3071735 0.171446,0.042861 z m 0.307173,-0.2357378 c 0.05001,-0.035718 0.07144,-0.078579 0.09287,-0.1285842 0.01429,-0.035718 0.03572,-0.071436 0.07144,-0.1071536 l 0.107154,-0.035718 0.03572,-0.1071536 h 0.03572 l 0.01429,-0.071436 0.04286,-0.00714 c 0.06429,-0.092866 0.121441,-0.1857329 0.185733,-0.2785993 0.06429,-0.085723 0.10001,-0.1857328 0.121441,-0.3000299 l 0.07144,-0.014287 0.03572,-0.1928764 h 0.02858 l 0.07144,-0.20002 -0.01429,-0.085723 -0.628634,-0.1857329 -0.207164,0.071436 v 0.042861 l -0.457188,0.2285942 v 0.028574 h -0.01429 v 0.014287 l 0.08572,0.021431 0.371465,-0.064292 h 0.10001 c -0.0071,0.1428714 -0.02857,0.2928864 -0.05715,0.4286142 -0.03572,0.1428714 -0.06429,0.2785992 -0.107154,0.4143271 -0.05,-0.00714 -0.09287,-0.00714 -0.128584,0 -0.04286,0.014287 -0.07858,0.035718 -0.107154,0.071436 0.0071,0.064292 0.02858,0.1285842 0.07144,0.1928763 0.03572,0.064292 0.07144,0.1214407 0.09287,0.1928764 h 0.05 z m 1.407284,-2.357378 0.05,-0.014287 0.09287,-0.050005 c 0,-0.1214407 -0.0071,-0.2428814 -0.04286,-0.364322 -0.03572,-0.1071536 -0.07144,-0.2143071 -0.121441,-0.3214607 -0.05715,-0.028574 -0.114297,-0.057148 -0.164302,-0.092866 -0.05715,-0.035718 -0.114297,-0.064292 -0.171446,-0.085723 h -0.02143 l -0.01429,0.3928963 c 0.0071,0.071436 0.03572,0.1428714 0.08572,0.2071635 0.05,0.064292 0.09287,0.1285843 0.135728,0.1928764 h 0.02857 v 0.035718 l 0.142872,0.050005 z"
         id="path489" />
      <path
         d="m 36.937367,5.5010158 0.10001,-0.028574 0.02143,-0.078579 0.08572,-0.085723 -0.06429,-0.3000299 v -0.078579 l 0.05,0.014287 c 0.02143,0.035718 0.03572,0.064292 0.05001,0.092866 0.0071,0.028574 0.03572,0.050005 0.06429,0.071436 h 0.10001 l 0.02143,-0.078579 0.150015,-0.150015 0.164303,-0.1357278 0.09287,-0.1142971 c 0.03572,-0.1357278 0.05715,-0.2643121 0.07858,-0.3928963 0.02143,-0.1285843 0.05715,-0.250025 0.107154,-0.3714657 l 0.07858,-0.092866 v -0.035718 c -0.06429,-0.014287 -0.135728,-0.021431 -0.20002,-0.028574 -0.06429,-0.00714 -0.135728,-0.014287 -0.20002,-0.021431 l -0.121441,0.028574 -0.05,-0.014287 -0.05001,0.00714 v 0.042861 l -0.08572,0.014287 -0.392897,0.2857428 0.02143,0.064292 0.364322,-0.064292 h 0.03572 c 0.0071,0.085723 0.01429,0.1643021 0.0071,0.2428814 -0.0071,0.071436 -0.02143,0.1428714 -0.03572,0.2214507 l -0.114298,0.035718 -0.08572,0.085723 -0.05715,0.1357278 h -0.03572 l -0.07858,-0.1571585 c -0.07144,-0.050005 -0.150015,-0.078579 -0.235738,-0.085723 -0.08572,-0.00714 -0.164302,-0.021431 -0.257168,-0.057149 l -0.06429,0.00714 0.03572,0.042861 v 0.028574 l -0.05,-0.00714 v 0.050005 l 0.228595,0.1357279 0.05715,0.1857328 0.0071,0.3214606 v 0.050005 z m 3.478919,-0.4071835 0.03572,-0.014287 h 0.157158 l 0.242882,-0.1071535 v -0.028574 l 0.228594,-0.10001 -0.0071,-0.035718 c 0.05001,-0.035718 0.107154,-0.071436 0.164302,-0.1071535 0.05,-0.035718 0.107154,-0.057149 0.164302,-0.064292 v -0.028574 l -0.07858,-0.028574 -0.0071,-0.028574 -0.05,-0.014287 V 4.500916 h -0.02857 V 4.4651982 C 41.130643,4.3866189 41.016346,4.3437575 40.887761,4.3366139 40.759177,4.3294704 40.637736,4.3008961 40.523439,4.2294604 l -0.01429,0.021431 0.02143,0.071436 -0.03572,0.2285942 -0.357178,0.20002 C 39.951954,4.7437974 39.787652,4.700936 39.62335,4.6223567 39.466191,4.5437775 39.301889,4.450911 39.151874,4.3437575 h -0.01429 l 0.135728,0.20002 c 0.171445,0.1571585 0.350035,0.2857428 0.542911,0.3786092 0.185733,0.085723 0.378609,0.1428714 0.60006,0.1714456 z M 38.673255,4.8652381 h 0.01429 c 0.02857,-0.035718 0.04286,-0.071436 0.04286,-0.1214407 0,-0.042861 0,-0.085723 0.0071,-0.1214407 -0.01429,-0.1714457 -0.04286,-0.3357478 -0.09287,-0.5000499 -0.05,-0.1571585 -0.142871,-0.3071735 -0.257168,-0.4286142 h -0.02857 v -0.014287 c -0.03572,0.071436 -0.05715,0.1428714 -0.07858,0.2214507 -0.02143,0.078579 -0.03572,0.1428714 -0.04286,0.2214506 0.0071,0.10001 0.01429,0.1928764 0.02143,0.2785993 0.0071,0.092866 0.03572,0.1857328 0.07858,0.264312 z m 1.628734,-0.7286441 0.01429,-0.014287 -0.0071,-0.021431 h -0.01429 l -0.08572,-0.1643021 -0.04286,-0.014287 v -0.064292 h -0.02143 c -0.0071,-0.042861 -0.0071,-0.092866 -0.0071,-0.1357278 0,-0.050005 0.02143,-0.085723 0.05715,-0.1214407 l -0.02143,-0.1142971 c -0.10001,0.1071536 -0.228594,0.1643021 -0.371465,0.1643021 -0.150015,0.00714 -0.292887,0.021431 -0.428614,0.050005 l 0.01429,0.057149 c 0.05001,0.057148 0.10001,0.1000099 0.150015,0.1357278 0.05,0.035718 0.09287,0.057149 0.157158,0.064292 l 0.192877,0.1142971 c 0.05715,0.021431 0.12144,0.035718 0.20002,0.028574 0.07858,-0.00714 0.142871,0.00714 0.214307,0.035718 z m 1.385852,-0.6286342 h 0.02143 l -0.0071,-0.021431 h -0.02857 c -0.0071,-0.057149 -0.02857,-0.1142971 -0.05715,-0.1714457 -0.03572,-0.050005 -0.06429,-0.1071535 -0.09287,-0.1571585 h -0.03572 l -0.0071,-0.021431 -0.407184,-0.050005 -0.257168,0.071436 0.01429,0.050005 0.150015,0.042861 -0.04286,0.2214507 v 0.035718 c 0.06429,-0.014287 0.135728,-0.028574 0.20002,-0.042861 0.06429,-0.014287 0.128585,-0.035718 0.185733,-0.071436 0.05001,0.035718 0.107154,0.042861 0.178589,0.042861 0.07144,0 0.135728,0.021431 0.185733,0.071436 z m -5.036217,0.1428714 c 0.09287,-0.021431 0.192877,-0.057148 0.285743,-0.1071535 0.09287,-0.042861 0.20002,-0.078579 0.30003,-0.1071536 0.07858,-0.035718 0.150015,-0.078579 0.221451,-0.1285842 0.05715,-0.050005 0.114297,-0.1071536 0.150015,-0.1785893 l -0.0071,-0.035718 -0.06429,-0.014287 -0.09287,0.014287 -0.06429,-0.00714 h -0.171446 c -0.05001,0.078579 -0.114297,0.1428714 -0.192876,0.1785892 -0.07858,0.035718 -0.150015,0.078579 -0.221451,0.1285843 l -0.107154,-0.014287 -0.05,-0.092866 -0.01429,0.021431 0.0071,0.1571585 0.03572,-0.00714 v 0.064292 l -0.04286,0.00714 v -0.014287 h -0.01429 l 0.03572,0.1214407 z m 3.286043,-0.3857528 h 0.03572 c 0.08572,-0.3428913 0.17859,-0.664352 0.271456,-0.978669 0.10001,-0.3071736 0.20002,-0.6214906 0.285743,-0.9358077 L 40.74489,1.329171 V 1.279166 l -0.07144,-0.071436 -0.185732,-0.1214407 c -0.05,-0.028574 -0.107154,-0.042861 -0.164303,-0.057149 -0.06429,-0.00714 -0.114297,-0.028574 -0.150015,-0.0571485 h -0.05 v 0.0357178 l -0.114297,-0.00714 c -0.214307,0.00714 -0.414327,0.042861 -0.62149,0.092866 -0.20002,0.064292 -0.40004,0.1142971 -0.614347,0.1571585 l -0.04286,0.085723 c 0.107154,0.042861 0.221451,0.092866 0.335748,0.1428714 0.114297,0.050005 0.228594,0.092866 0.342891,0.1357278 l -0.12144,0.4786192 -0.335748,0.078579 v 0.028574 l 0.235738,0.071436 -0.242882,0.564342 h -0.03572 l -0.128585,0.1643021 v 0.035718 h 0.07858 v -0.035718 c 0.06429,-0.00714 0.128584,-0.035718 0.185732,-0.085723 0.05715,-0.050005 0.114297,-0.078579 0.164302,-0.1142971 l 0.09287,-0.1857328 h 0.05 l 0.157158,-0.1428714 h 0.03572 l 0.03572,0.3428913 0.02857,0.014287 0.185733,0.3214606 0.05715,0.050005 z M 36.565902,3.0864892 c 0.04286,-0.014287 0.07858,-0.042861 0.114297,-0.078579 0.03572,-0.035718 0.08572,-0.064292 0.142871,-0.071436 h 0.02857 l -0.01429,0.057149 v 0.014287 l 0.03572,0.014287 0.121441,-0.078579 0.01429,-0.057149 0.214307,-0.1000099 c 0.01429,-0.014287 0.03572,-0.021431 0.05715,-0.028574 0.02143,-0.00714 0.02857,-0.021431 0.02857,-0.057149 l 0.121441,-0.057148 0.114297,-0.1714457 0.08572,-0.050005 v -0.028574 c -0.07858,-0.014287 -0.142872,-0.021431 -0.214308,-0.028574 -0.07143,0 -0.142871,-0.00714 -0.20002,-0.028574 l -0.06429,0.085723 -0.471475,0.2714556 -0.05,0.00714 -0.01429,-0.092866 -0.114298,0.050005 h -0.02857 l 0.03572,0.1285843 v 0.035718 l -0.06429,0.014287 z m 3.200319,-0.3143171 -0.01429,0.021431 -0.150015,-0.3786092 v -0.035718 l 0.257168,0.092866 z m 0.157158,-0.4500449 -0.02143,0.021431 h -0.02143 l -0.05715,-0.1071535 -0.05715,-0.050005 -0.07858,-0.042861 c 0.0071,-0.078579 0.02857,-0.1428714 0.06429,-0.20002 0.02857,-0.064292 0.05,-0.1285843 0.05715,-0.2071635 l 0.06429,-0.064292 v -0.028574 h -0.01429 v -0.035718 l -0.05001,-0.014287 -0.01429,-0.050005 -0.05,-0.014287 -0.0071,-0.078579 0.271455,-0.150015 0.05,-0.00714 c 0.0071,0.1785893 -0.0071,0.3571785 -0.02857,0.5286242 -0.02857,0.1714457 -0.06429,0.3428914 -0.107154,0.5000499 z m -3.628933,0.035718 0.0071,-0.014287 0.03572,0.014287 c 0.09287,-0.014287 0.17859,-0.042861 0.257169,-0.085723 0.07144,-0.035718 0.150015,-0.071436 0.242881,-0.1071535 l 0.05001,-0.00714 -0.02857,0.10001 h -0.03572 l -0.02857,0.050005 0.0071,0.028574 0.271456,-0.2071635 0.03572,-0.050005 0.03572,-0.028574 0.02143,-0.050005 0.37861,-0.150015 0.01429,-0.050005 h 0.02857 c 0.0071,-0.00714 0.02857,-0.021431 0.05,-0.028574 0.02143,-0.00714 0.02857,-0.028574 0.02143,-0.064292 l 0.07858,-0.035718 v -0.071436 h 0.03572 l 0.04286,-0.064292 -0.0071,-0.021431 -0.271456,-0.035718 v -0.014287 l -0.09287,-0.028574 h -0.05 v 0.014287 l -0.09287,0.00714 v 0.014287 h -0.03572 l -0.0071,0.085723 c -0.214307,0.085723 -0.414327,0.1857328 -0.614347,0.3071735 -0.20002,0.1214407 -0.407184,0.2071636 -0.635778,0.2571685 v 0.050005 h -0.03572 l -0.02857,0.028574 0.0071,0.035718 z m 0.814367,-0.9929563 0.178589,-0.1643021 0.04286,-0.064292 0.135727,0.00714 h 0.08572 l 0.07144,-0.1142972 0.07144,-0.0857228 -0.07858,-0.10715355 C 37.487422,0.75768539 37.358838,0.70053683 37.22311,0.65767541 37.094526,0.61481399 36.958798,0.564809 36.837357,0.51480401 l -0.05,0.007144 0.05,0.0571486 h 0.01429 l -0.01429,0.050005 v 0.0285743 l 0.378609,0.35717849 -0.09287,0.3071735 -0.04286,0.028574 v 0.00714 z"
         id="path491" />
    </g>
  </g>
</svg>
