<?xml version="1.0" encoding="UTF-8" standalone="no"?>
<!-- Created with Inkscape (http://www.inkscape.org/) -->

<svg
   width="35.000999mm"
   height="7mm"
   viewBox="0 0 35.000998 7"
   version="1.1"
   id="svg5"
   inkscape:version="1.2.2 (b0a8486, 2022-12-01)"
   sodipodi:docname="reportForm.svg"
   xmlns:inkscape="http://www.inkscape.org/namespaces/inkscape"
   xmlns:sodipodi="http://sodipodi.sourceforge.net/DTD/sodipodi-0.dtd"
   xmlns="http://www.w3.org/2000/svg"
   xmlns:svg="http://www.w3.org/2000/svg">
  <sodipodi:namedview
     id="namedview7"
     pagecolor="#ffffff"
     bordercolor="#000000"
     borderopacity="0.25"
     inkscape:showpageshadow="2"
     inkscape:pageopacity="0.0"
     inkscape:pagecheckerboard="0"
     inkscape:deskcolor="#d1d1d1"
     inkscape:document-units="mm"
     showgrid="false"
     inkscape:zoom="4.7488465"
     inkscape:cx="61.278039"
     inkscape:cy="17.162062"
     inkscape:window-width="1440"
     inkscape:window-height="771"
     inkscape:window-x="1080"
     inkscape:window-y="1616"
     inkscape:window-maximized="0"
     inkscape:current-layer="layer1" />
  <defs
     id="defs2">
    <rect
       x="-1.8951972"
       y="4.0009718"
       width="213.31496"
       height="77.703079"
       id="rect268" />
  </defs>
  <g
     inkscape:label="Layer 1"
     inkscape:groupmode="layer"
     id="layer1">
    <path
       style="color:#000000;fill:#000000;fill-rule:evenodd;-inkscape-stroke:none"
       d="m 4.4179687,7.6269531 v 0.21875 z"
       id="path208" />
    <text
       xml:space="preserve"
       style="font-size:8.85995px;font-family:KouzanBrushFontGyousyoOTF;-inkscape-font-specification:KouzanBrushFontGyousyoOTF;fill:#000000;stroke-width:0.166124"
       x="-1.3619121"
       y="8.4681635"
       id="text214"
       transform="scale(0.67763293,1.4757252)"><tspan
         sodipodi:role="line"
         id="tspan212"
         style="stroke-width:0.166124"
         x="-1.3619121"
         y="8.4681635" /></text>
    <text
       xml:space="preserve"
       transform="scale(0.26458333)"
       id="text266"
       style="font-size:53.3333px;font-family:KouzanBrushFontGyousyoOTF;-inkscape-font-specification:KouzanBrushFontGyousyoOTF;white-space:pre;shape-inside:url(#rect268);display:inline;fill:#000000" />
    <g
       aria-label="通報フォーム"
       transform="scale(0.84360462,1.1853894)"
       id="text353"
       style="font-size:7.23879px;font-family:KouzanBrushFontGyousyoOTF;-inkscape-font-specification:KouzanBrushFontGyousyoOTF;fill:#1a1a1a;stroke-width:0.417623">
      <path
         d="m 5.3273288,5.6571941 0.028955,-0.00724 0.014478,0.00724 0.1664922,-0.00724 h 0.086866 c 0.1447758,-0.00724 0.275074,-0.028955 0.412611,-0.065149 0.137537,-0.036194 0.2605965,-0.079627 0.3981335,-0.1302983 v -0.028955 h 0.05791 l 0.00724,-0.05791 0.079627,-0.036194 -0.1158207,0.021716 C 5.6530744,5.3169709 4.8495687,5.2011503 4.0533018,5.0201805 3.2425573,4.8392108 2.4535292,4.6437635 1.6789786,4.4555549 l 0.036194,-0.1085818 h 0.028955 c 0.014478,-0.043433 0.036194,-0.072388 0.05791,-0.1085819 0.021716,-0.036194 0.036194,-0.079627 0.036194,-0.1302982 h 0.028955 C 1.8599484,4.0574215 1.8599484,4.0067499 1.8527096,3.9633172 1.8454708,3.9198845 1.8309932,3.8764517 1.7947993,3.833019 L 1.7586053,3.8113026 1.5993519,3.5362286 1.5052477,3.4493631 C 1.4400986,3.3986916 1.3749494,3.3407813 1.3315167,3.2683934 1.2736064,3.2032442 1.2446512,3.1163788 1.2374124,3.0295133 l 0.072388,-0.3764171 0.1158207,-0.086865 0.028955,-0.050671 0.1013431,-0.036194 0.021716,-0.021716 0.2026861,-0.036194 -0.050671,-0.028955 V 2.3563058 L 1.700695,2.3418282 v -0.028955 h 0.043433 L 1.700695,2.2983955 1.6500235,2.1825748 C 1.563158,2.1463809 1.4618149,2.1174257 1.3532331,2.0957094 1.25189,2.073993 1.1577857,2.037799 1.0636815,2.0016051 h -0.0651491 l -0.16649217,0.050671 0.0144776,0.05791 -0.007239,0.1013431 -0.56462562,0.4198498 -0.0941043,-0.014478 v -0.028955 h -0.036194 L 0.32532489,2.797872 c 0.0579103,0.021716 0.12305943,0.028955 0.20268612,0.021716 0.0796267,0 0.15201459,0 0.2171637,0 0.007239,0.1230594 0.0434327,0.2316413 0.10134306,0.3185067 0.0579103,0.1013431 0.13029822,0.1954474 0.21716373,0.2678353 l 0.050671,0.036194 0.2823128,0.3764171 c 0.00724,0.094104 -0.00724,0.173731 -0.043433,0.2388801 -0.028955,0.072388 -0.079627,0.137537 -0.1447758,0.2026861 L 0.98405478,4.4338385 0.92614446,4.419361 c -0.0506715,-0.00724 -0.10134306,-0.00724 -0.13753701,0 -0.0434327,0.014477 -0.0723879,0.036194 -0.10858185,0.072388 0.007239,0.094104 0.0434327,0.1737309 0.0868655,0.2461188 0.0506715,0.079627 0.11582064,0.1520146 0.18820854,0.2171637 0.11582068,0 0.23164128,-0.014478 0.34746188,-0.036194 0.1013431,-0.021716 0.2171637,-0.036194 0.3257456,-0.065149 0.6152972,0.094104 1.2305943,0.2316412 1.8386527,0.4053722 0.6080583,0.1809698 1.2305943,0.311268 1.860369,0.3981335 z m -0.6804463,-0.9772367 0.1375371,-0.028955 0.028955,-0.05791 h 0.043433 v 0.00724 l 0.043433,-0.00724 v -0.021716 h 0.036194 L 4.9002402,4.4555549 4.9798669,3.5507062 4.9653893,3.1019012 4.9798669,2.6096635 4.9653893,2.5445143 5.008822,2.4721264 c 0.021716,-0.101343 0.043433,-0.2099249 0.05791,-0.3112679 0.014477,-0.1085819 0.028955,-0.2171637 0.043433,-0.311268 l 0.094104,-0.1230594 0.101343,0.014478 H 5.356284 L 5.3345676,1.6686208 C 5.182553,1.5745165 5.0160608,1.523845 4.8423299,1.487651 4.6685989,1.4586958 4.5021067,1.4080243 4.3573309,1.3283976 L 4.2415103,1.4297407 C 4.1401672,1.4080243 4.0533018,1.3790692 3.9664363,1.3428752 3.872332,1.3066813 3.7782277,1.2777261 3.6768847,1.2560097 l 0.050671,-0.072388 0.028955,-0.065149 0.072388,-0.021716 V 1.0678012 L 3.9881526,0.94474175 v -0.0289552 h 0.028955 L 4.0894957,0.8361599 C 4.2053164,0.72757805 4.3356146,0.66242894 4.4803904,0.64071257 4.632405,0.6189962 4.7627032,0.56832467 4.8930014,0.48869798 l 0.028955,-0.0434327 v -0.036194 C 4.7554644,0.35839976 4.6034498,0.30048944 4.4369576,0.23534033 4.2777043,0.17743001 4.1112121,0.12675848 3.9447199,0.09056453 h -0.043433 v 0.07962669 l -0.1085819,0.0434327 -0.014478,0.0723879 C 3.561064,0.35116097 3.3439003,0.42354887 3.1194978,0.50317556 2.8806178,0.59004104 2.6489765,0.64071257 2.4173352,0.66242894 l -0.275074,-0.10134306 -0.036194,0.007239 v 0.0289552 l -0.036194,0.0217164 v 0.0506715 l 0.3329843,0.34746197 0.137537,0.043433 v 0.028955 l 0.021716,0.014477 c 0.1085819,0 0.2244025,-0.014477 0.3257456,-0.043433 C 2.9964384,1.038846 3.0977815,0.98817449 3.184647,0.93026417 v -0.0361939 l 0.1085818,-0.0144776 0.00724,-0.0651491 h 0.036194 v -0.0144776 l -0.043433,-0.0289552 v -0.0651491 c 0.05791,-0.036194 0.1158206,-0.0723879 0.1664922,-0.10858185 0.05791,-0.0361939 0.1158206,-0.0579103 0.1809697,-0.0651491 h 0.021716 L 3.2353185,1.350114 3.0905427,1.3428752 H 2.9095729 L 3.2787512,1.625188 3.2570349,1.6758595 3.0543487,1.8423517 c 0,0.065149 0.014478,0.1302982 0.050672,0.1954473 0.036194,0.065149 0.05791,0.1230595 0.079627,0.173731 l 0.05791,0.036194 0.050671,-0.021716 0.1664922,0.021716 0.00724,0.1737309 C 3.3800943,2.4359325 3.28599,2.4576489 3.1918857,2.486604 3.1050203,2.522798 3.0181548,2.5662307 2.9385281,2.6169022 L 2.8878566,2.6024247 2.837185,2.4793652 C 2.7720359,2.4359325 2.7068868,2.3997385 2.6344989,2.3707834 2.5548722,2.349067 2.4897231,2.3273506 2.424574,2.3128731 H 2.3739025 L 2.5042007,2.5155592 C 2.4897231,2.7327229 2.4680067,2.935409 2.4390516,3.1236176 2.4100964,3.3263037 2.3594249,3.5145122 2.2942758,3.695482 c 0.00724,0.05791 0.014478,0.1085818 0.036194,0.1520146 0.014478,0.050671 0.036194,0.094104 0.065149,0.1302982 h 0.028955 l 0.1013431,0.1592534 0.036194,0.036194 v 0.050671 l 0.036194,-0.014478 h 0.137537 v 0.021716 h 0.05791 l 0.021716,-0.043433 0.137537,-0.00724 v 0.036194 l 0.065149,-0.014477 C 2.9964384,4.1442869 2.974722,4.0936154 2.9385281,4.0501827 2.9023341,4.0139887 2.8878566,3.970556 2.8878566,3.9054069 l 0.014477,-0.5646256 0.050672,0.014477 0.1809697,-0.036194 0.036194,0.014478 0.2678352,-0.050672 c 0.036194,0.043433 0.050671,0.1013431 0.043433,0.173731 -0.00724,0.079627 0,0.1447758 0.036194,0.2026861 l 0.043433,-0.00724 C 3.597258,3.5869001 3.6262131,3.521751 3.6406907,3.4566019 3.6551683,3.3914528 3.6696459,3.3335425 3.6768847,3.2539158 3.7854665,3.2032442 3.9012872,3.1598115 4.009869,3.1236176 4.1112121,3.0874236 4.2125551,3.0367521 4.3138982,2.9643642 c -0.00724,-0.043433 -0.036194,-0.065149 -0.079627,-0.065149 -0.050671,0.00724 -0.094104,0 -0.1302982,-0.00724 l -0.1447758,0.021716 -0.1447758,0.00724 0.050671,-0.2895516 c 0.065149,-0.00724 0.1230594,-0.028955 0.1882086,-0.050671 0.05791,-0.021716 0.1158206,-0.043433 0.1664921,-0.079627 V 2.4576489 L 3.9447199,2.3707834 C 3.9230035,2.3056343 3.9012872,2.247724 3.8940484,2.1898136 3.8868096,2.1391421 3.8650932,2.0884706 3.8288993,2.037799 L 3.872332,1.9726499 V 1.936456 h 0.050671 l 0.014478,-0.050671 0.094104,-0.00724 0.065149,0.028955 -0.014478,0.1085819 0.079627,0.1664921 0.036194,0.00724 c 0.1158206,0.1664922 0.1737309,0.3547007 0.1882085,0.5646257 0.00724,0.2026861 0.028955,0.412611 0.050671,0.6225359 l -0.014478,0.6152972 h -0.05791 l -0.028955,-0.036194 h -0.028955 c 0,-0.050671 -0.014478,-0.1013431 -0.036194,-0.1447758 -0.021716,-0.036194 -0.05791,-0.079627 -0.094104,-0.1158206 l -0.079627,-0.028955 -0.028955,-0.094104 h -0.036194 c 0.028955,0.1230595 0.050671,0.2533577 0.072388,0.3836559 0.021716,0.1230594 0.028955,0.2533577 0.028955,0.3836559 0.086866,0.05791 0.173731,0.1158206 0.2605965,0.1737309 0.086866,0.05791 0.173731,0.1085819 0.2533576,0.1664922 z M 3.4741986,3.0222745 3.3077064,3.072946 h -0.079627 v -0.036194 l 0.173731,-0.1085819 0.072388,0.014478 z M 3.0760651,2.9209314 2.9602445,2.9860805 H 2.9240505 V 2.761678 l 0.094104,0.028955 0.1882085,-0.072388 h 0.043433 z M 0.8248014,1.7410087 c 0.0651491,-0.00724 0.13753701,-0.036194 0.2026861,-0.072388 0.05791,-0.036194 0.1158207,-0.072388 0.1809698,-0.1013431 l 0.036194,-0.050671 0.1085819,-0.00724 0.079627,0.00724 h 0.014478 L 1.3604719,1.2849649 C 1.2591288,1.1836218 1.1360694,1.1039951 1.0202487,1.0460848 0.8971893,0.98817449 0.75965229,0.95921933 0.62935407,0.95198054 h -0.0796267 v 0.0289552 l 0.31126797,0.1592534 v 0.036194 l 0.12305943,0.1013431 c 0.007239,0.094104 -0.007239,0.173731 -0.0289552,0.2461189 -0.0289552,0.072388 -0.0723879,0.137537 -0.13029822,0.2026861 z"
         id="path436" />
      <path
         d="m 9.0987246,5.830925 c 0.036194,-0.00724 0.072388,-0.014478 0.101343,-0.014478 0.036194,0 0.065149,-0.014478 0.086866,-0.028955 L 9.2073064,5.5848062 c -0.014477,-0.2895516 0,-0.5646257 0.043433,-0.8252221 0.036194,-0.2533577 0.101343,-0.4994765 0.1882085,-0.7528342 -0.00724,-0.036194 -0.00724,-0.079627 -0.00724,-0.1230594 0,-0.036194 -0.014478,-0.079627 -0.043433,-0.1158206 l 0.043433,-0.079627 c 0.086866,-0.065149 0.1809698,-0.1158207 0.275074,-0.1592534 0.086866,-0.036194 0.1882086,-0.094104 0.2823129,-0.1664922 l -0.014478,-0.036194 -0.3691783,0.00724 -0.014478,0.036194 -0.05791,0.014478 v 0.036194 l -0.094104,0.072388 c -0.028955,0 -0.050671,0 -0.065149,-0.00724 -0.021716,-0.00724 -0.036194,-0.021716 -0.043433,-0.043433 L 9.1493961,3.384214 9.3665598,3.1670503 9.359321,3.1308563 C 9.4389477,3.1019012 9.5113356,3.0584684 9.5837235,2.9860805 9.6488726,2.9136926 9.7284993,2.8702599 9.8153648,2.8630211 l 0.021716,-0.036194 -0.021716,-0.086866 -0.2244025,-0.072388 h -0.072388 l -0.021716,0.05791 -0.094104,0.00724 -0.014478,0.050671 -0.4343274,0.2244025 H 8.9249936 C 9.0046203,2.8992151 9.0987246,2.8123496 9.2000676,2.7472005 9.3014107,2.6820514 9.4027538,2.6169022 9.496858,2.5517531 v -0.043433 l 0.094104,-0.028955 C 9.6488726,2.4431713 9.6995442,2.3924998 9.7429769,2.3273506 9.7864096,2.2622015 9.8153648,2.2042912 9.84432,2.1463809 l 0.050671,-0.050671 C 9.8805139,2.0522766 9.8515587,2.0305603 9.8008872,2.0233215 9.7574545,2.0160827 9.7067829,2.0088439 9.670589,1.9943663 L 9.2652168,2.0957094 v 0.028955 h -0.028955 v 0.028955 l 0.173731,0.014478 -0.05791,0.1520146 H 9.3158883 L 9.1059634,2.660335 h -0.028955 v 0.036194 H 9.0408143 L 8.910516,2.8919763 H 8.8598445 L 8.7367851,3.0367521 c -0.05791,0.021716 -0.1085819,0.050671 -0.1520146,0.086866 -0.043433,0.036194 -0.1013431,0.05791 -0.1664922,0.05791 l -0.021716,0.036194 c 0,0.050672 0.021716,0.086866 0.05791,0.1230595 0.036194,0.036194 0.043433,0.072388 0.036194,0.1158206 L 9.0480531,3.1525727 h 0.014477 l -0.043433,0.137537 -0.05791,-0.00724 h -0.028955 v 0.014478 l -0.036194,0.137537 -0.3981335,0.4198498 -0.1230594,0.036194 -0.086866,0.086866 0.1085819,0.275074 h 0.1230594 l 0.014478,-0.072388 0.137537,-0.05791 V 4.0863766 L 9.0480531,3.8909293 c 0.043433,0 0.05791,0.021716 0.050671,0.05791 -0.00724,0.043433 0,0.072388 0.021716,0.094104 0,0.2533576 -0.014478,0.5067153 -0.043433,0.7528341 -0.028955,0.2461189 -0.086866,0.484999 -0.1737309,0.7021627 0,0.072388 0.021716,0.137537 0.065149,0.1882085 0.043433,0.050672 0.086865,0.1013431 0.1302982,0.1447758 z m 4.5387214,-0.7021626 -0.01448,-0.021716 0.04343,-0.028955 0.05067,-0.00724 v 0.014477 l 0.02172,0.014478 h 0.05791 v -0.014478 l -0.07239,-0.065149 -0.04343,-0.021716 V 4.969509 L 13.557819,4.8536884 13.398566,4.7523453 V 4.7089126 L 13.326178,4.6437635 13.080059,4.4845101 V 4.4410773 C 12.949761,4.3469731 12.819463,4.2601076 12.696403,4.1587645 12.566105,4.0646603 12.443046,3.9850336 12.312747,3.9054069 v -0.028955 l -0.05791,-0.021716 c -0.05067,-0.094104 -0.108582,-0.1809697 -0.173731,-0.275074 -0.06515,-0.094104 -0.115821,-0.1809697 -0.159253,-0.2678352 0.03619,-0.094104 0.07239,-0.1809698 0.11582,-0.2678352 0.04343,-0.086866 0.07963,-0.173731 0.101343,-0.2605965 l 0.03619,-0.014478 c 0.05791,-0.137537 0.101343,-0.2895516 0.137537,-0.4560437 0.03619,-0.1592534 0.06515,-0.3185068 0.09411,-0.4705214 L 12.370658,1.7337699 12.102822,1.661382 c -0.07239,0 -0.137537,0.014478 -0.188208,0.043433 -0.04343,0.036194 -0.101343,0.065149 -0.159253,0.086866 h -0.03619 l 0.01448,-0.050671 0.07239,-0.043433 v -0.050671 h 0.03619 l 0.188209,-0.2099249 c 0.02172,-0.036194 0.05067,-0.065149 0.08686,-0.086866 0.03619,-0.021716 0.07239,-0.028955 0.108582,-0.028955 l 0.260596,-0.42708858 0.04343,-0.0144776 0.05791,-0.0868655 h 0.02896 l 0.0941,-0.0868655 0.02895,-0.0434327 0.07963,-0.0506715 -0.01448,-0.13029822 c -0.07239,-0.0579103 -0.152015,-0.0941043 -0.231641,-0.10858185 -0.07239,0 -0.152015,-0.0217164 -0.224403,-0.0579103 h -0.04343 l -0.02896,0.0579103 -0.180969,0.0144776 -0.01448,0.0289552 c -0.166492,0.0579103 -0.325745,0.12305943 -0.47776,0.20268612 -0.166492,0.0723879 -0.318507,0.13029822 -0.484999,0.18096975 v 0.0651491 l 0.267835,0.15201464 h 0.02895 l -0.0072,-0.036194 0.550148,-0.23164128 0.0941,-0.007239 c -0.05791,0.18820854 -0.12306,0.36917827 -0.188209,0.55014807 -0.07239,0.1954473 -0.180969,0.3619395 -0.311268,0.5139541 l -0.361939,0.2823128 c -0.03619,0 -0.06515,0 -0.08687,0 -0.02895,0.00724 -0.05067,0.028955 -0.07239,0.065149 l 0.05067,0.2026861 0.07963,0.079627 0.05791,-0.072388 c 0.108582,-0.043433 0.224403,-0.1085819 0.332984,-0.1882085 0.101343,-0.079627 0.209925,-0.1520146 0.325746,-0.2171637 h 0.07239 c -0.01448,0.1882085 -0.03619,0.3691782 -0.05067,0.550148 -0.02172,0.1882085 -0.06515,0.3691783 -0.123059,0.550148 -0.130298,-0.137537 -0.260597,-0.2316412 -0.412611,-0.2895516 -0.144776,-0.065149 -0.311268,-0.079627 -0.492238,-0.050671 0.02172,-0.1664922 0.04343,-0.3257455 0.06515,-0.4922377 0.01448,-0.1592534 0.02172,-0.3185068 0.02895,-0.4705214 0.0072,-0.1520146 -0.01448,-0.2895516 -0.06515,-0.4198498 C 10.843273,1.212577 10.785363,1.0822788 10.720214,0.96645812 L 10.553721,0.82892111 h -0.05791 l -0.04343,0.18820859 c 0.05067,0.23888 0.08687,0.4705213 0.12306,0.7021626 0.03619,0.2316413 0.05067,0.4705213 0.05791,0.7166402 -0.0072,0.3329843 -0.03619,0.6514911 -0.07239,0.9772367 -0.04343,0.3257455 -0.101343,0.6442523 -0.166492,0.9555202 L 10.285886,4.520704 c -0.0072,0.086866 0.0072,0.1592534 0.05791,0.2171637 0.04343,0.065149 0.07963,0.1302982 0.130299,0.1954474 l 0.130298,-0.014478 0.02172,0.014478 c 0.02172,0 0.04343,0 0.06515,-0.00724 0.0072,-0.00724 0.02172,-0.021716 0.03619,-0.036194 l -0.03619,-0.101343 c 0.0072,-0.3257456 0.01448,-0.6514911 0.03619,-0.9772367 0.02172,-0.3257455 0.06515,-0.6370135 0.115821,-0.9410427 0.06515,-0.00724 0.115821,-0.00724 0.159253,0.014478 0.05067,0.021716 0.09411,0.05791 0.137537,0.094104 0.07963,0.094104 0.152015,0.1954474 0.209925,0.3040292 0.05791,0.1013431 0.115821,0.2099249 0.166492,0.311268 l -0.01448,0.1013431 h -0.04343 l -0.267835,0.3257455 -0.01448,0.05791 -0.275074,0.1302983 0.01448,0.050672 0.209925,-0.028955 0.332984,-0.3040292 v -0.036194 h 0.04343 l 0.06515,-0.1158206 h 0.06515 l 0.05067,0.072388 c 0.289551,0.2678352 0.600819,0.4922377 0.919326,0.687685 0.318507,0.1882085 0.651491,0.3619395 0.984475,0.5211929 V 5.107046 Z M 8.8381281,3.833019 8.7005911,3.8981681 H 8.6499196 L 8.9322324,3.557945 V 3.521751 h 0.065149 l 0.050672,0.079627 V 3.7027208 Z M 8.4255171,2.8051108 8.635442,2.7761556 c 0.00724,-0.065149 0.00724,-0.1230594 0.014478,-0.1882085 0.00724,-0.065149 0.036194,-0.1085819 0.1013431,-0.137537 v -0.014478 l -0.05791,0.05791 -0.065149,0.028955 -0.2967904,-0.173731 0.014478,-0.050671 C 8.5196214,2.21153 8.6933523,2.1391421 8.8743221,2.0595154 9.0480531,1.9871275 9.2290228,1.936456 9.4317089,1.900262 c 0.043433,-0.00724 0.086866,-0.00724 0.137537,-0.00724 0.050672,0 0.1085819,0.014478 0.1592534,0.036194 0.043433,-0.021716 0.086866,-0.043433 0.137537,-0.050671 0.050672,0 0.094104,-0.00724 0.1447757,-0.021716 L 9.9746182,1.7337699 C 9.9022303,1.6975759 9.8226036,1.6686208 9.7429769,1.661382 9.6561114,1.6541432 9.5764847,1.6396656 9.5040968,1.6034716 L 9.4244701,1.625188 V 1.661382 L 9.3014107,1.7337699 C 9.0335755,1.8423517 8.7657402,1.9509336 8.4906662,2.0667542 8.2155922,2.1825748 7.9332794,2.2694403 7.6509666,2.349067 L 7.4338029,2.3273506 7.3541762,2.349067 v 0.050672 l -0.1013431,0.028955 v 0.050671 h -0.021716 c 0.05791,0.021716 0.1230594,0.043433 0.1954473,0.050672 0.079627,0.014477 0.1447758,0.043433 0.2026861,0.094104 0.1158206,-0.00724 0.2244025,-0.036194 0.3257456,-0.086865 0.086865,-0.050672 0.1809697,-0.1013431 0.275074,-0.1520146 h 0.036194 l -0.014477,0.072388 c -0.021716,0.072388 -0.014478,0.1447758 0.036194,0.1954473 0.043433,0.050672 0.086866,0.1085818 0.137537,0.1520146 z m 0.3764171,-0.998953 h 0.036194 L 8.8526057,1.7772026 9.0770082,1.661382 9.1928289,1.3718304 9.7140217,1.2270546 V 1.212577 H 9.670589 v -0.079627 l 0.1230594,-0.014478 0.00724,-0.050672 0.05791,-0.00724 -0.043433,-0.12305944 -0.1664922,-0.0434327 c -0.072388,0 -0.137537,0.007239 -0.1954473,0.0144776 -0.065149,0.007239 -0.1230594,0.036194 -0.1664922,0.0796267 h -0.05791 L 9.3810374,0.4018325 9.3303659,0.19190759 8.9249936,0.07608695 h -0.036194 v 0.02171637 l -0.079627,0.02171637 0.00724,0.0796267 0.050671,0.0289552 0.028955,0.16649217 -0.036194,0.75283419 C 8.7440239,1.212577 8.6209644,1.2632485 8.497905,1.2994425 c -0.1302982,0.043433 -0.2533576,0.065149 -0.3908946,0.05791 0.050671,0.079627 0.1158206,0.137537 0.1954473,0.1882085 0.086866,0.043433 0.1737309,0.086866 0.2605964,0.1302982 l 0.050672,-0.00724 v -0.036194 l 0.094104,-0.05791 h 0.043433 l -0.014478,0.094104 h -0.043433 l 0.014478,0.086865 z"
         id="path438" />
      <path
         d="m 17.321976,4.6654798 0.12306,-0.043433 0.202686,-0.2316413 0.159253,-0.079627 h 0.152015 v 0.050671 C 18.335407,3.970556 18.653914,3.5289898 18.900032,3.0584684 19.146151,2.5807083 19.39227,2.1101869 19.638389,1.6469044 l 0.144776,0.028955 0.08686,-0.028955 0.05067,-0.094104 h 0.08687 L 19.978612,1.4369795 19.841075,1.31392 C 19.710777,1.2560097 19.558762,1.2198158 19.406748,1.1980994 19.247494,1.1836218 19.117196,1.1184727 18.994137,1.0026521 h -0.02895 V 1.07504 l -0.173731,-0.021716 -0.282313,0.1230594 -0.02895,-0.028955 c -0.405373,0 -0.796267,0.014478 -1.179923,0.036194 -0.390895,0.028955 -0.767312,0.079627 -1.129251,0.1520146 -0.07239,0 -0.152015,0 -0.231642,0 -0.07963,0 -0.152014,-0.014478 -0.224402,-0.050671 h -0.101343 v 0.101343 h -0.07963 l 0.02172,0.1013431 0.130299,0.043433 c 0.0941,0.036194 0.159253,0.072388 0.209925,0.1375371 0.05067,0.065149 0.101343,0.137537 0.159253,0.2026861 0.376417,-0.1158207 0.752834,-0.2171637 1.143729,-0.2967904 0.390894,-0.072388 0.781789,-0.1230594 1.201639,-0.137537 h 0.07963 l 0.02895,0.072388 c -0.108582,0.5573868 -0.253358,1.1002961 -0.41985,1.6359665 -0.173731,0.5429093 -0.434327,1.0496246 -0.767312,1.5201459 z"
         id="path440" />
      <path
         d="m 25.422168,5.7440595 0.05791,-0.065149 -0.02172,-0.1737309 0.02172,-0.3329844 -0.02172,-0.1882085 0.02172,-0.6732075 -0.02172,-0.1954473 0.02172,-0.2099249 -0.02172,-0.1085819 0.02172,-0.072388 -0.02172,-0.2678352 c 0,-0.072388 0,-0.1447758 -0.0072,-0.2316413 -0.0072,-0.079627 0.0072,-0.1447758 0.03619,-0.2099249 l 1.078579,-0.137537 v -0.036194 h 0.04343 v -0.072388 h -0.04343 l -0.02172,-0.072388 c -0.108582,-0.036194 -0.209925,-0.05791 -0.318507,-0.072388 -0.108582,-0.00724 -0.209925,-0.036194 -0.311268,-0.086865 l -0.108582,0.021716 -0.02172,0.072388 -0.217164,0.086866 h -0.08686 l 0.0072,-0.05791 -0.0072,-0.2967904 0.0072,-0.1664922 -0.0072,-0.1520146 -0.318507,-0.1158206 -0.115821,-0.1230594 0.02172,0.094104 v 0.028955 h -0.05067 c 0.02172,0.086866 0.04343,0.173731 0.06515,0.2605964 0.02172,0.094104 0.03619,0.1882086 0.05067,0.2823128 l -0.02172,0.311268 -0.651492,0.1664922 -0.224402,-0.043433 c -0.05067,-0.014477 -0.0941,0 -0.130298,0.036194 -0.03619,0.036194 -0.07963,0.05791 -0.130299,0.05791 l -0.0072,0.036194 -0.296791,0.086866 c 0.04343,0.00724 0.08687,0.028955 0.137537,0.050671 0.04343,0.021716 0.08687,0.036194 0.137537,0.036194 l 0.06515,0.094104 0.05791,0.021716 0.04343,0.065149 0.803505,-0.2533577 h 0.108582 c -0.07963,0.2967904 -0.217164,0.5718644 -0.41985,0.8396997 -0.195447,0.2605964 -0.361939,0.5211929 -0.513954,0.7962669 h -0.04343 L 23.873066,4.9839866 24.09023,4.8826435 24.539035,4.2890627 h 0.03619 l 0.18097,-0.1954473 0.03619,-0.065149 c 0.03619,-0.036194 0.07239,-0.072388 0.0941,-0.1085818 0.02895,-0.036194 0.07239,-0.05791 0.130298,-0.072388 l 0.115821,-0.1954474 h 0.04343 l 0.08686,1.0858185 c -0.0072,0.094104 -0.0072,0.1954474 0.0072,0.3040292 0.0072,0.1085819 -0.01448,0.1954473 -0.07963,0.2605965 0.01448,0.086865 0.04343,0.1664921 0.0941,0.2244024 0.04343,0.065149 0.08687,0.1375371 0.137538,0.2171637 z"
         id="path442" />
      <path
         d="m 30.626845,3.1163788 c 0.470521,-0.086866 0.941042,-0.1664922 1.418803,-0.2244025 0.470521,-0.05791 0.948281,-0.1085819 1.43328,-0.137537 0.23888,0 0.47776,0.00724 0.71664,0.014477 0.231641,0.00724 0.434328,0.072388 0.629775,0.2099249 l 0.07963,-0.028955 0.108581,-0.275074 0.137537,-0.028955 -0.02172,-0.086866 c -0.0941,-0.05791 -0.188208,-0.101343 -0.282313,-0.137537 -0.08687,-0.036194 -0.195447,-0.065149 -0.311268,-0.086866 -0.571864,0.05791 -1.158206,0.1085819 -1.751787,0.1520146 -0.600819,0.050672 -1.187161,0.1013431 -1.766265,0.1592534 C 30.800576,2.6675738 30.59789,2.6169022 30.41692,2.5010816 30.243189,2.3924998 30.047741,2.3273506 29.845055,2.3056343 l 0.499477,0.586342 z"
         id="path444" />
      <path
         d="M 37.822189,5.1866727 C 38.2348,4.8826435 38.683605,4.6510022 39.154126,4.4917489 39.624648,4.3252567 40.080692,4.1442869 40.529497,3.9416008 l 0.06515,-0.1520146 -0.02172,-0.137537 v -0.137537 l 0.07239,0.028955 c 0.0941,0.1085818 0.152015,0.23888 0.173731,0.4053722 0.02172,0.1592534 0.06515,0.3040292 0.144776,0.412611 0.05067,0.079627 0.101343,0.1375371 0.166492,0.173731 0.05791,0.036194 0.115821,0.05791 0.18097,0.079627 l 0.159253,-0.021716 0.02172,-0.086866 h 0.02896 V 4.2239136 l -0.05067,-0.028955 C 41.4633,4.0212275 41.419868,3.8619741 41.34748,3.695482 41.275092,3.5362286 41.195465,3.384214 41.1086,3.2539158 40.913152,3.0512297 40.724944,2.8774987 40.529497,2.7472005 40.32681,2.6096635 40.124124,2.4938428 39.906961,2.3997385 h -0.05067 l 0.137537,0.2823129 0.23888,0.2316412 0.340223,0.5067153 v 0.065149 C 40.174796,3.557945 39.776662,3.659288 39.400245,3.7751087 39.031067,3.9054069 38.647411,4.0284663 38.256516,4.1587645 h -0.04343 c 0.173731,-0.448805 0.361939,-0.8903711 0.579103,-1.3319373 0.224402,-0.4343274 0.347462,-0.9120876 0.398133,-1.4188029 0,-0.079627 -0.01448,-0.1520146 -0.03619,-0.2316413 -0.02172,-0.079627 -0.05791,-0.1447758 -0.101343,-0.20268609 L 38.83562,0.92302538 38.727038,0.66242894 h -0.02172 l -0.05067,0.23164128 -0.0941,0.0289552 0.02172,0.28955162 c -0.05067,0.3547007 -0.08687,0.7094014 -0.115821,1.0858185 -0.02172,0.3764171 -0.101343,0.723879 -0.231641,1.0423858 v 0.050671 h 0.05067 v 0.028955 h 0.07239 v 0.1230595 h -0.05067 v -0.050672 l -0.123059,0.3691783 h -0.08687 l 0.04343,-0.2316412 h 0.02172 v -0.028955 h -0.02172 v -0.05791 h 0.04343 v -0.028955 l -0.04343,-0.021716 h -0.02895 l -0.224403,0.5646257 c -0.05067,0.094104 -0.101343,0.1520146 -0.166492,0.1737309 -0.07239,0.014478 -0.152015,0.014478 -0.231641,0 l -0.01448,0.3329844 h -0.02172 z"
         id="path446" />
    </g>
  </g>
</svg>
