<?xml version="1.0" encoding="UTF-8" standalone="no"?>
<!-- Created with Inkscape (http://www.inkscape.org/) -->

<svg
   width="170"
   height="80"
   viewBox="0 0 44.979167 21.166666"
   version="1.1"
   id="svg5"
   inkscape:version="1.2.2 (b0a8486, 2022-12-01)"
   sodipodi:docname="Tabekiro-uo-mini-logo.svg"
   inkscape:export-filename="描画.svg"
   inkscape:export-xdpi="96"
   inkscape:export-ydpi="96"
   xmlns:inkscape="http://www.inkscape.org/namespaces/inkscape"
   xmlns:sodipodi="http://sodipodi.sourceforge.net/DTD/sodipodi-0.dtd"
   xmlns="http://www.w3.org/2000/svg"
   xmlns:svg="http://www.w3.org/2000/svg">
  <sodipodi:namedview
     id="namedview7"
     pagecolor="#ffffff"
     bordercolor="#000000"
     borderopacity="0.25"
     inkscape:showpageshadow="2"
     inkscape:pageopacity="0.0"
     inkscape:pagecheckerboard="0"
     inkscape:deskcolor="#d1d1d1"
     inkscape:document-units="mm"
     showgrid="false"
     inkscape:lockguides="false"
     showguides="false"
     inkscape:zoom="3.0731389"
     inkscape:cx="105.75506"
     inkscape:cy="64.591939"
     inkscape:window-width="1440"
     inkscape:window-height="771"
     inkscape:window-x="1123"
     inkscape:window-y="1616"
     inkscape:window-maximized="0"
     inkscape:current-layer="text591" />
  <defs
     id="defs2" />
  <g
     inkscape:label="Layer 1"
     inkscape:groupmode="layer"
     id="layer1">
    <g
       id="g212">
      <g
         aria-label="魚"
         transform="matrix(0.34397581,0.07836957,-0.07579524,0.35002661,-2.3363243,2.3164334)"
         id="text591"
         style="font-size:80.7101px;font-family:KouzanBrushFontGyousyoOTF;-inkscape-font-specification:KouzanBrushFontGyousyoOTF;stroke-width:0.420364">
        <path
           d="m 75.02818,26.94023 0.950777,-0.137967 0.0016,-0.264461 0.747211,-0.136737 0.0028,-0.462808 2.513459,-0.477967 c -0.134465,-0.197527 -0.33682,-0.394643 -0.539578,-0.525645 -0.270614,-0.130592 -0.405115,-0.328118 -0.403098,-0.658694 l -0.608276,-0.393005 0.412775,-0.928073 0.0012,-0.198346 -1.223407,0.337952 c -1.694359,-0.320334 -3.388316,-0.706782 -5.081465,-1.225462 -1.693553,-0.452564 -3.387509,-0.839013 -5.01361,-1.225871 l -0.271421,0.0016 0.735518,1.780607 1.822812,1.509589 -0.0012,0.198346 2.770765,1.83443 0.610696,-0.0037 0.132887,0.461988 z m 13.163876,-0.07949 -0.404711,-0.394233 0.07067,-0.463218 0.812243,0.325661 2.79052,-1.405221 0.0016,-0.264462 0.13571,-8.19e-4 -0.810227,-0.656237 0.0012,-0.198345 -0.54163,-0.195068 -0.132887,-0.461988 c -1.354253,-0.45461 -2.640675,-0.909632 -4.063612,-1.231605 -1.35509,-0.322382 -2.846285,-0.57783 -4.20258,-0.701865 l -1.76423,0.01065 0.200742,0.461579 1.080842,0.786828 -0.0016,0.264461 c 0.810631,0.590121 1.553811,1.114537 2.43391,1.439787 0.811435,0.45789 1.554613,0.982306 2.433106,1.572018 l 0.136919,-0.199166 0.947953,0.324841 z m 16.290444,-0.957834 -0.46934,-0.922746 0.004,-0.595038 0.60787,0.45912 c 0.40713,-0.0025 0.81386,0.0612 1.15192,0.257496 0.33807,0.196297 0.67614,0.392595 1.01461,0.522776 l 0.47619,-0.201214 0.002,-0.264461 -0.33928,0.002 -0.33564,-0.59299 0.002,-0.330576 c 0.47378,0.195478 0.8801,0.32525 1.28723,0.322791 0.47498,-0.0029 0.88171,0.06079 1.35629,0.124036 l 0.47499,-0.0029 0.47861,-0.597905 0.002,-0.330577 -1.76101,-0.51827 0.002,-0.330576 0.61069,-0.0037 8.1e-4,-0.13223 -0.13571,8.19e-4 0.004,-0.595038 c -0.81305,-0.19343 -1.48999,-0.453793 -2.23437,-0.779863 -0.7444,-0.32607 -1.55745,-0.519499 -2.30264,-0.713338 l 0.002,-0.264461 c -1.14991,-0.588073 -2.36888,-0.977389 -3.58906,-1.168361 -1.28844,-0.124445 -2.508216,-0.381531 -3.79504,-0.770439 l -0.474985,0.0029 1.410034,2.437663 0.27142,-0.0016 -0.0012,0.198345 1.01097,1.117815 0.339283,-0.002 0.809828,0.722351 1.21937,0.323201 1.00895,1.448392 -0.13289,-0.461988 0.002,-0.330577 1.4185,1.049242 z m 6.73378,-2.685176 c 0.95198,-0.336312 1.90397,-0.672625 2.78811,-1.008528 0.88413,-0.335904 1.83611,-0.672216 2.71944,-0.875889 0.61109,-0.0698 1.22098,0.05874 1.69355,0.452564 0.47256,0.393825 0.87768,0.721943 1.35145,0.917421 l 0.47499,-0.0029 0.003,-0.462808 0.60908,0.260774 0.33927,-0.002 0.002,-0.264461 0.33927,-0.002 0.002,-0.330578 1.76221,0.319925 1.15434,-0.139196 -0.33524,-0.659105 -0.47418,-0.129363 -0.13329,-0.395872 c -1.55381,-1.114537 -3.17709,-1.964203 -4.80158,-2.615522 -1.69275,-0.584795 -3.52201,-1.03654 -5.42074,-1.223414 l -0.81507,0.137148 -0.1349,-0.131411 -3.87136,0.618392 c 0.94916,0.126494 1.89832,0.252989 2.77923,0.446009 0.94916,0.126494 1.82966,0.385629 2.57406,0.711699 -0.20841,0.794613 -0.48426,1.52352 -0.96329,2.187541 -0.47942,0.730137 -1.02629,1.394568 -1.64061,1.993294 z M 85.355336,13.589181 c 1.765849,-0.275114 3.396788,-0.681639 4.96108,-1.286101 1.496438,-0.604052 3.128595,-1.208923 4.760339,-1.74768 l 0.609485,0.194659 2.311504,-0.7412 0.474581,0.06325 1.749315,2.435613 1.42778,-0.471411 0.74438,0.326069 0.74843,-0.335083 c 0.7593,-2.1201976 1.45156,-4.3722153 2.00771,-6.5572983 0.624,-2.1854935 1.38372,-4.3718062 2.27914,-6.5589382 l 0.27142,-0.00164 0.13853,-0.4636267 0.61271,-0.3342642 0.002,-0.2644605 0.47619,-0.2012141 c 0.20518,-0.2656904 0.3425,-0.5309712 0.48023,-0.8623672 0.0699,-0.3309863 0.20679,-0.5301519 0.27666,-0.8611382 l 0.67976,-0.2024433 0.2815,-1.6545219 0.54284,-0.00328 -0.46974,-0.8566312 c -0.13531,-0.065296 -0.26981,-0.2628224 -0.40431,-0.4603489 -0.20235,-0.1971168 -0.40592,-0.1958876 -0.7456,-0.1277237 l -0.33443,-0.7913352 c -0.87849,-0.5897114 -1.75778,-1.0471923 -2.70614,-1.3059174 -0.94836,-0.2587251 -1.89712,-0.4513349 -3.04985,-0.5766 l -4.618979,0.8212452 c -1.017825,0.00615 -1.966181,-0.2525793 -2.641504,-0.7774042 -0.811437,-0.457891 -1.691938,-0.717025 -2.506198,-0.712108 l 0.0028,-0.462809 0.680566,-0.334674 0.137322,-0.265281 c 1.086486,-0.138786 2.038471,-0.475099 2.855553,-0.942822 0.816679,-0.401609 1.768261,-0.671806 2.71864,-0.743658 l 0.13854,-0.463627 0.95077,-0.137967 0.002,-0.330577 1.01943,-0.270606 8.1e-4,-0.132231 0.61231,-0.268149 0.002,-0.330576 -0.67371,-0.789287 c -1.28682,-0.388907 -2.437138,-0.910865 -3.519591,-1.433232 -1.149905,-0.588072 -2.368874,-0.977389 -3.72557,-1.03531 l -0.611501,0.135918 -1.356293,-0.124036 -0.134105,-0.263642 c -1.284808,-0.719484 -2.502568,-1.307147 -3.788586,-1.828284 -1.218566,-0.455432 -2.572439,-0.97616 -3.858868,-1.431182 l -0.13571,8.19e-4 0.131274,0.726449 -0.0028,0.462807 c -1.370404,2.190001 -2.672956,4.379591 -3.975509,6.569181 -1.302955,2.255706 -2.808266,4.314296 -4.515932,6.175768 l 1.837327,-0.8705618 2.116813,-2.1945072 2.314733,-1.270122 0.274242,-0.464447 0.342098,-0.464856 0.339275,-0.002 0.002,-0.330577 0.27142,-0.0016 0.206388,-0.464036 c 1.088096,-0.403247 2.244461,-0.87302 3.468672,-1.343203 1.088099,-0.403247 2.312311,-0.87343 3.400812,-1.342793 l 0.609082,0.260775 c -1.234293,2.123065 -2.40073,4.24572 -3.431458,6.367557 -0.962873,2.1214268 -2.196762,4.1783769 -3.498514,6.2357367 l -0.002,0.3305766 0.544855,-0.3338544 0.480235,-0.8623673 0.476194,-0.201214 0.339275,-0.00205 0.732694,2.2434141 0.474178,0.1293626 -0.0028,0.4628072 0.27142,-0.00164 -0.002,0.3305766 0.472162,0.4599392 0.474178,0.1293626 0.611501,-0.1359182 c 0.339275,-0.00205 0.610694,-0.00369 0.882114,-0.00533 0.203565,-0.00123 0.338469,0.130182 0.472162,0.4599391 L 90.930629,0.59739069 C 89.637756,1.2002134 88.276625,1.8695612 86.984155,2.4062686 85.623419,3.0095011 84.330146,3.678439 82.968609,4.4139021 L 82.493624,4.4167721 81.62159,2.7692155 C 80.268925,2.0501396 78.982905,1.5290018 77.561579,0.94256809 76.208107,0.35572479 74.854636,-0.23111864 73.569423,-0.884487 l -0.474985,0.002868 3.509912,3.0199991 c 0.538404,0.7239907 1.008551,1.5145065 1.343391,2.2397264 0.335242,0.6591046 0.46571,1.5177842 0.460065,2.443399 l 0.742776,0.5905302 0.73834,1.3177995 2.161281,1.6397718 1.35831,-0.20654 0.0012,-0.1983466 1.08447,0.1917906 -0.002,0.330576 -0.477002,0.333445 0.194291,1.519424 z m 0.635704,-4.1028366 -0.136516,0.13305 -0.745607,-0.127724 C 84.840723,8.9643871 84.640788,8.3705783 84.50871,7.7763597 84.308371,7.2486661 84.040579,6.655267 83.568417,6.1953286 L 83.774805,5.7312919 C 84.795853,5.1962234 85.884363,4.7268605 87.107768,4.3889088 88.195866,3.9856612 89.35182,3.5820039 90.507773,3.1783467 l 0.40713,-0.00246 c 0.198726,0.7921547 0.05938,1.3880121 -0.485872,1.7879818 -0.613517,0.4664948 -1.024276,1.0639907 -1.299325,1.6606674 l -0.339275,0.00205 -2.593811,2.5279521 z m 5.567734,-0.6286355 -2.31231,0.8734295 -0.610695,0.0037 0.0028,-0.462808 0.747211,-0.1367373 0.0016,-0.264461 1.294082,-0.8011685 0.54284,-0.00328 0.471355,0.5921691 z M 96.584081,8.1662358 94.751997,8.1772984 95.375192,6.1240361 95.244321,5.3314715 95.863887,3.8732468 C 96.681775,3.2732921 97.567115,2.7390432 98.519504,2.336615 99.336183,1.9350064 100.22113,1.4668726 100.97197,0.73509699 l -0.47217,-0.4599392 0.002,-0.33057658 c -0.745192,-0.19383899 -1.489992,-0.45379325 -2.235187,-0.64763215 -0.745195,-0.19383899 -1.627309,-0.18851254 -2.51023,-0.0509554 l -0.471355,-0.59216986 0.0044,-0.7272686 0.477,-0.3334447 0.0016,-0.2644613 c 0.885341,-0.534249 1.770681,-1.0684981 2.657231,-1.8010931 0.818695,-0.7321852 1.703641,-1.200319 2.723481,-1.5370415 l 1.01782,-0.00615 c -0.0145,2.3801516 -0.16434,4.6950074 -0.51732,6.94497699 -0.35299,2.24996961 -0.84128,4.43464351 -1.39742,6.61972681 l -0.611505,0.1359181 -0.882123,0.00533 8.07e-4,-0.1322305 -2.032423,-0.516631 -0.874452,-1.2508646 -0.13571,8.195e-4 0.599,1.9136567 0.27142,-0.00164 z"
           id="path762"
           style="stroke-width:0.348844" />
      </g>
      <g
         aria-label="たべきろ"
         id="text640"
         style="font-size:14.1111px;font-family:KouzanBrushFontGyousyoOTF;-inkscape-font-specification:KouzanBrushFontGyousyoOTF;stroke-width:0.264583"
         transform="matrix(0.33897421,0,0,0.45617218,-1.6265761,-10.010485)">
        <path
           d="m 10.933987,53.494587 0.169333,-0.05645 c 0.112889,-0.127 0.169333,-0.282222 0.169333,-0.451555 0,-0.155222 0.01411,-0.296333 0.04233,-0.423333 l -0.04233,-0.239889 0.620889,-2.681109 h 0.112888 c 0.155223,-0.719666 0.352778,-1.439332 0.564444,-2.130776 0.197556,-0.705555 0.437445,-1.396999 0.677333,-2.088443 l 1.001888,-0.634999 0.05645,-0.155222 0.366888,-0.239889 v -0.04233 h -0.09878 v -0.197556 l -1.269999,-0.05644 c -0.05645,-0.225778 -0.09878,-0.451555 -0.141111,-0.691444 -0.04233,-0.225778 -0.09878,-0.451555 -0.169334,-0.663222 l -0.465666,-0.507999 h -0.05644 l 0.05644,0.112889 -0.112889,0.296333 -0.169333,0.282222 c 0,0.169333 0,0.338666 0,0.479777 0,0.169333 0.05645,0.324555 0.169333,0.451555 l -0.05644,1.28411 -0.578555,0.183445 -0.268111,-0.09878 c -0.155222,0 -0.324555,0.04233 -0.479777,0.127 -0.141111,0.08467 -0.324556,0.112889 -0.508,0.07055 l -0.05644,0.141111 -0.155223,0.05644 0.04233,0.395111 0.451555,0.324555 c 0.225778,0 0.451555,-0.01411 0.649111,-0.08467 0.183444,-0.05644 0.39511,-0.112889 0.606777,-0.183444 h 0.141111 c -0.197556,1.142999 -0.451555,2.257776 -0.719666,3.344331 -0.296333,1.086554 -0.578555,2.201331 -0.846666,3.287886 l 0.05644,0.592666 v -0.05644 h 0.112889 z m 0.338666,-1.016 -0.05644,0.05645 -0.05645,-0.05645 v -0.155222 h 0.112889 z m 6.505217,-0.691443 0.592667,-0.04233 0.09878,-0.197555 -0.05644,-0.197556 -0.888999,-0.197555 c -0.338667,-0.197555 -0.677333,-0.451555 -0.959555,-0.733777 -0.310444,-0.296333 -0.564444,-0.592666 -0.790222,-0.931333 h -0.05644 l -0.05645,0.310444 c 0.04233,0.169334 0.07056,0.352778 0.112889,0.522111 0.04233,0.169333 0.112889,0.338667 0.225778,0.493889 0.225777,0.253999 0.507999,0.479777 0.804333,0.663221 0.296333,0.169334 0.620888,0.282222 0.973665,0.310445 z m -2.300109,-4.444997 1.100666,-0.09878 0.620888,0.04233 1.001888,-0.09878 v -0.09878 h 0.268111 l 0.05645,-0.09878 v -0.09878 L 18.08832,46.749466 c -0.564444,0 -1.086555,0.02822 -1.594555,0.09878 -0.507999,0.07056 -1.015999,0.141111 -1.495776,0.239889 0,0.09878 0.05644,0.155222 0.183444,0.155222 0.127,0 0.225778,0.02822 0.296333,0.09878 z"
           id="path753" />
        <path
           d="m 33.031943,50.234923 v -0.239889 h 0.05644 v -0.127 h 0.197556 v -0.09878 l -0.155222,-0.141111 h -0.09878 v -0.09878 h -0.211666 v -0.141111 l -0.296334,-0.09878 v -0.127 l -0.423333,-0.197555 -0.04233,-0.141111 c -0.127,-0.09878 -0.254,-0.183445 -0.381,-0.296334 -0.126999,-0.112888 -0.253999,-0.183444 -0.437444,-0.225777 v -0.09878 H 31.1975 v -0.09878 l -0.564444,-0.310444 -0.451555,-0.197555 v -0.08467 h -0.112889 v -0.09878 c -0.395111,-0.352777 -0.846666,-0.620888 -1.298221,-0.832554 -0.451555,-0.211667 -0.917222,-0.366889 -1.41111,-0.493889 -0.296333,0.04233 -0.592666,0.08467 -0.846666,0.141111 -0.282222,0.07056 -0.550333,0.155222 -0.832555,0.282222 h -0.197556 v -0.04233 c -0.169333,0.02822 -0.338666,0.07055 -0.479777,0.141111 -0.155222,0.07055 -0.324555,0.09878 -0.493888,0.09878 l -0.05644,0.09878 c -0.127,0.09878 -0.268111,0.183444 -0.423333,0.310444 -0.155222,0.127 -0.310444,0.211667 -0.479777,0.254 l 0.155222,0.888999 2.850442,-1.41111 c 1.015999,0.183445 1.975554,0.536222 2.836331,1.030111 0.874888,0.507999 1.721554,1.001888 2.56822,1.509888 v 0.09878 z M 32.467499,49.43059 32.10061,49.261257 v -0.155222 l 0.366889,0.183444 z M 32.10061,49.204812 h -0.141111 v -0.09878 l -0.155222,-0.04233 v -0.09878 l 0.296333,0.05644 z m -0.959554,-3.400775 0.05644,-0.08467 0.04233,0.02822 h 0.112889 v -0.07056 h 0.09878 l 0.04233,-0.155222 h 0.05645 L 31.4515,45.056149 C 31.239833,44.957369 31.042278,44.886816 30.844723,44.81626 30.633056,44.74571 30.42139,44.703371 30.223834,44.675149 h -0.09878 v 0.04233 l -0.211666,-0.04233 h -0.05644 l 0.112888,0.239889 h 0.09878 v 0.141111 l 0.254,0.225777 0.310444,0.141111 v 0.09878 z m 1.580443,-0.945444 h 0.04233 v -0.08467 l 0.169333,-0.155222 -0.112888,-0.324556 c -0.169334,-0.155222 -0.366889,-0.268111 -0.606778,-0.310444 -0.225777,-0.02822 -0.479777,-0.07055 -0.719666,-0.112889 h -0.141111 l 0.09878,0.141111 0.197555,0.183445 h 0.09878 l 0.05644,0.155222 0.296333,0.183444 v 0.08467 z"
           id="path755" />
        <path
           d="m 44.518352,53.014809 0.888999,-0.155222 v -0.04233 C 44.518352,52.704365 43.671686,52.535032 42.82502,52.351588 41.992465,52.182254 41.15991,51.928255 40.341466,51.61781 40.242689,51.519033 40.1298,51.420255 40.016911,51.321477 39.904022,51.2227 39.861689,51.081589 39.904022,50.926366 l -0.324555,0.04233 c 0,0.225777 0.05644,0.437444 0.155222,0.606777 0.112889,0.155222 0.211666,0.338666 0.282222,0.550333 0.649111,0.338666 1.368777,0.578555 2.130776,0.691444 0.776111,0.127 1.566332,0.197555 2.370665,0.197555 z m -0.747888,-3.612441 c 0.08467,-0.09878 0.225777,-0.169334 0.39511,-0.225778 0.169334,-0.04233 0.310445,-0.08467 0.465667,-0.127 l 0.169333,-0.592666 c 0,-0.310444 -0.04233,-0.592666 -0.112889,-0.888999 -0.07055,-0.282222 -0.169333,-0.564444 -0.282222,-0.818444 -0.02822,-0.141111 -0.01411,-0.254 0.02822,-0.338667 0.05645,-0.07055 0.127,-0.169333 0.197556,-0.268111 0.04233,-0.282222 0.01411,-0.52211 -0.05645,-0.747888 -0.07055,-0.211666 -0.169333,-0.409222 -0.268111,-0.606777 v -0.169333 l 0.762,-0.592667 -0.05645,-0.338666 -0.493888,-0.268111 -1.523999,0.05645 -0.507999,-0.05645 c -0.04233,-0.169333 -0.05644,-0.352777 -0.05644,-0.536222 0,-0.169333 -0.08467,-0.338666 -0.268111,-0.479777 l -0.225777,0.112889 0.07056,0.550333 v 0.451555 l -1.15711,0.254 h -0.282222 v -0.05644 c -0.155222,0.141111 -0.324555,0.268111 -0.550333,0.352778 -0.225778,0.112889 -0.409222,0.211666 -0.592666,0.310444 v 0.09878 l 0.761999,0.09878 0.663222,-0.09878 0.141111,0.05644 c 0.197555,0 0.395111,-0.01411 0.592666,-0.02822 0.197555,-0.01411 0.381,-0.05645 0.522111,-0.127 l 0.169333,0.05644 0.423333,0.733778 -1.044221,1.269999 h -0.09878 l -0.381,0.507999 c 0,0.197556 0.01411,0.395111 0.05644,0.564444 0.04233,0.183444 0.126999,0.338667 0.26811,0.437444 0.451556,0.04233 0.846667,-0.01411 1.213555,-0.155222 0.366889,-0.127 0.705555,-0.310444 1.058333,-0.550333 h 0.08467 l 0.395111,1.15711 c 0.04233,0.211667 0,0.381 -0.112889,0.550333 -0.112889,0.169334 -0.239888,0.324556 -0.366888,0.451556 z m -0.620889,-2.55411 -1.044221,0.451556 h -0.395111 c 0.112889,-0.310445 0.254,-0.606778 0.395111,-0.917222 0.155222,-0.296333 0.352777,-0.592666 0.592666,-0.846666 h 0.183444 l 0.649111,0.945444 z m 0.987777,-0.804332 c -0.183444,-0.09878 -0.324555,-0.239889 -0.437444,-0.409222 -0.112889,-0.169333 -0.239889,-0.324555 -0.395111,-0.465666 v -0.08467 c 0.112889,-0.04233 0.239889,-0.05644 0.366889,-0.05644 0.127,0 0.225778,-0.07056 0.296333,-0.197556 h 0.225778 l 0.112888,0.197556 c 0,0.169333 0,0.324555 0,0.479777 0,0.155222 -0.05644,0.282222 -0.169333,0.423333 z m -0.931332,-1.213555 -0.05645,0.05645 h -0.09878 l -0.239889,-0.550333 v -0.09878 l 0.77611,-0.169333 h 0.127 z"
           id="path757" />
        <path
           d="m 58.911648,53.000698 1.016,-1.086555 h 0.112888 l -0.112888,0.183445 v 0.09878 l 0.112888,-0.282222 0.155223,-0.05644 0.05644,-0.141111 0.141111,-0.05644 0.423333,-0.903111 c 0,-0.296333 -0.02822,-0.550333 -0.07056,-0.818444 -0.05644,-0.253999 -0.169333,-0.479777 -0.352777,-0.663221 -0.268111,-0.282222 -0.592666,-0.493889 -0.945444,-0.635 -0.352777,-0.155222 -0.733777,-0.254 -1.114777,-0.324555 -0.874888,0 -1.650998,0.155222 -2.370665,0.451555 -0.733777,0.310444 -1.425221,0.677333 -2.074331,1.128888 h -0.05645 c 0.409222,-0.987777 0.959555,-1.904998 1.66511,-2.779887 0.677333,-0.846666 1.185333,-1.792109 1.495777,-2.808109 0,-0.197555 0.01411,-0.39511 0.02822,-0.606777 0.01411,-0.211666 -0.08467,-0.381 -0.282222,-0.507999 -0.352778,-0.02822 -0.663222,0 -0.959555,0.07055 -0.282222,0.08467 -0.578555,0.183444 -0.860777,0.310444 L 54.297319,42.89715 h -0.05645 c -0.02822,0.239889 0,0.437445 0.08467,0.606778 0.07055,0.183444 0.169333,0.366888 0.282222,0.550333 l 0.366888,0.197555 c 0.197556,0 0.395111,-0.04233 0.578556,-0.127 0.155222,-0.07056 0.324555,-0.155222 0.507999,-0.254 h 0.09878 c -0.239889,1.255888 -0.719666,2.412998 -1.439332,3.485442 -0.733778,1.086555 -1.439333,2.144887 -2.130777,3.20322 -0.07055,0.07055 -0.141111,0.141111 -0.225777,0.211666 -0.08467,0.08467 -0.183444,0.112889 -0.282222,0.08467 l 0.04233,0.479777 h 0.112889 l 0.05644,0.522111 0.197556,0.09878 c 0.310444,-0.155222 0.620888,-0.338667 0.931332,-0.550333 0.324556,-0.211667 0.620889,-0.423333 0.931333,-0.649111 l 0.08467,-0.197555 c 0.493888,-0.338667 0.987777,-0.677333 1.467554,-0.973666 0.479777,-0.310444 0.987777,-0.536222 1.552221,-0.691444 0.352778,0 0.663222,0.02822 0.987777,0.07056 0.310444,0.04233 0.606777,0.155222 0.860777,0.310444 0.141111,0.08467 0.254,0.211666 0.352778,0.352777 0.07055,0.155222 0.127,0.296333 0.169333,0.465667 0.02822,0.536221 -0.04233,1.044221 -0.183444,1.538109 -0.155223,0.508 -0.409222,0.959555 -0.733778,1.368777 z"
           id="path759" />
      </g>
      <g
         aria-label="！！"
         transform="matrix(0.18156687,0.12030123,-0.24290568,0.38570356,1.2500151,-13.254574)"
         id="text695"
         style="font-size:19.0007px;font-family:KouzanBrushFontGyousyoOTF;-inkscape-font-specification:KouzanBrushFontGyousyoOTF;stroke-width:0.356264">
        <path
           d="m 208.07741,8.2291574 c 0.133,-0.1710063 0.30401,-0.2470091 0.49401,-0.2280084 0.17101,0.019001 0.34202,0.038001 0.51302,0.038001 l 0.32301,-0.4370161 V 7.2221203 L 208.95144,6.6711 c -0.17101,-0.1330049 -0.30401,-0.2470091 -0.47502,-0.3610133 -0.17101,-0.076003 -0.38001,-0.1330049 -0.58902,-0.1330049 l -0.55102,0.057002 c -0.095,0.1140042 -0.15201,0.2280084 -0.19001,0.3610133 -0.038,0.1330049 -0.057,0.2850105 -0.057,0.4370161 h -0.114 v 0.3230119 l 0.43701,0.4940182 z m 0.45601,-2.9261078 h 0.17101 l 0.133,-1.0070371 h 0.11401 c 0.26601,-0.4940182 0.39901,-1.0450385 0.39901,-1.6530609 0,-0.5890217 0.019,-1.1780434 0.057,-1.76706505 l -0.057,-0.1330049 0.17101,-1.0450385 h 0.114 l 0.39902,-2.24208265 c 0,-0.5510203 -0.038,-1.0640392 -0.13301,-1.5580574 -0.095,-0.5130189 -0.30401,-0.950035 -0.62702,-1.387051 -0.133,-0.095003 -0.26601,-0.1330049 -0.39901,-0.1710063 -0.15201,-0.038001 -0.30402,-0.076003 -0.47502,-0.1330049 h -0.60802 v 0.1330049 l -0.76003,0.4940181 -0.11401,0.190007 h -0.133 l -0.45602,0.8740322 c 0.095,1.4060518 0.26601,2.7741022 0.51302,4.12315195 0.22801,1.36805035 0.53202,2.69809935 0.87403,4.02814835 h 0.13301 v 0.380014 c 0.019,0.038001 0.057,0.095003 0.076,0.190007 0.019,0.076003 0.095,0.1140042 0.22801,0.1140042 l 0.133,0.380014 0.24701,0.1330049 z"
           id="path765" />
        <path
           d="m 227.07807,8.2291574 c 0.133,-0.1710063 0.30401,-0.2470091 0.49402,-0.2280084 0.171,0.019001 0.34201,0.038001 0.51302,0.038001 l 0.32301,-0.4370161 V 7.2221203 L 227.9521,6.6711 c -0.171,-0.1330049 -0.30401,-0.2470091 -0.47502,-0.3610133 -0.171,-0.076003 -0.38001,-0.1330049 -0.58902,-0.1330049 l -0.55102,0.057002 c -0.095,0.1140042 -0.152,0.2280084 -0.19,0.3610133 -0.038,0.1330049 -0.057,0.2850105 -0.057,0.4370161 h -0.114 v 0.3230119 l 0.43702,0.4940182 z m 0.45602,-2.9261078 h 0.171 l 0.13301,-1.0070371 h 0.114 c 0.26601,-0.4940182 0.39902,-1.0450385 0.39902,-1.6530609 0,-0.5890217 0.019,-1.1780434 0.057,-1.76706505 l -0.057,-0.1330049 0.171,-1.0450385 h 0.11401 l 0.39901,-2.24208265 c 0,-0.5510203 -0.038,-1.0640392 -0.133,-1.5580574 -0.095,-0.5130189 -0.30401,-0.950035 -0.62703,-1.387051 -0.133,-0.095003 -0.26601,-0.1330049 -0.39901,-0.1710063 -0.15201,-0.038001 -0.30401,-0.076003 -0.47502,-0.1330049 h -0.60802 v 0.1330049 l -0.76003,0.4940181 -0.114,0.190007 h -0.13301 l -0.45601,0.8740322 c 0.095,1.4060518 0.266,2.7741022 0.51301,4.12315195 0.22801,1.36805035 0.53202,2.69809935 0.87404,4.02814835 h 0.133 v 0.380014 c 0.019,0.038001 0.057,0.095003 0.076,0.190007 0.019,0.076003 0.095,0.1140042 0.22801,0.1140042 l 0.13301,0.380014 0.24701,0.1330049 z"
           id="path767" />
      </g>
    </g>
  </g>
</svg>
