<?xml version="1.0" encoding="UTF-8" standalone="no"?>
<!-- Created with Inkscape (http://www.inkscape.org/) -->

<svg
   width="250"
   height="90"
   viewBox="0 0 66.145807 23.812496"
   version="1.1"
   id="svg5"
   inkscape:version="1.2.2 (b0a8486, 2022-12-01)"
   sodipodi:docname="Tabekiro-uo-mini-logo.svg"
   inkscape:export-filename="描画.svg"
   inkscape:export-xdpi="96"
   inkscape:export-ydpi="96"
   xmlns:inkscape="http://www.inkscape.org/namespaces/inkscape"
   xmlns:sodipodi="http://sodipodi.sourceforge.net/DTD/sodipodi-0.dtd"
   xmlns="http://www.w3.org/2000/svg"
   xmlns:svg="http://www.w3.org/2000/svg">
  <sodipodi:namedview
     id="namedview7"
     pagecolor="#ffffff"
     bordercolor="#000000"
     borderopacity="0.25"
     inkscape:showpageshadow="2"
     inkscape:pageopacity="0.0"
     inkscape:pagecheckerboard="0"
     inkscape:deskcolor="#d1d1d1"
     inkscape:document-units="mm"
     showgrid="false"
     inkscape:lockguides="false"
     showguides="false"
     inkscape:zoom="1.6785294"
     inkscape:cx="134.04591"
     inkscape:cy="32.468897"
     inkscape:window-width="1440"
     inkscape:window-height="771"
     inkscape:window-x="1080"
     inkscape:window-y="1616"
     inkscape:window-maximized="0"
     inkscape:current-layer="text591" />
  <defs
     id="defs2" />
  <g
     inkscape:label="Layer 1"
     inkscape:groupmode="layer"
     id="layer1">
    <g
       id="g212">
      <g
         aria-label="魚"
         transform="matrix(0.34397581,0.07836957,-0.07579524,0.35002661,-2.3363243,2.3164334)"
         id="text591"
         style="font-size:80.7101px;font-family:KouzanBrushFontGyousyoOTF;-inkscape-font-specification:KouzanBrushFontGyousyoOTF;stroke-width:0.420364">
        <path
           d="m 91.567421,33.126513 1.256535,-0.189901 0.0078,-0.324107 0.988116,-0.183934 0.0137,-0.567187 3.324201,-0.640787 C 96.98479,30.981493 96.722245,30.744383 96.457743,30.588296 96.103766,30.4342 95.930692,30.195098 95.940483,29.789965 l -0.79351,-0.468258 0.564245,-1.146309 0.0058,-0.243079 -1.6203,0.440939 C 91.8697,28.017854 89.644625,27.581425 87.423465,26.982942 85.200348,26.465485 82.975273,26.029054 80.83967,25.590637 l -0.357892,0.0079 0.931344,2.165839 2.370741,1.809905 -0.0058,0.243079 3.613572,2.187189 0.805255,-0.0179 0.165242,0.563208 z m 17.357739,-0.385909 -0.52509,-0.474223 0.1032,-0.569177 1.06388,0.381264 3.70949,-1.783119 0.007,-0.324107 0.17896,-0.004 -1.05411,-0.786397 0.006,-0.243073 -0.70991,-0.227167 -0.16523,-0.563208 c -1.77572,-0.5274 -3.46201,-1.056792 -5.33115,-1.420153 -1.77967,-0.365349 -3.74024,-0.645694 -5.52579,-0.767961 l -2.326288,0.05172 0.254714,0.56122 1.408074,0.940492 -0.007,0.324106 c 1.05606,0.70537 2.0246,1.331702 3.17797,1.710976 1.05996,0.543315 2.02849,1.169648 3.17403,1.873029 l 0.18482,-0.247059 1.24283,0.377285 z m 21.49894,-1.530757 -0.59891,-1.120447 0.0179,-0.729246 0.79155,0.549284 c 0.53683,-0.01205 1.07172,0.05715 1.51321,0.29029 0.44148,0.233134 0.88298,0.466268 1.32643,0.618374 l 0.63217,-0.257004 0.007,-0.324107 -0.44737,0.0099 -0.42974,-0.719295 0.01,-0.405135 c 0.62045,0.229155 1.15335,0.379273 1.69019,0.367336 0.62632,-0.01394 1.16119,0.05517 1.78554,0.12227 l 0.62631,-0.01394 0.64393,-0.743163 0.01,-0.405136 -2.31064,-0.596496 0.01,-0.405134 0.80525,-0.0179 0.004,-0.162047 -0.17896,0.004 0.0179,-0.729247 c -1.0678,-0.219212 -1.95468,-0.523424 -2.9291,-0.906677 -0.97442,-0.383252 -2.04221,-0.602462 -3.02054,-0.823661 l 0.007,-0.324106 c -1.50342,-0.695425 -3.10218,-1.145778 -4.70682,-1.353053 -1.69607,-0.124258 -3.29875,-0.412558 -4.98698,-0.860925 l -0.62633,0.01394 1.80651,2.956214 0.3579,-0.0079 -0.006,0.243071 1.3088,1.347616 0.44739,-0.0099 1.05213,0.867423 1.60071,0.369327 1.29902,1.75275 -0.16524,-0.563209 0.01,-0.405138 1.8476,1.254656 z m 8.93611,-3.437998 c 1.2624,-0.43298 2.52481,-0.865963 3.69776,-1.296957 1.17294,-0.430994 2.43534,-0.863975 3.60435,-1.132915 0.80721,-0.09893 1.60856,0.04522 2.22312,0.517456 0.61456,0.472238 1.14163,0.865435 1.76204,1.09459 l 0.62632,-0.01394 0.0135,-0.567185 0.79743,0.306205 0.44736,-0.0099 0.007,-0.324107 0.44736,-0.0098 0.01,-0.40514 2.3165,0.353416 1.52496,-0.195868 -0.42778,-0.800323 -0.6224,-0.148129 -0.1672,-0.48218 c -2.02459,-1.331703 -4.14649,-2.337309 -6.27426,-3.099834 -2.21922,-0.67951 -4.62128,-1.192988 -7.12063,-1.380372 l -1.0776,0.185925 -0.17502,-0.158075 -5.11758,0.842625 c 1.24872,0.134203 2.49741,0.268408 3.65469,0.48563 1.24869,0.134204 2.40401,0.432451 3.37844,0.815703 -0.29192,0.978287 -0.67135,1.877537 -1.31725,2.701729 -0.64783,0.905218 -1.38319,1.731398 -2.20607,2.478542 z M 105.47132,16.539782 c 2.33412,-0.375826 4.49323,-0.909727 6.56872,-1.684718 1.98603,-0.773003 4.151,-1.549983 6.314,-2.245939 l 0.79938,0.225177 3.0636,-0.958927 0.62436,0.0671 2.25387,2.946267 1.89263,-0.60896 0.9744,0.383251 0.99399,-0.427014 c 1.04685,-2.614734 2.00814,-5.389533 2.78853,-8.0793267 0.86985,-2.6917833 1.91868,-5.38754506 3.14641,-8.0872847 l 0.3579,-0.00796 0.19265,-0.5711651 0.81504,-0.4230362 0.007,-0.3241065 0.63217,-0.2570045 c 0.27626,-0.3300741 0.46303,-0.6581594 0.65177,-1.0672711 0.0993,-0.4071234 0.28407,-0.6541811 0.38334,-1.0613036 l 0.9006,-0.262972 0.40683,-2.0336237 0.71578,-0.015916 -0.60085,-1.0394225 c -0.17699,-0.077048 -0.35007,-0.3161498 -0.52314,-0.5552515 -0.26254,-0.2371126 -0.53096,-0.2311454 -0.98029,-0.1401721 l -0.42386,-0.9623748 c -1.14553,-0.70338 -2.29498,-1.244706 -3.53976,-1.540965 -1.24479,-0.296257 -2.49155,-0.511489 -4.00867,-0.639725 l -6.10764,1.107586 c -1.3421,0.02984 -2.58688,-0.266421 -3.46594,-0.894742 -1.05997,-0.543317 -2.21529,-0.841561 -3.28896,-0.817691 l 0.0135,-0.567186 0.90451,-0.425026 0.18677,-0.328084 c 1.43547,-0.193881 2.69789,-0.626864 3.78526,-1.217919 1.08543,-0.510031 2.34587,-0.861987 3.60046,-0.970863 l 0.19266,-0.571165 1.25652,-0.189903 0.01,-0.405137 1.3499,-0.353942 0.004,-0.162049 0.81308,-0.342009 0.01,-0.405138 -0.87124,-0.952428 c -1.68823,-0.448365 -3.19361,-1.062762 -4.60952,-1.679149 -1.50341,-0.695423 -3.10218,-1.145778 -4.88967,-1.187019 l -0.80917,0.179956 -1.78554,-0.12227 -0.17114,-0.320128 c -1.67844,-0.853498 -3.27133,-1.546933 -4.95565,-2.157351 -1.59681,-0.531381 -3.37059,-1.13981 -5.05689,-1.6692 l -0.17894,0.004 0.15741,0.887315 -0.0135,0.567183 c -1.85406,2.713665 -3.61865,5.42534 -5.38324,8.137015 -1.766546,2.792702 -3.795638,5.348292 -6.087276,7.666768 l 2.441217,-1.107055 2.838258,-2.735546 3.079281,-1.607139 0.37159,-0.575145 0.46108,-0.577132 0.44735,-0.0099 0.01,-0.405137 0.35789,-0.0079 0.28212,-0.573153 c 1.4433,-0.517987 2.97805,-1.118992 4.60228,-1.721984 1.44331,-0.517988 3.06752,-1.120981 4.51278,-1.719995 l 0.79743,0.306206 c -1.67316,2.628658 -3.25684,5.255327 -4.66157,7.878022 -1.31527,2.620701 -2.98648,5.1683337 -4.74716,7.7179557 l -0.01,0.4051367 0.72556,-0.4210469 0.65178,-1.0672715 0.63218,-0.2570043 0.44737,-0.00994 0.91763,2.7330258 0.62239,0.148129 -0.0135,0.5671835 0.3579,-0.00797 -0.01,0.4051368 0.61261,0.5532623 0.6224,0.148129 0.80918,-0.1799563 c 0.44735,-0.00994 0.80525,-0.017907 1.16313,-0.025864 0.26842,-0.00597 0.44346,0.1521073 0.61261,0.5532622 l -0.31983,2.11257204 c -1.7176,0.76703496 -3.52663,1.61708566 -5.24228,2.30309406 -1.80707,0.7690244 -3.52664,1.6170858 -5.33764,2.5481633 l -0.6263,0.013923 -1.1142,-1.9998072 C 99.013983,2.5112948 97.32966,1.9008761 95.46835,1.2134093 93.69651,0.5239535 91.924674,-0.1655025 90.244266,-0.93797424 l -0.62631,0.0139246 4.562534,3.62378844 c 0.694247,0.8753796 1.297066,1.8337753 1.722896,2.7151226 0.427786,0.8003208 0.581283,1.8496889 0.553874,2.9840626 l 0.966582,0.7073577 0.945047,1.5986533 2.814191,1.962011 1.79533,-0.282863 0.006,-0.243074 1.4257,0.211252 -0.01,0.405138 -0.63611,0.419057 0.22338,1.857647 z m 0.92664,-5.041556 -0.18286,0.166031 -0.98029,-0.140171 c -0.34224,-0.640256 -0.59304,-1.363529 -0.75436,-2.0887912 -0.25275,-0.6422457 -0.59302,-1.3635291 -1.20564,-1.9167904 l 0.28213,-0.5731546 c 1.35776,-0.6780516 2.80302,-1.2770657 4.42333,-1.7180047 1.4433,-0.5179873 2.97609,-1.0379639 4.50888,-1.5579403 l 0.53684,-0.011936 c 0.24491,0.9663526 0.0483,1.6995711 -0.67918,2.2016447 -0.81896,0.5850895 -1.37341,1.3262642 -1.74892,2.063461 l -0.44736,0.00994 -3.47436,3.1546035 z m 7.35438,-0.892354 -3.06752,1.12098 -0.80526,0.0179 0.0135,-0.567184 0.98812,-0.183935 0.007,-0.324105 1.72347,-1.0101154 0.7158,-0.015966 0.60869,0.7153154 z m 6.64058,-0.9574688 -2.41577,0.053705 0.86594,-2.5297297 -0.15544,-0.9683419 0.84832,-1.8004897 c 1.09128,-0.7531106 2.27011,-1.4271836 3.53445,-1.9411924 1.08544,-0.5100306 2.2623,-1.1030772 3.26803,-2.016252 l -0.61262,-0.55326205 0.01,-0.40513675 c -0.97832,-0.22119884 -1.9547,-0.523424 -2.93302,-0.7446227 -0.97833,-0.2211988 -2.14148,-0.1953392 -3.30854,-0.00743 l -0.60869,-0.7153156 0.0213,-0.8912907 0.63609,-0.4190577 0.007,-0.324106 c 1.17881,-0.6740732 2.35762,-1.3481462 3.5423,-2.2652993 1.0952,-0.9151637 2.27208,-1.5082104 3.62395,-1.9431817 l 1.34208,-0.029843 c -0.0704,2.9169601 -0.31794,5.7568722 -0.83186,8.52172499 -0.51393,2.76485291 -1.20485,5.45265791 -1.98523,8.14245201 l -0.80917,0.1799552 -1.16315,0.025832 0.004,-0.1620479 -2.66853,-0.588538 -1.12593,-1.513647 -0.17895,0.00397 0.74847,2.3318708 0.3579,-0.00794 z"
           id="path351"
           style="stroke-width:0.443343" />
        <g
           aria-label="うお"
           transform="matrix(1.2862682,-0.07562791,-0.17955356,1.2662581,-6.7730238,1.7582414)"
           id="text352"
           style="font-size:10.0855px;fill:#241c1c;stroke-width:0.244593">
          <path
             d="m 113.67846,-9.4594253 c 0.25213,-0.7362417 0.54461,-1.4724827 0.87744,-2.1885537 0.32273,-0.705985 0.5547,-1.452312 0.67572,-2.238981 0.0202,-0.40342 0.0101,-0.786669 -0.0202,-1.159832 -0.0302,-0.363078 -0.17145,-0.685814 -0.42359,-0.948037 l -0.51436,-0.221881 c -0.23197,-0.03026 -0.43368,0 -0.63539,0.0706 -0.19162,0.0706 -0.39333,0.151283 -0.58495,0.221881 h -0.11094 v -0.04034 c -0.10086,0.03026 -0.19163,0.06051 -0.27231,0.110941 -0.0908,0.05043 -0.19163,0.08068 -0.32274,0.08068 0.0303,0.121026 -0.0101,0.221881 -0.10085,0.302565 -0.10086,0.09077 -0.1412,0.20171 -0.11094,0.322736 h -0.0404 v 0.11094 h -0.0403 v 0.0706 l 0.0807,0.04034 0.0706,0.332821 c 0.32274,-0.141197 0.61522,-0.332821 0.89761,-0.554702 0.29248,-0.221881 0.58496,-0.383249 0.9077,-0.474019 l 0.30256,0.0706 c 0.1412,0.161368 0.24206,0.373163 0.29248,0.60513 0.0504,0.231966 0.0807,0.463933 0.11094,0.675728 0,0.837097 -0.11094,1.654022 -0.33282,2.450777 -0.22188,0.786669 -0.45385,1.563252 -0.70598,2.3196647 z m 0.99846,-8.0885707 0.33282,-0.141197 c 0,-0.100855 0,-0.20171 0,-0.29248 0,-0.09077 -0.0403,-0.141197 -0.11094,-0.191624 -0.16137,-0.131112 -0.3429,-0.252138 -0.51436,-0.352993 -0.17145,-0.11094 -0.37316,-0.191624 -0.59504,-0.242052 h -0.11094 c 0.0706,0.231967 0.19162,0.423591 0.33282,0.595045 0.15128,0.161368 0.33282,0.292479 0.5547,0.363078 z"
             id="path348" />
          <path
             d="m 122.16034,-10.699942 0.24206,-0.04034 c 0.14119,-0.11094 0.25213,-0.221881 0.3429,-0.363078 0.0706,-0.141197 0.1412,-0.272308 0.2118,-0.423591 0.36308,-0.282394 0.75641,-0.524446 1.16992,-0.705985 0.4135,-0.181539 0.84718,-0.31265 1.31111,-0.383249 0.25214,-0.02017 0.49419,-0.01009 0.73624,0.02017 0.25214,0.04034 0.45385,0.141197 0.64547,0.312651 l -0.0706,0.141197 -0.93796,-0.211796 0.29248,0.211796 -0.0403,0.11094 v 0.03026 l 0.1412,0.04034 0.20171,0.363078 0.37316,0.221881 c 0.15128,0.02017 0.27231,0 0.40342,-0.05043 0.13111,-0.05043 0.24205,-0.09077 0.36308,-0.131111 l 0.1412,-0.332822 c -0.0303,-0.171453 -0.0605,-0.31265 -0.10086,-0.443762 -0.0504,-0.131111 -0.13111,-0.262223 -0.24205,-0.383249 -0.16137,-0.191624 -0.35299,-0.31265 -0.56479,-0.383249 -0.23196,-0.06051 -0.45385,-0.100855 -0.67573,-0.121026 -0.52444,0 -1.02872,0.0706 -1.50274,0.191625 -0.47401,0.131111 -0.92786,0.322736 -1.37162,0.554702 h -0.0605 l 0.20171,-1.401884 v -1.593509 l -0.0302,-0.04034 v -0.322736 l 0.37316,-0.29248 0.1412,-0.31265 h 0.0807 v -0.08068 h 0.0605 l 0.0202,-0.08068 v -0.03026 h -0.0807 v -0.121026 h 0.0605 v -0.02017 l -0.14119,0.100855 v 0.04034 h -0.0303 v 0.03026 h -0.0706 v -0.03026 l -0.38325,0.231967 h -0.10085 v 0.02017 h -0.0807 c -0.0403,-0.262223 -0.0807,-0.524446 -0.12102,-0.816926 -0.0504,-0.272308 -0.12103,-0.534531 -0.2118,-0.786669 h -0.0403 l 0.24205,1.351457 -0.0202,0.393335 -0.7665,0.322736 c -0.21179,0.03026 -0.38325,0.01009 -0.54461,-0.05043 -0.17146,-0.05043 -0.32274,-0.121026 -0.48411,-0.191624 v -0.04034 l 0.0908,0.0706 0.0403,0.121026 c 0.13112,0.06051 0.2824,0.141197 0.43368,0.242052 0.1412,0.100855 0.30257,0.171454 0.46393,0.211796 l 0.7665,-0.100855 v -0.0706 h 0.0908 l 0.0403,0.584959 c 0.0101,0.504275 0.0101,1.00855 -0.0403,1.492654 -0.0504,0.49419 -0.15128,0.958123 -0.31265,1.391799 l -0.54462,0.29248 v 0.04034 h -0.13111 l 0.0202,0.141197 c -0.0403,0.121026 -0.0706,0.242052 -0.0908,0.363078 -0.0302,0.11094 -0.0807,0.221881 -0.15128,0.31265 l 0.11094,0.110941 0.0303,0.211795 0.1412,0.04034 z m 4.7301,-6.0513 h 0.2118 v -0.06051 c 0.0605,0 0.13111,0.01009 0.20171,0.02017 0.0706,0.01009 0.11094,-0.02017 0.13111,-0.08068 l 0.11094,-0.04034 0.1412,-0.231966 -0.0404,-0.09077 c -0.0908,-0.131111 -0.19162,-0.221881 -0.30256,-0.282394 -0.12103,-0.06051 -0.25214,-0.121026 -0.38325,-0.161368 -0.17145,0 -0.33282,0.02017 -0.4841,0.05043 -0.17146,0.04034 -0.33282,0.08068 -0.48411,0.121026 l 0.0706,0.161368 c 0.13111,0.09077 0.27231,0.171453 0.41351,0.242052 0.13111,0.0706 0.27231,0.161368 0.4135,0.272308 z"
             id="path345" />
        </g>
        <g
           aria-label="▼"
           transform="matrix(1.3031175,-0.29176283,0.26027583,1.1811902,-12.009871,-6.9765827)"
           id="text406"
           style="font-size:12.9024px;fill:#241c1c;stroke-width:0.312908">
          <path
             d="m 146.52979,48.886679 c 0.11613,0 0.21934,0 0.32256,0 0.0903,0 0.16773,-0.03871 0.25805,-0.129024 0.20644,-0.245146 0.37417,-0.516096 0.49029,-0.787046 0.12903,-0.283853 0.28386,-0.554804 0.43868,-0.851559 l 0.12903,-0.07741 c 0.30966,-0.528999 0.61931,-1.057997 0.94187,-1.599898 0.32256,-0.528998 0.64512,-1.057997 0.99349,-1.56119 h 0.0774 l 0.0774,-0.193536 h 0.0903 c 0.32256,-0.412877 0.61932,-0.851559 0.92898,-1.264435 0.30965,-0.412877 0.61931,-0.825754 0.96768,-1.225728 l 0.0774,-0.245146 0.12903,-0.05161 0.34836,-0.503193 v -0.167731 l -0.43868,-0.154829 -0.15483,0.0258 -0.50319,-0.0258 h -0.0903 v 0.0258 l -0.29676,0.03871 -0.15482,-0.03871 -0.81286,0.09032 -0.33546,-0.05161 -0.58061,0.05161 -0.0516,-0.05161 -0.20643,0.05161 -1.5999,-0.09032 h -1.71602 l -0.0387,0.03871 -0.21934,-0.03871 c -0.19354,0 -0.37417,0 -0.5548,0 -0.19354,0 -0.36127,0.0258 -0.529,0.09032 l -0.83866,-0.167731 -0.18063,0.05161 -0.20644,-0.09032 c -0.12902,0.06451 -0.28385,0.09032 -0.43868,0.09032 -0.16773,0 -0.29676,0 -0.43868,0.0258 l -0.12903,-0.0258 c -0.11612,0.0129 -0.21934,0.0258 -0.33546,0.0258 -0.11612,0 -0.20644,0.05161 -0.29675,0.167731 v 0.219341 l 0.33546,0.283852 0.16773,0.309658 c 0.16773,0.180634 0.34836,0.387072 0.529,0.606413 0.18063,0.206438 0.32256,0.425779 0.43868,0.64512 h 0.0774 l 0.29676,0.464486 h 0.0903 c 0.47739,0.851559 0.90316,1.703117 1.27733,2.593383 0.38708,0.877363 0.82576,1.716019 1.32895,2.541772 l -0.0387,0.129024 0.0774,0.37417 0.18063,0.129024 z"
             id="path342" />
        </g>
      </g>
      <g
         aria-label="たべきろ"
         id="text640"
         style="font-size:14.1111px;font-family:KouzanBrushFontGyousyoOTF;-inkscape-font-specification:KouzanBrushFontGyousyoOTF;stroke-width:0.264583"
         transform="matrix(0.44856033,0,0,0.55679124,-3.8601461,-12.644833)">
        <path
           d="m 10.933987,53.494587 0.169333,-0.05645 c 0.112889,-0.127 0.169333,-0.282222 0.169333,-0.451555 0,-0.155222 0.01411,-0.296333 0.04233,-0.423333 l -0.04233,-0.239889 0.620889,-2.681109 h 0.112888 c 0.155223,-0.719666 0.352778,-1.439332 0.564444,-2.130776 0.197556,-0.705555 0.437445,-1.396999 0.677333,-2.088443 l 1.001888,-0.634999 0.05645,-0.155222 0.366888,-0.239889 v -0.04233 h -0.09878 v -0.197556 l -1.269999,-0.05644 c -0.05645,-0.225778 -0.09878,-0.451555 -0.141111,-0.691444 -0.04233,-0.225778 -0.09878,-0.451555 -0.169334,-0.663222 l -0.465666,-0.507999 h -0.05644 l 0.05644,0.112889 -0.112889,0.296333 -0.169333,0.282222 c 0,0.169333 0,0.338666 0,0.479777 0,0.169333 0.05645,0.324555 0.169333,0.451555 l -0.05644,1.28411 -0.578555,0.183445 -0.268111,-0.09878 c -0.155222,0 -0.324555,0.04233 -0.479777,0.127 -0.141111,0.08467 -0.324556,0.112889 -0.508,0.07055 l -0.05644,0.141111 -0.155223,0.05644 0.04233,0.395111 0.451555,0.324555 c 0.225778,0 0.451555,-0.01411 0.649111,-0.08467 0.183444,-0.05644 0.39511,-0.112889 0.606777,-0.183444 h 0.141111 c -0.197556,1.142999 -0.451555,2.257776 -0.719666,3.344331 -0.296333,1.086554 -0.578555,2.201331 -0.846666,3.287886 l 0.05644,0.592666 v -0.05644 h 0.112889 z m 0.338666,-1.016 -0.05644,0.05645 -0.05645,-0.05645 v -0.155222 h 0.112889 z m 6.505217,-0.691443 0.592667,-0.04233 0.09878,-0.197555 -0.05644,-0.197556 -0.888999,-0.197555 c -0.338667,-0.197555 -0.677333,-0.451555 -0.959555,-0.733777 -0.310444,-0.296333 -0.564444,-0.592666 -0.790222,-0.931333 h -0.05644 l -0.05645,0.310444 c 0.04233,0.169334 0.07056,0.352778 0.112889,0.522111 0.04233,0.169333 0.112889,0.338667 0.225778,0.493889 0.225777,0.253999 0.507999,0.479777 0.804333,0.663221 0.296333,0.169334 0.620888,0.282222 0.973665,0.310445 z m -2.300109,-4.444997 1.100666,-0.09878 0.620888,0.04233 1.001888,-0.09878 v -0.09878 h 0.268111 l 0.05645,-0.09878 v -0.09878 L 18.08832,46.749466 c -0.564444,0 -1.086555,0.02822 -1.594555,0.09878 -0.507999,0.07056 -1.015999,0.141111 -1.495776,0.239889 0,0.09878 0.05644,0.155222 0.183444,0.155222 0.127,0 0.225778,0.02822 0.296333,0.09878 z"
           id="path339" />
        <path
           d="m 33.031943,50.234923 v -0.239889 h 0.05644 v -0.127 h 0.197556 v -0.09878 l -0.155222,-0.141111 h -0.09878 v -0.09878 h -0.211666 v -0.141111 l -0.296334,-0.09878 v -0.127 l -0.423333,-0.197555 -0.04233,-0.141111 c -0.127,-0.09878 -0.254,-0.183445 -0.381,-0.296334 -0.126999,-0.112888 -0.253999,-0.183444 -0.437444,-0.225777 v -0.09878 H 31.1975 v -0.09878 l -0.564444,-0.310444 -0.451555,-0.197555 v -0.08467 h -0.112889 v -0.09878 c -0.395111,-0.352777 -0.846666,-0.620888 -1.298221,-0.832554 -0.451555,-0.211667 -0.917222,-0.366889 -1.41111,-0.493889 -0.296333,0.04233 -0.592666,0.08467 -0.846666,0.141111 -0.282222,0.07056 -0.550333,0.155222 -0.832555,0.282222 h -0.197556 v -0.04233 c -0.169333,0.02822 -0.338666,0.07055 -0.479777,0.141111 -0.155222,0.07055 -0.324555,0.09878 -0.493888,0.09878 l -0.05644,0.09878 c -0.127,0.09878 -0.268111,0.183444 -0.423333,0.310444 -0.155222,0.127 -0.310444,0.211667 -0.479777,0.254 l 0.155222,0.888999 2.850442,-1.41111 c 1.015999,0.183445 1.975554,0.536222 2.836331,1.030111 0.874888,0.507999 1.721554,1.001888 2.56822,1.509888 v 0.09878 z M 32.467499,49.43059 32.10061,49.261257 v -0.155222 l 0.366889,0.183444 z M 32.10061,49.204812 h -0.141111 v -0.09878 l -0.155222,-0.04233 v -0.09878 l 0.296333,0.05644 z m -0.959554,-3.400775 0.05644,-0.08467 0.04233,0.02822 h 0.112889 v -0.07056 h 0.09878 l 0.04233,-0.155222 h 0.05645 L 31.4515,45.056149 C 31.239833,44.957369 31.042278,44.886816 30.844723,44.81626 30.633056,44.74571 30.42139,44.703371 30.223834,44.675149 h -0.09878 v 0.04233 l -0.211666,-0.04233 h -0.05644 l 0.112888,0.239889 h 0.09878 v 0.141111 l 0.254,0.225777 0.310444,0.141111 v 0.09878 z m 1.580443,-0.945444 h 0.04233 v -0.08467 l 0.169333,-0.155222 -0.112888,-0.324556 c -0.169334,-0.155222 -0.366889,-0.268111 -0.606778,-0.310444 -0.225777,-0.02822 -0.479777,-0.07055 -0.719666,-0.112889 h -0.141111 l 0.09878,0.141111 0.197555,0.183445 h 0.09878 l 0.05644,0.155222 0.296333,0.183444 v 0.08467 z"
           id="path336" />
        <path
           d="m 44.518352,53.014809 0.888999,-0.155222 v -0.04233 C 44.518352,52.704365 43.671686,52.535032 42.82502,52.351588 41.992465,52.182254 41.15991,51.928255 40.341466,51.61781 40.242689,51.519033 40.1298,51.420255 40.016911,51.321477 39.904022,51.2227 39.861689,51.081589 39.904022,50.926366 l -0.324555,0.04233 c 0,0.225777 0.05644,0.437444 0.155222,0.606777 0.112889,0.155222 0.211666,0.338666 0.282222,0.550333 0.649111,0.338666 1.368777,0.578555 2.130776,0.691444 0.776111,0.127 1.566332,0.197555 2.370665,0.197555 z m -0.747888,-3.612441 c 0.08467,-0.09878 0.225777,-0.169334 0.39511,-0.225778 0.169334,-0.04233 0.310445,-0.08467 0.465667,-0.127 l 0.169333,-0.592666 c 0,-0.310444 -0.04233,-0.592666 -0.112889,-0.888999 -0.07055,-0.282222 -0.169333,-0.564444 -0.282222,-0.818444 -0.02822,-0.141111 -0.01411,-0.254 0.02822,-0.338667 0.05645,-0.07055 0.127,-0.169333 0.197556,-0.268111 0.04233,-0.282222 0.01411,-0.52211 -0.05645,-0.747888 -0.07055,-0.211666 -0.169333,-0.409222 -0.268111,-0.606777 v -0.169333 l 0.762,-0.592667 -0.05645,-0.338666 -0.493888,-0.268111 -1.523999,0.05645 -0.507999,-0.05645 c -0.04233,-0.169333 -0.05644,-0.352777 -0.05644,-0.536222 0,-0.169333 -0.08467,-0.338666 -0.268111,-0.479777 l -0.225777,0.112889 0.07056,0.550333 v 0.451555 l -1.15711,0.254 h -0.282222 v -0.05644 c -0.155222,0.141111 -0.324555,0.268111 -0.550333,0.352778 -0.225778,0.112889 -0.409222,0.211666 -0.592666,0.310444 v 0.09878 l 0.761999,0.09878 0.663222,-0.09878 0.141111,0.05644 c 0.197555,0 0.395111,-0.01411 0.592666,-0.02822 0.197555,-0.01411 0.381,-0.05645 0.522111,-0.127 l 0.169333,0.05644 0.423333,0.733778 -1.044221,1.269999 h -0.09878 l -0.381,0.507999 c 0,0.197556 0.01411,0.395111 0.05644,0.564444 0.04233,0.183444 0.126999,0.338667 0.26811,0.437444 0.451556,0.04233 0.846667,-0.01411 1.213555,-0.155222 0.366889,-0.127 0.705555,-0.310444 1.058333,-0.550333 h 0.08467 l 0.395111,1.15711 c 0.04233,0.211667 0,0.381 -0.112889,0.550333 -0.112889,0.169334 -0.239888,0.324556 -0.366888,0.451556 z m -0.620889,-2.55411 -1.044221,0.451556 h -0.395111 c 0.112889,-0.310445 0.254,-0.606778 0.395111,-0.917222 0.155222,-0.296333 0.352777,-0.592666 0.592666,-0.846666 h 0.183444 l 0.649111,0.945444 z m 0.987777,-0.804332 c -0.183444,-0.09878 -0.324555,-0.239889 -0.437444,-0.409222 -0.112889,-0.169333 -0.239889,-0.324555 -0.395111,-0.465666 v -0.08467 c 0.112889,-0.04233 0.239889,-0.05644 0.366889,-0.05644 0.127,0 0.225778,-0.07056 0.296333,-0.197556 h 0.225778 l 0.112888,0.197556 c 0,0.169333 0,0.324555 0,0.479777 0,0.155222 -0.05644,0.282222 -0.169333,0.423333 z m -0.931332,-1.213555 -0.05645,0.05645 h -0.09878 l -0.239889,-0.550333 v -0.09878 l 0.77611,-0.169333 h 0.127 z"
           id="path333" />
        <path
           d="m 58.911648,53.000698 1.016,-1.086555 h 0.112888 l -0.112888,0.183445 v 0.09878 l 0.112888,-0.282222 0.155223,-0.05644 0.05644,-0.141111 0.141111,-0.05644 0.423333,-0.903111 c 0,-0.296333 -0.02822,-0.550333 -0.07056,-0.818444 -0.05644,-0.253999 -0.169333,-0.479777 -0.352777,-0.663221 -0.268111,-0.282222 -0.592666,-0.493889 -0.945444,-0.635 -0.352777,-0.155222 -0.733777,-0.254 -1.114777,-0.324555 -0.874888,0 -1.650998,0.155222 -2.370665,0.451555 -0.733777,0.310444 -1.425221,0.677333 -2.074331,1.128888 h -0.05645 c 0.409222,-0.987777 0.959555,-1.904998 1.66511,-2.779887 0.677333,-0.846666 1.185333,-1.792109 1.495777,-2.808109 0,-0.197555 0.01411,-0.39511 0.02822,-0.606777 0.01411,-0.211666 -0.08467,-0.381 -0.282222,-0.507999 -0.352778,-0.02822 -0.663222,0 -0.959555,0.07055 -0.282222,0.08467 -0.578555,0.183444 -0.860777,0.310444 L 54.297319,42.89715 h -0.05645 c -0.02822,0.239889 0,0.437445 0.08467,0.606778 0.07055,0.183444 0.169333,0.366888 0.282222,0.550333 l 0.366888,0.197555 c 0.197556,0 0.395111,-0.04233 0.578556,-0.127 0.155222,-0.07056 0.324555,-0.155222 0.507999,-0.254 h 0.09878 c -0.239889,1.255888 -0.719666,2.412998 -1.439332,3.485442 -0.733778,1.086555 -1.439333,2.144887 -2.130777,3.20322 -0.07055,0.07055 -0.141111,0.141111 -0.225777,0.211666 -0.08467,0.08467 -0.183444,0.112889 -0.282222,0.08467 l 0.04233,0.479777 h 0.112889 l 0.05644,0.522111 0.197556,0.09878 c 0.310444,-0.155222 0.620888,-0.338667 0.931332,-0.550333 0.324556,-0.211667 0.620889,-0.423333 0.931333,-0.649111 l 0.08467,-0.197555 c 0.493888,-0.338667 0.987777,-0.677333 1.467554,-0.973666 0.479777,-0.310444 0.987777,-0.536222 1.552221,-0.691444 0.352778,0 0.663222,0.02822 0.987777,0.07056 0.310444,0.04233 0.606777,0.155222 0.860777,0.310444 0.141111,0.08467 0.254,0.211666 0.352778,0.352777 0.07055,0.155222 0.127,0.296333 0.169333,0.465667 0.02822,0.536221 -0.04233,1.044221 -0.183444,1.538109 -0.155223,0.508 -0.409222,0.959555 -0.733778,1.368777 z"
           id="path330" />
      </g>
      <g
         aria-label="！！"
         transform="matrix(0.24026518,0.14683638,-0.32143404,0.47077918,-0.05358889,-16.604478)"
         id="text695"
         style="font-size:19.0007px;font-family:KouzanBrushFontGyousyoOTF;-inkscape-font-specification:KouzanBrushFontGyousyoOTF;stroke-width:0.356264">
        <path
           d="m 208.07741,8.2291574 c 0.133,-0.1710063 0.30401,-0.2470091 0.49401,-0.2280084 0.17101,0.019001 0.34202,0.038001 0.51302,0.038001 l 0.32301,-0.4370161 V 7.2221203 L 208.95144,6.6711 c -0.17101,-0.1330049 -0.30401,-0.2470091 -0.47502,-0.3610133 -0.17101,-0.076003 -0.38001,-0.1330049 -0.58902,-0.1330049 l -0.55102,0.057002 c -0.095,0.1140042 -0.15201,0.2280084 -0.19001,0.3610133 -0.038,0.1330049 -0.057,0.2850105 -0.057,0.4370161 h -0.114 v 0.3230119 l 0.43701,0.4940182 z m 0.45601,-2.9261078 h 0.17101 l 0.133,-1.0070371 h 0.11401 c 0.26601,-0.4940182 0.39901,-1.0450385 0.39901,-1.6530609 0,-0.5890217 0.019,-1.1780434 0.057,-1.76706505 l -0.057,-0.1330049 0.17101,-1.0450385 h 0.114 l 0.39902,-2.24208265 c 0,-0.5510203 -0.038,-1.0640392 -0.13301,-1.5580574 -0.095,-0.5130189 -0.30401,-0.950035 -0.62702,-1.387051 -0.133,-0.095003 -0.26601,-0.1330049 -0.39901,-0.1710063 -0.15201,-0.038001 -0.30402,-0.076003 -0.47502,-0.1330049 h -0.60802 v 0.1330049 l -0.76003,0.4940181 -0.11401,0.190007 h -0.133 l -0.45602,0.8740322 c 0.095,1.4060518 0.26601,2.7741022 0.51302,4.12315195 0.22801,1.36805035 0.53202,2.69809935 0.87403,4.02814835 h 0.13301 v 0.380014 c 0.019,0.038001 0.057,0.095003 0.076,0.190007 0.019,0.076003 0.095,0.1140042 0.22801,0.1140042 l 0.133,0.380014 0.24701,0.1330049 z"
           id="path327" />
        <path
           d="m 227.07807,8.2291574 c 0.133,-0.1710063 0.30401,-0.2470091 0.49402,-0.2280084 0.171,0.019001 0.34201,0.038001 0.51302,0.038001 l 0.32301,-0.4370161 V 7.2221203 L 227.9521,6.6711 c -0.171,-0.1330049 -0.30401,-0.2470091 -0.47502,-0.3610133 -0.171,-0.076003 -0.38001,-0.1330049 -0.58902,-0.1330049 l -0.55102,0.057002 c -0.095,0.1140042 -0.152,0.2280084 -0.19,0.3610133 -0.038,0.1330049 -0.057,0.2850105 -0.057,0.4370161 h -0.114 v 0.3230119 l 0.43702,0.4940182 z m 0.45602,-2.9261078 h 0.171 l 0.13301,-1.0070371 h 0.114 c 0.26601,-0.4940182 0.39902,-1.0450385 0.39902,-1.6530609 0,-0.5890217 0.019,-1.1780434 0.057,-1.76706505 l -0.057,-0.1330049 0.171,-1.0450385 h 0.11401 l 0.39901,-2.24208265 c 0,-0.5510203 -0.038,-1.0640392 -0.133,-1.5580574 -0.095,-0.5130189 -0.30401,-0.950035 -0.62703,-1.387051 -0.133,-0.095003 -0.26601,-0.1330049 -0.39901,-0.1710063 -0.15201,-0.038001 -0.30401,-0.076003 -0.47502,-0.1330049 h -0.60802 v 0.1330049 l -0.76003,0.4940181 -0.114,0.190007 h -0.13301 l -0.45601,0.8740322 c 0.095,1.4060518 0.266,2.7741022 0.51301,4.12315195 0.22801,1.36805035 0.53202,2.69809935 0.87404,4.02814835 h 0.133 v 0.380014 c 0.019,0.038001 0.057,0.095003 0.076,0.190007 0.019,0.076003 0.095,0.1140042 0.22801,0.1140042 l 0.13301,0.380014 0.24701,0.1330049 z"
           id="path324" />
      </g>
    </g>
  </g>
</svg>
