<?xml version="1.0" encoding="UTF-8" standalone="no"?>
<!-- Created with Inkscape (http://www.inkscape.org/) -->

<svg
   width="600"
   height="300"
   viewBox="0 0 158.75 79.374998"
   version="1.1"
   id="svg5"
   inkscape:version="1.2.2 (b0a8486, 2022-12-01)"
   sodipodi:docname="Tabekiro-uo.svg"
   inkscape:export-filename="描画.svg"
   inkscape:export-xdpi="96"
   inkscape:export-ydpi="96"
   xmlns:inkscape="http://www.inkscape.org/namespaces/inkscape"
   xmlns:sodipodi="http://sodipodi.sourceforge.net/DTD/sodipodi-0.dtd"
   xmlns="http://www.w3.org/2000/svg"
   xmlns:svg="http://www.w3.org/2000/svg">
  <sodipodi:namedview
     id="namedview7"
     pagecolor="#ffffff"
     bordercolor="#000000"
     borderopacity="0.25"
     inkscape:showpageshadow="2"
     inkscape:pageopacity="0.0"
     inkscape:pagecheckerboard="0"
     inkscape:deskcolor="#d1d1d1"
     inkscape:document-units="mm"
     showgrid="false"
     inkscape:lockguides="false"
     showguides="false"
     inkscape:zoom="1.03745"
     inkscape:cx="333.992"
     inkscape:cy="187.47891"
     inkscape:window-width="1440"
     inkscape:window-height="771"
     inkscape:window-x="1080"
     inkscape:window-y="1616"
     inkscape:window-maximized="0"
     inkscape:current-layer="layer1" />
  <defs
     id="defs2" />
  <g
     inkscape:label="Layer 1"
     inkscape:groupmode="layer"
     id="layer1">
    <g
       aria-label="魚"
       transform="matrix(0.96667415,0.22072519,-0.21300717,0.98583783,-2.971392,8.1940935)"
       id="text591"
       style="font-size:80.7101px;font-family:KouzanBrushFontGyousyoOTF;-inkscape-font-specification:KouzanBrushFontGyousyoOTF;stroke-width:0.420364">
      <path
         d="m 88.71417,36.02391 1.129941,-0.16142 v -0.32284 l 0.887811,-0.16142 v -0.564971 l 2.986274,-0.564971 c -0.161421,-0.24213 -0.403551,-0.48426 -0.645681,-0.645681 -0.32284,-0.16142 -0.484261,-0.40355 -0.484261,-0.8071 l -0.726391,-0.484261 0.484261,-1.129941 v -0.242131 l -1.452782,0.403551 C 88.87559,30.939174 86.857837,30.454914 84.840085,29.809233 82.822332,29.244262 80.80458,28.760002 78.867538,28.275741 h -0.322841 l 0.887811,2.179173 2.179173,1.856332 v 0.24213 l 3.309114,2.259883 h 0.726391 l 0.16142,0.564971 z m 15.65776,0 -0.48426,-0.48426 0.0807,-0.564971 0.96852,0.403551 3.30911,-1.694912 v -0.322841 h 0.16142 l -0.96852,-0.807101 v -0.24213 l -0.64568,-0.24213 -0.16142,-0.564971 c -1.6142,-0.564971 -3.14769,-1.129941 -4.8426,-1.533492 -1.61421,-0.40355 -3.389829,-0.726391 -5.004031,-0.887811 h -2.098462 l 0.24213,0.564971 1.291362,0.968521 v 0.32284 c 0.968521,0.726391 1.856332,1.372072 2.905563,1.775622 0.968518,0.564971 1.856328,1.210652 2.905568,1.937043 l 0.16142,-0.242131 1.12994,0.403551 z m 19.37042,-1.049231 -0.56497,-1.129941 v -0.726391 l 0.72639,0.564971 c 0.48426,0 0.96852,0.08071 1.37207,0.32284 0.40355,0.24213 0.80711,0.484261 1.21066,0.645681 l 0.56497,-0.242131 v -0.32284 h -0.40355 l -0.40355,-0.726391 v -0.40355 c 0.56497,0.24213 1.04923,0.40355 1.53349,0.40355 0.56497,0 1.04923,0.08071 1.6142,0.16142 h 0.56497 l 0.56497,-0.72639 v -0.403551 l -2.09846,-0.645681 v -0.40355 h 0.72639 v -0.16142 h -0.16142 v -0.726391 c -0.96852,-0.242131 -1.77562,-0.564971 -2.66343,-0.968522 -0.88782,-0.40355 -1.85634,-0.64568 -2.74415,-0.887811 v -0.32284 c -1.37207,-0.726391 -2.82485,-1.210651 -4.27763,-1.452782 -1.5335,-0.16142 -2.98628,-0.48426 -4.51977,-0.968521 h -0.56497 l 1.69491,2.986274 h 0.32284 v 0.24213 l 1.21065,1.372072 h 0.40356 l 0.96852,0.887811 1.45278,0.40355 1.21065,1.775622 -0.16142,-0.56497 v -0.403551 l 1.69491,1.291362 z m 7.9903,-3.228404 c 1.12994,-0.40355 2.25988,-0.807101 3.30912,-1.210651 1.04923,-0.403551 2.17917,-0.807101 3.2284,-1.049232 0.72639,-0.08071 1.45278,0.08071 2.01775,0.564971 0.56497,0.484261 1.04923,0.887811 1.6142,1.129942 h 0.56498 v -0.564971 l 0.72639,0.32284 h 0.40355 v -0.32284 h 0.40355 v -0.403551 l 2.09846,0.403551 1.37207,-0.16142 -0.40355,-0.807101 -0.56497,-0.161421 -0.16142,-0.48426 c -1.85633,-1.372072 -3.79337,-2.421303 -5.73042,-3.228404 -2.01775,-0.726391 -4.19692,-1.291362 -6.45681,-1.533492 l -0.96852,0.16142 -0.16142,-0.16142 -4.60047,0.726391 c 1.12994,0.16142 2.25988,0.32284 3.30911,0.564971 1.12994,0.16142 2.17917,0.48426 3.06699,0.887811 -0.24213,0.968521 -0.56497,1.856332 -1.12995,2.663433 -0.56497,0.887811 -1.21065,1.694912 -1.93704,2.421303 z M 100.90139,19.801181 c 2.09847,-0.322841 4.03551,-0.807101 5.89184,-1.533492 1.77562,-0.726391 3.71267,-1.452782 5.64971,-2.098463 l 0.72639,0.242131 2.74414,-0.887812 0.56497,0.08071 2.09847,2.986273 1.69491,-0.56497 0.88781,0.40355 0.88781,-0.40355 c 0.88781,-2.582724 1.69491,-5.326867 2.34059,-7.9903 0.72639,-2.6634335 1.61421,-5.3268667 2.66344,-7.9902999 h 0.32284 l 0.16142,-0.5649707 0.72639,-0.4035505 V 0.75359749 l 0.56497,-0.2421303 c 0.24213,-0.32284039 0.40355,-0.64568078 0.56497,-1.04923127 0.0807,-0.4035505 0.24213,-0.64568082 0.32284,-1.04923132 l 0.8071,-0.2421303 0.32284,-2.0177524 h 0.64568 l -0.56497,-1.0492313 c -0.16142,-0.08071 -0.32284,-0.3228404 -0.48426,-0.5649707 -0.24213,-0.2421303 -0.48426,-0.2421303 -0.88781,-0.1614202 l -0.40355,-0.9685212 c -1.04923,-0.7263908 -2.09846,-1.2913615 -3.22841,-1.6142019 -1.12994,-0.3228404 -2.25988,-0.5649707 -3.63195,-0.7263909 l -5.48829,0.9685212 c -1.21065,0 -2.34059,-0.3228404 -3.14769,-0.9685212 -0.96852,-0.5649707 -2.01775,-0.8878111 -2.98627,-0.8878111 v -0.5649706 l 0.8071,-0.403551 0.16142,-0.32284 c 1.29136,-0.16142 2.4213,-0.564971 3.38982,-1.129941 0.96852,-0.484261 2.09846,-0.807101 3.22841,-0.887811 l 0.16142,-0.564971 1.12994,-0.16142 v -0.403551 l 1.21065,-0.32284 v -0.16142 l 0.72639,-0.322841 v -0.40355 l -0.8071,-0.968521 c -1.53349,-0.484261 -2.90557,-1.129942 -4.19693,-1.775623 -1.37207,-0.72639 -2.82485,-1.210651 -4.43905,-1.291361 l -0.72639,0.16142 -1.6142,-0.16142 -0.16143,-0.322841 c -1.53349,-0.887811 -2.98627,-1.614202 -4.51976,-2.259882 -1.45278,-0.564971 -3.06698,-1.210652 -4.60048,-1.775622 h -0.16142 l 0.16142,0.887811 v 0.56497 c -1.614198,2.663434 -3.14769,5.326867 -4.681182,7.9903 -1.533492,2.744143 -3.309114,5.2461564 -5.326866,7.5060392 l 2.179172,-1.0492313 2.502013,-2.6634329 2.744144,-1.533492 0.32284,-0.564971 0.403551,-0.564971 h 0.40355 v -0.40355 h 0.32284 l 0.242131,-0.564971 c 1.291357,-0.48426 2.663437,-1.049231 4.116217,-1.614202 1.29136,-0.48426 2.74414,-1.049231 4.0355,-1.614202 l 0.72639,0.322841 c -1.45278,2.582723 -2.82485,5.165446 -4.0355,7.7481691 -1.12994,2.5827232 -2.58272,5.0847362 -4.11622,7.5867492 v 0.4035505 l 0.64568,-0.4035505 0.56498,-1.0492312 0.56497,-0.2421303 h 0.40355 l 0.88781,2.74414331 0.56497,0.1614202 V 0.350047 h 0.32284 v 0.40355049 l 0.56497,0.56497071 0.56497,0.1614202 0.72639,-0.1614202 c 0.40355,0 0.72639,0 1.04923,0 0.24213,0 0.40355,0.1614202 0.56497,0.5649707 l -0.24213,2.0984625 c -1.53349,0.7263909 -3.14769,1.5334919 -4.68118,2.1791727 -1.61421,0.7263909 -3.147697,1.5334918 -4.761899,2.4213029 H 97.43086 L 96.381629,6.5647246 C 94.767427,5.6769135 93.233935,5.0312327 91.539023,4.3048418 89.924821,3.5784509 88.310619,2.85206 86.777127,2.0449591 h -0.56497 l 4.196925,3.7126645 c 0.64568,0.8878111 1.210651,1.8563322 1.614202,2.7441433 0.40355,0.807101 0.56497,1.8563321 0.56497,2.9862741 l 0.887811,0.72639 0.887811,1.614202 2.582724,2.017753 1.614202,-0.24213 v -0.242131 l 1.291361,0.242131 v 0.40355 l -0.564971,0.403551 0.242131,1.856332 z m 0.7264,-5.004026 -0.16142,0.16142 -0.88782,-0.16142 c -0.32284,-0.645681 -0.56497,-1.372072 -0.726387,-2.098463 -0.24213,-0.645681 -0.564971,-1.372072 -1.129941,-1.937042 l 0.24213,-0.564971 c 1.210648,-0.6456808 2.502018,-1.2106515 3.954798,-1.614202 1.29136,-0.4842606 2.66343,-0.9685212 4.0355,-1.4527817 h 0.48426 c 0.24213,0.9685211 0.0807,1.694912 -0.56497,2.1791726 -0.72639,0.5649707 -1.21065,1.2913611 -1.53349,2.0177521 h -0.40355 l -3.06698,3.066984 z m 6.61822,-0.726391 -2.74414,1.049231 h -0.72639 v -0.564971 l 0.88781,-0.16142 v -0.32284 l 1.53349,-0.968521 h 0.64568 l 0.56497,0.72639 z m 5.97255,-0.807101 h -2.17917 l 0.72639,-2.502013 -0.16142,-0.9685215 0.72639,-1.7756222 c 0.96852,-0.7263909 2.01775,-1.3720716 3.14769,-1.8563322 0.96852,-0.4842606 2.01776,-1.0492313 2.90557,-1.9370424 L 118.81904,3.659161 V 3.2556105 c -0.88781,-0.2421303 -1.77563,-0.5649707 -2.66344,-0.8071009 -0.88781,-0.2421303 -1.93704,-0.2421303 -2.98627,-0.08071 l -0.56497,-0.726391 V 0.75359749 L 113.16933,0.350047 V 0.0272066 c 1.04923,-0.64568078 2.09846,-1.2913616 3.14769,-2.1791726 0.96852,-0.8878111 2.01776,-1.4527818 3.22841,-1.8563323 h 1.21065 c 0,2.9055635 -0.16142,5.730417 -0.56497,8.4745603 -0.40355,2.7441433 -0.96852,5.4075766 -1.6142,8.07101 l -0.72639,0.16142 h -1.04924 v -0.16142 l -2.4213,-0.645681 -1.04923,-1.533492 h -0.16142 l 0.72639,2.340593 h 0.32284 z"
         id="path762" />
    </g>
    <g
       aria-label="たべきろ"
       id="text640"
       style="font-size:14.1111px;font-family:KouzanBrushFontGyousyoOTF;-inkscape-font-specification:KouzanBrushFontGyousyoOTF;stroke-width:0.264583">
      <path
         d="m 10.933987,53.494587 0.169333,-0.05645 c 0.112889,-0.127 0.169333,-0.282222 0.169333,-0.451555 0,-0.155222 0.01411,-0.296333 0.04233,-0.423333 l -0.04233,-0.239889 0.620889,-2.681109 h 0.112888 c 0.155223,-0.719666 0.352778,-1.439332 0.564444,-2.130776 0.197556,-0.705555 0.437445,-1.396999 0.677333,-2.088443 l 1.001888,-0.634999 0.05645,-0.155222 0.366888,-0.239889 v -0.04233 h -0.09878 v -0.197556 l -1.269999,-0.05644 c -0.05645,-0.225778 -0.09878,-0.451555 -0.141111,-0.691444 -0.04233,-0.225778 -0.09878,-0.451555 -0.169334,-0.663222 l -0.465666,-0.507999 h -0.05644 l 0.05644,0.112889 -0.112889,0.296333 -0.169333,0.282222 c 0,0.169333 0,0.338666 0,0.479777 0,0.169333 0.05645,0.324555 0.169333,0.451555 l -0.05644,1.28411 -0.578555,0.183445 -0.268111,-0.09878 c -0.155222,0 -0.324555,0.04233 -0.479777,0.127 -0.141111,0.08467 -0.324556,0.112889 -0.508,0.07055 l -0.05644,0.141111 -0.155223,0.05644 0.04233,0.395111 0.451555,0.324555 c 0.225778,0 0.451555,-0.01411 0.649111,-0.08467 0.183444,-0.05644 0.39511,-0.112889 0.606777,-0.183444 h 0.141111 c -0.197556,1.142999 -0.451555,2.257776 -0.719666,3.344331 -0.296333,1.086554 -0.578555,2.201331 -0.846666,3.287886 l 0.05644,0.592666 v -0.05644 h 0.112889 z m 0.338666,-1.016 -0.05644,0.05645 -0.05645,-0.05645 v -0.155222 h 0.112889 z m 6.505217,-0.691443 0.592667,-0.04233 0.09878,-0.197555 -0.05644,-0.197556 -0.888999,-0.197555 c -0.338667,-0.197555 -0.677333,-0.451555 -0.959555,-0.733777 -0.310444,-0.296333 -0.564444,-0.592666 -0.790222,-0.931333 h -0.05644 l -0.05645,0.310444 c 0.04233,0.169334 0.07056,0.352778 0.112889,0.522111 0.04233,0.169333 0.112889,0.338667 0.225778,0.493889 0.225777,0.253999 0.507999,0.479777 0.804333,0.663221 0.296333,0.169334 0.620888,0.282222 0.973665,0.310445 z m -2.300109,-4.444997 1.100666,-0.09878 0.620888,0.04233 1.001888,-0.09878 v -0.09878 h 0.268111 l 0.05645,-0.09878 v -0.09878 L 18.08832,46.749466 c -0.564444,0 -1.086555,0.02822 -1.594555,0.09878 -0.507999,0.07056 -1.015999,0.141111 -1.495776,0.239889 0,0.09878 0.05644,0.155222 0.183444,0.155222 0.127,0 0.225778,0.02822 0.296333,0.09878 z"
         id="path753" />
      <path
         d="m 33.031943,50.234923 v -0.239889 h 0.05644 v -0.127 h 0.197556 v -0.09878 l -0.155222,-0.141111 h -0.09878 v -0.09878 h -0.211666 v -0.141111 l -0.296334,-0.09878 v -0.127 l -0.423333,-0.197555 -0.04233,-0.141111 c -0.127,-0.09878 -0.254,-0.183445 -0.381,-0.296334 -0.126999,-0.112888 -0.253999,-0.183444 -0.437444,-0.225777 v -0.09878 H 31.1975 v -0.09878 l -0.564444,-0.310444 -0.451555,-0.197555 v -0.08467 h -0.112889 v -0.09878 c -0.395111,-0.352777 -0.846666,-0.620888 -1.298221,-0.832554 -0.451555,-0.211667 -0.917222,-0.366889 -1.41111,-0.493889 -0.296333,0.04233 -0.592666,0.08467 -0.846666,0.141111 -0.282222,0.07056 -0.550333,0.155222 -0.832555,0.282222 h -0.197556 v -0.04233 c -0.169333,0.02822 -0.338666,0.07055 -0.479777,0.141111 -0.155222,0.07055 -0.324555,0.09878 -0.493888,0.09878 l -0.05644,0.09878 c -0.127,0.09878 -0.268111,0.183444 -0.423333,0.310444 -0.155222,0.127 -0.310444,0.211667 -0.479777,0.254 l 0.155222,0.888999 2.850442,-1.41111 c 1.015999,0.183445 1.975554,0.536222 2.836331,1.030111 0.874888,0.507999 1.721554,1.001888 2.56822,1.509888 v 0.09878 z M 32.467499,49.43059 32.10061,49.261257 v -0.155222 l 0.366889,0.183444 z M 32.10061,49.204812 h -0.141111 v -0.09878 l -0.155222,-0.04233 v -0.09878 l 0.296333,0.05644 z m -0.959554,-3.400775 0.05644,-0.08467 0.04233,0.02822 h 0.112889 v -0.07056 h 0.09878 l 0.04233,-0.155222 h 0.05645 L 31.4515,45.056149 C 31.239833,44.957369 31.042278,44.886816 30.844723,44.81626 30.633056,44.74571 30.42139,44.703371 30.223834,44.675149 h -0.09878 v 0.04233 l -0.211666,-0.04233 h -0.05644 l 0.112888,0.239889 h 0.09878 v 0.141111 l 0.254,0.225777 0.310444,0.141111 v 0.09878 z m 1.580443,-0.945444 h 0.04233 v -0.08467 l 0.169333,-0.155222 -0.112888,-0.324556 c -0.169334,-0.155222 -0.366889,-0.268111 -0.606778,-0.310444 -0.225777,-0.02822 -0.479777,-0.07055 -0.719666,-0.112889 h -0.141111 l 0.09878,0.141111 0.197555,0.183445 h 0.09878 l 0.05644,0.155222 0.296333,0.183444 v 0.08467 z"
         id="path755" />
      <path
         d="m 44.518352,53.014809 0.888999,-0.155222 v -0.04233 C 44.518352,52.704365 43.671686,52.535032 42.82502,52.351588 41.992465,52.182254 41.15991,51.928255 40.341466,51.61781 40.242689,51.519033 40.1298,51.420255 40.016911,51.321477 39.904022,51.2227 39.861689,51.081589 39.904022,50.926366 l -0.324555,0.04233 c 0,0.225777 0.05644,0.437444 0.155222,0.606777 0.112889,0.155222 0.211666,0.338666 0.282222,0.550333 0.649111,0.338666 1.368777,0.578555 2.130776,0.691444 0.776111,0.127 1.566332,0.197555 2.370665,0.197555 z m -0.747888,-3.612441 c 0.08467,-0.09878 0.225777,-0.169334 0.39511,-0.225778 0.169334,-0.04233 0.310445,-0.08467 0.465667,-0.127 l 0.169333,-0.592666 c 0,-0.310444 -0.04233,-0.592666 -0.112889,-0.888999 -0.07055,-0.282222 -0.169333,-0.564444 -0.282222,-0.818444 -0.02822,-0.141111 -0.01411,-0.254 0.02822,-0.338667 0.05645,-0.07055 0.127,-0.169333 0.197556,-0.268111 0.04233,-0.282222 0.01411,-0.52211 -0.05645,-0.747888 -0.07055,-0.211666 -0.169333,-0.409222 -0.268111,-0.606777 v -0.169333 l 0.762,-0.592667 -0.05645,-0.338666 -0.493888,-0.268111 -1.523999,0.05645 -0.507999,-0.05645 c -0.04233,-0.169333 -0.05644,-0.352777 -0.05644,-0.536222 0,-0.169333 -0.08467,-0.338666 -0.268111,-0.479777 l -0.225777,0.112889 0.07056,0.550333 v 0.451555 l -1.15711,0.254 h -0.282222 v -0.05644 c -0.155222,0.141111 -0.324555,0.268111 -0.550333,0.352778 -0.225778,0.112889 -0.409222,0.211666 -0.592666,0.310444 v 0.09878 l 0.761999,0.09878 0.663222,-0.09878 0.141111,0.05644 c 0.197555,0 0.395111,-0.01411 0.592666,-0.02822 0.197555,-0.01411 0.381,-0.05645 0.522111,-0.127 l 0.169333,0.05644 0.423333,0.733778 -1.044221,1.269999 h -0.09878 l -0.381,0.507999 c 0,0.197556 0.01411,0.395111 0.05644,0.564444 0.04233,0.183444 0.126999,0.338667 0.26811,0.437444 0.451556,0.04233 0.846667,-0.01411 1.213555,-0.155222 0.366889,-0.127 0.705555,-0.310444 1.058333,-0.550333 h 0.08467 l 0.395111,1.15711 c 0.04233,0.211667 0,0.381 -0.112889,0.550333 -0.112889,0.169334 -0.239888,0.324556 -0.366888,0.451556 z m -0.620889,-2.55411 -1.044221,0.451556 h -0.395111 c 0.112889,-0.310445 0.254,-0.606778 0.395111,-0.917222 0.155222,-0.296333 0.352777,-0.592666 0.592666,-0.846666 h 0.183444 l 0.649111,0.945444 z m 0.987777,-0.804332 c -0.183444,-0.09878 -0.324555,-0.239889 -0.437444,-0.409222 -0.112889,-0.169333 -0.239889,-0.324555 -0.395111,-0.465666 v -0.08467 c 0.112889,-0.04233 0.239889,-0.05644 0.366889,-0.05644 0.127,0 0.225778,-0.07056 0.296333,-0.197556 h 0.225778 l 0.112888,0.197556 c 0,0.169333 0,0.324555 0,0.479777 0,0.155222 -0.05644,0.282222 -0.169333,0.423333 z m -0.931332,-1.213555 -0.05645,0.05645 h -0.09878 l -0.239889,-0.550333 v -0.09878 l 0.77611,-0.169333 h 0.127 z"
         id="path757" />
      <path
         d="m 58.911648,53.000698 1.016,-1.086555 h 0.112888 l -0.112888,0.183445 v 0.09878 l 0.112888,-0.282222 0.155223,-0.05644 0.05644,-0.141111 0.141111,-0.05644 0.423333,-0.903111 c 0,-0.296333 -0.02822,-0.550333 -0.07056,-0.818444 -0.05644,-0.253999 -0.169333,-0.479777 -0.352777,-0.663221 -0.268111,-0.282222 -0.592666,-0.493889 -0.945444,-0.635 -0.352777,-0.155222 -0.733777,-0.254 -1.114777,-0.324555 -0.874888,0 -1.650998,0.155222 -2.370665,0.451555 -0.733777,0.310444 -1.425221,0.677333 -2.074331,1.128888 h -0.05645 c 0.409222,-0.987777 0.959555,-1.904998 1.66511,-2.779887 0.677333,-0.846666 1.185333,-1.792109 1.495777,-2.808109 0,-0.197555 0.01411,-0.39511 0.02822,-0.606777 0.01411,-0.211666 -0.08467,-0.381 -0.282222,-0.507999 -0.352778,-0.02822 -0.663222,0 -0.959555,0.07055 -0.282222,0.08467 -0.578555,0.183444 -0.860777,0.310444 L 54.297319,42.89715 h -0.05645 c -0.02822,0.239889 0,0.437445 0.08467,0.606778 0.07055,0.183444 0.169333,0.366888 0.282222,0.550333 l 0.366888,0.197555 c 0.197556,0 0.395111,-0.04233 0.578556,-0.127 0.155222,-0.07056 0.324555,-0.155222 0.507999,-0.254 h 0.09878 c -0.239889,1.255888 -0.719666,2.412998 -1.439332,3.485442 -0.733778,1.086555 -1.439333,2.144887 -2.130777,3.20322 -0.07055,0.07055 -0.141111,0.141111 -0.225777,0.211666 -0.08467,0.08467 -0.183444,0.112889 -0.282222,0.08467 l 0.04233,0.479777 h 0.112889 l 0.05644,0.522111 0.197556,0.09878 c 0.310444,-0.155222 0.620888,-0.338667 0.931332,-0.550333 0.324556,-0.211667 0.620889,-0.423333 0.931333,-0.649111 l 0.08467,-0.197555 c 0.493888,-0.338667 0.987777,-0.677333 1.467554,-0.973666 0.479777,-0.310444 0.987777,-0.536222 1.552221,-0.691444 0.352778,0 0.663222,0.02822 0.987777,0.07056 0.310444,0.04233 0.606777,0.155222 0.860777,0.310444 0.141111,0.08467 0.254,0.211666 0.352778,0.352777 0.07055,0.155222 0.127,0.296333 0.169333,0.465667 0.02822,0.536221 -0.04233,1.044221 -0.183444,1.538109 -0.155223,0.508 -0.409222,0.959555 -0.733778,1.368777 z"
         id="path759" />
    </g>
    <g
       aria-label="！！"
       transform="matrix(0.5836836,0.37703897,-0.78086969,1.2088428,17.073941,-34.794171)"
       id="text695"
       style="font-size:19.0007px;font-family:KouzanBrushFontGyousyoOTF;-inkscape-font-specification:KouzanBrushFontGyousyoOTF;stroke-width:0.356264">
      <path
         d="m 208.07741,8.2291574 c 0.133,-0.1710063 0.30401,-0.2470091 0.49401,-0.2280084 0.17101,0.019001 0.34202,0.038001 0.51302,0.038001 l 0.32301,-0.4370161 V 7.2221203 L 208.95144,6.6711 c -0.17101,-0.1330049 -0.30401,-0.2470091 -0.47502,-0.3610133 -0.17101,-0.076003 -0.38001,-0.1330049 -0.58902,-0.1330049 l -0.55102,0.057002 c -0.095,0.1140042 -0.15201,0.2280084 -0.19001,0.3610133 -0.038,0.1330049 -0.057,0.2850105 -0.057,0.4370161 h -0.114 v 0.3230119 l 0.43701,0.4940182 z m 0.45601,-2.9261078 h 0.17101 l 0.133,-1.0070371 h 0.11401 c 0.26601,-0.4940182 0.39901,-1.0450385 0.39901,-1.6530609 0,-0.5890217 0.019,-1.1780434 0.057,-1.76706505 l -0.057,-0.1330049 0.17101,-1.0450385 h 0.114 l 0.39902,-2.24208265 c 0,-0.5510203 -0.038,-1.0640392 -0.13301,-1.5580574 -0.095,-0.5130189 -0.30401,-0.950035 -0.62702,-1.387051 -0.133,-0.095003 -0.26601,-0.1330049 -0.39901,-0.1710063 -0.15201,-0.038001 -0.30402,-0.076003 -0.47502,-0.1330049 h -0.60802 v 0.1330049 l -0.76003,0.4940181 -0.11401,0.190007 h -0.133 l -0.45602,0.8740322 c 0.095,1.4060518 0.26601,2.7741022 0.51302,4.12315195 0.22801,1.36805035 0.53202,2.69809935 0.87403,4.02814835 h 0.13301 v 0.380014 c 0.019,0.038001 0.057,0.095003 0.076,0.190007 0.019,0.076003 0.095,0.1140042 0.22801,0.1140042 l 0.133,0.380014 0.24701,0.1330049 z"
         id="path765" />
      <path
         d="m 227.07807,8.2291574 c 0.133,-0.1710063 0.30401,-0.2470091 0.49402,-0.2280084 0.171,0.019001 0.34201,0.038001 0.51302,0.038001 l 0.32301,-0.4370161 V 7.2221203 L 227.9521,6.6711 c -0.171,-0.1330049 -0.30401,-0.2470091 -0.47502,-0.3610133 -0.171,-0.076003 -0.38001,-0.1330049 -0.58902,-0.1330049 l -0.55102,0.057002 c -0.095,0.1140042 -0.152,0.2280084 -0.19,0.3610133 -0.038,0.1330049 -0.057,0.2850105 -0.057,0.4370161 h -0.114 v 0.3230119 l 0.43702,0.4940182 z m 0.45602,-2.9261078 h 0.171 l 0.13301,-1.0070371 h 0.114 c 0.26601,-0.4940182 0.39902,-1.0450385 0.39902,-1.6530609 0,-0.5890217 0.019,-1.1780434 0.057,-1.76706505 l -0.057,-0.1330049 0.171,-1.0450385 h 0.11401 l 0.39901,-2.24208265 c 0,-0.5510203 -0.038,-1.0640392 -0.133,-1.5580574 -0.095,-0.5130189 -0.30401,-0.950035 -0.62703,-1.387051 -0.133,-0.095003 -0.26601,-0.1330049 -0.39901,-0.1710063 -0.15201,-0.038001 -0.30401,-0.076003 -0.47502,-0.1330049 h -0.60802 v 0.1330049 l -0.76003,0.4940181 -0.114,0.190007 h -0.13301 l -0.45601,0.8740322 c 0.095,1.4060518 0.266,2.7741022 0.51301,4.12315195 0.22801,1.36805035 0.53202,2.69809935 0.87404,4.02814835 h 0.133 v 0.380014 c 0.019,0.038001 0.057,0.095003 0.076,0.190007 0.019,0.076003 0.095,0.1140042 0.22801,0.1140042 l 0.13301,0.380014 0.24701,0.1330049 z"
         id="path767" />
    </g>
    <g
       aria-label="うお"
       transform="matrix(0.79497747,0.36865327,-0.51724349,1.018037,0,0)"
       id="text297"
       style="font-size:11.6254px;font-family:KouzanBrushFontGyousyoOTF;-inkscape-font-specification:KouzanBrushFontGyousyoOTF;fill:#241c1c;stroke-width:0.670701">
      <path
         d="m 144.37159,-28.173622 c 0.29063,-0.848654 0.62777,-1.697308 1.01141,-2.522711 0.37201,-0.813778 0.6394,-1.674058 0.7789,-2.580839 0.0232,-0.465016 0.0116,-0.906781 -0.0232,-1.336921 -0.0349,-0.418515 -0.19763,-0.790527 -0.48827,-1.092788 l -0.59289,-0.255758 c -0.26739,-0.03488 -0.49989,0 -0.7324,0.08138 -0.22088,0.08138 -0.45339,0.174381 -0.67427,0.255759 h -0.12788 v -0.0465 c -0.11626,0.03488 -0.22089,0.06975 -0.31389,0.12788 -0.10463,0.05813 -0.22088,0.093 -0.37201,0.093 0.0349,0.139505 -0.0116,0.255759 -0.11626,0.348762 -0.11625,0.104629 -0.16275,0.232508 -0.12788,0.372013 h -0.0465 v 0.127879 h -0.0465 v 0.08138 l 0.093,0.0465 0.0814,0.383638 c 0.37201,-0.162756 0.70915,-0.383638 1.03466,-0.639397 0.33714,-0.255759 0.67428,-0.441765 1.04629,-0.546394 l 0.34876,0.08138 c 0.16276,0.186006 0.27901,0.43014 0.33714,0.697524 0.0581,0.267384 0.093,0.534768 0.12788,0.778902 0,0.964908 -0.12788,1.906565 -0.38364,2.824972 -0.25576,0.906781 -0.52315,1.801937 -0.81378,2.673842 z m 1.15091,-9.32357 0.38364,-0.162756 c 0,-0.116254 0,-0.232508 0,-0.337136 0,-0.104629 -0.0465,-0.162756 -0.12788,-0.220883 -0.186,-0.15113 -0.39526,-0.290635 -0.59289,-0.406889 -0.19763,-0.127879 -0.43014,-0.220883 -0.6859,-0.27901 h -0.12788 c 0.0814,0.267385 0.22088,0.488267 0.38364,0.685899 0.17438,0.186006 0.38364,0.337137 0.6394,0.418514 z"
         id="path417" />
      <path
         d="m 154.14853,-29.603546 0.27901,-0.0465 c 0.16275,-0.127879 0.29063,-0.255758 0.39526,-0.418514 0.0814,-0.162756 0.16276,-0.313886 0.24414,-0.488267 0.41851,-0.325511 0.8719,-0.60452 1.34854,-0.813778 0.47664,-0.209257 0.97654,-0.360387 1.5113,-0.441765 0.29064,-0.02325 0.56965,-0.01162 0.84866,0.02325 0.29063,0.0465 0.52314,0.162756 0.74402,0.360387 l -0.0814,0.162756 -1.08117,-0.244133 0.33714,0.244133 -0.0465,0.127879 v 0.03488 l 0.16275,0.0465 0.23251,0.418515 0.43014,0.255758 c 0.17438,0.02325 0.31389,0 0.46502,-0.05813 0.15113,-0.05813 0.27901,-0.104628 0.41851,-0.15113 l 0.16276,-0.383638 c -0.0349,-0.197632 -0.0697,-0.360387 -0.11626,-0.511518 -0.0581,-0.15113 -0.15113,-0.30226 -0.27901,-0.441765 -0.186,-0.220882 -0.40688,-0.360387 -0.65102,-0.441765 -0.26738,-0.06975 -0.52314,-0.116254 -0.7789,-0.139505 -0.60452,0 -1.18579,0.08138 -1.73218,0.220883 -0.5464,0.15113 -1.06954,0.372013 -1.58106,0.639397 h -0.0697 l 0.23251,-1.615931 v -1.836813 l -0.0349,-0.0465 v -0.372012 l 0.43014,-0.337137 0.16276,-0.360387 h 0.093 v -0.093 h 0.0697 l 0.0232,-0.093 v -0.03488 h -0.093 v -0.139505 h 0.0697 v -0.02325 l -0.16275,0.116254 v 0.0465 h -0.0349 v 0.03488 h -0.0814 v -0.03488 l -0.44176,0.267384 h -0.11626 v 0.02325 h -0.093 c -0.0465,-0.30226 -0.093,-0.604521 -0.13951,-0.941657 -0.0581,-0.313886 -0.1395,-0.616146 -0.24413,-0.906781 h -0.0465 l 0.27901,1.557803 -0.0232,0.453391 -0.88353,0.372012 c -0.24414,0.03488 -0.44177,0.01163 -0.62777,-0.05813 -0.19763,-0.05813 -0.37202,-0.139504 -0.55802,-0.220882 v -0.0465 l 0.10463,0.08138 0.0465,0.139505 c 0.15113,0.06975 0.32551,0.162755 0.49989,0.279009 0.16276,0.116254 0.34876,0.197632 0.53477,0.244134 l 0.88353,-0.116254 v -0.08138 h 0.10463 l 0.0465,0.674273 c 0.0116,0.58127 0.0116,1.16254 -0.0465,1.720559 -0.0581,0.569645 -0.17438,1.104413 -0.36039,1.604306 l -0.62777,0.337136 v 0.0465 h -0.15113 l 0.0232,0.162755 c -0.0465,0.139505 -0.0814,0.27901 -0.10463,0.418515 -0.0349,0.127879 -0.093,0.255758 -0.17438,0.360387 l 0.12788,0.127879 0.0349,0.244134 0.16276,0.0465 z m 5.45231,-6.97524 h 0.24413 v -0.06975 c 0.0698,0 0.15113,0.01163 0.23251,0.02325 0.0814,0.01163 0.12788,-0.02325 0.15113,-0.093 l 0.12788,-0.0465 0.16276,-0.267384 -0.0465,-0.104629 c -0.10463,-0.15113 -0.22089,-0.255759 -0.34877,-0.325511 -0.1395,-0.06975 -0.29063,-0.139505 -0.44176,-0.186006 -0.19763,0 -0.38364,0.02325 -0.55802,0.05813 -0.19763,0.0465 -0.38364,0.093 -0.55802,0.139504 l 0.0814,0.186007 c 0.15113,0.104628 0.31388,0.197632 0.47664,0.279009 0.15113,0.08138 0.31389,0.186007 0.47664,0.313886 z"
         id="path419" />
    </g>
  </g>
</svg>
