<?xml version="1.0" encoding="UTF-8" standalone="no"?>
<!-- Created with Inkscape (http://www.inkscape.org/) -->

<svg
   width="50mm"
   height="7mm"
   viewBox="0 0 50 7"
   version="1.1"
   id="svg5"
   inkscape:version="1.2.2 (b0a8486, 2022-12-01)"
   sodipodi:docname="topCreateTagLOGO.svg"
   xmlns:inkscape="http://www.inkscape.org/namespaces/inkscape"
   xmlns:sodipodi="http://sodipodi.sourceforge.net/DTD/sodipodi-0.dtd"
   xmlns="http://www.w3.org/2000/svg"
   xmlns:svg="http://www.w3.org/2000/svg">
  <sodipodi:namedview
     id="namedview7"
     pagecolor="#ffffff"
     bordercolor="#000000"
     borderopacity="0.25"
     inkscape:showpageshadow="2"
     inkscape:pageopacity="0.0"
     inkscape:pagecheckerboard="0"
     inkscape:deskcolor="#d1d1d1"
     inkscape:document-units="mm"
     showgrid="false"
     inkscape:zoom="4.7488465"
     inkscape:cx="93.3911"
     inkscape:cy="25.795738"
     inkscape:window-width="1440"
     inkscape:window-height="771"
     inkscape:window-x="1080"
     inkscape:window-y="1616"
     inkscape:window-maximized="0"
     inkscape:current-layer="layer1" />
  <defs
     id="defs2">
    <rect
       x="-1.8951972"
       y="4.0009718"
       width="213.31496"
       height="77.703079"
       id="rect268" />
  </defs>
  <g
     inkscape:label="Layer 1"
     inkscape:groupmode="layer"
     id="layer1">
    <path
       style="fill:none;fill-rule:evenodd;stroke:#000000;stroke-width:0.21864px;stroke-linecap:butt;stroke-linejoin:miter;stroke-opacity:1"
       d="m 4.4186655,7.736698 v 0"
       id="path208"
       inkscape:connector-type="polyline"
       inkscape:connector-curvature="0" />
    <text
       xml:space="preserve"
       transform="scale(0.26458333)"
       id="text266"
       style="font-size:53.3333px;font-family:KouzanBrushFontGyousyoOTF;-inkscape-font-specification:KouzanBrushFontGyousyoOTF;white-space:pre;shape-inside:url(#rect268);display:inline;fill:#000000" />
    <g
       aria-label="管理者ログアウト"
       transform="scale(0.89576052,1.1163698)"
       id="text571"
       style="font-size:7.41119px;font-family:KouzanBrushFontGyousyoOTF;-inkscape-font-specification:KouzanBrushFontGyousyoOTF;fill:#241c1c;stroke-width:0.42757">
      <path
         d="m 1.3442255,6.2559292 h 0.037056 l 0.066701,-0.081523 0.051878,0.014822 0.1111678,-0.029645 0.014822,-0.051878 0.044467,-0.014822 C 1.6480843,6.0484159 1.6332619,6.0039488 1.6332619,5.9520704 1.6258507,5.9076033 1.6110283,5.8483138 1.6036172,5.7890243 l 0.022234,-0.1334015 -0.00741,-0.2297469 h -0.051878 l 0.022234,-0.1482238 v -0.074112 l -0.051878,-0.00741 v 0.037056 h -0.051878 l -0.066701,0.3409147 h -0.037056 l 0.029645,-0.1259902 v -0.051878 c -0.029645,0.096345 -0.051878,0.1852797 -0.066701,0.274214 -0.014822,0.096345 -0.037056,0.1852798 -0.081523,0.2593917 h -0.037056 l -0.022234,0.1111678 v 0.051878 z m 0.62254,-0.5187833 c 0.1926909,-0.037056 0.3853818,-0.05929 0.585484,-0.05929 0.1926909,0 0.3853819,-0.014822 0.585484,-0.037056 v -0.029645 h 0.044467 v -0.051878 l 0.2371581,-0.05929 C 3.3971251,5.4629319 3.352658,5.4406983 3.3007797,5.4258759 3.2414901,5.4110536 3.1896118,5.3962312 3.1451447,5.38882 v -0.066701 l 0.1778685,-0.05929 0.066701,-0.066701 0.014822,-0.066701 0.081523,-0.022233 0.1111679,-0.096345 0.096345,-0.1852798 h 0.029645 L 3.8417965,4.6847569 4.0196651,4.610645 V 4.5587667 C 3.8788525,4.5068884 3.7602734,4.4475989 3.6342832,4.3808981 3.508293,4.3290198 3.3823028,4.2919639 3.2266678,4.2771415 3.1080887,4.2697303 2.9895097,4.2697303 2.8709306,4.2697303 2.7449404,4.2771415 2.6263614,4.2993751 2.5151935,4.336431 l -0.118579,-0.00741 v -0.029645 h 0.014822 V 4.2474967 L 2.611539,4.0325722 2.6337726,3.9806939 h 0.037056 C 2.7227068,3.8991708 2.7968187,3.8250589 2.8709306,3.7657694 2.9524537,3.7213022 3.0339768,3.6546015 3.1006775,3.5879008 L 3.1896118,3.5063777 2.9524537,3.4026211 c -0.022234,0 -0.051878,0 -0.074112,-0.00741 -0.022234,0 -0.051878,0.014822 -0.074112,0.037056 h -0.051878 l 0.014822,-0.051878 0.4965497,-0.2149245 0.051878,-0.029645 0.051878,0.00741 c 0.051878,-0.022234 0.096345,-0.051878 0.118579,-0.081523 0.014822,-0.022234 0.037056,-0.051878 0.05929,-0.088934 L 3.5008818,2.7726699 C 3.4490035,2.7133804 3.3823028,2.6763244 3.315602,2.6540909 3.2414901,2.6318573 3.1673782,2.6170349 3.0858552,2.6022125 2.9153978,2.579979 2.7523516,2.5873902 2.5893054,2.6096237 2.4336704,2.6318573 2.2780354,2.6763244 2.144634,2.7282028 v 0.029645 c 0.088934,0.037056 0.1778686,0.066701 0.2742141,0.074112 0.096345,0.00741 0.1926909,0.00741 0.3038587,0.014822 l -0.051878,0.2519805 h -0.029645 l -0.037056,0.074112 h -0.051878 l -0.051878,0.1111678 -0.1482238,0.081523 -0.081523,0.1111679 0.044467,0.2075133 0.118579,0.05929 -0.044467,0.1630462 C 2.3521473,3.9658715 2.3150914,4.0325722 2.2928578,4.0918617 2.2632131,4.1585624 2.2187459,4.217852 2.144634,4.2549079 l -0.022234,0.088934 -0.051878,0.014822 0.081523,0.2519804 0.5261945,-0.096345 h 0.2001021 c -0.00741,0.1037566 -0.022234,0.1926909 -0.044467,0.2816252 -0.022234,0.096345 -0.044467,0.1852797 -0.081523,0.274214 C 2.611539,5.1071948 2.49296,5.1516619 2.3743809,5.1887179 2.2483907,5.233185 2.1298116,5.2776521 2.0038214,5.3147081 l -0.022234,0.051878 -0.074112,0.066701 0.066701,0.2519805 z M 1.5887948,4.7292241 c 0.037056,-0.022234 0.044467,-0.044467 0.051878,-0.074112 0,-0.029645 0,-0.059289 0,-0.096345 0.037056,0 0.051878,0.014822 0.051878,0.051878 -0.00741,0.037056 -0.00741,0.066701 -0.00741,0.096345 L 1.751841,4.3808981 h 0.037056 l -0.022234,-0.074112 v -0.066701 l 0.037056,0.00741 c 0.014822,-0.1408126 0.044467,-0.2668028 0.081523,-0.392793 0.037056,-0.1185791 0.066701,-0.2445693 0.096345,-0.3705596 V 3.3877987 C 1.9445319,3.284042 1.8852424,3.2025189 1.7888969,3.1432294 1.6925514,3.0765287 1.6036172,3.0246504 1.5072717,2.972772 h -0.037056 v 0.066701 l -0.066701,0.022234 c 0.051878,0.1037567 0.096345,0.2149245 0.1334014,0.3260924 0.037056,0.1111678 0.051878,0.2371581 0.051878,0.3631483 l -0.029645,0.3186812 0.014822,0.051878 -0.014822,0.05929 0.00741,0.1482238 -0.022234,0.1408126 v 0.155635 L 1.55915,4.4772436 h 0.037056 l 0.014822,0.066701 -0.00741,0.1408126 z M 0.26219175,3.128407 l 0.0889343,-0.037056 0.0222336,-0.051878 0.037056,0.037056 0.11116785,-0.014822 0.0741119,-0.066701 0.0518783,0.014822 h 0.0148224 L 0.64757364,2.8764266 0.70686316,2.6096237 0.68462959,2.3650545 C 0.64016245,2.3205873 0.59569531,2.2761202 0.55122817,2.2390642 0.49934984,2.2094195 0.44747151,2.1871859 0.39559317,2.1797747 H 0.3733596 l -0.007411,0.05929 h -0.037056 c -0.007411,0.066701 -0.0296448,0.1334014 -0.0518783,0.192691 -0.0296448,0.066701 -0.0667007,0.1111678 -0.11116785,0.155635 L 0.10655676,2.7652587 H 0.09173438 l 0.06670071,0.066701 c -0.007411,0.014822 -0.007411,0.044467 -0.007411,0.066701 0,0.029645 0.0148224,0.044467 0.037056,0.044467 l 0.0741119,0.1630462 z M 3.8269742,2.6318573 3.9677868,2.5281006 4.2271784,2.3798768 4.2568232,2.3354097 C 4.367991,2.268709 4.4865701,2.2242418 4.6125603,2.2020083 4.7311393,2.1797747 4.8571296,2.1575411 4.9831198,2.1278964 v -0.037056 h 0.029645 l 0.014822,-0.051878 h 0.051878 l 0.00741,-0.037056 h 0.029645 l -0.029645,-0.051878 -0.037056,0.022234 H 5.0201758 V 1.9203831 C 4.8645408,1.8536823 4.7014946,1.801804 4.5310372,1.7647481 4.367991,1.7276921 4.1901225,1.6980474 4.0270763,1.6609914 L 3.3378356,1.6758138 H 3.2118454 l 0.037056,-0.096345 h 0.037056 l 0.00741,-0.037056 C 3.3600692,1.52759 3.4267699,1.490534 3.4860594,1.4312445 3.5453489,1.371955 3.6194608,1.3423102 3.7083951,1.334899 v -0.037056 l 0.081523,-0.029645 0.044467,-0.074112 C 3.7973294,1.1422081 3.7380399,1.1051521 3.6565168,1.0829186 3.5675825,1.060685 3.4860594,1.0458626 3.4119475,1.0384514 V 1.0013955 C 3.5898161,0.97916192 3.7676846,0.93469478 3.9307308,0.86799407 4.1011882,0.80129336 4.249412,0.71977027 4.405047,0.61601361 v -0.0370559 l -0.2964476,-0.037056 -0.2519805,0.0222336 -0.014822,0.0518783 -0.096345,0.0148224 v 0.0296448 L 3.2637237,0.81611574 c -0.037056,0 -0.066701,-0.007411 -0.096345,-0.0148224 -0.037056,-0.007411 -0.066701,-0.0222336 -0.088934,-0.0444671 h -0.074112 v 0.0518783 l -0.051878,-0.0222336 -0.014822,-0.007411 0.029645,0.13340142 c 0.044467,0.0222336 0.081523,0.0444671 0.1185791,0.0741119 0.037056,0.0222336 0.074112,0.037056 0.118579,0.0444671 l 0.022234,0.1037567 C 3.2414901,1.2385536 3.234079,1.334899 3.2044342,1.4312445 3.1747894,1.52759 3.1451447,1.6091131 3.1006775,1.683225 L 2.2261571,1.8610935 H 2.1520452 V 1.7943928 L 2.2335683,1.7425145 2.4633152,1.6980474 2.4336704,1.5868795 C 2.3669697,1.5201788 2.300269,1.4683005 2.2261571,1.4312445 2.144634,1.4015998 2.0631109,1.3645438 1.9815878,1.3274879 l -0.2075133,0.00741 c 0.014822,0.096345 0.044467,0.1852798 0.096345,0.2668029 0.051878,0.074112 0.081523,0.155635 0.1111678,0.2371581 v 0.081523 L 1.6851402,1.994495 C 1.6258507,1.9870838 1.5665612,1.957439 1.5220941,1.9129719 1.4776269,1.8610935 1.4257486,1.8314488 1.3738703,1.8166264 1.3590479,1.7795704 1.3442255,1.7499257 1.3219919,1.7128697 1.3071695,1.6758138 1.284936,1.646169 1.2627024,1.6091131 1.2108241,1.5572347 1.1515346,1.5053564 1.0774227,1.4683005 1.0033108,1.4312445 0.92919886,1.3941886 0.86249815,1.3571326 h -0.0296448 l -0.037056,0.1408126 c 0.007411,0.05929 0.0148224,0.1111679 0.0222336,0.1704574 0.007411,0.066701 0.0296448,0.118579 0.0667007,0.1704574 0.0370559,0.022234 0.0741119,0.037056 0.12599018,0.05929 0.037056,0.014822 0.088934,0.014822 0.1408127,0.014822 v 0.044467 l -0.31127002,0.1334014 -0.0518783,0.081523 c 0.007411,0.051878 0.0148224,0.1111679 0.0148224,0.1630462 -0.007411,0.059289 0.0148224,0.1111678 0.0592895,0.1630462 0.0963455,0.00741 0.17045735,-0.00741 0.24456925,-0.037056 0.074112,-0.022234 0.1482238,-0.051878 0.2149245,-0.088934 V 2.3354097 C 1.6777291,2.2464754 2.026055,2.1575411 2.3817921,2.0611957 2.730118,1.9648502 3.0858552,1.9055607 3.4490035,1.8759159 c 0.1037566,0.00741 0.2223357,0.00741 0.3409147,0.014822 0.1037567,0.00741 0.2149245,0.029645 0.31127,0.066701 C 4.093777,2.0834292 4.0641322,2.2020083 4.0196651,2.3057649 3.9677868,2.4169328 3.9084973,2.5281006 3.8269742,2.6318573 Z M 1.2775248,1.8833271 1.2034129,1.9129719 h -0.029645 v -0.044467 l 0.1037567,-0.051878 h 0.029645 z M 0.26219175,1.5942907 0.28442532,1.5498236 h 0.0518783 v -0.029645 h 0.0296448 l 0.037056,-0.1926909 h 0.037056 l 0.007411,-0.029645 0.11857904,-0.096345 C 0.64016245,1.097741 0.70686316,0.9939843 0.77356387,0.89763883 0.84026458,0.80129336 0.89214291,0.6975367 0.94402124,0.60119123 L 1.0774227,0.46778981 1.0033108,0.34179958 0.66980721,0.20098697 c -0.0592895,0.0148224 -0.11116785,0.0222336 -0.16304618,0.0222336 -0.0518783,0.007411 -0.10375667,0.0222336 -0.14822381,0.0444671 l -0.0296448,0.0667007 v 0.0148224 h 0.0148224 l 0.0444671,0.1482238 V 0.6234248 H 0.3733596 l -0.0444671,0.1482238 c 0.0222336,0.0518783 0.037056,0.11116785 0.037056,0.17045737 -0.007411,0.0518783 0,0.11116783 0.0148224,0.16304613 L 0.26219175,1.5646459 Z M 0.95884362,1.2904319 C 1.0329555,1.2533759 1.1144786,1.2311424 1.2108241,1.2237312 1.3071695,1.21632 1.3812814,1.1866752 1.4628045,1.1422081 l 0.044467,-0.051878 h 0.029645 l 0.022234,-0.066701 0.096345,-0.00741 0.066701,-0.11857907 0.051878,-0.0148224 0.00741,-0.0370559 -0.1037566,-0.0148224 -0.044467,0.0148224 -0.155635,-0.0222336 -0.155635,0.0296448 v 0.0148224 L 1.2182353,0.93469478 1.0996562,0.9939843 0.8995541,0.97175073 h -0.037056 L 0.8254422,1.0384514 0.84026458,1.1570305 Z M 2.4262592,1.1199745 2.5670719,1.0088067 2.7894076,0.71235908 c 0.022234,-0.007411 0.051878,-0.0222336 0.081523,-0.037056 0.022234,0 0.029645,-0.0222336 0.022234,-0.0592895 l 0.088934,-0.0296448 0.014822,-0.0518783 0.1037566,-0.0518783 0.00741,-0.0296448 h 0.037056 l 0.05929,-0.14081261 -0.00741,-0.10375666 -0.3853819,-0.0889343 -0.2593916,0.0296448 -0.088934,0.0444672 0.044467,0.15563499 -0.074112,0.5928952 0.022234,0.0592895 -0.022234,0.051878 z"
         id="path573" />
      <path
         d="m 9.5854545,5.4629319 c 0.2371581,-0.037056 0.4743165,-0.1037567 0.6966515,-0.1778686 0.229747,-0.081523 0.466905,-0.1334014 0.711475,-0.155635 l 0.177868,0.029645 -0.177868,0.1926909 v 0.014822 l 0.12599,0.044467 c 0.103757,-0.05929 0.229747,-0.096345 0.355737,-0.1037567 0.118579,-0.014822 0.244569,-0.029645 0.363148,-0.037056 l 0.02223,0.014822 0.05188,-0.014822 c 0.103757,0.014822 0.207514,0.029645 0.31127,0.037056 0.111168,0.022234 0.214925,0.051878 0.31127,0.088934 l 0.266803,-0.051878 0.02223,-0.1852797 0.111167,-0.051878 V 5.0034381 l -0.05188,-0.00741 V 4.958971 C 12.757444,4.8922703 12.631454,4.8329807 12.490641,4.7811024 12.35724,4.7292241 12.238661,4.6773457 12.134904,4.5958227 l -0.140813,0.029645 -0.03706,-0.022234 h -0.103756 l -0.0074,0.037056 -0.244569,-0.037056 -0.755941,-0.014822 0.01482,-0.051878 0.303859,-0.1926909 0.02223,-0.051878 h 0.02223 l 0.07411,-0.1037567 h 0.05188 L 11.786578,3.8102365 11.742111,3.6027232 C 11.623532,3.5212001 11.512364,3.4619106 11.386374,3.4174434 11.260383,3.3655651 11.119571,3.3507427 10.956525,3.3729763 l 0.04447,-0.3705595 0.0667,-0.051878 0.118579,-0.2001022 0.04447,0.014822 0.07411,0.1334014 0.0667,0.074112 0.148224,0.088934 c 0.08152,0.014822 0.148224,-0.00741 0.200102,-0.059289 0.05188,-0.051878 0.111168,-0.074112 0.192691,-0.066701 0.05188,-0.2223357 0.08893,-0.4446714 0.118579,-0.6744183 0.02223,-0.2223357 0.08152,-0.429849 0.170458,-0.6373623 h 0.03706 l 0.163046,-0.348326 0.04447,-0.014822 0.01482,-0.051878 0.07411,-0.014822 0.0667,-0.31868114 -0.0074,-0.0518783 C 12.468407,0.78647098 12.349828,0.73459265 12.231249,0.67530313 12.11267,0.61601361 11.98668,0.56413528 11.86069,0.51966814 l -0.348326,0.0444671 c -0.103757,0.0222336 -0.192691,0.0148224 -0.259392,-0.037056 -0.05929,-0.0444671 -0.133401,-0.0741119 -0.214924,-0.0889343 h -0.12599 L 10.786067,0.6234248 c -0.09634,0.0518783 -0.192691,0.0815231 -0.281625,0.11116785 -0.09634,0.037056 -0.200102,0.0592895 -0.296448,0.0667007 l -0.0074,0.0667007 -0.0667,-0.007411 0.01482,0.0518783 v 0.0370559 l -0.05188,0.0148224 0.111167,0.46690496 0.05188,-0.022234 0.0667,0.037056 0.904165,-0.3631483 h 0.0667 l 0.140813,0.1630462 h 0.111168 l -0.03706,-0.037056 0.02223,-0.088934 0.08152,0.044467 -0.03706,0.392793 -0.274214,-0.096345 -0.251981,0.00741 h -0.103757 v -0.029645 l -0.09635,-0.074112 -0.118579,0.022234 -0.0667,0.1852797 -0.637362,0.2593917 v 0.051878 l 0.155635,0.155635 0.274214,-0.037056 0.200102,0.00741 c 0.03706,0.2075134 -0.0074,0.3631483 -0.140813,0.4891386 -0.140812,0.118579 -0.237158,0.2593916 -0.31127,0.4002042 l 0.170458,0.3779707 0.207513,-0.014822 0.05188,0.00741 v 0.1852798 c -0.111167,0.014822 -0.229746,0.044467 -0.340914,0.081523 -0.111168,0.037056 -0.214925,0.096345 -0.3112702,0.1630462 l -0.029645,0.066701 0.014822,0.081523 0.096346,0.051878 v 0.037056 l -0.01482,-0.051878 0.03706,-0.088934 0.170458,0.05929 0.237158,-0.037056 h 0.08893 v 0.051878 l -0.303859,0.2890364 -0.04447,-0.014822 -0.02223,0.081523 -0.103757,0.044467 v 0.037056 h -0.02965 L 9.800379,4.5735891 c -0.074112,0.081523 -0.1482238,0.1259902 -0.2371581,0.1482238 -0.096345,0.022234 -0.1778685,0.051878 -0.2519804,0.096345 0.00741,0.1111678 0.037056,0.2001021 0.074112,0.2816252 0.044467,0.088934 0.081523,0.1778685 0.118579,0.2593916 h 0.029645 z M 7.0730611,4.7292241 7.1619954,4.7144017 C 7.1916401,4.6254674 7.2435185,4.5439443 7.302808,4.4698324 7.3546863,4.4031317 7.4139758,4.336431 7.4732654,4.2549079 h 0.029645 l 0.1259902,-0.1408126 0.066701,-0.05929 0.1630461,-0.1482238 0.2593917,-0.2519805 0.037056,-0.051878 0.1408126,-0.081523 0.066701,-0.096345 0.051878,-0.022234 0.096345,-0.1334015 h 0.037056 l 0.1630462,-0.1482238 0.029645,-0.066701 0.066701,-0.051878 v -0.014822 h -0.014822 v 0.037056 L 8.4144865,3.2692196 H 8.3848417 L 8.4070753,3.1506406 8.3922529,3.0172392 8.4367201,2.854193 8.4885984,2.8393706 V 2.8097259 L 8.5552991,2.7578475 8.7035229,2.6170349 8.8813915,2.2835314 8.8739803,2.1353076 C 8.8072796,2.0908404 8.7331677,2.0611957 8.6590558,2.0463733 8.5775327,2.0315509 8.4960096,1.994495 8.4293089,1.9352054 L 8.510832,1.6165243 8.7628124,1.490534 8.9480922,1.3052543 8.9555034,1.2756095 8.8888026,1.2385536 8.940681,1.097741 8.9258586,0.97175073 C 8.8295131,0.9198724 8.7331677,0.89022764 8.629411,0.86799407 8.5182431,0.8457605 8.4218977,0.83093812 8.318141,0.80870455 8.0809829,0.89022764 7.8364137,0.98657311 7.6066668,1.1051521 7.3769199,1.2237312 7.1249394,1.2904319 6.8581366,1.2978431 v 0.044467 l 0.096345,0.1037567 c 0.1111679,0.1111678 0.2371581,0.1778686 0.3779707,0.2149245 0.1408127,0.037056 0.2668029,0.1037567 0.3927931,0.2001021 l 0.051878,0.044467 0.044467,0.074112 -0.014822,0.155635 C 7.6881899,2.1871859 7.5696108,2.2390642 7.4510318,2.2909426 7.3250416,2.3502321 7.2064625,2.424344 7.110117,2.5132783 v 0.066701 c 0.044467,0.044467 0.088934,0.081523 0.155635,0.1037566 0.05929,0.022234 0.1185791,0.044467 0.1778686,0.05929 l 0.2001021,-0.051878 0.1334014,0.022234 c 0,0.059289 -0.00741,0.1111678 -0.029645,0.155635 -0.022234,0.051878 -0.059289,0.1037566 -0.1037567,0.1482238 L 7.6956011,3.1209958 7.4362094,3.6101344 7.1545842,3.8917596 7.0508275,4.0918617 c -0.037056,0 -0.059289,0.00741 -0.081523,0.029645 -0.022234,0.022234 -0.044467,0.029645 -0.081523,0.022234 l -0.044467,0.066701 0.1926909,0.5039609 z M 7.9179368,3.6175456 7.9031144,3.632368 h -0.037056 l 0.022234,-0.088934 0.051878,-0.014822 h 0.037056 z m 2.7421402,-0.7485302 -0.133401,0.044467 h -0.02965 l 0.12599,-0.1926909 h 0.03706 z m -0.8374644,-0.1111679 0.00741,-0.081523 h 0.1111678 v 0.029645 h 0.029645 v -0.066701 h 0.037056 l 0.05188,-0.1111679 0.02964,-0.088934 h 0.02223 V 2.3131761 C 9.9856588,2.1501299 9.8596685,1.9796726 9.7040336,1.8166264 9.5558098,1.646169 9.3853524,1.5053564 9.2223062,1.3793662 h -0.022234 c 0.074112,0.2149245 0.1334014,0.429849 0.1778686,0.6447735 0.044467,0.2223357 0.1334014,0.429849 0.274214,0.6077176 z m 1.1635564,-0.118579 h -0.05188 c 0,-0.066701 0.0074,-0.1259902 0.01482,-0.192691 0.0074,-0.066701 0.03706,-0.118579 0.08893,-0.1704573 h 0.03706 c 0,0.05929 -0.0074,0.118579 -0.01482,0.1778685 -0.01482,0.05929 -0.03706,0.1037567 -0.07411,0.1482238 z M 11.36414,2.4762223 h -0.07411 l -0.04447,-0.3038588 v -0.066701 l 0.08893,-0.074112 0.08893,-0.118579 h 0.0667 c -0.0074,0.096345 -0.02223,0.1852797 -0.04447,0.274214 -0.02223,0.088934 -0.04447,0.1778686 -0.08152,0.2593916 z m -0.452082,-0.4520826 -0.01482,0.022234 -0.01482,-0.022234 v -0.081523 h 0.08152 z"
         id="path575" />
      <path
         d="m 18.671559,5.8483138 0.08152,-0.044467 0.07411,-0.066701 h 0.01482 l 0.103756,-0.466905 -0.02223,-0.05929 c 0.03706,-0.2371581 0.05929,-0.4891385 0.08152,-0.7262966 0.01482,-0.2371581 0.05188,-0.466905 0.118579,-0.6966519 l -0.01482,-0.1037566 0.04447,-0.2149245 -0.08152,-0.2668029 -0.348325,-0.155635 -0.148224,0.014822 -0.259392,-0.088934 v -0.044467 l -0.12599,-0.066701 -0.155635,0.029645 -0.04447,0.081523 c -0.08152,0.044467 -0.163046,0.088934 -0.237158,0.1334015 -0.0667,0.044467 -0.155635,0.066701 -0.259392,0.059289 l -0.01482,0.044467 0.0667,0.31127 0.05188,0.022234 0.05929,0.037056 0.03706,0.096345 0.05188,0.022234 h 0.05188 v -0.022234 l 0.148224,-0.081523 0.0074,-0.037056 c 0.08152,-0.037056 0.170457,-0.066701 0.266803,-0.1037567 0.08893,-0.029645 0.177868,-0.051878 0.274214,-0.066701 l 0.111167,0.00741 -0.02964,0.859698 c -0.02223,0.155635 -0.04447,0.3186812 -0.0667,0.466905 -0.02223,0.1630462 -0.05929,0.31127 -0.09634,0.466905 -0.0667,-0.00741 -0.125991,-0.014822 -0.177869,-0.029645 -0.05929,-0.00741 -0.111168,-0.029645 -0.155635,-0.066701 l 0.05929,-0.1259902 h 0.02964 c 0.03706,-0.066701 0.07411,-0.1259903 0.118579,-0.1852798 0.03706,-0.05929 0.07411,-0.118579 0.103757,-0.1852797 h 0.02964 l 0.02223,-0.051878 -0.02223,-0.4002042 c -0.03706,-0.044467 -0.08893,-0.066701 -0.133402,-0.081523 -0.05188,-0.00741 -0.111168,-0.029645 -0.163046,-0.051878 -0.111168,-0.00741 -0.207513,0.014822 -0.289036,0.066701 -0.08894,0.044467 -0.170458,0.081523 -0.266803,0.118579 l -0.01482,0.051878 -0.05188,0.014822 -0.12599,0.1334014 0.01482,0.2075133 0.31127,0.1630462 h 0.01482 c -0.02223,-0.029645 -0.02223,-0.066701 -0.02223,-0.1037566 0.0074,-0.044467 0,-0.081523 -0.02223,-0.1185791 l 0.02223,-0.066701 0.200102,-0.051878 h 0.08893 l -0.422438,0.8078197 0.140812,0.2519805 0.192691,0.1408126 h 0.200102 L 18.24171,5.507399 c 0.08893,0.037056 0.170458,0.081523 0.237158,0.1408126 0.0667,0.066701 0.133402,0.1334015 0.192691,0.2001022 z m -3.883463,-0.3260924 0.118579,-0.014822 0.0074,-0.051878 0.03706,0.00741 c 0.01482,-0.022234 0.03706,-0.051878 0.0667,-0.074112 0.02965,-0.022234 0.03706,-0.044467 0.02965,-0.081523 l 0.155635,-0.081523 0.02965,-0.066701 h 0.02964 l 0.392793,-0.4446714 0.03706,-0.066701 h 0.02965 l 0.02223,-0.044467 h 0.05188 l 0.0074,-0.037056 0.0667,-0.014822 v -0.081523 l 0.07411,-0.014822 0.04447,-0.081523 0.155635,-0.1334015 0.02965,-0.088934 h 0.03706 l 0.01482,-0.022234 v -0.014822 l -0.01482,-0.00741 0.0074,-0.044467 0.09635,-0.022234 0.02965,-0.066701 h 0.02964 l 0.05929,-0.118579 0.04447,-0.014822 0.111168,-0.155635 0.02964,0.00741 0.04447,-0.081523 h 0.03706 l 0.0074,-0.066701 0.08893,-0.1037567 0.02965,-0.022234 0.09634,-0.1111678 h 0.02964 l 0.04447,-0.096346 h 0.02964 l 0.163046,-0.1926909 0.03706,-0.014822 0.02223,-0.066701 h 0.02964 l 0.05929,-0.088934 h 0.02965 l 0.266803,-0.274214 0.01482,-0.037056 c 0.207513,-0.155635 0.444671,-0.2445692 0.711474,-0.2519804 0.259392,-0.00741 0.526195,-0.022234 0.778175,-0.044467 l 0.266803,0.022234 c 0.103757,0.014822 0.192691,0.00741 0.274214,-0.022234 0.08152,-0.022234 0.163046,-0.044467 0.237158,-0.066701 -0.01482,-0.022234 -0.02223,-0.044467 -0.02964,-0.066701 -0.0074,-0.022234 -0.02964,-0.029645 -0.05188,-0.037056 l 0.0074,-0.05929 h -0.03706 v -0.044467 h 0.03706 V 1.9203831 L 19.605369,1.8166264 c -0.222336,-0.00741 -0.429849,0 -0.644773,0.014822 -0.207514,0.022234 -0.415027,0.051878 -0.615129,0.096345 h -0.08893 l 0.355737,-0.4446714 0.04447,-0.1111678 0.05929,-0.014822 0.170458,-0.2297469 h 0.03706 l 0.02223,-0.096345 0.03706,0.00741 0.163046,-0.15563495 0.03706,-0.0889343 h 0.03706 l 0.05929,-0.0741119 0.163046,-0.0741119 -0.05188,-0.1482238 0.02964,-0.0518783 v -0.0296448 c -0.05929,-0.007411 -0.118579,-0.0148224 -0.170457,-0.037056 -0.05188,-0.0148224 -0.103757,-0.037056 -0.140813,-0.0741119 l -0.133401,0.0296448 C 18.92354,0.42332267 18.86425,0.51966814 18.782727,0.60119123 18.701204,0.68271432 18.627092,0.7716486 18.575214,0.86799407 18.464046,0.85317169 18.352878,0.83093812 18.249121,0.80870455 18.137954,0.78647098 18.026786,0.74941503 17.93044,0.6975367 l -0.111168,0.0592895 0.04447,0.11857904 v 0.0741119 l -0.200102,0.0592895 h -0.05188 c 0.05188,-0.0815231 0.08152,-0.17045739 0.08152,-0.26680286 0.0074,-0.0889343 0.02223,-0.17786856 0.05188,-0.26680284 h 0.02965 l -0.02223,-0.10375666 -0.03706,-0.007411 c -0.0074,-0.037056 -0.02223,-0.0667007 -0.03706,-0.0889343 -0.02223,-0.0222336 -0.02223,-0.0592895 -0.0074,-0.10375666 L 17.344956,0.0972303 h -0.118579 v 0.03705595 l -0.07411,0.0296448 0.118579,0.17045737 -0.05929,0.61512877 -0.148224,-0.0592895 -0.07411,-0.007411 -0.207513,0.22233565 c -0.103757,0.029645 -0.214925,0.044467 -0.326093,0.037056 -0.103756,-0.00741 -0.214924,0.00741 -0.318681,0.029645 l -0.111168,-0.05929 h -0.01482 l -0.02223,0.051878 h -0.02223 v 0.029645 h 0.07411 v 0.029645 h 0.02964 v 0.051878 l 0.222336,0.31127 0.05188,0.014822 0.02223,0.022234 0.177869,0.074112 h 0.07411 l 0.01482,-0.044467 c 0.08152,-0.00741 0.148224,-0.014822 0.214924,-0.022234 0.0667,0 0.125991,-0.014822 0.177869,-0.037056 h 0.0667 l -0.0667,0.5336057 -0.237158,-0.096345 h -0.04447 v 0.037056 C 16.418557,2.2242418 16.085054,2.4021104 15.758962,2.6022125 15.425458,2.8097259 15.069721,2.9357161 14.69175,3.0024168 l -0.04447,0.096345 -0.04447,0.00741 0.200102,0.3631483 c 0.09634,0.00741 0.170457,-0.014822 0.25198,-0.044467 0.08152,-0.037056 0.155635,-0.081523 0.222336,-0.1334014 0.02223,-0.00741 0.05929,-0.022234 0.09635,-0.029645 0.03706,-0.00741 0.05188,-0.029645 0.05188,-0.05929 l 0.192691,-0.066701 v -0.037056 c 0.25198,-0.096345 0.49655,-0.2001022 0.726297,-0.3186812 0.229746,-0.1259902 0.474316,-0.2075133 0.726296,-0.2519805 l 0.0074,-0.00741 h 0.02964 c -0.09634,0.1334015 -0.200102,0.2668029 -0.303859,0.4002043 -0.103756,0.1408126 -0.200102,0.2668028 -0.289036,0.4076155 h -0.03706 c -0.07411,0.1111678 -0.163046,0.2075133 -0.259392,0.3112699 -0.08893,0.1111679 -0.177868,0.2149246 -0.25198,0.3409148 h -0.02965 c -0.111168,0.1334014 -0.229747,0.2816252 -0.340915,0.4224378 -0.103756,0.155635 -0.222335,0.2964476 -0.333503,0.4446714 h -0.03706 v 0.037056 l -0.133402,0.1408126 z m 2.601327,-0.1037567 0.07411,-0.00741 c 0.0074,-0.066701 0.0074,-0.1334015 -0.01482,-0.2001022 -0.02223,-0.066701 -0.03706,-0.1259902 -0.05929,-0.1778685 h -0.01482 l -0.01482,0.05929 h -0.03706 C 17.285667,4.8403919 17.218966,4.6032338 17.137443,4.3660758 17.05592,4.1289177 16.92993,3.906582 16.766883,3.6916575 c -0.02964,0.274214 -0.01482,0.5336057 0.04447,0.7707637 0.0667,0.2445693 0.133402,0.4891386 0.214925,0.7188855 0.05929,0.066701 0.118579,0.118579 0.177869,0.1482238 0.05929,0.037056 0.12599,0.066701 0.185279,0.088934 z m 0.163046,-3.2979795 -0.19269,0.066701 -0.0667,-0.00741 c 0.03706,-0.1259902 0.07411,-0.2445693 0.103757,-0.3631483 0.03706,-0.118579 0.08893,-0.2223357 0.170457,-0.3335036 l 0.555839,-0.1630461 h 0.05929 l -0.281626,0.4150266 -0.03706,-0.00741 z"
         id="path577" />
      <path
         d="m 23.985369,4.6328786 c 0.340915,0 0.674418,-0.014822 1.000511,-0.037056 0.318681,-0.022234 0.637362,-0.05929 0.963454,-0.1111679 l 0.02964,-0.081523 0.0667,-0.022234 c 0.08893,-0.3186811 0.163046,-0.6447735 0.214924,-0.9856882 0.05188,-0.3409148 0.118579,-0.6670071 0.222336,-0.9930995 h 0.05188 L 26.660809,2.2020083 26.949845,2.0241397 26.9202,1.8981495 C 26.779388,1.8314488 26.645986,1.7573369 26.497763,1.6906362 26.349539,1.6239355 26.216137,1.5572347 26.075325,1.4831228 l -0.31127,0.088934 -0.170458,-0.029645 c -0.340914,0 -0.667007,0.037056 -0.978277,0.1111678 -0.318681,0.081523 -0.637362,0.1482238 -0.956043,0.2149245 h -0.148224 l -0.02965,-0.051878 h -0.07411 l 0.02223,0.096345 v 0.081523 l -0.111168,0.429849 h -0.05188 v 0.029645 h 0.02964 v 0.074112 L 22.940391,2.3798768 h -0.07411 v 0.044467 l -0.07411,-0.022234 -0.02964,0.051878 -0.192691,-0.074112 v -0.029645 c 0.05929,0.155635 0.12599,0.3038588 0.192691,0.4446714 0.0667,0.1408126 0.163046,0.2816252 0.281625,0.4150266 l 0.05188,0.029645 c 0.08152,0.2149245 0.155635,0.4446714 0.229747,0.6818295 0.0667,0.237158 0.170458,0.4594937 0.303859,0.6670071 z m 1.326603,-0.4594938 -0.103757,0.029645 c -0.222335,0 -0.444671,0 -0.674418,0 -0.222336,0 -0.429849,-0.037056 -0.629951,-0.1037567 C 23.86679,3.8324701 23.829734,3.5804896 23.763033,3.3359203 23.696333,3.0913511 23.570342,2.8467818 23.407296,2.6244461 V 2.579979 c 0.296448,-0.1852798 0.615129,-0.3557372 0.948633,-0.5113721 0.333503,-0.155635 0.68924,-0.2297469 1.052389,-0.2519805 l 0.08152,0.029645 0.02223,0.1778685 h 0.05188 l 0.05188,0.6003064 c 0,0.2519805 -0.0074,0.5113721 -0.02223,0.7559414 -0.02223,0.2445693 -0.08893,0.466905 -0.200102,0.6744183 l -0.08152,0.022234 z"
         id="path579" />
      <path
         d="m 30.403444,5.6926788 0.18528,-0.029645 0.274214,-0.2890364 0.08893,-0.051878 c 0.148224,-0.2297469 0.259392,-0.4743162 0.326093,-0.741119 0.05188,-0.2593917 0.118579,-0.5187833 0.192691,-0.7929974 l 0.09634,-0.088934 0.222336,-0.2593917 c 0.133401,-0.2297469 0.237158,-0.4520826 0.318681,-0.6892407 0.07411,-0.237158 0.177869,-0.4594937 0.333504,-0.6595959 h 0.05188 l 0.12599,-0.2816252 h 0.05188 L 33.034417,1.4757117 V 1.3497214 c -0.09635,-0.029645 -0.192691,-0.044467 -0.281625,-0.051878 -0.103757,0 -0.192691,-0.029645 -0.259392,-0.081523 l -0.340915,0.051878 -0.09634,0.1408126 -0.0667,0.044467 -0.244569,0.044467 c -0.05188,0 -0.09635,-0.00741 -0.140813,-0.014822 -0.03706,-0.00741 -0.07411,-0.022234 -0.111168,-0.051878 h -0.02223 l 0.155635,0.2593917 0.163046,0.118579 0.08893,-0.051878 h 0.0667 C 31.796748,2.4391664 31.581824,3.1135846 31.30761,3.7731806 31.040807,4.4475989 30.736948,5.07755 30.403444,5.663034 Z m 0.563251,-0.429849 -0.01482,0.014822 -0.02223,-0.014822 0.02223,-0.081523 h 0.04447 z M 30.358977,2.5132783 30.722126,2.3724656 31.107507,1.9722614 31.226086,1.7573369 31.203853,1.5794683 30.699892,1.2385536 h -0.02223 v 0.029645 l -0.0667,0.029645 0.02964,0.1334014 c -0.03706,0.1704574 -0.08893,0.3409148 -0.163046,0.4891386 -0.08152,0.1630461 -0.148224,0.3186811 -0.222335,0.4743161 v 0.051878 h 0.02223 v 0.022234 h 0.08152 z m 3.164578,-0.8226421 0.251981,-0.074112 0.02223,-0.066701 -0.04447,-0.31127 C 33.67919,1.1570305 33.590256,1.0903298 33.493911,1.0236291 33.397565,0.96433954 33.30122,0.91246121 33.212285,0.86799407 h -0.07411 c 0.05188,0.11857904 0.09634,0.24456923 0.140812,0.37055953 0.04447,0.1259902 0.09635,0.2593916 0.163046,0.3779707 l 0.08152,0.022234 z M 34.04975,1.21632 34.272086,1.1496193 c 0.02223,-0.051878 0.01482,-0.1037567 -0.0074,-0.155635 -0.02223,-0.037056 -0.05188,-0.0741119 -0.08152,-0.10375666 l -0.585484,-0.2964476 h -0.05188 l 0.05188,0.17045737 0.0667,0.0222336 0.08893,0.20010213 z"
         id="path581" />
      <path
         d="m 38.340814,5.5815109 c 0.266803,-0.3409147 0.496549,-0.704063 0.704063,-1.0746225 0.214924,-0.3705595 0.363148,-0.7633526 0.474316,-1.1783792 L 39.467315,2.4169328 C 39.37838,2.3502321 39.282035,2.3057649 39.163456,2.2983537 39.044877,2.2909426 38.963354,2.2390642 38.896653,2.1575411 h -0.08152 l -0.05929,0.3409148 h -0.0667 l 0.09634,0.1778685 h 0.05188 l 0.05929,0.1778686 c -0.02223,0.4891385 -0.0667,0.9634547 -0.148224,1.4229485 -0.07411,0.4520826 -0.214924,0.8893428 -0.407615,1.3043694 z M 39.674828,2.9060713 40.408536,2.7059692 C 40.593815,2.5948013 40.756862,2.4613999 40.875441,2.2909426 41.001431,2.1278964 41.127421,1.957439 41.246,1.7943928 l 0.444672,-0.1852797 -0.05929,-0.155635 C 41.512803,1.3645438 41.386813,1.3052543 41.246,1.2756095 41.105188,1.2385536 40.971786,1.1866752 40.853207,1.1125633 l -0.02964,0.029645 -0.08152,-0.029645 -0.303859,0.029645 -0.19269,-0.029645 c -0.31127,-0.022234 -0.607718,-0.014822 -0.904166,0.022234 -0.296447,0.037056 -0.592895,0.096345 -0.87452,0.1630462 l -0.704063,-0.1037567 -0.207513,0.051878 -0.08152,-0.022234 -0.25198,0.1259902 v 0.051878 c 0.09634,0.037056 0.200102,0.081523 0.303859,0.1334014 0.111168,0.051878 0.207513,0.1111678 0.289036,0.1778685 0.385382,0.037056 0.74853,0.00741 1.089445,-0.1037566 0.340915,-0.1037567 0.689241,-0.1704574 1.022744,-0.2075133 h 0.274214 c -0.03706,0.2816252 -0.09634,0.5410168 -0.185279,0.8004085 -0.08893,0.2519804 -0.200103,0.4817273 -0.340915,0.704063 z"
         id="path583" />
      <path
         d="m 46.589457,5.4777543 0.12599,-0.1704574 c 0.09634,-0.1037567 0.207513,-0.1778686 0.31127,-0.2223357 0.111168,-0.044467 0.214924,-0.088934 0.318681,-0.155635 0.296448,-0.4446714 0.541017,-0.9115764 0.704063,-1.4229485 0.170458,-0.5039609 0.377971,-0.9782771 0.629951,-1.4377708 l 0.103757,0.022234 0.12599,-0.022234 -0.02965,-0.155635 C 48.768347,1.801804 48.642356,1.7202809 48.508955,1.6758138 48.368142,1.6387578 48.242152,1.5868795 48.101339,1.5127676 h -0.02223 v 0.029645 l -0.355737,-0.051878 -0.629951,0.022234 h -0.281626 v -0.051878 l 0.08152,-0.074112 c 0,-0.066701 -0.0074,-0.1259903 -0.01482,-0.1778686 -0.0074,-0.051878 -0.02965,-0.1037567 -0.0667,-0.155635 C 46.678391,0.96433954 46.537578,0.87540526 46.389355,0.80129336 46.23372,0.73459265 46.078085,0.67530313 45.907627,0.63083599 h -0.111168 l 0.385382,0.35573712 c 0.0667,0.0741119 0.133402,0.16304619 0.192691,0.24456929 0.05188,0.081523 0.08893,0.1778685 0.111168,0.2816252 l 0.07411,-0.022234 h 0.05188 v 0.051878 l -0.459493,0.074112 -0.192691,-0.022234 -0.177869,0.022234 v 0.066701 c 0.04447,0.051878 0.08893,0.118579 0.12599,0.2001021 0.03706,0.074112 0.08893,0.1259902 0.155635,0.155635 0.214925,-0.096345 0.43726,-0.1630462 0.674419,-0.2075133 0.244569,-0.044467 0.474316,-0.074112 0.704063,-0.088934 h 0.229746 l 0.08152,0.2297469 c -0.02223,0.5410169 -0.08893,1.052389 -0.200103,1.5341163 -0.12599,0.4965498 -0.303858,0.9634547 -0.555839,1.4229485 l -0.103756,0.088934 z M 45.329554,3.0542951 c 0.08152,-0.037056 0.111168,-0.1037566 0.09635,-0.2075133 -0.01482,-0.096345 -0.0074,-0.1926909 0.02223,-0.274214 l -0.04447,-0.3705595 0.118579,-0.4076155 v -0.029645 l -0.192691,0.1334014 c -0.08893,0 -0.163046,-0.014822 -0.229746,-0.051878 -0.0667,-0.037056 -0.140813,-0.066701 -0.207514,-0.1037567 l 0.08152,0.1259902 -0.05188,0.1704574 v 0.029645 h 0.02223 l -0.07411,0.274214 0.177868,0.4372602 z"
         id="path585" />
      <path
         d="m 53.963576,5.5740997 h 0.05929 c -0.02223,-0.3409147 -0.04447,-0.6892406 -0.0667,-1.0449778 -0.02964,-0.3483259 -0.05188,-0.6966518 -0.07411,-1.0375666 -0.02223,-0.1704573 -0.02223,-0.3409147 0,-0.4891385 0.02223,-0.155635 0.04447,-0.3038588 0.08152,-0.4594938 h 0.08893 l 0.718885,0.6670071 v 0.051878 l -0.04447,0.029645 0.778175,0.4594938 h 0.281625 l 0.02965,-0.1037567 V 3.5434337 h -0.05929 L 55.1716,2.8023147 54.185911,2.3354097 54.111799,1.3571326 54.134033,1.0236291 c 0.01482,-0.0963455 0.0074,-0.20010217 -0.0074,-0.29644764 -0.02964,-0.0889343 -0.05188,-0.18527975 -0.07411,-0.2964476 -0.05929,-0.037056 -0.12599,-0.0518783 -0.200102,-0.0518783 -0.07411,0 -0.148224,0 -0.222336,0 l -0.08893,-0.0963455 v 0.0963455 h -0.04447 l -0.08893,-0.17786856 h -0.05929 l -0.02223,0.0815231 c 0.05188,0.27421403 0.133402,0.54101687 0.237158,0.79299734 0.103757,0.2519805 0.148224,0.5261945 0.125991,0.8300533 v 0.2001021 h -0.05929 v 0.029645 h -0.02964 c 0.03706,0.037056 0.0667,0.074112 0.07411,0.1111678 0.0074,0.044467 0.02223,0.088934 0.04447,0.1408126 l -0.05929,0.4891386 0.05929,0.6151287 -0.05929,0.8819317 0.02965,0.118579 c 0,0.1111678 0.0074,0.2001021 0.01482,0.2964476 0.0074,0.096345 -0.01482,0.1926909 -0.07411,0.2668028 0,0.1111679 0.03706,0.2001022 0.118579,0.2742141 0.07411,0.081523 0.140813,0.1482238 0.214925,0.2149245 z"
         id="path587" />
    </g>
  </g>
</svg>
