<?xml version="1.0" encoding="UTF-8" standalone="no"?>
<!-- Created with Inkscape (http://www.inkscape.org/) -->

<svg
   width="40mm"
   height="7mm"
   viewBox="0 0 40 7"
   version="1.1"
   id="svg5"
   inkscape:version="1.2.2 (b0a8486, 2022-12-01)"
   sodipodi:docname="topAdminLoginLOGO.svg"
   xmlns:inkscape="http://www.inkscape.org/namespaces/inkscape"
   xmlns:sodipodi="http://sodipodi.sourceforge.net/DTD/sodipodi-0.dtd"
   xmlns="http://www.w3.org/2000/svg"
   xmlns:svg="http://www.w3.org/2000/svg">
  <sodipodi:namedview
     id="namedview7"
     pagecolor="#ffffff"
     bordercolor="#000000"
     borderopacity="0.25"
     inkscape:showpageshadow="2"
     inkscape:pageopacity="0.0"
     inkscape:pagecheckerboard="0"
     inkscape:deskcolor="#d1d1d1"
     inkscape:document-units="mm"
     showgrid="false"
     inkscape:zoom="3.0467509"
     inkscape:cx="104.86581"
     inkscape:cy="31.673085"
     inkscape:window-width="1440"
     inkscape:window-height="771"
     inkscape:window-x="1080"
     inkscape:window-y="1616"
     inkscape:window-maximized="0"
     inkscape:current-layer="layer1" />
  <defs
     id="defs2">
    <rect
       x="-1.8951972"
       y="4.0009718"
       width="213.31496"
       height="77.703079"
       id="rect268" />
  </defs>
  <g
     inkscape:label="Layer 1"
     inkscape:groupmode="layer"
     id="layer1">
    <path
       style="fill:none;fill-rule:evenodd;stroke:#000000;stroke-width:0.21864px;stroke-linecap:butt;stroke-linejoin:miter;stroke-opacity:1"
       d="m 4.4186655,7.736698 v 0"
       id="path208"
       inkscape:connector-type="polyline"
       inkscape:connector-curvature="0" />
    <text
       xml:space="preserve"
       style="font-size:8.85995px;font-family:KouzanBrushFontGyousyoOTF;-inkscape-font-specification:KouzanBrushFontGyousyoOTF;fill:#000000;stroke-width:0.166124"
       x="-1.3619121"
       y="8.4681635"
       id="text214"
       transform="scale(0.67763293,1.4757252)"><tspan
         sodipodi:role="line"
         id="tspan212"
         style="stroke-width:0.166124"
         x="-1.3619121"
         y="8.4681635" /></text>
    <text
       xml:space="preserve"
       transform="scale(0.26458333)"
       id="text266"
       style="font-size:53.3333px;font-family:KouzanBrushFontGyousyoOTF;-inkscape-font-specification:KouzanBrushFontGyousyoOTF;white-space:pre;shape-inside:url(#rect268);display:inline;fill:#000000" />
    <g
       aria-label="管理者ログイン"
       transform="scale(0.85785358,1.1657001)"
       id="text932"
       style="font-size:7.06883px;font-family:KouzanBrushFontGyousyoOTF;-inkscape-font-specification:KouzanBrushFontGyousyoOTF;stroke-width:0.132539">
      <path
         d="m 1.3544578,5.928397 h 0.035344 l 0.063619,-0.077757 0.049482,0.014138 0.1060324,-0.028275 0.014138,-0.049482 0.042413,-0.014138 C 1.6442799,5.7304698 1.6301422,5.6880568 1.6301422,5.638575 1.6230734,5.596162 1.6089357,5.5396114 1.6018669,5.4830608 l 0.021206,-0.127239 -0.00707,-0.2191337 h -0.049482 l 0.021207,-0.1413766 v -0.070688 l -0.049482,-0.00707 v 0.035344 H 1.4887656 L 1.4251461,5.2780647 H 1.389802 l 0.028275,-0.1201701 v -0.049482 c -0.028275,0.091895 -0.049482,0.1767207 -0.063619,0.2615467 -0.014138,0.091895 -0.035344,0.1767207 -0.077757,0.247409 H 1.2413566 L 1.2201501,5.723401 v 0.049482 z M 1.9482396,5.4335789 c 0.1837895,-0.035344 0.3675791,-0.056551 0.5584375,-0.056551 0.1837896,0 0.3675792,-0.014138 0.5584376,-0.035344 v -0.028275 h 0.042413 V 5.263927 L 3.3337302,5.2073764 C 3.3125238,5.1720322 3.2701108,5.1508257 3.220629,5.1366881 3.1640783,5.1225504 3.1145965,5.1084128 3.0721835,5.1013439 v -0.063619 l 0.169652,-0.056551 0.063619,-0.063619 0.014138,-0.06362 0.077757,-0.021206 0.1060325,-0.091895 0.091895,-0.1767207 h 0.028275 L 3.7366536,4.4298051 3.9063055,4.3591168 V 4.309635 C 3.7719977,4.2601532 3.6588964,4.2036025 3.5387263,4.139983 3.4185562,4.0905012 3.2983861,4.0551571 3.1499407,4.0410194 3.0368394,4.0339506 2.9237381,4.0339506 2.8106368,4.0339506 2.6904667,4.0410194 2.5773654,4.0622259 2.471333,4.0975701 l -0.1131013,-0.00707 v -0.028275 h 0.014138 V 4.0127441 L 2.5632278,3.807748 2.5844343,3.7582662 h 0.035344 C 2.6692602,3.6805091 2.7399485,3.6098208 2.8106368,3.5532702 2.888394,3.5108572 2.9661511,3.4472377 3.0297706,3.3836182 L 3.1145965,3.3058611 2.888394,3.2068975 c -0.021206,0 -0.049482,0 -0.070688,-0.00707 -0.021206,0 -0.049482,0.014138 -0.070688,0.035344 h -0.049482 l 0.014138,-0.049482 0.4736116,-0.2049961 0.049482,-0.028275 0.049482,0.00707 c 0.049482,-0.021207 0.091895,-0.049482 0.1131013,-0.077757 0.014138,-0.021207 0.035344,-0.049482 0.056551,-0.084826 L 3.4114874,2.6060469 C 3.3620056,2.5494963 3.2983861,2.5141521 3.2347666,2.4929457 3.1640783,2.4717392 3.09339,2.4576015 3.0156329,2.4434638 2.8530498,2.4222574 2.6975355,2.4293262 2.5420213,2.4505327 2.3935759,2.4717392 2.2451304,2.5141521 2.1178915,2.563634 v 0.028275 c 0.084826,0.035344 0.1696519,0.063619 0.2615467,0.070688 0.091895,0.00707 0.1837896,0.00707 0.289822,0.014138 l -0.049482,0.2403403 h -0.028275 l -0.035344,0.070688 h -0.049482 l -0.049482,0.1060324 -0.1413766,0.077757 -0.077757,0.1060325 0.042413,0.1979272 0.1131013,0.056551 -0.042413,0.1555142 c -0.035344,0.056551 -0.070688,0.1201701 -0.091895,0.1767208 -0.028275,0.063619 -0.070688,0.1201701 -0.1413766,0.1555142 l -0.021206,0.084826 -0.049482,0.014138 0.077757,0.2403402 0.5018869,-0.091895 h 0.1908585 c -0.00707,0.098964 -0.021206,0.1837896 -0.042413,0.2686155 -0.021206,0.091895 -0.042413,0.1767208 -0.077757,0.2615467 -0.1343077,0.035344 -0.247409,0.077757 -0.3605103,0.1131013 -0.1201701,0.042413 -0.2332714,0.084826 -0.3534415,0.1201701 l -0.021207,0.049482 -0.070688,0.063619 0.06362,0.2403402 z M 1.5877292,4.4722181 c 0.035344,-0.021206 0.042413,-0.042413 0.049482,-0.070688 0,-0.028275 0,-0.056551 0,-0.091895 0.035344,0 0.049482,0.014138 0.049482,0.049482 -0.00707,0.035344 -0.00707,0.063619 -0.00707,0.091895 L 1.7432435,4.139983 h 0.035344 l -0.021206,-0.070688 v -0.063619 l 0.035344,0.00707 C 1.806863,3.8784363 1.8351383,3.7582662 1.8704824,3.6380961 1.9058266,3.5249948 1.9341019,3.4048247 1.9623772,3.2846546 V 3.1927598 C 1.9270331,3.0937962 1.8704824,3.0160391 1.7785876,2.9594884 1.6866929,2.895869 1.6018669,2.8463872 1.5099721,2.7969053 H 1.474628 v 0.063619 l -0.063619,0.021207 c 0.049482,0.098964 0.091895,0.2049961 0.1272389,0.3110285 0.035344,0.1060325 0.049482,0.2262026 0.049482,0.3463727 l -0.028275,0.3039597 0.014138,0.049482 -0.014138,0.056551 0.00707,0.1413766 -0.021206,0.1343078 v 0.1484454 l 0.014138,-0.1413766 h 0.035344 l 0.014138,0.063619 -0.00707,0.1343078 z m -1.26532054,-1.5268673 0.084826,-0.035344 0.0212065,-0.049482 0.0353441,0.035344 0.10603245,-0.014138 0.0706883,-0.06362 0.0494818,0.014138 h 0.0141377 L 0.68998782,2.7050106 0.74653846,2.4505327 0.72533197,2.2172613 C 0.68291899,2.1748483 0.64050601,2.1324353 0.59809303,2.0970912 0.54861122,2.0688159 0.49912941,2.0476094 0.4496476,2.0405405 h -0.0212065 l -0.007069,0.056551 H 0.38602813 C 0.3789593,2.1607106 0.35775281,2.2243301 0.33654632,2.2808808 0.308271,2.3445002 0.27292685,2.3869132 0.23051387,2.4293262 l -0.0565506,0.1696519 h -0.0141377 l 0.0636195,0.063619 c -0.007069,0.014138 -0.007069,0.042413 -0.007069,0.063619 0,0.028275 0.0141377,0.042413 0.0353441,0.042413 l 0.0706883,0.1555143 z M 3.7225159,2.4717392 3.8568237,2.3727755 4.1042327,2.2313989 4.132508,2.188986 C 4.2385405,2.1253665 4.3516418,2.0829535 4.4718119,2.061747 4.5849132,2.0405405 4.7050833,2.019334 4.8252534,1.9910587 v -0.035344 h 0.028275 l 0.014138,-0.049482 h 0.049482 l 0.00707,-0.035344 h 0.028275 L 4.924217,1.8214068 4.8888729,1.8426133 H 4.8605975 V 1.7931315 C 4.7121521,1.729512 4.5566378,1.6800302 4.3940547,1.6446861 4.2385405,1.6093419 4.0688886,1.5810666 3.9133743,1.5457224 L 3.2559731,1.5598601 H 3.135803 l 0.035344,-0.091895 h 0.035344 l 0.00707,-0.035344 c 0.06362,-0.014138 0.127239,-0.049482 0.1837896,-0.1060325 0.056551,-0.056551 0.127239,-0.084826 0.2120649,-0.091895 v -0.035344 l 0.077757,-0.028275 0.042413,-0.070688 C 3.6942406,1.0509043 3.6376899,1.0155602 3.5599328,0.99435369 3.4751068,0.9731472 3.3973497,0.95900954 3.3266614,0.95194071 V 0.91659656 C 3.4963133,0.89539007 3.6659653,0.85297709 3.8214795,0.78935762 3.9840626,0.72573815 4.1254392,0.64798102 4.2738846,0.5490174 V 0.51367325 L 3.9911314,0.4783291 3.7507912,0.49953559 3.7366536,0.5490174 3.6447588,0.56315506 v 0.0282753 l -0.459474,0.14844543 c -0.035344,0 -0.063619,-0.007069 -0.091895,-0.0141377 -0.035344,-0.007069 -0.063619,-0.0212065 -0.084826,-0.042413 h -0.070688 v 0.0494818 l -0.049482,-0.0212065 -0.014138,-0.007069 0.028275,0.12723894 c 0.042413,0.0212065 0.077757,0.042413 0.1131013,0.0706883 0.035344,0.0212065 0.070688,0.0353442 0.1131013,0.042413 l 0.021207,0.0989636 c 0.014138,0.098964 0.00707,0.1908584 -0.021207,0.2827532 -0.028275,0.091895 -0.056551,0.1696519 -0.098964,0.2403402 L 2.1956486,1.7365808 H 2.1249603 V 1.6729614 L 2.2027174,1.6234796 2.4218512,1.5810666 2.3935759,1.4750341 C 2.3299564,1.4114147 2.2663369,1.3619329 2.1956486,1.3265887 2.1178915,1.2983134 2.0401344,1.2629692 1.9623772,1.2276251 L 1.76445,1.2346939 c 0.014138,0.091895 0.042413,0.1767208 0.091895,0.2544779 0.049482,0.070688 0.077757,0.1484454 0.1060324,0.2262026 v 0.077757 L 1.679624,1.8638198 C 1.6230734,1.856751 1.5665227,1.8284756 1.5241098,1.7860627 1.4816968,1.7365808 1.432215,1.7083055 1.3827332,1.6941679 1.3685955,1.6588237 1.3544578,1.6305484 1.3332514,1.5952042 1.3191137,1.5598601 1.2979072,1.5315848 1.2767007,1.4962406 1.2272189,1.4467588 1.1706683,1.397277 1.09998,1.3619329 1.0292917,1.3265887 0.95860336,1.2912446 0.89498389,1.2559004 h -0.0282753 l -0.0353442,0.1343078 c 0.007069,0.056551 0.0141377,0.1060324 0.0212065,0.1625831 0.007069,0.063619 0.0282753,0.1131012 0.0636195,0.1625831 0.0353442,0.021206 0.0706883,0.035344 0.12017012,0.056551 0.035344,0.014138 0.084826,0.014138 0.1343078,0.014138 v 0.042413 l -0.2968909,0.127239 -0.0494818,0.077757 c 0.007069,0.049482 0.0141377,0.1060325 0.0141377,0.1555143 -0.007069,0.056551 0.0141377,0.1060324 0.0565506,0.1555142 0.0918948,0.00707 0.16258311,-0.00707 0.23327141,-0.035344 0.070688,-0.021206 0.1413766,-0.049482 0.2049961,-0.084826 V 2.188986 C 1.6725552,2.10416 2.0047902,2.019334 2.344094,1.9274393 2.6763291,1.8355445 3.0156329,1.7789938 3.3620056,1.7507185 c 0.098964,0.00707 0.2120649,0.00707 0.3251661,0.014138 0.098964,0.00707 0.2049961,0.028275 0.2968909,0.063619 -0.00707,0.1201701 -0.035344,0.2332714 -0.077757,0.332235 C 3.8568237,2.2667431 3.800273,2.3727755 3.7225159,2.4717392 Z M 1.2908384,1.7577873 1.2201501,1.7860627 h -0.028275 v -0.042413 l 0.098964,-0.049482 h 0.028275 z M 0.32240866,1.482103 0.34361515,1.43969 h 0.0494818 v -0.028275 h 0.0282753 l 0.0353442,-0.1837896 h 0.0353442 l 0.007069,-0.028275 0.11310128,-0.091895 C 0.68291899,1.0084914 0.74653846,0.90952773 0.81015793,0.81763294 0.8737774,0.72573815 0.92325921,0.62677453 0.97274102,0.53487974 L 1.09998,0.4076408 1.0292917,0.28747069 0.71119431,0.15316292 c -0.0565506,0.0141377 -0.10603245,0.0212065 -0.15551426,0.0212065 -0.0494818,0.007069 -0.0989636,0.0212065 -0.1413766,0.042413 l -0.0282753,0.0636195 v 0.0141377 h 0.0141377 l 0.042413,0.1413766 v 0.12017011 h -0.0141377 l -0.042413,0.1413766 c 0.0212065,0.0494818 0.0353441,0.10603245 0.0353441,0.16258309 -0.007069,0.0494818 0,0.10603245 0.0141377,0.15551428 L 0.32240866,1.4538276 Z M 0.98687868,1.1922809 C 1.057567,1.1569368 1.1353241,1.1357303 1.2272189,1.1286615 1.3191137,1.1215926 1.389802,1.0933173 1.4675591,1.0509043 l 0.042413,-0.049482 h 0.028275 l 0.021207,-0.0636195 0.091895,-0.007069 0.063619,-0.11310128 0.049482,-0.0141377 0.00707,-0.0353442 -0.098964,-0.0141377 -0.042413,0.0141377 -0.1484454,-0.0212065 -0.1484454,0.0282753 v 0.0141377 L 1.2342877,0.85297709 1.1211865,0.90952773 0.93032804,0.88832124 H 0.89498389 L 0.85963974,0.95194071 0.8737774,1.065042 Z M 2.386507,1.0296978 2.5208148,0.92366539 2.7328797,0.64091219 c 0.021207,-0.007069 0.049482,-0.0212065 0.077757,-0.0353442 0.021206,0 0.028275,-0.0212065 0.021206,-0.0565506 l 0.084826,-0.0282753 0.014138,-0.0494818 0.098964,-0.0494818 0.00707,-0.0282753 h 0.035344 l 0.056551,-0.13430777 -0.00707,-0.0989636 -0.3675791,-0.08482596 -0.2474091,0.02827532 -0.084826,0.042413 0.042413,0.14844543 -0.070688,0.5655064 0.021206,0.0565506 -0.021206,0.0494818 z"
         id="path294" />
      <path
         d="M 9.2149835,5.1720322 C 9.441186,5.1366881 9.6673886,5.0730686 9.8794535,5.0023803 10.098587,4.9246232 10.32479,4.8751414 10.558061,4.8539349 l 0.169652,0.028275 -0.169652,0.1837896 v 0.014138 l 0.12017,0.042413 c 0.09896,-0.056551 0.219134,-0.091895 0.339304,-0.098964 0.113101,-0.014138 0.233272,-0.028275 0.346373,-0.035344 l 0.02121,0.014138 0.04948,-0.014138 c 0.09896,0.014138 0.197927,0.028275 0.296891,0.035344 0.106032,0.021206 0.204996,0.049482 0.296891,0.084826 l 0.254478,-0.049482 0.02121,-0.1767208 0.106033,-0.049482 v -0.098964 l -0.04948,-0.00707 v -0.035344 c -0.12017,-0.063619 -0.24034,-0.1201701 -0.374648,-0.1696519 -0.127239,-0.049482 -0.24034,-0.098964 -0.339304,-0.1767208 l -0.134308,0.028275 -0.03534,-0.021207 h -0.09896 l -0.0071,0.035344 -0.233272,-0.035344 -0.72102,-0.014138 0.01414,-0.049482 0.289822,-0.1837896 0.02121,-0.049482 h 0.02121 l 0.07069,-0.098964 h 0.04948 L 11.314426,3.5956831 11.272013,3.3977559 C 11.158912,3.3199988 11.052879,3.2634481 10.932709,3.2210351 10.812539,3.1715533 10.678231,3.1574157 10.522717,3.1786222 l 0.04241,-0.3534415 0.06362,-0.049482 0.113102,-0.1908585 0.04241,0.014138 0.07069,0.1272389 0.06362,0.070688 0.141376,0.084826 c 0.07776,0.014138 0.141377,-0.00707 0.190859,-0.056551 0.04948,-0.049482 0.106032,-0.070688 0.183789,-0.06362 0.04948,-0.2120649 0.08483,-0.4241298 0.113101,-0.6432635 0.02121,-0.2120649 0.07776,-0.4099922 0.162583,-0.6079194 h 0.03535 l 0.155514,-0.332235 0.04241,-0.014138 0.01414,-0.049482 0.07069,-0.014138 0.06362,-0.30395965 -0.0071,-0.0494818 C 11.964758,0.71160049 11.851657,0.66211868 11.738556,0.60556804 11.625455,0.5490174 11.505284,0.49953559 11.385114,0.45712261 l -0.332235,0.042413 c -0.09896,0.0212065 -0.183789,0.0141377 -0.247409,-0.0353441 -0.05655,-0.042413 -0.127239,-0.0706883 -0.204996,-0.084826 h -0.12017 l -0.12017,0.17672075 c -0.0919,0.0494818 -0.18379,0.0777571 -0.268616,0.10603245 -0.091894,0.0353442 -0.190858,0.0565506 -0.2827528,0.0636195 l -0.00707,0.0636195 -0.06362,-0.007069 0.014138,0.0494818 v 0.0353442 l -0.049482,0.0141377 0.1060325,0.44533629 0.049482,-0.021207 0.063619,0.035344 0.8623975,-0.34637271 h 0.06362 L 10.982191,1.149868 h 0.106032 l -0.03534,-0.035344 0.02121,-0.084826 0.07776,0.042413 -0.03534,0.374648 -0.261547,-0.091895 -0.24034,0.00707 h -0.09896 v -0.028275 l -0.0919,-0.070688 -0.113101,0.021207 -0.06362,0.1767208 -0.6079197,0.247409 v 0.049482 l 0.1484454,0.1484455 0.2615463,-0.035344 0.190859,0.00707 c 0.03534,0.1979273 -0.0071,0.3463727 -0.134308,0.4665428 C 9.9713483,2.4576015 9.8794535,2.5919093 9.8087652,2.726217 l 0.1625831,0.3605104 0.1979277,-0.014138 0.04948,0.00707 v 0.1767208 c -0.106032,0.014138 -0.2191334,0.042413 -0.3251659,0.077757 -0.1060324,0.035344 -0.204996,0.091895 -0.2968908,0.1555143 l -0.028275,0.06362 0.014138,0.077757 0.091895,0.049482 v 0.035344 l -0.014138,-0.049482 0.035344,-0.084826 0.1625831,0.056551 0.226203,-0.035344 h 0.08483 v 0.049482 l -0.2898225,0.2756843 -0.042413,-0.014138 -0.021206,0.077757 -0.098964,0.042413 v 0.035344 H 9.6885951 L 9.4199795,4.3237726 C 9.3492912,4.4015298 9.2786029,4.4439427 9.193777,4.4651492 9.1018822,4.4863557 9.0241251,4.514631 8.9534368,4.557044 c 0.00707,0.1060325 0.035344,0.1908584 0.070688,0.2686156 0.042413,0.084826 0.077757,0.1696519 0.1131012,0.247409 h 0.028275 z M 6.8186501,4.4722181 6.9034761,4.4580804 C 6.9317514,4.3732544 6.9812332,4.2954973 7.0377838,4.224809 7.0872656,4.1611895 7.1438163,4.0975701 7.2003669,4.0198129 h 0.028275 l 0.1201701,-0.1343077 0.06362,-0.056551 0.1555143,-0.1413766 0.247409,-0.2403402 0.035344,-0.049482 0.1343077,-0.077757 0.063619,-0.091895 0.049482,-0.021206 0.091895,-0.127239 h 0.035344 l 0.1555142,-0.1413766 0.028275,-0.063619 0.063619,-0.049482 V 2.811043 h -0.014138 v 0.035344 L 8.0981083,3.0796585 H 8.069833 l 0.021207,-0.1131012 -0.014138,-0.127239 0.042413,-0.1555142 0.049482,-0.014138 V 2.6413911 L 8.2324161,2.5919093 8.3737927,2.4576015 8.5434446,2.1395042 8.5363758,1.9981276 C 8.4727563,1.9557146 8.402068,1.9274393 8.3313797,1.9133016 8.2536226,1.8991639 8.1758655,1.8638198 8.112246,1.8072691 L 8.1900031,1.5033095 8.4303433,1.3831393 8.6070641,1.2064186 8.6141329,1.1781433 8.5505134,1.1427991 8.5999953,1.0084914 8.5858576,0.88832124 C 8.4939628,0.83883943 8.402068,0.81056411 8.3031044,0.78935762 8.1970719,0.76815113 8.1051772,0.75401347 8.0062135,0.73280698 7.780011,0.81056411 7.5467396,0.9024589 7.3276059,1.0155602 7.1084721,1.1286615 6.8681319,1.1922809 6.613654,1.1993498 v 0.042413 l 0.091895,0.098964 c 0.1060325,0.1060324 0.2262026,0.1696519 0.3605103,0.204996 0.1343078,0.035344 0.2544779,0.098964 0.374648,0.1908584 l 0.049482,0.042413 0.042413,0.070688 -0.014138,0.1484455 C 7.405363,2.0476094 7.2922617,2.0970912 7.1791604,2.146573 7.0589903,2.2031236 6.945889,2.2738119 6.8539942,2.3586379 v 0.063619 c 0.042413,0.042413 0.084826,0.077757 0.1484455,0.098964 0.056551,0.021206 0.1131013,0.042413 0.1696519,0.056551 L 7.36295,2.5282898 7.4901889,2.5494963 c 0,0.056551 -0.00707,0.1060324 -0.028275,0.1484454 -0.021206,0.049482 -0.056551,0.098964 -0.098964,0.1413766 l 0.049482,0.098964 -0.247409,0.4665428 -0.2686156,0.2686156 -0.098964,0.1908584 c -0.035344,0 -0.056551,0.00707 -0.077757,0.028275 -0.021206,0.021206 -0.042413,0.028275 -0.077757,0.021206 L 6.5995164,3.9774 6.7833059,4.4580804 Z m 0.8058466,-1.0603245 -0.014138,0.014138 h -0.035344 l 0.021206,-0.084826 0.049482,-0.014138 h 0.035344 z m 2.6154673,-0.7139519 -0.127239,0.042413 h -0.02827 l 0.12017,-0.1837896 h 0.03534 z m -0.798778,-0.1060324 0.00707,-0.077757 h 0.1060324 v 0.028275 h 0.028275 v -0.06362 h 0.035344 l 0.049482,-0.1060325 0.028275,-0.084826 h 0.021206 V 2.1677795 C 9.5967003,2.0122652 9.4765302,1.8496821 9.3280847,1.6941679 9.1867081,1.5315848 9.0241251,1.397277 8.8686108,1.2771069 H 8.8474043 C 8.9180926,1.482103 8.9746432,1.687099 9.0170562,1.8920951 9.0594692,2.10416 9.1442952,2.3020872 9.2786029,2.4717392 Z M 10.550992,2.478808 h -0.04948 c 0,-0.063619 0.0071,-0.1201701 0.01414,-0.1837896 0.0071,-0.06362 0.03534,-0.1131013 0.08483,-0.1625831 h 0.03534 c 0,0.056551 -0.0071,0.1131013 -0.01414,0.1696519 -0.01414,0.056551 -0.03535,0.098964 -0.07069,0.1413766 z m 0.360511,-0.1555143 h -0.07069 l -0.04241,-0.289822 v -0.06362 l 0.08483,-0.070688 0.08483,-0.1131012 h 0.06362 c -0.0071,0.091895 -0.02121,0.1767207 -0.04241,0.2615467 -0.02121,0.084826 -0.04241,0.1696519 -0.07776,0.247409 z m -0.431199,-0.4311986 -0.01414,0.021207 -0.01414,-0.021207 V 1.814338 h 0.07776 z"
         id="path296" />
      <path
         d="m 17.881356,5.5396114 0.07776,-0.042413 0.07069,-0.06362 h 0.01414 l 0.09896,-0.4453362 -0.02121,-0.056551 c 0.03534,-0.2262025 0.05655,-0.4665428 0.07776,-0.6927453 0.01414,-0.2262026 0.04948,-0.4453363 0.113101,-0.6644701 l -0.01414,-0.098964 0.04241,-0.204996 -0.07776,-0.2544779 -0.332235,-0.1484455 -0.141377,0.014138 -0.247409,-0.084826 v -0.042413 l -0.12017,-0.06362 -0.148446,0.028275 -0.04241,0.077757 c -0.07776,0.042413 -0.155514,0.084826 -0.226202,0.127239 -0.06362,0.042413 -0.148446,0.06362 -0.247409,0.056551 l -0.01414,0.042413 0.06362,0.2968909 0.04948,0.021206 0.05655,0.035344 0.03534,0.091895 0.04948,0.021206 h 0.04948 v -0.021206 l 0.141376,-0.077757 0.0071,-0.035344 c 0.07776,-0.035344 0.162583,-0.06362 0.254478,-0.098964 0.08483,-0.028275 0.169652,-0.049482 0.261547,-0.063619 l 0.106032,0.00707 -0.02828,0.8199842 c -0.02121,0.1484455 -0.04241,0.3039597 -0.06362,0.4453363 -0.02121,0.1555143 -0.05655,0.2968909 -0.09189,0.4453363 -0.06362,-0.00707 -0.12017,-0.014138 -0.169652,-0.028275 -0.05655,-0.00707 -0.106033,-0.028275 -0.148446,-0.06362 L 17.3724,4.6984206 h 0.02828 c 0.03534,-0.063619 0.07069,-0.1201701 0.113102,-0.1767207 0.03534,-0.056551 0.07069,-0.1131013 0.09896,-0.1767208 h 0.02828 l 0.02121,-0.049482 -0.02121,-0.3817168 c -0.03534,-0.042413 -0.08482,-0.06362 -0.127238,-0.077757 -0.04948,-0.00707 -0.106033,-0.028275 -0.155515,-0.049482 -0.106032,-0.00707 -0.197927,0.014138 -0.275684,0.06362 -0.08483,0.042413 -0.162583,0.077757 -0.254478,0.1131013 l -0.01414,0.049482 -0.04948,0.014138 -0.120171,0.1272389 0.01414,0.1979272 0.296891,0.1555143 h 0.01414 c -0.02121,-0.028275 -0.02121,-0.063619 -0.02121,-0.098964 0.0071,-0.042413 0,-0.077757 -0.02121,-0.1131013 l 0.02121,-0.063619 0.190859,-0.049482 h 0.08483 l -0.402924,0.7705025 0.134308,0.2403402 0.18379,0.1343078 h 0.190858 l 0.141377,-0.1131013 c 0.08483,0.035344 0.162583,0.077757 0.226202,0.1343078 0.06362,0.063619 0.127239,0.1272389 0.18379,0.1908584 z m -3.704067,-0.3110285 0.113101,-0.014138 0.0071,-0.049482 0.03534,0.00707 c 0.01414,-0.021206 0.03534,-0.049482 0.06362,-0.070688 0.02827,-0.021206 0.03534,-0.042413 0.02827,-0.077757 l 0.148445,-0.077757 0.02828,-0.063619 h 0.02828 l 0.374648,-0.4241298 0.03534,-0.063619 h 0.02828 l 0.02121,-0.042413 h 0.04948 l 0.0071,-0.035344 0.06362,-0.014138 V 4.224809 l 0.07069,-0.014138 0.04241,-0.077757 0.148446,-0.1272389 0.02827,-0.084826 h 0.03534 l 0.01414,-0.021206 v -0.014138 l -0.01414,-0.00707 0.0071,-0.042413 0.0919,-0.021207 0.02827,-0.063619 h 0.02828 l 0.05655,-0.1131013 0.04241,-0.014138 0.106032,-0.1484455 0.02828,0.00707 0.04241,-0.077757 h 0.03534 l 0.0071,-0.063619 0.08483,-0.098964 0.02828,-0.021206 0.09189,-0.1060324 h 0.02828 l 0.04241,-0.091895 h 0.02828 l 0.155515,-0.1837896 0.03534,-0.014138 0.02121,-0.06362 h 0.02828 l 0.05655,-0.084826 h 0.02828 l 0.254478,-0.2615467 0.01414,-0.035344 c 0.197927,-0.1484455 0.42413,-0.2332714 0.678608,-0.2403402 0.247409,-0.00707 0.501887,-0.021207 0.742227,-0.042413 l 0.254478,0.021206 c 0.09896,0.014138 0.183789,0.00707 0.261547,-0.021206 0.07776,-0.021206 0.155514,-0.042413 0.226202,-0.063619 -0.01414,-0.021207 -0.02121,-0.042413 -0.02828,-0.06362 -0.0071,-0.021207 -0.02828,-0.028275 -0.04948,-0.035344 l 0.0071,-0.056551 h -0.03534 v -0.042413 h 0.03534 v -0.042413 l -0.226203,-0.098964 c -0.212065,-0.00707 -0.409992,0 -0.614988,0.014138 -0.197927,0.021206 -0.395854,0.049482 -0.586713,0.091895 h -0.08483 l 0.339304,-0.4241298 0.04241,-0.1060324 0.05655,-0.014138 0.162583,-0.2191337 h 0.03534 l 0.02121,-0.0918948 0.03534,0.007069 0.155514,-0.14844543 0.03534,-0.084826 h 0.03534 l 0.05655,-0.0706883 0.155514,-0.0706883 -0.04948,-0.1413766 0.02828,-0.0494818 v -0.0282753 c -0.05655,-0.007069 -0.113102,-0.0141377 -0.162584,-0.0353442 -0.04948,-0.0141377 -0.09896,-0.0353442 -0.134307,-0.0706883 l -0.127239,0.0282753 c -0.04948,0.084826 -0.106033,0.17672075 -0.18379,0.25447788 -0.07776,0.0777571 -0.148445,0.16258309 -0.197927,0.25447788 C 17.683428,0.77521996 17.577396,0.75401347 17.478432,0.73280698 17.3724,0.71160049 17.266368,0.67625634 17.174473,0.62677453 l -0.106033,0.0565506 0.04241,0.11310128 v 0.0706883 l -0.190858,0.0565506 h -0.04948 c 0.04948,-0.0777571 0.07776,-0.16258309 0.07776,-0.25447788 0.0071,-0.084826 0.02121,-0.16965192 0.04948,-0.25447788 h 0.02828 l -0.02121,-0.0989636 -0.03534,-0.007069 c -0.0071,-0.0353442 -0.02121,-0.0636195 -0.03534,-0.084826 -0.02121,-0.0212065 -0.02121,-0.0565506 -0.0071,-0.0989636 L 16.616035,0.0541993 h -0.113101 v 0.03534415 l -0.07069,0.02827532 0.113101,0.16258309 -0.05655,0.58671289 -0.141376,-0.0565506 -0.07069,-0.007069 -0.197927,0.21206492 c -0.09896,0.028275 -0.204996,0.042413 -0.311028,0.035344 -0.09896,-0.00707 -0.204997,0.00707 -0.30396,0.028275 L 15.357783,1.022629 h -0.01414 l -0.02121,0.049482 h -0.02121 v 0.028275 h 0.07069 v 0.028275 h 0.02827 v 0.049482 l 0.212065,0.2968908 0.04948,0.014138 0.02121,0.021206 0.169651,0.070688 h 0.07069 l 0.01414,-0.042413 c 0.07776,-0.00707 0.141377,-0.014138 0.204997,-0.021206 0.06362,0 0.12017,-0.014138 0.169651,-0.035344 h 0.06362 l -0.06362,0.5089557 -0.226202,-0.091895 h -0.04241 v 0.035344 c -0.311029,0.1484454 -0.629126,0.3180973 -0.940154,0.5089557 -0.318098,0.1979273 -0.657402,0.3180974 -1.017912,0.3817169 l -0.04241,0.091895 -0.04241,0.00707 0.190858,0.3463727 c 0.0919,0.00707 0.162584,-0.014138 0.240341,-0.042413 0.07776,-0.035344 0.148445,-0.077757 0.212065,-0.127239 0.02121,-0.00707 0.05655,-0.021207 0.09189,-0.028275 0.03534,-0.00707 0.04948,-0.028275 0.04948,-0.056551 l 0.18379,-0.06362 v -0.035344 c 0.24034,-0.091895 0.473611,-0.1908585 0.692745,-0.3039597 0.219134,-0.1201701 0.452405,-0.1979273 0.692745,-0.2403403 l 0.0071,-0.00707 h 0.02828 c -0.0919,0.127239 -0.190859,0.2544779 -0.289822,0.3817168 -0.09896,0.1343078 -0.190859,0.2544779 -0.275685,0.3887857 h -0.03534 c -0.07069,0.1060324 -0.155514,0.1979272 -0.247409,0.2968908 -0.08483,0.1060325 -0.169652,0.2049961 -0.24034,0.3251662 h -0.02828 c -0.106032,0.127239 -0.219133,0.2686156 -0.325166,0.4029233 -0.09896,0.1484455 -0.212065,0.2827532 -0.318097,0.4241298 h -0.03534 v 0.035344 l -0.127239,0.1343078 z m 2.481159,-0.098964 0.07069,-0.00707 c 0.0071,-0.063619 0.0071,-0.1272389 -0.01414,-0.1908584 -0.02121,-0.063619 -0.03534,-0.1201701 -0.05655,-0.1696519 h -0.01414 l -0.01414,0.056551 h -0.03534 C 16.559484,4.5782505 16.495865,4.3520479 16.418108,4.1258454 16.340351,3.8996428 16.220181,3.6875779 16.064666,3.4825819 c -0.02828,0.2615467 -0.01414,0.5089557 0.04241,0.7351583 0.06362,0.2332714 0.127239,0.4665428 0.204996,0.6856765 0.05655,0.063619 0.113102,0.1131013 0.169652,0.1413766 0.05655,0.035344 0.12017,0.063619 0.176721,0.084826 z m 0.155514,-3.1456294 -0.183789,0.063619 -0.06362,-0.00707 c 0.03534,-0.1201701 0.07069,-0.2332714 0.09896,-0.3463726 0.03534,-0.1131013 0.08483,-0.2120649 0.162583,-0.3180974 l 0.530162,-0.1555142 h 0.05655 l -0.268616,0.3958544 -0.03534,-0.00707 z"
         id="path298" />
      <path
         d="m 22.949693,4.3803233 c 0.325166,0 0.643264,-0.014138 0.954292,-0.035344 0.30396,-0.021206 0.607919,-0.056551 0.918948,-0.1060324 l 0.02828,-0.077757 0.06362,-0.021206 c 0.08483,-0.3039596 0.155514,-0.6149882 0.204996,-0.9401543 0.04948,-0.3251662 0.113101,-0.6361947 0.212065,-0.9472233 h 0.04948 L 25.501541,2.061747 25.777225,1.8920951 25.74895,1.771925 C 25.614642,1.7083055 25.487403,1.6376172 25.346026,1.5739978 25.20465,1.5103783 25.077411,1.4467588 24.943103,1.3760705 l -0.296891,0.084826 -0.162583,-0.028275 c -0.325166,0 -0.636195,0.035344 -0.933085,0.1060324 -0.30396,0.077757 -0.60792,0.1413766 -0.91188,0.2049961 h -0.141376 l -0.02828,-0.049482 h -0.07069 l 0.02121,0.091895 v 0.077757 l -0.106033,0.4099921 h -0.04948 v 0.028275 h 0.02828 v 0.070688 L 21.952988,2.2313989 H 21.8823 v 0.042413 l -0.07069,-0.021206 -0.02828,0.049482 -0.18379,-0.070688 v -0.028275 c 0.05655,0.1484455 0.120171,0.2898221 0.18379,0.4241298 0.06362,0.1343078 0.155514,0.2686156 0.268616,0.3958545 l 0.04948,0.028275 c 0.07776,0.2049961 0.148446,0.4241298 0.219134,0.6503324 0.06362,0.2262025 0.162583,0.4382674 0.289822,0.6361947 z m 1.265321,-0.4382675 -0.09896,0.028275 c -0.212065,0 -0.42413,0 -0.643264,0 -0.212064,0 -0.409992,-0.035344 -0.60085,-0.098964 C 22.836592,3.6168896 22.801248,3.3765494 22.737628,3.143278 22.674009,2.9100066 22.553839,2.6767352 22.398324,2.4646703 v -0.042413 c 0.282753,-0.1767208 0.586713,-0.3393039 0.904811,-0.4877493 0.318097,-0.1484454 0.657401,-0.2191337 1.003773,-0.2403402 l 0.07776,0.028275 0.02121,0.1696519 h 0.04948 l 0.04948,0.5725752 c 0,0.2403403 -0.0071,0.4877493 -0.02121,0.7210207 -0.02121,0.2332714 -0.08483,0.4453363 -0.190858,0.6432635 l -0.07776,0.021206 z"
         id="path300" />
      <path
         d="m 29.071287,5.391166 0.176721,-0.028275 0.261546,-0.2756843 0.08483,-0.049482 c 0.141377,-0.2191338 0.247409,-0.4524052 0.311029,-0.706883 0.04948,-0.2474091 0.113101,-0.4948181 0.183789,-0.7563649 l 0.0919,-0.084826 0.212065,-0.2474091 C 30.520397,3.0231079 30.619361,2.811043 30.697118,2.5848404 30.767806,2.3586379 30.86677,2.146573 31.015215,1.9557146 h 0.04948 l 0.12017,-0.2686156 h 0.04948 L 31.580722,1.3690017 V 1.2488316 c -0.0919,-0.028275 -0.18379,-0.042413 -0.268616,-0.049482 -0.09896,0 -0.18379,-0.028275 -0.247409,-0.077757 l -0.325166,0.049482 -0.0919,0.1343078 -0.06362,0.042413 -0.233272,0.042413 c -0.04948,0 -0.0919,-0.00707 -0.134308,-0.014138 -0.03534,-0.00707 -0.07069,-0.021206 -0.106032,-0.049482 h -0.02121 l 0.148446,0.2474091 0.155514,0.1131012 0.08483,-0.049482 h 0.06362 c -0.141377,0.6503324 -0.346373,1.2935959 -0.60792,1.9227218 -0.254478,0.6432635 -0.5443,1.2441141 -0.862397,1.8025516 z m 0.537231,-0.4099922 -0.01414,0.014138 -0.02121,-0.014138 0.02121,-0.077757 h 0.04241 z M 29.028874,2.3586379 29.375247,2.2243301 29.742826,1.8426133 29.855927,1.6376172 29.834721,1.4679653 29.35404,1.1427991 h -0.02121 v 0.028275 l -0.06362,0.028275 0.02827,0.1272389 c -0.03534,0.1625831 -0.08482,0.3251662 -0.155514,0.4665428 -0.07776,0.1555142 -0.141376,0.3039597 -0.212065,0.4524051 v 0.049482 h 0.02121 v 0.021206 h 0.07776 z m 3.01839,-0.7846401 0.240341,-0.070688 0.02121,-0.06362 -0.04241,-0.2968909 C 32.19571,1.065042 32.110884,1.0014225 32.018989,0.93780305 31.927094,0.88125241 31.835199,0.8317706 31.750373,0.78935762 h -0.07069 c 0.04948,0.11310128 0.0919,0.23327138 0.134308,0.35344148 0.04241,0.1201701 0.0919,0.2474091 0.155514,0.3605104 l 0.07776,0.021206 z m 0.501887,-0.4524052 0.212065,-0.063619 c 0.02121,-0.049482 0.01414,-0.0989637 -0.0071,-0.14844547 -0.02121,-0.0353442 -0.04948,-0.0706883 -0.07776,-0.0989636 l -0.558437,-0.2827532 h -0.04948 l 0.04948,0.16258309 0.06362,0.0212065 0.08483,0.19085841 z"
         id="path302" />
      <path
         d="m 38.331439,5.3699595 0.07776,-0.028275 c 0.01414,-0.2049961 0.0071,-0.4099922 -0.01414,-0.6079194 -0.02828,-0.2049961 -0.05655,-0.4029233 -0.08483,-0.5937818 l 0.02121,-0.070688 -0.02121,-0.1696519 0.04241,-0.5655064 -0.02121,-0.1413766 0.04948,-0.3110285 c -0.02121,-0.06362 -0.02828,-0.1343078 -0.02828,-0.2120649 0,-0.077757 -0.02121,-0.1484454 -0.06362,-0.1979272 l -0.197927,0.028275 h -0.09896 c 0.162583,-0.2544779 0.339303,-0.4877493 0.537231,-0.7139518 0.197927,-0.2262026 0.332235,-0.4736117 0.424129,-0.7563649 0,-0.0494818 0,-0.10603241 0,-0.15551422 0,-0.0565506 -0.02121,-0.10603245 -0.05655,-0.15551426 l -0.318097,-0.0706883 -0.148446,-0.24740905 -0.07776,0.24740905 -0.148445,0.1413766 0.02828,0.1413766 C 38.182994,1.2134874 38.076962,1.482103 37.914378,1.7153744 37.758864,1.9557146 37.60335,2.188986 37.469042,2.4293262 h -0.04241 l -1.442041,2.0216854 v 0.028275 C 36.309754,4.3167038 36.57837,4.0975701 36.797503,3.8218857 37.016637,3.5462013 37.264046,3.2775858 37.518524,3.0231079 l 0.176721,-0.2615467 0.07069,0.028275 c 0.04948,0.127239 0.12017,0.2403402 0.212065,0.3534415 0.0919,0.1131013 0.127239,0.2474091 0.113101,0.4029233 0,0.2049961 0,0.4099922 0,0.6220571 0,0.2191337 -0.03534,0.4170609 -0.09896,0.5867129 0,0.098964 0.02121,0.1837895 0.06362,0.2615467 0.03534,0.070688 0.07069,0.1555142 0.09896,0.2332714 z"
         id="path304" />
      <path
         d="m 43.378571,4.7691089 0.473612,-0.3534415 c 0.106032,-0.049482 0.204996,-0.098964 0.296891,-0.1484454 0.09189,-0.049482 0.17672,-0.1131013 0.261546,-0.1837896 l 0.04948,-0.077757 h 0.05655 L 45.315431,3.4896507 45.690079,3.100865 h 0.05655 l 0.18379,-0.1625831 v -0.049482 l 0.08483,-0.028275 c 0.155514,-0.1625831 0.303959,-0.3180973 0.431198,-0.4877493 0.134308,-0.1696519 0.240341,-0.3463726 0.311029,-0.537231 v -0.091895 h -0.05655 v -0.021206 h -0.02121 c -0.0919,0.1272389 -0.197927,0.2544779 -0.311029,0.374648 -0.12017,0.1343077 -0.24034,0.2544779 -0.353441,0.3605103 v 0.049482 c -0.452405,0.3534415 -0.897742,0.6715389 -1.364284,0.9684297 -0.459474,0.2968909 -0.947224,0.5372311 -1.470317,0.7210207 -0.02828,0.021206 -0.06362,0.028275 -0.09896,0.028275 -0.03534,0 -0.06362,0.021207 -0.07776,0.070688 l -0.183789,0.077757 0.233271,0.1555143 0.127239,0.077757 0.08483,0.1413766 z m 0.954292,-3.074941 0.155515,-0.014138 0.141376,-0.1272389 -0.141376,-0.3110286 -0.530163,-0.162583 -0.183789,-0.14844548 -0.219134,-0.042413 h -0.05655 v 0.0636195 l -0.02828,0.0777571 V 1.149868 c 0.0919,0.091895 0.197927,0.1696519 0.296891,0.2262025 0.106032,0.056551 0.212065,0.127239 0.296891,0.2262026 z"
         id="path306" />
    </g>
  </g>
</svg>
