<?xml version="1.0" encoding="UTF-8" standalone="no"?>
<!-- Created with Inkscape (http://www.inkscape.org/) -->

<svg
   width="20mm"
   height="7mm"
   viewBox="0 0 20 7"
   version="1.1"
   id="svg5"
   inkscape:version="1.2.2 (b0a8486, 2022-12-01)"
   sodipodi:docname="topAboutLOGO.svg"
   xmlns:inkscape="http://www.inkscape.org/namespaces/inkscape"
   xmlns:sodipodi="http://sodipodi.sourceforge.net/DTD/sodipodi-0.dtd"
   xmlns="http://www.w3.org/2000/svg"
   xmlns:svg="http://www.w3.org/2000/svg">
  <sodipodi:namedview
     id="namedview7"
     pagecolor="#ffffff"
     bordercolor="#000000"
     borderopacity="0.25"
     inkscape:showpageshadow="2"
     inkscape:pageopacity="0.0"
     inkscape:pagecheckerboard="0"
     inkscape:deskcolor="#d1d1d1"
     inkscape:document-units="mm"
     showgrid="false"
     inkscape:zoom="3.0467509"
     inkscape:cx="104.86581"
     inkscape:cy="31.344866"
     inkscape:window-width="1440"
     inkscape:window-height="771"
     inkscape:window-x="1080"
     inkscape:window-y="1616"
     inkscape:window-maximized="0"
     inkscape:current-layer="layer1" />
  <defs
     id="defs2">
    <rect
       x="-1.8951972"
       y="4.0009718"
       width="213.31496"
       height="77.703079"
       id="rect268" />
  </defs>
  <g
     inkscape:label="Layer 1"
     inkscape:groupmode="layer"
     id="layer1">
    <path
       style="fill:none;fill-rule:evenodd;stroke:#000000;stroke-width:0.21864px;stroke-linecap:butt;stroke-linejoin:miter;stroke-opacity:1"
       d="m 4.4186655,7.736698 v 0"
       id="path208"
       inkscape:connector-type="polyline"
       inkscape:connector-curvature="0" />
    <text
       xml:space="preserve"
       style="font-size:8.85995px;font-family:KouzanBrushFontGyousyoOTF;-inkscape-font-specification:KouzanBrushFontGyousyoOTF;fill:#000000;stroke-width:0.166124"
       x="-1.3619121"
       y="8.4681635"
       id="text214"
       transform="scale(0.67763293,1.4757252)"><tspan
         sodipodi:role="line"
         id="tspan212"
         style="stroke-width:0.166124"
         x="-1.3619121"
         y="8.4681635" /></text>
    <text
       xml:space="preserve"
       transform="scale(0.26458333)"
       id="text266"
       style="font-size:53.3333px;font-family:KouzanBrushFontGyousyoOTF;-inkscape-font-specification:KouzanBrushFontGyousyoOTF;white-space:pre;shape-inside:url(#rect268);display:inline;fill:#000000" />
    <g
       aria-label="ABOUT
"
       transform="scale(1.0147547,0.98545984)"
       id="text932"
       style="font-size:8.01986px;font-family:KouzanBrushFontGyousyoOTF;-inkscape-font-specification:KouzanBrushFontGyousyoOTF;stroke-width:0.150371">
      <path
         d="M 0.5854392,6.1505082 H 0.7057371 C 0.73781654,5.8056543 0.80999528,5.47684 0.90623361,5.1560456 1.0104918,4.8352512 1.1067301,4.5144568 1.1789089,4.1936623 L 1.6119813,4.097424 c 0.1122781,0 0.2245561,0 0.3288143,0.00802 0.1042582,0.00802 0.2085163,0.032079 0.3047547,0.064159 0.096238,0.2967348 0.1764369,0.6014895 0.2325759,0.914264 0.048119,0.3127746 0.1202979,0.6095094 0.232576,0.9062442 l 0.3207944,0.1283178 h 0.1523773 l 0.048119,-0.040099 C 3.0314966,5.2121846 2.8069405,4.3460397 2.550305,3.4718749 2.2856496,2.6137499 1.9889147,1.7636447 1.6601005,0.93759907 l -0.072179,-0.0721787 -0.3689135,0.0320794 v 0.0400993 H 1.1789089 L 1.1388096,1.0739367 h -0.03208 l 0.03208,0.1042582 -0.040099,0.1523773 0.00802,0.1363377 C 1.0345514,2.1967171 0.93029319,2.9104847 0.80197542,3.6082125 0.65761794,4.3139602 0.50524059,5.0036682 0.32078381,5.6693166 l 0.0721787,0.3528739 z m 1.491694,-2.4620971 -0.2486157,-0.01604 -0.088218,0.01604 -0.4491122,-0.01604 C 1.3473259,3.4478153 1.3794054,3.2232592 1.3954451,2.9826634 1.4034649,2.7340478 1.459604,2.5094917 1.5478224,2.3009753 h 0.064159 l 0.4651519,1.2911975 z"
         id="path295" />
      <path
         d="M 4.6996144,6.4873424 4.7958527,6.3750643 C 4.835952,6.278826 4.8680314,6.166548 4.9001109,6.0542699 4.9321903,5.9500117 4.9402102,5.8377337 4.9402102,5.7254557 l 0.072179,0.088218 0.096238,0.1042582 0.2967349,0.1363376 0.5533703,-0.056139 0.1042582,0.02406 c 0.1523773,-0.01604 0.2806951,-0.072179 0.400993,-0.1603972 0.1202979,-0.088219 0.232576,-0.1764369 0.3528739,-0.2646554 l 0.1283177,-0.2165362 0.064159,-0.02406 C 7.0975526,5.2362442 7.1536916,5.0918867 7.185771,4.9395093 7.2178505,4.7791121 7.2499299,4.6347547 7.2820094,4.4903972 7.2820094,4.33 7.2659696,4.1696028 7.2258703,4.0172254 7.185771,3.8648481 7.1216122,3.7124707 7.0333937,3.5681132 L 6.5040829,3.2713784 6.5281425,3.1911798 6.6404205,3.1591004 6.7927979,2.9987032 C 6.8970561,2.8784053 6.961215,2.7340478 7.017354,2.5816704 7.0654731,2.4212732 7.0895327,2.2688959 7.0895327,2.1004788 7.0975526,1.8759227 7.0815129,1.6674064 7.0333937,1.4669099 6.9852745,1.2824531 6.9130958,1.0979963 6.7927979,0.93759907 6.6805198,0.86542033 6.5762617,0.80928131 6.4559638,0.76116215 6.3356658,0.71304298 6.2233878,0.67294368 6.0870502,0.64086424 5.8785338,0.61680466 5.6700174,0.62482452 5.4695209,0.6488841 5.2690244,0.67294368 5.0765478,0.73710257 4.9001109,0.83334089 L 4.7717931,0.80126145 4.6274356,0.83334089 4.3627802,0.76918201 h -0.072179 c 0.00802,0.27267529 0.072179,0.52931079 0.1844568,0.75386689 0.1042582,0.2245561 0.168417,0.4731717 0.2004965,0.745847 V 3.75257 c -0.02406,0.3047547 -0.048119,0.6175293 -0.072179,0.9303038 -0.032079,0.3047547 -0.080199,0.6095094 -0.1443575,0.8982244 -0.01604,0.1603972 0,0.3288142 0.040099,0.4811916 0.040099,0.1603972 0.1042582,0.2967348 0.2004966,0.4250526 z m 0.2967348,-0.801986 -0.03208,0.024059 -0.024059,-0.024059 0.024059,-0.02406 z M 6.1111098,5.3324825 5.8464544,5.4367407 5.3572429,5.3324825 C 5.2850642,5.2923832 5.2289251,5.2603038 5.1647663,5.2202045 5.1006074,5.188125 5.0524882,5.131986 5.0123889,5.0517874 l 0.080199,-1.2430784 0.5132711,-0.1042581 0.112278,0.024059 0.032079,-0.024059 c 0.1443575,0.01604 0.2726753,0.040099 0.4090129,0.080199 0.1283178,0.040099 0.2566356,0.080199 0.3929732,0.1363376 l 0.1443575,0.2967348 c 0.01604,0.1603972 0.00802,0.3127746 -0.01604,0.4491122 -0.024059,0.1283178 -0.072179,0.2566355 -0.1523773,0.3608937 z m -0.57743,-2.2776403 c -0.072179,0 -0.1363376,0 -0.2085163,0.00802 -0.064159,0.00802 -0.1283178,-0.024059 -0.1844568,-0.088218 l 0.02406,-0.4892115 -0.072179,-0.9543634 0.01604,-0.1363376 C 5.2128854,1.3546318 5.3091237,1.3225524 5.4214018,1.2744332 5.52566,1.2343339 5.6299181,1.2022545 5.750216,1.1862147 c 0.120298,0 0.232576,0.01604 0.3528739,0.040099 0.1202979,0.02406 0.2165362,0.088219 0.3047547,0.1684171 0.064159,0.072179 0.1042582,0.1523774 0.112278,0.2405958 0.00802,0.080199 0.01604,0.1684171 0.03208,0.2566355 -0.01604,0.1122781 -0.040099,0.2085164 -0.072179,0.2967349 C 6.439924,2.2769157 6.3998247,2.3571143 6.3517056,2.4292931 6.2314077,2.5576108 6.1030899,2.6779088 5.9667523,2.7821669 5.8384345,2.894445 5.694077,2.9666237 5.5336798,2.9987032 Z"
         id="path297" />
      <path
         d="m 9.8082522,5.8297138 c 0.1363376,-0.00802 0.2726748,-0.032079 0.4090128,-0.088218 0.128318,-0.056139 0.248616,-0.1283178 0.360894,-0.232576 l 0.01604,-0.080199 0.05614,-0.032079 c 0.05614,-0.048119 0.08822,-0.1042582 0.09624,-0.1603972 0.008,-0.048119 0.02406,-0.1122781 0.04812,-0.1844568 l 0.05614,-0.03208 c 0.05614,-0.168417 0.09624,-0.3448539 0.120298,-0.5453504 0.01604,-0.1924767 0.04812,-0.3929732 0.0802,-0.5854498 0,-0.3528739 -0.0401,-0.689708 -0.120298,-0.9944627 -0.08822,-0.3047547 -0.144358,-0.633569 -0.168417,-0.9864428 h -0.03208 l -0.0401,-0.2646554 -0.06416,-0.02406 -0.136338,-0.288715 -0.05614,-0.064159 V 1.226314 l -0.08822,-0.032079 V 1.1380956 C 10.257364,1.1060161 10.153106,1.0819566 10.048848,1.0659168 9.9526097,1.057897 9.8483515,1.0258175 9.760133,0.98571823 9.6237954,0.95363879 9.4954776,0.97769837 9.3751797,1.0418573 9.2629017,1.114036 9.1586435,1.2102743 9.070425,1.3305722 8.8779484,1.6112673 8.7416108,1.916022 8.6614122,2.2528562 8.5812136,2.5896903 8.5411143,2.9425641 8.5330944,3.3114777 c 0,0.3368341 0.01604,0.6576286 0.040099,0.978423 0.02406,0.3207944 0.112278,0.5934696 0.2726753,0.8340654 0.1283177,0.2085164 0.2726752,0.3608937 0.4491121,0.4651519 0.1684171,0.096238 0.344854,0.1844568 0.5132711,0.2405958 z m 0.2245558,-0.7217874 -0.072178,0.056139 c -0.072179,0 -0.1443575,0 -0.2165362,0 -0.072179,0 -0.1283178,-0.040099 -0.1924766,-0.112278 C 9.4232989,4.9314895 9.3350804,4.7791121 9.2869613,4.6026752 9.2308222,4.4182184 9.2067627,4.2417815 9.2067627,4.041285 c 0,-0.3528739 0.032079,-0.689708 0.088218,-1.0185223 0.048119,-0.3207944 0.1363377,-0.6335689 0.2566356,-0.9383236 l 0.080199,-0.040099 v -0.056139 l 0.1764369,-0.080199 0.1523773,0.080199 c 0.1603975,0.2726752 0.2887155,0.5774299 0.3849535,0.9062442 0.09624,0.3368341 0.152377,0.6736682 0.176437,1.0185222 l -0.03208,0.6175293 -0.184456,0.2887149 v 0.048119 h -0.05614 z"
         id="path299" />
      <path
         d="m 13.75401,6.1745678 c 0.07218,-0.032079 0.168417,-0.048119 0.272676,-0.048119 0.104258,0 0.200496,-0.01604 0.280695,-0.056139 0.04812,-0.040099 0.09624,-0.072179 0.152377,-0.1283177 0.05614,-0.048119 0.09624,-0.1122781 0.120298,-0.1844568 l 0.06416,-0.02406 0.128318,-0.1764369 c 0.168417,-0.3689136 0.240595,-0.7859463 0.248615,-1.2430784 0.008,-0.457132 0.01604,-0.914264 0.0401,-1.3713961 l -0.03208,-0.112278 0.03208,-0.2486157 c 0,-0.3047547 -0.008,-0.6014895 -0.03208,-0.9062442 -0.01604,-0.3047547 -0.04812,-0.5934696 -0.07218,-0.87416475 l -0.104258,-0.12029791 -0.312774,0.0400993 -0.0802,0.39297315 0.01604,0.112278 -0.01604,0.1202979 v 0.1283178 l 0.0802,0.056139 c 0.07218,0.1363377 0.09624,0.288715 0.08822,0.4571321 -0.01604,0.168417 -0.008,0.3368341 0.01604,0.4811916 l -0.02406,0.02406 0.02406,0.088218 c 0,0.4410923 -0.008,0.8982244 -0.03208,1.3473366 -0.02406,0.4410923 -0.09624,0.858125 -0.232576,1.2430783 -0.06416,0.088218 -0.136337,0.1523773 -0.208516,0.1844568 -0.0802,0.040099 -0.160397,0.072179 -0.232576,0.088218 L 13.417176,5.420701 C 13.240739,4.8031717 13.120441,4.1696028 13.064302,3.5119742 13.008163,2.8543457 12.960044,2.1967171 12.903905,1.5310687 L 12.927965,1.3947311 12.895885,1.114036 C 12.839746,1.0258175 12.767567,0.96967851 12.687369,0.93759907 12.61519,0.90551963 12.534992,0.88947991 12.446773,0.88947991 l -0.0401,0.0240596 V 1.6754262 h 0.03208 c 0.07218,0.6977279 0.144358,1.3954557 0.208517,2.0931835 0.05614,0.7057478 0.200496,1.379416 0.417032,2.012985 h 0.0401 l 0.008,0.088218 c 0.08822,0.1363377 0.192477,0.2165363 0.296735,0.2486157 0.112278,0.040099 0.232576,0.056139 0.344854,0.056139 z"
         id="path301" />
      <path
         d="m 17.852146,6.1184288 0.112278,-0.02406 0.05614,-0.1283177 V 4.3059404 l 0.01604,-0.01604 -0.01604,-0.2245561 0.01604,-0.4491122 c 0,-0.1684171 0,-0.3288143 0,-0.4972313 0,-0.1603972 -0.008,-0.3127746 -0.03208,-0.4491122 l 0.03208,-1.1308003 0.352873,-0.02406 0.05614,0.02406 0.112278,-0.02406 0.168417,0.02406 0.505252,-0.080199 0.128317,-0.1603972 c 0,-0.056139 0,-0.1122781 0,-0.1844568 0,-0.064159 -0.01604,-0.1042582 -0.0401,-0.13633763 l -0.200496,-0.17643692 -0.06416,0.0400993 -0.09624,-0.0400993 -0.01604,0.0400993 -0.280695,-0.0400993 c -0.136338,0.056139 -0.272676,0.0962383 -0.400993,0.1202979 -0.144358,0.0240596 -0.280696,0.0400993 -0.425053,0.056139 h -0.721787 l -0.02406,0.0240596 -0.505251,-0.0882185 -0.112278,0.0641589 -0.02406,0.0721787 c 0,0.1122781 0,0.2245561 0,0.3207944 0,0.1122781 0.01604,0.2085164 0.0401,0.2967349 l 0.128318,0.048119 0.769907,-0.2004965 h 0.0401 l 0.07218,0.5212909 0.0401,0.03208 c 0.07218,0.2486156 0.112278,0.5052512 0.120298,0.7779264 0,0.2726753 0.008,0.5453505 0.02406,0.8180258 l -0.02406,0.2405958 v 1.4997138 l -0.008,0.01604 c 0.008,0.1363376 0.02406,0.2566355 0.05614,0.3528738 0.0401,0.1122781 0.08822,0.2245561 0.144358,0.3207944 z"
         id="path303" />
    </g>
  </g>
</svg>
