<?xml version="1.0" encoding="UTF-8" standalone="no"?>
<!-- Created with Inkscape (http://www.inkscape.org/) -->

<svg
   width="40mm"
   height="7mm"
   viewBox="0 0 40 7"
   version="1.1"
   id="svg5"
   inkscape:version="1.2.2 (b0a8486, 2022-12-01)"
   sodipodi:docname="topCreateTagLOGO.svg"
   xmlns:inkscape="http://www.inkscape.org/namespaces/inkscape"
   xmlns:sodipodi="http://sodipodi.sourceforge.net/DTD/sodipodi-0.dtd"
   xmlns="http://www.w3.org/2000/svg"
   xmlns:svg="http://www.w3.org/2000/svg">
  <sodipodi:namedview
     id="namedview7"
     pagecolor="#ffffff"
     bordercolor="#000000"
     borderopacity="0.25"
     inkscape:showpageshadow="2"
     inkscape:pageopacity="0.0"
     inkscape:pagecheckerboard="0"
     inkscape:deskcolor="#d1d1d1"
     inkscape:document-units="mm"
     showgrid="false"
     inkscape:zoom="4.7488465"
     inkscape:cx="73.59682"
     inkscape:cy="22.637076"
     inkscape:window-width="1440"
     inkscape:window-height="771"
     inkscape:window-x="1080"
     inkscape:window-y="1616"
     inkscape:window-maximized="0"
     inkscape:current-layer="layer1" />
  <defs
     id="defs2">
    <rect
       x="-1.8951972"
       y="4.0009718"
       width="213.31496"
       height="77.703079"
       id="rect268" />
  </defs>
  <g
     inkscape:label="Layer 1"
     inkscape:groupmode="layer"
     id="layer1">
    <path
       style="fill:none;fill-rule:evenodd;stroke:#000000;stroke-width:0.21864px;stroke-linecap:butt;stroke-linejoin:miter;stroke-opacity:1"
       d="m 4.4186655,7.736698 v 0"
       id="path208"
       inkscape:connector-type="polyline"
       inkscape:connector-curvature="0" />
    <text
       xml:space="preserve"
       transform="scale(0.26458333)"
       id="text266"
       style="font-size:53.3333px;font-family:KouzanBrushFontGyousyoOTF;-inkscape-font-specification:KouzanBrushFontGyousyoOTF;white-space:pre;shape-inside:url(#rect268);display:inline;fill:#000000" />
    <g
       aria-label="ジャンル登録"
       transform="matrix(0.88852403,0,0,1.113278,1.3001013e-4,6.0524571e-4)"
       id="text351"
       style="font-size:7.91473px;font-family:KouzanBrushFontGyousyoOTF;-inkscape-font-specification:KouzanBrushFontGyousyoOTF;fill:#241c1c;stroke-width:0.45662">
      <path
         d="m 0.58265411,5.662606 0.28493028,-0.1266357 0.0316589,-0.063318 0.087062,-0.031659 0.20578291,-0.2453567 h 0.055403 L 1.2712356,5.1323191 1.6273985,4.9107067 2.3555536,4.3408461 2.7433754,3.8659623 h 0.055403 C 3.0045615,3.6601793 3.2024298,3.4385669 3.3686391,3.2090397 3.5348484,2.9874273 3.6456546,2.7499854 3.7010578,2.4887993 h 0.055403 l 0.039574,-0.079147 v -0.047488 h -0.039574 v 0.031659 h -0.055403 v -0.03166 L 3.4082127,2.7183264 h -0.063318 v 0.055403 L 3.0045615,3.082404 2.9491584,3.1773808 C 2.6009103,3.4306521 2.2605769,3.6918382 1.9281582,3.9688538 1.5957396,4.2458693 1.2237472,4.4358229 0.81218128,4.5149702 L 0.66180141,4.7603268 0.55099519,4.8078152 v 0.047488 L 0.0523672,5.0452571 0.16317342,5.3064432 c 0.0395736,0.071232 0.10289149,0.1424651 0.17412406,0.1899535 0.0791473,0.063318 0.1582946,0.1187209 0.24535663,0.1662093 z M 1.1050263,3.4623111 1.2474914,3.3515048 1.3028945,3.2406986 c 0,-0.1187209 -0.00791,-0.2453566 -0.023744,-0.3719923 C 1.2554062,2.7579001 1.231662,2.6391791 1.1920883,2.5362876 1.0575379,2.4887993 0.9229875,2.4333961 0.78843709,2.3938225 0.64597195,2.3542488 0.51142154,2.3067605 0.36104167,2.2513574 H 0.25815018 c 0.0316589,0.071233 0.0633178,0.1503798 0.0712326,0.2295271 0.007915,0.071233 0.0316589,0.1345504 0.0712326,0.1899536 l 0.0554031,0.023744 z M 1.3582977,2.1563806 1.4216155,2.0218302 1.5403365,1.9664271 1.7382047,1.705241 1.7144605,1.5706906 C 1.5799101,1.4677991 1.4216155,1.380737 1.2633209,1.3253339 1.0971116,1.2699308 0.93090224,1.2145277 0.74886344,1.1591246 H 0.6855456 v 0.079147 H 0.58265411 v 0.015829 H 0.51933627 L 1.0100495,1.6260937 Z M 3.8514376,1.4440549 4.0255617,1.3095045 3.8830966,0.96917109 3.3765538,0.81879121 H 3.3211507 L 3.4952748,1.2145277 Z M 4.6349959,1.2145277 h 0.094977 l 0.023744,-0.1108062 h 0.063318 L 4.8566084,1.0562331 4.7537169,0.8425354 C 4.6745696,0.7633881 4.5795928,0.70798499 4.484616,0.67632607 4.3738098,0.65258188 4.2630036,0.61300823 4.1680268,0.57343458 H 4.0809648 L 4.3184067,1.00083 c 0.039574,0.055403 0.094977,0.087062 0.1662093,0.1028915 0.071233,0.015829 0.1108063,0.055403 0.1503799,0.1108062 z"
         id="path403" />
      <path
         d="m 10.50771,6.2245519 -0.02374,-0.031659 0.02374,-0.023744 C 10.37316,5.7417533 10.23861,5.2906137 10.127803,4.8394741 10.009082,4.3804197 9.8507878,3.9371949 9.668749,3.5177142 l 0.023744,-0.087062 1.084318,-0.4194807 h 0.03166 c -0.03957,0.2453567 -0.110806,0.4907133 -0.213698,0.7202405 -0.09498,0.2374419 -0.229527,0.4511396 -0.387821,0.6490078 l 0.02374,0.031659 0.110806,-0.1266357 c 0.126636,-0.087062 0.237442,-0.1662093 0.348248,-0.2532714 0.110806,-0.087062 0.221613,-0.174124 0.348248,-0.2374419 l 0.308675,-0.4115659 h 0.03957 L 11.528711,3.2406986 11.67909,3.1219777 V 2.9715978 L 11.924447,2.8687063 V 2.789559 c -0.08706,-0.071233 -0.182039,-0.1108062 -0.28493,-0.1187209 -0.102892,0 -0.189954,-0.031659 -0.269101,-0.087062 l -0.245357,0.031659 -0.02374,0.055403 -0.126636,0.031659 v 0.023744 l -0.08706,-0.023744 h -0.01583 v 0.071232 C 10.66601,2.7974731 10.468142,2.8449621 10.270273,2.9003648 10.0724,2.9636831 9.874532,3.0270009 9.6924932,3.0982335 L 9.5341986,3.0665746 C 9.4708807,2.8924505 9.3996482,2.7262412 9.3284156,2.5442024 9.2492683,2.377993 9.1938652,2.203869 9.1780357,2.0139155 L 9.0434853,1.9426829 8.9880822,1.9664271 C 8.9326791,1.9505976 8.877276,1.9347682 8.8377023,1.9189387 8.7902139,1.911024 8.7427256,1.879365 8.6952372,1.8397914 l 0.087062,0.1266357 -0.01583,0.1662093 c 0,0.079147 0.01583,0.1582946 0.047488,0.2374419 0.031659,0.079147 0.047488,0.1582946 0.063318,0.2295272 l 0.1424651,0.071233 0.2136977,0.466969 v 0.079147 L 9.0118264,3.2802723 8.845617,3.2406986 8.5686015,3.3040165 8.4973689,3.2802723 8.3628185,3.3040165 8.3469891,3.3831638 8.1332913,3.4623111 8.5686015,3.699753 8.5923457,3.7551561 C 8.7268961,3.7314119 8.8535318,3.699753 8.964338,3.6522646 9.0751442,3.6047762 9.1938652,3.5572878 9.3125861,3.5177142 l 0.063318,0.023744 C 9.5104545,3.8817916 9.6450049,4.2221249 9.7795553,4.5545436 9.906191,4.894877 10.016997,5.2431251 10.119889,5.5913732 l -0.02374,0.1266357 c 0,0.039574 0.0079,0.087062 0.02374,0.118721 0.0079,0.039574 0.03166,0.079147 0.0554,0.1108062 l 0.126635,0.079147 0.02375,0.071233 z"
         id="path405" />
      <path
         d="m 16.364595,5.2114664 0.530287,-0.3957365 c 0.118721,-0.055403 0.229527,-0.1108062 0.332419,-0.1662093 0.102891,-0.055403 0.197868,-0.1266357 0.292845,-0.205783 l 0.0554,-0.087062 h 0.06332 L 18.53323,3.7789003 18.952711,3.3435901 h 0.06332 l 0.205783,-0.1820388 v -0.055403 l 0.09498,-0.031659 C 19.490918,2.8924505 19.657127,2.7183264 19.799592,2.5283729 19.949972,2.3384194 20.068693,2.1405511 20.14784,1.9268534 V 1.8239619 h -0.06332 v -0.023744 h -0.02374 c -0.102897,0.142465 -0.221618,0.2849301 -0.348254,0.4194805 -0.13455,0.1503799 -0.269101,0.2849303 -0.395736,0.4036513 v 0.055403 c -0.506543,0.3957365 -1.005171,0.7518993 -1.527543,1.084318 -0.514458,0.3324187 -1.060574,0.6015195 -1.646264,0.8073025 -0.03166,0.023744 -0.07123,0.031659 -0.110806,0.031659 -0.03957,0 -0.07123,0.023744 -0.08706,0.079147 l -0.205783,0.087062 0.261186,0.1741241 0.142465,0.087062 0.09498,0.1582946 z M 17.433084,1.7685588 17.607208,1.7527294 17.765503,1.6102642 17.607208,1.2620161 17.013603,1.0799773 16.80782,0.91376797 16.562464,0.86627959 h -0.06332 v 0.0712326 l -0.03166,0.087062 v 0.1345504 c 0.102891,0.1028915 0.221612,0.1899535 0.332419,0.2532714 0.11872,0.063318 0.237441,0.1424651 0.332418,0.2532713 z"
         id="path407" />
      <path
         d="m 26.170931,5.3381021 c 0.0554,-0.118721 0.13455,-0.205783 0.245356,-0.292845 0.110807,-0.079147 0.221613,-0.1503799 0.316589,-0.2136977 l 0.205783,-0.2453567 h 0.0554 c 0.09498,-0.2136977 0.26119,-0.4115659 0.466973,-0.5936047 0.205783,-0.1741241 0.364077,-0.3799071 0.459054,-0.6094342 l -0.03166,-0.1741241 -0.0554,0.055403 h -0.03166 V 3.0428304 C 27.69056,3.1773808 27.563924,3.3040165 27.40563,3.4464816 27.25525,3.581032 27.10487,3.7314119 26.962405,3.873877 l -0.791473,0.6648373 h -0.08706 V 3.4860552 c 0.09498,-0.3403333 0.142465,-0.6964962 0.142465,-1.0764032 0,-0.3799071 0.03957,-0.7360699 0.110806,-1.0843181 L 26.305481,1.206613 C 26.234251,1.174954 26.163016,1.143295 26.091783,1.119551 26.012633,1.095807 25.933489,1.095807 25.838512,1.111641 l -0.13455,-0.25327134 0.03166,0.0474884 V 1.1353804 h -0.07915 v 0.1424652 l 0.07915,0.2216124 -0.03166,0.118721 0.07915,1.3217599 -0.02374,0.1028915 0.0554,0.7677288 c 0,0.1582946 -0.0079,0.3245039 -0.01583,0.4907132 -0.0079,0.1741241 -0.03957,0.3324187 -0.09498,0.4827986 l -0.134551,0.023744 -0.02374,0.039574 v 0.047488 l 0.348248,0.2770156 0.166209,0.071232 v 0.047488 z M 24.121016,4.4437376 24.326799,4.2933577 c 0.158294,-0.2770155 0.292845,-0.5619458 0.403651,-0.8468761 0.110806,-0.2849303 0.174124,-0.58569 0.182039,-0.9181087 h 0.03166 L 24.912489,2.3859078 24.975806,1.9901713 24.944147,1.7685588 24.587985,1.6656673 24.477178,1.618179 V 1.570691 L 24.398028,1.546947 24.374288,1.45197 h -0.02374 l 0.02374,0.047488 v 0.2453566 l -0.110806,0.023744 0.13455,0.4669691 -0.02374,0.1187209 0.02374,0.1741241 c -0.01583,0.3007598 -0.0554,0.5777753 -0.126636,0.8310467 -0.07915,0.2611861 -0.174124,0.5223722 -0.2691,0.791473 v 0.1424651 h 0.03957 l -0.02374,0.094977 h 0.102892 z"
         id="path409" />
      <path
         d="m 32.289002,6.161234 h 0.03166 V 6.13749 l 0.245356,-0.071232 0.02374,-0.039574 c 0.277016,-0.063318 0.561946,-0.1108062 0.846877,-0.1345504 0.28493,-0.023744 0.58569,-0.031659 0.902279,-0.023744 l 0.237442,0.039574 0.07915,-0.015829 0.269101,0.039574 -0.01583,0.047488 -0.09498,0.047488 v 0.031659 l 0.08706,0.079147 c 0.174124,0.023744 0.340333,0.015829 0.490713,-0.023744 0.15038,-0.047488 0.30076,-0.087062 0.459054,-0.1108062 l 0.08706,0.01583 0.08706,0.00791 0.02374,-0.031659 -0.134551,-0.3799071 c -0.0633,-0.0554 -0.134535,-0.1028882 -0.197853,-0.1345471 -0.06332,-0.039574 -0.142465,-0.063318 -0.221613,-0.079147 l -0.704411,-0.047488 c -0.221612,-0.00791 -0.443224,-0.00791 -0.664837,0 -0.221612,0.00791 -0.43531,0.015829 -0.641093,0.039574 h -0.03166 l 0.01583,-0.055403 0.43531,-0.3165892 c 0.03957,-0.039574 0.09498,-0.079147 0.15038,-0.118721 0.0554,-0.031659 0.09498,-0.071233 0.126635,-0.1266357 l -0.07915,-0.2216124 c -0.04749,-0.039574 -0.09498,-0.071233 -0.15038,-0.094977 -0.04749,-0.023744 -0.110806,-0.055403 -0.166209,-0.087062 -0.102892,0.031659 -0.189954,0.055403 -0.284931,0.063318 -0.102891,0.015829 -0.197868,0.039574 -0.292845,0.063318 h -0.07915 l 0.06332,-0.079147 0.126636,-0.118721 0.530287,-0.3561628 v -0.055403 l -0.126636,-0.1424652 0.01583,-0.071233 0.07123,-0.039574 0.538202,-0.4115659 c 0,-0.031659 0,-0.071233 0,-0.1028915 -0.0079,-0.031659 -0.02374,-0.063318 -0.04749,-0.087062 l -0.07915,-0.063318 v -0.055403 l -0.28493,-0.079147 -0.08706,-0.00791 v 0.031659 c -0.229528,0.071232 -0.435311,0.174124 -0.641094,0.3086744 -0.213697,0.1266357 -0.395736,0.2928451 -0.577775,0.4669691 l -0.03166,-0.00791 -0.04749,-0.3561629 0.06332,-0.2770155 0.03166,0.00791 0.102891,-0.1266357 0.04749,-0.039574 C 33.032986,2.7579001 33.278343,2.6708381 33.5237,2.583776 33.761142,2.5046287 34.014413,2.4333961 34.275599,2.377993 l -0.01583,-0.094977 -0.02375,-0.00791 -0.01583,-0.071232 C 34.172699,2.148471 34.117297,2.1009825 34.046065,2.0772383 33.974835,2.0534943 33.911514,2.0297503 33.832367,2.0060053 l -0.09498,-0.00791 -0.0079,0.055403 c -0.213698,0.031659 -0.419481,0.087062 -0.60152,0.1662093 -0.189953,0.087062 -0.387822,0.1741241 -0.577775,0.2532714 h -0.07123 l 0.158295,-0.379907 h 0.03957 l 0.06332,-0.1978683 h 0.03166 l 0.261186,-0.4273954 0.237442,-0.055403 c 0.58569,0.3719923 1.155551,0.7835582 1.725411,1.2267831 0.569861,0.4590544 1.210954,0.7518994 1.92328,0.8943645 l 0.182039,-0.023744 V 3.49397 C 36.673762,3.3673343 36.270111,3.1773808 35.906033,2.9161947 35.549871,2.6629233 35.177878,2.409652 34.813801,2.1563806 v -0.031659 l -0.411566,-0.4036513 0.0079,-0.071232 0.16621,-0.031659 V 1.58652 c 0.0554,0.00791 0.110806,-0.00791 0.158294,-0.039574 0.03957,-0.015829 0.08706,-0.047488 0.126636,-0.087062 l 0.06332,-0.1028914 h 0.03957 l 0.09498,-0.079147 0.06332,-0.1028915 -0.0554,-0.22161247 -0.118721,-0.087062 V 0.82670594 L 34.84546,0.7633881 34.520956,0.75547337 c 0.01583,0.0395737 0.04749,0.0633178 0.07915,0.087062 0.03957,0.0237442 0.07123,0.0316589 0.110806,0.0395736 C 34.671335,0.99291528 34.592188,1.0958068 34.497211,1.1986983 34.39432,1.293675 34.291428,1.3886518 34.212281,1.4915433 34.069816,1.412396 33.927351,1.3332487 33.800715,1.2461866 33.666165,1.1749541 33.5237,1.119551 33.365405,1.0799773 l 0.102892,-0.17412406 c 0.04749,-0.007915 0.09498,-0.0237442 0.126635,-0.0633178 0.03957,-0.0316589 0.07915,-0.0474884 0.134551,-0.0395737 l 0.0554,-0.15037987 0.261186,-0.0158295 -0.07915,-0.21369771 c -0.02375,-0.0158295 -0.03957,-0.0395737 -0.06332,-0.0633178 -0.02374,-0.0237442 -0.0554,-0.0316589 -0.09498,-0.0237442 v -0.0237442 l -0.656923,-0.24535663 -0.07915,0.0079147 -0.237442,0.37990704 -0.672752,0.11872095 c -0.09498,-0.007915 -0.189953,-0.007915 -0.269101,-0.0158295 -0.09498,0 -0.182039,-0.0158295 -0.261186,-0.0554031 h -0.04749 l -0.0079,0.0395737 v 0.0237442 l 0.166209,0.18995352 c 0.03957,0.0395737 0.08706,0.087062 0.126636,0.13455041 0.03957,0.0554031 0.07915,0.087062 0.142465,0.1028915 l -0.0079,0.0395736 h 0.03957 l 0.06332,0.1345504 0.427395,0.039574 -0.13455,0.379907 H 32.36816 C 32.29693,1.768559 32.21778,1.9347684 32.114889,2.1009777 32.011997,2.267187 31.924935,2.4413111 31.837873,2.6154351 l -0.03957,-0.00791 C 31.647924,2.8607966 31.489629,3.1061532 31.30759,3.3356803 31.125551,3.5731222 30.959342,3.8184788 30.793133,4.0559207 h -0.03166 l -0.102892,0.079147 0.01583,0.079147 0.07915,0.031659 c 0.04749,-0.00791 0.102892,-0.00791 0.166209,-0.00791 0.04749,0.00791 0.09498,-0.00791 0.134551,-0.039574 0.02374,-0.00791 0.04749,-0.01583 0.07123,-0.01583 0.02374,-0.00791 0.03957,-0.023744 0.04749,-0.063318 l 0.07123,-0.031659 0.03957,-0.055403 0.07123,-0.015829 C 31.552932,3.8105592 31.727056,3.581032 31.893265,3.3515048 32.05156,3.1219777 32.209854,2.8845358 32.35232,2.6629233 l 0.166209,0.039574 0.28493,-0.00791 h 0.04749 l -0.0079,0.071233 h -0.03166 C 32.62935,2.892456 32.534373,3.0665801 32.502714,3.272363 c -0.03166,0.2136977 -0.07123,0.4194807 -0.11872,0.617349 l 0.02374,0.1503799 0.261186,0.3482481 0.0554,0.023744 -0.03957,0.087062 0.01583,0.1978682 0.03957,0.00791 c 0,0.047488 0.01583,0.087062 0.03957,0.1187209 0.02374,0.023744 0.0554,0.055403 0.07915,0.079147 l 0.538202,-0.1820388 h 0.03957 l -0.554031,0.5777753 c -0.126636,0.079147 -0.253272,0.1424652 -0.379908,0.1820388 -0.13455,0.039574 -0.253271,0.079147 -0.387821,0.1108062 l -0.04749,0.087062 0.0554,0.2611861 h 0.03957 l -0.0079,0.055403 z m 0.561946,-1.788729 -0.01583,0.00791 -0.04749,-0.1266356 c 0.02374,-0.1582946 0.06332,-0.324504 0.13455,-0.4669691 0.0554,-0.1503799 0.142465,-0.2849303 0.245357,-0.4194807 l 0.332418,-0.1424651 h 0.0554 l -0.340334,0.3007597 -0.06332,0.1108062 c 0,0.047488 0.0079,0.094977 0.03166,0.1345504 0.02374,0.039574 0.03957,0.079147 0.06332,0.1345504 -0.03957,0.087062 -0.102891,0.1662094 -0.182039,0.2374419 -0.07915,0.063318 -0.142465,0.1424652 -0.213697,0.2136978 z m -1.076404,-2.1607213 0.07123,0.00791 0.02374,-0.071232 h 0.0554 l -0.03957,-0.1820388 c -0.06332,-0.063318 -0.126636,-0.1108062 -0.182039,-0.1662094 -0.06332,-0.055403 -0.126636,-0.087062 -0.213698,-0.1028914 -0.07123,-0.00791 -0.15038,-0.00791 -0.229527,-0.01583 -0.08706,-0.00791 -0.166209,0.00791 -0.229527,0.039574 l 0.102891,0.1345505 c 0.102892,0.063318 0.205783,0.1345504 0.308675,0.2057829 0.102891,0.071233 0.213697,0.1266357 0.332418,0.1503799 z m 3.624947,0.1582946 c 0.166209,-0.039574 0.308674,-0.1028915 0.443225,-0.1820388 0.126635,-0.087062 0.261186,-0.174124 0.395736,-0.2611861 v -0.039574 h 0.03166 l 0.189953,-0.118721 0.02374,-0.039574 -0.03957,-0.1899535 -0.0554,-0.00791 0.0079,-0.039574 -0.0554,-0.055403 c -0.04749,-0.039574 -0.09498,-0.079147 -0.142466,-0.1028915 -0.0554,-0.023744 -0.110806,-0.047488 -0.174124,-0.063318 l -0.514457,0.055403 c 0.0554,0.039574 0.110806,0.063318 0.182039,0.087062 0.06332,0.023744 0.13455,0.047488 0.205783,0.063318 C 35.85062,1.634012 35.779389,1.7923066 35.676497,1.9189423 35.573606,2.0614074 35.4628,2.1959578 35.336164,2.3146788 Z"
         id="path411" />
      <path
         d="m 42.815577,5.9317068 0.07123,-0.031659 c 0.0554,-0.071233 0.09498,-0.1424651 0.102892,-0.2216124 0.0079,-0.071233 0.02374,-0.1582946 0.03957,-0.2453567 l -0.0554,-0.672752 V 3.3356754 l 0.08706,-0.5065427 V 2.4413109 L 42.863066,2.377993 V 2.32259 c 0.261186,-0.055403 0.530287,-0.1187209 0.799388,-0.1662093 0.2691,-0.055403 0.538201,-0.079147 0.823132,-0.079147 l 0.110806,-0.1424651 -0.02374,-0.1108063 -0.506543,-0.174124 c -0.110806,0.1028915 -0.237442,0.1662093 -0.371992,0.1899535 -0.15038,0.023744 -0.277016,0.055403 -0.411566,0.094977 H 43.17174 C 43.21131,1.6735827 43.274632,1.428226 43.369609,1.2066136 43.464589,0.97708642 43.551647,0.7633887 43.646624,0.54177626 V 0.39931052 L 43.17174,0.22518646 c -0.205783,0 -0.387821,0.0395736 -0.554031,0.11080622 -0.166209,0.0791473 -0.371992,0.11080622 -0.593605,0.087062 l 0.03166,0.087062 c 0.0554,0.0395737 0.118721,0.0712326 0.182039,0.11872095 0.06332,0.0474884 0.134551,0.0791473 0.213698,0.10289149 0.06332,0 0.142465,-0.007915 0.221612,-0.0158295 0.07123,-0.007915 0.142465,-0.0316589 0.189954,-0.0712326 h 0.0554 L 42.886807,0.9533415 H 42.64145 l -0.03166,0.0554031 -0.831047,0.3086745 0.13455,0.1741241 0.16621,-0.031659 h 0.142465 C 42.182399,1.6023495 42.111167,1.7448146 42.00036,1.8635356 41.881639,1.9822565 41.786663,2.1088922 41.691686,2.2355279 L 41.351352,2.496714 c -0.0554,0 -0.102891,0.015829 -0.150379,0.031659 -0.04749,0.031659 -0.07915,0.079147 -0.09498,0.1345504 l 0.07915,0.3324187 0.926024,-0.4194807 c 0.0554,-0.023744 0.102891,-0.00791 0.150379,0.039574 0.04749,0.047488 0.08706,0.079147 0.126636,0.1028915 l 0.08706,0.2453567 0.04749,0.031659 c 0.134551,0.2216124 0.197869,0.4748838 0.189954,0.7439846 -0.0079,0.2691008 0,0.5223722 0.03957,0.7677288 V 5.3776763 L 42.47524,5.3143583 42.245713,5.0690017 42.419837,5.6230328 Z m -1.15555,-0.58569 c 0.0554,-0.1820388 0.13455,-0.379907 0.221612,-0.5698606 0.09498,-0.1978682 0.189954,-0.3878217 0.284931,-0.5777752 h 0.0554 l 0.0554,-0.1108063 -0.221613,0.1978683 -0.340333,0.3007597 h -0.0554 c 0.0554,-0.1582946 0.118721,-0.3403334 0.182039,-0.5144574 0.06332,-0.1820388 0.13455,-0.3482481 0.213697,-0.5223722 V 3.3594196 l -0.41948,-0.087062 -0.308675,0.063318 0.277016,0.2136977 c 0,0.2532714 -0.01583,0.4827985 -0.0554,0.704411 -0.03957,0.2295271 -0.126636,0.4273954 -0.277016,0.6173489 l 0.02374,0.1424652 h 0.08706 v 0.055403 z m -2.231954,-0.087062 1.503799,-0.7756436 -0.03166,-0.1424651 c -0.182039,-0.023744 -0.356163,0.00791 -0.498628,0.094977 -0.15038,0.079147 -0.30076,0.1582946 -0.45114,0.2136977 h -0.0554 l 0.118721,-0.2216125 h 0.142465 l 0.02374,-0.1424651 0.16621,-0.1978683 0.08706,-0.1662093 h 0.0554 L 40.686515,3.7234972 V 3.668094 h 0.0554 l 0.110806,-0.1662093 v -0.087062 l -0.197868,-0.079147 h -0.253271 v 0.055403 l -0.110806,0.023744 h -0.0554 c -0.02374,-0.1662094 -0.0079,-0.3165892 0.03166,-0.4590544 0.03957,-0.1345504 0.102892,-0.2611861 0.197869,-0.379907 V 2.4413109 L 40.346182,2.3542488 40.203717,2.1642953 V 2.0455744 l 0.08706,-0.031659 0.229527,-0.3324187 -0.03166,-0.055403 -0.0554,-0.031659 c -0.118721,-0.015829 -0.213698,0 -0.277016,0.055403 -0.07915,0.055403 -0.166209,0.1108062 -0.261186,0.1503798 h -0.04749 V 1.6814968 l -0.261186,0.1741241 0.118721,0.3324186 h 0.142465 L 39.396414,2.90828 c -0.02374,0.079147 -0.0079,0.1424651 0.04749,0.1978682 0.04749,0.055403 0.08706,0.1108062 0.118721,0.1662093 l 0.332419,-0.1345504 h 0.08706 l 0.03166,0.1345504 V 3.5018847 L 39.451817,3.8897065 39.206461,3.7789003 h -0.0554 v 0.079147 l 0.277016,0.2849302 c 0.0554,0.023744 0.102892,0.01583 0.118721,-0.015829 0.02374,-0.023744 0.06332,-0.055403 0.102891,-0.094977 h 0.0554 L 39.815895,4.222125 39.67343,4.5070553 c -0.0554,0.094977 -0.126636,0.1503799 -0.205783,0.1662094 -0.08706,0.023744 -0.158295,0.071232 -0.213698,0.1424651 0,0.087062 0.01583,0.1662093 0.0554,0.2374419 0.03957,0.071233 0.07915,0.1345504 0.118721,0.205783 z m 5.033768,-0.498628 0.07915,-0.031659 v -0.055403 l 0.142465,-0.023744 0.166209,-0.1662094 -0.03166,-0.055403 v -0.063318 l 0.08706,0.031659 h 0.03166 l -0.06332,-0.087062 C 44.691369,4.2933577 44.50933,4.2537841 44.351035,4.198381 44.176911,4.1508926 44.010702,4.0875747 43.836578,4.0321716 h -0.07123 l 0.0554,0.1108062 -0.0554,0.3403334 v 0.079147 l 0.07123,-0.055403 h 0.316589 v 0.055403 z m -4.511396,-0.7598141 -0.02374,0.031659 -0.166209,-0.031659 0.0554,-0.1582946 0.110806,-0.063318 h 0.0554 z M 38.217119,3.5493731 38.478305,3.4464816 C 38.581197,3.3277606 38.684088,3.2090397 38.78698,3.082404 38.87404,2.9478536 38.93736,2.8133032 38.976933,2.6629233 h 0.0554 l 0.03166,-0.1345504 h 0.0554 C 39.230199,2.2355279 39.356834,1.9585123 39.4993,1.6894115 39.63385,1.4203107 39.800059,1.1591246 39.982098,0.89793851 l 0.197868,-0.0237442 0.02374,-0.087062 0.316589,0.087062 v 0.0791473 L 39.982104,1.5152875 c 0.174124,-0.094977 0.340334,-0.1899536 0.514458,-0.2849303 0.158294,-0.087062 0.348248,-0.1345504 0.554031,-0.1345504 V 0.87419432 c -0.134551,-0.0949768 -0.277016,-0.15037987 -0.427396,-0.1582946 -0.142465,-0.007915 -0.300759,-0.0237442 -0.443225,-0.0395737 l -0.0554,-0.16620933 -0.41948,-0.19786825 h -0.142466 l 0.02374,0.11080622 C 39.459732,0.98500055 39.293523,1.5311169 39.08774,2.0614038 38.874042,2.5916908 38.581197,3.082404 38.20129,3.5256289 Z m 5.065428,-0.071233 c 0.09498,-0.079147 0.197868,-0.1503799 0.308674,-0.205783 0.118721,-0.055403 0.229527,-0.1028915 0.332419,-0.1582946 l 0.253271,0.055403 0.253271,-0.087062 V 2.995342 h 0.0554 l 0.02374,-0.055403 V 2.860792 l -0.641093,-0.1978683 -0.253272,0.023744 -0.02374,0.1424652 -0.189953,0.1345504 0.07915,0.063318 z m -3.609117,-0.514457 -0.02375,0.031659 h -0.06332 c 0.02374,-0.118721 0.06332,-0.2136977 0.13455,-0.3086745 0.06332,-0.094977 0.13455,-0.1741241 0.205783,-0.2453566 h 0.0554 v 0.3086745 z m 3.07883,-0.8864498 -1.005171,0.3640776 h -0.08706 V 2.377993 h 0.0554 l 0.474884,-0.5065427 0.0554,-0.071233 0.482798,-0.3403334 h 0.08706 l -0.03166,0.1899536 -0.229528,0.063318 0.197869,0.2770156 z"
         id="path413" />
    </g>
  </g>
</svg>
