<?xml version="1.0" encoding="UTF-8" standalone="no"?>
<!-- Created with Inkscape (http://www.inkscape.org/) -->

<svg
   width="45.000999mm"
   height="7mm"
   viewBox="0 0 45.000998 7"
   version="1.1"
   id="svg5"
   inkscape:version="1.2.2 (b0a8486, 2022-12-01)"
   sodipodi:docname="topGenreLOGO.svg"
   xmlns:inkscape="http://www.inkscape.org/namespaces/inkscape"
   xmlns:sodipodi="http://sodipodi.sourceforge.net/DTD/sodipodi-0.dtd"
   xmlns="http://www.w3.org/2000/svg"
   xmlns:svg="http://www.w3.org/2000/svg">
  <sodipodi:namedview
     id="namedview7"
     pagecolor="#ffffff"
     bordercolor="#000000"
     borderopacity="0.25"
     inkscape:showpageshadow="2"
     inkscape:pageopacity="0.0"
     inkscape:pagecheckerboard="0"
     inkscape:deskcolor="#d1d1d1"
     inkscape:document-units="mm"
     showgrid="false"
     inkscape:zoom="4.7488465"
     inkscape:cx="99.919001"
     inkscape:cy="17.583217"
     inkscape:window-width="1440"
     inkscape:window-height="771"
     inkscape:window-x="1080"
     inkscape:window-y="1616"
     inkscape:window-maximized="0"
     inkscape:current-layer="layer1" />
  <defs
     id="defs2">
    <rect
       x="-1.8951972"
       y="4.0009718"
       width="213.31496"
       height="77.703079"
       id="rect268" />
  </defs>
  <g
     inkscape:label="Layer 1"
     inkscape:groupmode="layer"
     id="layer1">
    <text
       xml:space="preserve"
       style="font-size:8.85995px;font-family:KouzanBrushFontGyousyoOTF;-inkscape-font-specification:KouzanBrushFontGyousyoOTF;fill:#000000;stroke-width:0.166124"
       x="-1.3619121"
       y="8.4681635"
       id="text214"
       transform="scale(0.67763293,1.4757252)"><tspan
         sodipodi:role="line"
         id="tspan212"
         style="stroke-width:0.166124"
         x="-1.3619121"
         y="8.4681635" /></text>
    <text
       xml:space="preserve"
       transform="scale(0.26458333)"
       id="text266"
       style="font-size:53.3333px;font-family:KouzanBrushFontGyousyoOTF;-inkscape-font-specification:KouzanBrushFontGyousyoOTF;white-space:pre;shape-inside:url(#rect268);display:inline;fill:#000000" />
    <g
       id="g351">
      <path
         style="color:#000000;fill:#000000;fill-rule:evenodd;-inkscape-stroke:none"
         d="m 4.4179687,7.6269531 v 0.21875 z"
         id="path391" />
      <g
         id="g338">
        <g
           aria-label="お魚ジャンル"
           transform="scale(0.87321724,1.1451904)"
           id="text932"
           style="font-size:7.63622px;font-family:KouzanBrushFontGyousyoOTF;-inkscape-font-specification:KouzanBrushFontGyousyoOTF;stroke-width:0.143179">
          <path
             d="M 0.70855361,5.871219 0.89182289,5.8406741 C 0.99872997,5.7566757 1.0827284,5.6726773 1.1514544,5.5657702 1.2049079,5.4588631 1.2583615,5.3595922 1.311815,5.2450489 1.5867189,5.0312348 1.8845315,4.8479655 2.1976165,4.7105135 2.5107015,4.5730616 2.839059,4.4737907 3.1903251,4.4203372 c 0.1909055,-0.015273 0.3741748,-0.00764 0.5574441,0.015272 0.1909055,0.030545 0.3436299,0.1069071 0.488718,0.2367228 L 4.1830337,4.7792395 3.4728652,4.6188789 3.6943156,4.7792395 3.6637707,4.8632379 v 0.022909 l 0.1069071,0.030545 0.1527244,0.2749039 0.2825402,0.1679968 c 0.1145433,0.015273 0.2061779,0 0.3054488,-0.038181 C 4.610662,5.28323 4.6946604,5.2526852 4.7862951,5.2221403 L 4.8932022,4.970145 C 4.8702935,4.8403293 4.8473848,4.7334222 4.81684,4.6341513 4.7786589,4.5348805 4.7175691,4.4356096 4.6335707,4.343975 4.5113912,4.1988868 4.366303,4.1072522 4.2059424,4.0537986 4.0303093,4.0079813 3.8623125,3.9774364 3.6943156,3.962164 c -0.3970834,0 -0.7788944,0.053454 -1.1377968,0.1450882 C 2.1976165,4.206523 1.8539866,4.3516112 1.5179929,4.5272443 H 1.4721756 L 1.6249,3.4658097 V 2.2592869 L 1.6019914,2.2287421 V 1.984383 L 1.8845315,1.7629326 1.9914386,1.5262098 h 0.06109 v -0.06109 h 0.045817 l 0.015272,-0.06109 v -0.022909 h -0.06109 V 1.289487 h 0.045817 v -0.015272 l -0.1069071,0.076362 v 0.030545 h -0.022909 v 0.022909 H 1.9150764 V 1.3811216 L 1.6249,1.5567547 h -0.076362 v 0.015272 h -0.06109 C 1.4569032,1.3734854 1.4263583,1.1749437 1.3958134,0.95349331 1.3576323,0.74731538 1.3041788,0.54877366 1.2354528,0.35786816 H 1.2049079 L 1.3881772,1.3811216 1.3729048,1.6789342 0.79255203,1.9232933 C 0.63219141,1.9462019 0.50237568,1.9309295 0.38019616,1.8851122 0.25038042,1.8469311 0.13583712,1.7934775 0.0136576,1.740024 v -0.030545 l 0.06872598,0.053454 0.03054488,0.091635 c 0.0992709,0.045817 0.21381416,0.1069071 0.32835746,0.1832693 0.10690708,0.076362 0.22908659,0.1298157 0.35126611,0.1603606 L 1.3729048,2.121835 v -0.053454 h 0.068726 l 0.030545,0.4429008 c 0.00764,0.381811 0.00764,0.763622 -0.030545,1.1301605 C 1.4034496,4.0156175 1.3270874,4.3668836 1.2049079,4.6952411 L 0.79255203,4.9166915 v 0.030545 h -0.0992709 l 0.0152724,0.106907 c -0.0305449,0.091635 -0.0534535,0.1832693 -0.068726,0.274904 -0.0229087,0.083998 -0.0610898,0.1679968 -0.11454329,0.2367228 l 0.0839984,0.083998 0.0229087,0.1603606 0.10690708,0.030545 z M 4.2899408,1.289487 h 0.1603606 v -0.045817 c 0.045817,0 0.099271,0.00764 0.1527244,0.015272 0.053453,0.00764 0.083998,-0.015272 0.099271,-0.06109 l 0.083998,-0.030545 0.1069071,-0.17563309 -0.030545,-0.068726 C 4.7939313,0.82367758 4.7175691,0.7549516 4.6335707,0.70913428 4.541936,0.66331696 4.4426652,0.61749964 4.3433943,0.58695476 c -0.1298157,0 -0.2519952,0.0152724 -0.3665385,0.0381811 C 3.84704,0.65568074 3.7248605,0.68622562 3.6103172,0.7167705 l 0.053454,0.12217952 c 0.099271,0.068726 0.206178,0.12981573 0.3130851,0.18326928 0.099271,0.053454 0.2061779,0.1221795 0.313085,0.2061779 z"
             id="path388" />
          <path
             d="m 7.6727715,5.7184946 0.106907,-0.015273 V 5.6726773 L 7.863677,5.6574048 V 5.6039513 L 8.1462171,5.5504977 C 8.1309447,5.5275891 8.108036,5.5046804 8.0851273,5.489408 8.0545825,5.4741355 8.03931,5.4512269 8.03931,5.4130458 L 7.970584,5.3672285 8.0164014,5.2603214 v -0.022909 l -0.137452,0.038181 C 7.6880439,5.2374127 7.4971384,5.1915954 7.3062329,5.1305056 7.1153274,5.0770521 6.9244219,5.0312348 6.7411526,4.9854175 h -0.030545 l 0.083998,0.2061779 0.2061779,0.1756331 v 0.022909 l 0.313085,0.2138142 h 0.068726 l 0.015272,0.053453 z m 1.4814266,0 -0.045817,-0.045817 0.00764,-0.053454 0.091635,0.038181 0.313085,-0.1603606 v -0.030545 h 0.015272 l -0.091635,-0.076362 v -0.022909 l -0.06109,-0.022909 -0.015272,-0.053453 C 9.2152879,5.2374127 9.0701997,5.1839592 8.9098391,5.1457781 8.7571147,5.107597 8.5891179,5.0770521 8.4363935,5.0617797 H 8.2378517 l 0.022909,0.053453 0.1221795,0.091635 v 0.030545 c 0.091635,0.068726 0.1756331,0.1298158 0.2749039,0.1679969 0.091635,0.053454 0.1756331,0.1145433 0.2749039,0.1832692 l 0.015273,-0.022909 0.1069071,0.038181 z m 1.8326929,-0.099271 -0.05345,-0.1069071 v -0.068726 l 0.06873,0.053454 c 0.04582,0 0.09164,0.00764 0.129816,0.030545 0.03818,0.022909 0.07636,0.045817 0.114543,0.06109 l 0.05345,-0.022909 v -0.030545 h -0.03818 l -0.03818,-0.068726 v -0.038181 c 0.05345,0.022909 0.09927,0.038181 0.145088,0.038181 0.05345,0 0.09927,0.00764 0.152724,0.015273 h 0.05345 l 0.05345,-0.068726 v -0.038181 l -0.198541,-0.06109 v -0.038181 h 0.06873 v -0.015272 h -0.01527 v -0.068726 c -0.09163,-0.022909 -0.167997,-0.053453 -0.251995,-0.091635 -0.084,-0.038181 -0.175633,-0.06109 -0.259632,-0.083998 v -0.030545 c -0.129815,-0.068726 -0.267267,-0.1145433 -0.404719,-0.137452 -0.145088,-0.015272 -0.28254,-0.045817 -0.427628,-0.091635 h -0.05345 l 0.160361,0.2825401 h 0.03054 v 0.022909 l 0.114544,0.1298157 h 0.03818 l 0.09164,0.083998 0.137451,0.038181 0.114544,0.1679969 -0.01527,-0.053454 v -0.038181 l 0.160361,0.1221795 z m 0.755986,-0.3054488 c 0.106907,-0.038181 0.213814,-0.076362 0.313085,-0.1145433 0.09927,-0.038181 0.206178,-0.076362 0.305449,-0.099271 0.06872,-0.00764 0.137451,0.00764 0.190905,0.053453 0.05345,0.045817 0.09927,0.083998 0.152724,0.1069071 h 0.05345 v -0.053454 l 0.06873,0.030545 h 0.03818 v -0.030545 h 0.03818 v -0.038181 l 0.198542,0.038181 0.129816,-0.015272 -0.03818,-0.076362 -0.05345,-0.015272 -0.01527,-0.045817 C 12.949399,4.9243277 12.76613,4.8250568 12.582861,4.7486946 12.391955,4.6799687 12.185777,4.6265151 11.971963,4.6036065 l -0.09163,0.015272 -0.01527,-0.015272 -0.435264,0.068726 c 0.106907,0.015273 0.213814,0.030545 0.313085,0.053454 0.106907,0.015272 0.206178,0.045817 0.290176,0.083998 -0.02291,0.091635 -0.05345,0.1756331 -0.106907,0.2519953 -0.05345,0.083998 -0.114543,0.1603606 -0.183269,0.2290866 z M 8.8258407,4.1836144 c 0.1985417,-0.030545 0.381811,-0.076362 0.557444,-0.1450882 0.1679969,-0.068726 0.3512661,-0.137452 0.5345354,-0.1985417 l 0.068726,0.022909 0.2596319,-0.083998 0.05345,0.00764 0.198542,0.2825402 0.16036,-0.053454 0.084,0.038181 0.084,-0.038181 c 0.084,-0.244359 0.160361,-0.5039905 0.221451,-0.7559858 0.06873,-0.2519952 0.152724,-0.5039905 0.251995,-0.7559857 h 0.03055 l 0.01527,-0.053454 0.06873,-0.038181 v -0.030545 l 0.05345,-0.022909 c 0.02291,-0.030545 0.03818,-0.06109 0.05345,-0.099271 0.0076,-0.038181 0.02291,-0.06109 0.03055,-0.099271 l 0.07636,-0.022909 0.03055,-0.1909055 h 0.06109 l -0.05345,-0.099271 c -0.01527,-0.00764 -0.03055,-0.030545 -0.04582,-0.053454 -0.02291,-0.022909 -0.04582,-0.022909 -0.084,-0.015272 l -0.03818,-0.091635 C 11.399247,1.6178445 11.299976,1.5643909 11.193069,1.533846 11.086162,1.5033012 10.979255,1.4803925 10.849439,1.4651201 l -0.519263,0.091635 c -0.114543,0 -0.22145,-0.030545 -0.297813,-0.091635 -0.091634,-0.053454 -0.1909051,-0.083999 -0.2825397,-0.083999 v -0.053454 l 0.076362,-0.038181 0.015272,-0.030545 c 0.1221795,-0.015272 0.2290871,-0.053454 0.3207211,-0.1069071 0.09164,-0.045817 0.198542,-0.076362 0.305449,-0.083998 l 0.01527,-0.053453 0.106907,-0.0152725 v -0.0381811 l 0.114544,-0.0305449 v -0.0152724 l 0.06873,-0.0305449 V 0.84658624 L 10.696715,0.7549516 C 10.551626,0.70913428 10.421811,0.64804452 10.299631,0.58695476 10.169815,0.51822878 10.032363,0.47241146 9.879639,0.46477524 L 9.810913,0.48004768 9.6581886,0.46477524 9.6429162,0.43423036 C 9.497828,0.35023194 9.3603761,0.28150596 9.2152879,0.2204162 9.0778359,0.16696266 8.9251115,0.1058729 8.7800233,0.05241936 h -0.015272 l 0.015272,0.08399842 v 0.0534535 C 8.627299,0.44186658 8.4822108,0.69386184 8.3371226,0.94585709 8.1920344,1.2054886 8.0240376,1.4422114 7.8331321,1.6560256 L 8.03931,1.5567547 8.2760328,1.3047594 8.5356643,1.1596713 l 0.030545,-0.053454 0.038181,-0.053454 h 0.038181 v -0.038181 h 0.030545 l 0.022909,-0.0534536 c 0.1221795,-0.0458173 0.2519953,-0.0992709 0.3894472,-0.15272439 0.1221796,-0.0458173 0.2596315,-0.0992709 0.381811,-0.1527244 l 0.068726,0.0305449 C 9.3985572,0.93058465 9.2687414,1.1749437 9.1541981,1.4193027 9.047291,1.6636618 8.9098391,1.9003846 8.7647509,2.1371074 v 0.038181 l 0.06109,-0.038181 0.053453,-0.099271 0.053453,-0.022909 h 0.038181 l 0.083998,0.2596315 0.053454,0.015272 v 0.053454 h 0.030545 v 0.038181 l 0.053453,0.053453 0.053454,0.015272 0.068726,-0.015272 c 0.038181,0 0.068726,0 0.099271,0 0.022909,0 0.038181,0.015272 0.053453,0.053453 L 9.4443745,2.6869152 C 9.2992863,2.7556412 9.1465619,2.8320034 9.0014737,2.8930932 8.8487493,2.9618192 8.7036611,3.0381814 8.5509368,3.1221798 H 8.4974832 L 8.3982124,2.9312743 C 8.245488,2.8472759 8.1003998,2.7861861 7.9400392,2.7174601 7.7873148,2.6487341 7.6345904,2.5800082 7.4895022,2.503646 h -0.053454 l 0.3970835,0.3512661 c 0.06109,0.083998 0.1145433,0.175633 0.1527244,0.2596315 0.038181,0.076362 0.053454,0.175633 0.053454,0.2825401 l 0.083998,0.068726 0.083998,0.1527244 0.244359,0.1909055 0.1527244,-0.022909 v -0.022909 l 0.1221795,0.022909 v 0.038181 l -0.053453,0.038181 0.022909,0.1756331 z m 0.068726,-0.4734457 -0.015272,0.015273 -0.083998,-0.015273 C 8.7647509,3.649079 8.7418422,3.580353 8.7265698,3.511627 8.7036611,3.4505372 8.6731163,3.3818113 8.6196627,3.3283577 l 0.022909,-0.053454 c 0.1145433,-0.06109 0.2367228,-0.1145433 0.3741748,-0.1527244 0.1221795,-0.045817 0.2519952,-0.091635 0.381811,-0.137452 h 0.045817 c 0.022909,0.091635 0.00764,0.1603606 -0.053454,0.206178 C 9.322195,3.2443593 9.2763776,3.3130853 9.2458328,3.3818113 H 9.2076517 L 8.9174753,3.6719876 Z m 0.6261701,-0.068726 -0.2596315,0.099271 h -0.068726 v -0.053453 l 0.083998,-0.015273 v -0.030545 l 0.1450882,-0.091635 h 0.06109 l 0.053453,0.068726 z M 10.085817,3.5650805 H 9.879639 L 9.948365,3.3283577 9.9330926,3.2367231 10.001819,3.0687262 c 0.09163,-0.068726 0.190905,-0.1298157 0.297812,-0.175633 0.09164,-0.045817 0.190906,-0.099271 0.274904,-0.1832693 l -0.05345,-0.053453 v -0.038181 c -0.084,-0.022909 -0.167997,-0.053454 -0.251996,-0.076362 -0.084,-0.022909 -0.183269,-0.022909 -0.2825399,-0.00764 l -0.053453,-0.068726 v -0.083998 l 0.053453,-0.038181 v -0.030545 c 0.099271,-0.06109 0.1985419,-0.1221795 0.2978129,-0.206178 0.09163,-0.083998 0.190905,-0.1374519 0.305448,-0.175633 h 0.114544 c 0,0.2749039 -0.01527,0.5421716 -0.05345,0.8018031 -0.03818,0.2596314 -0.09163,0.5116267 -0.152724,0.763622 l -0.06873,0.015272 h -0.09927 v -0.015272 l -0.229087,-0.06109 -0.09927,-0.1450882 h -0.015273 l 0.068726,0.2214504 h 0.03055 z"
             id="path385" />
          <path
             d="m 16.080235,5.5352253 0.274904,-0.1221795 0.03055,-0.06109 0.084,-0.030545 0.198542,-0.2367228 h 0.05345 l 0.02291,-0.06109 0.34363,-0.2138142 0.702532,-0.5498078 0.374175,-0.4581732 h 0.05345 c 0.198542,-0.1985418 0.389448,-0.4123559 0.549808,-0.6338063 0.160361,-0.2138142 0.267268,-0.4429008 0.320722,-0.694896 h 0.05345 l 0.03818,-0.076362 v -0.045817 h -0.03818 v 0.030545 h -0.05345 v -0.030545 l -0.282541,0.3436299 h -0.06109 v 0.053453 l -0.328358,0.2978126 -0.05345,0.091635 c -0.335994,0.2443591 -0.664351,0.4963543 -0.985073,0.763622 -0.320721,0.2672677 -0.679623,0.450537 -1.076707,0.5268992 l -0.145088,0.2367228 -0.106907,0.045817 v 0.045817 l -0.481082,0.1832692 0.106907,0.2519953 c 0.03818,0.068726 0.09927,0.137452 0.167997,0.1832693 0.07636,0.06109 0.152724,0.1145433 0.236723,0.1603606 z m 0.50399,-2.1228692 0.137452,-0.106907 0.05345,-0.1069071 c 0,-0.1145433 -0.0076,-0.2367228 -0.02291,-0.3589024 -0.02291,-0.106907 -0.04582,-0.2214503 -0.084,-0.3207212 -0.129816,-0.045817 -0.259632,-0.099271 -0.389447,-0.1374519 -0.137452,-0.038181 -0.267268,-0.083999 -0.412356,-0.137452 h -0.09927 c 0.03054,0.068726 0.06109,0.1450882 0.06873,0.2214504 0.0076,0.068726 0.03055,0.1298157 0.06873,0.1832692 l 0.05345,0.022909 z m 0.244359,-1.2599762 0.06109,-0.1298158 0.114543,-0.053453 0.190906,-0.2519953 -0.02291,-0.1298157 C 17.042399,1.4880287 16.889674,1.4040303 16.73695,1.3505768 16.576589,1.2971232 16.416229,1.2436697 16.240595,1.1902161 h -0.06109 v 0.076362 h -0.09927 v 0.015273 h -0.06109 l 0.473446,0.3589023 z M 19.233994,1.4651201 19.401991,1.3353043 19.264539,1.0069469 18.775821,0.86185868 h -0.05345 l 0.167997,0.38181102 z m 0.755985,-0.2214504 h 0.09163 l 0.02291,-0.1069071 h 0.06109 l 0.03818,-0.045817 -0.09927,-0.20617797 C 20.028161,0.80840514 19.936526,0.7549516 19.844891,0.72440672 19.737984,0.70149806 19.631077,0.66331696 19.539443,0.62513586 h -0.084 l 0.229087,0.41235584 c 0.03818,0.053454 0.09163,0.083999 0.16036,0.099271 0.06873,0.015272 0.106907,0.053454 0.145088,0.1069071 z"
             id="path382" />
          <path
             d="m 25.656039,6.0773969 -0.02291,-0.030545 0.02291,-0.022909 C 25.526224,5.6115875 25.396408,5.176323 25.289501,4.7410584 25.174958,4.2981577 25.022233,3.8705293 24.8466,3.4658097 l 0.02291,-0.083998 1.046162,-0.4047197 h 0.03055 c -0.03818,0.2367228 -0.106907,0.4734456 -0.206178,0.694896 -0.09164,0.2290866 -0.22145,0.4352646 -0.374175,0.6261701 l 0.02291,0.030545 0.106907,-0.1221795 c 0.122179,-0.083998 0.229086,-0.1603606 0.335994,-0.244359 0.106907,-0.083998 0.213814,-0.1679969 0.335993,-0.2290866 l 0.297813,-0.3970835 h 0.03818 L 26.641112,3.198542 26.7862,3.0839987 V 2.9389105 l 0.236723,-0.099271 v -0.076362 c -0.084,-0.068726 -0.175633,-0.106907 -0.274904,-0.1145433 -0.09927,0 -0.183269,-0.030545 -0.259632,-0.083998 l -0.236722,0.030545 -0.02291,0.053453 -0.12218,0.030545 v 0.022909 l -0.084,-0.022909 h -0.01527 V 2.748005 C 25.808764,2.7709137 25.617858,2.816731 25.426953,2.8701845 25.236047,2.9312743 25.045142,2.992364 24.869509,3.06109 L 24.716784,3.0305451 C 24.655695,2.8625483 24.586969,2.7021877 24.518243,2.5265546 24.44188,2.366194 24.388427,2.1981972 24.373155,2.0149279 l -0.129816,-0.068726 -0.05345,0.022909 c -0.05345,-0.015273 -0.106907,-0.030545 -0.145088,-0.045817 -0.04582,-0.00764 -0.09164,-0.038181 -0.137452,-0.076362 l 0.084,0.1221795 -0.01527,0.1603606 c 0,0.076362 0.01527,0.1527244 0.04582,0.2290866 0.03055,0.076362 0.04582,0.1527244 0.06109,0.2214504 l 0.137452,0.068726 0.206178,0.450537 v 0.076362 l -0.213814,0.06109 -0.160361,-0.038181 -0.267267,0.06109 -0.06873,-0.022909 -0.129816,0.022909 -0.01527,0.076362 -0.206178,0.076362 0.419993,0.2290866 0.02291,0.053454 c 0.129816,-0.022909 0.251995,-0.053454 0.358903,-0.099271 0.106907,-0.045817 0.22145,-0.091635 0.335993,-0.1298157 l 0.06109,0.022909 c 0.129816,0.3283575 0.259631,0.656715 0.389447,0.9774362 0.12218,0.3283575 0.229087,0.6643511 0.328358,1.0003448 l -0.02291,0.1221795 c 0,0.038181 0.0076,0.083998 0.02291,0.1145433 0.0076,0.038181 0.03055,0.076362 0.05345,0.1069071 l 0.12218,0.076362 0.02291,0.068726 z"
             id="path379" />
          <path
             d="m 31.306828,5.0999608 0.511627,-0.381811 c 0.114543,-0.053454 0.22145,-0.1069071 0.320721,-0.1603607 0.09927,-0.053453 0.190905,-0.1221795 0.28254,-0.1985417 l 0.05345,-0.083998 h 0.06109 l 0.862893,-0.5574441 0.40472,-0.4199921 h 0.06109 l 0.198541,-0.175633 v -0.053454 l 0.09164,-0.030545 c 0.167997,-0.1756331 0.328357,-0.3436299 0.465809,-0.5268992 0.145089,-0.1832693 0.259632,-0.3741748 0.335994,-0.5803527 v -0.099271 h -0.06109 V 1.80875 h -0.02291 c -0.09927,0.1374519 -0.213814,0.2749039 -0.335994,0.4047196 -0.129816,0.1450882 -0.259631,0.2749039 -0.381811,0.3894472 v 0.053454 c -0.488718,0.381811 -0.9698,0.7254409 -1.47379,1.0461621 -0.496355,0.3207212 -1.023254,0.5803527 -1.588334,0.7788944 -0.03055,0.022909 -0.06873,0.030545 -0.106907,0.030545 -0.03818,0 -0.06873,0.022909 -0.084,0.076362 l -0.198541,0.083998 0.251995,0.1679969 0.137452,0.083998 0.09163,0.1527244 z M 32.337718,1.7782051 32.505714,1.7629326 32.658439,1.6254807 32.505714,1.289487 31.932998,1.1138539 31.734456,0.95349331 31.497733,0.90767599 h -0.06109 v 0.068726 l -0.03055,0.0839984 v 0.1298157 c 0.09927,0.099271 0.213814,0.1832693 0.320721,0.2443591 0.114543,0.06109 0.229087,0.1374519 0.320721,0.244359 z"
             id="path376" />
          <path
             d="M 40.76809,5.2221403 C 40.821544,5.107597 40.897906,5.0235986 41.004813,4.9396001 41.11172,4.8632379 41.218627,4.794512 41.310262,4.7334222 l 0.198542,-0.2367228 h 0.05345 c 0.09163,-0.206178 0.251995,-0.3970835 0.450537,-0.5727165 0.198542,-0.1679969 0.351266,-0.3665386 0.442901,-0.587989 l -0.03054,-0.1679968 -0.05345,0.053453 h -0.03054 V 3.0076365 C 42.234244,3.1374522 42.112065,3.2596317 41.959341,3.3970837 41.814252,3.5268994 41.669164,3.6719876 41.531712,3.8094396 L 40.76809,4.4508821 h -0.084 V 3.4352648 c 0.09163,-0.3283575 0.137452,-0.6719874 0.137452,-1.0385259 0,-0.3665386 0.03818,-0.7101685 0.106907,-1.0461621 l -0.03055,-0.1145433 c -0.06873,-0.030545 -0.137452,-0.06109 -0.206178,-0.083999 -0.07636,-0.022909 -0.152724,-0.022909 -0.244359,-0.00764 l -0.129816,-0.24435903 0.03055,0.0458173 V 1.1673075 h -0.07636 v 0.1374519 l 0.07636,0.2138142 -0.03055,0.1145433 0.07636,1.2752487 -0.02291,0.099271 0.05345,0.7407133 c 0,0.1527244 -0.0076,0.313085 -0.01527,0.4734457 -0.0076,0.1679968 -0.03818,0.3207212 -0.09164,0.4658094 l -0.129816,0.022909 -0.02291,0.038181 v 0.045817 l 0.335993,0.2672677 0.160361,0.068726 V 5.176323 Z M 38.790309,4.3592474 38.988851,4.2141592 c 0.152724,-0.2672677 0.28254,-0.5421716 0.389447,-0.8170755 0.106907,-0.2749039 0.167997,-0.5650803 0.175633,-0.8858015 h 0.03055 l -0.03055,-0.137452 0.06109,-0.381811 -0.03054,-0.2138141 -0.34363,-0.099271 -0.106907,-0.045817 v -0.045817 l -0.07636,-0.022909 -0.02291,-0.091635 h -0.02291 l 0.02291,0.045817 v 0.2367228 l -0.106907,0.022909 0.129816,0.450537 -0.02291,0.1145433 0.02291,0.1679968 c -0.01527,0.2901763 -0.05345,0.557444 -0.12218,0.8018031 -0.07636,0.2519952 -0.167996,0.5039905 -0.259631,0.763622 v 0.1374519 h 0.03818 l -0.02291,0.091635 h 0.09927 z"
             id="path373" />
        </g>
      </g>
      <g
         aria-label="▼"
         transform="scale(0.9752875,1.0253387)"
         id="text277"
         style="font-size:3.84276px;font-family:KouzanBrushFontGyousyoOTF;-inkscape-font-specification:KouzanBrushFontGyousyoOTF;fill:#241c1c;stroke-width:0.221698">
        <path
           d="m 43.594011,5.1397861 c 0.03458,0 0.06533,0 0.09607,0 0.0269,0 0.04996,-0.011528 0.07685,-0.038428 0.06148,-0.073012 0.11144,-0.1537104 0.146025,-0.2344083 0.03843,-0.084541 0.08454,-0.1652387 0.130654,-0.2536222 l 0.03843,-0.023057 c 0.09223,-0.1575531 0.184453,-0.3151063 0.280522,-0.4765022 0.09607,-0.1575532 0.192138,-0.3151064 0.295892,-0.464974 h 0.02306 l 0.02306,-0.057641 h 0.0269 c 0.09607,-0.1229683 0.184452,-0.2536222 0.276678,-0.3765905 0.09223,-0.1229683 0.184453,-0.2459366 0.288207,-0.3650622 l 0.02306,-0.073012 0.03843,-0.015371 0.103754,-0.1498676 v -0.049956 l -0.130654,-0.046113 -0.04611,0.00769 -0.149867,-0.00769 h -0.0269 v 0.00769 l -0.08838,0.011528 -0.04611,-0.011528 -0.242094,0.026899 -0.09991,-0.015371 -0.172924,0.015371 -0.01537,-0.015371 -0.06148,0.015371 -0.476503,-0.026899 h -0.511087 l -0.01153,0.011528 -0.06533,-0.011528 c -0.05764,0 -0.11144,0 -0.165239,0 -0.05764,0 -0.107597,0.00769 -0.157553,0.026899 l -0.249779,-0.049956 -0.0538,0.015371 -0.06148,-0.026899 c -0.03843,0.019214 -0.08454,0.026899 -0.130654,0.026899 -0.04996,0 -0.08838,0 -0.130654,0.00769 l -0.03843,-0.00769 c -0.03458,0.00384 -0.06533,0.00769 -0.09991,0.00769 -0.03458,0 -0.06148,0.015371 -0.08838,0.049956 v 0.065327 l 0.09991,0.084541 0.04996,0.092226 c 0.04996,0.053799 0.103755,0.1152828 0.157553,0.1806097 0.0538,0.061484 0.09607,0.1268111 0.130654,0.192138 h 0.02306 l 0.08838,0.1383394 h 0.0269 c 0.142183,0.2536221 0.268994,0.5072443 0.380434,0.7723947 0.115283,0.2613077 0.245936,0.5110871 0.395804,0.7570238 l -0.01153,0.038428 0.02306,0.11144 0.0538,0.038428 z"
           id="path370" />
      </g>
    </g>
  </g>
</svg>
