<?xml version="1.0" encoding="UTF-8" standalone="no"?>
<!-- Created with Inkscape (http://www.inkscape.org/) -->

<svg
   width="35.000999mm"
   height="7mm"
   viewBox="0 0 35.000998 7"
   version="1.1"
   id="svg5"
   inkscape:version="1.2.2 (b0a8486, 2022-12-01)"
   sodipodi:docname="topIndexLOGO.svg"
   xmlns:inkscape="http://www.inkscape.org/namespaces/inkscape"
   xmlns:sodipodi="http://sodipodi.sourceforge.net/DTD/sodipodi-0.dtd"
   xmlns="http://www.w3.org/2000/svg"
   xmlns:svg="http://www.w3.org/2000/svg">
  <sodipodi:namedview
     id="namedview7"
     pagecolor="#ffffff"
     bordercolor="#000000"
     borderopacity="0.25"
     inkscape:showpageshadow="2"
     inkscape:pageopacity="0.0"
     inkscape:pagecheckerboard="0"
     inkscape:deskcolor="#d1d1d1"
     inkscape:document-units="mm"
     showgrid="false"
     inkscape:zoom="4.7488465"
     inkscape:cx="99.497846"
     inkscape:cy="17.162062"
     inkscape:window-width="1440"
     inkscape:window-height="771"
     inkscape:window-x="1080"
     inkscape:window-y="1616"
     inkscape:window-maximized="0"
     inkscape:current-layer="layer1" />
  <defs
     id="defs2">
    <rect
       x="-1.8951972"
       y="4.0009718"
       width="213.31496"
       height="77.703079"
       id="rect268" />
  </defs>
  <g
     inkscape:label="Layer 1"
     inkscape:groupmode="layer"
     id="layer1">
    <path
       style="fill:none;fill-rule:evenodd;stroke:#000000;stroke-width:0.21864px;stroke-linecap:butt;stroke-linejoin:miter;stroke-opacity:1"
       d="m 4.4186655,7.736698 v 0"
       id="path208"
       inkscape:connector-type="polyline"
       inkscape:connector-curvature="0" />
    <text
       xml:space="preserve"
       style="font-size:8.85995px;font-family:KouzanBrushFontGyousyoOTF;-inkscape-font-specification:KouzanBrushFontGyousyoOTF;fill:#000000;stroke-width:0.166124"
       x="-1.3619121"
       y="8.4681635"
       id="text214"
       transform="scale(0.67763293,1.4757252)"><tspan
         sodipodi:role="line"
         id="tspan212"
         style="stroke-width:0.166124"
         x="-1.3619121"
         y="8.4681635" /></text>
    <text
       xml:space="preserve"
       transform="scale(0.26458333)"
       id="text266"
       style="font-size:53.3333px;font-family:KouzanBrushFontGyousyoOTF;-inkscape-font-specification:KouzanBrushFontGyousyoOTF;white-space:pre;shape-inside:url(#rect268);display:inline;fill:#000000" />
    <g
       aria-label="お裾分け一覧"
       transform="scale(0.86140278,1.1608971)"
       id="text932"
       style="font-size:7.21005px;font-family:KouzanBrushFontGyousyoOTF;-inkscape-font-specification:KouzanBrushFontGyousyoOTF;stroke-width:0.135189">
      <path
         d="m 0.66995702,5.7087942 0.1730412,-0.02884 C 0.94393892,5.6006434 1.0232495,5.5213329 1.0881399,5.4203922 1.1386103,5.3194515 1.1890806,5.2257208 1.239551,5.1175701 1.4991128,4.9156887 1.7803047,4.7426475 2.0759168,4.6128666 2.3715288,4.4830857 2.681561,4.389355 3.0132233,4.3388847 c 0.1802513,-0.01442 0.3532925,-0.00721 0.5263337,0.01442 0.1802512,0.02884 0.3244522,0.1009407 0.4614432,0.2235115 l -0.05047,0.1009407 -0.6705346,-0.151411 0.2090914,0.151411 -0.02884,0.079311 v 0.02163 l 0.1009407,0.02884 0.144201,0.2595618 0.2667719,0.1586211 c 0.1081507,0.01442 0.1946713,0 0.288402,-0.03605 0.093731,-0.03605 0.1730412,-0.064891 0.2595618,-0.093731 L 4.6210645,4.8580083 C 4.5994343,4.7354374 4.5778042,4.6344967 4.548964,4.5407661 4.5129137,4.4470354 4.4552333,4.3533048 4.3759228,4.2667842 4.260562,4.1297932 4.123571,4.0432726 3.97216,3.9928023 3.8063288,3.949542 3.6477077,3.9207018 3.4890866,3.9062817 c -0.3749226,0 -0.7354251,0.05047 -1.0742975,0.1369909 C 2.0759168,4.1370033 1.7514645,4.2739942 1.4342223,4.4398254 H 1.390962 L 1.535163,3.4376284 V 2.2984405 l -0.02163,-0.02884 V 2.0388787 L 1.7803047,1.8297872 1.8812454,1.6062757 h 0.05768 v -0.05768 h 0.04326 l 0.01442,-0.05768 v -0.02163 h -0.05768 v -0.086521 h 0.04326 v -0.01442 l -0.1009407,0.0721 v 0.02884 h -0.02163 v 0.02163 h -0.05047 v -0.02163 L 1.535163,1.6351159 h -0.072101 v 0.01442 h -0.05768 C 1.3765419,1.4620747 1.3477017,1.2746134 1.3188615,1.0655219 1.2828113,0.87085056 1.2323409,0.68338926 1.1674505,0.50313801 h -0.02884 l 0.1730412,0.96614669 -0.01442,0.281192 -0.54796383,0.2307216 c -0.15141106,0.02163 -0.27398191,0.00721 -0.38934271,-0.03605 -0.12257085,-0.03605 -0.2307216,-0.086521 -0.3460824,-0.1369909 v -0.02884 l 0.06489045,0.05047 0.0288402,0.086521 c 0.0937307,0.04326 0.2018814,0.1009407 0.31003215,0.1730412 0.1009407,0.0721 0.2163015,0.1225709 0.33166231,0.1514111 L 1.2972314,2.1686596 v -0.05047 h 0.06489 l 0.02884,0.4181829 c 0.00721,0.3605025 0.00721,0.721005 -0.02884,1.0670875 C 1.3260716,3.956752 1.2539711,4.2884143 1.1386103,4.5984465 L 0.74926757,4.8075379 v 0.02884 h -0.0937307 l 0.0144201,0.1009407 C 0.64111682,5.0238394 0.61948666,5.11036 0.60506656,5.1968806 0.58343641,5.2761912 0.54738616,5.3555017 0.49691581,5.4203922 l 0.0793106,0.079311 0.0216301,0.1514111 0.10094071,0.02884 z M 4.0514705,1.3827641 h 0.1514111 v -0.04326 c 0.04326,0 0.093731,0.00721 0.144201,0.01442 0.05047,0.00721 0.079311,-0.01442 0.093731,-0.05768 l 0.079311,-0.02884 0.1009407,-0.1658311 -0.02884,-0.06489 C 4.5273338,0.94295106 4.4552333,0.87806061 4.3759228,0.83480031 4.2894022,0.79154001 4.1956715,0.74827971 4.1019409,0.71943951 c -0.1225709,0 -0.2379317,0.0144201 -0.3460824,0.0360503 -0.1225709,0.0288402 -0.2379317,0.0576804 -0.3460824,0.0865206 l 0.05047,0.1153608 c 0.093731,0.0648904 0.1946714,0.12257084 0.2956121,0.17304124 0.093731,0.05047 0.1946713,0.1153608 0.295612,0.1946713 z"
         id="path294" />
      <path
         d="m 10.23047,5.4564424 0.144201,-0.02884 -0.158621,-0.2739819 h -0.03605 l -0.04326,-0.4109728 -0.108151,0.2018814 h -0.03605 v -0.00721 L 9.5959852,4.5551862 9.5166747,4.4902957 h -0.01442 c 0.03605,0.136991 0.1009407,0.2667719 0.1802512,0.4037628 0.079311,0.1297809 0.1514111,0.2595618 0.2307216,0.3893427 0.05047,0.02163 0.1081506,0.05047 0.1586216,0.093731 0.04326,0.04326 0.09373,0.0721 0.158621,0.079311 z m 0.504703,-0.06489 0.01442,-0.01442 0.02163,0.01442 c 0.09373,-0.02163 0.187462,-0.05047 0.273982,-0.086521 0.09373,-0.03605 0.180252,-0.079311 0.266772,-0.1297809 l 0.05768,-0.1946714 h 0.03605 v -0.03605 h 0.02884 l 0.02163,-0.05768 h 0.02884 L 11.585959,4.7714877 11.70853,4.5047158 11.759,4.4686656 11.946462,4.1370033 c 0,-0.04326 0,-0.079311 -0.0072,-0.1081508 -0.0072,-0.02884 -0.02163,-0.05768 -0.03605,-0.093731 l -0.129781,-0.05047 v -0.02884 l -0.273982,-0.086521 -0.06489,0.01442 -0.09373,-0.01442 -0.266772,0.05047 -0.382132,-0.093731 -0.194672,0.093731 h -0.02884 c 0.02163,-0.05047 0.05047,-0.1009407 0.08652,-0.1514111 0.03605,-0.05047 0.06489,-0.1009407 0.0721,-0.151411 l 0.05047,-0.01442 0.04326,-0.1225709 0.100941,-0.1153608 c 0.10815,-0.05047 0.209091,-0.086521 0.331662,-0.1081508 0.122571,-0.01442 0.230722,-0.02163 0.346082,-0.04326 0.115361,-0.01442 0.230722,-0.01442 0.338873,0 0.100941,0.02163 0.201881,0.03605 0.302822,0.0721 0.05047,0.00721 0.08652,0 0.122571,-0.02163 0.03605,-0.02163 0.0721,-0.02884 0.115361,-0.03605 v -0.05047 l -0.06489,-0.01442 v -0.03605 c -0.07931,-0.079311 -0.158621,-0.1153608 -0.266772,-0.1225708 -0.10815,-0.00721 -0.209091,-0.02163 -0.310032,-0.05768 l -0.06489,-0.05768 -0.173042,-0.02884 -0.317242,0.079311 v 0.00721 l 0.129781,0.05047 v 0.03605 l -0.396553,0.093731 h -0.07931 l -0.05047,-0.2018814 -0.12257,-0.144201 c -0.04326,-0.03605 -0.09373,-0.05047 -0.151411,-0.05047 -0.06489,0 -0.115361,-0.01442 -0.165832,-0.03605 l -0.10094,0.02163 v 0.04326 l 0.06489,0.05047 0.06489,0.1153608 V 3.1852766 L 9.6608757,3.4087882 H 9.5959852 C 9.6752958,3.235747 9.7329762,3.0699158 9.7834465,2.8896646 9.8267068,2.7166234 9.8915973,2.5507922 9.9781179,2.3921711 l 0.06489,0.03605 h 0.02884 l 0.04326,0.151411 c 0.144201,-0.04326 0.281192,-0.086521 0.410973,-0.1369909 0.136991,-0.05047 0.259561,-0.1153608 0.389342,-0.1946714 v -0.02884 h 0.05047 l 0.04326,-0.1297809 0.09373,-0.05047 0.01442,-0.093731 h 0.03605 c 0.05047,-0.05768 0.100941,-0.1297809 0.144201,-0.2018814 0.03605,-0.06489 0.0721,-0.1297809 0.09373,-0.2090914 l 0.06489,-0.05047 0.115361,-0.2018814 0.04326,-0.01442 v -0.03605 h 0.02884 v -0.02884 h -0.01442 v -0.079311 l -0.07931,-0.03605 -0.01442,-0.05047 -0.432603,-0.12257084 c -0.245142,0.0216302 -0.468654,0.0721005 -0.692165,0.12978094 -0.216302,0.072101 -0.4326031,0.1297809 -0.6561147,0.1730412 0.05768,0.04326 0.1153608,0.0721 0.1946714,0.086521 0.0721,0.02163 0.1442013,0.03605 0.2163013,0.05047 l 0.209092,-0.01442 0.02163,-0.04326 c 0.06489,-0.00721 0.129781,-0.03605 0.194671,-0.086521 0.05768,-0.05047 0.122571,-0.086521 0.194671,-0.1081507 h 0.07931 c -0.0072,0.1658311 -0.03605,0.3100321 -0.0721,0.4542331 -0.03605,0.144201 -0.09373,0.281192 -0.180252,0.4037628 -0.05047,0.06489 -0.10815,0.1153608 -0.173041,0.1514111 -0.05768,0.03605 -0.129781,0.06489 -0.209091,0.079311 H 10.006958 V 1.9163078 l -0.07931,-0.079311 -0.151411,0.01442 v 0.02163 l -0.1946714,0.01442 0.01442,0.1081508 0.05047,0.01442 C 9.6248254,2.2623902 9.5887752,2.514742 9.5383048,2.7598837 9.4950445,3.0050254 9.4301541,3.235747 9.3436335,3.4664686 l -0.1009407,0.02163 v 0.01442 h 0.03605 v 0.02884 h 0.02884 C 9.2426928,3.7548706 9.1778023,3.9783822 9.0840717,4.1802636 8.990341,4.382145 8.8821903,4.5912364 8.7524094,4.7931178 l 0.05047,-0.02163 0.1225709,-0.136991 c 0.05047,-0.06489 0.093731,-0.1297809 0.1297809,-0.2018814 0.03605,-0.072101 0.06489,-0.1369909 0.1009407,-0.2163015 h 0.02884 l 0.02884,-0.06489 0.06489,-0.02884 0.2090915,-0.4902834 0.1081507,0.02884 c 0.1297809,0.01442 0.2379317,-0.00721 0.3460824,-0.0721 0.1009404,-0.05768 0.1946714,-0.1081508 0.3028224,-0.1514111 h 0.06489 c -0.0072,0.1225709 -0.02884,0.2379317 -0.05768,0.3388724 -0.03605,0.1153608 -0.08652,0.2235115 -0.158621,0.3100321 l 0.01442,0.05047 h 0.04326 c 0.02163,-0.00721 0.04326,-0.02163 0.06489,-0.04326 0.02163,-0.01442 0.02884,-0.03605 0.02884,-0.06489 h 0.05047 l 0.05047,0.1081508 h 0.05047 l 0.03605,0.1009407 0.771475,-0.1946714 h 0.09373 c 0,0.1730412 -0.02884,0.3244523 -0.08652,0.4614432 -0.06489,0.136991 -0.144201,0.2595618 -0.230721,0.3821327 -0.03605,0.04326 -0.0721,0.06489 -0.115361,0.086521 -0.04326,0.02163 -0.09373,0.04326 -0.144201,0.05047 l -0.108151,-0.01442 -0.158621,0.01442 0.01442,0.1153608 0.209092,0.1730412 0.01442,0.05047 z m -2.8407596,-0.06489 c 0.02163,0 0.05047,0 0.0721,-0.00721 0.02163,-0.00721 0.03605,-0.01442 0.04326,-0.03605 l -0.01442,-0.06489 c 0,-0.2163015 0,-0.4181829 0.00721,-0.6200643 0.00721,-0.2018814 0.02884,-0.3893427 0.086521,-0.569594 0,-0.05047 0,-0.1009407 -0.00721,-0.144201 -0.00721,-0.04326 -0.02884,-0.086521 -0.05768,-0.1297809 l 0.01442,-0.1081507 v -0.02884 l -0.02884,0.1081507 -0.1586211,-0.144201 c -0.05768,-0.03605 -0.1153608,-0.06489 -0.1658312,-0.086521 -0.05768,-0.02163 -0.1225708,-0.03605 -0.1874613,-0.04326 L 7.7069521,3.1131761 h 0.02884 L 8.132345,2.5507922 v -0.02884 l 0.05047,-0.01442 C 8.276546,2.377751 8.3702767,2.2479701 8.4640074,2.1253993 8.557738,1.9956184 8.6442586,1.8730475 8.7524094,1.7432666 l 0.151411,-0.06489 0.05768,-0.079311 -0.02163,-0.06489 -0.086521,-0.05047 L 8.83893,1.4404445 8.4856375,1.3395038 8.3702767,1.4548646 c -0.144201,0.079311 -0.288402,0.1658312 -0.4181829,0.2595618 -0.144201,0.1081508 -0.288402,0.2018814 -0.4398131,0.281192 h -0.04326 L 7.6132214,1.7576867 7.7502124,1.656746 v -0.02163 h 0.03605 l 0.281192,-0.3028221 0.02163,-0.03605 L 8.2621259,1.1880928 8.406327,1.0366817 8.6226285,0.78432996 8.7235692,0.69780936 v -0.0360503 h 0.02884 l 0.02163,-0.0288402 c 0.00721,-0.0432603 0.00721,-0.0793105 -0.00721,-0.10815075 -0.02163,-0.0288402 -0.03605,-0.0504704 -0.05768,-0.0721005 C 8.6298385,0.37335711 8.550528,0.31567671 8.4567973,0.27962645 8.3558566,0.2435762 8.2621259,0.214736 8.1683953,0.17868575 L 8.0386144,0.214736 8.4207471,0.40940736 v 0.0937307 C 8.3702767,0.61128876 8.3125963,0.71222946 8.2549159,0.81317016 8.1900254,0.92132091 8.1179249,1.0294717 8.0386144,1.1232023 7.9593038,1.2385631 7.8727832,1.3467139 7.7790526,1.4620747 7.692532,1.5774355 7.5915913,1.6783762 7.4834405,1.7865269 l -0.06489,0.064891 -0.01442,0.03605 -0.3460824,0.2379317 0.05768,0.2163015 0.02884,0.02163 0.05047,0.079311 0.8147357,-0.4686533 h 0.02884 C 7.9953541,2.1181892 7.9232536,2.2479701 7.843943,2.3849611 7.7646325,2.521952 7.692532,2.6517329 7.6276415,2.7887239 l -0.093731,0.079311 -0.4181829,0.6993749 -0.02884,0.01442 -0.281192,0.4614432 h -0.03605 L 6.6759149,4.237944 h -0.03605 l -0.281192,0.3821326 v 0.02163 l 0.1514111,-0.05768 0.1009407,-0.079311 0.05047,-0.07931 h 0.02884 l 0.01442,-0.03605 0.1225709,-0.086521 0.3893427,-0.5479638 h 0.04326 l 0.2090914,-0.2667718 0.1946714,0.079311 c 0.02163,0.03605 0.04326,0.064891 0.05768,0.1009407 0.02163,0.03605 0.02884,0.0721 0.02884,0.1153608 0,0.2235116 -0.00721,0.432603 -0.01442,0.6416945 -0.00721,0.2163015 -0.05047,0.4109728 -0.136991,0.584014 0.02884,0.05047 0.072101,0.1009407 0.1297809,0.1514111 0.05768,0.05047 0.1153608,0.1009407 0.1658312,0.1658311 z M 8.4495873,3.8702314 h 0.06489 v -0.03605 l 0.086521,-0.02884 -0.02163,-0.144201 h -0.01442 l 0.01442,-0.04326 -0.01442,-0.064891 -0.144201,0.079311 -0.2523518,-0.079311 h -0.03605 l 0.03605,0.1297809 0.1874613,0.086521 0.01442,0.086521 z M 8.1683953,3.4087882 c 0.03605,-0.00721 0.0721,-0.02163 0.1081507,-0.02884 0.02884,-0.00721 0.05768,-0.02884 0.093731,-0.064891 l 0.03605,-0.05047 0.1297809,-0.079311 v -0.03605 h 0.02884 L 8.83893,2.8824545 8.7884596,2.7743038 8.5793682,2.7094133 l -0.079311,0.01442 -0.093731,-0.01442 -0.05047,0.064891 h -0.03605 L 8.132345,3.3294776 v 0.06489 z"
         id="path296" />
      <path
         d="m 16.077806,5.8025248 0.01442,-0.01442 0.01442,0.01442 0.08652,-0.02884 0.02884,-0.1225708 0.09373,-0.03605 C 16.503199,5.1247801 16.683451,4.6417068 16.834862,4.1514234 16.986273,3.66835 17.123264,3.1708565 17.253045,2.6733631 h 0.05047 l 0.05047,-0.086521 -0.05047,-0.1297809 C 17.180944,2.3993812 17.043953,2.3489108 16.914172,2.2984405 16.769971,2.2479701 16.63298,2.2191299 16.495989,2.1974998 h -0.03605 v 0.03605 l -0.07931,-0.01442 c -0.259562,0.00721 -0.511914,0.05047 -0.735426,0.136991 -0.230721,0.093731 -0.447023,0.1874613 -0.670534,0.3028221 l 0.02163,0.05047 c 0.06489,0.05047 0.136991,0.086521 0.209091,0.1225709 0.05768,0.02884 0.144201,0.03605 0.237932,0.02884 l -0.02163,0.05047 -0.122571,0.05768 0.03605,0.136991 c -0.06489,0.2595618 -0.129781,0.5263337 -0.209091,0.7931055 -0.07931,0.2667719 -0.144201,0.5335437 -0.201882,0.8075256 -0.0072,0.072101 -0.0072,0.136991 0.01442,0.2018814 0.01442,0.05768 0.04326,0.1081508 0.09373,0.1586211 h 0.02884 c 0.02163,-0.05047 0.05047,-0.093731 0.0721,-0.1297809 0.02163,-0.03605 0.03605,-0.079311 0.03605,-0.1225708 l 0.05047,-0.02163 C 15.364011,4.5191359 15.493792,4.245154 15.594733,3.9639621 15.702884,3.6899802 15.811035,3.4087882 15.919185,3.1203862 l -0.03605,-0.2090915 -0.403763,-0.01442 0.07931,-0.079311 c 0.136991,-0.01442 0.266772,-0.04326 0.396553,-0.086521 0.12257,-0.03605 0.245141,-0.072101 0.374922,-0.1081508 h 0.151411 c -0.01442,0.432603 -0.05047,0.857996 -0.108151,1.290599 -0.06489,0.425393 -0.194671,0.8291558 -0.389342,1.2040784 L 15.868715,5.10315 15.767774,4.8796384 h -0.03605 c 0,-0.1225708 -0.01442,-0.2379316 -0.05047,-0.3460824 -0.03605,-0.1081507 -0.06489,-0.2163015 -0.08652,-0.3388723 h -0.03605 l 0.01442,0.2379316 -0.01442,0.2595618 0.01442,0.05047 -0.05047,0.5119135 v 0.064891 l 0.08652,0.093731 0.324452,0.2523518 0.144201,0.1225708 z m -2.278375,-2.1125446 0.0721,-0.02163 c 0.100941,-0.1946713 0.180251,-0.3893427 0.259562,-0.5912241 0.07931,-0.2018814 0.165831,-0.3965528 0.266772,-0.5840141 h 0.03605 c 0.04326,-0.05047 0.07931,-0.1009407 0.100941,-0.1586211 0.02163,-0.05768 0.06489,-0.1009407 0.115361,-0.1369909 l 0.08652,-0.02884 v -0.03605 h 0.122571 l 0.02163,-0.0721 c 0,-0.03605 0,-0.072101 0,-0.1081507 0,-0.02884 -0.01442,-0.05768 -0.03605,-0.079311 l 0.05047,-0.2090914 h 0.02884 l 0.08652,-0.1297809 0.108151,-0.03605 v -0.072101 h 0.03605 l 0.01442,-0.1802512 0.07931,0.02884 h 0.02163 v -0.01442 h -0.03605 v -0.03605 l -0.100941,-0.01442 -0.03605,-0.086521 0.02163,-0.1153608 c 0,-0.0360502 -0.01442,-0.0648904 -0.04326,-0.0865206 -0.02884,-0.0144201 -0.03605,-0.0360503 -0.02884,-0.0721005 -0.05768,0 -0.10815,-0.00721 -0.151411,-0.0288402 -0.05047,-0.0216302 -0.09373,-0.0432603 -0.136991,-0.0793106 v -0.0288402 l -0.0721,-0.0648904 -0.216302,-0.144201 -0.05768,0.0216302 0.02163,0.1874613 v 0.1009407 l -0.108151,0.0144201 -0.0072,0.15862111 h -0.02163 l -0.100941,0.31003213 0.03605,0.1153608 c -0.07931,0.3749226 -0.158621,0.7570553 -0.223512,1.1247678 -0.0721,0.3749226 -0.144201,0.7570553 -0.209091,1.1319779 z m 4.563961,-0.7426352 0.100941,-0.0721 0.03605,-0.079311 h 0.04326 l 0.03605,-0.1369909 h 0.03605 l 0.03605,-0.0721 0.136991,-0.06489 0.08652,0.02884 v -0.079311 l 0.100941,-0.05047 0.0721,0.01442 h 0.09373 l -0.01442,-0.02884 v -0.05768 l 0.08652,0.02163 0.122571,-0.03605 -0.100941,-0.1369909 v -0.02884 l 0.122571,0.01442 h 0.09373 V 2.0965591 L 19.264649,1.9523581 19.250228,1.8730475 18.997877,1.649536 C 18.759945,1.5846455 18.522013,1.512545 18.284082,1.4332345 18.05336,1.361134 17.815429,1.3034536 17.577497,1.2457732 h -0.01442 l 0.151411,0.2523517 c 0.07931,0.079311 0.158621,0.1658312 0.230721,0.2595618 0.0721,0.1009407 0.144201,0.1946714 0.216302,0.288402 l 0.252352,0.2163015 0.05047,0.1081508 c 0.01442,0.1009407 0.0072,0.1946713 -0.01442,0.295612 -0.02163,0.1009407 -0.05047,0.1874613 -0.08652,0.281192 z"
         id="path298" />
      <path
         d="m 24.45587,5.975566 0.136991,-0.05768 v -0.05047 l -0.04326,0.02884 h -0.05047 l 0.151411,-0.6128543 h 0.04326 l -0.100941,0.4181829 v 0.072101 l 0.07931,-0.1297809 -0.02163,-0.072101 v -0.04326 h 0.04326 l 0.05768,-0.144201 h -0.05768 l 0.02884,-0.144201 h 0.05047 l 0.165831,-0.9156763 h 0.05047 c 0.05047,-0.2235116 0.09373,-0.432603 0.12978,-0.6489045 0.02884,-0.2163015 0.05047,-0.4326031 0.0721,-0.6633247 l -0.07931,-1.0887175 0.02163,-0.7931055 0.374922,0.02884 c 0.05047,0 0.108151,0 0.173041,0.00721 0.05768,0.00721 0.108151,-0.01442 0.144201,-0.06489 l -0.02163,-0.06489 c -0.07931,-0.02163 -0.158621,-0.0576804 -0.223511,-0.10815074 -0.06489,-0.0504704 -0.136991,-0.0937307 -0.194672,-0.144201 l -0.02163,-0.2018814 c -0.02163,-0.0648905 -0.05768,-0.1153608 -0.115361,-0.144201 -0.05768,-0.0360503 -0.11536,-0.0648904 -0.158621,-0.1009407 l -0.151411,0.0504704 -0.09373,0.1730412 h -0.05047 l 0.02884,-0.1730412 h 0.02163 l -0.0721,0.12257085 0.02163,0.18025125 V 1.0078415 c -0.252352,0.04326 -0.475863,0.1225709 -0.684955,0.2307216 -0.216301,0.1009407 -0.447023,0.1874613 -0.692164,0.2379317 L 23.04991,1.8225772 v 0.02884 c 0.07931,-0.02163 0.151411,-0.01442 0.201882,0.00721 0.05047,0.02163 0.09373,0.0721 0.144201,0.1297809 l 0.12257,-0.01442 0.05047,-0.151411 c 0.194671,-0.079311 0.382132,-0.1802513 0.576804,-0.2956121 0.187461,-0.1153608 0.382132,-0.2090914 0.576804,-0.295612 h 0.0721 l 0.122571,1.6511014 c -0.02163,0.5191237 -0.06489,1.0238272 -0.129781,1.5213206 -0.07931,0.5047035 -0.187461,0.9949869 -0.331662,1.4636402 z M 22.264015,4.9373188 h 0.05047 v -0.093731 h 0.0721 l -0.02163,-0.1009407 h -0.05047 c 0.02163,-0.1297809 0.02884,-0.2667719 0.02884,-0.4037628 0,-0.144201 0.01442,-0.281192 0.04326,-0.4109729 v -0.02884 c -0.02884,0.06489 -0.0721,0.1297809 -0.12257,0.1802513 -0.05047,0.06489 -0.07931,0.1369909 -0.07931,0.2235115 l -0.09373,-0.1297809 c -0.01442,-0.3605025 0.0072,-0.7065849 0.06489,-1.0310372 0.05768,-0.3100321 0.09373,-0.6489045 0.108151,-0.9949869 0.01442,-0.2595618 0,-0.5191236 -0.03605,-0.7714753 -0.04326,-0.2451417 -0.12257,-0.46865329 -0.259561,-0.66332464 l 0.10094,0.64169444 c 0,0.3316623 -0.01442,0.6489045 -0.05047,0.9661467 -0.03605,0.3172422 -0.05768,0.6344844 -0.0721,0.9589367 0,0.281192 0,0.5623839 0,0.8435759 0,0.2811919 0.06489,0.5263336 0.194672,0.7426351 z"
         id="path300" />
      <path
         d="m 28.580006,3.4015782 c 0.418183,-0.1514111 0.843576,-0.2667719 1.283389,-0.3677126 0.425393,-0.1009407 0.857996,-0.1946714 1.283389,-0.281192 l 0.10094,0.01442 0.0721,-0.01442 0.165831,0.01442 0.06489,-0.01442 c 0.273982,0.00721 0.555174,0.02884 0.829156,0.06489 0.273982,0.02884 0.540754,0.072101 0.800316,0.1369909 h 0.05047 v -0.0721 l 0.04326,0.01442 0.158621,-0.03605 0.317243,0.05768 h 0.05047 l 0.09373,-0.093731 0.09373,-0.3316623 h 0.01442 l -0.0721,-0.06489 V 2.3489108 C 33.663091,2.2407601 33.381899,2.1470294 33.086287,2.0749289 32.783465,2.0100385 32.495063,1.9307279 32.221081,1.8225772 H 32.06246 c 0,0.03605 -0.0072,0.06489 -0.02163,0.0721 -0.02163,0.00721 -0.05047,0.00721 -0.08652,-0.00721 l -0.08652,0.1009407 -0.886837,0.086521 c -0.144201,0 -0.281192,-0.02163 -0.418183,-0.06489 -0.12978,-0.03605 -0.259561,-0.086521 -0.367712,-0.1658312 v -0.03605 l -0.08652,-0.03605 -0.01442,-0.05768 c -0.05047,-0.01442 -0.07931,-0.00721 -0.100941,0.01442 -0.02163,0.02884 -0.05047,0.05768 -0.07931,0.079311 l -0.259562,0.2379316 -0.02884,0.05047 -0.648905,0.2739819 -0.08652,-0.02163 c -0.09373,0.05047 -0.187461,0.086521 -0.295612,0.1009407 -0.108151,0.01442 -0.209092,0.02884 -0.310032,0.04326 l -0.288402,-0.1009407 -0.06489,0.01442 -0.02163,0.05047 h -0.01442 l -0.02884,0.1730412 v 0.02884 c 0.06489,0.093731 0.144201,0.1802512 0.230721,0.2739819 0.0721,0.093731 0.158621,0.1946713 0.252352,0.2811919 z"
         id="path302" />
      <path
         d="m 36.604779,5.9106756 0.201881,-0.144201 0.187461,-0.2739819 h 0.03605 l 0.209091,-0.4542332 0.02884,0.00721 c 0.02163,-0.05047 0.05047,-0.1009407 0.09373,-0.144201 0.04326,-0.05047 0.06489,-0.1009407 0.0721,-0.1658312 h 0.02163 l 0.01442,-0.06489 0.12978,-0.02163 0.02884,-0.05768 -0.01442,-0.06489 c -0.04326,-0.03605 -0.09373,-0.072101 -0.144201,-0.093731 -0.04326,-0.02163 -0.100941,-0.02163 -0.165832,-0.01442 l -0.0072,-0.05047 c 0.151411,-0.05768 0.317243,-0.1225709 0.475864,-0.2018814 0.165831,-0.072101 0.317242,-0.144201 0.468653,-0.2379317 l 0.06489,0.01442 0.07931,0.1225709 h 0.02884 l 0.02884,0.1297809 0.02884,-0.00721 0.0072,0.02884 0.187461,0.1802513 0.108151,-0.03605 -0.0072,-0.8147356 0.08652,-0.5984342 h 0.01442 l 0.01442,-0.03605 -0.02884,-0.1153608 0.06489,-0.3028221 0.01442,-0.00721 -0.0072,-0.02884 -0.03605,0.00721 -0.01442,-0.05047 c -0.0721,-0.06489 -0.158621,-0.1009407 -0.245141,-0.1225709 -0.09373,-0.01442 -0.201882,-0.03605 -0.310033,-0.05047 -0.13699,0.02884 -0.266771,0.079311 -0.396552,0.144201 -0.136991,0.0721 -0.259562,0.144201 -0.382133,0.2090914 v 0.01442 l 0.115361,0.03605 0.511913,-0.0721 0.187462,0.01442 0.06489,0.4758633 c 0,0.1153608 0,0.2307216 0.0072,0.3460824 0,0.1153608 -0.01442,0.2235116 -0.03605,0.3316623 l -0.09373,0.00721 0.0072,0.086521 -0.288402,-0.079311 h -0.02163 l 0.0072,0.02163 c -0.03605,-0.02163 -0.05768,-0.02163 -0.0721,0 -0.01442,0.02163 -0.02884,0.05047 -0.03605,0.0721 l -0.483074,0.2235115 -0.03605,0.00721 c 0.100941,-0.1009407 0.209091,-0.2018814 0.324452,-0.288402 0.108151,-0.072101 0.230722,-0.144201 0.360503,-0.1946714 v -0.02884 h 0.03605 l 0.0072,-0.05047 h 0.02884 v -0.06489 l -0.223511,-0.086521 h -0.07931 l -0.02163,0.05047 h -0.03605 l -0.01442,0.02884 -0.230722,0.1081507 h -0.02884 l 0.0072,-0.04326 c 0.108151,-0.093731 0.216301,-0.1874613 0.317242,-0.281192 0.108151,-0.086521 0.223512,-0.144201 0.360503,-0.1730412 l 0.06489,-0.1225708 h 0.03605 l -0.0072,-0.05047 c -0.03605,-0.00721 -0.06489,-0.01442 -0.100941,-0.03605 -0.03605,-0.01442 -0.06489,-0.02163 -0.09373,-0.02163 -0.122571,0.01442 -0.245142,0.04326 -0.360503,0.093731 -0.122571,0.05047 -0.237931,0.1153608 -0.353292,0.1946713 h -0.02884 v -0.079311 l -0.08652,-0.079311 -0.01442,-0.05768 -0.237932,-0.093731 H 36.84271 v 0.01442 l 0.129781,0.072101 c -0.0072,0.151411 -0.01442,0.2811919 -0.02163,0.4037628 -0.0072,0.1297809 -0.02884,0.2379317 -0.0721,0.3460824 0.04326,0.064891 0.07931,0.1297809 0.115361,0.1946714 0.03605,0.06489 0.07931,0.1297809 0.136991,0.1802512 l -0.02163,0.04326 c -0.03605,0.03605 -0.07931,0.05047 -0.129781,0.05768 -0.05047,0.00721 -0.08652,0.02884 -0.115361,0.05047 0.01442,0.06489 0.04326,0.1225708 0.08652,0.1658311 0.04326,0.03605 0.06489,0.086521 0.06489,0.1514111 l 0.06489,-0.01442 h 0.06489 c -0.04326,0.2595618 -0.11536,0.5119135 -0.216301,0.7498452 -0.100941,0.2307216 -0.209092,0.4614432 -0.324452,0.6777447 z m 2.559567,-0.2667719 c 0.223512,-0.05047 0.447023,-0.1009407 0.677745,-0.151411 0.216302,-0.05047 0.432603,-0.1225709 0.634484,-0.2163015 v -0.02884 h 0.115361 l 0.01442,-0.079311 0.129781,-0.01442 -0.03605,-0.1081507 v -0.03605 h 0.05768 l 0.04326,-0.05047 v -0.01442 h -0.08652 l -0.05768,-0.0721 -0.216302,-0.05047 -0.03605,-0.079311 -0.09373,-0.02163 v -0.05047 h -0.03605 c -0.05047,-0.093731 -0.08652,-0.1946714 -0.122571,-0.288402 -0.02884,-0.086521 -0.06489,-0.1874613 -0.08652,-0.281192 -0.02884,0.136991 -0.06489,0.2739819 -0.100941,0.4109729 -0.04326,0.1369909 -0.08652,0.2811919 -0.115361,0.432603 l -0.129781,0.04326 v 0.01442 l -0.807525,0.2379316 c -0.122571,0 -0.252352,0 -0.382133,-0.00721 -0.136991,0 -0.259562,-0.01442 -0.382133,-0.04326 -0.0072,-0.1081508 0,-0.2018814 0.01442,-0.288402 0.01442,-0.093731 0.02884,-0.1874613 0.04326,-0.2739819 l -0.06489,-0.1586211 -0.237931,-0.04326 -0.0721,0.02163 v 0.01442 l 0.06489,0.01442 0.05047,0.2163015 -0.02163,0.3316623 c 0.0072,0.079311 0.02884,0.144201 0.06489,0.1946714 0.03605,0.04326 0.0721,0.1009407 0.115361,0.151411 0.158621,0.1081508 0.324452,0.1730412 0.519124,0.2018814 0.180251,0.02884 0.360502,0.05047 0.540753,0.072101 z m -1.867403,-1.7232019 -0.01442,0.01442 -0.03605,-0.00721 -0.01442,-0.079311 0.01442,-0.06489 -0.02163,-0.05768 0.01442,-0.093731 0.03605,0.00721 0.06489,0.1009407 c 0.0072,0.02884 0.0072,0.05768 0,0.093731 -0.0072,0.03605 -0.02163,0.06489 -0.04326,0.086521 z m 0.05768,-0.4398131 -0.01442,0.02163 -0.06489,-0.00721 0.04326,-0.2523518 0.187461,-0.01442 h 0.07931 L 37.498825,3.372738 Z M 36.410107,2.5435822 36.352427,2.3561209 v -0.136991 l 0.05768,0.01442 0.04326,0.136991 0.10094,0.02884 c 0.151411,-0.02163 0.295612,-0.05768 0.418183,-0.1225709 0.122571,-0.05768 0.245142,-0.1153608 0.374923,-0.1802512 v -0.05047 l -0.05047,-0.02163 -0.252351,0.01442 -0.07931,0.00721 -0.0072,-0.02884 0.06489,-0.02163 v -0.01442 l 0.187462,-0.1297809 c 0.03605,-0.064891 0.05768,-0.136991 0.06489,-0.2163015 0.0072,-0.0721 0.02163,-0.144201 0.05768,-0.2090915 l -0.0072,-0.04326 -0.129781,-0.04326 0.01442,-0.05768 0.05047,0.02884 c 0.04326,-0.02163 0.08652,-0.05768 0.122571,-0.093731 0.03605,-0.03605 0.07931,-0.06489 0.144201,-0.086521 l 0.0072,-0.02884 0.122571,-0.05768 v -0.04326 l 0.08652,-0.0144201 -0.05768,-0.14420101 -0.353292,-0.1153608 h -0.06489 l -0.04326,0.0504704 -0.06489,0.00721 -0.0072,-0.0504704 -0.144201,-0.15141105 0.0072,-0.0648905 0.591225,-0.12257085 -0.04326,-0.0793105 c -0.05768,-0.0360503 -0.115361,-0.0576804 -0.187461,-0.0793106 -0.07931,-0.0144201 -0.151411,-0.0288402 -0.230722,-0.0360503 -0.10094,0.0288402 -0.201881,0.0576804 -0.302822,0.0865206 -0.108151,0.0360503 -0.209091,0.0865206 -0.295612,0.15862111 v 0.0288402 l -0.06489,0.0288402 0.223511,-0.00721 0.144201,-0.00721 c 0.0072,0.0793105 0.0072,0.1586211 -0.0072,0.22351155 -0.02163,0.0648905 -0.06489,0.13699095 -0.115361,0.20909145 -0.02163,0.0432603 -0.04326,0.0648905 -0.07931,0.0648905 -0.03605,0 -0.0721,0.00721 -0.100941,0.0288402 -0.04326,0.00721 -0.07931,-0.00721 -0.108151,-0.0432603 -0.02884,-0.0288402 -0.06489,-0.0432603 -0.10815,-0.0504704 v -0.0360503 l -0.331663,-0.2307216 h -0.01442 l 0.129781,0.2307216 c 0,0.18746134 -0.0072,0.37492264 -0.02884,0.54075374 -0.02163,0.1802513 -0.05047,0.3460824 -0.100941,0.5119136 h -0.02884 l -0.02884,0.05047 c 0.0072,0.072101 0.02163,0.136991 0.04326,0.1946714 0.02884,0.05768 0.05047,0.1153608 0.0721,0.1802512 0.04326,0.00721 0.08652,0.02163 0.129781,0.04326 0.03605,0.02163 0.0721,0.03605 0.11536,0.03605 l 0.04326,0.04326 z m 0.273982,-0.4758633 -0.252352,0.05768 h -0.04326 c 0.01442,-0.1730412 0.02884,-0.3388724 0.05047,-0.4974935 0.02163,-0.1658311 0.02884,-0.3244522 0.02163,-0.4974934 h 0.02163 l 0.0072,0.06489 c 0.01442,0.03605 0.03605,0.05047 0.06489,0.05047 0.02884,0.00721 0.05047,0.01442 0.0721,0.02163 l 0.331662,-0.144201 0.04326,-0.00721 c -0.03605,0.086521 -0.08652,0.1658311 -0.136991,0.2307216 -0.05047,0.079311 -0.12257,0.1369909 -0.216301,0.1874613 l -0.04326,-0.01442 -0.129781,0.03605 c 0.0072,0.04326 0.02163,0.079311 0.04326,0.1009407 0.02163,0.03605 0.03605,0.06489 0.05768,0.093731 0.05047,0 0.108151,-0.00721 0.165832,-0.02163 0.05768,-0.00721 0.10815,-0.02884 0.144201,-0.06489 h 0.03605 l -0.01442,0.144201 h -0.02884 v 0.02884 c -0.02884,0.03605 -0.05047,0.072101 -0.08652,0.1009407 -0.03605,0.04326 -0.0721,0.0721 -0.108151,0.093731 z m 1.881823,-0.1946714 0.771476,-0.2811919 0.0072,-0.02884 0.05047,-0.02884 v -0.06489 l -0.129781,-0.03605 -0.0072,-0.03605 -0.05768,-0.01442 -0.237932,0.05047 -0.08652,0.00721 0.0072,-0.07931 c 0.100941,-0.079311 0.216302,-0.1586211 0.338873,-0.2379317 0.115361,-0.0721 0.230721,-0.1153608 0.346082,-0.14420098 v -0.0793106 l -0.05047,-0.00721 v -0.0360502 l -0.08652,-0.0793105 c -0.05047,-0.00721 -0.100941,-0.0144201 -0.144201,-0.0360503 -0.03605,-0.00721 -0.07931,-0.0216302 -0.122571,-0.0432603 l -0.02884,0.00721 -0.03605,0.0576804 c -0.0721,0.0648905 -0.151411,0.10815075 -0.237932,0.1297809 -0.09373,0.0216302 -0.180251,0.0576804 -0.252352,0.10094071 l -0.12978,-0.00721 -0.09373,0.0144201 -0.03605,0.04326 0.288402,0.1946713 -0.05047,0.1153608 -0.05768,0.04326 -0.136991,0.05768 -0.04326,0.06489 c 0.06489,0.05047 0.10815,0.1081507 0.129781,0.1658311 0.02163,0.064891 0.05047,0.1225709 0.08652,0.1874613 z m -0.562384,-0.6344844 0.01442,-0.01442 0.01442,0.02163 0.0721,-0.02884 0.0721,-0.1225709 0.100941,-0.07931 0.02163,-0.12257089 h 0.02884 v -0.0648904 h 0.02884 l 0.03605,-0.0793105 h 0.04326 l 0.0721,-0.16583115 h 0.02884 l 0.100941,-0.2739819 -0.02163,-0.0576804 C 38.537072,0.2003159 38.436131,0.16426565 38.335191,0.1426355 38.22704,0.1282154 38.118889,0.1137953 38.025158,0.0993752 l -0.02884,-0.00721 0.02163,0.05047035 -0.05047,0.54796381 0.04326,0.31724219 z"
         id="path304" />
    </g>
  </g>
</svg>
