<?xml version="1.0" encoding="UTF-8" standalone="no"?>
<!-- Created with Inkscape (http://www.inkscape.org/) -->

<svg
   width="30mm"
   height="7mm"
   viewBox="0 0 30 7"
   version="1.1"
   id="svg5"
   inkscape:version="1.2.2 (b0a8486, 2022-12-01)"
   sodipodi:docname="topLoginLOGO.svg"
   xmlns:inkscape="http://www.inkscape.org/namespaces/inkscape"
   xmlns:sodipodi="http://sodipodi.sourceforge.net/DTD/sodipodi-0.dtd"
   xmlns="http://www.w3.org/2000/svg"
   xmlns:svg="http://www.w3.org/2000/svg">
  <sodipodi:namedview
     id="namedview7"
     pagecolor="#ffffff"
     bordercolor="#000000"
     borderopacity="0.25"
     inkscape:showpageshadow="2"
     inkscape:pageopacity="0.0"
     inkscape:pagecheckerboard="0"
     inkscape:deskcolor="#d1d1d1"
     inkscape:document-units="mm"
     showgrid="false"
     inkscape:zoom="4.7488465"
     inkscape:cx="132.34793"
     inkscape:cy="36.535188"
     inkscape:window-width="1440"
     inkscape:window-height="771"
     inkscape:window-x="1080"
     inkscape:window-y="1616"
     inkscape:window-maximized="0"
     inkscape:current-layer="layer1" />
  <defs
     id="defs2">
    <rect
       x="-1.8951972"
       y="4.0009718"
       width="213.31496"
       height="77.703079"
       id="rect268" />
  </defs>
  <g
     inkscape:label="Layer 1"
     inkscape:groupmode="layer"
     id="layer1">
    <path
       style="fill:none;fill-rule:evenodd;stroke:#000000;stroke-width:0.21864px;stroke-linecap:butt;stroke-linejoin:miter;stroke-opacity:1"
       d="m 4.4186655,7.736698 v 0"
       id="path208"
       inkscape:connector-type="polyline"
       inkscape:connector-curvature="0" />
    <text
       xml:space="preserve"
       style="font-size:8.85995px;font-family:KouzanBrushFontGyousyoOTF;-inkscape-font-specification:KouzanBrushFontGyousyoOTF;fill:#000000;stroke-width:0.166124"
       x="-1.3619121"
       y="8.4681635"
       id="text214"
       transform="scale(0.67763293,1.4757252)"><tspan
         sodipodi:role="line"
         id="tspan212"
         style="stroke-width:0.166124"
         x="-1.3619121"
         y="8.4681635" /></text>
    <text
       xml:space="preserve"
       transform="scale(0.26458333)"
       id="text266"
       style="font-size:53.3333px;font-family:KouzanBrushFontGyousyoOTF;-inkscape-font-specification:KouzanBrushFontGyousyoOTF;white-space:pre;shape-inside:url(#rect268);display:inline;fill:#000000" />
    <g
       aria-label="ログインはこちらから"
       transform="scale(0.7457248,1.3409773)"
       id="text932"
       style="font-size:4.19915px;font-family:KouzanBrushFontGyousyoOTF;-inkscape-font-specification:KouzanBrushFontGyousyoOTF;stroke-width:0.078734">
      <path
         d="m 0.8612793,3.5190614 c 0.1931609,0 0.3821227,-0.0084 0.5668853,-0.020996 0.1805634,-0.012597 0.3611269,-0.033593 0.5458895,-0.062987 l 0.016797,-0.046191 0.037792,-0.012597 c 0.05039,-0.1805635 0.092381,-0.3653261 0.1217754,-0.558487 0.029394,-0.1931609 0.067186,-0.3779235 0.1259745,-0.5626861 h 0.029394 L 2.3771725,2.1417401 2.5409393,2.0409605 2.5241427,1.969575 C 2.4443589,1.9317826 2.3687742,1.8897911 2.2847912,1.8519988 2.2008082,1.8142064 2.1252235,1.7764141 2.0454396,1.7344226 l -0.1763643,0.05039 -0.09658,-0.016797 c -0.1931609,0 -0.3779235,0.020996 -0.5542878,0.062987 -0.1805635,0.046191 -0.36112695,0.083983 -0.54169041,0.1217754 h -0.083983 l -0.0167966,-0.029394 h -0.0419915 l 0.0125975,0.054589 v 0.046191 l -0.0629872,0.2435507 h -0.0293941 v 0.016797 h 0.0167966 v 0.041991 L 0.26919913,2.2425197 h -0.0419915 v 0.025195 l -0.0419915,-0.012597 -0.0167966,0.029394 -0.1091779,-0.041991 v -0.016797 c 0.0335932,0.088182 0.07138555,0.1721652 0.1091779,0.251949 0.0377923,0.079784 0.0923813,0.1595677 0.1595677,0.2351524 l 0.0293941,0.016797 c 0.0461906,0.1217754 0.0881821,0.2519491 0.13017365,0.3863219 0.0377924,0.1343728 0.0965805,0.2603473 0.17216515,0.3779235 z m 0.7516479,-0.2603473 -0.058788,0.016797 c -0.1259745,0 -0.251949,0 -0.3821227,0 -0.1259745,0 -0.2435507,-0.020996 -0.35692776,-0.058788 C 0.79409289,3.0655532 0.77309714,2.9227821 0.73530479,2.7842101 0.69751244,2.6456381 0.62612689,2.5070662 0.53374559,2.3810917 V 2.3558968 C 0.70171159,2.250918 0.88227505,2.1543376 1.0712368,2.0661554 1.2601986,1.9779733 1.4617578,1.9359818 1.6675161,1.9233843 l 0.046191,0.016797 0.012597,0.1007796 h 0.029394 l 0.029394,0.3401312 c 0,0.1427711 -0.0042,0.2897413 -0.012597,0.4283133 -0.012598,0.138572 -0.05039,0.2645465 -0.1133771,0.3821227 l -0.046191,0.012597 z"
         id="path294" />
      <path
         d="m 4.4977352,4.1195398 0.1049787,-0.016797 0.1553686,-0.1637668 0.05039,-0.029394 C 4.8924553,3.7794087 4.9554425,3.6408367 4.9932349,3.4896673 5.0226289,3.3426971 5.0604213,3.1957268 5.1024128,3.0403583 l 0.054589,-0.05039 0.1259745,-0.1469703 C 5.3585609,2.7128245 5.417349,2.58685 5.4635397,2.4524772 5.5055312,2.3181044 5.5643193,2.1921299 5.6525014,2.0787529 h 0.029394 L 5.753281,1.9191852 h 0.029394 L 5.9884334,1.7302234 V 1.6588379 C 5.9338445,1.6420413 5.8792555,1.633643 5.8288657,1.6294438 c -0.058788,0 -0.1091779,-0.016797 -0.1469702,-0.046191 l -0.1931609,0.029394 -0.054589,0.079784 -0.037792,0.025195 -0.138572,0.025195 c -0.029394,0 -0.054589,-0.0042 -0.079784,-0.0084 -0.020996,-0.0042 -0.041991,-0.012598 -0.062987,-0.029394 h -0.012597 l 0.088182,0.1469703 0.092381,0.067186 0.05039,-0.029394 h 0.037792 C 5.2871754,2.2761129 5.1654,2.6582356 5.0100315,3.03196 4.8588621,3.4140826 4.6866969,3.7710104 4.4977352,4.1027432 Z m 0.3191354,-0.2435507 -0.0084,0.0084 -0.012598,-0.0084 0.012598,-0.046191 h 0.025195 z M 4.4725403,2.3181044 4.6782986,2.2383206 4.8966544,2.0115665 4.9638408,1.8897911 4.9512434,1.7890115 4.6657012,1.5958506 h -0.012598 v 0.016797 l -0.037792,0.016797 0.016797,0.075585 c -0.020996,0.09658 -0.05039,0.1931609 -0.092381,0.2771439 -0.046191,0.092381 -0.083983,0.1805635 -0.1259745,0.2687456 v 0.029394 h 0.012597 v 0.012597 h 0.046191 z M 6.2655773,1.8519988 6.4083485,1.8100073 6.4209459,1.7722149 6.395751,1.5958506 C 6.3537595,1.54966 6.3033697,1.5118676 6.2487807,1.4740753 6.1941918,1.4404821 6.1396028,1.411088 6.089213,1.3858931 h -0.041991 c 0.029394,0.067186 0.054589,0.138572 0.079784,0.2099575 0.025195,0.071386 0.054589,0.1469703 0.092381,0.2141567 l 0.046191,0.012597 z M 6.563717,1.5832532 6.6896915,1.5454608 c 0.012598,-0.029394 0.0084,-0.058788 -0.0042,-0.088182 -0.012598,-0.020996 -0.029394,-0.041991 -0.046191,-0.058788 L 6.3075689,1.2305246 h -0.029394 l 0.029394,0.09658 0.037792,0.012598 0.05039,0.113377 z"
         id="path296" />
      <path
         d="m 9.9986137,4.1069424 0.04619,-0.016797 c 0.0084,-0.1217754 0.0042,-0.2435507 -0.0084,-0.3611269 -0.0168,-0.1217754 -0.03359,-0.2393516 -0.05039,-0.3527286 l 0.012598,-0.041991 -0.012598,-0.1007796 0.025195,-0.335932 -0.012597,-0.083983 0.029394,-0.1847626 c -0.0126,-0.037792 -0.0168,-0.079784 -0.0168,-0.1259745 0,-0.046191 -0.012597,-0.088182 -0.037792,-0.1175762 L 9.8558426,2.4020874 H 9.7970545 C 9.8936349,2.250918 9.9986137,2.1123461 10.11619,1.9779733 c 0.117576,-0.1343728 0.19736,-0.2813431 0.251949,-0.4493091 0,-0.029394 0,-0.062987 0,-0.092381 0,-0.033593 -0.0126,-0.062987 -0.03359,-0.092381 l -0.188962,-0.041991 -0.08818,-0.1469702 -0.04619,0.1469702 -0.088182,0.083983 0.016797,0.083983 C 9.9104315,1.6378421 9.8474443,1.7974098 9.7508638,1.9359818 9.6584825,2.0787529 9.5661012,2.2173248 9.4863174,2.3600959 h -0.025195 l -0.8566267,1.200957 v 0.016797 C 8.7976567,3.481269 8.9572244,3.3510954 9.0873981,3.1873285 9.2175718,3.0235617 9.364542,2.8639939 9.5157114,2.7128245 l 0.1049788,-0.1553685 0.041991,0.016797 c 0.029394,0.075585 0.071385,0.1427711 0.1259745,0.2099575 0.054589,0.067186 0.075585,0.1469703 0.067186,0.2393516 0,0.1217753 0,0.2435507 0,0.3695252 0,0.1301736 -0.020996,0.2477498 -0.058788,0.3485294 0,0.058788 0.012597,0.1091779 0.037792,0.1553686 0.020996,0.041991 0.041991,0.092381 0.058788,0.1385719 z"
         id="path298" />
      <path
         d="m 12.996798,3.7500146 0.281343,-0.2099575 c 0.06299,-0.029394 0.121776,-0.058788 0.176365,-0.088182 0.05459,-0.029394 0.104978,-0.067186 0.155368,-0.1091779 l 0.02939,-0.046191 h 0.03359 L 14.147365,2.9899685 14.36992,2.7590152 h 0.03359 l 0.109177,-0.09658 v -0.029394 l 0.05039,-0.016797 c 0.09238,-0.09658 0.180564,-0.1889618 0.256148,-0.2897414 0.07978,-0.1007796 0.142771,-0.2057583 0.184763,-0.3191354 v -0.054589 h -0.03359 v -0.012597 h -0.0126 c -0.05459,0.075585 -0.117576,0.1511694 -0.184762,0.222555 -0.07139,0.079784 -0.142771,0.1511694 -0.209958,0.2141566 v 0.029394 c -0.268745,0.2099575 -0.533292,0.3989192 -0.810436,0.5752836 -0.272944,0.1763643 -0.562686,0.3191354 -0.873423,0.4283133 -0.0168,0.012597 -0.03779,0.016797 -0.05879,0.016797 -0.021,0 -0.03779,0.012597 -0.04619,0.041991 l -0.109178,0.046191 0.138572,0.092381 0.07559,0.046191 0.05039,0.083983 z m 0.566886,-1.8266303 0.09238,-0.0084 0.08398,-0.075585 -0.08398,-0.1847626 -0.314936,-0.09658 -0.109178,-0.088182 -0.130174,-0.025195 h -0.03359 v 0.037792 l -0.0168,0.046191 v 0.071386 c 0.05459,0.054589 0.117576,0.1007796 0.176365,0.1343728 0.06299,0.033593 0.125974,0.075585 0.176364,0.1343728 z"
         id="path300" />
      <path
         d="m 16.969187,4.0145611 h 0.02939 c 0,-0.037792 0,-0.075585 -0.0042,-0.1133771 -0.0042,-0.033593 0.0042,-0.067186 0.03359,-0.09658 v -0.058788 l -0.0126,0.041991 -0.06719,0.029394 h -0.04199 c -0.0084,-0.2981396 0.0084,-0.587881 0.05459,-0.869224 0.04619,-0.2813431 0.08818,-0.5626862 0.125975,-0.8398301 0,-0.1427711 -0.0042,-0.2855422 -0.0126,-0.4241141 -0.0084,-0.138572 -0.05039,-0.2645465 -0.125974,-0.3821227 l 0.07978,0.2603473 c -0.021,0.2981397 -0.05459,0.5920802 -0.104979,0.8860207 -0.05039,0.2897413 -0.08398,0.5836819 -0.104979,0.8818215 0,0.1133771 0.0042,0.2267541 0.0084,0.3443303 0.0042,0.1133771 0.0294,0.222555 0.07978,0.3149363 h 0.06299 z m 2.393515,-0.1805635 -0.0126,-0.029394 0.05039,-0.2183558 -0.08398,-0.1301737 C 19.22413,3.3888877 19.135948,3.3342988 19.039368,3.283909 18.946986,3.2377183 18.850406,3.1957268 18.749626,3.1537353 l 0.104979,-0.2561481 -0.02939,-0.6466692 0.02939,-0.4871014 0.218356,0.012598 0.14697,-0.046191 V 1.663037 c -0.0084,-0.033593 -0.0252,-0.046191 -0.05039,-0.046191 -0.0252,0 -0.04619,-0.0042 -0.06719,-0.0084 -0.04199,-0.05039 -0.06719,-0.1049788 -0.07978,-0.1553686 -0.0126,-0.054589 -0.02939,-0.1049787 -0.05459,-0.1511694 l -0.09238,-0.046191 -0.125975,0.016797 c -0.05459,0.058788 -0.08818,0.1217753 -0.104979,0.1805634 -0.0126,0.062987 -0.02519,0.1301737 -0.03359,0.1931609 -0.159567,0.037792 -0.319135,0.088182 -0.474504,0.1469703 -0.155368,0.054589 -0.306538,0.1343728 -0.449309,0.2267541 l -0.230953,0.2771439 v 0.016797 l 0.03359,-0.062987 c 0.142771,-0.1343728 0.302339,-0.2351524 0.482902,-0.2939405 0.176365,-0.062987 0.361127,-0.113377 0.54589,-0.1553685 h 0.09238 c 0,0.1469702 0.0042,0.2897413 0.0084,0.4241141 0.0042,0.138572 0.02099,0.2771439 0.05039,0.4115167 l -0.0126,0.1931609 c -0.021,0.041992 -0.05039,0.088182 -0.08398,0.1259746 -0.03779,0.037792 -0.07978,0.071385 -0.125975,0.09658 l -0.155368,-0.025195 c -0.08818,-0.0084 -0.167966,-0.0042 -0.239352,0.0042 -0.07978,0.012597 -0.142771,0.041991 -0.205758,0.079784 -0.021,0.054589 -0.05039,0.1007796 -0.07978,0.1469703 -0.03359,0.046191 -0.05459,0.1007796 -0.06299,0.1553685 v 0.029394 h 0.03359 c 0,0.020996 0,0.041991 0,0.067186 0,0.025195 0.0084,0.041991 0.0252,0.058788 0.09238,-0.033593 0.184763,-0.075585 0.272945,-0.1133771 0.08398,-0.037792 0.176364,-0.075585 0.268745,-0.1091779 0.146971,0.016797 0.277144,0.046191 0.39892,0.1007796 0.121775,0.054589 0.251949,0.1049788 0.382122,0.1553686 0.05459,0.029394 0.10078,0.062987 0.155369,0.09658 0.05039,0.029394 0.09238,0.075585 0.121775,0.1343728 z"
         id="path302" />
      <path
         d="m 22.570845,3.7626121 0.256148,-0.037792 v -0.033593 h 0.05039 v -0.033593 l 0.121775,-0.062987 -0.07139,0.016797 c -0.07978,0 -0.14697,-0.012598 -0.209958,-0.041991 -0.05879,-0.020996 -0.121775,-0.05039 -0.180563,-0.079784 C 22.436472,3.3636928 22.339892,3.2335192 22.264307,3.1033455 22.184523,2.977371 22.10054,2.8513965 22.008159,2.725422 L 21.890583,2.6204432 h -0.03359 c -0.0126,0.2099575 0.0252,0.3989193 0.104978,0.5668853 0.07559,0.167966 0.180564,0.3275337 0.323335,0.4703048 0.04199,0.029394 0.08818,0.054589 0.134373,0.071386 0.04619,0.012597 0.09238,0.025195 0.151169,0.033593 z m 0.201559,-1.8266303 c 0.03779,-0.033593 0.07139,-0.067186 0.113377,-0.1049788 0.03779,-0.033593 0.08398,-0.054589 0.130174,-0.067186 l 0.0126,-0.062987 -0.0126,-0.1049788 C 22.877383,1.465677 22.713616,1.3984906 22.528854,1.381694 c -0.188962,-0.012598 -0.373725,-0.041991 -0.554288,-0.088182 -0.125975,0 -0.235153,0.012597 -0.340131,0.037792 -0.10078,0.029394 -0.205759,0.058788 -0.319136,0.088182 l 0.0126,0.062987 0.05039,0.012597 v 0.05039 l 0.172165,0.079784 c 0.109178,0 0.218356,-0.016797 0.314936,-0.05039 0.09658,-0.029394 0.201559,-0.05039 0.314936,-0.058788 0.07139,0 0.134373,0.0084 0.205759,0.020996 0.06719,0.016797 0.125974,0.037792 0.184762,0.058788 0.04619,0.020996 0.09238,0.037792 0.125975,0.062987 0.03779,0.029394 0.07138,0.062987 0.09658,0.1049787 l -0.021,0.1427711 z"
         id="path304" />
      <path
         d="m 27.126913,3.8255993 0.184763,-0.1763643 0.07978,-0.016797 v -0.037792 l 0.07978,-0.029394 0.09238,-0.2057583 -0.09238,-0.1847626 c -0.04619,-0.037792 -0.08818,-0.062987 -0.134373,-0.083983 -0.04619,-0.020996 -0.09658,-0.033593 -0.14697,-0.041991 -0.230954,-0.020996 -0.44511,0 -0.638271,0.054589 -0.193161,0.058788 -0.386322,0.1133771 -0.583682,0.167966 -0.02939,0 -0.06299,-0.0042 -0.10078,-0.0084 -0.03779,-0.0042 -0.06719,-0.016797 -0.08818,-0.033593 0.021,-0.2183558 0.06299,-0.4367116 0.125975,-0.6466691 0.06299,-0.2099575 0.130173,-0.4157159 0.218356,-0.6172751 0.06719,-0.037792 0.138572,-0.083983 0.205758,-0.1301736 0.05879,-0.041991 0.109178,-0.1049788 0.142771,-0.1805635 l -0.03359,-0.1091779 -0.06719,-0.025195 -0.04199,-0.1091779 0.02939,-0.1049787 v -0.025195 l -0.09658,-0.037792 v -0.033593 l -0.09238,0.033593 c -0.04199,0.1007796 -0.07978,0.2015592 -0.109178,0.2939405 -0.03359,0.09658 -0.06719,0.2015592 -0.09238,0.3023388 l -0.268746,0.054589 -0.247749,-0.016797 h -0.06299 c 0.06299,0.075585 0.134373,0.1091779 0.226754,0.1091779 0.08398,0 0.180564,0 0.272945,0 l -0.03359,0.1469702 v 0.012598 l 0.0168,-0.029394 h 0.0168 l -0.235152,0.9070165 c -0.0126,0.054589 -0.0126,0.1091779 0,0.1595677 0.0084,0.046191 0.02939,0.09658 0.05879,0.1469702 l 0.10078,0.05039 c 0.19316,-0.0084 0.382122,-0.046191 0.558486,-0.1175762 0.176365,-0.067186 0.365327,-0.1091779 0.566886,-0.1259745 0.04619,0 0.09238,0 0.134373,0 0.04619,0 0.08398,0.012598 0.117576,0.037792 l 0.09238,0.1553685 -0.02939,0.1511694 v 0.041991 h 0.02939 l -0.06299,0.1259745 -0.09238,0.1511694 z m -1.444507,-0.6508682 -0.0168,0.016797 -0.0126,-0.016797 c 0.0084,-0.1595677 0.03779,-0.3149363 0.08818,-0.4619066 0.04619,-0.1469702 0.08818,-0.2939405 0.130174,-0.4409107 h 0.0168 l -0.205758,0.8062368 z m 0.533292,-1.4445077 -0.0126,0.012597 -0.0168,-0.012597 0.09238,-0.335932 0.07978,0.09658 v 0.113377 z"
         id="path306" />
      <path
         d="m 30.889344,4.123739 0.0084,-0.025195 0.08398,-0.025195 h 0.04199 v 0.025195 l 0.377924,-0.2981397 0.109178,-0.2477498 c 0,-0.05039 0,-0.1049788 0,-0.1595677 0,-0.05039 -0.021,-0.092381 -0.05879,-0.1259745 -0.04199,-0.054589 -0.100779,-0.09658 -0.163766,-0.1259745 -0.05879,-0.029394 -0.121776,-0.05039 -0.184763,-0.067186 -0.188962,0 -0.365326,0.033593 -0.524894,0.09658 -0.159567,0.062987 -0.323334,0.1259745 -0.482902,0.1889618 -0.0252,0 -0.05459,0.0042 -0.08818,0.0084 -0.03779,0.0042 -0.06719,-0.0042 -0.08398,-0.033593 0.0084,-0.2477499 0.03779,-0.4829023 0.08398,-0.7054573 0.04199,-0.2267541 0.100779,-0.449309 0.172165,-0.6676648 l -0.04199,-0.2477499 c -0.07138,0.2309533 -0.138571,0.4577074 -0.205758,0.6844615 -0.07138,0.2309532 -0.113377,0.4661056 -0.134373,0.7138555 0,0.083983 0.0042,0.1553686 0.0084,0.2267541 0.0042,0.067186 0.03359,0.1343728 0.07558,0.2015592 l 0.0252,0.012598 c 0.07559,0.0084 0.142771,0.0042 0.214157,-0.0042 0.06719,-0.012597 0.130174,-0.025195 0.193161,-0.033593 v -0.029394 c 0.109178,-0.037792 0.222555,-0.083983 0.331733,-0.1301737 0.109178,-0.05039 0.222555,-0.092381 0.335932,-0.1217753 l 0.188961,0.033593 0.0126,0.067186 c 0,0.1469702 -0.0252,0.2855422 -0.07978,0.4157158 -0.05039,0.138572 -0.125975,0.2561482 -0.214157,0.3653261 z M 30.528217,1.5622574 30.700383,1.54966 c 0.0126,-0.046191 0.0084,-0.088182 -0.0084,-0.1217754 -0.021,-0.037792 -0.04619,-0.075585 -0.07558,-0.113377 -0.04619,-0.041991 -0.08818,-0.075585 -0.142772,-0.1007796 -0.05459,-0.020996 -0.109177,-0.054589 -0.159567,-0.09658 h -0.0252 c 0.05459,0.05039 0.100779,0.1007796 0.151169,0.1511694 0.04619,0.046191 0.08398,0.1049788 0.109178,0.1721652 L 30.511421,1.54966 Z"
         id="path308" />
      <path
         d="m 34.458614,3.7164214 0.06719,-0.05039 c 0,-0.2435507 0.03779,-0.4661056 0.125974,-0.6760631 0.08398,-0.2099576 0.163767,-0.4241142 0.251949,-0.6340717 0,-0.092381 0,-0.1973601 0,-0.3023388 0,-0.1007796 -0.02519,-0.1931609 -0.07978,-0.2645465 -0.07558,-0.041991 -0.155368,-0.067186 -0.24355,-0.071385 -0.08818,-0.0042 -0.184763,-0.0084 -0.277144,-0.0084 -0.0126,-0.075585 -0.0126,-0.1511694 -0.0084,-0.2393516 0.0042,-0.083983 -0.0126,-0.1511694 -0.05459,-0.2015592 l -0.125974,0.062987 c -0.04619,0.075585 -0.07558,0.1553685 -0.09238,0.2435507 -0.021,0.088182 -0.04619,0.1763643 -0.06719,0.2603473 -0.08818,0.041992 -0.167966,0.088182 -0.251949,0.1343728 -0.08398,0.046191 -0.167966,0.092381 -0.251949,0.1343728 l -0.06299,0.062987 h -0.05039 l -0.172165,0.1595677 v 0.029394 h 0.188962 l 0.03359,0.062987 c 0.08398,-0.020996 0.159568,-0.054589 0.230953,-0.1007796 0.06719,-0.046191 0.138572,-0.088182 0.209958,-0.1217753 h 0.03359 l -0.06299,0.4787031 c 0,0.058788 0.0042,0.1217753 0.0084,0.1763643 0.0042,0.058788 0.0168,0.1175762 0.03779,0.1721652 l 0.09238,0.041991 c 0.02099,-0.167966 0.04619,-0.3401312 0.07558,-0.5164955 0.0252,-0.1721652 0.04619,-0.3401312 0.06719,-0.5080972 l 0.113377,-0.05039 h 0.02939 l -0.02939,0.6508683 c 0,0.1343728 -0.0042,0.2687456 -0.0084,0.3989193 -0.0042,0.1343728 0.02519,0.251949 0.100779,0.3569277 v 0.062987 h -0.03359 l 0.03359,0.083983 0.03359,0.0084 0.04619,0.113377 z m 0,-0.5080971 -0.0126,0.016797 -0.06299,-0.016797 -0.06299,-0.2687456 V 1.9317826 l 0.138572,-0.05039 0.08398,0.016797 c 0.03779,0.075585 0.06299,0.1553686 0.07558,0.2477499 0.0126,0.088182 0.021,0.1805634 0.03359,0.2729447 -0.0126,0.1343728 -0.03359,0.2687456 -0.07138,0.4031184 -0.03359,0.1343729 -0.07559,0.2603474 -0.121776,0.3863219 z m 2.200355,-0.8818216 0.05879,-0.046191 v -0.05039 h 0.03359 v 0.033593 l -0.0168,-0.1091779 h -0.0168 v -0.05039 h -0.03359 v -0.062987 h -0.0252 v 0.033593 l -0.0168,-0.075585 h -0.03359 V 1.9653758 L 36.402821,1.7764141 C 36.310439,1.7218251 36.213859,1.6672362 36.113079,1.6252447 36.008101,1.579054 35.907321,1.5328634 35.806541,1.4866727 l 0.550089,0.5542878 v 0.067186 l -0.176364,0.138572 v 0.016797 l 0.05039,-0.016797 c 0.08818,0 0.159567,0.016797 0.230953,0.046191 0.06719,0.033593 0.142771,0.054589 0.230953,0.067186 z m -2.464901,-0.5500886 -0.0168,0.016797 -0.0126,-0.016797 0.0126,-0.2057584 h 0.03359 z"
         id="path310" />
      <path
         d="m 39.287629,4.123739 0.0084,-0.025195 0.08398,-0.025195 h 0.04199 v 0.025195 l 0.377924,-0.2981397 0.109177,-0.2477498 c 0,-0.05039 0,-0.1049788 0,-0.1595677 0,-0.05039 -0.02099,-0.092381 -0.05879,-0.1259745 -0.04199,-0.054589 -0.100779,-0.09658 -0.163766,-0.1259745 -0.05879,-0.029394 -0.121776,-0.05039 -0.184763,-0.067186 -0.188962,0 -0.365326,0.033593 -0.524894,0.09658 -0.159568,0.062987 -0.323334,0.1259745 -0.482902,0.1889618 -0.02519,0 -0.05459,0.0042 -0.08818,0.0084 -0.03779,0.0042 -0.06719,-0.0042 -0.08398,-0.033593 0.0084,-0.2477499 0.03779,-0.4829023 0.08398,-0.7054573 0.04199,-0.2267541 0.100779,-0.449309 0.172165,-0.6676648 l -0.04199,-0.2477499 c -0.07138,0.2309533 -0.138572,0.4577074 -0.205758,0.6844615 -0.07139,0.2309532 -0.113377,0.4661056 -0.134373,0.7138555 0,0.083983 0.0042,0.1553686 0.0084,0.2267541 0.0042,0.067186 0.03359,0.1343728 0.07558,0.2015592 l 0.02519,0.012598 c 0.07558,0.0084 0.142771,0.0042 0.214157,-0.0042 0.06719,-0.012597 0.130173,-0.025195 0.193161,-0.033593 v -0.029394 c 0.109178,-0.037792 0.222555,-0.083983 0.331733,-0.1301737 0.109177,-0.05039 0.222554,-0.092381 0.335932,-0.1217753 l 0.188961,0.033593 0.0126,0.067186 c 0,0.1469702 -0.02519,0.2855422 -0.07978,0.4157158 -0.05039,0.138572 -0.125975,0.2561482 -0.214157,0.3653261 z M 38.926502,1.5622574 39.098667,1.54966 c 0.0126,-0.046191 0.0084,-0.088182 -0.0084,-0.1217754 -0.021,-0.037792 -0.04619,-0.075585 -0.07558,-0.113377 -0.04619,-0.041991 -0.08818,-0.075585 -0.142771,-0.1007796 -0.05459,-0.020996 -0.109178,-0.054589 -0.159567,-0.09658 h -0.02519 c 0.05459,0.05039 0.100779,0.1007796 0.151169,0.1511694 0.04619,0.046191 0.08398,0.1049788 0.109178,0.1721652 L 38.909706,1.54966 Z"
         id="path312" />
    </g>
  </g>
</svg>
