<?xml version="1.0" encoding="UTF-8" standalone="no"?>
<!-- Created with Inkscape (http://www.inkscape.org/) -->

<svg
   width="35.000999mm"
   height="7mm"
   viewBox="0 0 35.000998 7"
   version="1.1"
   id="svg5"
   inkscape:version="1.2.2 (b0a8486, 2022-12-01)"
   sodipodi:docname="topMySubscriberLOGO.svg"
   xmlns:inkscape="http://www.inkscape.org/namespaces/inkscape"
   xmlns:sodipodi="http://sodipodi.sourceforge.net/DTD/sodipodi-0.dtd"
   xmlns="http://www.w3.org/2000/svg"
   xmlns:svg="http://www.w3.org/2000/svg">
  <sodipodi:namedview
     id="namedview7"
     pagecolor="#ffffff"
     bordercolor="#000000"
     borderopacity="0.25"
     inkscape:showpageshadow="2"
     inkscape:pageopacity="0.0"
     inkscape:pagecheckerboard="0"
     inkscape:deskcolor="#d1d1d1"
     inkscape:document-units="mm"
     showgrid="false"
     inkscape:zoom="4.7488465"
     inkscape:cx="73.386242"
     inkscape:cy="16.319753"
     inkscape:window-width="1440"
     inkscape:window-height="771"
     inkscape:window-x="1080"
     inkscape:window-y="1616"
     inkscape:window-maximized="0"
     inkscape:current-layer="layer1" />
  <defs
     id="defs2">
    <rect
       x="-1.8951972"
       y="4.0009718"
       width="213.31496"
       height="77.703079"
       id="rect268" />
  </defs>
  <g
     inkscape:label="Layer 1"
     inkscape:groupmode="layer"
     id="layer1">
    <path
       style="fill:none;fill-rule:evenodd;stroke:#000000;stroke-width:0.21864px;stroke-linecap:butt;stroke-linejoin:miter;stroke-opacity:1"
       d="m 4.4186655,7.736698 v 0"
       id="path208"
       inkscape:connector-type="polyline"
       inkscape:connector-curvature="0" />
    <text
       xml:space="preserve"
       style="font-size:8.85995px;font-family:KouzanBrushFontGyousyoOTF;-inkscape-font-specification:KouzanBrushFontGyousyoOTF;fill:#000000;stroke-width:0.166124"
       x="-1.3619121"
       y="8.4681635"
       id="text214"
       transform="scale(0.67763293,1.4757252)"><tspan
         sodipodi:role="line"
         id="tspan212"
         style="stroke-width:0.166124"
         x="-1.3619121"
         y="8.4681635" /></text>
    <text
       xml:space="preserve"
       transform="scale(0.26458333)"
       id="text266"
       style="font-size:53.3333px;font-family:KouzanBrushFontGyousyoOTF;-inkscape-font-specification:KouzanBrushFontGyousyoOTF;white-space:pre;shape-inside:url(#rect268);display:inline;fill:#000000" />
    <g
       aria-label="登録者一覧"
       transform="scale(0.92777464,1.077848)"
       id="text932"
       style="font-size:7.93518px;font-family:KouzanBrushFontGyousyoOTF;-inkscape-font-specification:KouzanBrushFontGyousyoOTF;stroke-width:0.148784">
      <path
         d="m 1.7090812,6.4136695 h 0.031741 V 6.389864 l 0.2459906,-0.071417 0.023806,-0.039676 C 2.2883494,6.21529 2.5740159,6.1676789 2.8596824,6.1438734 3.1453488,6.1200679 3.4468857,6.1121327 3.7642929,6.1200679 l 0.2380554,0.039676 0.079352,-0.01587 0.2697961,0.039676 -0.01587,0.047611 -0.095222,0.047611 v 0.031741 l 0.087287,0.079352 c 0.1745739,0.023805 0.3412127,0.01587 0.4919812,-0.023806 0.1507684,-0.047611 0.3015368,-0.087287 0.4602404,-0.1110925 l 0.087287,0.01587 0.087287,0.00794 0.023805,-0.031741 L 5.3433937,5.8661421 C 5.2799123,5.8105958 5.2084957,5.7629847 5.1450142,5.731244 5.0815328,5.6915681 5.002181,5.6677626 4.9228292,5.6518922 l -0.706231,-0.047611 c -0.2221851,-0.00794 -0.4443701,-0.00794 -0.6665552,0 -0.222185,0.00794 -0.4364349,0.01587 -0.6427496,0.039676 h -0.031741 l 0.01587,-0.055546 0.4364349,-0.3174072 c 0.039676,-0.039676 0.095222,-0.079352 0.1507684,-0.1190277 0.055546,-0.031741 0.095222,-0.071417 0.1269629,-0.1269629 L 3.5262375,4.8028279 C 3.4786264,4.763152 3.4310153,4.7314113 3.3754691,4.7076058 3.327858,4.6838002 3.2643765,4.6520595 3.2088303,4.6203188 3.1056729,4.6520595 3.018386,4.6758651 2.9231638,4.6838002 2.8200064,4.6996706 2.7247843,4.7234761 2.6295621,4.7472817 H 2.5502103 L 2.6136918,4.6679299 2.7406546,4.5489022 3.2723117,4.1918191 V 4.1362728 L 3.1453488,3.9934396 3.1612192,3.9220229 3.2326358,3.882347 3.7722281,3.4697177 c 0,-0.031741 0,-0.071417 0,-0.1031574 -0.00794,-0.031741 -0.023806,-0.063481 -0.047611,-0.087287 l -0.079352,-0.063481 v -0.055546 l -0.2856665,-0.079352 -0.087287,-0.00794 v 0.031741 C 3.0421915,3.176116 2.8358768,3.2792733 2.6295621,3.4141714 2.4153123,3.5411343 2.2328031,3.7077731 2.050294,3.882347 l -0.031741,-0.00794 -0.047611,-0.3570831 0.063481,-0.2777314 0.031741,0.00794 0.1031574,-0.1269629 0.047611,-0.039676 C 2.4549882,3.001542 2.7009787,2.9142551 2.9469693,2.8269681 3.1850247,2.7476163 3.4389505,2.6761997 3.7008115,2.6206534 l -0.01587,-0.095222 -0.023806,-0.00794 -0.01587,-0.071417 C 3.5976541,2.3905332 3.5421078,2.3429221 3.4706912,2.3191165 3.3992746,2.295311 3.3357932,2.2715055 3.2564414,2.2476999 l -0.095222,-0.00794 -0.00794,0.055546 C 2.9390342,2.3270517 2.7327195,2.382598 2.5502103,2.4619498 2.359766,2.5492368 2.1613865,2.6365237 1.9709422,2.7158756 H 1.8995255 L 2.0582292,2.3349869 h 0.039676 l 0.063481,-0.1983795 h 0.031741 l 0.261861,-0.4284997 0.2380554,-0.055546 c 0.5872033,0.3729535 1.1585363,0.7855828 1.7298692,1.2299529 0.571333,0.4602405 1.2140826,0.7538422 1.9282488,0.8966754 l 0.1825092,-0.023805 v -0.01587 C 6.105171,3.6125509 5.7004769,3.4221066 5.3354586,3.1602456 4.9783755,2.9063199 4.605422,2.6523941 4.2404037,2.3984683 v -0.031741 l -0.4126294,-0.4046942 0.00794,-0.071417 0.1666388,-0.031741 v -0.031741 c 0.055546,0.00794 0.1110925,-0.00794 0.1587036,-0.039676 0.039676,-0.01587 0.087287,-0.047611 0.1269629,-0.087287 l 0.063481,-0.1031574 h 0.039676 L 4.4863943,1.5176633 4.5498757,1.414506 4.4943295,1.192321 4.3753018,1.105034 V 1.0653581 L 4.2721444,1.0018766 3.946802,0.99394145 c 0.01587,0.039676 0.047611,0.0634814 0.079352,0.087287 0.039676,0.023806 0.071417,0.031741 0.1110926,0.039676 C 4.0975705,1.2319969 4.0182187,1.3351542 3.9229965,1.4383115 3.8198392,1.5335337 3.7166818,1.6287559 3.63733,1.7319132 3.4944968,1.6525614 3.3516635,1.5732096 3.2247006,1.4859226 3.0898026,1.414506 2.9469693,1.3589597 2.7882657,1.3192838 L 2.8914231,1.1447099 c 0.047611,-0.00794 0.095222,-0.023806 0.1269629,-0.063481 0.039676,-0.031741 0.079352,-0.047611 0.134898,-0.039676 L 3.2088303,0.89078411 3.4706912,0.87491375 3.3913394,0.66066388 C 3.3675339,0.64479352 3.3516635,0.62098798 3.327858,0.59718244 3.3040524,0.5733769 3.2723117,0.56544172 3.2326358,0.5733769 V 0.54957136 L 2.5740159,0.30358077 2.4946641,0.31151595 2.2566087,0.6924046 1.5821183,0.81143231 c -0.095222,-0.007935 -0.1904443,-0.007935 -0.2697961,-0.0158704 -0.095222,0 -0.1825091,-0.0158704 -0.2618609,-0.0555463 h -0.047611 l -0.007935,0.0396759 v 0.0238055 L 1.1615538,0.99394145 c 0.039676,0.039676 0.087287,0.087287 0.1269629,0.13489805 0.039676,0.055546 0.079352,0.087287 0.1428332,0.1031574 l -0.00794,0.039676 h 0.039676 l 0.063482,0.134898 0.4284997,0.039676 -0.1348981,0.3808887 H 1.788433 C 1.7170164,2.0096445 1.6376646,2.1762833 1.5345073,2.3429221 1.4313499,2.5095609 1.3440629,2.6841348 1.256776,2.8587088 l -0.039676,-0.00794 C 1.0663316,3.1046994 0.90762802,3.35069 0.72511888,3.5808102 0.54260974,3.8188656 0.37597095,4.0648562 0.20933217,4.3029116 h -0.0317407 l -0.10315735,0.079352 0.01587037,0.079352 0.0793518,0.031741 c 0.0476111,-0.00794 0.10315734,-0.00794 0.16663878,-0.00794 0.0476111,0.00794 0.0952222,-0.00794 0.13489806,-0.039676 0.0238055,-0.00794 0.0476111,-0.01587 0.0714166,-0.01587 0.0238055,-0.00794 0.0396759,-0.023806 0.0476111,-0.063481 l 0.0714166,-0.031741 0.0396759,-0.055546 0.0714166,-0.01587 C 0.97110947,4.056921 1.1456834,3.8268008 1.3123222,3.5966806 1.4710258,3.3665603 1.6297294,3.1285049 1.7725627,2.9063199 l 0.1666387,0.039676 0.2856665,-0.00794 h 0.047611 l -0.00794,0.071417 H 2.2328031 C 2.050294,3.1364401 1.9550718,3.3110141 1.9233311,3.5173288 1.8915904,3.7315786 1.8519145,3.9378933 1.8043034,4.1362728 l 0.023805,0.1507684 0.261861,0.349148 0.055546,0.023806 -0.039676,0.087287 0.01587,0.1983795 0.039676,0.00794 c 0,0.047611 0.01587,0.087287 0.039676,0.1190277 0.023805,0.023805 0.055546,0.055546 0.079352,0.079352 L 2.8200064,4.9694667 h 0.039676 L 2.3042197,5.5487349 C 2.1772569,5.6280867 2.050294,5.6915681 1.9233311,5.731244 1.788433,5.7709199 1.6694053,5.8105958 1.5345073,5.8423365 l -0.047611,0.087287 0.055546,0.261861 h 0.039676 l -0.00794,0.055546 z M 2.272479,4.6203188 2.2566087,4.628254 2.2089976,4.5012911 C 2.2328031,4.3425875 2.272479,4.1759487 2.3438956,4.0331155 2.3994419,3.882347 2.4867289,3.747449 2.5898862,3.6125509 L 2.9231638,3.4697177 h 0.055546 L 2.6374973,3.7712545 2.5740159,3.882347 c 0,0.047611 0.00794,0.095222 0.031741,0.1348981 0.023805,0.039676 0.039676,0.079352 0.063481,0.1348981 C 2.6295621,4.2394301 2.5660807,4.3187819 2.4867289,4.3901986 2.4073771,4.45368 2.3438956,4.5330318 2.272479,4.6044484 Z m -1.0791845,-2.1663042 0.071417,0.00794 0.023806,-0.071417 h 0.055546 L 1.304387,2.208024 C 1.2409056,2.1445426 1.1774242,2.0969315 1.1218779,2.0413852 1.0583964,1.985839 0.99491501,1.9540983 0.90762802,1.9382279 0.8362114,1.9302927 0.7568596,1.9302927 0.6775078,1.9223575 c -0.087287,-0.00794 -0.16663878,0.00794 -0.23012023,0.039676 L 0.55054492,2.0969315 C 0.65370226,2.1604129 0.7568596,2.2318296 0.86001694,2.3032462 0.96317429,2.3746628 1.0742668,2.4302091 1.1932945,2.4540146 Z M 4.827607,2.6127182 C 4.9942458,2.5730423 5.1370791,2.5095609 5.2719771,2.4302091 5.39894,2.3429221 5.5338381,2.2556351 5.6687361,2.1683481 v -0.039676 h 0.031741 l 0.1904443,-0.1190277 0.023805,-0.039676 -0.039676,-0.1904443 -0.055546,-0.00794 0.00794,-0.039676 -0.055546,-0.055546 C 5.7242824,1.636691 5.6766713,1.5970151 5.6290602,1.5732096 5.573514,1.5494041 5.5179677,1.5255985 5.4544863,1.5097282 l -0.5157867,0.055546 c 0.055546,0.039676 0.1110925,0.063481 0.1825091,0.087287 0.063481,0.023806 0.1348981,0.047611 0.2063147,0.063481 C 5.2799123,1.8747465 5.2084957,2.0334501 5.1053383,2.1604129 5.002181,2.3032462 4.8910885,2.4381442 4.7641256,2.5571719 Z"
         id="path294" />
      <path
         d="m 12.262856,6.1835493 0.07142,-0.031741 c 0.05555,-0.071417 0.09522,-0.1428333 0.103158,-0.2221851 0.0079,-0.071417 0.0238,-0.1587036 0.03967,-0.2459906 L 12.421559,5.0091426 V 3.5808102 l 0.08729,-0.5078515 V 2.6841348 l -0.198379,-0.063481 v -0.055546 c 0.261861,-0.055546 0.531657,-0.1190277 0.801453,-0.1666388 0.269796,-0.055546 0.539592,-0.079352 0.825259,-0.079352 l 0.111092,-0.1428332 -0.0238,-0.1110925 -0.507852,-0.174574 c -0.111092,0.1031574 -0.238055,0.1666388 -0.372953,0.1904443 -0.150769,0.023806 -0.277732,0.055546 -0.41263,0.095222 H 12.619939 C 12.659615,1.9144224 12.723096,1.6684318 12.818318,1.4462467 12.91354,1.2161265 13.000827,1.0018766 13.09605,0.77969159 V 0.63685834 L 12.619939,0.46228438 c -0.206315,0 -0.388824,0.0396759 -0.555463,0.11109252 -0.166639,0.0793518 -0.372953,0.11109252 -0.595138,0.087287 l 0.03174,0.087287 c 0.05555,0.0396759 0.119028,0.0714166 0.182509,0.1190277 0.06348,0.0476111 0.134899,0.0793518 0.21425,0.10315734 0.06348,0 0.142834,-0.007935 0.222185,-0.0158704 0.07142,-0.007935 0.142834,-0.0317407 0.190445,-0.0714166 h 0.05555 L 12.334272,1.192321 h -0.24599 l -0.03174,0.055546 -0.833194,0.309472 0.134898,0.174574 0.166639,-0.031741 h 0.142833 c -0.03968,0.1428332 -0.111092,0.2856665 -0.222185,0.4046942 -0.119028,0.1190277 -0.21425,0.2459906 -0.309472,0.3729534 l -0.341213,0.261861 c -0.05555,0 -0.103157,0.01587 -0.150768,0.031741 -0.04761,0.031741 -0.07935,0.079352 -0.09522,0.1348981 l 0.07935,0.3332775 0.928417,-0.4205645 c 0.05555,-0.023805 0.103157,-0.00794 0.150768,0.039676 0.04761,0.047611 0.08729,0.079352 0.126963,0.1031573 l 0.08729,0.2459906 0.04761,0.031741 c 0.134898,0.2221851 0.198379,0.4761109 0.190444,0.745907 -0.0079,0.2697961 0,0.5237219 0.03968,0.7697125 v 0.8728698 l -0.277731,-0.063481 -0.23012,-0.2459905 0.174574,0.5554626 z M 11.104319,5.596346 c 0.05555,-0.1825092 0.134898,-0.3808887 0.222185,-0.571333 0.09522,-0.1983795 0.190445,-0.3888238 0.285667,-0.5792682 h 0.05555 l 0.05555,-0.1110925 -0.222185,0.1983795 -0.341212,0.3015369 h -0.05555 c 0.05555,-0.1587036 0.119028,-0.3412128 0.182509,-0.5157868 0.06348,-0.1825091 0.134899,-0.3491479 0.21425,-0.5237218 V 3.6046157 l -0.420564,-0.087287 -0.309472,0.063481 0.277731,0.2142499 c 0,0.2539257 -0.01587,0.4840459 -0.05555,0.706231 -0.03968,0.2301202 -0.126963,0.4284997 -0.277732,0.618944 l 0.02381,0.1428333 h 0.08729 v 0.055546 z M 8.8665985,5.509059 10.374283,4.7314113 10.342542,4.5885781 C 10.160033,4.5647725 9.9854589,4.5965133 9.8426257,4.6838002 9.6918572,4.763152 9.5410888,4.8425038 9.3903204,4.8980501 H 9.3347741 L 9.4538018,4.6758651 H 9.5966351 L 9.6204406,4.5330318 9.7870794,4.3346523 9.8743664,4.1680135 h 0.055546 L 10.128292,3.969634 v -0.055546 h 0.05555 L 10.294931,3.747449 V 3.660162 l -0.19838,-0.079352 H 9.8426257 v 0.055546 L 9.7315331,3.660162 H 9.6759869 C 9.6521813,3.4935232 9.6680517,3.3427548 9.7077276,3.1999215 9.7474035,3.0650235 9.8108849,2.9380606 9.9061071,2.8190329 V 2.6841348 L 9.7870794,2.5968478 9.6442462,2.4064035 V 2.2873758 l 0.087287,-0.031741 0.2301203,-0.3332776 -0.031741,-0.055546 -0.055546,-0.031741 c -0.1190277,-0.01587 -0.2142499,0 -0.2777313,0.055546 -0.079352,0.055546 -0.1666388,0.1110925 -0.261861,0.1507684 H 9.287163 V 1.9223575 L 9.0253021,2.0969315 9.1443298,2.4302091 H 9.287163 L 8.8348578,3.1523105 c -0.023806,0.079352 -0.00794,0.1428332 0.047611,0.1983795 0.047611,0.055546 0.087287,0.1110925 0.1190277,0.1666388 L 9.3347741,3.3824307 h 0.087287 l 0.031741,0.1348981 V 3.747449 L 8.890404,4.1362728 8.6444134,4.0251803 h -0.055546 v 0.079352 l 0.2777313,0.2856665 c 0.055546,0.023805 0.1031573,0.01587 0.1190277,-0.01587 0.023805,-0.023805 0.063481,-0.055546 0.1031573,-0.095222 h 0.055546 L 9.2554223,4.4695504 9.1125891,4.7552169 c -0.055546,0.095222 -0.1269629,0.1507684 -0.2063147,0.1666387 -0.087287,0.023806 -0.1587036,0.071417 -0.2142499,0.1428333 0,0.087287 0.01587,0.1666388 0.055546,0.2380554 0.039676,0.071417 0.079352,0.1348981 0.1190277,0.2063147 z m 5.0467745,-0.4999164 0.07935,-0.031741 v -0.055546 l 0.142833,-0.023805 0.166639,-0.1666388 -0.03174,-0.055546 v -0.063481 l 0.08729,0.031741 h 0.03174 l -0.06348,-0.087287 C 14.143493,4.540967 13.960984,4.5012911 13.802281,4.4457448 13.627707,4.3981338 13.461068,4.3346523 13.286494,4.279106 h -0.07142 l 0.05555,0.1110926 -0.05555,0.3412127 v 0.079352 l 0.07142,-0.055546 h 0.317407 v 0.055546 z M 9.3903204,4.2473653 9.3665148,4.279106 9.1998761,4.2473653 9.2554223,4.0886617 9.3665148,4.0251803 h 0.055546 z M 7.6525159,3.7950601 7.9143769,3.6919027 C 8.0175342,3.572875 8.1206916,3.4538473 8.2238489,3.3268844 8.3111359,3.1919864 8.3746173,3.0570883 8.4142932,2.9063199 h 0.055546 l 0.031741,-0.1348981 h 0.055546 C 8.668219,2.4778201 8.7951819,2.2000888 8.9380151,1.9302927 9.0729132,1.6604966 9.239552,1.3986356 9.4220611,1.1367747 l 0.1983795,-0.023805 0.023806,-0.087287 0.3174072,0.087287 V 1.192321 L 9.4220611,1.7557187 C 9.5966351,1.6604966 9.7632739,1.5652744 9.9378478,1.4700523 10.096551,1.3827653 10.286996,1.3351542 10.49331,1.3351542 V 1.1129692 C 10.358412,1.017747 10.215579,0.96220073 10.064811,0.95426555 9.9219775,0.94633037 9.7632739,0.93046001 9.6204406,0.91458965 L 9.5648944,0.74795087 9.1443298,0.54957136 H 9.0014966 l 0.023805,0.11109252 C 8.8983392,1.2240617 8.7317004,1.7715891 8.5253857,2.3032462 8.3111359,2.8349033 8.0175342,3.3268844 7.6366456,3.7712545 Z m 5.0785151,-0.071417 c 0.09522,-0.079352 0.19838,-0.1507684 0.309472,-0.2063146 0.119028,-0.055546 0.23012,-0.1031574 0.333278,-0.1587037 l 0.253926,0.055546 0.253925,-0.087287 v -0.087287 h 0.05555 l 0.0238,-0.055546 v -0.079352 l -0.642749,-0.1983795 -0.253926,0.023805 -0.02381,0.1428333 -0.190444,0.134898 0.07935,0.063482 z M 9.1125891,3.2078567 9.0887835,3.2395974 h -0.063481 c 0.023805,-0.1190277 0.063481,-0.2142498 0.1348981,-0.309472 0.063481,-0.095222 0.134898,-0.1745739 0.2063146,-0.2459906 h 0.055546 V 2.9936069 Z M 12.199374,2.3191165 11.191606,2.6841348 h -0.08729 v -0.063481 h 0.05555 l 0.47611,-0.5078515 0.05555,-0.071417 0.484046,-0.3412127 h 0.08729 l -0.03174,0.1904443 -0.23012,0.063481 0.198379,0.2777313 z"
         id="path296" />
      <path
         d="m 20.602715,6.3263825 0.08729,-0.047611 0.07935,-0.071417 h 0.01587 l 0.111092,-0.4999163 -0.0238,-0.063481 c 0.03968,-0.2539257 0.06348,-0.5237219 0.08729,-0.7776476 0.01587,-0.2539258 0.05555,-0.4999164 0.126963,-0.745907 l -0.01587,-0.1110925 0.04761,-0.2301202 -0.08729,-0.2856665 -0.372953,-0.1666388 -0.158704,0.01587 -0.277731,-0.095222 v -0.047611 l -0.134898,-0.071417 -0.166639,0.031741 -0.04761,0.087287 c -0.08729,0.047611 -0.174574,0.095222 -0.253926,0.1428333 -0.07142,0.047611 -0.166638,0.071417 -0.277731,0.063481 l -0.01587,0.047611 0.07142,0.3332776 0.05555,0.023805 0.06348,0.039676 0.03968,0.1031573 0.05555,0.023806 h 0.05555 v -0.023806 l 0.158704,-0.087287 0.0079,-0.039676 c 0.08729,-0.039676 0.182509,-0.071417 0.285667,-0.1110926 0.09522,-0.031741 0.190444,-0.055546 0.293601,-0.071417 l 0.119028,0.00794 -0.03174,0.9204809 c -0.0238,0.1666388 -0.04761,0.3412127 -0.07142,0.4999163 -0.02381,0.174574 -0.06348,0.3332776 -0.103158,0.4999164 -0.07142,-0.00794 -0.134898,-0.01587 -0.190444,-0.031741 -0.06348,-0.00794 -0.119028,-0.031741 -0.166639,-0.071417 l 0.06348,-0.1348981 h 0.03174 c 0.03968,-0.071417 0.07935,-0.1348981 0.126963,-0.1983795 0.03968,-0.063481 0.07935,-0.1269629 0.111093,-0.1983795 h 0.03174 l 0.0238,-0.055546 -0.0238,-0.4284997 c -0.03968,-0.047611 -0.09522,-0.071417 -0.142834,-0.087287 -0.05555,-0.00794 -0.119027,-0.031741 -0.174574,-0.055546 -0.119027,-0.00794 -0.222185,0.01587 -0.309472,0.071417 -0.09522,0.047611 -0.182509,0.087287 -0.285666,0.1269629 l -0.01587,0.055546 -0.05555,0.01587 -0.134898,0.1428332 0.01587,0.2221851 0.333277,0.1745739 h 0.01587 c -0.0238,-0.031741 -0.0238,-0.071417 -0.0238,-0.1110925 0.0079,-0.047611 0,-0.087287 -0.02381,-0.1269629 l 0.02381,-0.071417 0.21425,-0.055546 h 0.09522 l -0.452305,0.8649347 0.150768,0.2697961 0.206315,0.1507684 h 0.21425 l 0.158703,-0.1269629 c 0.09522,0.039676 0.182509,0.087287 0.253926,0.1507685 0.07142,0.071417 0.142833,0.1428332 0.206315,0.2142498 z m -4.158035,-0.3491479 0.126963,-0.01587 0.0079,-0.055546 0.03968,0.00794 c 0.01587,-0.023806 0.03968,-0.055546 0.07142,-0.079352 0.03174,-0.023806 0.03968,-0.047611 0.03174,-0.087287 l 0.166638,-0.087287 0.03174,-0.071417 h 0.03174 L 17.373096,5.1123 l 0.03968,-0.071417 h 0.03174 l 0.02381,-0.047611 h 0.05555 l 0.0079,-0.039676 0.07142,-0.01587 V 4.850439 l 0.07935,-0.01587 0.04761,-0.087287 0.166638,-0.1428333 0.03174,-0.095222 h 0.03968 l 0.01587,-0.023806 v -0.01587 l -0.01587,-0.00794 0.0079,-0.047611 0.103157,-0.023805 0.03174,-0.071417 h 0.03174 l 0.06348,-0.1269628 0.04761,-0.01587 0.119028,-0.1666388 0.03174,0.00794 0.04761,-0.087287 h 0.03968 l 0.0079,-0.071417 0.09522,-0.1110925 0.03174,-0.023806 0.103157,-0.1190277 h 0.03174 l 0.04761,-0.1031573 h 0.03174 l 0.174574,-0.2063147 0.03968,-0.01587 0.02381,-0.071417 h 0.03174 l 0.06348,-0.095222 h 0.03174 L 19.49179,2.8190329 19.50766,2.779357 c 0.222185,-0.1666388 0.476111,-0.261861 0.761777,-0.2697961 0.277731,-0.00794 0.563398,-0.023806 0.833194,-0.047611 l 0.285667,0.023805 c 0.111092,0.01587 0.206314,0.00794 0.293601,-0.023805 0.08729,-0.023806 0.174574,-0.047611 0.253926,-0.071417 -0.01587,-0.023806 -0.02381,-0.047611 -0.03174,-0.071417 -0.0079,-0.023805 -0.03174,-0.031741 -0.05555,-0.039676 l 0.0079,-0.063481 h -0.03968 v -0.047611 h 0.03968 V 2.120737 L 21.602547,2.0096445 c -0.238055,-0.00794 -0.46024,0 -0.69036,0.01587 -0.222185,0.023805 -0.44437,0.055546 -0.65862,0.1031573 h -0.09522 l 0.380888,-0.4761108 0.04761,-0.1190277 0.06348,-0.01587 0.182509,-0.2459905 h 0.03968 l 0.0238,-0.1031574 0.03968,0.00794 0.174574,-0.1666388 0.03968,-0.0952222 h 0.03968 l 0.06348,-0.0793518 0.174573,-0.0793518 -0.05555,-0.15870361 0.03174,-0.0555463 v -0.0317407 c -0.06348,-0.007935 -0.126963,-0.0158704 -0.182509,-0.0396759 -0.05555,-0.0158704 -0.111093,-0.0396759 -0.150769,-0.0793518 l -0.142833,0.0317407 c -0.05555,0.0952222 -0.119028,0.1983795 -0.206315,0.28566648 -0.08729,0.087287 -0.166638,0.18250915 -0.222185,0.28566649 -0.119027,-0.0158704 -0.238055,-0.0396759 -0.349148,-0.0634814 -0.119027,-0.0238055 -0.238055,-0.0634814 -0.341212,-0.1190277 l -0.119028,0.0634814 0.04761,0.12696285 v 0.079352 l -0.21425,0.063481 h -0.05555 c 0.05555,-0.087287 0.08729,-0.18250917 0.08729,-0.28566651 0.0079,-0.0952222 0.0238,-0.19044433 0.05555,-0.28566649 h 0.03174 l -0.02381,-0.11109252 -0.03968,-0.007935 c -0.0079,-0.0396759 -0.0238,-0.0714166 -0.03967,-0.0952222 -0.02381,-0.0238055 -0.02381,-0.0634814 -0.0079,-0.11109253 l -0.349148,-0.0793518 h -0.126962 v 0.0396759 l -0.07935,0.0317407 0.126963,0.18250915 -0.06348,0.65861992 -0.158703,-0.063481 -0.07935,-0.00794 -0.222185,0.2380554 c -0.111093,0.031741 -0.23012,0.047611 -0.349148,0.039676 -0.111093,-0.00794 -0.23012,0.00794 -0.341213,0.031741 l -0.119028,-0.063481 h -0.01587 l -0.0238,0.055546 h -0.02381 v 0.031741 h 0.07935 v 0.031741 h 0.03174 v 0.055546 l 0.238056,0.3332775 0.05555,0.01587 0.02381,0.023805 0.190444,0.079352 h 0.07935 l 0.01587,-0.047611 c 0.08729,-0.00794 0.158704,-0.01587 0.23012,-0.023806 0.07142,0 0.134898,-0.01587 0.190445,-0.039676 h 0.07142 l -0.07142,0.571333 -0.253926,-0.1031574 h -0.04761 v 0.039676 c -0.349148,0.1666388 -0.706231,0.3570831 -1.055379,0.571333 -0.357083,0.2221851 -0.737972,0.3570831 -1.142666,0.4284997 l -0.04761,0.1031574 -0.04761,0.00794 0.21425,0.3888238 c 0.103157,0.00794 0.182509,-0.01587 0.269796,-0.047611 0.08729,-0.039676 0.166639,-0.087287 0.238055,-0.1428332 0.02381,-0.00794 0.06348,-0.023806 0.103158,-0.031741 0.03967,-0.00794 0.05555,-0.031741 0.05555,-0.063481 l 0.206314,-0.071417 v -0.039676 c 0.269797,-0.1031574 0.531658,-0.2142499 0.777648,-0.3412128 0.245991,-0.134898 0.507852,-0.222185 0.777648,-0.2697961 l 0.0079,-0.00794 h 0.03174 c -0.103158,0.1428333 -0.21425,0.2856665 -0.325343,0.4284998 -0.111092,0.1507684 -0.21425,0.2856664 -0.309472,0.4364349 h -0.03968 c -0.07935,0.1190277 -0.174574,0.222185 -0.277731,0.3332775 -0.09522,0.1190277 -0.190444,0.2301203 -0.269796,0.3650183 h -0.03174 C 17.555606,4.4695504 17.428643,4.628254 17.309615,4.7790224 17.198522,4.9456612 17.07156,5.0964296 16.952532,5.2551332 h -0.03968 v 0.039676 l -0.142833,0.1507684 z m 2.785249,-0.1110925 0.07935,-0.00794 c 0.0079,-0.071417 0.0079,-0.1428332 -0.01587,-0.2142499 -0.02381,-0.071417 -0.03968,-0.134898 -0.06348,-0.1904443 h -0.01587 l -0.01587,0.063481 h -0.03968 C 19.118836,5.247198 19.047419,4.9932723 18.960132,4.7393465 18.872845,4.4854207 18.737947,4.2473653 18.563373,4.0172451 c -0.03174,0.2936017 -0.01587,0.571333 0.04761,0.8252587 0.07142,0.261861 0.142833,0.5237219 0.23012,0.7697125 0.06348,0.071417 0.126963,0.1269629 0.190444,0.1587036 0.06348,0.039676 0.134898,0.071417 0.19838,0.095222 z m 0.174574,-3.5311552 -0.206315,0.071417 -0.07142,-0.00794 c 0.03968,-0.134898 0.07935,-0.2618609 0.111093,-0.3888238 0.03968,-0.1269629 0.09522,-0.2380554 0.182509,-0.3570831 l 0.595138,-0.174574 h 0.06348 l -0.301537,0.4443701 -0.03968,-0.00794 z"
         id="path298" />
      <path
         d="m 24.340169,3.7236434 c 0.46024,-0.1666387 0.928416,-0.2936016 1.412462,-0.4046942 0.468176,-0.1110925 0.944286,-0.2142498 1.412462,-0.309472 l 0.111093,0.01587 0.07935,-0.01587 0.182509,0.01587 0.07142,-0.01587 c 0.301537,0.00794 0.611009,0.031741 0.912546,0.071417 0.301537,0.031741 0.595138,0.079352 0.880805,0.1507685 h 0.05555 v -0.079352 l 0.04761,0.01587 0.174574,-0.039676 0.349148,0.063481 h 0.05555 L 30.188397,3.088829 30.291554,2.7238107 h 0.01587 l -0.07935,-0.071417 V 2.5651071 C 29.934471,2.4460794 29.624999,2.3429221 29.299656,2.2635703 28.966379,2.1921537 28.648972,2.1048667 28.347435,1.985839 h -0.174574 c 0,0.039676 -0.0079,0.071417 -0.02381,0.079352 -0.0238,0.00794 -0.05555,0.00794 -0.09522,-0.00794 l -0.09522,0.1110925 -0.976027,0.095222 c -0.158704,0 -0.309472,-0.023806 -0.460241,-0.071417 -0.142833,-0.039676 -0.285666,-0.095222 -0.404694,-0.1825092 v -0.039676 l -0.09522,-0.039676 -0.01587,-0.063481 c -0.05555,-0.01587 -0.08729,-0.00794 -0.111093,0.01587 -0.0238,0.031741 -0.05555,0.063481 -0.08729,0.087287 l -0.285666,0.261861 -0.03174,0.055546 -0.714166,0.3015369 -0.09522,-0.023806 c -0.103158,0.055546 -0.206315,0.095222 -0.325343,0.1110926 -0.119027,0.01587 -0.23012,0.031741 -0.341213,0.047611 l -0.317407,-0.1110925 -0.07142,0.01587 -0.02381,0.055546 h -0.01587 l -0.03174,0.1904444 v 0.031741 c 0.07142,0.1031573 0.158704,0.1983795 0.253926,0.3015368 0.07935,0.1031574 0.174574,0.2142499 0.277731,0.3094721 z"
         id="path300" />
      <path
         d="m 33.17201,6.4850861 0.222185,-0.1587036 0.206314,-0.3015368 h 0.03968 l 0.23012,-0.4999164 0.03174,0.00794 c 0.02381,-0.055546 0.05555,-0.1110925 0.103158,-0.1587036 0.04761,-0.055546 0.07142,-0.1110925 0.07935,-0.1825091 h 0.02381 l 0.01587,-0.071417 0.142833,-0.023806 0.03174,-0.063481 -0.01587,-0.071417 c -0.04761,-0.039676 -0.103157,-0.079352 -0.158704,-0.1031573 -0.04761,-0.023805 -0.111092,-0.023805 -0.182509,-0.01587 l -0.0079,-0.055546 c 0.166639,-0.063481 0.349148,-0.1348981 0.523722,-0.2221851 0.182509,-0.079352 0.349148,-0.1587036 0.515787,-0.2618609 l 0.07142,0.01587 0.08729,0.1348981 h 0.03174 l 0.03174,0.1428333 0.03174,-0.00794 0.0079,0.031741 0.206315,0.1983795 0.119028,-0.039676 -0.0079,-0.8966754 0.09522,-0.6586199 h 0.01587 l 0.01587,-0.039676 -0.03174,-0.1269629 0.07142,-0.3332776 0.01587,-0.00794 -0.0079,-0.031741 -0.03968,0.00794 -0.01587,-0.055546 c -0.07935,-0.071417 -0.174574,-0.1110925 -0.269796,-0.134898 -0.103157,-0.01587 -0.222185,-0.039676 -0.341212,-0.055546 -0.150769,0.031741 -0.293602,0.087287 -0.436435,0.1587036 -0.150769,0.079352 -0.285667,0.1587036 -0.420565,0.2301203 v 0.01587 l 0.126963,0.039676 0.563398,-0.079352 0.206314,0.01587 0.07142,0.5237219 c 0,0.1269628 0,0.2539257 0.0079,0.3808886 0,0.1269629 -0.01587,0.2459906 -0.03968,0.3650183 l -0.103157,0.00794 0.0079,0.095222 -0.317407,-0.087287 h -0.02381 l 0.0079,0.023806 c -0.03968,-0.023806 -0.06348,-0.023806 -0.07935,0 -0.01587,0.023805 -0.03174,0.055546 -0.03968,0.079352 l -0.531657,0.2459906 -0.03968,0.00794 c 0.111092,-0.1110925 0.23012,-0.2221851 0.357083,-0.3174072 0.119028,-0.079352 0.253926,-0.1587036 0.396759,-0.2142499 v -0.031741 h 0.03968 l 0.0079,-0.055546 h 0.03174 v -0.071417 l -0.245991,-0.095222 h -0.08729 l -0.0238,0.055546 h -0.03968 l -0.01587,0.031741 -0.253925,0.1190277 h -0.03174 l 0.0079,-0.047611 c 0.119028,-0.1031573 0.238056,-0.2063146 0.349148,-0.309472 0.119028,-0.095222 0.245991,-0.1587036 0.396759,-0.1904443 l 0.07142,-0.1348981 h 0.03968 l -0.0079,-0.055546 c -0.03968,-0.00794 -0.07142,-0.01587 -0.111092,-0.039676 -0.03968,-0.01587 -0.07142,-0.023806 -0.103157,-0.023806 -0.134898,0.01587 -0.269797,0.047611 -0.396759,0.1031574 -0.134899,0.055546 -0.261861,0.1269628 -0.388824,0.2142498 h -0.03174 v -0.087287 l -0.09522,-0.087287 -0.01587,-0.063481 -0.26186,-0.1031573 h -0.174574 v 0.01587 l 0.142833,0.079352 c -0.0079,0.1666388 -0.01587,0.3094721 -0.02381,0.4443701 -0.0079,0.1428333 -0.03174,0.261861 -0.07935,0.3808887 0.04761,0.071417 0.08729,0.1428332 0.126963,0.2142498 0.03968,0.071417 0.08729,0.1428333 0.150769,0.1983796 l -0.02381,0.047611 c -0.03968,0.039676 -0.08729,0.055546 -0.142833,0.063481 -0.05555,0.00794 -0.09522,0.031741 -0.126963,0.055546 0.01587,0.071417 0.04761,0.1348981 0.09522,0.1825092 0.04761,0.039676 0.07142,0.095222 0.07142,0.1666388 l 0.07142,-0.01587 h 0.07142 C 33.719537,5.1837166 33.640185,5.4614479 33.529093,5.7233088 33.418,5.9772346 33.298973,6.2311604 33.17201,6.4692158 Z m 2.816989,-0.2936016 c 0.24599,-0.055546 0.491981,-0.1110925 0.745907,-0.1666388 0.238055,-0.055546 0.47611,-0.1348981 0.698295,-0.2380554 v -0.031741 h 0.126963 l 0.01587,-0.087287 0.142833,-0.01587 -0.03968,-0.1190277 v -0.039676 h 0.06348 l 0.04761,-0.055546 v -0.01587 h -0.09522 l -0.06348,-0.079352 -0.238056,-0.055546 -0.03967,-0.087287 -0.103158,-0.023806 v -0.055546 h -0.03968 c -0.05555,-0.1031573 -0.09522,-0.2142498 -0.134898,-0.3174072 -0.03174,-0.095222 -0.07142,-0.2063146 -0.09522,-0.309472 -0.03174,0.1507684 -0.07142,0.3015369 -0.111092,0.4523053 -0.04761,0.1507684 -0.09522,0.309472 -0.126963,0.4761108 l -0.142834,0.047611 v 0.01587 l -0.88874,0.261861 c -0.134898,0 -0.277731,0 -0.420564,-0.00794 -0.150769,0 -0.285667,-0.01587 -0.420565,-0.047611 -0.0079,-0.1190277 0,-0.222185 0.01587,-0.3174072 0.01587,-0.1031573 0.03174,-0.2063147 0.04761,-0.3015368 l -0.07142,-0.174574 -0.261861,-0.047611 -0.07935,0.023806 v 0.01587 l 0.07142,0.01587 0.05555,0.2380554 -0.02381,0.3650183 c 0.0079,0.087287 0.03174,0.1587036 0.07142,0.2142498 0.03968,0.047611 0.07935,0.1110926 0.126963,0.1666388 0.174574,0.1190277 0.357083,0.1904444 0.571333,0.2221851 0.19838,0.031741 0.396759,0.055546 0.595139,0.079352 z m -2.055212,-1.8965081 -0.01587,0.01587 -0.03968,-0.00794 -0.01587,-0.087287 0.01587,-0.071417 -0.02381,-0.063481 0.01587,-0.1031573 0.03968,0.00794 0.07142,0.1110925 c 0.0079,0.031741 0.0079,0.063481 0,0.1031573 -0.0079,0.039676 -0.02381,0.071417 -0.04761,0.095222 z m 0.06348,-0.484046 -0.01587,0.023806 -0.07142,-0.00794 0.04761,-0.2777313 0.206315,-0.01587 h 0.08729 l -0.09522,0.1587036 z M 32.95776,2.779357 32.894278,2.5730423 V 2.4222739 l 0.06348,0.01587 0.04761,0.1507685 0.111092,0.031741 c 0.166639,-0.023806 0.325343,-0.063481 0.460241,-0.1348981 0.134898,-0.063481 0.269796,-0.1269629 0.412629,-0.1983795 v -0.055546 l -0.05555,-0.023806 -0.277731,0.01587 -0.08729,0.00794 -0.0079,-0.031741 0.07142,-0.023805 v -0.01587 l 0.206315,-0.1428332 c 0.03968,-0.071417 0.06348,-0.1507684 0.07142,-0.2380554 0.0079,-0.079352 0.02381,-0.1587036 0.06348,-0.2301202 l -0.0079,-0.047611 -0.142834,-0.047611 0.01587,-0.063481 0.05555,0.031741 c 0.04761,-0.023806 0.09522,-0.063481 0.134898,-0.1031574 0.03968,-0.039676 0.08729,-0.071417 0.158704,-0.095222 l 0.0079,-0.031741 0.134898,-0.063481 v -0.047611 l 0.09522,-0.01587 -0.06348,-0.15870363 -0.388824,-0.12696288 h -0.07142 l -0.04761,0.0555463 -0.07142,0.007935 -0.0079,-0.0555463 -0.158703,-0.16663879 0.0079,-0.0714166 0.650685,-0.13489806 -0.04761,-0.087287 c -0.06348,-0.0396759 -0.126963,-0.0634814 -0.206315,-0.087287 -0.08729,-0.0158704 -0.166639,-0.0317407 -0.253926,-0.0396759 -0.111092,0.0317407 -0.222185,0.0634814 -0.333277,0.0952222 -0.119028,0.0396759 -0.230121,0.0952222 -0.325343,0.17457397 v 0.0317407 l -0.07142,0.0317407 0.24599,-0.007935 0.158704,-0.007935 c 0.0079,0.087287 0.0079,0.17457396 -0.0079,0.24599059 -0.02381,0.0714166 -0.07142,0.15076842 -0.126963,0.23012022 -0.02381,0.0476111 -0.04761,0.0714167 -0.08729,0.0714167 -0.03968,0 -0.07935,0.00794 -0.111093,0.031741 -0.04761,0.00794 -0.08729,-0.00794 -0.119028,-0.047611 -0.03174,-0.031741 -0.07142,-0.047611 -0.119027,-0.0555463 V 0.95426555 L 32.505454,0.70033978 h -0.01587 l 0.142833,0.25392577 c 0,0.20631465 -0.0079,0.41262935 -0.03174,0.59513855 -0.02381,0.1983795 -0.05555,0.3808886 -0.111093,0.5633978 h -0.03174 l -0.03174,0.055546 c 0.0079,0.079352 0.02381,0.1507684 0.04761,0.2142499 0.03174,0.063481 0.05555,0.1269629 0.07935,0.1983795 0.04761,0.00794 0.09522,0.023805 0.142833,0.047611 0.03968,0.023805 0.07935,0.039676 0.126963,0.039676 l 0.04761,0.047611 z m 0.301537,-0.5237219 -0.277732,0.063481 h -0.04761 c 0.01587,-0.1904443 0.03174,-0.3729534 0.05555,-0.5475274 0.02381,-0.1825091 0.03174,-0.3570831 0.02381,-0.5475274 h 0.02381 l 0.0079,0.071417 c 0.01587,0.039676 0.03968,0.055546 0.07142,0.055546 0.03174,0.00794 0.05555,0.01587 0.07935,0.023806 l 0.365018,-0.1587036 0.04761,-0.00794 c -0.03968,0.095222 -0.09522,0.1825092 -0.150769,0.2539258 -0.05555,0.087287 -0.134898,0.1507684 -0.238055,0.2063147 l -0.04761,-0.01587 -0.142834,0.039676 c 0.0079,0.047611 0.02381,0.087287 0.04761,0.1110925 0.02381,0.039676 0.03968,0.071417 0.06348,0.1031574 0.05555,0 0.119028,-0.00794 0.182509,-0.023806 0.06348,-0.00794 0.119028,-0.031741 0.158704,-0.071417 h 0.03968 l -0.01587,0.1587036 h -0.03174 v 0.031741 c -0.03174,0.039676 -0.05555,0.079352 -0.09522,0.1110926 -0.03968,0.047611 -0.07935,0.079352 -0.119027,0.1031573 z m 2.071082,-0.2142499 0.849064,-0.309472 0.0079,-0.031741 0.05555,-0.031741 v -0.071417 l -0.142833,-0.039676 -0.0079,-0.039676 -0.06348,-0.01587 -0.26186,0.055546 -0.09522,0.00794 0.0079,-0.087287 c 0.111092,-0.087287 0.238055,-0.1745739 0.372953,-0.2618609 0.126963,-0.079352 0.253926,-0.1269629 0.380889,-0.1587036 v -0.087287 l -0.05555,-0.007935 v -0.0396759 l -0.09522,-0.087287 c -0.05555,-0.007935 -0.111092,-0.0158704 -0.158703,-0.0396759 -0.03968,-0.007935 -0.08729,-0.0238055 -0.134898,-0.0476111 l -0.03174,0.007935 -0.03968,0.0634814 c -0.07935,0.0714166 -0.166639,0.1190277 -0.261861,0.14283324 -0.103157,0.0238055 -0.198379,0.0634815 -0.277731,0.11109257 l -0.142834,-0.00794 -0.103157,0.01587 -0.03968,0.047611 0.317407,0.2142499 -0.05555,0.1269629 -0.06348,0.047611 -0.150769,0.063481 -0.04761,0.071417 c 0.07142,0.055546 0.119028,0.1190277 0.142833,0.1825092 0.02381,0.071417 0.05555,0.134898 0.09522,0.2063146 z m -0.618944,-0.6982958 0.01587,-0.01587 0.01587,0.023806 0.07935,-0.031741 0.07935,-0.134898 0.111092,-0.087287 0.02381,-0.13489807 h 0.03174 v -0.0714166 h 0.03174 l 0.03968,-0.087287 h 0.04761 l 0.07935,-0.18250915 h 0.03174 l 0.111092,-0.30153684 -0.02381,-0.0634814 c -0.08729,-0.0555463 -0.19838,-0.0952222 -0.309472,-0.1190277 -0.119028,-0.0158704 -0.238056,-0.0317407 -0.341213,-0.04761108 l -0.03174,-0.0079352 0.02381,0.05554626 -0.05555,0.6030737 0.04761,0.34914791 z"
         id="path302" />
    </g>
  </g>
</svg>
