<?xml version="1.0" encoding="UTF-8" standalone="no"?>
<!-- Created with Inkscape (http://www.inkscape.org/) -->

<svg
   width="35.000999mm"
   height="7mm"
   viewBox="0 0 35.000998 7"
   version="1.1"
   id="svg5"
   inkscape:version="1.2.2 (b0a8486, 2022-12-01)"
   sodipodi:docname="topMyDealLOGO.svg"
   xmlns:inkscape="http://www.inkscape.org/namespaces/inkscape"
   xmlns:sodipodi="http://sodipodi.sourceforge.net/DTD/sodipodi-0.dtd"
   xmlns="http://www.w3.org/2000/svg"
   xmlns:svg="http://www.w3.org/2000/svg">
  <sodipodi:namedview
     id="namedview7"
     pagecolor="#ffffff"
     bordercolor="#000000"
     borderopacity="0.25"
     inkscape:showpageshadow="2"
     inkscape:pageopacity="0.0"
     inkscape:pagecheckerboard="0"
     inkscape:deskcolor="#d1d1d1"
     inkscape:document-units="mm"
     showgrid="false"
     inkscape:zoom="4.7488465"
     inkscape:cx="124.34599"
     inkscape:cy="18.004372"
     inkscape:window-width="1440"
     inkscape:window-height="771"
     inkscape:window-x="1080"
     inkscape:window-y="1616"
     inkscape:window-maximized="0"
     inkscape:current-layer="layer1" />
  <defs
     id="defs2">
    <rect
       x="-1.8951972"
       y="4.0009718"
       width="213.31496"
       height="77.703079"
       id="rect268" />
  </defs>
  <g
     inkscape:label="Layer 1"
     inkscape:groupmode="layer"
     id="layer1">
    <path
       style="fill:none;fill-rule:evenodd;stroke:#000000;stroke-width:0.21864px;stroke-linecap:butt;stroke-linejoin:miter;stroke-opacity:1"
       d="m 4.4186655,7.736698 v 0"
       id="path208"
       inkscape:connector-type="polyline"
       inkscape:connector-curvature="0" />
    <text
       xml:space="preserve"
       style="font-size:8.85995px;font-family:KouzanBrushFontGyousyoOTF;-inkscape-font-specification:KouzanBrushFontGyousyoOTF;fill:#000000;stroke-width:0.166124"
       x="-1.3619121"
       y="8.4681635"
       id="text214"
       transform="scale(0.67763293,1.4757252)"><tspan
         sodipodi:role="line"
         id="tspan212"
         style="stroke-width:0.166124"
         x="-1.3619121"
         y="8.4681635" /></text>
    <text
       xml:space="preserve"
       transform="scale(0.26458333)"
       id="text266"
       style="font-size:53.3333px;font-family:KouzanBrushFontGyousyoOTF;-inkscape-font-specification:KouzanBrushFontGyousyoOTF;white-space:pre;shape-inside:url(#rect268);display:inline;fill:#000000" />
    <g
       aria-label="取引中のお魚"
       transform="scale(0.86664995,1.1538684)"
       id="text932"
       style="font-size:6.92357px;font-family:KouzanBrushFontGyousyoOTF;-inkscape-font-specification:KouzanBrushFontGyousyoOTF;stroke-width:0.129817">
      <path
         d="M 2.0527468,5.2944403 2.0388997,5.266746 V 5.2459753 L 2.2812246,5.2321282 2.2673775,5.1144275 h -0.027694 l 0.013847,-0.048465 C 2.2466068,4.9274911 2.2327597,4.768249 2.2189125,4.6090069 2.2050654,4.4497648 2.1981418,4.2905226 2.1981418,4.1312805 H 2.1842947 L 2.1981418,4.075892 2.1842947,3.930497 2.1981418,3.8958791 2.1773711,3.882032 c 0.00692,-0.2215542 0.020771,-0.4361849 0.041541,-0.6508156 0.020771,-0.2077071 0.041541,-0.4154142 0.069236,-0.6231213 l 0.09693,0.027694 v 0.027694 c 0.1315478,0.1315478 0.2561721,0.2700192 0.3669492,0.4084906 0.1177007,0.145395 0.2284778,0.2907899 0.3461785,0.4431085 v 0.041541 h -0.034618 l -0.1384714,0.242325 -0.062312,0.013847 -0.1038535,0.145395 -0.19386,0.1592421 c -0.041541,0 -0.083083,0 -0.1246242,0 -0.041541,0 -0.069236,0.020771 -0.090006,0.062312 l 0.3461785,0.048465 v 0.020771 c 0.083083,-0.00692 0.1661656,-0.020771 0.2561721,-0.041541 0.076159,-0.020771 0.1523185,-0.055389 0.2215542,-0.09693 V 4.0828155 H 3.208983 L 3.3889959,3.9235734 3.402843,3.8612613 C 3.8182572,4.0828155 4.2267479,4.2628284 4.6490856,4.4151469 5.0644999,4.574389 5.4937612,4.6990133 5.9230226,4.816714 h 0.020771 V 4.768249 H 6.0684175 V 4.7474783 C 5.7360862,4.5813126 5.4037548,4.4151469 5.0575763,4.2628284 4.7113978,4.1105098 4.3790664,3.9374206 4.0605822,3.7435606 v -0.027694 l -0.048465,-0.020771 -0.09693,-0.145395 H 3.8805694 L 3.7351744,3.33507 v -0.055389 l 0.048465,-0.027694 0.069236,-0.2561721 h 0.020771 l 0.034618,-0.1384714 0.034618,-0.013847 C 3.9913465,2.7257958 4.046735,2.6080951 4.1021236,2.4834708 4.1505886,2.3588466 4.2059772,2.2411459 4.2544421,2.1234452 h 0.027694 C 4.2959836,2.0680566 4.3167543,2.0057445 4.3444486,1.9434324 4.3721428,1.8811202 4.38599,1.8188081 4.38599,1.7634195 L 4.2959836,1.5834067 3.9082636,1.4380117 C 3.7213272,1.4310882 3.548238,1.4449353 3.3751487,1.4864767 3.208983,1.5280181 3.0497409,1.611101 2.9112695,1.7426488 v 0.034618 l -0.048465,0.00692 c -0.055389,0.048465 -0.090006,0.09693 -0.1107771,0.145395 -0.020771,0.055389 -0.041541,0.1107771 -0.069236,0.1661657 v 0.013847 c 0.048465,-0.034618 0.1107771,-0.062312 0.1730893,-0.090006 0.062312,-0.027694 0.1177007,-0.041541 0.1730892,-0.041541 v -0.027694 c 0.09693,-0.055388 0.19386,-0.1038535 0.2769428,-0.1523185 0.090006,-0.041541 0.1730893,-0.076159 0.2561721,-0.1107771 h 0.076159 C 3.6313208,1.9226616 3.6105501,2.1372923 3.5620851,2.3449994 3.5205437,2.5527065 3.451308,2.7534901 3.3751487,2.9542736 L 3.2851423,2.8850379 H 3.2643716 V 2.85042 C 3.1951359,2.8088786 3.1328238,2.7604136 3.0774352,2.7050251 3.0151231,2.6496365 2.9597345,2.6219422 2.8835753,2.6011715 L 2.8697281,2.5527065 C 2.7866453,2.497318 2.7035624,2.4557766 2.6204796,2.4280823 c -0.090006,-0.020771 -0.19386,-0.041541 -0.29079,-0.048465 l -0.027694,-0.090006 0.020771,-0.6369685 c 0,-0.041541 -0.00692,-0.090006 -0.013847,-0.1384714 -0.00692,-0.041541 -0.027694,-0.076159 -0.048465,-0.1107771 L 2.1566004,1.3549289 1.8519633,1.3756996 1.8104219,1.4587824 H 1.775804 L 1.7619569,1.514171 C 1.6442562,1.5487889 1.5334791,1.5972539 1.4365491,1.659566 1.3326955,1.7218781 1.2357656,1.7911138 1.131912,1.8741967 1.034982,1.8534259 0.95189918,1.8118845 0.87573991,1.756496 0.79265706,1.6941838 0.70957422,1.6457188 0.63341495,1.6041774 v -0.034618 h -0.0415414 c 0,0.076159 0.0138471,0.1523185 0.048465,0.2146306 0.0276943,0.055389 0.048465,0.1246243 0.0692357,0.1869364 -0.006924,0.242325 -0.0346179,0.4777264 -0.0623121,0.7062042 -0.0415414,0.2354014 -0.0830828,0.4708028 -0.13154783,0.7062042 l -0.048465,0.013847 -0.0900064,0.1384714 v 0.034618 l 0.21463067,0.2630957 -0.0553886,0.19386 -0.0346178,0.00692 -0.0276943,0.090006 H 0.44647856 L 0.342625,4.2212869 0.26646573,4.3320641 h -0.0346179 l -0.0761593,0.076159 0.0138471,0.09693 v 0.034618 H 0.09337648 l 0.13154783,0.1869364 0.0346179,0.013847 0.0692357,-0.013847 0.048465,0.013847 h 0.0415414 v -0.034618 l 0.12462426,-0.034618 0.09693,-0.1246243 0.0415414,-0.013847 v -0.034618 h 0.0692357 l 0.13847141,-0.1384714 0.0276943,-0.048465 h 0.0346178 l 0.33233132,-0.3115607 0.062312,-0.145395 0.048465,-0.013847 0.1523185,-0.1869364 0.076159,-0.083083 v -0.027694 h 0.034618 L 1.8104219,3.3212228 h 0.041541 l -0.034618,0.6508156 0.013847,0.09693 V 4.124357 H 1.8173454 L 1.775804,4.671319 v 0.020771 h 0.020771 c -0.020771,0.048465 -0.034618,0.09693 -0.041541,0.145395 -0.00692,0.055389 -0.027694,0.1038535 -0.069236,0.1384714 l 0.020771,0.09693 0.1038536,0.048465 v 0.048465 l 0.041541,0.020771 0.013847,0.048465 0.1107772,0.013847 v 0.034618 z M 0.76496278,4.1174334 0.75111564,4.1312805 H 0.71649779 L 0.86189277,3.882032 0.98651703,3.8958791 Z M 1.1457591,3.8058727 1.1249884,3.8127963 H 1.0972942 V 3.5081592 h 0.027694 l 0.048465,-0.09693 h 0.041541 L 1.325772,3.286605 1.3465427,3.2104457 h 0.034618 l 0.1038536,-0.1246243 0.034618,-0.069236 h 0.020771 L 1.8450397,2.6704072 h 0.034618 c 0,0.09693 0,0.19386 -0.00692,0.2838664 -0.00692,0.09693 -0.034618,0.1800128 -0.090006,0.242325 H 1.7481097 L 1.277307,3.6674013 v 0.034618 z M 1.1526827,3.14121 1.1388356,3.1550571 1.1180649,3.14121 1.1942241,2.7604136 h 0.034618 v 0.013847 l 0.1107771,-0.041541 0.048465,0.020771 -0.2215542,0.353102 z M 1.6581033,2.3865408 1.6442562,2.400388 h -0.083083 c 0.013847,-0.069236 0.048465,-0.1315478 0.09693,-0.1869364 0.048465,-0.055389 0.090006,-0.1177007 0.1107772,-0.1730893 h 0.027694 L 1.824269,1.9642031 H 1.872734 V 2.3726937 L 1.7688805,2.3865408 1.6927212,2.3726937 Z M 1.2911541,2.3449994 1.277307,2.3588466 H 1.2357656 L 1.2219184,2.1234452 V 2.0334388 L 1.5196319,1.8811202 v -0.013847 l 0.2007836,-0.090006 h 0.048465 L 1.5196319,2.1303688 h -0.020771 l -0.020771,0.048465 H 1.4296255 Z M 0.72342136,1.4033939 C 1.0903706,1.3133875 1.4365491,1.1818396 1.7688805,1.0087504 2.0942883,0.8425847 2.4335432,0.71103687 2.8004924,0.6348776 L 2.7866453,0.57256547 2.3643075,0.38562907 2.2535304,0.42024692 2.1773711,0.38562907 2.0735175,0.45486478 c -0.062312,0.006924 -0.1107771,0 -0.1592421,-0.0276943 -0.048465,-0.0207707 -0.090006,-0.0553886 -0.1315478,-0.0900064 l -0.062312,0.006924 -0.076159,-0.0207707 -0.29079,0.16616569 -0.034618,0.0692357 -0.1107771,0.0692357 -0.062312,0.0415414 c -0.048465,0.0553886 -0.1107771,0.09693 -0.17308921,0.13154783 -0.0553886,0.0346178 -0.12462426,0.0553886 -0.19385997,0.0623121 l -0.048465,-0.0138471 h -0.048465 v 0.0138471 h -0.0276943 l -0.0138471,0.0553886 c -0.0623121,0 -0.11770069,0 -0.17308925,-0.0138471 -0.0623121,-0.0138471 -0.11077712,-0.0276943 -0.15924212,-0.048465 -0.0346179,0.0207707 -0.0553886,0.0415414 -0.0692357,0.0623121 -0.0138471,0.0276943 -0.0207707,0.0623121 -0.0138471,0.10385352 l -0.0830828,0.020771 0.0138471,0.048465 c 0.10385355,0.020771 0.20770711,0.069236 0.29771352,0.1246243 0.0900064,0.069236 0.18693639,0.1315478 0.27001923,0.1869364 z"
         id="path294" />
      <path
         d="m 11.517254,5.5921538 0.110777,-0.020771 0.0069,-0.034618 0.06231,-0.048465 C 11.634955,5.3013639 11.58649,5.1075039 11.544948,4.913644 11.503407,4.7128604 11.468789,4.5190005 11.448018,4.3251405 V 3.6466306 l -0.02769,-0.2354014 0.02769,-0.3392549 -0.01385,-0.048465 c 0,-0.083083 0.01385,-0.1800128 0.03462,-0.2769428 0.02077,-0.090006 0.03462,-0.1800128 0.04847,-0.2769428 l 0.04154,-0.013847 c 0.02077,-0.2146307 0.04847,-0.4223378 0.07616,-0.6369685 0.03462,-0.2077071 0.06231,-0.4154142 0.09693,-0.6300449 h 0.01385 c -0.02077,-0.076159 -0.03462,-0.1523185 -0.04154,-0.23540137 -0.0069,-0.0761593 -0.02769,-0.15231855 -0.06924,-0.21463068 L 11.496483,0.66257188 V 0.62103046 L 11.31647,0.42717049 c -0.05539,-0.048465 -0.1177,-0.0830828 -0.19386,-0.09693 -0.06923,-0.0138471 -0.131547,-0.0346179 -0.19386,-0.0553886 l -0.263095,0.0346179 v 0.0138471 l 0.131548,0.0553886 c 0.04847,0.048465 0.08308,0.09693 0.103853,0.14539498 0.02077,0.048465 0.03462,0.10385355 0.04154,0.15231854 l -0.01385,0.0623121 0.04846,0.27694285 c -0.02077,0.1592421 -0.04154,0.304637 -0.05539,0.4638792 -0.02077,0.1523185 -0.06231,0.304637 -0.124624,0.450032 v 0.062312 l 0.04847,0.013847 0.06231,0.076159 h 0.03462 v 0.027694 l 0.110777,0.09693 v 0.6854335 c 0.03462,0.2769428 0.06231,0.5608092 0.07616,0.8515991 0.0069,0.2977135 0.02077,0.5885035 0.04154,0.8792934 l -0.01385,0.027694 0.01385,0.027694 c 0,0.041541 0.0069,0.083083 0.01385,0.1177007 0.0069,0.034618 -0.0069,0.069236 -0.04154,0.1038535 l -0.08308,-0.034618 h -0.02077 l -0.03462,0.1661656 0.01385,0.1800129 0.38772,0.3461785 z M 8.5608894,5.4675296 8.6716666,5.4398353 c 0.020771,-0.020771 0.041541,-0.048465 0.048465,-0.083083 0.00692,-0.027694 0.020771,-0.055389 0.020771,-0.090006 l -0.00692,-0.055389 C 8.8239851,4.865179 8.9209151,4.525924 9.0178451,4.1935927 9.1009279,3.8612613 9.2186286,3.5289299 9.3501764,3.2173693 L 9.55096,3.1550571 9.5232657,2.94735 C 9.4332593,2.9127322 9.3432529,2.8850379 9.26017,2.8642672 9.16324,2.85042 9.0732336,2.8296493 8.9970743,2.7950315 c -0.048465,0 -0.09693,0 -0.1453949,0 -0.048465,0 -0.090006,0.020771 -0.1177007,0.062312 L 8.6578194,2.94735 8.3462588,3.0719743 h -0.048465 l 0.2630956,-0.3392549 0.048465,-0.013847 0.076159,-0.1038535 h 0.034618 V 2.5804008 H 8.761673 L 8.9624565,2.3588466 9.1355458,2.303458 9.1493929,2.254993 h 0.048465 V 2.1303688 C 9.16324,2.109598 9.1286222,2.0888273 9.0940043,2.0749802 9.0593865,2.0611331 9.0247686,2.0542095 8.9832272,2.0542095 v -0.027694 l 0.069236,-0.034618 0.013847,-0.048465 h 0.034618 l 0.1107771,-0.090007 0.09693,-0.1038535 0.1177007,-0.048465 0.034618,-0.062312 h 0.027694 v -0.034618 h 0.034618 c 0,-0.034618 0.013847,-0.062312 0.041541,-0.090006 0.020771,-0.020771 0.027694,-0.041541 0.020771,-0.076159 l 0.090006,-0.062312 v -0.034618 l 0.076159,-0.027694 0.1107771,0.013847 0.041541,-0.013847 c 0,-0.048465 0.013847,-0.083083 0.041542,-0.1107771 0.020771,-0.027694 0.048465,-0.055389 0.069235,-0.090006 L 9.9802213,0.95336183 C 9.8625206,0.91182041 9.7378964,0.85643184 9.6132721,0.80104328 9.4886478,0.75257829 9.3571,0.71796044 9.2255522,0.7041133 l -0.1246243,0.0207707 v 0.0276943 L 9.0316922,0.83566113 8.7062844,0.773349 8.4847302,0.80104328 8.4639594,0.83566113 C 8.3947237,0.91182041 8.3185645,0.96720897 8.2354816,1.015674 c -0.076159,0.055389 -0.1730892,0.090006 -0.2769428,0.09693 l -0.090006,0.09693 -0.1107771,0.020771 -0.3738728,-0.041541 -0.083083,0.020771 0.034618,0.1661657 0.1107771,0.048465 c 0.055389,0.027694 0.1107772,0.062312 0.1661657,0.090006 0.055389,0.034618 0.1038536,0.083083 0.145395,0.1384714 l 0.1107771,0.048465 0.2284778,-0.020771 c 0.048465,0 0.083083,0 0.1246243,0 0.041541,0 0.076159,0.013847 0.1107771,0.048465 0.020771,0 0.034618,-0.00692 0.055389,-0.013847 0.013847,-0.00692 0.020771,-0.027694 0.020771,-0.048465 0.076159,-0.00692 0.1592421,-0.027694 0.2423249,-0.055389 0.076159,-0.027694 0.145395,-0.062312 0.2215543,-0.1038536 h 0.027694 C 8.8655265,1.611101 8.8309087,1.7149545 8.7824437,1.7980374 8.7409023,1.8949674 8.6855137,1.9849738 8.6232016,2.0749802 8.5055009,2.1511395 8.3947237,2.2203752 8.2631759,2.2826873 8.1385516,2.3449994 8.0000802,2.3934644 7.8685324,2.4350058 L 7.9862331,2.6704072 C 7.9031503,2.8158022 7.8131439,2.94735 7.6954432,3.0788979 7.584666,3.2104457 7.4738889,3.33507 7.3561882,3.4596942 v 0.076159 c 0.041541,0.048465 0.076159,0.1107771 0.1107771,0.1730892 0.034618,0.062312 0.076159,0.1107772 0.1246243,0.1523186 C 7.7854496,3.7643313 7.972386,3.6466306 8.1662459,3.5220064 8.3462588,3.4112292 8.5401187,3.3142992 8.7409023,3.23814 l 0.069236,0.034618 c 0.00692,0.2769428 -0.00692,0.5538856 -0.041542,0.8169813 C 8.7409023,4.3597583 8.664743,4.6090069 8.5470423,4.8374847 l -0.3115607,0.090006 -0.034618,0.1038535 0.2215542,0.3254078 0.062312,0.083083 h 0.013847 v -0.013847 h 0.048465 z"
         id="path296" />
      <path
         d="m 16.46067,6.0214152 0.06231,-0.034618 c 0.09693,-0.401567 0.145395,-0.8100577 0.152318,-1.239319 0.0069,-0.4154142 0.05539,-0.8308284 0.152319,-1.2323955 0.200783,-0.069236 0.38772,-0.1246243 0.58158,-0.1730893 0.19386,-0.048465 0.38772,-0.090006 0.58158,-0.1246242 v -0.034618 l 0.07616,-0.013847 -0.02769,-0.090006 -0.06231,-0.048465 -0.0069,-0.048465 -0.110777,-0.027694 0.04847,-0.069236 0.02769,-0.048465 c 0.06924,0.00692 0.138471,0 0.200784,-0.027694 0.06231,-0.020771 0.1177,-0.055388 0.159242,-0.09693 l 0.02769,-0.062312 h 0.04847 v -0.020771 h 0.02769 l 0.06231,-0.1107771 h 0.03462 l 0.04847,-0.1246243 c 0.08308,-0.020771 0.173089,-0.041541 0.249249,-0.090006 0.06923,-0.048465 0.152318,-0.069236 0.242325,-0.069236 l 0.103853,0.013847 0.242325,-0.034618 c 0,-0.062312 -0.01385,-0.1177007 -0.04847,-0.1661657 -0.03462,-0.055389 -0.06231,-0.1177007 -0.06923,-0.1800128 l -0.110778,-0.062312 -0.01385,-0.034618 h -0.02769 v -0.034618 h -0.02769 V 1.708031 c -0.159242,-0.076159 -0.304637,-0.1384714 -0.463879,-0.2007836 -0.152319,-0.048465 -0.318485,-0.09693 -0.470803,-0.1315478 -0.145395,0.00692 -0.29079,0.013847 -0.436185,0.020771 -0.138472,0.00692 -0.29079,0.013847 -0.429262,0.034618 L 17.06302,1.417241 c -0.03462,-0.020771 -0.04847,-0.048465 -0.05539,-0.090006 -0.0069,-0.041541 -0.01385,-0.076159 -0.02077,-0.1107771 l 0.01385,-0.055389 C 16.979937,1.0087504 16.96609,0.85643184 16.94532,0.69718973 16.924549,0.54487119 16.86916,0.39947621 16.793001,0.27485195 l -0.06231,-0.0207707 -0.03462,-0.0900064 -0.553886,-0.13154783 -0.124624,0.01384714 0.09001,0.0692357 c 0.04154,0.22847781 0.08308,0.44310849 0.124624,0.66466273 0.03462,0.22155423 0.06924,0.45003203 0.103853,0.68543343 v 0.027694 l -0.207707,-0.076159 -0.180013,0.048465 -0.01385,0.027694 c -0.08308,0.034618 -0.173089,0.069236 -0.263095,0.090006 -0.08308,0.027694 -0.180013,0.048465 -0.276943,0.062312 l -0.06924,-0.020771 -0.214631,0.09693 -0.05539,0.083083 c 0.02077,0.1038535 0.04154,0.2077071 0.06231,0.304637 0.02077,0.1038536 0.06924,0.1869364 0.145395,0.2561721 l 0.04846,0.027694 0.06231,0.076159 c 0.166166,-0.041541 0.332331,-0.090006 0.491574,-0.145395 0.152318,-0.062312 0.31156,-0.1246242 0.470802,-0.1869364 h 0.04154 l 0.02077,0.076159 v 0.8031341 c -0.1177,0.00692 -0.21463,0.027694 -0.318484,0.048465 -0.103853,0.027694 -0.200783,0.055389 -0.304637,0.076159 l -0.09001,0.09693 0.07616,0.3669492 0.110777,0.062312 c 0.06231,-0.020771 0.117701,-0.041541 0.19386,-0.048465 0.06924,-0.00692 0.138472,-0.020771 0.207707,-0.027694 h 0.124624 l 0.07616,1.7793575 -0.01385,0.5885034 z M 15.283663,4.027427 c 0.04154,0.00692 0.08308,0.00692 0.110777,-0.00692 0.03462,-0.013847 0.06231,-0.034618 0.09693,-0.055389 l 0.01385,-0.1523185 h 0.03462 l 0.04154,-0.055389 -0.02769,-0.1246242 -0.03462,-0.013847 c -0.04847,-0.048465 -0.08308,-0.1038535 -0.09693,-0.1730892 -0.02077,-0.062312 -0.04847,-0.1246243 -0.110777,-0.1730893 l -0.04846,-0.055388 -0.04154,-0.1384714 c -0.03462,-0.048465 -0.06924,-0.1038536 -0.117701,-0.1523186 -0.04154,-0.048465 -0.09001,-0.09693 -0.138472,-0.1384714 L 14.854401,2.6288658 C 14.688236,2.5527065 14.515146,2.4765473 14.342057,2.400388 14.175891,2.3311523 13.995879,2.2619166 13.829713,2.1857573 v -0.013847 c 0.01385,0.1107771 0.06231,0.2077071 0.131548,0.2977135 0.07616,0.090006 0.138471,0.1869364 0.186936,0.2907899 l -0.01385,0.076159 c -0.02077,0.083083 -0.0069,0.145395 0.03462,0.2077071 0.03462,0.062312 0.06924,0.1246243 0.110777,0.1800128 l 0.04847,0.027694 0.186936,0.2630957 0.06924,0.027694 v 0.027694 h 0.02769 l 0.03462,0.062312 c 0.0069,0.041541 0.03462,0.062312 0.07616,0.062312 0.04154,0 0.07616,0.013847 0.103853,0.034618 v 0.027694 l 0.09001,0.034618 0.04847,0.048465 c 0.06231,0.013847 0.117701,0.041541 0.159243,0.083083 0.04847,0.041541 0.103853,0.076159 0.159242,0.1038536 z m 1.807052,-1.177007 -0.152319,0.076159 h -0.02769 l -0.02077,-0.041541 0.02077,-0.048465 -0.02077,-0.1246243 0.03462,-0.1038535 -0.03462,-0.2977135 0.02077,-0.1246243 -0.02077,-0.048465 v -0.041541 l 0.04847,-0.027694 V 1.8672731 l 0.110777,-0.076159 c 0.06231,0 0.124624,0.013847 0.180013,0.041541 0.04847,0.034618 0.110777,0.048465 0.173089,0.048465 l 0.09693,-0.013847 0.02769,-0.083083 0.06231,-0.034618 0.04847,0.020771 0.05539,-0.020771 0.166166,0.020771 c 0,0.069236 -0.0069,0.145395 -0.02769,0.2077071 -0.02077,0.069236 -0.04154,0.1315478 -0.06231,0.2077071 -0.07616,0.145395 -0.166165,0.2630957 -0.297713,0.3738728 -0.124624,0.1107771 -0.256172,0.2077071 -0.380796,0.2907899 z"
         id="path298" />
      <path
         d="m 21.944123,4.9205675 h 0.09001 l 0.02769,-0.2423249 0.103854,-0.020771 0.02077,-0.076159 c 0.04847,0 0.07616,-0.020771 0.08308,-0.062312 0.0069,-0.041542 0.03462,-0.062312 0.08308,-0.062312 l 0.02769,-0.09693 h 0.04847 l 0.103854,-0.076159 v -0.020771 h 0.04847 v 0.048465 h 0.200783 c -0.04847,0 -0.08308,0.027694 -0.09001,0.076159 -0.0069,0.048465 -0.01385,0.090006 -0.01385,0.1246243 l -0.152319,0.048465 -0.04154,0.1177007 h -0.04847 v 0.055389 h 0.02077 l -0.145395,0.048465 -0.02077,0.048465 h -0.05539 c -0.01385,-0.145395 -0.04154,-0.2769428 -0.09001,-0.4084906 -0.04847,-0.1246243 -0.09693,-0.242325 -0.131548,-0.3738728 h -0.02077 l -0.02769,0.3877199 v 0.2215543 h 0.04847 l -0.02077,0.09693 0.02077,0.145395 0.103854,0.069236 v 0.055389 h -0.04847 l 0.04847,0.048465 z m 0.394644,0.048465 0.09693,-0.048465 v -0.041541 l 0.117701,-0.020771 0.04847,-0.1038536 0.103853,-0.1453949 -0.297713,0.2907899 v 0.048465 z m 2.949441,-0.020771 h 0.02077 l 0.124625,-0.2907899 h 0.04847 c 0.03462,-0.069236 0.06231,-0.1315479 0.08308,-0.2007836 0.02077,-0.062312 0.03462,-0.1315478 0.03462,-0.1938599 v -0.020771 l -0.04154,-0.027694 0.04154,-0.048465 c 0.04847,-0.048465 0.06924,-0.1107771 0.05539,-0.19386 -0.02077,-0.083083 0.0069,-0.1523185 0.06924,-0.2007835 0.04847,-0.3807964 0.01385,-0.740822 -0.103854,-1.0593063 C 25.495915,2.3934644 25.322826,2.0957509 25.087424,1.8188081 24.955876,1.6803367 24.810481,1.5418653 24.67201,1.4241646 24.519691,1.3133875 24.360449,1.2303046 24.180437,1.1818396 l -0.36695,0.048465 h -0.07616 c -0.02077,-0.034618 -0.03462,-0.069236 -0.04847,-0.1107771 -0.02077,-0.041541 -0.02077,-0.090006 0,-0.13847139 l -0.02769,0.29771349 c -0.263096,0.083083 -0.505421,0.19386 -0.726975,0.339255 -0.221554,0.1453949 -0.429261,0.3115606 -0.643892,0.4915734 -0.09693,0.1038536 -0.173089,0.2007836 -0.221554,0.3184843 -0.04847,0.1177007 -0.09001,0.2354014 -0.124625,0.3738728 v 0.062312 C 22.158754,2.6288658 22.387232,2.3934644 22.63648,2.1649866 22.878805,1.9365088 23.134977,1.7357253 23.41192,1.5764831 l 0.0277,-0.048465 0.180012,-0.1038535 h 0.04154 c 0,0.1038535 0,0.2007835 0,0.2907899 0,0.1038536 -0.0069,0.19386 -0.04154,0.2700193 v 0.076159 h 0.04154 c 0.02077,0.069236 0.01385,0.1315478 -0.0069,0.1800128 -0.02077,0.041541 -0.06231,0.090006 -0.110777,0.1384714 h 0.04847 l -0.02769,0.1523185 v 0.041541 h 0.05539 v 0.048465 h -0.07616 l -0.02769,0.1038536 h -0.04847 v 0.076159 l 0.02077,-0.076159 h 0.05539 v 0.020771 h 0.02077 l 0.05539,-0.1523185 h 0.04154 l 0.02769,-0.2354014 0.04847,-0.1177007 0.07616,-0.076159 v -0.027694 l -0.05539,-0.027694 0.05539,-0.1661656 -0.02769,-0.4431085 0.04846,-0.145395 c 0.159242,-0.013847 0.311561,0.013847 0.450032,0.069236 0.145395,0.069236 0.270019,0.1592421 0.38772,0.2700192 0.173089,0.2007836 0.339255,0.4015671 0.477726,0.6231213 0.145395,0.2284779 0.228478,0.4638792 0.256172,0.7269749 l -0.02077,0.2700192 c 0.02769,0.076159 0.04847,0.1592422 0.04847,0.2492486 0,0.09693 0.0069,0.1800128 0.02077,0.2630956 h 0.0277 l 0.02077,0.09693 c 0.02077,0.19386 0,0.3669492 -0.04847,0.5331149 -0.04847,0.1661657 -0.103853,0.3323314 -0.166165,0.4915735 z m 0.366949,-0.8515991 h -0.07616 l 0.02077,-0.3461785 h 0.05539 z m 0.04154,-0.3254078 -0.02077,0.055388 -0.02077,-0.027694 V 3.6812485 h 0.04154 z m -2.035529,-1.3639433 -0.02077,0.027694 -0.02077,-0.027694 v -0.076159 h 0.04154 z"
         id="path300" />
      <path
         d="m 29.103082,5.4052174 0.166166,-0.027694 c 0.09693,-0.076159 0.173089,-0.1523186 0.235401,-0.2492486 0.04847,-0.09693 0.09693,-0.1869364 0.145395,-0.2907899 0.249249,-0.19386 0.519268,-0.3600257 0.803134,-0.4846499 0.283867,-0.1246243 0.58158,-0.2146307 0.900064,-0.2630957 0.17309,-0.013847 0.339255,-0.00692 0.505421,0.013847 0.173089,0.027694 0.311561,0.09693 0.443108,0.2146307 l -0.04847,0.09693 -0.643892,-0.145395 0.200784,0.145395 -0.02769,0.076159 v 0.020771 l 0.09693,0.027694 0.138471,0.2492485 0.256172,0.1523185 c 0.103854,0.013847 0.186937,0 0.276943,-0.034618 0.09001,-0.034618 0.166166,-0.062312 0.249248,-0.090006 l 0.09693,-0.2284778 C 32.876428,4.4705355 32.855657,4.3736055 32.827963,4.2835991 32.793345,4.1935927 32.737956,4.1035862 32.661797,4.0205034 32.55102,3.8889556 32.419472,3.8058727 32.274077,3.7574077 c -0.159242,-0.041541 -0.31156,-0.069236 -0.463879,-0.083083 -0.360026,0 -0.706204,0.048465 -1.031612,0.1315478 -0.325408,0.090006 -0.636968,0.2215543 -0.941606,0.3807964 h -0.04154 L 29.93391,3.2242928 V 2.1303688 L 29.91314,2.1026745 V 1.8811202 l 0.256172,-0.2007835 0.09693,-0.2146307 h 0.05539 v -0.055389 h 0.04154 l 0.01385,-0.055389 v -0.020771 h -0.05539 v -0.083083 h 0.04154 v -0.013847 l -0.09693,0.069236 v 0.027694 h -0.02077 v 0.020771 h -0.04847 V 1.3341582 L 29.93391,1.4934003 h -0.06924 v 0.013847 h -0.05539 C 29.781592,1.3272346 29.753898,1.1472218 29.726203,0.94643826 29.691585,0.75950186 29.64312,0.57948904 29.580808,0.40639978 h -0.02769 l 0.166166,0.92775842 -0.01385,0.2700192 -0.526192,0.2215543 c -0.145395,0.020771 -0.263095,0.00692 -0.373872,-0.034618 C 28.687668,1.756496 28.583814,1.708031 28.473037,1.659566 v -0.027694 l 0.06231,0.048465 0.0277,0.083083 c 0.09001,0.041542 0.19386,0.09693 0.297713,0.1661657 0.09693,0.069236 0.207707,0.1177007 0.318484,0.145395 l 0.526192,-0.069236 v -0.048465 h 0.06231 l 0.02769,0.4015671 c 0.0069,0.3461785 0.0069,0.692357 -0.02769,1.0246884 -0.03462,0.3392549 -0.103854,0.6577391 -0.214631,0.9554526 l -0.373873,0.2007836 v 0.027694 h -0.09001 l 0.01385,0.09693 c -0.02769,0.083083 -0.04847,0.1661657 -0.06231,0.2492486 -0.02077,0.076159 -0.05539,0.1523185 -0.103854,0.2146306 l 0.07616,0.076159 0.02077,0.145395 0.09693,0.027694 z m 3.247154,-4.1541421 h 0.145395 v -0.041541 c 0.04154,0 0.09001,0.00692 0.138472,0.013847 0.04847,0.00692 0.07616,-0.013847 0.09001,-0.055389 l 0.07616,-0.027694 0.09693,-0.15924209 -0.02769,-0.0623121 c -0.06231,-0.0900064 -0.131548,-0.15231855 -0.207707,-0.19385997 -0.08308,-0.0415414 -0.173089,-0.0830828 -0.263096,-0.11077712 -0.1177,0 -0.228477,0.0138471 -0.332331,0.0346179 -0.117701,0.0276943 -0.228478,0.0553886 -0.332331,0.0830828 l 0.04847,0.11077712 c 0.09001,0.0623121 0.186936,0.1177007 0.283866,0.1661657 0.09001,0.048465 0.186936,0.1107771 0.283866,0.1869364 z"
         id="path302" />
      <path
         d="m 35.417363,5.266746 0.09693,-0.013847 v -0.027694 l 0.07616,-0.013847 v -0.048465 l 0.256173,-0.048465 c -0.01385,-0.020771 -0.03462,-0.041541 -0.05539,-0.055389 -0.02769,-0.013847 -0.04154,-0.034618 -0.04154,-0.069236 l -0.06231,-0.041541 0.04154,-0.09693 V 4.8305611 L 35.6043,4.865179 C 35.43121,4.8305611 35.258121,4.7890197 35.085032,4.7336311 34.911943,4.6851661 34.738853,4.6436247 34.572688,4.6020833 h -0.0277 l 0.07616,0.1869364 0.186936,0.1592421 v 0.020771 l 0.283866,0.19386 h 0.06231 l 0.01385,0.048465 z m 1.343173,0 -0.04154,-0.041541 0.0069,-0.048465 0.08308,0.034618 0.283866,-0.145395 v -0.027694 h 0.01385 l -0.08308,-0.069236 v -0.020771 l -0.05539,-0.020771 -0.01385,-0.048465 C 36.815924,4.8305611 36.684377,4.7820961 36.538982,4.7474783 36.40051,4.7128604 36.248192,4.6851661 36.10972,4.671319 h -0.180013 l 0.02077,0.048465 0.110777,0.083083 v 0.027694 c 0.08308,0.062312 0.159242,0.1177007 0.249249,0.1523186 0.08308,0.048465 0.159242,0.1038535 0.249248,0.1661656 l 0.01385,-0.020771 0.09693,0.034618 z m 1.661657,-0.090006 -0.04847,-0.09693 v -0.062312 l 0.06231,0.048465 c 0.04154,0 0.08308,0.00692 0.117701,0.027694 0.03462,0.020771 0.06923,0.041541 0.103853,0.055389 l 0.04847,-0.020771 v -0.027694 h -0.03462 l -0.03462,-0.062312 v -0.034618 c 0.04847,0.020771 0.09001,0.034618 0.131548,0.034618 0.04847,0 0.09001,0.00692 0.138472,0.013847 h 0.04847 l 0.04847,-0.062312 V 4.9551854 L 38.82376,4.8997968 V 4.865179 h 0.06231 v -0.013847 h -0.01385 V 4.7890197 C 38.789142,4.768249 38.719906,4.7405547 38.643747,4.7059369 38.567588,4.671319 38.484505,4.6505483 38.408346,4.6297776 V 4.6020833 C 38.290645,4.5397712 38.166021,4.4982297 38.041396,4.477459 37.909848,4.4636119 37.785224,4.4359176 37.653676,4.3943762 h -0.04847 l 0.145395,0.2561721 h 0.0277 v 0.020771 l 0.103853,0.1177007 h 0.03462 l 0.08308,0.076159 0.124624,0.034618 0.103854,0.1523186 -0.01385,-0.048465 v -0.034618 l 0.145395,0.1107771 z m 0.685433,-0.2769428 c 0.09693,-0.034618 0.19386,-0.069236 0.283866,-0.1038535 0.09001,-0.034618 0.186937,-0.069236 0.276943,-0.090006 0.06231,-0.00692 0.124625,0.00692 0.17309,0.048465 0.04847,0.041542 0.09001,0.076159 0.138471,0.09693 h 0.04847 v -0.048465 l 0.06231,0.027694 h 0.03462 v -0.027694 h 0.03462 V 4.768249 l 0.180013,0.034618 0.1177,-0.013847 -0.03462,-0.069236 -0.04847,-0.013847 -0.01385,-0.041542 C 40.20155,4.5466947 40.035385,4.4566883 39.869219,4.3874526 39.69613,4.3251405 39.509193,4.2766755 39.315333,4.2559048 l -0.08308,0.013847 -0.01385,-0.013847 -0.394643,0.062312 c 0.09693,0.013847 0.19386,0.027694 0.283866,0.048465 0.09693,0.013847 0.186937,0.041541 0.263096,0.076159 -0.02077,0.083083 -0.04847,0.1592421 -0.09693,0.2284778 -0.04847,0.076159 -0.103854,0.145395 -0.166166,0.2077071 z M 36.462822,3.8751084 c 0.180013,-0.027694 0.346179,-0.069236 0.505421,-0.1315478 0.152318,-0.062312 0.318484,-0.1246243 0.48465,-0.1800128 l 0.06231,0.020771 0.235401,-0.076159 0.04847,0.00692 0.180013,0.2561721 0.145395,-0.048465 0.07616,0.034618 0.07616,-0.034618 c 0.07616,-0.2215543 0.145395,-0.4569556 0.200783,-0.6854335 0.06231,-0.2284778 0.138472,-0.4569556 0.228478,-0.6854334 h 0.02769 l 0.01385,-0.048465 0.06231,-0.034618 v -0.027694 l 0.04847,-0.020771 c 0.02077,-0.027694 0.03462,-0.055389 0.04847,-0.090006 0.0069,-0.034618 0.02077,-0.055389 0.02769,-0.090006 l 0.06924,-0.020771 0.02769,-0.1730892 h 0.05539 L 39.03839,1.756496 c -0.01385,-0.00692 -0.02769,-0.027694 -0.04154,-0.048465 -0.02077,-0.020771 -0.04154,-0.020771 -0.07616,-0.013847 l -0.03462,-0.083083 c -0.09001,-0.062312 -0.180013,-0.1107771 -0.276943,-0.1384714 -0.09693,-0.027694 -0.19386,-0.048465 -0.311561,-0.062312 l -0.470802,0.083083 c -0.103854,0 -0.200784,-0.027694 -0.27002,-0.083083 -0.08308,-0.048465 -0.173089,-0.076159 -0.256172,-0.076159 v -0.048465 l 0.06924,-0.034618 0.01385,-0.027694 c 0.110777,-0.013847 0.207707,-0.048465 0.29079,-0.09693 0.08308,-0.041541 0.180013,-0.069236 0.276943,-0.076159 l 0.01385,-0.048465 0.09693,-0.0138471 v -0.0346179 l 0.103854,-0.0276943 v -0.0138471 l 0.06231,-0.0276943 v -0.0346179 l -0.06924,-0.0830828 c -0.131548,-0.0415414 -0.249249,-0.09693 -0.360026,-0.15231854 -0.1177,-0.0623121 -0.242325,-0.10385355 -0.380796,-0.11077712 l -0.06231,0.0138471 -0.138472,-0.0138471 -0.01385,-0.0276943 C 37.072096,0.39947621 36.947472,0.33716408 36.815924,0.28177552 36.6913,0.23331053 36.552829,0.17792197 36.421281,0.12945698 h -0.01385 l 0.01385,0.0761593 v 0.048465 C 36.282809,0.48255906 36.151262,0.71103687 36.019714,0.93951469 35.888166,1.1749161 35.735847,1.3895467 35.562758,1.5834067 l 0.186937,-0.090006 0.21463,-0.2284778 0.235402,-0.1315478 0.02769,-0.048465 0.03462,-0.048465 h 0.03462 v -0.034618 h 0.02769 l 0.02077,-0.048465 c 0.110777,-0.0415414 0.228477,-0.0900064 0.353102,-0.13847141 0.110777,-0.0415414 0.235401,-0.0900064 0.346178,-0.1384714 l 0.06231,0.0276943 C 36.98209,0.92566755 36.864389,1.1472218 36.760536,1.368776 36.663606,1.5903303 36.538982,1.804961 36.407434,2.0195916 v 0.034618 l 0.05539,-0.034618 0.04847,-0.090006 0.04847,-0.020771 h 0.03462 l 0.07616,0.2354014 0.04847,0.013847 v 0.048465 h 0.0277 v 0.034618 l 0.04846,0.048465 0.04847,0.013847 0.06231,-0.013847 c 0.03462,0 0.06231,0 0.09001,0 0.02077,0 0.03462,0.013847 0.04847,0.048465 l -0.02077,0.1800128 c -0.131548,0.062312 -0.27002,0.1315478 -0.401568,0.1869364 -0.138471,0.062312 -0.270019,0.1315478 -0.40849,0.2077071 h -0.04847 L 36.075102,2.7396429 C 35.936631,2.6634837 35.805083,2.6080951 35.659688,2.545783 35.521217,2.4834708 35.382745,2.4211587 35.251198,2.351923 h -0.04847 l 0.360025,0.3184842 c 0.05539,0.076159 0.103854,0.1592421 0.138472,0.2354014 0.03462,0.069236 0.04847,0.1592421 0.04847,0.2561721 l 0.07616,0.062312 0.07616,0.1384714 0.221554,0.1730893 0.138472,-0.020771 v -0.020771 l 0.110777,0.020771 v 0.034618 l -0.04847,0.034618 0.02077,0.1592421 z m 0.06231,-0.4292613 -0.01385,0.013847 -0.07616,-0.013847 c -0.02769,-0.055389 -0.04847,-0.1177007 -0.06231,-0.1800128 -0.02077,-0.055389 -0.04847,-0.1177007 -0.09693,-0.1661657 l 0.02077,-0.048465 C 36.40051,2.995815 36.511287,2.94735 36.635912,2.9127322 36.746689,2.8711908 36.864389,2.8296493 36.98209,2.7881079 h 0.04154 c 0.02077,0.083083 0.0069,0.145395 -0.04847,0.1869364 -0.06231,0.048465 -0.103854,0.1107771 -0.131548,0.1730893 h -0.03462 l -0.263096,0.2630956 z m 0.567733,-0.062312 -0.235401,0.090006 h -0.06231 v -0.048465 l 0.07616,-0.013847 V 3.383535 l 0.131548,-0.083083 h 0.05539 l 0.04846,0.062312 z m 0.512344,-0.069236 h -0.186936 l 0.06231,-0.2146306 -0.01385,-0.083083 0.06231,-0.1523185 c 0.08308,-0.062312 0.173089,-0.1177007 0.270019,-0.1592421 0.08308,-0.041541 0.17309,-0.090006 0.249249,-0.1661657 l -0.04847,-0.048465 v -0.034618 c -0.07616,-0.020771 -0.152319,-0.048465 -0.228478,-0.069236 -0.07616,-0.020771 -0.166166,-0.020771 -0.256172,-0.00692 l -0.04847,-0.062312 v -0.076159 l 0.04847,-0.034618 v -0.027694 c 0.09001,-0.055389 0.180013,-0.1107771 0.270019,-0.1869364 0.08308,-0.076159 0.173089,-0.1246242 0.276943,-0.1592421 h 0.103854 c 0,0.2492486 -0.01385,0.4915735 -0.04847,0.7269749 -0.03462,0.2354014 -0.08308,0.4638792 -0.138472,0.692357 l -0.06231,0.013847 h -0.09001 v -0.013847 l -0.207707,-0.055388 -0.09001,-0.1315479 h -0.01385 l 0.06231,0.2007836 h 0.02769 z"
         id="path304" />
    </g>
  </g>
</svg>
