<?xml version="1.0" encoding="UTF-8" standalone="no"?>
<!-- Created with Inkscape (http://www.inkscape.org/) -->

<svg
   width="35.000999mm"
   height="7mm"
   viewBox="0 0 35.000998 7"
   version="1.1"
   id="svg5"
   inkscape:version="1.2.2 (b0a8486, 2022-12-01)"
   sodipodi:docname="topMyPageLOGO.svg"
   xmlns:inkscape="http://www.inkscape.org/namespaces/inkscape"
   xmlns:sodipodi="http://sodipodi.sourceforge.net/DTD/sodipodi-0.dtd"
   xmlns="http://www.w3.org/2000/svg"
   xmlns:svg="http://www.w3.org/2000/svg">
  <sodipodi:namedview
     id="namedview7"
     pagecolor="#ffffff"
     bordercolor="#000000"
     borderopacity="0.25"
     inkscape:showpageshadow="2"
     inkscape:pageopacity="0.0"
     inkscape:pagecheckerboard="0"
     inkscape:deskcolor="#d1d1d1"
     inkscape:document-units="mm"
     showgrid="false"
     inkscape:zoom="4.7488465"
     inkscape:cx="68.753538"
     inkscape:cy="18.425527"
     inkscape:window-width="1440"
     inkscape:window-height="771"
     inkscape:window-x="1080"
     inkscape:window-y="1616"
     inkscape:window-maximized="0"
     inkscape:current-layer="layer1" />
  <defs
     id="defs2">
    <rect
       x="-1.8951972"
       y="4.0009718"
       width="213.31496"
       height="77.703079"
       id="rect268" />
  </defs>
  <g
     inkscape:label="Layer 1"
     inkscape:groupmode="layer"
     id="layer1">
    <path
       style="fill:none;fill-rule:evenodd;stroke:#000000;stroke-width:0.21864px;stroke-linecap:butt;stroke-linejoin:miter;stroke-opacity:1"
       d="m 4.4186655,7.736698 v 0"
       id="path208"
       inkscape:connector-type="polyline"
       inkscape:connector-curvature="0" />
    <text
       xml:space="preserve"
       style="font-size:8.85995px;font-family:KouzanBrushFontGyousyoOTF;-inkscape-font-specification:KouzanBrushFontGyousyoOTF;fill:#000000;stroke-width:0.166124"
       x="-1.3619121"
       y="8.4681635"
       id="text214"
       transform="scale(0.67763293,1.4757252)"><tspan
         sodipodi:role="line"
         id="tspan212"
         style="stroke-width:0.166124"
         x="-1.3619121"
         y="8.4681635" /></text>
    <text
       xml:space="preserve"
       transform="scale(0.26458333)"
       id="text266"
       style="font-size:53.3333px;font-family:KouzanBrushFontGyousyoOTF;-inkscape-font-specification:KouzanBrushFontGyousyoOTF;white-space:pre;shape-inside:url(#rect268);display:inline;fill:#000000" />
    <g
       aria-label="マイページ"
       transform="scale(0.87331348,1.1450642)"
       id="text932"
       style="font-size:8.62712px;font-family:KouzanBrushFontGyousyoOTF;-inkscape-font-specification:KouzanBrushFontGyousyoOTF;stroke-width:0.161759">
      <path
         d="M 3.7522498,5.0029128 4.20086,4.873506 4.0714532,4.5888111 C 3.6746057,4.1574551 3.2173684,3.864133 2.7083683,3.7088448 2.1907411,3.5535566 1.6731139,3.4155227 1.1554867,3.2861159 H 1.0088256 v 0.017254 c 0.1984238,0.1984237 0.4054747,0.3537119 0.6556612,0.5003729 0.2415593,0.138034 0.4744916,0.2588136 0.7160509,0.3623391 L 2.7860124,4.4680314 C 2.9326734,4.5888111 3.0879616,4.6923365 3.2432497,4.7958619 3.407165,4.9080145 3.5710803,4.9770315 3.7522498,5.0029128 Z M 2.6738598,3.4586583 3.0275717,3.36376 3.1742328,3.1998447 3.4244192,3.1394549 C 3.6746057,3.0445566 3.8730295,2.8806413 4.0283176,2.6563362 4.1749787,2.432031 4.3647753,2.2681158 4.6063347,2.1732174 V 2.1214547 L 5.0204365,2.0093022 5.0549449,1.8885225 5.1843517,1.8367598 5.1498433,1.6900987 5.0549449,1.6124546 C 4.8824025,1.491675 4.6926059,1.3967766 4.5114364,1.3105054 4.3130126,1.2242342 4.123216,1.137963 3.9247922,1.060319 h -0.034509 v 0.094898 C 3.3640294,1.3105054 2.8205208,1.4312851 2.2942665,1.5348106 1.750758,1.638336 1.2158765,1.7591157 0.67236796,1.8885225 L 0.37904588,1.8367598 0.171995,1.9144038 0.14611364,2.0351835 h -0.0862712 l 0.0862712,0.06039 v 0.077644 l 0.11215256,0.1207797 0.0517627,0.025881 0.069017,0.1121525 h 0.0603898 v 0.051763 L 0.58609676,2.570065 C 1.0260799,2.4406582 1.466063,2.3112514 1.9060461,2.1818446 2.3374021,2.069692 2.7773852,1.9575394 3.2432497,1.8626411 h 0.086271 C 3.2259955,2.1128276 3.1310972,2.354387 3.0361988,2.5959463 2.9326734,2.8375057 2.8118937,3.079065 2.6738598,3.3033702 H 2.61347 l -0.034508,0.06039 h 0.1639153 l -0.069017,0.06039 z"
         id="path294" />
      <path
         d="m 11.982506,6.1330655 0.0949,-0.034508 c 0.01726,-0.2501865 0.0086,-0.500373 -0.01725,-0.7419324 -0.03451,-0.2501864 -0.06902,-0.4917458 -0.103525,-0.724678 l 0.02588,-0.086271 -0.02588,-0.2070509 0.05176,-0.6901696 -0.02588,-0.1725424 0.06039,-0.3795933 c -0.02588,-0.077644 -0.03451,-0.1639153 -0.03451,-0.2588136 0,-0.094898 -0.02588,-0.1811695 -0.07764,-0.2415594 l -0.241559,0.034508 h -0.12078 c 0.198424,-0.3105763 0.414102,-0.5952713 0.655661,-0.8713391 0.24156,-0.2760679 0.405475,-0.5780171 0.517628,-0.92310186 0,-0.0603898 0,-0.1294068 0,-0.18979664 0,-0.069017 -0.02588,-0.1294068 -0.06902,-0.18979664 l -0.388221,-0.0862712 -0.181169,-0.3019492 -0.0949,0.3019492 -0.181169,0.1725424 0.03451,0.1725424 C 11.801337,1.060319 11.67193,1.3881495 11.473506,1.6728445 11.283709,1.9661666 11.093913,2.2508615 10.929997,2.5441836 h -0.05176 L 9.1183022,5.0115399 v 0.034509 C 9.5151498,4.8476247 9.8429803,4.5801839 10.110421,4.2437263 10.377862,3.9072686 10.679811,3.579438 10.990387,3.2688617 l 0.215678,-0.3192035 0.08627,0.034508 c 0.06039,0.1552882 0.146662,0.2933221 0.258814,0.431356 0.112153,0.1380339 0.155288,0.3019492 0.138034,0.4917459 0,0.2501865 0,0.5003729 0,0.7591865 0,0.2674408 -0.04314,0.5090001 -0.12078,0.716051 0,0.1207797 0.02588,0.2243051 0.07764,0.3192034 0.04314,0.086271 0.08627,0.1897967 0.12078,0.284695 z"
         id="path296" />
      <path
         d="m 22.749136,4.5801839 0.112152,-0.025881 0.0949,-0.1897967 c 0,-0.094898 -0.03451,-0.1897966 -0.0949,-0.2846949 C 22.783644,3.9935398 22.714627,3.9158957 22.654237,3.8296245 22.07622,3.5017939 21.515457,3.1308278 20.971949,2.716726 20.419813,2.3026242 19.85905,1.9575394 19.263779,1.6814716 18.763406,1.6987258 18.323423,1.854014 17.94383,2.1645903 17.564237,2.4751666 17.141508,2.6822175 16.675643,2.7684887 l -0.06039,0.1121526 v 0.034508 h 0.02588 l 0.0949,0.215678 v 0.06039 h -0.02588 l 0.112152,0.025881 0.18117,0.215678 0.345085,-0.025881 0.586644,-0.431356 c 0.163915,-0.1552882 0.32783,-0.3192034 0.509,-0.4744916 0.172542,-0.146661 0.353712,-0.2760678 0.526254,-0.3795933 h 0.224305 c 0.509,0.3105763 1.018,0.647034 1.501119,1.0093731 0.474492,0.362339 0.966238,0.7074238 1.466611,1.0266273 l 0.215678,0.1207796 0.02588,0.086271 z M 21.843288,1.923031 V 1.854014 h 0.06902 l -0.08627,-0.2070509 c 0.03451,-0.06039 0.103525,-0.1035254 0.198424,-0.1121525 0.0949,-0.00863 0.163915,-0.043136 0.224305,-0.1035255 l 0.06039,-0.215678 c -0.01725,-0.06039 -0.03451,-0.1207797 -0.04314,-0.1897966 -0.0086,-0.0776441 -0.05176,-0.13803394 -0.103525,-0.19842378 l -0.224306,-0.1294068 c -0.155288,-0.0172542 -0.301949,-0.0172542 -0.431356,0.0258814 -0.120779,0.0431356 -0.258813,0.0776441 -0.396847,0.10352544 v 0.0603898 h -0.06039 c -0.02588,0.15528814 -0.0086,0.31057634 0.04314,0.43998314 0.04314,0.1294068 0.112152,0.2588136 0.198423,0.3795933 0.08627,0.077644 0.18117,0.1380339 0.267441,0.1639152 0.0949,0.034509 0.189797,0.051763 0.284695,0.051763 z m -0.01725,-0.4658645 -0.06902,0.069017 -0.405475,-0.094898 0.03451,-0.215678 -0.129407,-0.30194918 0.03451,-0.0862712 c 0.08627,0.0172542 0.18117,0.0345085 0.267441,0.0431356 0.0949,0.008627 0.18117,0.0345085 0.267441,0.0776441 l -0.03451,0.4831187 z"
         id="path298" />
      <path
         d="m 26.527798,3.2343532 c 0.560763,-0.1035254 1.121526,-0.1984238 1.690916,-0.2674407 0.560762,-0.069017 1.130152,-0.1294068 1.708169,-0.1639153 0.284695,0 0.56939,0.00863 0.854085,0.017254 0.276068,0.00863 0.517627,0.086271 0.75056,0.2501865 l 0.0949,-0.034508 0.129407,-0.3278305 0.163915,-0.034508 -0.02588,-0.1035254 C 31.781714,2.501048 31.669562,2.4492853 31.557409,2.4061497 31.453884,2.3630141 31.324477,2.3285056 31.186443,2.3026242 30.5049,2.3716412 29.806104,2.432031 29.09868,2.4837938 28.382629,2.5441836 27.683832,2.6045734 26.993662,2.6735904 26.734849,2.6994718 26.49329,2.6390819 26.277612,2.501048 26.070561,2.3716412 25.837628,2.2939971 25.596069,2.2681158 l 0.595271,0.6987967 z"
         id="path300" />
      <path
         d="m 35.448224,5.8915062 0.310576,-0.1380339 0.03451,-0.069017 0.0949,-0.034508 0.224305,-0.2674407 h 0.06039 l 0.02588,-0.069017 0.388221,-0.2415593 0.793695,-0.6211527 0.422729,-0.5176272 h 0.06039 C 38.088123,3.7088448 38.303801,3.4672854 38.48497,3.217099 38.66614,2.9755396 38.786919,2.716726 38.847309,2.432031 h 0.06039 l 0.04314,-0.086271 v -0.051763 h -0.04314 v 0.034509 h -0.06039 v -0.034509 l -0.319203,0.3882204 h -0.06902 v 0.06039 l -0.370966,0.3364576 -0.06039,0.1035255 c -0.379593,0.2760678 -0.75056,0.5607628 -1.112899,0.862712 -0.362339,0.3019492 -0.767813,0.5090001 -1.216424,0.5952713 l -0.163915,0.2674407 -0.12078,0.051763 v 0.051763 l -0.543508,0.2070509 0.12078,0.284695 c 0.04314,0.077644 0.112152,0.1552881 0.189796,0.2070509 0.08627,0.069017 0.172543,0.1294068 0.267441,0.1811695 z m 0.56939,-2.3983394 0.155288,-0.1207797 0.06039,-0.1207797 c 0,-0.1294068 -0.0086,-0.2674407 -0.02588,-0.4054746 -0.02588,-0.1207797 -0.05176,-0.2501865 -0.0949,-0.362339 C 35.965851,2.432031 35.81919,2.3716412 35.672529,2.3285056 35.517241,2.28537 35.37058,2.2336073 35.206665,2.1732174 h -0.112153 c 0.03451,0.077644 0.06902,0.1639153 0.07764,0.2501865 0.0086,0.077644 0.03451,0.1466611 0.07764,0.2070509 l 0.06039,0.025881 z m 0.276068,-1.4234748 0.06902,-0.146661 0.129406,-0.06039 0.215678,-0.2846949 -0.02588,-0.1466611 C 36.535241,1.3191326 36.362699,1.2242342 36.190156,1.1638444 36.008987,1.1034546 35.827817,1.0430647 35.629393,0.98267488 h -0.06902 v 0.0862712 h -0.112152 v 0.017254 h -0.06902 L 35.914088,1.491675 Z M 39.011224,1.2932512 39.201021,1.1465902 39.045733,0.775624 38.493597,0.61170872 h -0.06039 l 0.189797,0.43135598 z m 0.854085,-0.2501865 h 0.103526 l 0.02588,-0.12077966 h 0.06902 l 0.04314,-0.0517627 -0.112153,-0.23293224 C 39.908445,0.55131888 39.80492,0.49092904 39.701394,0.45642056 39.580614,0.4305392 39.459835,0.3874036 39.356309,0.344268 h -0.0949 l 0.258814,0.46586448 c 0.04313,0.0603898 0.103525,0.0948983 0.181169,0.11215256 0.07764,0.0172542 0.12078,0.0603898 0.163915,0.12077966 z"
         id="path302" />
    </g>
  </g>
</svg>
