<?xml version="1.0" encoding="UTF-8" standalone="no"?>
<!-- Created with Inkscape (http://www.inkscape.org/) -->

<svg
   width="30mm"
   height="7mm"
   viewBox="0 0 30 7"
   version="1.1"
   id="svg5"
   inkscape:version="1.2.2 (b0a8486, 2022-12-01)"
   sodipodi:docname="topMemberIndexLOGO.svg"
   xmlns:inkscape="http://www.inkscape.org/namespaces/inkscape"
   xmlns:sodipodi="http://sodipodi.sourceforge.net/DTD/sodipodi-0.dtd"
   xmlns="http://www.w3.org/2000/svg"
   xmlns:svg="http://www.w3.org/2000/svg">
  <sodipodi:namedview
     id="namedview7"
     pagecolor="#ffffff"
     bordercolor="#000000"
     borderopacity="0.25"
     inkscape:showpageshadow="2"
     inkscape:pageopacity="0.0"
     inkscape:pagecheckerboard="0"
     inkscape:deskcolor="#d1d1d1"
     inkscape:document-units="mm"
     showgrid="false"
     inkscape:zoom="4.7488465"
     inkscape:cx="72.333355"
     inkscape:cy="23.900541"
     inkscape:window-width="1440"
     inkscape:window-height="771"
     inkscape:window-x="1080"
     inkscape:window-y="1616"
     inkscape:window-maximized="0"
     inkscape:current-layer="layer1" />
  <defs
     id="defs2">
    <rect
       x="-1.8951972"
       y="4.0009718"
       width="213.31496"
       height="77.703079"
       id="rect268" />
  </defs>
  <g
     inkscape:label="Layer 1"
     inkscape:groupmode="layer"
     id="layer1">
    <path
       style="color:#000000;fill:#000000;fill-rule:evenodd;-inkscape-stroke:none"
       d="m 4.4179687,7.6269531 v 0.21875 z"
       id="path208" />
    <text
       xml:space="preserve"
       transform="scale(0.26458333)"
       id="text266"
       style="font-size:53.3333px;font-family:KouzanBrushFontGyousyoOTF;-inkscape-font-specification:KouzanBrushFontGyousyoOTF;white-space:pre;shape-inside:url(#rect268);display:inline;fill:#000000" />
    <g
       aria-label="ユーザ一覧"
       transform="matrix(0.79994246,0,0,1.0728482,0.00319778,0)"
       id="text351"
       style="font-size:8.00712px;font-family:KouzanBrushFontGyousyoOTF;-inkscape-font-specification:KouzanBrushFontGyousyoOTF;fill:#241c1c;stroke-width:0.46195">
      <path
         d="M 0.6807809,5.2587744 C 1.01708,5.1386676 1.3613861,5.0505893 1.7217065,4.9865323 2.0740198,4.9224753 2.4263331,4.8424041 2.7786464,4.7543258 3.1389668,4.7863548 3.4992872,4.8424038 3.8516005,4.898454 4.2039138,4.962511 4.5482199,5.034575 4.8925261,5.1066391 l 0.400356,-0.080071 V 4.9865323 H 5.2768679 V 4.8504113 H 5.2448394 V 4.7783472 C 5.0766899,4.7142902 4.8925261,4.6582404 4.7083623,4.6182048 4.5161914,4.5781692 4.3320277,4.5301264 4.1318497,4.4820837 v -0.024021 l -0.1601424,0.024021 v 0.032029 c -0.200178,0 -0.4083631,-0.016014 -0.600534,-0.05605 C 3.1629881,4.4260339 2.9628101,4.4180268 2.7626321,4.4420481 V 4.3940054 L 2.9387888,4.2899128 C 3.0909241,4.1057491 3.2030237,3.9135782 3.2991092,3.7214073 3.3951946,3.5212293 3.4592516,3.3210513 3.483273,3.1048591 L 3.6113869,3.032795 C 3.6754439,2.984752 3.7395008,2.936709 3.7955506,2.8806597 3.8435936,2.8246097 3.9076503,2.8005887 3.9877215,2.8005887 L 3.9717073,2.632439 3.8916361,2.6164247 V 2.5523678 L 3.2030237,2.2400901 V 2.1920474 L 3.154981,2.1520118 H 3.114945 v 0.088078 H 2.9868315 v -0.024021 c -0.1201068,0.05605 -0.2482207,0.096086 -0.3843418,0.1281139 -0.1441281,0.032029 -0.272242,0.05605 -0.400356,0.080071 C 2.0980412,2.3922254 1.9859415,2.368204 1.8738418,2.3601969 1.7617421,2.3521898 1.6496424,2.3361755 1.5375428,2.3201613 h -0.072064 v 0.1040926 l -0.096086,-0.032029 h -0.064057 l 0.064057,0.1201068 0.3843418,0.3202848 0.1441282,0.096085 0.6806052,-0.1921709 0.080071,0.024021 0.048043,0.1281139 0.05605,0.016014 0.040036,0.272242 c 0,0.1521353 -0.00801,0.2882564 -0.016014,0.4403917 C 2.7706393,3.76945 2.7466179,3.9055711 2.7065823,4.0416921 L 2.5784684,4.1617989 v 0.1521353 l 0.1040925,0.080071 v 0.048043 L 1.3934146,4.6262119 1.1291796,4.6101976 0.81690195,4.6262119 0.6807809,4.6101976 0.53665274,4.6262119 0.48861002,4.7303044 0.35248898,4.6822617 h -0.0240214 v 0.048043 l -0.0800712,0.024021 -0.1201068,-0.024021 h -0.0160142 v 0.048043 H 0.04021129 l 0.04804272,0.032029 v 0.016014 H 0.02419705 l 0.20017801,0.200178 c 0.0880783,0.05605 0.17615664,0.080071 0.25622784,0.080071 0.0880783,0.00801 0.15213528,0.064057 0.200178,0.1521347 z"
         id="path407" />
      <path
         d="m 8.8240068,3.4731866 c 0.5204628,-0.096086 1.0409256,-0.1841638 1.5693952,-0.2482207 0.520463,-0.064057 1.048933,-0.1201068 1.58541,-0.1521353 0.264235,0 0.52847,0.00801 0.792705,0.016014 0.256228,0.00801 0.480427,0.080071 0.696619,0.2322065 l 0.08808,-0.032029 0.120107,-0.3042705 0.152135,-0.032029 -0.02402,-0.096085 C 13.700343,2.7925814 13.59625,2.7445387 13.492158,2.7045031 13.396072,2.6644675 13.275966,2.632439 13.147852,2.6084176 12.515289,2.6724746 11.866712,2.7285244 11.210129,2.7765671 10.545538,2.832617 9.8969609,2.8886668 9.2563913,2.9527238 9.0161777,2.9767451 8.7919783,2.9206953 8.5918003,2.7925814 8.3996295,2.6724746 8.1834372,2.6004105 7.9592378,2.5763891 l 0.5524913,0.6485768 z"
         id="path409" />
      <path
         d="M 18.456557,6.1315505 18.712785,6.0274579 C 19.105134,5.4829737 19.361362,4.9064611 19.489476,4.2738986 19.61759,3.6413361 19.721682,3.0087736 19.801753,2.368204 l 0.840748,0.016014 H 20.8667 V 2.368204 l 0.216192,-0.05605 V 2.232083 h 0.06406 v -0.05605 h 0.08007 C 21.050864,2.0959619 20.858693,2.031905 20.658515,2.0078836 20.458337,1.9838622 20.266166,1.9278124 20.09001,1.8397341 l -0.264235,0.080071 h -0.05605 c 0,-0.1120997 -0.008,-0.2161923 -0.01601,-0.3202848 -0.008,-0.1040926 -0.04804,-0.200178 -0.104093,-0.2882563 l -0.552495,-0.208185 -0.03203,0.1040926 h -0.06406 v 0.05605 h 0.03203 l 0.03203,0.4483988 h 0.03203 l -0.03203,0.1281139 0.03203,0.080071 -0.03203,0.1040925 -1.024911,0.1521353 H 17.896059 L 17.751931,1.967848 C 17.607802,1.8957839 17.471681,1.8397341 17.33556,1.7836842 17.199439,1.7356415 17.079332,1.6555703 16.959226,1.5434706 h -0.03203 c 0.02402,0.1441282 0.04804,0.2722421 0.08007,0.4083632 0.03203,0.136121 0.06406,0.2642349 0.09609,0.3843417 0.02402,0.05605 0.01601,0.088078 -0.02402,0.1040926 -0.04003,0.016014 -0.08007,0.032029 -0.120106,0.048043 l -0.15214,-0.024022 c -0.128114,0.016014 -0.264235,0.048043 -0.384341,0.088078 -0.136121,0.048043 -0.264235,0.072064 -0.392349,0.072064 l 0.376334,0.2562278 0.08007,0.1921709 0.06406,0.024021 c 0.120107,-0.016014 0.232207,-0.040036 0.344307,-0.064057 0.120106,-0.024021 0.224199,-0.064057 0.320284,-0.1201068 h 0.06406 l 0.256228,0.9688615 h 0.06406 L 17.687874,3.76945 c 0.08007,-0.096085 0.128113,-0.2161922 0.160142,-0.3443061 0.03203,-0.1361211 0.06406,-0.264235 0.104093,-0.3763347 h 0.05605 V 2.9367095 h 0.03203 l -0.03203,-0.080071 0.03203,-0.2322064 c 0.128114,-0.040036 0.272242,-0.080071 0.41637,-0.1361211 0.128114,-0.048043 0.280249,-0.072064 0.432385,-0.072064 h 0.208185 c 0.01601,0.6485768 -0.01601,1.2811393 -0.104093,1.8976875 -0.08808,0.6165483 -0.264235,1.2170823 -0.536477,1.7935949 z m 2.250001,-4.7081867 0.1121,-0.05605 L 20.930757,1.2071716 20.818658,0.95094375 20.410294,0.8148227 h -0.08808 l 0.05605,0.13612105 v 0.0480427 h -0.02402 L 20.706557,1.3993425 Z M 21.315099,1.0550363 V 0.9749651 h 0.08808 L 21.467234,0.83884406 21.435206,0.71073014 20.898729,0.4945379 h -0.04804 l 0.1121,0.28825632 h 0.05605 l 0.06406,0.16814953 z"
         id="path411" />
      <path
         d="m 23.973448,3.7294144 c 0.464413,-0.1681495 0.936833,-0.2962634 1.425267,-0.4083631 0.47242,-0.1120997 0.952847,-0.2161922 1.425267,-0.3122777 l 0.1121,0.016014 0.08007,-0.016014 0.184164,0.016014 0.07206,-0.016014 c 0.304271,0.00801 0.616548,0.032029 0.920819,0.072064 0.30427,0.032029 0.600534,0.080071 0.88879,0.1521353 h 0.05605 v -0.080071 l 0.04804,0.016014 0.176156,-0.040036 0.352314,0.064057 h 0.05605 L 29.874687,3.0888443 29.97878,2.7205168 h 0.01601 L 29.91472,2.6484528 V 2.5603749 C 29.618467,2.4402681 29.30619,2.3361755 28.977898,2.2561043 28.641599,2.1840402 28.321314,2.0959619 28.017043,1.9758551 h -0.176156 c 0,0.040036 -0.008,0.072064 -0.02402,0.080071 -0.02402,0.00801 -0.05605,0.00801 -0.09608,-0.00801 l -0.09609,0.1120997 -0.984875,0.096085 c -0.160143,0 -0.312278,-0.024021 -0.464413,-0.072064 -0.144129,-0.040036 -0.288257,-0.096085 -0.408363,-0.1841637 v -0.040036 l -0.09609,-0.040036 -0.01601,-0.064057 c -0.05605,-0.016014 -0.08808,-0.00801 -0.1121,0.016014 -0.02402,0.032028 -0.05605,0.064057 -0.08808,0.088078 l -0.288257,0.2642349 -0.03203,0.05605 -0.720641,0.3042706 -0.09608,-0.024021 c -0.104093,0.05605 -0.208185,0.096085 -0.328292,0.1120997 -0.120107,0.016014 -0.232207,0.032029 -0.344306,0.048043 l -0.320285,-0.1120997 -0.07206,0.016014 -0.02402,0.05605 h -0.01601 l -0.03203,0.1921709 v 0.032029 c 0.07206,0.1040925 0.160142,0.200178 0.256228,0.3042705 0.08007,0.1040926 0.176156,0.2161923 0.280249,0.3122777 z"
         id="path413" />
      <path
         d="m 32.885357,6.5158922 0.224199,-0.1601424 0.208186,-0.3042705 h 0.04003 l 0.232207,-0.5044486 0.03203,0.00801 c 0.02402,-0.05605 0.05605,-0.1120997 0.104093,-0.1601424 0.04804,-0.05605 0.07206,-0.1120997 0.08007,-0.1841637 h 0.02402 l 0.01601,-0.072064 0.144129,-0.024021 0.03203,-0.064057 -0.01601,-0.072064 C 33.958311,4.9384926 33.902258,4.8984576 33.846208,4.874436 33.798168,4.850415 33.734109,4.850415 33.662045,4.858422 l -0.008,-0.05605 c 0.168149,-0.064057 0.352313,-0.136121 0.52847,-0.2241993 0.184163,-0.080071 0.352313,-0.1601424 0.520462,-0.264235 l 0.07206,0.016014 0.08808,0.1361211 h 0.03203 l 0.03203,0.1441281 0.03203,-0.00801 0.008,0.032029 0.208185,0.200178 0.120107,-0.040036 -0.008,-0.9048046 0.09609,-0.6645909 h 0.01601 l 0.01601,-0.040036 -0.03203,-0.128114 0.07206,-0.336299 0.01601,-0.00801 -0.008,-0.032029 -0.04004,0.00801 -0.01601,-0.05605 c -0.08007,-0.072064 -0.176157,-0.1120997 -0.272242,-0.1361211 -0.104093,-0.016014 -0.2242,-0.040036 -0.344306,-0.05605 -0.152136,0.032029 -0.296264,0.088078 -0.440392,0.1601424 -0.152135,0.080071 -0.288256,0.1601424 -0.424377,0.2322065 v 0.016014 l 0.128114,0.040036 0.568505,-0.080071 0.208185,0.016014 0.07206,0.5284699 c 0,0.1281139 0,0.2562278 0.008,0.3843418 0,0.1281139 -0.01601,0.2482207 -0.04004,0.3683275 l -0.104093,0.00801 0.008,0.096085 -0.320284,-0.088078 h -0.02402 l 0.008,0.024021 c -0.04004,-0.024021 -0.06406,-0.024021 -0.08007,0 -0.01601,0.024021 -0.03203,0.05605 -0.04003,0.080071 l -0.536478,0.2482207 -0.04003,0.00801 c 0.1121,-0.1120997 0.232206,-0.2241993 0.36032,-0.3202848 0.120107,-0.080071 0.256228,-0.1601424 0.400356,-0.2161922 v -0.032029 h 0.04004 l 0.008,-0.05605 h 0.03203 v -0.072064 l -0.248221,-0.096086 h -0.08808 l -0.02402,0.05605 h -0.04004 l -0.01601,0.032029 -0.256228,0.1201068 h -0.03203 l 0.008,-0.048043 c 0.120107,-0.1040925 0.240214,-0.2081851 0.352313,-0.3122777 0.120107,-0.096085 0.248221,-0.1601424 0.400356,-0.1921708 l 0.07206,-0.1361211 h 0.04004 l -0.008,-0.05605 c -0.04004,-0.00801 -0.07206,-0.016014 -0.1121,-0.040036 -0.04004,-0.016014 -0.07206,-0.024021 -0.104092,-0.024021 -0.136121,0.016014 -0.272242,0.048043 -0.400356,0.1040926 -0.136121,0.05605 -0.264235,0.1281139 -0.392349,0.2161922 H 33.70206 V 3.3210513 L 33.605998,3.232973 33.589984,3.168916 33.325749,3.0648235 h -0.176157 v 0.016014 l 0.144128,0.080071 c -0.008,0.1681495 -0.01601,0.3122777 -0.02402,0.4483987 -0.008,0.1441282 -0.03203,0.264235 -0.08007,0.3843418 0.04804,0.072064 0.08808,0.1441282 0.128114,0.2161922 0.04003,0.072064 0.08808,0.1441282 0.152135,0.200178 l -0.02402,0.048043 c -0.04004,0.040036 -0.08808,0.05605 -0.144128,0.064057 -0.05605,0.00801 -0.09609,0.032029 -0.128114,0.05605 0.01601,0.072064 0.04804,0.136121 0.09609,0.1841637 0.04804,0.040036 0.07206,0.096086 0.07206,0.1681496 l 0.07206,-0.016014 h 0.07206 c -0.04804,0.2882563 -0.128114,0.5685055 -0.240214,0.8327405 -0.112099,0.2562279 -0.232206,0.5124557 -0.36032,0.7526693 z m 2.842528,-0.2962634 c 0.24822,-0.05605 0.496441,-0.1120997 0.752669,-0.1681495 0.240214,-0.05605 0.480427,-0.1361211 0.704627,-0.2402136 v -0.032029 h 0.128113 l 0.01602,-0.088078 0.144128,-0.016014 -0.04004,-0.1201068 v -0.040036 h 0.06406 l 0.04804,-0.05605 v -0.016014 h -0.09609 l -0.06406,-0.080071 -0.240214,-0.05605 -0.04004,-0.088078 -0.104092,-0.024021 v -0.05605 h -0.04004 C 36.904931,5.034575 36.864896,4.9224753 36.82486,4.8183828 36.79283,4.7222968 36.7528,4.6101976 36.72877,4.5061051 36.69674,4.6582404 36.65671,4.8103757 36.61667,4.9625109 36.56863,5.1146462 36.52058,5.2747886 36.488556,5.4429381 l -0.144128,0.048043 v 0.016014 l -0.896798,0.264235 c -0.136121,0 -0.280249,0 -0.424377,-0.00801 -0.152135,0 -0.288256,-0.016014 -0.424377,-0.048043 -0.008,-0.1201068 0,-0.2241993 0.01601,-0.3202848 0.01601,-0.1040925 0.03203,-0.2081851 0.04804,-0.3042705 l -0.07206,-0.1761567 -0.264235,-0.048043 -0.08007,0.024021 v 0.016014 l 0.07207,0.016014 0.05605,0.2402136 -0.02402,0.3683276 c 0.008,0.088078 0.03203,0.1601424 0.07206,0.2161922 0.04004,0.048043 0.08007,0.1120997 0.128114,0.1681495 0.176157,0.1201068 0.36032,0.1921709 0.576513,0.2241994 0.200178,0.032029 0.400356,0.05605 0.600534,0.080071 z m -2.073844,-1.9137017 -0.01601,0.016014 -0.04004,-0.00801 -0.01602,-0.088078 0.01602,-0.072064 -0.02402,-0.064057 0.01602,-0.1040925 0.04003,0.00801 0.07206,0.1120997 c 0.008,0.032029 0.008,0.064057 0,0.1040925 -0.008,0.040036 -0.02402,0.072064 -0.04804,0.096085 z m 0.06406,-0.4884343 -0.01601,0.024021 -0.07206,-0.00801 0.04804,-0.2802492 0.208185,-0.016014 h 0.08808 L 33.87824,3.697386 Z M 32.669165,2.7765671 32.605108,2.568382 V 2.4162467 l 0.06406,0.016014 0.04804,0.1521353 0.112099,0.032028 C 32.997457,2.592403 33.157599,2.552367 33.29372,2.480303 33.429841,2.416246 33.565962,2.3521891 33.71009,2.280125 V 2.224075 L 33.65404,2.200054 33.37379,2.216068 33.28571,2.224078 33.27771,2.19205 33.34977,2.168029 V 2.152015 l 0.208185,-0.1441282 c 0.04004,-0.072064 0.06406,-0.1521353 0.07206,-0.2402136 0.008,-0.080071 0.02402,-0.1601424 0.06406,-0.2322065 l -0.008,-0.048043 -0.144128,-0.048043 0.01601,-0.064057 0.05605,0.032029 c 0.04804,-0.024021 0.09609,-0.064057 0.136121,-0.1040926 0.04004,-0.040036 0.08808,-0.072064 0.160142,-0.096085 l 0.008,-0.032028 0.136121,-0.064057 v -0.048043 l 0.09608,-0.016014 -0.06406,-0.16014241 -0.392349,-0.12811393 h -0.07206 l -0.04804,0.0560498 -0.07206,0.008007 -0.008,-0.0560498 -0.160142,-0.16814952 0.008,-0.0720641 0.656584,-0.13612104 -0.04804,-0.0880783 C 33.886244,0.2623352 33.82219,0.2383138 33.742119,0.2142925 33.654039,0.1982783 33.573969,0.182264 33.485891,0.1742569 33.373791,0.2062854 33.261692,0.2383139 33.149592,0.2703424 33.029485,0.310378 32.917386,0.3664278 32.8213,0.44649904 v 0.0320285 l -0.07206,0.0320285 0.248221,-0.008007 0.160142,-0.008007 c 0.008,0.0880783 0.008,0.17615664 -0.008,0.24822072 -0.02402,0.0720641 -0.07206,0.15213529 -0.128114,0.23220649 -0.02402,0.0480428 -0.04804,0.0720641 -0.08808,0.0720641 -0.04004,0 -0.08007,0.00801 -0.1121,0.032028 -0.04804,0.00801 -0.08808,-0.00801 -0.120107,-0.048043 -0.03203,-0.032027 -0.07206,-0.0480412 -0.120107,-0.0560494 v -0.040039 L 32.212759,0.67870166 h -0.01601 l 0.144128,0.25622785 c 0,0.20818509 -0.008,0.41637029 -0.03203,0.60053399 -0.02402,0.200178 -0.05605,0.3843418 -0.112099,0.5685055 h -0.03203 l -0.03203,0.05605 c 0.008,0.080071 0.02402,0.1521353 0.04804,0.2161922 0.03203,0.064057 0.05605,0.128114 0.08007,0.200178 0.04804,0.00801 0.09609,0.024021 0.144128,0.048043 0.04004,0.024021 0.08007,0.040036 0.128114,0.040036 l 0.04804,0.048043 z m 0.30427,-0.5284699 -0.280249,0.064057 h -0.04804 c 0.01602,-0.1921709 0.03203,-0.3763347 0.05605,-0.5524913 0.02402,-0.1841638 0.03203,-0.3603204 0.02402,-0.5524913 h 0.02402 l 0.008,0.072064 c 0.01601,0.040036 0.04004,0.05605 0.07206,0.05605 0.03203,0.00801 0.05605,0.016014 0.08007,0.024021 l 0.368328,-0.1601424 0.04804,-0.00801 c -0.04004,0.096085 -0.09609,0.1841637 -0.152136,0.2562278 -0.05605,0.088078 -0.136121,0.1521353 -0.240213,0.2081851 l -0.04804,-0.016014 -0.144128,0.040036 c 0.008,0.048043 0.02402,0.088078 0.04804,0.1120997 0.02402,0.040036 0.04004,0.072064 0.06406,0.1040925 0.05605,0 0.120106,-0.00801 0.184163,-0.024021 0.06406,-0.00801 0.120107,-0.032029 0.160143,-0.072064 h 0.04004 l -0.01601,0.1601424 h -0.03203 v 0.032028 c -0.03203,0.040036 -0.05605,0.080071 -0.09609,0.1120996 -0.04003,0.048043 -0.08007,0.080071 -0.120107,0.1040926 z m 2.089859,-0.2161922 0.856762,-0.3122777 0.008,-0.032029 0.05605,-0.032029 v -0.072064 l -0.144129,-0.040036 -0.008,-0.040036 -0.06406,-0.016014 -0.264235,0.05605 -0.09608,0.00801 0.008,-0.088078 c 0.1121,-0.088078 0.240214,-0.1761566 0.376335,-0.2642349 0.128114,-0.080071 0.256227,-0.128114 0.384341,-0.1601424 V 0.9509457 l -0.05605,-0.008007 V 0.9029031 l -0.09609,-0.0880783 c -0.05605,-0.008007 -0.1121,-0.0160142 -0.160142,-0.0400356 -0.04004,-0.008007 -0.08808,-0.0240214 -0.136121,-0.0480427 l -0.03203,0.008007 -0.04003,0.064057 c -0.08007,0.0720641 -0.16815,0.12010681 -0.264235,0.14412817 -0.104093,0.0240214 -0.200178,0.064057 -0.28025,0.11209963 l -0.144128,-0.00801 -0.104092,0.016014 -0.04004,0.048043 0.320285,0.2161923 -0.05605,0.1281139 -0.06406,0.048043 -0.152135,0.064057 -0.04804,0.072064 c 0.07206,0.05605 0.120107,0.1201068 0.144128,0.1841637 0.02402,0.072064 0.05605,0.1361211 0.09609,0.2081852 z m -0.624556,-0.7046266 0.01601,-0.016014 0.01601,0.024021 0.08007,-0.032028 0.08007,-0.136121 0.1121,-0.088078 0.02402,-0.13612107 h 0.03203 v -0.0720641 h 0.03203 l 0.04004,-0.0880783 h 0.04804 l 0.08007,-0.18416376 h 0.03203 l 0.1121,-0.30427056 -0.02402,-0.064057 C 35.031265,0.17425309 34.919166,0.13421749 34.807066,0.11019613 34.686959,0.09418189 34.566852,0.07816765 34.46276,0.06215341 l -0.03203,-0.0080071 0.02402,0.05604984 -0.05605,0.60854113 0.04804,0.35231322 z"
         id="path415" />
    </g>
  </g>
</svg>
