<?xml version="1.0" encoding="UTF-8" standalone="no"?>
<!-- Created with Inkscape (http://www.inkscape.org/) -->

<svg
   width="40mm"
   height="7mm"
   viewBox="0 0 40 7"
   version="1.1"
   id="svg5"
   inkscape:version="1.2.2 (b0a8486, 2022-12-01)"
   sodipodi:docname="topMemberIndexLOGO.svg"
   xmlns:inkscape="http://www.inkscape.org/namespaces/inkscape"
   xmlns:sodipodi="http://sodipodi.sourceforge.net/DTD/sodipodi-0.dtd"
   xmlns="http://www.w3.org/2000/svg"
   xmlns:svg="http://www.w3.org/2000/svg">
  <sodipodi:namedview
     id="namedview7"
     pagecolor="#ffffff"
     bordercolor="#000000"
     borderopacity="0.25"
     inkscape:showpageshadow="2"
     inkscape:pageopacity="0.0"
     inkscape:pagecheckerboard="0"
     inkscape:deskcolor="#d1d1d1"
     inkscape:document-units="mm"
     showgrid="false"
     inkscape:zoom="4.7488465"
     inkscape:cx="73.59682"
     inkscape:cy="22.005344"
     inkscape:window-width="1440"
     inkscape:window-height="771"
     inkscape:window-x="1080"
     inkscape:window-y="1616"
     inkscape:window-maximized="0"
     inkscape:current-layer="layer1" />
  <defs
     id="defs2">
    <rect
       x="-1.8951972"
       y="4.0009718"
       width="213.31496"
       height="77.703079"
       id="rect268" />
  </defs>
  <g
     inkscape:label="Layer 1"
     inkscape:groupmode="layer"
     id="layer1">
    <path
       style="fill:none;fill-rule:evenodd;stroke:#000000;stroke-width:0.21864px;stroke-linecap:butt;stroke-linejoin:miter;stroke-opacity:1"
       d="m 4.4186655,7.736698 v 0"
       id="path208"
       inkscape:connector-type="polyline"
       inkscape:connector-curvature="0" />
    <text
       xml:space="preserve"
       transform="scale(0.26458333)"
       id="text266"
       style="font-size:53.3333px;font-family:KouzanBrushFontGyousyoOTF;-inkscape-font-specification:KouzanBrushFontGyousyoOTF;white-space:pre;shape-inside:url(#rect268);display:inline;fill:#000000" />
    <g
       aria-label="ユーザー一覧"
       transform="scale(0.90436988,1.1057423)"
       id="text453"
       style="font-size:7.76892px;font-family:KouzanBrushFontGyousyoOTF;-inkscape-font-specification:KouzanBrushFontGyousyoOTF;fill:#241c1c;stroke-width:0.448207">
      <path
         d="M 0.72359705,5.102334 C 1.0498917,4.9858002 1.3839552,4.9003421 1.7335566,4.8381908 2.0753891,4.7760394 2.4172216,4.6983502 2.7590541,4.6128921 c 0.3496014,0.031076 0.6992028,0.085458 1.0410352,0.1398405 0.3418325,0.062151 0.6758961,0.1320717 1.0099596,0.201992 l 0.388446,-0.077689 V 4.8381908 H 5.1829571 V 4.7061191 h -0.031076 v -0.06992 C 4.9887341,4.5740475 4.8100489,4.519665 4.6313638,4.4808204 4.4449097,4.4419758 4.2662245,4.3953623 4.0720015,4.3487488 V 4.325442 l -0.1553784,0.023307 v 0.031076 c -0.194223,0 -0.3962149,-0.015538 -0.582669,-0.054382 C 3.1319622,4.2943664 2.9377392,4.2865974 2.7435162,4.3099042 V 4.2632907 L 2.9144325,4.1622947 C 3.0620419,3.9836096 3.1708068,3.7971555 3.2640339,3.6107014 3.3572609,3.4164784 3.4194123,3.2222554 3.442719,3.0124946 l 0.1243027,-0.06992 C 3.6291731,2.8959608 3.6913245,2.8493473 3.7457069,2.7949648 3.7923204,2.7405824 3.8544718,2.7172756 3.932161,2.7172756 L 3.9166231,2.5541283 3.8389339,2.5385905 V 2.4764391 L 3.1708068,2.1734512 v -0.046614 l -0.046613,-0.038845 h -0.038845 v 0.085458 H 2.961046 V 2.1501445 C 2.8445122,2.2045269 2.7202095,2.2433715 2.5881378,2.2744472 2.4482973,2.3055229 2.3239946,2.3288296 2.1996918,2.3521364 2.0986959,2.3210607 1.989931,2.2977539 1.8811661,2.289985 1.7724012,2.2822161 1.6636364,2.2666783 1.5548715,2.2511404 h -0.06992 v 0.100996 l -0.093227,-0.031076 h -0.062151 l 0.062151,0.1165338 0.3729081,0.3107568 0.1398406,0.093227 0.6603582,-0.186454 0.077689,0.023307 0.046613,0.1243027 0.054382,0.015538 0.038845,0.2641433 c 0,0.1476094 -0.00777,0.2796811 -0.015538,0.4272906 -0.015538,0.1476094 -0.038845,0.2796811 -0.077689,0.4117527 L 2.5648311,4.037992 v 0.1476095 l 0.1009959,0.077689 v 0.046614 L 1.4150309,4.4885894 1.1586566,4.4730515 0.85566868,4.4885894 0.72359705,4.4730515 0.58375649,4.4885894 0.53714297,4.5895853 0.40507133,4.5429718 h -0.0233068 v 0.046614 l -0.0776892,0.023307 -0.1165338,-0.023307 h -0.0155378 v 0.046613 h -0.0699203 l 0.0466135,0.031076 v 0.015538 H 0.08654561 l 0.194223,0.194223 c 0.0854581,0.054382 0.17091624,0.077689 0.24860544,0.077689 0.0854581,0.00777 0.14760948,0.062151 0.194223,0.1476094 z"
         id="path455" />
      <path
         d="m 8.6245738,3.3698649 c 0.5049798,-0.093227 1.0099596,-0.1786852 1.5227082,-0.2408365 0.50498,-0.062151 1.017729,-0.1165338 1.538246,-0.1476095 0.256375,0 0.512749,0.00777 0.769123,0.015538 0.248606,0.00777 0.466136,0.077689 0.675896,0.2252987 l 0.08546,-0.031076 0.116533,-0.2952189 0.14761,-0.031076 -0.02331,-0.093227 C 13.355846,2.7095067 13.25485,2.6628932 13.153854,2.6240486 13.060627,2.585204 12.944093,2.5541283 12.819791,2.5308215 12.206046,2.5929729 11.576763,2.6473553 10.939712,2.6939689 10.294892,2.7483513 9.6656091,2.8027337 9.0440955,2.8648851 8.8110279,2.8881919 8.5934982,2.8338094 8.3992752,2.7095067 8.2128211,2.5929729 8.0030603,2.5230526 7.7855305,2.4997459 L 8.321586,3.1290284 Z"
         id="path457" />
      <path
         d="m 17.97057,5.9491463 0.248605,-0.1009959 c 0.380677,-0.5282866 0.629283,-1.0876488 0.753585,-1.7013935 0.124303,-0.6137447 0.225299,-1.2274894 0.302988,-1.849003 l 0.815737,0.015538 h 0.21753 v -0.015538 l 0.209761,-0.054382 v -0.077689 h 0.06215 v -0.054382 h 0.07769 C 20.4877,2.0336107 20.301246,1.9714593 20.107023,1.9481525 19.9128,1.9248458 19.726346,1.8704633 19.555429,1.7850052 l -0.256374,0.077689 h -0.05438 c 0,-0.1087649 -0.0078,-0.2097608 -0.01554,-0.3107568 -0.0078,-0.1009959 -0.04661,-0.194223 -0.100996,-0.2796811 l -0.536056,-0.2019919 -0.03107,0.1009959 h -0.06215 v 0.054382 h 0.03108 l 0.03108,0.4350595 h 0.03107 l -0.03107,0.1243027 0.03107,0.077689 -0.03107,0.100996 -0.994422,0.1476095 h -0.139841 l -0.13984,-0.201992 C 17.147064,1.8393877 17.014993,1.7850052 16.882921,1.7306228 16.750849,1.6840093 16.634316,1.6063201 16.517782,1.4975552 h -0.03108 c 0.02331,0.1398405 0.04661,0.2641433 0.07769,0.3962149 0.03108,0.1320716 0.06215,0.2563744 0.09323,0.3729082 0.02331,0.054382 0.01554,0.085458 -0.02331,0.1009959 -0.03884,0.015538 -0.07769,0.031076 -0.116534,0.046613 l -0.14761,-0.023307 c -0.124302,0.015538 -0.256374,0.046613 -0.372908,0.085458 -0.132072,0.046614 -0.256374,0.06992 -0.380677,0.06992 l 0.365139,0.2486054 0.07769,0.1864541 0.06215,0.023307 c 0.116534,-0.015538 0.225298,-0.038845 0.334063,-0.062151 0.116534,-0.023307 0.21753,-0.062151 0.310757,-0.1165338 h 0.06215 l 0.248605,0.9400393 h 0.06215 l 0.08546,-0.1087649 c 0.07769,-0.093227 0.124303,-0.2097608 0.155379,-0.3340635 0.03108,-0.1320717 0.06215,-0.2563744 0.100996,-0.3651393 h 0.05438 V 2.8493473 h 0.03108 l -0.03108,-0.077689 0.03108,-0.2252987 c 0.124303,-0.038845 0.264143,-0.077689 0.403984,-0.1320717 0.124302,-0.046613 0.271912,-0.06992 0.419521,-0.06992 h 0.201992 c 0.01554,0.6292825 -0.01554,1.2430272 -0.100996,1.841234 -0.08546,0.5982068 -0.256374,1.1808758 -0.520517,1.7402381 z M 20.153636,1.3810214 20.262401,1.3266389 20.371166,1.1712605 20.262401,0.92265511 19.866186,0.79058347 h -0.08546 l 0.05438,0.13207164 v 0.0466135 h -0.02331 l 0.341832,0.38844597 z m 0.590438,-0.3573703 v -0.0776892 h 0.08546 L 20.891684,0.81389023 20.860608,0.68958751 20.34009,0.47982667 h -0.04661 l 0.108765,0.27968112 h 0.05438 l 0.06215,0.16314732 z"
         id="path459" />
      <path
         d="m 24.162384,3.3698649 c 0.504979,-0.093227 1.009959,-0.1786852 1.522708,-0.2408365 0.50498,-0.062151 1.017729,-0.1165338 1.538246,-0.1476095 0.256375,0 0.512749,0.00777 0.769123,0.015538 0.248606,0.00777 0.466135,0.077689 0.675896,0.2252987 l 0.08546,-0.031076 0.116534,-0.2952189 0.14761,-0.031076 -0.02331,-0.093227 C 28.893656,2.7095067 28.79266,2.6628932 28.691664,2.6240486 28.598437,2.585204 28.481903,2.5541283 28.3576,2.5308215 27.743856,2.5929729 27.114573,2.6473553 26.477522,2.6939689 25.832701,2.7483513 25.203419,2.8027337 24.581905,2.8648851 24.348838,2.8881919 24.131308,2.8338094 23.937085,2.7095067 23.750631,2.5929729 23.54087,2.5230526 23.32334,2.4997459 l 0.536056,0.6292825 z"
         id="path461" />
      <path
         d="M 31.092246,3.6184703 C 31.542843,3.455323 32.00121,3.3310203 32.475114,3.2222554 32.93348,3.1134905 33.399615,3.0124946 33.857981,2.9192675 l 0.108765,0.015538 0.07769,-0.015538 0.178685,0.015538 0.06992,-0.015538 c 0.295219,0.00777 0.598207,0.031076 0.893426,0.06992 0.295219,0.031076 0.582669,0.077689 0.86235,0.1476095 h 0.05438 v -0.077689 l 0.04661,0.015538 0.170916,-0.038845 0.341833,0.062151 h 0.05438 l 0.100996,-0.100996 0.100996,-0.3573703 h 0.01554 l -0.07769,-0.06992 V 2.484208 C 36.569335,2.3676742 36.266347,2.2666783 35.947821,2.1889891 35.621526,2.1190688 35.31077,2.0336107 35.015551,1.9170769 h -0.170917 c 0,0.038845 -0.0078,0.06992 -0.02331,0.077689 -0.02331,0.00777 -0.05438,0.00777 -0.09323,-0.00777 l -0.09323,0.1087649 -0.955577,0.093227 c -0.155378,0 -0.302988,-0.023307 -0.450597,-0.06992 -0.139841,-0.038845 -0.279681,-0.093227 -0.396215,-0.1786852 V 1.901539 l -0.09323,-0.038845 -0.01554,-0.062151 c -0.05438,-0.015538 -0.08546,-0.00777 -0.108765,0.015538 -0.02331,0.031076 -0.05438,0.062151 -0.08546,0.085458 l -0.279681,0.2563744 -0.03108,0.054382 -0.699202,0.295219 -0.09323,-0.023307 c -0.100996,0.054382 -0.201992,0.093227 -0.318526,0.1087649 -0.116534,0.015538 -0.225299,0.031076 -0.334064,0.046614 l -0.310757,-0.1087649 -0.06992,0.015538 -0.02331,0.054382 h -0.01554 l -0.03108,0.1864541 v 0.031076 c 0.06992,0.1009959 0.155378,0.194223 0.248605,0.2952189 0.07769,0.100996 0.170917,0.2097609 0.271913,0.3029879 z"
         id="path463" />
      <path
         d="m 39.739038,6.3220545 0.217529,-0.1553784 0.201992,-0.295219 h 0.03885 l 0.225299,-0.4894419 0.03108,0.00777 c 0.02331,-0.054382 0.05438,-0.1087649 0.100996,-0.1553784 0.04661,-0.054382 0.06992,-0.1087649 0.07769,-0.1786852 h 0.02331 l 0.01554,-0.06992 0.139841,-0.023307 0.03108,-0.062151 -0.01554,-0.06992 c -0.04661,-0.038845 -0.100995,-0.077689 -0.155378,-0.1009959 -0.04661,-0.023307 -0.108765,-0.023307 -0.178685,-0.015538 l -0.0078,-0.054382 c 0.163147,-0.062151 0.341832,-0.1320716 0.512749,-0.2175298 0.178685,-0.077689 0.341832,-0.1553784 0.504979,-0.2563743 l 0.06992,0.015538 0.08546,0.1320717 h 0.03108 l 0.03108,0.1398405 0.03108,-0.00777 0.0078,0.031076 0.201992,0.194223 0.116534,-0.038845 -0.0078,-0.877888 0.09323,-0.6448203 h 0.01554 l 0.01554,-0.038845 -0.03108,-0.1243027 0.06992,-0.3262947 0.01554,-0.00777 -0.0078,-0.031076 -0.03885,0.00777 -0.01554,-0.054382 c -0.07769,-0.06992 -0.170916,-0.1087649 -0.264143,-0.1320716 -0.100996,-0.015538 -0.21753,-0.038845 -0.334063,-0.054382 -0.14761,0.031076 -0.28745,0.085458 -0.427291,0.1553784 -0.147609,0.077689 -0.279681,0.1553784 -0.411753,0.2252987 v 0.015538 l 0.124303,0.038845 0.551593,-0.077689 0.201992,0.015538 0.06992,0.5127487 c 0,0.1243027 0,0.2486054 0.0078,0.3729082 0,0.1243027 -0.01554,0.2408365 -0.03884,0.3573703 l -0.100996,0.00777 0.0078,0.093227 -0.310757,-0.085458 h -0.02331 l 0.0078,0.023307 c -0.03884,-0.023307 -0.06215,-0.023307 -0.07769,0 -0.01554,0.023307 -0.03108,0.054382 -0.03885,0.077689 l -0.520517,0.2408365 -0.03885,0.00777 C 40.679077,4.2399839 40.795611,4.131219 40.919913,4.037992 41.036447,3.9603028 41.168519,3.8826136 41.308359,3.8282312 v -0.031076 h 0.03884 l 0.0078,-0.054382 h 0.03108 v -0.06992 l -0.240837,-0.093227 h -0.08546 l -0.02331,0.054382 h -0.03884 l -0.01554,0.031076 -0.248606,0.1165338 h -0.03108 l 0.0078,-0.046614 c 0.116533,-0.1009959 0.233067,-0.2019919 0.341832,-0.3029878 0.116534,-0.093227 0.240837,-0.1553784 0.388446,-0.1864541 l 0.06992,-0.1320717 h 0.03885 l -0.0078,-0.054382 c -0.03885,-0.00777 -0.06992,-0.015538 -0.108765,-0.038845 -0.03884,-0.015538 -0.06992,-0.023307 -0.100996,-0.023307 -0.132071,0.015538 -0.264143,0.046614 -0.388446,0.100996 -0.132071,0.054382 -0.256374,0.1243027 -0.380677,0.2097608 h -0.03108 V 3.2222554 L 40.43824,3.1367973 40.422703,3.0746459 40.166328,2.97365 h -0.170916 v 0.015538 l 0.139841,0.077689 c -0.0078,0.1631473 -0.01554,0.3029879 -0.02331,0.4350595 -0.0078,0.1398406 -0.03108,0.2563744 -0.07769,0.3729082 0.04661,0.06992 0.08546,0.1398405 0.124302,0.2097608 0.03885,0.06992 0.08546,0.1398406 0.14761,0.194223 l -0.02331,0.046613 c -0.03885,0.038845 -0.08546,0.054382 -0.13984,0.062151 -0.05438,0.00777 -0.09323,0.031076 -0.124303,0.054382 0.01554,0.06992 0.04661,0.1320717 0.09323,0.1786852 0.04661,0.038845 0.06992,0.093227 0.06992,0.1631473 l 0.06992,-0.015538 h 0.06992 C 40.275093,5.0479516 40.197404,5.3198638 40.088639,5.5762382 39.979874,5.8248436 39.86334,6.073449 39.739038,6.3065166 Z m 2.757966,-0.2874501 c 0.240837,-0.054382 0.481673,-0.1087648 0.730279,-0.1631473 0.233067,-0.054382 0.466135,-0.1320716 0.683665,-0.2330676 v -0.031076 h 0.124302 l 0.01554,-0.085458 0.139841,-0.015538 -0.03885,-0.1165338 v -0.038845 h 0.06215 l 0.04661,-0.054382 v -0.015538 h -0.09323 l -0.06215,-0.077689 -0.233068,-0.054382 -0.03885,-0.085458 -0.100995,-0.023307 v -0.054382 h -0.03885 c -0.05438,-0.1009959 -0.09323,-0.2097608 -0.132072,-0.3107568 -0.03108,-0.093227 -0.06992,-0.2019919 -0.09323,-0.3029878 -0.03108,0.1476094 -0.06992,0.2952189 -0.108765,0.4428284 -0.04661,0.1476095 -0.09323,0.3029879 -0.124302,0.4661352 l -0.139841,0.046613 v 0.015538 l -0.870119,0.2563743 c -0.132072,0 -0.271912,0 -0.411753,-0.00777 -0.147609,0 -0.279681,-0.015538 -0.411752,-0.046614 -0.0078,-0.1165338 0,-0.2175298 0.01554,-0.3107568 0.01554,-0.100996 0.03108,-0.2019919 0.04661,-0.295219 l -0.06992,-0.1709162 -0.256375,-0.046613 -0.07769,0.023307 v 0.015538 l 0.06992,0.015538 0.05438,0.2330676 -0.02331,0.3573703 c 0.0078,0.085458 0.03108,0.1553784 0.06992,0.2097609 0.03884,0.046614 0.07769,0.1087648 0.124303,0.1631473 0.170916,0.1165338 0.349601,0.1864541 0.559362,0.2175297 0.194223,0.031076 0.388446,0.054382 0.582669,0.077689 z m -2.01215,-1.8567718 -0.01554,0.015538 -0.03884,-0.00777 -0.01554,-0.085458 0.01554,-0.06992 -0.02331,-0.062151 0.01554,-0.1009959 0.03884,0.00777 0.06992,0.1087649 c 0.0078,0.031076 0.0078,0.062151 0,0.1009959 -0.0078,0.038845 -0.02331,0.06992 -0.04661,0.093227 z m 0.06215,-0.4739041 -0.01554,0.023307 -0.06992,-0.00777 0.04661,-0.2719122 0.201992,-0.015538 h 0.08546 l -0.09323,0.1553784 z M 39.529277,2.6939689 39.467125,2.4919769 V 2.3443675 l 0.06215,0.015538 0.04661,0.1476095 0.108765,0.031076 c 0.163148,-0.023307 0.318526,-0.062151 0.450598,-0.1320717 0.132071,-0.062151 0.264143,-0.1243027 0.403983,-0.194223 v -0.054382 l -0.05438,-0.023307 -0.271912,0.015538 -0.08546,0.00777 -0.0078,-0.031076 0.06992,-0.023307 v -0.015538 l 0.201992,-0.1398406 c 0.03885,-0.06992 0.06215,-0.1476094 0.06992,-0.2330676 0.0078,-0.077689 0.02331,-0.1553784 0.06215,-0.2252986 l -0.0078,-0.046614 -0.139841,-0.046614 0.01554,-0.062151 0.05438,0.031076 c 0.04661,-0.023307 0.09323,-0.062151 0.132072,-0.1009959 0.03885,-0.038845 0.08546,-0.06992 0.155378,-0.093227 l 0.0078,-0.031076 0.132072,-0.062151 V 1.03142 l 0.09323,-0.015538 -0.06215,-0.15537835 -0.380677,-0.12430272 h -0.06992 l -0.04661,0.0543824 -0.06992,0.007769 -0.0078,-0.0543824 -0.155379,-0.16314732 0.0078,-0.0699203 0.637052,-0.13207164 -0.04661,-0.0854581 c -0.06215,-0.0388446 -0.124303,-0.0621513 -0.201992,-0.0854581 -0.08546,-0.0155378 -0.163147,-0.0310757 -0.248605,-0.0388446 -0.108765,0.0310757 -0.21753,0.0621514 -0.326295,0.093227 -0.116534,0.0388446 -0.225299,0.093227 -0.318526,0.17091623 v 0.0310757 l -0.06992,0.0310757 0.240837,-0.007769 0.155378,-0.007769 c 0.0078,0.0854581 0.0078,0.17091624 -0.0078,0.24083652 -0.02331,0.0699203 -0.06992,0.14760948 -0.124303,0.22529868 -0.02331,0.0466135 -0.04661,0.0699202 -0.08546,0.0699202 -0.03884,0 -0.07769,0.00777 -0.108765,0.031076 -0.04661,0.00777 -0.08546,-0.00777 -0.116533,-0.046613 -0.03108,-0.0310757 -0.06992,-0.0466135 -0.116534,-0.0543824 V 0.90711727 L 39.086448,0.65851183 h -0.01554 l 0.13984,0.24860544 c 0,0.20199193 -0.0078,0.40398383 -0.03108,0.58266903 -0.02331,0.194223 -0.05438,0.3729081 -0.108764,0.5515933 h -0.03108 l -0.03108,0.054382 c 0.0078,0.077689 0.02331,0.1476095 0.04661,0.2097609 0.03107,0.062151 0.05438,0.1243027 0.07769,0.194223 0.04661,0.00777 0.09323,0.023307 0.13984,0.046613 0.03884,0.023307 0.07769,0.038845 0.124303,0.038845 l 0.04661,0.046613 z m 0.295219,-0.5127488 -0.271912,0.062151 h -0.04661 c 0.01554,-0.1864541 0.03108,-0.3651392 0.05438,-0.5360555 0.02331,-0.1786851 0.03108,-0.3496014 0.02331,-0.5360555 h 0.02331 l 0.0078,0.06992 c 0.01554,0.038845 0.03884,0.054382 0.06992,0.054382 0.03108,0.00777 0.05438,0.015538 0.07769,0.023307 l 0.357371,-0.1553784 0.04661,-0.00777 c -0.03884,0.093227 -0.09323,0.1786852 -0.147609,0.2486054 -0.05438,0.085458 -0.132072,0.1476095 -0.233068,0.201992 l -0.04661,-0.015538 -0.139841,0.038845 c 0.0078,0.046613 0.02331,0.085458 0.04661,0.1087649 0.02331,0.038845 0.03884,0.06992 0.06215,0.100996 0.05438,0 0.116534,-0.00777 0.178685,-0.023307 0.06215,-0.00777 0.116534,-0.031076 0.155379,-0.06992 h 0.03884 l -0.01554,0.1553784 h -0.03108 v 0.031076 c -0.03108,0.038845 -0.05438,0.077689 -0.09323,0.1087649 -0.03884,0.046613 -0.07769,0.077689 -0.116534,0.1009959 z m 2.027688,-0.2097608 0.831274,-0.3029879 0.0078,-0.031076 0.05438,-0.031076 v -0.06992 l -0.139841,-0.038845 -0.0078,-0.038845 -0.06215,-0.015538 -0.256375,0.054382 -0.09323,0.00777 0.0078,-0.085458 c 0.108765,-0.085458 0.233068,-0.1709163 0.36514,-0.2563744 0.124302,-0.077689 0.248605,-0.1243027 0.372908,-0.1553784 v -0.0854581 l -0.05438,-0.007769 v -0.0388446 l -0.09323,-0.0854581 c -0.05438,-0.007769 -0.108765,-0.0155378 -0.155378,-0.0388446 -0.03884,-0.007769 -0.08546,-0.0233068 -0.132072,-0.0466135 l -0.03107,0.007769 -0.03885,0.0621514 c -0.07769,0.0699203 -0.163147,0.1165338 -0.256374,0.13984056 -0.100996,0.0233068 -0.194223,0.0621514 -0.271913,0.10876491 l -0.13984,-0.00777 -0.100996,0.015538 -0.03885,0.046614 0.310757,0.2097608 -0.05438,0.1243028 -0.06215,0.046614 -0.147609,0.062151 -0.04661,0.06992 c 0.06992,0.054382 0.116534,0.1165338 0.139841,0.1786852 0.02331,0.06992 0.05438,0.1320716 0.09323,0.2019919 z m -0.605976,-0.683665 0.01554,-0.015538 0.01554,0.023307 0.07769,-0.031076 0.07769,-0.1320717 0.108765,-0.085458 0.02331,-0.13207161 h 0.03108 v -0.0699203 h 0.03108 l 0.03885,-0.0854581 h 0.04661 l 0.07769,-0.17868516 h 0.03108 l 0.108765,-0.29521896 -0.02331,-0.0621513 C 41.821108,0.16906988 41.712343,0.13022528 41.603578,0.10691852 41.487045,0.09138068 41.370511,0.07584284 41.269515,0.060305 l -0.03108,-0.0077689 0.02331,0.05438244 -0.05438,0.59043791 0.04661,0.34183247 z"
         id="path465" />
    </g>
  </g>
</svg>
