<?xml version="1.0" encoding="UTF-8" standalone="no"?>
<!-- Created with Inkscape (http://www.inkscape.org/) -->

<svg
   width="35.000999mm"
   height="7mm"
   viewBox="0 0 35.000998 7"
   version="1.1"
   id="svg5"
   inkscape:version="1.2.2 (b0a8486, 2022-12-01)"
   sodipodi:docname="topMyFavoLOGO.svg"
   xmlns:inkscape="http://www.inkscape.org/namespaces/inkscape"
   xmlns:sodipodi="http://sodipodi.sourceforge.net/DTD/sodipodi-0.dtd"
   xmlns="http://www.w3.org/2000/svg"
   xmlns:svg="http://www.w3.org/2000/svg">
  <sodipodi:namedview
     id="namedview7"
     pagecolor="#ffffff"
     bordercolor="#000000"
     borderopacity="0.25"
     inkscape:showpageshadow="2"
     inkscape:pageopacity="0.0"
     inkscape:pagecheckerboard="0"
     inkscape:deskcolor="#d1d1d1"
     inkscape:document-units="mm"
     showgrid="false"
     inkscape:zoom="4.7488465"
     inkscape:cx="124.34599"
     inkscape:cy="18.004372"
     inkscape:window-width="1440"
     inkscape:window-height="771"
     inkscape:window-x="1080"
     inkscape:window-y="1616"
     inkscape:window-maximized="0"
     inkscape:current-layer="layer1" />
  <defs
     id="defs2">
    <rect
       x="-1.8951972"
       y="4.0009718"
       width="213.31496"
       height="77.703079"
       id="rect268" />
  </defs>
  <g
     inkscape:label="Layer 1"
     inkscape:groupmode="layer"
     id="layer1">
    <path
       style="fill:none;fill-rule:evenodd;stroke:#000000;stroke-width:0.21864px;stroke-linecap:butt;stroke-linejoin:miter;stroke-opacity:1"
       d="m 4.4186655,7.736698 v 0"
       id="path208"
       inkscape:connector-type="polyline"
       inkscape:connector-curvature="0" />
    <text
       xml:space="preserve"
       style="font-size:8.85995px;font-family:KouzanBrushFontGyousyoOTF;-inkscape-font-specification:KouzanBrushFontGyousyoOTF;fill:#000000;stroke-width:0.166124"
       x="-1.3619121"
       y="8.4681635"
       id="text214"
       transform="scale(0.67763293,1.4757252)"><tspan
         sodipodi:role="line"
         id="tspan212"
         style="stroke-width:0.166124"
         x="-1.3619121"
         y="8.4681635" /></text>
    <text
       xml:space="preserve"
       transform="scale(0.26458333)"
       id="text266"
       style="font-size:53.3333px;font-family:KouzanBrushFontGyousyoOTF;-inkscape-font-specification:KouzanBrushFontGyousyoOTF;white-space:pre;shape-inside:url(#rect268);display:inline;fill:#000000" />
    <g
       aria-label="いいねしたお魚"
       transform="scale(0.80318897,1.245037)"
       id="text932"
       style="font-size:6.38567px;font-family:KouzanBrushFontGyousyoOTF;-inkscape-font-specification:KouzanBrushFontGyousyoOTF;stroke-width:0.119731">
      <path
         d="M 1.4219072,4.4503058 H 1.543235 c 0,-0.1149421 -0.031928,-0.2107271 -0.089399,-0.2937409 C 1.3835932,4.0735512 1.3452792,3.9841518 1.3261222,3.8883668 L 1.2494941,3.8628241 0.95575331,3.1029294 C 0.84081124,2.9049736 0.71309784,2.7070178 0.57899877,2.5218334 0.43212835,2.3366489 0.26610093,2.1642358 0.07453082,2.0173654 v -0.025543 c 0.03192835,0.1021708 0.07024237,0.1979558 0.10855639,0.3065122 0.038314,0.1021707 0.0638567,0.2171128 0.0830137,0.3384405 h 0.0510854 c 0.0319283,0.1596418 0.0957851,0.3128979 0.19795577,0.4597683 0.0957851,0.1468704 0.16602743,0.3065122 0.21711279,0.4661539 0.0830137,0.1724131 0.17879877,0.3320549 0.27458385,0.4916966 0.095785,0.1660274 0.2298841,0.2937408 0.4150685,0.3959116 z M 4.2188308,3.690411 4.3465442,3.5882403 4.4934146,3.613783 c 0.070242,0 0.1468704,0.00639 0.2234984,0.012771 0.083014,0.00639 0.1404848,-0.019157 0.1724131,-0.089399 C 4.8701691,3.1667861 4.7552271,2.8347312 4.5445,2.5473761 4.3273872,2.2600209 4.1613597,1.9535087 4.0528033,1.6214539 L 3.7335198,1.5256688 3.6313491,1.3787984 v -0.025543 l 0.051085,0.1277134 -0.025543,0.1213278 c 0.019157,0.063857 0.031928,0.134099 0.051085,0.2043414 0.019157,0.070242 0.051085,0.1340991 0.095785,0.1851844 l 0.070242,0.051085 0.1787987,0.2937408 0.051085,0.025543 0.3384405,0.7854375 v 0.2490411 c -0.031928,0.051085 -0.057471,0.095785 -0.083014,0.1404847 -0.025543,0.051085 -0.070242,0.095785 -0.1404847,0.1277134 z"
         id="path294" />
      <path
         d="m 7.807565,4.4503058 h 0.1213278 c 0,-0.1149421 -0.031928,-0.2107271 -0.089399,-0.2937409 C 7.769251,4.0735512 7.730937,3.9841518 7.71178,3.8883668 L 7.6351519,3.8628241 7.3414111,3.1029294 C 7.226469,2.9049736 7.0987556,2.7070178 6.9646566,2.5218334 6.8177861,2.3366489 6.6517587,2.1642358 6.4601886,2.0173654 v -0.025543 c 0.031928,0.1021708 0.070242,0.1979558 0.1085564,0.3065122 0.038314,0.1021707 0.063857,0.2171128 0.083014,0.3384405 h 0.051085 c 0.031928,0.1596418 0.095785,0.3128979 0.1979558,0.4597683 0.095785,0.1468704 0.1660274,0.3065122 0.2171127,0.4661539 0.083014,0.1724131 0.1787988,0.3320549 0.2745839,0.4916966 0.095785,0.1660274 0.2298841,0.2937408 0.4150685,0.3959116 z m 2.796924,-0.7598948 0.127713,-0.1021707 0.14687,0.025543 c 0.07024,0 0.146871,0.00639 0.223499,0.012771 0.08301,0.00639 0.140485,-0.019157 0.172413,-0.089399 C 11.255827,3.1667861 11.140885,2.8347312 10.930158,2.5473761 10.713045,2.2600209 10.547018,1.9535087 10.438461,1.6214539 L 10.119178,1.5256688 10.017007,1.3787984 v -0.025543 l 0.05109,0.1277134 -0.02554,0.1213278 c 0.01916,0.063857 0.03193,0.134099 0.05109,0.2043414 0.01916,0.070242 0.05108,0.1340991 0.09578,0.1851844 l 0.07024,0.051085 0.178799,0.2937408 0.05109,0.025543 0.338441,0.7854375 v 0.2490411 c -0.03193,0.051085 -0.05747,0.095785 -0.08301,0.1404847 -0.02554,0.051085 -0.07024,0.095785 -0.140484,0.1277134 z"
         id="path296" />
      <path
         d="m 14.091052,5.5741837 0.178799,-0.0447 c -0.02554,-0.1213277 -0.05109,-0.2362698 -0.08301,-0.3639832 -0.03193,-0.114942 -0.05109,-0.2362698 -0.07024,-0.3639832 h -0.02554 v -0.038314 h 0.02554 v -0.063857 h -0.0447 l 0.01916,-0.070242 -0.01916,-0.063857 0.01916,-0.5427819 v -0.063857 c -0.03193,0.1021707 -0.0447,0.2107271 -0.0447,0.3192835 0,0.114942 0,0.2298841 0,0.3320548 h -0.0447 l 0.02554,-0.5172393 v 0.019157 h -0.06386 l 0.03831,-0.172413 h 0.02554 l -0.02554,-0.1404848 0.0447,-0.1277134 h 0.0447 v 0.1787988 c -0.03193,-0.1149421 -0.01277,-0.2171128 0.05109,-0.2937409 0.05747,-0.076628 0.108557,-0.153256 0.153257,-0.2490411 h 0.05109 l 0.0894,-0.1596417 0.0894,-0.063857 0.134099,-0.2745838 0.07024,-0.038314 0.02554,-0.095785 h 0.03193 v -0.038314 h 0.05109 l 0.1341,-0.1660274 -0.1341,0.1404848 h -0.02554 l 0.229884,-0.3384406 h 0.0447 l 0.02554,-0.063857 h 0.0447 v -0.051085 h 0.07024 L 15.042517,2.39412 v -0.025543 h 0.0447 l 0.02554,-0.070242 h 0.0447 l 0.01916,-0.051085 0.09579,-0.038314 v -0.114942 h 0.03831 v 0.063857 l 0.344826,-0.3512119 0.223499,-0.1596417 0.223498,0.038314 c 0.134099,0.1979558 0.242656,0.4086829 0.306512,0.6257957 0.07024,0.2171127 0.127714,0.4342255 0.172413,0.6513383 v -0.012771 l 0.06386,0.012771 0.0894,0.4853109 h 0.05109 V 3.709568 l 0.01916,0.1149421 -0.01916,0.089399 0.0447,0.070242 -0.0447,0.1277134 -0.300127,-0.063857 v -0.0447 c -0.114942,-0.012771 -0.236269,-0.038314 -0.351211,-0.070242 -0.108557,-0.031928 -0.229885,-0.051085 -0.344827,-0.063857 -0.140484,0 -0.255426,0.019157 -0.363983,0.057471 -0.108556,0.038314 -0.204341,0.089399 -0.312898,0.1660274 l -0.204341,0.2490412 -0.07024,0.1979558 v 0.089399 l 0.121328,-0.019157 0.08301,0.019157 0.114942,-0.038314 0.338441,0.038314 0.07024,-0.019157 h 0.108556 v 0.019157 h 0.07024 v -0.019157 h 0.0447 v 0.019157 h 0.02554 v 0.025543 l 0.03831,-0.025543 0.140485,0.025543 h 0.09578 v 0.0447 l 0.102171,-0.019157 h 0.0894 v 0.019157 h 0.344826 l 0.223499,-0.1787988 h 0.0447 c 0.02554,0.070242 0.05747,0.1404848 0.0894,0.2107272 0.03193,0.063857 0.0447,0.134099 0.0447,0.2107271 V 4.87176 l 0.07024,-0.025543 c 0,-0.051085 0.0064,-0.114942 0.01277,-0.1724131 0.0064,-0.057471 -0.01277,-0.1085564 -0.05747,-0.1532561 v -0.0447 h 0.07024 v 0.0447 h 0.02554 l -0.05109,-0.134099 h -0.0447 l -0.07024,-0.1213278 0.02554,-0.076628 -0.0447,-0.7024237 h -0.02554 l 0.02554,-0.063857 h -0.05109 l -0.06386,-0.5363963 h -0.0447 C 16.792191,2.6303898 16.753877,2.3813486 16.696406,2.1450788 16.638934,1.9151947 16.536764,1.6980819 16.396279,1.4873548 L 16.172781,1.3468701 c -0.1341,-0.00639 -0.255427,0.012771 -0.357598,0.070242 -0.108556,0.057471 -0.204341,0.1404848 -0.293741,0.2298842 v 0.038314 h -0.0447 l -0.249042,0.2745838 -0.29374,0.3575975 h -0.05109 l -0.651338,0.7215808 h -0.0447 V 2.8347312 h 0.0447 L 14.525278,1.870495 V 1.6853106 h -0.0447 l -0.02554,-0.1787988 0.114942,-0.71519505 -0.02554,-0.51723928 -0.06386,-0.019157 -0.0894,-0.2362698 h -0.02554 l 0.02554,0.14687041 C 14.372022,0.40179087 14.352865,0.631675 14.320936,0.85517345 14.289008,1.0786719 14.250694,1.308556 14.21238,1.5320545 l -0.07024,0.0447 v 0.0447 l -0.140484,0.025543 -0.06386,0.1596417 -0.07024,0.019157 c -0.159642,0.1787988 -0.300127,0.3639832 -0.415069,0.561939 -0.108556,0.1915701 -0.185184,0.4022972 -0.217113,0.6257957 -0.01277,0.1851844 0.0064,0.3512118 0.05109,0.4916966 0.0447,0.1532561 0.0894,0.3001265 0.134099,0.4533826 l -0.0447,0.134099 0.0447,0.0447 0.02554,0.1277134 0.05747,0.051085 0.249042,0.7407377 c 0.03193,0.038314 0.06386,0.089399 0.09579,0.1468705 0.03193,0.051085 0.07024,0.089399 0.114942,0.1213277 z m -0.127713,-0.5683246 -0.02554,0.025543 -0.312898,-0.581096 c 0.0447,-0.1085564 0.08301,-0.2107271 0.121328,-0.3256692 0.03831,-0.1149421 0.09578,-0.2107271 0.172413,-0.3001265 h 0.0447 l -0.02554,0.1787988 0.02554,0.2298841 z m 1.826301,-0.4150686 -0.02554,0.019157 -0.268198,-0.0447 -0.09579,-0.089399 -0.127713,-0.025543 c 0.03193,-0.0447 0.03831,-0.095785 0.03831,-0.1660275 0,-0.063857 0.02554,-0.1213277 0.07024,-0.1724131 l 0.09579,-0.0447 c 0.204341,-0.012771 0.408682,0 0.606638,0.038314 0.19157,0.038314 0.38314,0.095785 0.561939,0.1596417 v 0.076628 h -0.06386 l -0.0447,0.1596417 -0.415069,0.1085564 -0.268198,-0.0447 z m 1.174964,-0.4789253 h -0.07024 L 16.830505,3.5307693 V 3.2114858 h 0.06386 l 0.07024,0.4980822 -0.02554,0.025543 0.02554,0.0447 z m -3.486576,-0.3128978 -0.01277,0.025543 -0.114942,-0.3767546 c 0,-0.1851844 0.01277,-0.3575975 0.03831,-0.5236249 0.01916,-0.1660274 0.05747,-0.3192835 0.114942,-0.4725396 0.08301,-0.1149421 0.166028,-0.2298841 0.242656,-0.3320548 0.08301,-0.1085564 0.185184,-0.2043415 0.300126,-0.2937409 h 0.07024 l -0.153256,0.6704954 v 0.051085 h 0.03831 l -0.312898,1.0536355 z m 3.352477,-0.063857 -0.02554,0.019157 -0.01916,-0.019157 V 3.6010116 h 0.0447 z m 0.01916,-0.5363963 -0.01916,0.089399 h -0.0447 V 3.0582297 l 0.06386,0.025543 z m -0.01916,-0.1596417 h -0.07024 v -0.076628 h 0.07024 z"
         id="path298" />
      <path
         d="M 21.460103,5.1846578 21.8177,5.1144155 v -0.0447 h 0.02554 L 21.555888,5.0314018 C 21.428174,4.8653743 21.345161,4.6865756 21.306847,4.4950055 c -0.0447,-0.1979558 -0.08301,-0.4022973 -0.114943,-0.6066387 0,-0.3384405 0.02554,-0.6704954 0.07663,-0.9897789 0.0447,-0.3256692 0.102171,-0.6513383 0.166028,-0.9706219 0,-0.2043414 -0.0064,-0.4022972 -0.03193,-0.5874816 C 21.377089,1.1553 21.338775,0.97011552 21.294075,0.78493108 21.24299,0.67637469 21.166362,0.59336098 21.05142,0.54227562 20.936478,0.48480458 20.834307,0.42094788 20.738522,0.35709118 h -0.02554 c 0.134099,0.20434145 0.210727,0.44061124 0.242656,0.68965242 0.03193,0.2490411 0.06386,0.4980822 0.09578,0.7471234 -0.01916,0.1787987 -0.03193,0.3575975 -0.03831,0.5427819 -0.0064,0.1787988 -0.02554,0.3575976 -0.05747,0.542782 v 1.1047209 l 0.0447,0.4789253 h 0.05109 c 0.01916,0.1277134 0.05747,0.2554268 0.114942,0.3575975 0.05109,0.1085564 0.114942,0.2171128 0.197956,0.3192835 z"
         id="path300" />
      <path
         d="m 26.50477,5.3762279 0.07663,-0.025543 c 0.05109,-0.057471 0.07663,-0.1277134 0.07663,-0.2043415 0,-0.070242 0.0064,-0.1340991 0.01916,-0.1915701 L 26.658026,4.8462173 26.938996,3.63294 h 0.05109 c 0.07024,-0.3256692 0.159642,-0.6513384 0.255427,-0.9642362 0.0894,-0.3192835 0.197956,-0.6321814 0.306512,-0.9450792 l 0.453383,-0.2873552 0.02554,-0.070242 0.166028,-0.1085564 v -0.019157 h -0.0447 v -0.089399 l -0.57471,-0.025543 c -0.02554,-0.1021707 -0.0447,-0.20434144 -0.06386,-0.31289784 -0.01916,-0.10217072 -0.0447,-0.20434144 -0.07663,-0.3001265 L 27.226351,0.28046314 h -0.02554 l 0.02554,0.0510854 -0.05109,0.13409907 -0.07663,0.12771341 c 0,0.076628 0,0.15325608 0,0.21711278 0,0.076628 0.02554,0.14687042 0.07663,0.20434144 l -0.02554,0.581096 -0.261813,0.083014 -0.121327,-0.0447 c -0.07024,0 -0.146871,0.019157 -0.217113,0.057471 -0.06386,0.038314 -0.146871,0.051085 -0.229884,0.031928 l -0.02554,0.063857 -0.07024,0.025543 0.01916,0.1787987 0.204341,0.1468705 c 0.102171,0 0.204342,-0.00639 0.293741,-0.038314 0.08301,-0.025543 0.178799,-0.051085 0.274584,-0.083014 h 0.06386 c -0.0894,0.5172393 -0.204341,1.0217073 -0.325669,1.5134039 -0.134099,0.4916966 -0.261812,0.9961645 -0.38314,1.4878611 l 0.02554,0.2681982 v -0.025543 h 0.05109 z m 0.153256,-0.4597682 -0.02554,0.025543 -0.02554,-0.025543 v -0.070242 h 0.05109 z m 2.943794,-0.3128978 0.268198,-0.019157 0.0447,-0.089399 -0.02554,-0.089399 -0.402297,-0.089399 C 29.333622,4.2268073 29.180366,4.1118652 29.052653,3.9841518 28.912168,3.8500528 28.797226,3.7159537 28.695055,3.5626976 h -0.02554 l -0.02554,0.1404848 c 0.01916,0.076628 0.03193,0.1596417 0.05109,0.2362698 0.01916,0.076628 0.05109,0.153256 0.102171,0.2234984 0.10217,0.1149421 0.229884,0.2171128 0.363983,0.3001265 0.134099,0.076628 0.280969,0.1277134 0.440611,0.1404848 z m -1.040864,-2.0114862 0.498082,-0.0447 0.28097,0.019157 0.453382,-0.0447 v -0.0447 h 0.121328 l 0.02554,-0.0447 v -0.0447 l -0.197956,-0.063857 c -0.255427,0 -0.491697,0.012771 -0.721581,0.0447 -0.229884,0.031928 -0.459768,0.063857 -0.676881,0.1085564 0,0.0447 0.02554,0.070242 0.08301,0.070242 0.05747,0 0.102171,0.012771 0.134099,0.0447 z"
         id="path302" />
      <path
         d="m 33.024527,5.2102005 0.153257,-0.025543 c 0.0894,-0.070242 0.159641,-0.1404847 0.217112,-0.2298841 0.0447,-0.089399 0.0894,-0.1724131 0.134099,-0.2681981 0.229885,-0.1787988 0.478926,-0.3320549 0.740738,-0.4469969 0.261813,-0.1149421 0.536396,-0.1979558 0.830137,-0.2426555 0.159642,-0.012771 0.312898,-0.00639 0.466154,0.012771 0.159642,0.025543 0.287355,0.089399 0.408683,0.1979558 l -0.0447,0.089399 -0.593867,-0.1340991 0.185185,0.1340991 -0.02554,0.070242 v 0.019157 l 0.0894,0.025543 0.127714,0.2298842 0.236269,0.1404847 c 0.09578,0.012771 0.172414,0 0.255427,-0.031928 0.08301,-0.031928 0.153256,-0.057471 0.229884,-0.083014 l 0.0894,-0.2107272 C 36.504718,4.348135 36.485561,4.2587357 36.460018,4.175722 36.42809,4.0927082 36.377004,4.0096945 36.306762,3.9330665 36.204591,3.8117387 36.083263,3.7351107 35.949164,3.690411 35.802294,3.652097 35.661809,3.6265543 35.521325,3.613783 c -0.332055,0 -0.651339,0.0447 -0.951465,0.1213277 -0.300127,0.083014 -0.587482,0.2043415 -0.868451,0.3512119 h -0.03831 L 33.790808,3.1987144 V 2.1897785 l -0.01916,-0.025543 V 1.9598944 l 0.23627,-0.1851844 0.0894,-0.1979558 h 0.05108 v -0.051085 h 0.03831 l 0.01277,-0.051085 v -0.019157 h -0.05109 v -0.076628 h 0.03831 v -0.012771 l -0.0894,0.063857 v 0.025543 h -0.01916 v 0.019157 h -0.0447 v -0.019157 l -0.242655,0.1468704 h -0.06386 v 0.012771 h -0.05109 C 33.650323,1.4490408 33.62478,1.2830134 33.599238,1.0978289 33.567309,0.92541583 33.52261,0.7593884 33.465139,0.59974665 h -0.02554 L 33.592852,1.4554265 33.580081,1.7044676 33.09477,1.908809 c -0.134099,0.019157 -0.242656,0.00639 -0.344826,-0.031928 -0.108557,-0.031928 -0.204342,-0.076628 -0.306513,-0.1213277 v -0.025543 l 0.05747,0.0447 0.02554,0.076628 c 0.08301,0.038314 0.178799,0.089399 0.274584,0.1532561 0.0894,0.063857 0.19157,0.1085564 0.293741,0.1340991 l 0.485311,-0.063857 v -0.0447 h 0.05747 l 0.02554,0.3703688 c 0.0064,0.3192835 0.0064,0.6385671 -0.02554,0.9450792 -0.03193,0.3128979 -0.09578,0.6066387 -0.197956,0.8812225 L 33.09477,4.4119917 v 0.025543 h -0.08301 l 0.01277,0.089399 c -0.02554,0.076628 -0.0447,0.1532561 -0.05747,0.2298841 -0.01916,0.070242 -0.05109,0.1404848 -0.09578,0.1979558 l 0.07024,0.070242 0.01916,0.1340991 0.0894,0.025543 z m 2.99488,-3.8314021 h 0.134099 v -0.038314 c 0.03831,0 0.08301,0.00639 0.127713,0.012771 0.0447,0.00639 0.07024,-0.012771 0.08301,-0.051085 l 0.07024,-0.025543 0.0894,-0.1468704 -0.02554,-0.057471 c -0.05747,-0.0830137 -0.121328,-0.1404847 -0.19157,-0.17879872 -0.07663,-0.038314 -0.159642,-0.076628 -0.242656,-0.10217073 -0.108556,0 -0.210727,0.0127713 -0.306512,0.0319283 -0.108556,0.0255427 -0.210727,0.0510854 -0.306512,0.0766281 l 0.0447,0.10217075 c 0.08301,0.057471 0.172413,0.1085564 0.261812,0.1532561 0.08301,0.0447 0.172413,0.1021707 0.261813,0.172413 z"
         id="path304" />
      <path
         d="m 38.848245,5.0824871 0.0894,-0.012771 v -0.025543 l 0.07024,-0.012771 v -0.0447 l 0.236269,-0.0447 c -0.01277,-0.019157 -0.03193,-0.038314 -0.05108,-0.051085 -0.02554,-0.012771 -0.03831,-0.031928 -0.03831,-0.063857 l -0.05747,-0.038314 0.03831,-0.089399 v -0.019157 l -0.114942,0.031928 c -0.159642,-0.031928 -0.319284,-0.070242 -0.478925,-0.1213277 -0.159642,-0.0447 -0.319284,-0.083014 -0.47254,-0.1213277 h -0.02554 l 0.07024,0.1724131 0.172413,0.1468704 v 0.019157 l 0.261812,0.1787988 h 0.05747 l 0.01277,0.0447 z m 1.23882,0 -0.03831,-0.038314 0.0064,-0.0447 0.07663,0.031928 0.261812,-0.1340991 V 4.87176 h 0.01277 l -0.07663,-0.063857 v -0.019157 l -0.05109,-0.019157 -0.01277,-0.0447 C 40.13815,4.6801899 40.016822,4.6354902 39.882723,4.6035619 39.75501,4.5716335 39.614525,4.5460908 39.486812,4.5333195 h -0.166028 l 0.01916,0.0447 0.102171,0.076628 v 0.025543 c 0.07663,0.057471 0.146871,0.1085564 0.229884,0.1404847 0.07663,0.0447 0.146871,0.095785 0.229884,0.1532561 l 0.01277,-0.019157 0.0894,0.031928 z m 1.532561,-0.083014 -0.0447,-0.089399 V 4.852603 l 0.05747,0.0447 c 0.03831,0 0.07663,0.00639 0.108556,0.025543 0.03193,0.019157 0.06386,0.038314 0.09578,0.051085 l 0.0447,-0.019157 V 4.929231 H 41.84951 L 41.817581,4.87176 v -0.031928 c 0.0447,0.019157 0.08301,0.031928 0.121328,0.031928 0.0447,0 0.08301,0.00639 0.127714,0.012771 h 0.0447 l 0.0447,-0.057471 V 4.795132 l -0.166027,-0.051085 v -0.031928 h 0.05747 v -0.012771 h -0.01277 v -0.057471 c -0.07663,-0.019157 -0.140484,-0.0447 -0.210727,-0.076628 -0.07024,-0.031928 -0.14687,-0.051085 -0.217113,-0.070242 v -0.025543 c -0.108556,-0.057471 -0.223498,-0.095785 -0.33844,-0.1149421 -0.121328,-0.012771 -0.23627,-0.038314 -0.357598,-0.076628 h -0.0447 l 0.134099,0.2362698 h 0.02554 v 0.019157 l 0.09578,0.1085564 h 0.03193 l 0.07663,0.070242 0.114942,0.031928 0.09578,0.1404847 -0.01277,-0.0447 v -0.031928 l 0.134099,0.1021707 z m 0.632181,-0.2554268 c 0.0894,-0.031928 0.178799,-0.063857 0.261813,-0.095785 0.08301,-0.031928 0.172413,-0.063857 0.255426,-0.083014 0.05747,-0.00639 0.114942,0.00639 0.159642,0.0447 0.0447,0.038314 0.08301,0.070242 0.127713,0.089399 h 0.0447 v -0.0447 l 0.05747,0.025543 h 0.03193 v -0.025543 h 0.03193 v -0.031928 l 0.166027,0.031928 0.108557,-0.012771 -0.03193,-0.063857 -0.0447,-0.012771 -0.01277,-0.038314 C 43.260743,4.4183774 43.107487,4.3353637 42.954231,4.271507 42.794589,4.214036 42.622176,4.1693363 42.443377,4.1501793 l -0.07663,0.012771 -0.01277,-0.012771 -0.363983,0.057471 c 0.0894,0.012771 0.178798,0.025543 0.261812,0.0447 0.0894,0.012771 0.172413,0.038314 0.242656,0.070242 -0.01916,0.076628 -0.0447,0.1468704 -0.0894,0.2107271 -0.0447,0.070242 -0.09578,0.1340991 -0.153256,0.1915701 z M 39.812481,3.7989674 c 0.166027,-0.025543 0.319284,-0.063857 0.466154,-0.1213277 0.140485,-0.057471 0.293741,-0.1149421 0.446997,-0.1660274 l 0.05747,0.019157 0.217113,-0.070242 0.0447,0.00639 0.166028,0.2362698 0.134099,-0.0447 0.07024,0.031928 0.07024,-0.031928 c 0.07024,-0.2043415 0.134099,-0.4214543 0.185184,-0.6321814 0.05747,-0.2107271 0.127713,-0.4214542 0.210727,-0.6321813 h 0.02554 l 0.01277,-0.0447 0.05747,-0.031928 v -0.025543 l 0.0447,-0.019157 c 0.01916,-0.025543 0.03193,-0.051085 0.0447,-0.083014 0.0064,-0.031928 0.01916,-0.051085 0.02554,-0.083014 l 0.06386,-0.019157 0.02554,-0.1596418 h 0.05109 l -0.0447,-0.083014 c -0.01277,-0.00639 -0.02554,-0.025543 -0.03831,-0.0447 -0.01916,-0.019157 -0.03831,-0.019157 -0.07024,-0.012771 l -0.03193,-0.076628 c -0.08301,-0.057471 -0.166028,-0.1021708 -0.255427,-0.1277134 -0.0894,-0.025543 -0.178799,-0.0447 -0.287355,-0.057471 l -0.434226,0.076628 c -0.09578,0 -0.185184,-0.025543 -0.249041,-0.076628 -0.07663,-0.0447 -0.159642,-0.070242 -0.23627,-0.070242 v -0.0447 l 0.06386,-0.031928 0.01277,-0.025543 c 0.102171,-0.012771 0.19157,-0.0447 0.268198,-0.089399 0.07663,-0.038314 0.166028,-0.063857 0.255427,-0.070242 l 0.01277,-0.0447 0.0894,-0.012771 v -0.031928 l 0.09578,-0.025543 v -0.012771 l 0.05747,-0.025543 V 1.0084295 L 41.37697,0.9318015 C 41.255643,0.89348748 41.147086,0.84240211 41.044915,0.79131675 40.936359,0.73384572 40.821417,0.6955317 40.693704,0.68914603 l -0.05747,0.0127713 -0.127713,-0.0127713 -0.01277,-0.0255427 C 40.37442,0.59336098 40.259478,0.53588995 40.13815,0.48480458 40.023208,0.44010489 39.895495,0.38901953 39.774167,0.34431984 h -0.01277 l 0.01277,0.0702424 V 0.4592619 C 39.646454,0.66998902 39.525126,0.88071614 39.403798,1.0914433 39.28247,1.308556 39.141986,1.5065118 38.982344,1.6853106 l 0.172413,-0.083014 0.197956,-0.2107272 0.217113,-0.1213277 0.02554,-0.0447 0.03193,-0.0447 h 0.03193 v -0.031928 h 0.02554 l 0.01916,-0.0447 c 0.10217,-0.038314 0.210727,-0.083014 0.325669,-0.12771341 0.102171,-0.038314 0.217113,-0.0830137 0.319283,-0.12771341 l 0.05747,0.0255427 C 40.291406,1.0786719 40.18285,1.2830134 40.087065,1.4873548 c -0.0894,0.2043414 -0.204342,0.4022972 -0.325669,0.600253 v 0.031928 l 0.05109,-0.031928 0.0447,-0.083014 0.0447,-0.019157 h 0.03193 l 0.07024,0.2171128 0.0447,0.012771 v 0.0447 h 0.02554 v 0.031928 l 0.0447,0.0447 0.0447,0.012771 0.05747,-0.012771 c 0.03193,0 0.05747,0 0.08301,0 0.01916,0 0.03193,0.012771 0.0447,0.0447 l -0.01916,0.1660275 c -0.121327,0.057471 -0.249041,0.1213277 -0.370369,0.172413 -0.127713,0.057471 -0.249041,0.1213278 -0.376754,0.1915702 h -0.0447 L 39.454884,2.7517175 C 39.32717,2.6814751 39.205842,2.6303898 39.071743,2.5729187 38.94403,2.5154477 38.816316,2.4579767 38.694989,2.39412 h -0.0447 l 0.332055,0.2937408 c 0.05109,0.070242 0.09578,0.1468704 0.127713,0.2171128 0.03193,0.063857 0.0447,0.1468704 0.0447,0.2362698 l 0.07024,0.057471 0.07024,0.1277134 0.204341,0.1596418 0.127714,-0.019157 v -0.019157 l 0.10217,0.019157 v 0.031928 l -0.0447,0.031928 0.01916,0.1468704 z m 0.05747,-0.3959115 -0.01277,0.012771 -0.07024,-0.012771 c -0.02554,-0.051085 -0.0447,-0.1085564 -0.05747,-0.1660275 -0.01916,-0.051085 -0.0447,-0.1085564 -0.0894,-0.1532561 l 0.01916,-0.0447 c 0.09578,-0.051085 0.197956,-0.095785 0.312898,-0.1277134 0.102171,-0.038314 0.210727,-0.076628 0.319283,-0.1149421 h 0.03831 c 0.01916,0.076628 0.0064,0.1340991 -0.0447,0.1724131 -0.05747,0.0447 -0.09578,0.1021707 -0.121328,0.1596417 h -0.03193 l -0.242656,0.2426555 z m 0.523625,-0.057471 -0.217113,0.083014 h -0.05747 v -0.0447 l 0.07024,-0.012771 v -0.025543 l 0.121327,-0.076628 h 0.05109 l 0.0447,0.057471 z m 0.47254,-0.063857 h -0.172413 l 0.05747,-0.1979558 -0.01277,-0.076628 0.05747,-0.1404847 c 0.07663,-0.057471 0.159642,-0.1085564 0.249041,-0.1468705 0.07663,-0.038314 0.159642,-0.083014 0.229885,-0.153256 l -0.0447,-0.0447 V 2.489905 c -0.07024,-0.019157 -0.140485,-0.0447 -0.210727,-0.063857 -0.07024,-0.019157 -0.153256,-0.019157 -0.23627,-0.00639 l -0.0447,-0.057471 v -0.070242 l 0.0447,-0.031928 v -0.025543 c 0.08301,-0.051085 0.166027,-0.1021707 0.249041,-0.1724131 0.07663,-0.070242 0.159642,-0.114942 0.255427,-0.1468704 h 0.09578 c 0,0.2298841 -0.01277,0.4533826 -0.0447,0.6704954 -0.03193,0.2171128 -0.07663,0.4278399 -0.127713,0.638567 l -0.05747,0.012771 h -0.08301 v -0.012771 l -0.19157,-0.051085 -0.08301,-0.1213277 h -0.01277 l 0.05747,0.1851844 h 0.02554 z"
         id="path306" />
    </g>
  </g>
</svg>
