<?xml version="1.0" encoding="UTF-8" standalone="no"?>
<!-- Created with Inkscape (http://www.inkscape.org/) -->

<svg
   width="35.000999mm"
   height="7mm"
   viewBox="0 0 35.000998 7"
   version="1.1"
   id="svg5"
   inkscape:version="1.2.2 (b0a8486, 2022-12-01)"
   sodipodi:docname="topMySubscribedLOGO.svg"
   xmlns:inkscape="http://www.inkscape.org/namespaces/inkscape"
   xmlns:sodipodi="http://sodipodi.sourceforge.net/DTD/sodipodi-0.dtd"
   xmlns="http://www.w3.org/2000/svg"
   xmlns:svg="http://www.w3.org/2000/svg">
  <sodipodi:namedview
     id="namedview7"
     pagecolor="#ffffff"
     bordercolor="#000000"
     borderopacity="0.25"
     inkscape:showpageshadow="2"
     inkscape:pageopacity="0.0"
     inkscape:pagecheckerboard="0"
     inkscape:deskcolor="#d1d1d1"
     inkscape:document-units="mm"
     showgrid="false"
     inkscape:zoom="4.7488465"
     inkscape:cx="62.85737"
     inkscape:cy="18.004372"
     inkscape:window-width="1440"
     inkscape:window-height="771"
     inkscape:window-x="1080"
     inkscape:window-y="1616"
     inkscape:window-maximized="0"
     inkscape:current-layer="layer1" />
  <defs
     id="defs2">
    <rect
       x="-1.8951972"
       y="4.0009718"
       width="213.31496"
       height="77.703079"
       id="rect268" />
  </defs>
  <g
     inkscape:label="Layer 1"
     inkscape:groupmode="layer"
     id="layer1">
    <path
       style="fill:none;fill-rule:evenodd;stroke:#000000;stroke-width:0.21864px;stroke-linecap:butt;stroke-linejoin:miter;stroke-opacity:1"
       d="m 4.4186655,7.736698 v 0"
       id="path208"
       inkscape:connector-type="polyline"
       inkscape:connector-curvature="0" />
    <text
       xml:space="preserve"
       style="font-size:8.85995px;font-family:KouzanBrushFontGyousyoOTF;-inkscape-font-specification:KouzanBrushFontGyousyoOTF;fill:#000000;stroke-width:0.166124"
       x="-1.3619121"
       y="8.4681635"
       id="text214"
       transform="scale(0.67763293,1.4757252)"><tspan
         sodipodi:role="line"
         id="tspan212"
         style="stroke-width:0.166124"
         x="-1.3619121"
         y="8.4681635" /></text>
    <text
       xml:space="preserve"
       transform="scale(0.26458333)"
       id="text266"
       style="font-size:53.3333px;font-family:KouzanBrushFontGyousyoOTF;-inkscape-font-specification:KouzanBrushFontGyousyoOTF;white-space:pre;shape-inside:url(#rect268);display:inline;fill:#000000" />
    <g
       aria-label="登録中一覧"
       transform="scale(0.96047086,1.041156)"
       id="text932"
       style="font-size:7.64064px;font-family:KouzanBrushFontGyousyoOTF;-inkscape-font-specification:KouzanBrushFontGyousyoOTF;stroke-width:0.143262">
      <path
         d="m 1.6458717,6.1814967 h 0.030563 V 6.1585748 L 1.9132941,6.0898091 1.936216,6.0516059 C 2.2036384,5.9904807 2.4787014,5.9446369 2.7537644,5.921715 3.0288275,5.8987931 3.3191718,5.8911524 3.6247974,5.8987931 l 0.2292192,0.038203 0.076406,-0.015281 0.2597817,0.038203 -0.015281,0.045844 -0.091688,0.045844 v 0.030562 l 0.084047,0.076406 c 0.1680941,0.022922 0.3285475,0.015281 0.4737197,-0.022922 0.1451721,-0.045844 0.2903443,-0.084047 0.4431571,-0.106969 l 0.084047,0.015281 0.084047,0.00764 0.022922,-0.030563 L 5.1452847,5.6542926 C 5.0841596,5.6008081 5.0153938,5.5549643 4.9542687,5.5244017 4.8931436,5.4861985 4.8167372,5.4632766 4.7403308,5.4479953 l -0.680017,-0.045844 c -0.2139379,-0.00764 -0.4278758,-0.00764 -0.6418137,0 -0.2139379,0.00764 -0.4202352,0.015281 -0.6188918,0.038203 H 2.7690457 L 2.784327,5.3868702 3.2045622,5.0812446 C 3.2427654,5.0430414 3.2962499,5.0048382 3.3497343,4.966635 3.4032188,4.9360725 3.441422,4.8978693 3.4719846,4.8443848 L 3.3955782,4.6304469 C 3.3497343,4.5922437 3.3038905,4.5616811 3.250406,4.5387592 3.2045622,4.5158373 3.1434371,4.4852747 3.0899526,4.4547121 c -0.099328,0.030563 -0.1833754,0.053484 -0.275063,0.061125 -0.099328,0.015281 -0.191016,0.038203 -0.2827037,0.061125 H 2.4557795 L 2.5169046,4.500556 2.6391548,4.3859464 3.1510777,4.0421176 V 3.9886331 L 3.0288275,3.8511016 3.0441087,3.7823358 3.1128745,3.7441326 3.632438,3.3468194 c 0,-0.030563 0,-0.068766 0,-0.099328 -0.00764,-0.030563 -0.022922,-0.061125 -0.045844,-0.084047 L 3.5101878,3.1023189 V 3.0488344 L 3.2351247,2.972428 3.1510777,2.9647874 v 0.030562 C 2.9294992,3.0641157 2.7308425,3.163444 2.5321859,3.2933349 2.3258886,3.4155851 2.1501539,3.5760386 1.9744192,3.7441326 l -0.030563,-0.00764 -0.045844,-0.3438288 0.061125,-0.2674224 0.030563,0.00764 0.099328,-0.1222503 0.045844,-0.038203 C 2.3640918,2.8960216 2.6009516,2.8119746 2.8378115,2.7279276 3.0670307,2.6515212 3.3115311,2.5827554 3.5636723,2.5292709 L 3.548391,2.4375832 3.5254691,2.4299426 3.5101878,2.3611768 C 3.4643439,2.3076924 3.4108595,2.2618485 3.3420937,2.2389266 3.2733279,2.2160047 3.2122028,2.1930828 3.1357964,2.1701609 l -0.091688,-0.00764 -0.00764,0.053485 C 2.8301708,2.2465672 2.6315142,2.3000517 2.4557795,2.3764581 2.2724041,2.4605052 2.0813881,2.5445522 1.8980128,2.6209586 H 1.829247 L 1.9820598,2.2542079 h 0.038203 l 0.061125,-0.191016 h 0.030563 L 2.3640918,1.6505973 2.593311,1.5971129 c 0.5654073,0.35911 1.1155334,0.7564233 1.6656595,1.1842991 0.550126,0.4431571 1.1690179,0.7258608 1.8566754,0.8633923 L 6.2913807,3.6218824 V 3.6066011 C 5.8787861,3.4843509 5.4891135,3.3009755 5.137644,3.0488344 4.7938153,2.804334 4.4347052,2.5598335 4.0832358,2.315333 v -0.030563 l -0.3973133,-0.3896726 0.00764,-0.068766 0.1604535,-0.030563 v -0.030563 c 0.053484,0.00764 0.1069689,-0.00764 0.1528128,-0.038203 0.038203,-0.015281 0.084047,-0.045844 0.1222502,-0.084047 l 0.061125,-0.099328 h 0.038203 L 4.3200956,1.467222 4.3812207,1.3678937 4.3277362,1.1539558 4.2131266,1.0699087 V 1.0317055 L 4.1137983,0.9705804 3.8005321,0.96293976 c 0.015281,0.0382032 0.045844,0.0611251 0.076406,0.084047 0.038203,0.022922 0.068766,0.030563 0.1069689,0.038203 C 3.9457042,1.192159 3.8692978,1.2914873 3.7776102,1.3908156 3.6782819,1.4825033 3.5789535,1.5741909 3.5025471,1.6735193 3.3650156,1.5971129 3.2274841,1.5207065 3.1052339,1.4366594 2.975343,1.3678937 2.8378115,1.3144092 2.6849987,1.276206 L 2.784327,1.1081119 c 0.045844,-0.00764 0.091688,-0.022922 0.1222502,-0.061125 0.038203,-0.030563 0.076406,-0.045844 0.1298909,-0.038203 L 3.0899526,0.86361145 3.3420937,0.84833017 3.2656873,0.64203289 C 3.2427654,0.62675161 3.2274841,0.6038297 3.2045622,0.58090778 3.1816403,0.55798586 3.1510777,0.55034522 3.1128745,0.55798586 V 0.53506394 L 2.4787014,0.2982041 2.402295,0.30584474 2.1730758,0.67259545 1.5236214,0.78720505 c -0.091688,-0.007641 -0.1833753,-0.007641 -0.2597817,-0.0152813 -0.091688,0 -0.1757347,-0.0152813 -0.2521411,-0.0534845 h -0.0458439 l -0.007641,0.0382032 v 0.0229219 L 1.1186675,0.96293976 c 0.038203,0.0382032 0.084047,0.084047 0.1222503,0.12989084 0.038203,0.053484 0.076406,0.084047 0.1375315,0.099328 l -0.00764,0.038203 h 0.038203 L 1.470137,1.360253 1.8827315,1.3984562 1.7528406,1.7652069 H 1.7222781 C 1.6535123,1.9409417 1.5771059,2.1013951 1.4777776,2.2618485 1.3784493,2.422302 1.2944022,2.590396 1.2103552,2.7584901 L 1.172152,2.7508495 C 1.0269798,2.9953499 0.87416705,3.2322098 0.69843234,3.4537883 0.52269762,3.6830075 0.36224419,3.9198674 0.20179075,4.1490866 h -0.0305626 l -0.09932832,0.076406 0.01528128,0.076406 0.0764064,0.030563 c 0.0458438,-0.00764 0.0993283,-0.00764 0.16045344,-0.00764 0.0458438,0.00764 0.0916877,-0.00764 0.12989087,-0.038203 0.0229219,-0.00764 0.0458438,-0.015281 0.0687658,-0.015281 0.0229219,-0.00764 0.0382032,-0.022922 0.0458438,-0.061125 l 0.0687658,-0.030563 0.0382032,-0.053484 0.0687658,-0.015281 C 0.93529217,3.9122267 1.1033862,3.6906482 1.2638397,3.4690696 1.4166525,3.2474911 1.5694653,3.0182719 1.7069968,2.804334 l 0.1604534,0.038203 0.2750631,-0.00764 h 0.045844 l -0.00764,0.068766 H 2.1501539 C 1.9744192,3.0259125 1.8827315,3.1940066 1.8521689,3.3926632 1.8216064,3.5989605 1.7834032,3.7976171 1.7375593,3.9886331 l 0.022922,0.1451722 0.2521411,0.3361881 0.053484,0.022922 -0.038203,0.084047 0.015281,0.191016 0.038203,0.00764 c 0,0.045844 0.015281,0.084047 0.038203,0.1146096 0.022922,0.022922 0.053484,0.053484 0.076406,0.076406 L 2.7155612,4.7909003 h 0.038203 L 2.2189197,5.348667 C 2.0966694,5.4250734 1.9744192,5.4861985 1.8521689,5.5244017 1.7222781,5.5626049 1.6076685,5.6008081 1.4777776,5.6313707 l -0.045844,0.084047 0.053484,0.2521411 h 0.038203 l -0.00764,0.053484 z M 2.1883571,4.4547121 2.1730758,4.4623528 2.127232,4.3401025 C 2.1501539,4.1872898 2.1883571,4.0268363 2.2571229,3.8893048 2.3106073,3.7441326 2.3946544,3.6142418 2.4939827,3.4843509 L 2.8148896,3.3468194 H 2.868374 L 2.5398265,3.6371637 2.4787014,3.7441326 c 0,0.045844 0.00764,0.091688 0.030563,0.1298909 0.022922,0.038203 0.038203,0.076406 0.061125,0.1298909 -0.038203,0.084047 -0.099328,0.1604534 -0.1757347,0.2292192 -0.076406,0.061125 -0.1375315,0.1375315 -0.2062973,0.2062973 z m -1.039127,-2.0858946 0.068766,0.00764 0.022922,-0.068766 h 0.053484 L 1.256199,2.1319577 C 1.1950739,2.0708325 1.1339488,2.0249887 1.0804643,1.9715042 1.0193392,1.9180197 0.95821409,1.8874572 0.87416705,1.8721759 0.80540129,1.8645353 0.72899489,1.8645353 0.6525885,1.8568946 c -0.084047,-0.00764 -0.16045344,0.00764 -0.22157856,0.038203 l 0.0993283,0.1298909 c 0.0993283,0.061125 0.19865663,0.1298909 0.29798495,0.1986566 0.0993283,0.068766 0.20629729,0.1222503 0.32090689,0.1451722 z m 3.499413,0.1528128 C 4.8090965,2.4834271 4.9466281,2.422302 5.0765189,2.3458956 5.1987692,2.2618485 5.32866,2.1778015 5.4585509,2.0937545 v -0.038203 h 0.030563 l 0.1833753,-0.1146096 0.022922,-0.038203 -0.038203,-0.1833754 -0.053484,-0.00764 0.00764,-0.038203 -0.053484,-0.053484 C 5.5120354,1.5818316 5.4661916,1.5436284 5.4203477,1.5207065 5.3668632,1.4977845 5.3133788,1.4748626 5.2522536,1.4595814 l -0.4966415,0.053484 c 0.053484,0.038203 0.1069689,0.061125 0.1757347,0.084047 0.061125,0.022922 0.1298909,0.045844 0.1986566,0.061125 C 5.0841596,1.8110508 5.0153938,1.9638636 4.9160655,2.0861138 4.8167372,2.2236453 4.7097682,2.3535362 4.587518,2.4681458 Z"
         id="path294" />
      <path
         d="m 11.807908,5.9599182 0.06877,-0.030563 c 0.05348,-0.068766 0.09169,-0.1375315 0.09933,-0.2139379 0.0076,-0.068766 0.02292,-0.1528128 0.0382,-0.2368598 L 11.960721,4.8291035 V 3.4537883 l 0.08405,-0.4890009 V 2.590396 l -0.191016,-0.061125 v -0.053485 c 0.252141,-0.053484 0.511923,-0.1146096 0.771704,-0.1604534 0.259782,-0.053484 0.519564,-0.076406 0.794627,-0.076406 l 0.106969,-0.1375315 -0.02292,-0.106969 -0.489001,-0.168094 c -0.106969,0.099328 -0.229219,0.1604534 -0.35911,0.1833753 -0.145172,0.022922 -0.267423,0.053485 -0.397313,0.091688 h -0.106969 c 0.0382,-0.2521411 0.09933,-0.489001 0.191016,-0.7029389 0.09169,-0.2215785 0.175734,-0.4278758 0.267422,-0.64181371 V 0.61911097 L 12.151737,0.4510169 c -0.198657,0 -0.374392,0.0382032 -0.534845,0.10696896 -0.160454,0.0764064 -0.35911,0.10696895 -0.573048,0.084047 l 0.03056,0.084047 c 0.05349,0.0382032 0.11461,0.0687658 0.175735,0.1146096 0.06113,0.0458438 0.129891,0.0764064 0.206297,0.0993283 0.06113,0 0.137532,-0.007641 0.213938,-0.0152813 0.06877,-0.007641 0.137532,-0.0305626 0.183376,-0.0687658 h 0.05348 l -0.03056,0.29798499 h -0.23686 l -0.03056,0.053484 -0.802267,0.297985 0.129891,0.1680941 0.160453,-0.030563 h 0.137532 c -0.0382,0.1375315 -0.106969,0.275063 -0.213938,0.3896726 -0.11461,0.1146096 -0.206297,0.2368599 -0.297985,0.3591101 l -0.328548,0.2521411 c -0.05348,0 -0.09933,0.015281 -0.145172,0.030563 -0.04584,0.030562 -0.07641,0.076406 -0.09169,0.1298909 l 0.07641,0.3209068 0.893955,-0.4049539 c 0.05348,-0.022922 0.09933,-0.00764 0.145172,0.038203 0.04584,0.045844 0.08405,0.076406 0.12225,0.099328 l 0.08405,0.2368599 0.04584,0.030562 c 0.129891,0.2139379 0.191016,0.4584384 0.183375,0.7182202 -0.0076,0.2597817 0,0.5042822 0.0382,0.741142 V 5.4250734 L 11.47936,5.3639483 11.257782,5.1270884 11.425876,5.6619332 Z M 10.692374,5.3945108 c 0.05349,-0.1757347 0.129891,-0.3667507 0.213938,-0.550126 0.09169,-0.191016 0.183376,-0.3743914 0.275063,-0.5577667 h 0.05349 l 0.05348,-0.106969 -0.213938,0.191016 -0.328547,0.2903443 h -0.05349 C 10.745859,4.5081966 10.806984,4.3324619 10.868109,4.1643678 10.929234,3.9886331 10.998,3.8281797 11.074406,3.6600856 V 3.4767103 l -0.404954,-0.084047 -0.297984,0.061125 0.267422,0.2062973 c 0,0.2445005 -0.01528,0.466079 -0.05349,0.6800169 -0.0382,0.2215786 -0.12225,0.4125946 -0.267422,0.59597 l 0.02292,0.1375315 h 0.08405 v 0.053484 z M 8.537714,5.3104638 9.9894355,4.5616811 9.958873,4.4241496 C 9.7831383,4.4012277 9.6150442,4.4317902 9.4775127,4.5158373 9.3323405,4.5922437 9.1871684,4.6686501 9.0419962,4.7221345 H 8.9885117 L 9.1031213,4.5081966 h 0.1375315 l 0.022922,-0.1375315 0.1604535,-0.191016 0.084047,-0.1604534 h 0.053484 l 0.191016,-0.191016 v -0.053485 h 0.053484 L 9.9130291,3.6142418 V 3.5301947 L 9.7220131,3.4537883 H 9.4775127 v 0.053485 l -0.106969,0.022922 H 9.3170592 C 9.2941373,3.3697413 9.3094186,3.2245691 9.3476218,3.0870376 9.385825,2.9571467 9.4469501,2.8348965 9.5386378,2.7202869 V 2.590396 L 9.4240282,2.506349 9.2864967,2.3229736 V 2.208364 l 0.084047,-0.030562 0.2215786,-0.3209069 -0.030563,-0.053484 -0.053484,-0.030563 c -0.1146096,-0.015281 -0.2062973,0 -0.2674224,0.053484 C 9.1642464,1.8798165 9.0801994,1.933301 8.9885117,1.9715042 H 8.9426679 V 1.8568946 L 8.6905268,2.0249887 8.8051364,2.3458956 H 8.9426679 L 8.5071514,3.0411938 c -0.022922,0.076406 -0.00764,0.1375315 0.045844,0.191016 0.045844,0.053484 0.084047,0.1069689 0.1146096,0.1604534 L 8.9885117,3.2627723 h 0.084047 l 0.030563,0.1298909 V 3.6142418 L 8.5606359,3.9886331 8.3237761,3.8816642 h -0.053484 v 0.076406 l 0.2674224,0.275063 c 0.053484,0.022922 0.099328,0.015281 0.1146096,-0.015281 0.022922,-0.022922 0.061125,-0.053484 0.099328,-0.091688 h 0.053484 L 8.9121053,4.30954 8.7745738,4.584603 c -0.053485,0.091688 -0.1222502,0.1451722 -0.1986566,0.1604535 -0.084047,0.022922 -0.1528128,0.068766 -0.2062973,0.1375315 0,0.084047 0.015281,0.1604534 0.053484,0.2292192 0.038203,0.068766 0.076406,0.1298908 0.1146096,0.1986566 z m 4.859447,-0.4813603 0.07641,-0.030563 v -0.053484 l 0.137532,-0.022922 0.160453,-0.1604534 -0.03056,-0.053485 v -0.061125 l 0.08405,0.030563 h 0.03056 L 13.794474,4.393587 C 13.618739,4.3783057 13.443005,4.3401025 13.290192,4.2866181 13.122098,4.2407742 12.961644,4.1796491 12.79355,4.1261646 h -0.06876 l 0.05348,0.106969 -0.05348,0.3285475 v 0.076406 l 0.06876,-0.053484 h 0.305626 v 0.053484 z M 9.0419962,4.0956021 9.0190743,4.1261646 8.8586208,4.0956021 8.9121053,3.9427893 9.0190743,3.8816642 h 0.053484 z M 7.3686961,3.6600856 7.6208372,3.5607573 C 7.7201655,3.4461477 7.8194938,3.3315381 7.9188221,3.2092879 8.0028692,3.079397 8.0639943,2.9495061 8.1021975,2.804334 H 8.155682 L 8.1862445,2.6744431 H 8.239729 C 8.346698,2.3917394 8.4689482,2.124317 8.6064797,1.8645353 8.7363706,1.6047535 8.896824,1.3526124 9.0725588,1.1004713 l 0.1910159,-0.022922 0.022922,-0.0840471 0.3056256,0.0840471 v 0.076406 L 9.0725588,1.6964412 C 9.2406528,1.6047535 9.4011063,1.5130658 9.5692003,1.4213782 9.7220131,1.3373311 9.9053885,1.2914873 10.104045,1.2914873 V 1.0775494 C 9.9741542,0.98586168 9.8366227,0.93237721 9.6914506,0.92473657 9.5539191,0.91709593 9.4011063,0.90181465 9.2635747,0.88653337 L 9.2100903,0.72607993 8.8051364,0.53506394 H 8.6676048 l 0.022922,0.10696895 C 8.5682765,1.1845183 8.4078231,1.7117225 8.2091665,2.2236453 8.0028692,2.7355682 7.7201655,3.2092879 7.3534148,3.6371637 Z m 4.8900099,-0.068766 c 0.09169,-0.076406 0.191016,-0.1451721 0.297984,-0.1986566 0.11461,-0.053484 0.221579,-0.099328 0.320907,-0.1528128 l 0.244501,0.053485 0.2445,-0.084047 v -0.084047 h 0.05349 l 0.02292,-0.053484 v -0.076406 l -0.618892,-0.1910159 -0.244501,0.022922 -0.02292,0.1375315 -0.183375,0.1298909 0.07641,0.061125 z M 8.7745738,3.0946783 8.7516519,3.1252408 H 8.6905268 C 8.7134487,3.0106312 8.7516519,2.9189435 8.8204176,2.8272559 8.8815428,2.7355682 8.9503085,2.6591618 9.0190743,2.590396 h 0.053484 V 2.888381 Z M 11.746783,2.2389266 10.776421,2.590396 h -0.08405 v -0.061125 h 0.05349 l 0.458438,-0.4890009 0.05349,-0.068766 0.466079,-0.3285475 h 0.08405 l -0.03056,0.1833754 -0.221578,0.061125 0.191016,0.2674224 z"
         id="path296" />
      <path
         d="m 18.111421,6.7163415 0.06877,-0.038203 c 0.106969,-0.4431571 0.160453,-0.8939548 0.168094,-1.3676745 0.0076,-0.4584384 0.06113,-0.9168768 0.168094,-1.3600339 0.221578,-0.076406 0.427876,-0.1375315 0.641813,-0.191016 0.213938,-0.053485 0.427876,-0.099328 0.641814,-0.1375315 v -0.038203 l 0.08405,-0.015281 -0.03056,-0.099328 -0.06877,-0.053485 -0.0076,-0.053484 -0.12225,-0.030563 0.05348,-0.076406 0.03056,-0.053485 c 0.07641,0.00764 0.152813,0 0.221579,-0.030562 0.06876,-0.022922 0.129891,-0.061125 0.175734,-0.106969 l 0.03056,-0.068766 h 0.05348 V 2.972428 h 0.03056 l 0.06877,-0.1222502 h 0.0382 l 0.05348,-0.1375315 c 0.09169,-0.022922 0.191016,-0.045844 0.275063,-0.099328 0.07641,-0.053485 0.168095,-0.076406 0.267423,-0.076406 l 0.114609,0.015281 0.267423,-0.038203 c 0,-0.068766 -0.01528,-0.1298908 -0.05349,-0.1833753 -0.0382,-0.061125 -0.06876,-0.1298909 -0.07641,-0.1986566 l -0.12225,-0.068766 -0.01528,-0.038203 h -0.03056 v -0.038203 h -0.03056 V 1.9562229 C 20.831489,1.8721759 20.671035,1.8034101 20.4953,1.7346444 20.327206,1.6811599 20.143831,1.6276754 19.975737,1.5894722 c -0.160453,0.00764 -0.320907,0.015281 -0.48136,0.022922 -0.152813,0.00764 -0.320907,0.015281 -0.47372,0.038203 l -0.244501,-0.015281 c -0.0382,-0.022922 -0.05348,-0.053485 -0.06113,-0.099328 -0.0076,-0.045844 -0.01528,-0.084047 -0.02292,-0.1222502 l 0.01528,-0.061125 C 18.684469,1.1845183 18.669188,1.0164242 18.646266,0.84068953 18.623344,0.67259545 18.562219,0.51214202 18.478172,0.3746105 l -0.06877,-0.0229219 -0.0382,-0.0993283 -0.611252,-0.14517216 -0.137531,0.0152813 0.09933,0.0764064 c 0.04584,0.25214111 0.09169,0.48900094 0.137532,0.73350142 0.0382,0.24450049 0.07641,0.49664159 0.114609,0.75642329 v 0.030563 l -0.229219,-0.084047 -0.198657,0.053484 -0.01528,0.030563 c -0.09169,0.038203 -0.191016,0.076406 -0.290344,0.099328 -0.09169,0.030563 -0.198657,0.053484 -0.305626,0.068766 l -0.07641,-0.022922 -0.23686,0.1069689 -0.06113,0.091688 c 0.02292,0.1146096 0.04584,0.2292192 0.06877,0.3361881 0.02292,0.1146096 0.07641,0.2062973 0.160453,0.2827037 l 0.05348,0.030563 0.06877,0.084047 c 0.183376,-0.045844 0.366751,-0.099328 0.542486,-0.1604534 0.168094,-0.068766 0.343829,-0.1375315 0.519563,-0.2062973 h 0.04584 l 0.02292,0.084047 v 0.8863143 c -0.129891,0.00764 -0.23686,0.030563 -0.351469,0.053484 -0.11461,0.030563 -0.221579,0.061125 -0.336189,0.084047 l -0.09933,0.1069689 0.08405,0.4049539 0.12225,0.068766 c 0.06877,-0.022922 0.129891,-0.045844 0.213938,-0.053484 0.07641,-0.00764 0.152813,-0.022922 0.22922,-0.030563 h 0.137531 l 0.08405,1.9636444 -0.01528,0.6494544 z M 16.812512,4.5158373 c 0.04584,0.00764 0.09169,0.00764 0.12225,-0.00764 0.0382,-0.015281 0.06877,-0.038203 0.106969,-0.061125 l 0.01528,-0.1680941 h 0.0382 l 0.04584,-0.061125 -0.03056,-0.1375315 -0.0382,-0.015281 C 17.018809,4.011555 16.980606,3.9504299 16.965325,3.8740235 16.942403,3.8052578 16.91184,3.736492 16.843075,3.6830075 L 16.78959,3.6218824 16.743746,3.4690696 C 16.705543,3.4155851 16.66734,3.35446 16.613855,3.3009755 16.568012,3.2474911 16.514527,3.1940066 16.461043,3.1481627 L 16.338792,2.972428 C 16.155417,2.888381 15.964401,2.804334 15.773385,2.7202869 15.59001,2.6438805 15.391353,2.5674741 15.207978,2.4834271 v -0.015281 c 0.01528,0.1222502 0.06876,0.2292192 0.145172,0.3285475 0.08405,0.099328 0.152813,0.2062973 0.206297,0.3209069 l -0.01528,0.084047 c -0.02292,0.091688 -0.0076,0.1604535 0.0382,0.2292192 0.0382,0.068766 0.07641,0.1375315 0.12225,0.1986566 l 0.05349,0.030563 0.206297,0.2903443 0.07641,0.030563 v 0.030563 h 0.03056 l 0.0382,0.068766 c 0.0076,0.045844 0.0382,0.068766 0.08405,0.068766 0.04584,0 0.08405,0.015281 0.11461,0.038203 v 0.030562 l 0.09933,0.038203 0.05348,0.053484 c 0.06876,0.015281 0.129891,0.045844 0.175734,0.091688 0.05349,0.045844 0.11461,0.084047 0.175735,0.1146096 z m 1.994207,-1.2989088 -0.168094,0.084047 h -0.03056 l -0.02292,-0.045844 0.02292,-0.053485 -0.02292,-0.1375315 0.0382,-0.1146096 -0.0382,-0.3285475 0.02292,-0.1375315 -0.02292,-0.053485 v -0.045844 l 0.05348,-0.030563 V 2.1319577 l 0.12225,-0.084047 c 0.06877,0 0.137532,0.015281 0.198657,0.045844 0.05348,0.038203 0.12225,0.053484 0.191016,0.053484 l 0.106969,-0.015281 0.03056,-0.091688 0.06877,-0.038203 0.05348,0.022922 0.06113,-0.022922 0.183375,0.022922 c 0,0.076406 -0.0076,0.1604534 -0.03056,0.2292192 -0.02292,0.076406 -0.04584,0.1451721 -0.06877,0.2292192 -0.08405,0.1604534 -0.183376,0.2903443 -0.328548,0.4125945 -0.137531,0.1222503 -0.282703,0.2292192 -0.420235,0.3209069 z"
         id="path298" />
      <path
         d="M 23.436932,3.5913198 C 23.880089,3.4308664 24.330887,3.3086162 24.796966,3.2016472 25.247764,3.0946783 25.706202,2.9953499 26.157,2.9036623 l 0.106969,0.015281 0.07641,-0.015281 0.175735,0.015281 0.06877,-0.015281 c 0.290344,0.00764 0.588329,0.030562 0.878673,0.068766 0.290344,0.030563 0.573048,0.076406 0.848111,0.1451722 h 0.05348 v -0.076406 l 0.04584,0.015281 0.168095,-0.038203 0.336188,0.061125 h 0.05348 l 0.09933,-0.099328 0.09933,-0.3514695 h 0.01528 l -0.07641,-0.068766 V 2.4757864 C 28.823583,2.3611768 28.525598,2.2618485 28.212332,2.1854421 27.891425,2.1166764 27.585799,2.0326293 27.295455,1.9180197 h -0.168094 c 0,0.038203 -0.0076,0.068766 -0.02292,0.076406 -0.02292,0.00764 -0.05348,0.00764 -0.09169,-0.00764 l -0.09169,0.106969 -0.939799,0.091688 c -0.152813,0 -0.297985,-0.022922 -0.443157,-0.068766 -0.137532,-0.038203 -0.275063,-0.091688 -0.389673,-0.1757347 v -0.038203 l -0.09169,-0.038203 -0.01528,-0.061125 c -0.05348,-0.015281 -0.08405,-0.00764 -0.106969,0.015281 -0.02292,0.030563 -0.05348,0.061125 -0.08405,0.084047 l -0.275063,0.2521411 -0.03056,0.053484 -0.687658,0.2903444 -0.09169,-0.022922 c -0.09933,0.053485 -0.198656,0.091688 -0.313266,0.106969 -0.114609,0.015281 -0.221578,0.030563 -0.328547,0.045844 l -0.305626,-0.1069689 -0.06877,0.015281 -0.02292,0.053484 h -0.01528 l -0.03056,0.1833754 v 0.030563 c 0.06876,0.099328 0.152812,0.1910159 0.2445,0.2903443 0.07641,0.099328 0.168094,0.2062972 0.267423,0.2979849 z"
         id="path300" />
      <path
         d="m 31.940949,6.2502625 0.213938,-0.1528128 0.198657,-0.2903443 h 0.0382 l 0.221579,-0.4813603 0.03056,0.00764 c 0.02292,-0.053484 0.05349,-0.1069689 0.09933,-0.1528128 0.04584,-0.053484 0.06877,-0.1069689 0.07641,-0.1757347 h 0.02292 l 0.01528,-0.068766 0.137532,-0.022922 0.03056,-0.061125 -0.01528,-0.068766 c -0.04584,-0.038203 -0.09933,-0.076406 -0.152813,-0.099328 -0.04584,-0.022922 -0.106969,-0.022922 -0.175735,-0.015281 l -0.0076,-0.053484 c 0.160453,-0.061125 0.336188,-0.1298909 0.504282,-0.2139379 0.175735,-0.076406 0.336188,-0.1528128 0.496642,-0.2521411 l 0.06876,0.015281 0.08405,0.1298909 h 0.03056 l 0.03056,0.1375315 0.03056,-0.00764 0.0076,0.030563 0.198656,0.191016 0.11461,-0.038203 -0.0076,-0.8633923 0.09169,-0.6341731 h 0.01528 l 0.01528,-0.038203 -0.03056,-0.1222502 0.06877,-0.3209069 0.01528,-0.00764 -0.0076,-0.030563 -0.0382,0.00764 -0.01528,-0.053485 c -0.07641,-0.068766 -0.168094,-0.106969 -0.259782,-0.1298909 -0.09933,-0.015281 -0.213938,-0.038203 -0.328547,-0.053485 -0.145173,0.030563 -0.282704,0.084047 -0.420236,0.1528128 -0.145172,0.076406 -0.275063,0.1528128 -0.404954,0.2215786 v 0.015281 l 0.122251,0.038203 0.542485,-0.076406 0.198657,0.015281 0.06877,0.5042822 c 0,0.1222502 0,0.2445005 0.0076,0.3667507 0,0.1222502 -0.01528,0.2368598 -0.0382,0.3514694 l -0.09933,0.00764 0.0076,0.091688 -0.305625,-0.084047 h -0.02292 l 0.0076,0.022922 c -0.0382,-0.022922 -0.06113,-0.022922 -0.07641,0 -0.01528,0.022922 -0.03056,0.053485 -0.0382,0.076406 l -0.511923,0.2368598 -0.0382,0.00764 c 0.106969,-0.106969 0.221578,-0.2139379 0.343829,-0.3056256 0.114609,-0.076406 0.2445,-0.1528128 0.382032,-0.2062973 v -0.030563 h 0.0382 l 0.0076,-0.053484 h 0.03056 v -0.068766 l -0.23686,-0.091688 h -0.08405 l -0.02292,0.053484 h -0.0382 l -0.01528,0.030563 -0.244501,0.1146096 h -0.03056 l 0.0076,-0.045844 c 0.11461,-0.099328 0.229219,-0.1986566 0.336188,-0.2979849 0.11461,-0.091688 0.23686,-0.1528128 0.382032,-0.1833754 l 0.06877,-0.1298908 h 0.0382 l -0.0076,-0.053485 c -0.0382,-0.00764 -0.06877,-0.015281 -0.106969,-0.038203 -0.0382,-0.015281 -0.06877,-0.022922 -0.09933,-0.022922 -0.12989,0.015281 -0.259781,0.045844 -0.382032,0.099328 -0.12989,0.053484 -0.252141,0.1222502 -0.374391,0.2062973 h -0.03056 v -0.084047 l -0.09169,-0.084047 -0.01528,-0.061125 -0.252142,-0.099328 H 32.19309 v 0.015281 l 0.137532,0.076406 c -0.0076,0.1604535 -0.01528,0.297985 -0.02292,0.4278759 -0.0076,0.1375315 -0.03056,0.2521411 -0.07641,0.3667507 0.04584,0.068766 0.08405,0.1375315 0.12225,0.2062972 0.0382,0.068766 0.08405,0.1375316 0.145172,0.191016 l -0.02292,0.045844 c -0.0382,0.038203 -0.08405,0.053484 -0.137531,0.061125 -0.05348,0.00764 -0.09169,0.030563 -0.122251,0.053484 0.01528,0.068766 0.04584,0.1298908 0.09169,0.1757347 0.04584,0.038203 0.06877,0.091688 0.06877,0.1604534 l 0.06877,-0.015281 h 0.06877 C 32.468153,4.9971976 32.391747,5.26462 32.284778,5.5167611 32.177809,5.7612615 32.0632,6.005762 31.940949,6.2349812 Z m 2.712427,-0.2827037 c 0.23686,-0.053484 0.47372,-0.1069689 0.718221,-0.1604534 0.229219,-0.053485 0.458438,-0.1298909 0.672376,-0.2292192 v -0.030563 h 0.12225 l 0.01528,-0.084047 0.137532,-0.015281 -0.0382,-0.1146096 v -0.038203 h 0.06112 l 0.04584,-0.053484 v -0.015281 h -0.09169 l -0.06113,-0.076406 -0.229219,-0.053485 -0.0382,-0.084047 -0.09933,-0.022922 v -0.053484 h -0.0382 c -0.05349,-0.099328 -0.09169,-0.2062973 -0.129891,-0.3056256 -0.03056,-0.091688 -0.06877,-0.1986567 -0.09169,-0.297985 -0.03056,0.1451722 -0.06876,0.2903443 -0.106969,0.4355165 -0.04584,0.1451721 -0.09169,0.2979849 -0.12225,0.4584384 l -0.137531,0.045844 v 0.015281 L 34.385954,5.539683 c -0.129891,0 -0.267422,0 -0.404954,-0.00764 -0.145172,0 -0.275063,-0.015281 -0.404954,-0.045844 -0.0076,-0.1146096 0,-0.2139379 0.01528,-0.3056256 0.01528,-0.099328 0.03056,-0.1986566 0.04584,-0.2903443 l -0.06876,-0.1680941 -0.252142,-0.045844 -0.07641,0.022922 v 0.015281 l 0.06877,0.015281 0.05348,0.2292192 -0.02292,0.3514694 c 0.0076,0.084047 0.03056,0.1528128 0.06877,0.2062973 0.0382,0.045844 0.07641,0.1069689 0.12225,0.1604534 0.168094,0.1146096 0.343829,0.1833754 0.550126,0.2139379 0.191016,0.030563 0.382032,0.053484 0.573048,0.076406 z m -1.978925,-1.8261129 -0.01528,0.015281 -0.0382,-0.00764 -0.01528,-0.084047 0.01528,-0.068766 -0.02292,-0.061125 0.01528,-0.099328 0.0382,0.00764 0.06877,0.1069689 c 0.0076,0.030563 0.0076,0.061125 0,0.099328 -0.0076,0.038203 -0.02292,0.068766 -0.04584,0.091688 z m 0.06113,-0.466079 -0.01528,0.022922 -0.06877,-0.00764 0.04584,-0.2674224 0.198656,-0.015281 h 0.08405 l -0.09169,0.1528128 z M 31.734652,2.6820837 31.673527,2.4834271 V 2.3382549 l 0.06113,0.015281 0.04584,0.1451722 0.106969,0.030563 c 0.160453,-0.022922 0.313266,-0.061125 0.443157,-0.1298909 0.129891,-0.061125 0.259782,-0.1222502 0.397313,-0.191016 v -0.053484 l -0.05348,-0.022922 -0.267423,0.015281 -0.08405,0.00764 -0.0076,-0.030563 0.06877,-0.022922 v -0.015281 l 0.198657,-0.1375315 c 0.0382,-0.068766 0.06112,-0.1451722 0.06877,-0.2292192 0.0076,-0.076406 0.02292,-0.1528128 0.06113,-0.2215786 l -0.0076,-0.045844 -0.137531,-0.045844 0.01528,-0.061125 0.05348,0.030563 c 0.04584,-0.022922 0.09169,-0.061125 0.129891,-0.099328 0.0382,-0.038203 0.08405,-0.068766 0.152813,-0.091688 l 0.0076,-0.030562 0.129891,-0.061125 v -0.045844 l 0.09169,-0.015281 -0.06112,-0.15281277 -0.374391,-0.12225024 h -0.06877 l -0.04584,0.0534845 -0.06876,0.007641 -0.0076,-0.0534845 -0.152813,-0.16045343 0.0076,-0.0687658 0.626532,-0.12989088 -0.04584,-0.084047 c -0.06113,-0.0382032 -0.12225,-0.0611251 -0.198656,-0.084047 -0.08405,-0.0152813 -0.160454,-0.0305626 -0.244501,-0.0382032 -0.106969,0.0305626 -0.213938,0.0611251 -0.320907,0.0916877 -0.114609,0.0382032 -0.221578,0.0916877 -0.313266,0.16809408 v 0.0305626 l -0.06877,0.0305626 0.23686,-0.007641 0.152813,-0.007641 c 0.0076,0.084047 0.0076,0.16809407 -0.0076,0.23685983 -0.02292,0.0687658 -0.06876,0.14517216 -0.12225,0.22157855 -0.02292,0.0458438 -0.04584,0.0687657 -0.08405,0.0687657 -0.0382,0 -0.07641,0.00764 -0.106969,0.030563 -0.04584,0.00764 -0.08405,-0.00764 -0.114609,-0.045844 -0.03056,-0.0305625 -0.06877,-0.0458438 -0.11461,-0.0534844 V 0.92473657 L 31.299136,0.68023609 h -0.01528 l 0.137532,0.24450048 c 0,0.19865663 -0.0076,0.39731323 -0.03056,0.57304793 -0.02292,0.191016 -0.05348,0.3667508 -0.106969,0.5424855 h -0.03056 l -0.03056,0.053485 c 0.0076,0.076406 0.02292,0.1451721 0.04584,0.2062972 0.03056,0.061125 0.05348,0.1222503 0.07641,0.191016 0.04584,0.00764 0.09169,0.022922 0.137532,0.045844 0.0382,0.022922 0.07641,0.038203 0.12225,0.038203 l 0.04584,0.045844 z m 0.290344,-0.5042822 -0.267422,0.061125 h -0.04584 c 0.01528,-0.1833753 0.03056,-0.3591101 0.05349,-0.5272041 0.02292,-0.1757348 0.03056,-0.3438288 0.02292,-0.5272042 h 0.02292 l 0.0076,0.068766 c 0.01528,0.038203 0.0382,0.053485 0.06877,0.053485 0.03056,0.00764 0.05348,0.015281 0.07641,0.022922 l 0.35147,-0.1528128 0.04584,-0.00764 c -0.0382,0.091688 -0.09169,0.1757348 -0.145172,0.2445005 -0.05348,0.084047 -0.129891,0.1451722 -0.229219,0.1986566 l -0.04584,-0.015281 -0.137531,0.038203 c 0.0076,0.045844 0.02292,0.084047 0.04584,0.1069689 0.02292,0.038203 0.0382,0.068766 0.06113,0.099328 0.05348,0 0.114609,-0.00764 0.175734,-0.022922 0.06113,-0.00764 0.11461,-0.030563 0.152813,-0.068766 h 0.0382 l -0.01528,0.1528128 h -0.03056 v 0.030562 c -0.03056,0.038203 -0.05348,0.076406 -0.09169,0.106969 -0.0382,0.045844 -0.07641,0.076406 -0.11461,0.099328 z m 1.994207,-0.2062973 0.817549,-0.2979849 0.0076,-0.030563 0.05349,-0.030563 v -0.068766 l -0.137532,-0.038203 -0.0076,-0.038203 -0.06112,-0.015281 -0.252142,0.053484 -0.09169,0.00764 0.0076,-0.084047 c 0.106969,-0.084047 0.22922,-0.1680941 0.359111,-0.2521411 0.12225,-0.076406 0.2445,-0.1222503 0.36675,-0.1528128 v -0.084047 l -0.05348,-0.007641 v -0.0382032 l -0.09169,-0.084047 c -0.05348,-0.007641 -0.106969,-0.0152813 -0.152813,-0.0382032 -0.0382,-0.007641 -0.08405,-0.0229219 -0.129891,-0.0458438 l -0.03056,0.007641 -0.0382,0.0611251 c -0.07641,0.0687658 -0.160454,0.1146096 -0.252141,0.13753152 -0.09933,0.0229219 -0.191016,0.0611251 -0.267423,0.10696899 l -0.137531,-0.00764 -0.09933,0.015281 -0.0382,0.045844 0.305626,0.2062973 -0.05349,0.1222503 -0.06112,0.045844 -0.145172,0.061125 -0.04584,0.068766 c 0.06877,0.053484 0.11461,0.1146096 0.137532,0.1757347 0.02292,0.068766 0.05348,0.1298909 0.09169,0.1986566 z m -0.59597,-0.6723763 0.01528,-0.015281 0.01528,0.022922 0.07641,-0.030563 0.07641,-0.1298909 0.106969,-0.084047 0.02292,-0.12989089 h 0.03056 v -0.0687658 h 0.03056 l 0.0382,-0.084047 h 0.04584 l 0.07641,-0.17573471 h 0.03056 l 0.106969,-0.29034432 -0.02292,-0.0611251 c -0.08405,-0.0534845 -0.191016,-0.0916877 -0.297985,-0.1146096 -0.11461,-0.0152813 -0.229219,-0.0305626 -0.328548,-0.04584384 l -0.03056,-0.0076406 0.02292,0.05348448 -0.05349,0.58068862 0.04584,0.33618811 z"
         id="path302" />
    </g>
  </g>
</svg>
