<?xml version="1.0" encoding="UTF-8" standalone="no"?>
<!-- Created with Inkscape (http://www.inkscape.org/) -->

<svg
   width="35.000999mm"
   height="7mm"
   viewBox="0 0 35.000998 7"
   version="1.1"
   id="svg5"
   inkscape:version="1.2.2 (b0a8486, 2022-12-01)"
   sodipodi:docname="topNewLOGO.svg"
   xmlns:inkscape="http://www.inkscape.org/namespaces/inkscape"
   xmlns:sodipodi="http://sodipodi.sourceforge.net/DTD/sodipodi-0.dtd"
   xmlns="http://www.w3.org/2000/svg"
   xmlns:svg="http://www.w3.org/2000/svg">
  <sodipodi:namedview
     id="namedview7"
     pagecolor="#ffffff"
     bordercolor="#000000"
     borderopacity="0.25"
     inkscape:showpageshadow="2"
     inkscape:pageopacity="0.0"
     inkscape:pagecheckerboard="0"
     inkscape:deskcolor="#d1d1d1"
     inkscape:document-units="mm"
     showgrid="false"
     inkscape:zoom="4.7488465"
     inkscape:cx="99.497846"
     inkscape:cy="17.162062"
     inkscape:window-width="1440"
     inkscape:window-height="771"
     inkscape:window-x="1080"
     inkscape:window-y="1616"
     inkscape:window-maximized="0"
     inkscape:current-layer="layer1" />
  <defs
     id="defs2">
    <rect
       x="-1.8951972"
       y="4.0009718"
       width="213.31496"
       height="77.703079"
       id="rect268" />
  </defs>
  <g
     inkscape:label="Layer 1"
     inkscape:groupmode="layer"
     id="layer1">
    <path
       style="fill:none;fill-rule:evenodd;stroke:#000000;stroke-width:0.21864px;stroke-linecap:butt;stroke-linejoin:miter;stroke-opacity:1"
       d="m 4.4186655,7.736698 v 0"
       id="path208"
       inkscape:connector-type="polyline"
       inkscape:connector-curvature="0" />
    <text
       xml:space="preserve"
       style="font-size:8.85995px;font-family:KouzanBrushFontGyousyoOTF;-inkscape-font-specification:KouzanBrushFontGyousyoOTF;fill:#000000;stroke-width:0.166124"
       x="-1.3619121"
       y="8.4681635"
       id="text214"
       transform="scale(0.67763293,1.4757252)"><tspan
         sodipodi:role="line"
         id="tspan212"
         style="stroke-width:0.166124"
         x="-1.3619121"
         y="8.4681635" /></text>
    <text
       xml:space="preserve"
       transform="scale(0.26458333)"
       id="text266"
       style="font-size:53.3333px;font-family:KouzanBrushFontGyousyoOTF;-inkscape-font-specification:KouzanBrushFontGyousyoOTF;white-space:pre;shape-inside:url(#rect268);display:inline;fill:#000000" />
    <g
       aria-label="お裾分け作成"
       transform="scale(0.86776971,1.1523795)"
       id="text932"
       style="font-size:7.08323px;font-family:KouzanBrushFontGyousyoOTF;-inkscape-font-specification:KouzanBrushFontGyousyoOTF;stroke-width:0.13281">
      <path
         d="M 0.65831563,5.6109606 0.82831316,5.5826277 C 0.92747838,5.5047121 1.0053939,5.4267966 1.069143,5.3276314 1.1187256,5.2284662 1.1683082,5.1363842 1.2178908,5.0301357 1.4728871,4.8318053 1.7491331,4.6618078 2.0395455,4.5343096 2.3299579,4.4068115 2.6345368,4.3147295 2.9603654,4.2651469 c 0.1770807,-0.014166 0.3470783,-0.00708 0.5170758,0.014166 0.1770807,0.028333 0.3187453,0.099165 0.4533267,0.2195802 l -0.049583,0.099165 -0.6587404,-0.1487478 0.2054137,0.1487478 -0.028333,0.077915 v 0.02125 l 0.099165,0.028333 0.1416646,0.2549963 0.2620795,0.1558311 c 0.1062484,0.014166 0.1912472,0 0.2833292,-0.035416 0.092082,-0.035416 0.1699975,-0.063749 0.2549963,-0.092082 L 4.5399257,4.7751394 C 4.518676,4.6547245 4.4974263,4.5555593 4.4690934,4.4634773 4.4336772,4.3713953 4.3770114,4.2793133 4.2990959,4.1943146 4.1857642,4.0597332 4.0511828,3.9747345 3.902435,3.9251518 3.7395207,3.8826525 3.5836896,3.8543195 3.4278586,3.8401531 c -0.368328,0 -0.7224895,0.049583 -1.0554013,0.1345814 C 2.0395455,4.0668164 1.7208001,4.2013978 1.409138,4.3643121 H 1.3666386 L 1.5083032,3.3797431 V 2.2605928 l -0.02125,-0.028333 V 2.0055965 L 1.7491331,1.8001828 1.8482983,1.5806027 h 0.056666 v -0.056666 h 0.042499 L 1.96163,1.467271 v -0.02125 h -0.056666 v -0.084999 h 0.042499 v -0.014167 l -0.099165,0.070832 v 0.028333 h -0.02125 v 0.02125 H 1.777466 v -0.02125 L 1.5083032,1.6089356 h -0.070832 v 0.014167 H 1.3808051 C 1.3524722,1.4389381 1.3241393,1.2547741 1.2958063,1.0493605 1.2603902,0.85811325 1.2108076,0.67394927 1.1470585,0.49686852 H 1.1187256 L 1.2887231,1.4460213 1.2745566,1.7222673 0.73623116,1.9489307 C 0.58748333,1.9701804 0.46706842,1.9560139 0.35373674,1.9135145 0.23332183,1.8780984 0.12707338,1.8285158 0.0137417,1.7789331 v -0.028333 l 0.06374907,0.049583 0.02833292,0.084999 c 0.092082,0.042499 0.19833044,0.099165 0.30457889,0.1699975 0.0991652,0.070832 0.2124969,0.1204149 0.32582858,0.1487478 L 1.2745566,2.1330946 V 2.083512 h 0.063749 l 0.028333,0.4108274 c 0.00708,0.3541615 0.00708,0.708323 -0.028333,1.048318 C 1.3028896,3.8897357 1.2320573,4.2155643 1.1187256,4.5201432 L 0.73623116,4.7255568 v 0.028333 h -0.092082 l 0.0141665,0.099165 c -0.0283329,0.084999 -0.0495826,0.1699975 -0.0637491,0.2549963 -0.0212497,0.077916 -0.0566658,0.155831 -0.10624845,0.2195801 l 0.0779155,0.077916 0.0212497,0.1487478 0.0991652,0.028333 z M 3.9803505,1.3610226 h 0.1487478 v -0.042499 c 0.042499,0 0.092082,0.00708 0.1416646,0.014166 0.049583,0.00708 0.077916,-0.014166 0.092082,-0.056666 l 0.077916,-0.028333 0.099165,-0.1629143 -0.028333,-0.063749 C 4.4478437,0.92894555 4.3770114,0.86519648 4.2990959,0.8226971 4.2140971,0.78019772 4.1220151,0.73769834 4.0299331,0.70936542 c -0.1204149,0 -0.2337466,0.0141665 -0.339995,0.0354161 -0.1204149,0.0283329 -0.2337466,0.0566658 -0.3399951,0.0849988 l 0.049583,0.11333168 c 0.092082,0.0637491 0.1912472,0.12041489 0.2904124,0.16999749 0.092082,0.049583 0.1912472,0.1133317 0.2904124,0.1912472 z"
         id="path294" />
      <path
         d="M 10.050665,5.3630475 10.19233,5.3347146 10.036499,5.0655519 h -0.03542 L 9.9585833,4.6618078 9.8523348,4.8601382 H 9.8169187 V 4.853055 L 9.427341,4.4776438 9.3494255,4.4138947 h -0.014166 c 0.035416,0.1345814 0.099165,0.2620795 0.1770807,0.3966609 0.077916,0.1274981 0.1487478,0.2549963 0.2266634,0.3824944 0.049583,0.02125 0.1062484,0.049583 0.155831,0.092082 0.042499,0.042499 0.092082,0.070832 0.1558308,0.077916 z m 0.495826,-0.063749 0.01417,-0.014166 0.02125,0.014166 c 0.09208,-0.02125 0.184164,-0.049583 0.269162,-0.084999 0.09208,-0.035416 0.177081,-0.077915 0.26208,-0.1274981 l 0.05667,-0.1912472 h 0.03542 v -0.035416 h 0.02833 l 0.02125,-0.056666 h 0.02833 l 0.09917,-0.1133317 0.120414,-0.2620795 0.04958,-0.035416 0.184164,-0.3258286 c 0,-0.042499 0,-0.077916 -0.0071,-0.1062484 -0.0071,-0.028333 -0.02125,-0.056666 -0.03542,-0.092082 l -0.127498,-0.049583 v -0.028333 l -0.269163,-0.084999 -0.06375,0.014166 -0.09208,-0.014166 -0.26208,0.049583 -0.375411,-0.092082 -0.191247,0.092082 h -0.02833 c 0.02125,-0.049583 0.04958,-0.099165 0.085,-0.1487478 0.03542,-0.049583 0.06375,-0.099165 0.07083,-0.1487478 l 0.04958,-0.014166 0.0425,-0.1204149 0.09916,-0.1133317 c 0.106249,-0.049583 0.205414,-0.084999 0.325829,-0.1062484 0.120415,-0.014166 0.226663,-0.02125 0.339995,-0.042499 0.113331,-0.014166 0.226663,-0.014166 0.332912,0 0.09916,0.02125 0.19833,0.035416 0.297495,0.070832 0.04958,0.00708 0.085,0 0.120415,-0.02125 0.03542,-0.02125 0.07083,-0.028333 0.113332,-0.035416 v -0.049583 l -0.06375,-0.014166 V 2.975999 c -0.07792,-0.077916 -0.155831,-0.1133317 -0.26208,-0.1204149 -0.106248,-0.00708 -0.205413,-0.02125 -0.304579,-0.056666 l -0.06375,-0.056666 -0.169997,-0.028333 -0.311662,0.077916 v 0.00708 l 0.127498,0.049583 v 0.035416 l -0.389578,0.092082 h -0.07792 L 10.596074,2.7776686 10.475659,2.636004 c -0.0425,-0.035416 -0.09208,-0.049583 -0.148748,-0.049583 -0.06375,0 -0.113331,-0.014166 -0.162914,-0.035416 l -0.09917,0.02125 v 0.042499 l 0.06375,0.049583 0.06375,0.1133317 V 3.1318301 L 9.4910901,3.3514102 H 9.427341 C 9.5052566,3.1814127 9.5619224,3.0184984 9.611505,2.8414177 9.6540044,2.6714201 9.7177535,2.5085058 9.8027522,2.3526748 l 0.063749,0.035416 h 0.028333 l 0.042499,0.1487479 C 10.078998,2.4943394 10.21358,2.45184 10.341078,2.4022574 10.475659,2.3526748 10.596074,2.2889257 10.723572,2.2110102 v -0.028333 h 0.04958 l 0.0425,-0.1274982 0.09208,-0.049583 0.01417,-0.092082 h 0.03542 c 0.04958,-0.056666 0.09916,-0.1274981 0.141664,-0.1983304 0.03542,-0.063749 0.07083,-0.1274982 0.09208,-0.2054137 l 0.06375,-0.049583 0.113332,-0.1983304 0.0425,-0.014166 v -0.035416 h 0.02833 v -0.028333 h -0.01417 v -0.077916 l -0.07792,-0.035416 -0.01417,-0.049583 -0.424994,-0.12041487 c -0.24083,0.0212497 -0.46041,0.0708323 -0.67999,0.12749817 -0.212497,0.070832 -0.4249938,0.1274981 -0.6445739,0.1699975 0.056666,0.042499 0.1133317,0.070832 0.1912472,0.084999 0.070832,0.02125 0.1416646,0.035416 0.2124969,0.049583 l 0.2054138,-0.014166 0.02125,-0.042499 c 0.06375,-0.00708 0.127498,-0.035416 0.191247,-0.084999 0.05667,-0.049583 0.120415,-0.084999 0.191247,-0.1062485 h 0.07792 c -0.0071,0.1629143 -0.03542,0.3045789 -0.07083,0.4462435 -0.03542,0.1416646 -0.09208,0.276246 -0.177081,0.3966609 -0.04958,0.063749 -0.106248,0.1133317 -0.169997,0.1487478 -0.05667,0.035416 -0.127498,0.063749 -0.205414,0.077916 H 9.8310852 V 1.8851816 l -0.077916,-0.077915 -0.1487478,0.014166 v 0.02125 l -0.1912472,0.014166 0.014166,0.1062484 0.049583,0.014166 C 9.455674,2.2251766 9.4202578,2.4730897 9.3706752,2.7139195 9.3281758,2.9547493 9.2644268,3.1814127 9.179428,3.4080761 l -0.099165,0.02125 v 0.014166 h 0.035416 v 0.028333 h 0.028333 C 9.0802628,3.6914053 9.0165137,3.9109854 8.9244317,4.1093158 8.8323497,4.3076463 8.7261013,4.5130599 8.5986031,4.7113904 l 0.049583,-0.02125 0.120415,-0.1345814 C 8.8181833,4.4918102 8.8606826,4.4280612 8.8960988,4.3572289 8.9315149,4.2863966 8.9598479,4.2226475 8.995264,4.144732 h 0.028333 L 9.0519299,4.0809829 9.1156789,4.05265 9.3210926,3.5709903 9.427341,3.5993233 C 9.5548392,3.6134897 9.6610876,3.59224 9.7673361,3.528491 9.8665013,3.4718251 9.9585833,3.4222425 10.064832,3.3797431 h 0.06375 c -0.0071,0.1204149 -0.02833,0.2337466 -0.05667,0.3329118 -0.03542,0.1133317 -0.084999,0.2195802 -0.1558311,0.3045789 l 0.014166,0.049583 h 0.042499 c 0.02125,-0.00708 0.042499,-0.02125 0.063749,-0.042499 0.02125,-0.014166 0.02833,-0.035416 0.02833,-0.063749 h 0.04958 l 0.04958,0.1062484 h 0.04958 l 0.03542,0.099165 0.757905,-0.1912472 h 0.09208 c 0,0.1699975 -0.02833,0.3187453 -0.085,0.4533267 -0.06375,0.1345813 -0.141665,0.2549963 -0.226664,0.3754112 -0.03542,0.042499 -0.07083,0.063749 -0.113331,0.084999 -0.0425,0.02125 -0.09208,0.042499 -0.141665,0.049583 l -0.106249,-0.014166 -0.155831,0.014166 0.01417,0.1133317 0.205414,0.1699975 0.01417,0.049583 z M 7.7556988,5.2355494 c 0.02125,0 0.049583,0 0.070832,-0.00708 0.02125,-0.00708 0.035416,-0.014166 0.042499,-0.035416 L 7.854864,5.1293009 c 0,-0.2124969 0,-0.4108273 0.00708,-0.6091577 0.00708,-0.1983305 0.028333,-0.3824945 0.084999,-0.5595752 0,-0.049583 0,-0.099165 -0.00708,-0.1416646 -0.00708,-0.042499 -0.028333,-0.084999 -0.056666,-0.1274981 L 7.8973634,3.5851568 V 3.5568239 L 7.8690304,3.6630723 7.7131994,3.5214077 C 7.6565335,3.4859916 7.5998677,3.4576587 7.5502851,3.436409 7.4936193,3.4151593 7.4298702,3.4009928 7.3661211,3.3939096 L 7.5715348,3.0609978 h 0.028333 L 7.9894454,2.5085058 V 2.4801729 L 8.039028,2.4660065 C 8.13111,2.3385083 8.2231919,2.2110102 8.3152739,2.0905953 8.4073559,1.9630971 8.4923547,1.8426822 8.5986031,1.7151841 L 8.747351,1.651435 8.8040168,1.5735195 8.7827671,1.5097704 8.6977684,1.4601878 8.6836019,1.4176884 8.3365236,1.3185232 8.2231919,1.4318549 C 8.0815273,1.5097704 7.9398627,1.5947692 7.8123646,1.6868512 7.6707,1.7930996 7.5290354,1.8851816 7.3802876,1.9630971 H 7.3377882 L 7.4794528,1.7293505 7.6140342,1.6301853 v -0.02125 h 0.035416 L 7.9256963,1.31144 7.946946,1.2760238 8.1169435,1.1697754 8.2586081,1.0210275 8.471105,0.77311449 8.5702702,0.68811573 v -0.0354162 h 0.028333 l 0.02125,-0.0283329 c 0.00708,-0.0424994 0.00708,-0.0779155 -0.00708,-0.10624845 C 8.5915199,0.48978528 8.5773534,0.46853559 8.5561038,0.4472859 8.4781882,0.36937037 8.4002727,0.31270453 8.3081907,0.27728838 8.2090255,0.24187223 8.1169435,0.21353931 8.0248615,0.17812316 l -0.1274981,0.0354162 0.3754112,0.19124721 v 0.092082 C 8.2231919,0.60311697 8.1665261,0.70228219 8.1098603,0.80144741 8.0461112,0.90769586 7.9752789,1.0139443 7.8973634,1.1060263 7.8194478,1.219358 7.7344491,1.3256064 7.6423671,1.4389381 7.5573683,1.5522698 7.4582031,1.651435 7.3519547,1.7576835 l -0.063749,0.063749 -0.014166,0.035416 -0.339995,0.2337466 0.056666,0.2124969 0.028333,0.02125 0.049583,0.077916 0.8004049,-0.46041 h 0.028333 C 7.854864,2.083512 7.7840317,2.2110102 7.7061162,2.3455915 7.6282006,2.4801729 7.5573683,2.6076711 7.4936193,2.7422524 L 7.4015373,2.820168 6.9907099,3.5072413 6.962377,3.5214077 6.686131,3.9747345 H 6.6507149 L 6.5586329,4.1659817 H 6.5232167 L 6.2469708,4.5413929 v 0.02125 l 0.1487478,-0.056666 0.099165,-0.077915 0.049583,-0.077916 h 0.028333 l 0.014166,-0.035416 0.1204149,-0.084999 0.3824944,-0.5383254 h 0.042499 l 0.2054137,-0.2620796 0.1912472,0.077916 c 0.02125,0.035416 0.042499,0.063749 0.056666,0.099165 0.02125,0.035416 0.028333,0.070832 0.028333,0.1133317 0,0.2195801 -0.00708,0.4249938 -0.014166,0.6304074 -0.00708,0.2124969 -0.049583,0.4037442 -0.1345814,0.5737417 0.028333,0.049583 0.070832,0.099165 0.1274982,0.1487478 0.056666,0.049583 0.1133317,0.099165 0.1629143,0.1629143 z M 8.3011075,3.8047369 h 0.063749 v -0.035416 l 0.084999,-0.028333 -0.02125,-0.1416646 h -0.014166 l 0.014166,-0.042499 -0.014166,-0.063749 -0.1416646,0.077916 -0.2479131,-0.077916 h -0.035416 l 0.035416,0.1274982 0.184164,0.084999 0.014166,0.084999 z M 8.0248615,3.3514102 c 0.035416,-0.00708 0.070832,-0.02125 0.1062485,-0.028333 0.028333,-0.00708 0.056666,-0.028333 0.092082,-0.063749 l 0.035416,-0.049583 0.1274981,-0.077916 v -0.035416 h 0.028333 L 8.6836019,2.8343344 8.6340193,2.728086 8.4286056,2.6643369 8.3506901,2.6785034 8.2586081,2.6643369 8.2090255,2.728086 H 8.1736093 L 7.9894454,3.2734947 v 0.063749 z"
         id="path296" />
      <path
         d="m 15.795151,5.7030426 0.01417,-0.014166 0.01417,0.014166 0.085,-0.028333 0.02833,-0.120415 0.09208,-0.035416 C 16.213062,5.037219 16.390143,4.5626425 16.538891,4.0809829 16.687638,3.6064065 16.82222,3.1176636 16.949718,2.6289208 h 0.04958 l 0.04958,-0.084999 -0.04958,-0.1274981 C 16.878886,2.359758 16.744304,2.3101754 16.616806,2.2605928 16.475142,2.2110102 16.34056,2.1826773 16.205979,2.1614276 h -0.03542 v 0.035416 l -0.07792,-0.014166 c -0.254996,0.00708 -0.502909,0.049583 -0.722489,0.1345813 -0.226664,0.092082 -0.439161,0.184164 -0.658741,0.2974957 l 0.02125,0.049583 c 0.06375,0.049583 0.134581,0.084999 0.205414,0.1204149 0.05666,0.028333 0.141664,0.035416 0.233746,0.028333 l -0.02125,0.049583 -0.120415,0.056666 0.03542,0.1345814 c -0.06375,0.2549962 -0.127498,0.5170757 -0.205414,0.7791553 -0.07792,0.2620795 -0.141664,0.524159 -0.19833,0.7933217 -0.0071,0.070832 -0.0071,0.1345814 0.01417,0.1983305 0.01417,0.056666 0.0425,0.1062484 0.09208,0.155831 h 0.02833 c 0.02125,-0.049583 0.04958,-0.092082 0.07083,-0.1274981 0.02125,-0.035416 0.03542,-0.077916 0.03542,-0.1204149 l 0.04958,-0.02125 C 15.093912,4.4422276 15.22141,4.1730649 15.320575,3.8968189 15.426824,3.6276562 15.533072,3.3514102 15.63932,3.068081 l -0.03542,-0.2054137 -0.396661,-0.014166 0.07792,-0.077916 c 0.134581,-0.014166 0.262079,-0.042499 0.389578,-0.084999 0.120414,-0.035416 0.240829,-0.070832 0.368328,-0.1062485 h 0.148747 c -0.01417,0.4249938 -0.04958,0.8429044 -0.106248,1.2678982 -0.06375,0.4179106 -0.191247,0.8145715 -0.382495,1.1828994 l -0.113331,-0.014166 -0.09917,-0.2195802 h -0.03542 c 0,-0.1204149 -0.01417,-0.2337466 -0.04958,-0.339995 -0.03542,-0.1062485 -0.06375,-0.2124969 -0.085,-0.3329118 h -0.03542 l 0.01417,0.2337466 -0.01417,0.2549963 0.01417,0.049583 -0.04958,0.5029093 v 0.063749 l 0.085,0.092082 0.318745,0.247913 0.141664,0.1204149 z m -2.2383,-2.0753864 0.07083,-0.02125 c 0.09917,-0.1912472 0.177081,-0.3824944 0.254996,-0.5808249 0.07792,-0.1983304 0.162915,-0.3895776 0.26208,-0.5737416 h 0.03542 c 0.0425,-0.049583 0.07792,-0.099165 0.09916,-0.1558311 0.02125,-0.056666 0.06375,-0.099165 0.113332,-0.1345813 l 0.085,-0.028333 v -0.035416 h 0.120415 l 0.02125,-0.070832 c 0,-0.035416 0,-0.070832 0,-0.1062485 0,-0.028333 -0.01417,-0.056666 -0.03542,-0.077916 l 0.04958,-0.2054137 h 0.02833 l 0.085,-0.1274981 0.106249,-0.035416 V 1.403522 h 0.03542 l 0.01417,-0.1770808 0.07792,0.028333 h 0.02125 v -0.014166 h -0.03542 v -0.035416 l -0.09917,-0.014166 -0.03542,-0.084999 0.02125,-0.11333168 c 0,-0.0354161 -0.01417,-0.0637491 -0.0425,-0.0849988 -0.02833,-0.0141665 -0.03542,-0.0354161 -0.02833,-0.0708323 -0.05667,0 -0.106249,-0.007083 -0.148748,-0.0283329 -0.04958,-0.0212497 -0.09208,-0.0424994 -0.134582,-0.0779155 v -0.0283329 l -0.07083,-0.0637491 -0.212497,-0.1416646 -0.05667,0.0212497 0.02125,0.18416398 v 0.0991652 l -0.106248,0.0141665 -0.0071,0.15583106 h -0.02125 l -0.09917,0.30457887 0.03542,0.1133317 c -0.07792,0.368328 -0.155831,0.7437391 -0.219581,1.1049839 -0.07083,0.3683279 -0.141664,0.7437391 -0.205413,1.1120671 z m 4.483684,-0.7295727 0.09917,-0.070832 0.03542,-0.077916 h 0.0425 l 0.03542,-0.1345814 h 0.03542 l 0.03542,-0.070832 0.134581,-0.063749 0.085,0.028333 v -0.077916 l 0.09917,-0.049583 0.07083,0.014166 h 0.09208 l -0.01417,-0.028333 v -0.056666 l 0.085,0.02125 0.120414,-0.035416 -0.09916,-0.1345813 v -0.028333 l 0.120415,0.014166 h 0.09208 V 2.0622623 L 18.925939,1.9205977 18.911773,1.8426822 18.66386,1.6231021 C 18.430113,1.559353 18.196366,1.4885207 17.96262,1.4106052 17.735957,1.3397729 17.50221,1.283107 17.268463,1.2264412 h -0.01417 l 0.148748,0.2479131 c 0.07792,0.077916 0.155831,0.1629142 0.226663,0.2549962 0.07083,0.099165 0.141665,0.1912472 0.212497,0.2833292 l 0.247913,0.2124969 0.04958,0.1062485 c 0.01417,0.099165 0.0071,0.1912472 -0.01417,0.2904124 -0.02125,0.099165 -0.04958,0.184164 -0.085,0.276246 z"
         id="path298" />
      <path
         d="m 24.02585,5.8730401 0.134582,-0.056666 v -0.049583 l -0.0425,0.028333 H 24.06835 L 24.217098,5.19305 h 0.0425 l -0.09916,0.4108274 v 0.070832 l 0.07792,-0.1274982 -0.02125,-0.070832 v -0.042499 h 0.0425 l 0.05667,-0.1416646 h -0.05667 l 0.02833,-0.1416646 h 0.04958 l 0.162914,-0.8995702 h 0.04958 c 0.04958,-0.2195801 0.09208,-0.4249938 0.127499,-0.6374907 0.02833,-0.2124969 0.04958,-0.4249938 0.07083,-0.6516571 l -0.07792,-1.0695678 0.02125,-0.7791553 0.368328,0.028333 c 0.04958,0 0.106248,0 0.169998,0.00708 0.05666,0.00708 0.106248,-0.014166 0.141664,-0.063749 l -0.02125,-0.063749 c -0.07792,-0.0212497 -0.155831,-0.0566658 -0.21958,-0.10624841 -0.06375,-0.0495826 -0.134581,-0.092082 -0.191247,-0.1416646 l -0.02125,-0.19833044 c -0.02125,-0.0637491 -0.05667,-0.11333169 -0.113331,-0.14166461 -0.05667,-0.0354162 -0.113332,-0.0637491 -0.155831,-0.0991652 l -0.148748,0.0495826 -0.09208,0.16999753 h -0.04958 l 0.02833,-0.16999753 h 0.02125 l -0.07083,0.12041492 0.02125,0.17708075 V 0.99269462 C 24.110849,1.035194 23.891269,1.1131095 23.685855,1.219358 c -0.212496,0.099165 -0.43916,0.184164 -0.67999,0.2337466 l -0.361244,0.339995 v 0.028333 c 0.07792,-0.02125 0.148747,-0.014166 0.19833,0.00708 0.04958,0.02125 0.09208,0.070832 0.141665,0.1274981 l 0.120415,-0.014167 0.04958,-0.1487478 C 23.34586,1.7151841 23.530024,1.6160189 23.721272,1.5026872 23.905436,1.3893555 24.096683,1.2972735 24.28793,1.2122747 h 0.07083 l 0.120415,1.6220597 C 24.457927,3.344327 24.415428,3.8401531 24.351679,4.328896 24.273764,4.8247221 24.167515,5.3063817 24.02585,5.7667916 Z M 21.872549,4.853055 h 0.04958 V 4.760973 h 0.07083 l -0.02125,-0.099165 h -0.04958 c 0.02125,-0.1274982 0.02833,-0.2620795 0.02833,-0.3966609 0,-0.1416646 0.01417,-0.276246 0.0425,-0.4037441 v -0.028333 c -0.02833,0.063749 -0.07083,0.1274981 -0.120414,0.1770807 -0.04958,0.063749 -0.07792,0.1345814 -0.07792,0.2195801 l -0.09208,-0.1274981 c -0.01417,-0.3541615 0.0071,-0.6941565 0.06375,-1.0129019 0.05667,-0.3045789 0.09208,-0.6374907 0.106249,-0.9774857 0.01417,-0.2549963 0,-0.5099926 -0.03542,-0.7579057 -0.0425,-0.2408298 -0.120415,-0.4604099 -0.254996,-0.65165711 l 0.09917,0.63040751 c 0,0.3258285 -0.01417,0.6374907 -0.04958,0.9491528 -0.03542,0.3116621 -0.05667,0.6233242 -0.07083,0.9420696 0,0.2762459 0,0.5524919 0,0.8287379 0,0.276246 0.06375,0.5170758 0.191248,0.7295727 z"
         id="path300" />
      <path
         d="M 31.675726,6.0784538 31.810308,5.9226227 V 5.7809581 l -0.0425,-0.014166 C 31.66156,5.5684612 31.597811,5.3417978 31.576561,5.0938848 31.555312,4.8459717 31.526979,4.5909755 31.505729,4.3501456 l 0.01417,-0.1062484 -0.01417,-0.042499 0.02833,-0.339995 -0.01417,-0.049583 c 0.02125,-0.1912472 0.0425,-0.3895777 0.07792,-0.5808249 0.02833,-0.1912472 0.04958,-0.3895776 0.07083,-0.5808249 l -0.0071,-0.1133316 h -0.02833 c -0.01417,-0.028333 -0.02125,-0.056666 -0.02125,-0.092082 0,-0.035416 -0.01417,-0.063749 -0.0425,-0.084999 l -0.03542,-0.02125 -0.085,-0.2266633 -0.120415,-0.120415 -0.03542,-0.014166 -0.0425,-0.077915 0.02833,-0.120415 c 0.169997,-0.092082 0.347078,-0.1629142 0.538325,-0.2054136 0.198331,-0.042499 0.396661,-0.070832 0.594991,-0.077916 l 0.07792,-0.155831 c 0,-0.056666 -0.01417,-0.1062485 -0.03542,-0.1487478 -0.02833,-0.042499 -0.03542,-0.092082 -0.02125,-0.1558311 -0.07792,-0.0566658 -0.177081,-0.092082 -0.283329,-0.0991652 -0.09916,-0.007083 -0.205414,-0.0283329 -0.304579,-0.0637491 l -0.06375,0.0283329 -0.05667,-0.0141665 -0.05667,0.0849988 C 31.519895,1.0139443 31.385314,1.0564437 31.243649,1.1060263 31.101985,1.1556089 30.96032,1.219358 30.832822,1.2901903 l -0.04958,0.00708 0.07083,-0.60207454 -0.01417,-0.10624845 0.01417,-0.0637491 c 0,-0.0424994 0,-0.0849988 0,-0.11333169 0,-0.0354161 -0.0071,-0.0637491 -0.02833,-0.0991652 l 0.01417,-0.0495826 -0.0425,-0.12749814 -0.127498,-0.07791553 -0.276246,0.03541615 -0.04958,0.09916522 -0.07792,0.0212497 v 0.0779155 l 0.127498,0.0424994 c -0.03542,0.2337466 -0.07083,0.46040996 -0.09916,0.68707328 -0.0425,0.2337466 -0.106249,0.46041 -0.191248,0.6729069 l 0.04958,0.042499 v 0.035416 c 0.05667,0.077915 0.113332,0.1487478 0.169998,0.2124969 0.05666,0.070832 0.127498,0.1345814 0.212496,0.184164 l 0.07083,-0.014166 v -0.035416 h 0.02833 l 0.01417,-0.077916 h 0.03542 v -0.028333 l 0.254997,-0.1416646 h 0.06375 c -0.0071,0.099165 0.01417,0.184164 0.07792,0.2549963 0.06375,0.077916 0.09916,0.1558311 0.120415,0.2479131 l -0.0071,0.5312422 0.0071,0.6516572 -0.02125,0.014166 V 4.300563 c 0,0.1912472 0,0.368328 -0.0071,0.5454087 -0.0071,0.1770808 -0.02833,0.3470783 -0.07791,0.5099926 l -0.127499,0.063749 v 0.1912472 h 0.04958 l 0.212497,0.1770807 0.106248,0.092082 c 0.06375,0.035416 0.127499,0.063749 0.177081,0.099165 0.05667,0.028333 0.113332,0.063749 0.162914,0.099165 z M 29.076181,5.4126301 c 0.02833,-0.02125 0.04958,-0.035416 0.07083,-0.056666 0.02125,-0.02125 0.03542,-0.042499 0.0425,-0.077916 l -0.02125,-0.092082 H 29.13993 L 29.111597,5.037219 c -0.0071,-0.2124969 0.0071,-0.4320771 0.03542,-0.6304075 0.03542,-0.1983305 0.06375,-0.4108274 0.09208,-0.6091578 l -0.01417,-0.1204149 0.01417,-0.042499 -0.07083,-0.2620795 -0.07083,-0.028333 v -0.063749 l -0.09208,-0.084999 -0.04958,-0.035416 v -0.028333 l -0.09208,-0.042499 -0.02833,-0.049583 -0.304579,-0.2408298 c 0,0.1204149 0.02833,0.2195801 0.09208,0.3045789 0.06375,0.092082 0.106249,0.1841639 0.141665,0.2833292 0.01417,0.2408298 0.0071,0.4674931 -0.01417,0.6870733 -0.02125,0.2266633 -0.06375,0.4533267 -0.127498,0.6658236 l -0.106248,0.014166 -0.01417,0.028333 0.02125,0.063749 -0.02125,0.084999 v 0.035416 l 0.148748,0.1416646 0.191247,0.1487478 0.01417,0.042499 z m 3.499116,-1.1970658 0.106248,-0.063749 0.02833,0.014166 h 0.06375 l -0.01417,-0.063749 0.06375,-0.1274981 -0.02125,-0.099165 0.09916,-0.1699975 V 3.6772388 C 32.709878,3.6489059 32.539881,3.5993233 32.369883,3.5214077 32.206969,3.4434922 32.044054,3.3868264 31.866974,3.3514102 l -0.148748,0.014166 -0.03542,0.099165 c 0.02833,0.099165 0.085,0.184164 0.169997,0.2549963 0.085,0.077916 0.148748,0.1699975 0.191247,0.2549963 l 0.120415,0.056666 v 0.035416 l 0.06375,0.077916 0.0425,-0.014166 h 0.04958 l 0.0425,0.063749 0.0425,-0.02125 z m -4.653682,-0.8429044 0.09208,-0.077916 0.02833,-0.049583 0.06375,-0.042499 0.254996,-0.4037441 h 0.03542 c 0.06375,-0.1274982 0.134581,-0.2549963 0.212497,-0.3754112 0.07792,-0.1204149 0.155831,-0.2408298 0.233746,-0.368328 l 0.04958,-0.077916 0.0425,-0.014166 c 0.0071,-0.035416 0.03542,-0.056666 0.07083,-0.084999 0.03542,-0.02125 0.05667,-0.056666 0.05667,-0.092082 l 0.02833,-0.00708 0.127498,-0.1274981 c 0.06375,-0.056666 0.113331,-0.1204149 0.155831,-0.1912472 0.03542,-0.063749 0.09208,-0.1274981 0.169997,-0.1699975 l 0.02833,-0.092082 0.04958,-0.035416 v -0.028333 h 0.02833 l 0.02833,-0.14874781 0.120415,-0.0637491 -0.0071,-0.0141665 -0.162914,-0.11333168 -0.01417,-0.0424994 c -0.03542,-0.007083 -0.05667,-0.0283329 -0.07792,-0.0424994 -0.02125,-0.0212497 -0.04958,-0.0283329 -0.07792,-0.0283329 v -0.0354162 l -0.602074,-0.2337466 -0.085,0.0141665 v 0.0849988 h -0.02833 l -0.01417,0.0779155 0.01417,0.0495826 C 28.601605,1.0706101 28.467023,1.5168536 28.325359,1.9630971 28.183694,2.4164239 28.034946,2.8626673 27.879115,3.3089108 v 0.035416 z m 4.476601,-0.4887429 0.169997,-0.056666 0.06375,-0.1629143 c -0.01417,-0.042499 -0.02833,-0.084999 -0.03542,-0.1345814 -0.0071,-0.042499 -0.02833,-0.077916 -0.06375,-0.099165 -0.03542,-0.035416 -0.07083,-0.056666 -0.106248,-0.077916 -0.0425,-0.014166 -0.07792,-0.028333 -0.120415,-0.035416 -0.09208,0 -0.191247,0 -0.276246,0 -0.09208,0 -0.184164,0.014166 -0.254996,0.049583 v 0.049583 l -0.06375,0.014166 v 0.014166 c 0.06375,0.056666 0.127498,0.1062484 0.205413,0.1416646 0.07792,0.035416 0.141665,0.092082 0.177081,0.1629143 0.06375,-0.00708 0.113332,0 0.162914,0.035416 0.04958,0.028333 0.09917,0.063749 0.141665,0.099165 z"
         id="path302" />
      <path
         d="m 40.048092,5.7030426 0.09208,-0.014166 0.05667,-0.1983304 c 0.0071,-0.042499 0,-0.070832 -0.02833,-0.092082 -0.02833,-0.02125 -0.04958,-0.049583 -0.05667,-0.077915 L 39.948927,5.2142997 39.899344,5.1576339 C 39.71518,4.853055 39.566432,4.5272264 39.47435,4.1872314 39.382268,3.8472363 39.268937,3.5143245 39.148522,3.1884959 c -0.01417,-0.049583 -0.0071,-0.099165 0.0071,-0.1274981 0.02125,-0.035416 0.03542,-0.070832 0.05667,-0.1062485 l -0.02125,-0.092082 -0.127498,-0.056666 0.01417,-0.056666 v -0.063749 c -0.02125,-0.02125 -0.0425,-0.049583 -0.04958,-0.084999 -0.01417,-0.035416 -0.0425,-0.049583 -0.085,-0.042499 v -0.035416 l -0.02833,-0.014166 c -0.06375,-0.00708 -0.127498,0 -0.177081,0.035416 -0.04958,0.035416 -0.106248,0.063749 -0.155831,0.099165 l -0.02833,0.042499 c -0.07792,0.092082 -0.134581,0.1770807 -0.169997,0.276246 -0.03542,0.099165 -0.07792,0.1912472 -0.113332,0.2904124 l -0.03542,-0.02125 C 38.128537,3.0397481 38.022288,2.8414177 37.937289,2.6501704 37.845207,2.4660065 37.760209,2.2605928 37.69646,2.0480959 l 0.01417,-0.042499 c 0.120415,-0.099165 0.233747,-0.184164 0.347078,-0.276246 0.113332,-0.092082 0.233747,-0.155831 0.368328,-0.2124969 l -0.0071,-0.028333 h 0.07083 v -0.049583 l 0.03542,-0.00708 0.01417,-0.077916 h 0.03542 l 0.04958,-0.084999 -0.02125,-0.077916 -0.212497,-0.084999 v -0.028333 l -0.106248,-0.049583 c -0.127498,0.056666 -0.269163,0.092082 -0.417911,0.1133316 -0.155831,0.02125 -0.297496,0.070832 -0.432077,0.1345814 h -0.05667 l -0.085,-0.3116621 h -0.02833 C 37.250216,0.85103002 37.207717,0.7518648 37.143968,0.67394927 37.080219,0.58895051 37.023553,0.49686852 36.981053,0.39770329 L 36.683558,0.28437161 c -0.03542,-0.007083 -0.07083,-0.007083 -0.106249,0 -0.03542,0.0141665 -0.07083,0.0354161 -0.09916,0.0566658 -0.0071,0.0354161 0.0071,0.0637491 0.02125,0.0849988 0.02125,0.0141665 0.03542,0.0424994 0.0425,0.0708323 l 0.155831,0.10624845 c 0.085,0.092082 0.148748,0.18416398 0.212497,0.29041243 0.06375,0.1133317 0.106249,0.2195801 0.134581,0.3329118 l 0.0071,0.063749 -0.559576,0.3824944 -0.155831,-0.02125 -0.09208,0.028333 -0.05667,-0.014166 -0.06375,0.00708 v 0.035416 l -0.07792,0.028333 -0.0071,0.1204149 0.01417,0.070832 -0.01417,0.3329118 v 0.092082 l 0.354161,-0.1699975 v -0.028333 l 0.807488,-0.3754112 h 0.04958 l 0.09208,0.184164 -1.211232,0.9491529 c -0.02125,0 -0.0425,0 -0.06375,0.00708 -0.02125,0.00708 -0.0425,0.014166 -0.04958,0.035416 h -0.04958 l -0.02833,0.1274982 h -0.03542 l 0.01417,-0.099165 -0.04958,-0.46041 -0.0071,-0.1487478 0.0425,-0.028333 v -0.028333 l 0.07083,-0.084999 c -0.01417,-0.056666 -0.03542,-0.1062485 -0.06375,-0.1558311 -0.02833,-0.042499 -0.05667,-0.092082 -0.09208,-0.1416646 -0.04958,-0.042499 -0.106249,-0.084999 -0.169998,-0.1204149 -0.05667,-0.035416 -0.127498,-0.056666 -0.191247,-0.070832 -0.06375,-0.035416 -0.120415,-0.063749 -0.169998,-0.099165 -0.05667,-0.035416 -0.09916,-0.070832 -0.134581,-0.1345814 h -0.01417 l 0.0071,0.063749 h -0.01417 c 0,0.1062484 0.02125,0.2054136 0.07083,0.2904124 0.04958,0.077915 0.09916,0.1629143 0.148747,0.2549963 0,0.042499 -0.0071,0.077916 -0.02833,0.1062484 -0.01417,0.035416 -0.03542,0.070832 -0.06375,0.1062485 0.0071,0.049583 0.02125,0.099165 0.0425,0.1345814 0.01417,0.035416 0.03542,0.077915 0.06375,0.1204149 l -0.02125,0.1345813 v 0.049583 h 0.02833 c 0,0.063749 0.01417,0.1274981 0.04958,0.1912472 0.03542,0.063749 0.06375,0.1274981 0.09917,0.1770807 -0.01417,0.2549963 -0.0425,0.5099926 -0.09208,0.7366559 -0.04958,0.2266634 -0.141665,0.4391603 -0.276246,0.6374907 -0.03542,0.035416 -0.06375,0.056666 -0.09208,0.077916 -0.02833,0.02125 -0.05667,0.035416 -0.09208,0.035416 h 0.01417 c -0.0071,0.028333 -0.02125,0.056666 -0.03542,0.084999 -0.02125,0.035416 -0.02125,0.070832 -0.0071,0.1133317 h -0.06375 c 0.01417,0.035416 0.02125,0.056666 0.02833,0.084999 0.0071,0.035416 0.01417,0.063749 0.03542,0.092082 0.02833,0.035416 0.06375,0.049583 0.09208,0.056666 0.03542,0.00708 0.06375,0.02125 0.09208,0.028333 h 0.04958 l 0.169997,-0.1770808 0.06375,-0.084999 h 0.02833 c 0.162915,-0.2479131 0.269163,-0.5170758 0.325829,-0.8074883 0.05667,-0.2833292 0.09916,-0.5808248 0.134581,-0.8854037 h 0.02125 l 0.02833,0.1699975 -0.02125,0.049583 0.02833,0.1770808 0.120415,-0.049583 v -0.035416 c 0.141665,-0.035416 0.276246,-0.077916 0.410827,-0.1558311 0.120415,-0.070832 0.247913,-0.1345813 0.375411,-0.1841639 v -0.014166 l 0.226664,-0.099165 0.0425,-0.00708 c -0.0425,0.1770807 -0.09208,0.3541615 -0.155831,0.524159 -0.06375,0.1699975 -0.134581,0.3470782 -0.21958,0.5029093 h -0.04958 l -0.03542,-0.6587404 -0.02833,0.00708 c -0.01417,0.1558311 -0.02833,0.3187454 -0.04958,0.4745765 -0.02125,0.155831 -0.06375,0.3116621 -0.113332,0.4533267 l 0.01417,0.049583 -0.02833,0.063749 0.02833,0.1204149 -0.02125,0.070832 c 0.01417,0.042499 0.03542,0.077916 0.07083,0.1062484 0.03542,0.035416 0.04958,0.070832 0.05667,0.1062485 h 0.0425 l 0.02833,-0.1487479 0.02833,-0.00708 0.02833,-0.063749 0.04958,-0.014166 -0.0071,-0.028333 0.05667,-0.042499 0.02833,-0.1062485 0.04958,-0.02125 c 0.113332,-0.2124969 0.205414,-0.432077 0.290412,-0.6658236 0.085,-0.2266633 0.169998,-0.4604099 0.254997,-0.7012398 l 0.04958,-0.014166 0.113332,-0.1983305 -0.01417,-0.063749 -0.297495,-0.1416646 v -0.014166 l -0.07792,-0.014166 c -0.06375,0.035416 -0.120415,0.056666 -0.177081,0.077915 -0.06375,0.02125 -0.127498,0.042499 -0.191247,0.063749 h -0.07083 l 0.297496,-0.2833292 v -0.028333 l 0.318745,-0.1912472 h 0.04958 c 0.106248,0.2124969 0.212496,0.4249938 0.318745,0.6374907 0.106248,0.2195802 0.21958,0.4249938 0.347078,0.6233243 l -0.03542,0.2833292 -0.04958,0.00708 V 3.6347394 c 0,0.02125 -0.0071,0.035416 -0.01417,0.042499 -0.0071,0.02125 -0.02833,0.028333 -0.0425,0.028333 l -0.0425,0.1204149 h -0.02833 l 0.02833,-0.2054136 v -0.014166 c -0.0425,0.1274981 -0.07791,0.2549963 -0.106248,0.3754112 -0.03542,0.1345814 -0.07792,0.2620795 -0.134582,0.3824944 l -0.05667,0.028333 0.04958,0.1416646 0.09208,0.099165 0.0425,0.042499 0.03542,0.014166 0.06375,0.1062484 0.04958,0.028333 0.06375,0.1912472 0.0425,-0.014166 c 0.02833,-0.056666 0.05667,-0.1133317 0.085,-0.1629143 0.02833,-0.056666 0.04958,-0.1133317 0.05667,-0.1770807 h 0.02833 l 0.01417,-0.099165 h 0.02833 c 0.01417,-0.063749 0.03542,-0.1274981 0.06375,-0.1912472 0.02833,-0.063749 0.04958,-0.1204149 0.05667,-0.1912472 h 0.03542 l 0.05667,-0.1699975 0.134581,0.1416646 h 0.02833 l 0.290412,0.4108273 0.02833,0.02125 0.361245,0.4533268 0.04958,0.035416 0.0425,0.084999 h 0.02833 l 0.04958,0.1133316 0.09208,0.063749 -0.01417,0.042499 v 0.035416 l 0.085,0.028333 0.07083,0.1062484 0.07792,0.049583 0.02833,-0.014166 z m -0.566658,-0.9279032 -0.01417,0.02125 -0.0425,-0.014166 -0.085,-0.1204149 h -0.02833 l -0.07791,-0.1133317 -0.0425,-0.014166 -0.318745,-0.432077 h -0.02125 L 38.588947,3.7268214 c 0.03542,-0.1345814 0.07792,-0.276246 0.127498,-0.4179106 0.04958,-0.1487478 0.141664,-0.2691627 0.262079,-0.3895776 l 0.0425,0.00708 c 0.120415,0.276246 0.205413,0.5595752 0.283329,0.8429044 0.07792,0.2904124 0.134581,0.5879081 0.169997,0.8854037 z m -1.827474,-3.0457889 -0.03542,0.035416 h -0.03542 l -0.02125,-0.056666 0.01417,-0.084999 0.226663,-0.070832 0.03542,-0.00708 v 0.035416 z m 0.970403,-0.7154062 c 0.085,-0.0424994 0.17708,-0.0779155 0.262079,-0.10624844 0.09208,-0.0283329 0.184164,-0.0424994 0.283329,-0.0424994 0.0071,-0.0212497 0.02833,-0.0424994 0.04958,-0.0637491 0.02125,-0.0141665 0.02125,-0.0354161 0,-0.0708323 l 0.07792,-0.0354161 c -0.02833,-0.0495826 -0.03542,-0.10624845 -0.02833,-0.16999752 0.0071,-0.0637491 -0.01417,-0.10624846 -0.05667,-0.14874784 l -0.191247,-0.0212497 c -0.06375,0.007083 -0.120415,0.0212497 -0.162915,0.0424994 -0.04958,0.0212497 -0.09916,0.0495826 -0.141664,0.0849988 l -0.06375,0.14166461 0.02833,0.0424994 -0.07083,0.14874783 0.01417,0.15583106 z"
         id="path304" />
    </g>
  </g>
</svg>
