<?xml version="1.0" encoding="UTF-8" standalone="no"?>
<!-- Created with Inkscape (http://www.inkscape.org/) -->

<svg
   width="20.000999mm"
   height="7mm"
   viewBox="0 0 20.000998 7"
   version="1.1"
   id="svg5"
   inkscape:version="1.2.2 (b0a8486, 2022-12-01)"
   sodipodi:docname="topNoticeLOGO.svg"
   xmlns:inkscape="http://www.inkscape.org/namespaces/inkscape"
   xmlns:sodipodi="http://sodipodi.sourceforge.net/DTD/sodipodi-0.dtd"
   xmlns="http://www.w3.org/2000/svg"
   xmlns:svg="http://www.w3.org/2000/svg">
  <sodipodi:namedview
     id="namedview7"
     pagecolor="#ffffff"
     bordercolor="#000000"
     borderopacity="0.25"
     inkscape:showpageshadow="2"
     inkscape:pageopacity="0.0"
     inkscape:pagecheckerboard="0"
     inkscape:deskcolor="#d1d1d1"
     inkscape:document-units="mm"
     showgrid="false"
     inkscape:zoom="4.7488465"
     inkscape:cx="99.497846"
     inkscape:cy="18.004372"
     inkscape:window-width="1440"
     inkscape:window-height="771"
     inkscape:window-x="1080"
     inkscape:window-y="1616"
     inkscape:window-maximized="0"
     inkscape:current-layer="layer1" />
  <defs
     id="defs2">
    <rect
       x="-1.8951972"
       y="4.0009718"
       width="213.31496"
       height="77.703079"
       id="rect268" />
  </defs>
  <g
     inkscape:label="Layer 1"
     inkscape:groupmode="layer"
     id="layer1">
    <path
       style="fill:none;fill-rule:evenodd;stroke:#000000;stroke-width:0.21864px;stroke-linecap:butt;stroke-linejoin:miter;stroke-opacity:1"
       d="m 4.4186655,7.736698 v 0"
       id="path208"
       inkscape:connector-type="polyline"
       inkscape:connector-curvature="0" />
    <text
       xml:space="preserve"
       style="font-size:8.85995px;font-family:KouzanBrushFontGyousyoOTF;-inkscape-font-specification:KouzanBrushFontGyousyoOTF;fill:#000000;stroke-width:0.166124"
       x="-1.3619121"
       y="8.4681635"
       id="text214"
       transform="scale(0.67763293,1.4757252)"><tspan
         sodipodi:role="line"
         id="tspan212"
         style="stroke-width:0.166124"
         x="-1.3619121"
         y="8.4681635" /></text>
    <text
       xml:space="preserve"
       transform="scale(0.26458333)"
       id="text266"
       style="font-size:53.3333px;font-family:KouzanBrushFontGyousyoOTF;-inkscape-font-specification:KouzanBrushFontGyousyoOTF;white-space:pre;shape-inside:url(#rect268);display:inline;fill:#000000" />
    <g
       aria-label="通知"
       transform="scale(1.1056502,0.90444518)"
       id="text932"
       style="font-size:9.959px;font-family:KouzanBrushFontGyousyoOTF;-inkscape-font-specification:KouzanBrushFontGyousyoOTF;stroke-width:0.186733">
      <path
         d="m 7.2035357,7.7517994 0.039836,-0.00996 0.019918,0.00996 0.229057,-0.00996 h 0.119508 c 0.19918,-0.00996 0.378442,-0.039836 0.567663,-0.089631 0.189221,-0.049795 0.3585239,-0.109549 0.5477449,-0.179262 v -0.039836 h 0.079672 l 0.00996,-0.079672 0.109549,-0.049795 -0.159344,0.029877 C 7.6516907,7.2837264 6.5462417,7.1243824 5.4507518,6.8754074 4.3353438,6.6264324 3.2498128,6.3575394 2.1841999,6.0986054 l 0.049795,-0.149385 h 0.039836 c 0.019918,-0.059754 0.049795,-0.09959 0.079672,-0.149385 0.029877,-0.049795 0.049795,-0.109549 0.049795,-0.179262 h 0.039836 c -0.00996,-0.069713 -0.00996,-0.139426 -0.019918,-0.19918 -0.00996,-0.059754 -0.029877,-0.1195079 -0.079672,-0.1792619 l -0.049795,-0.029877 -0.219098,-0.378442 -0.129467,-0.119508 c -0.089631,-0.069713 -0.179262,-0.149385 -0.239016,-0.248975 -0.079672,-0.089631 -0.119508,-0.209139 -0.129467,-0.328647 l 0.09959,-0.517868 0.159344,-0.119508 0.039836,-0.069713 0.139426,-0.049795 0.029877,-0.029877 0.278852,-0.049795 -0.069713,-0.039836 v -0.049795 l -0.039836,-0.019918 v -0.039836 h 0.059754 l -0.059754,-0.019918 -0.069713,-0.159344 c -0.119508,-0.049795 -0.258934,-0.089631 -0.408319,-0.119508 -0.139426,-0.029877 -0.268893,-0.079672 -0.39836,-0.129467 h -0.089631 l -0.229057,0.069713 0.019918,0.079672 -0.00996,0.139426 -0.77680195,0.577622 -0.12946699,-0.019918 v -0.039836 h -0.049795 l 0.24897499,0.288811 c 0.079672,0.029877 0.16930299,0.039836 0.27885199,0.029877 0.109549,0 0.20913899,0 0.29876999,0 0.009959,0.169303 0.059754,0.318688 0.13942597,0.438196 0.079672,0.139426 0.179262,0.268893 0.29877,0.368483 l 0.069713,0.049795 0.388401,0.517868 c 0.00996,0.129467 -0.00996,0.2390159 -0.059754,0.3286469 -0.039836,0.09959 -0.109549,0.189221 -0.19918,0.278852 l -0.308729,0.239016 -0.079672,-0.019918 c -0.069713,-0.00996 -0.139426,-0.00996 -0.18922097,0 -0.059754,0.019918 -0.09959,0.049795 -0.149385,0.09959 0.009959,0.129467 0.059754,0.239016 0.119508,0.338606 0.069713,0.109549 0.15934397,0.209139 0.25893397,0.29877 0.159344,0 0.318688,-0.019918 0.478032,-0.049795 0.139426,-0.029877 0.29877,-0.049795 0.448155,-0.089631 0.846515,0.129467 1.6930299,0.318688 2.5295859,0.557704 0.836556,0.248975 1.6930299,0.428237 2.5594629,0.547745 z m -0.936146,-1.344465 0.189221,-0.039836 0.039836,-0.079672 h 0.059754 v 0.00996 l 0.059754,-0.00996 v -0.029877 h 0.049795 l -0.049795,-0.159344 0.109549,-1.2448749 -0.019918,-0.617458 0.019918,-0.677212 -0.019918,-0.089631 0.059754,-0.09959 c 0.029877,-0.139426 0.059754,-0.288811 0.079672,-0.428237 0.019918,-0.149385 0.039836,-0.2987699 0.059754,-0.4282369 l 0.129467,-0.169303 0.139426,0.019918 h 0.069713 l -0.029877,-0.09959 c -0.209139,-0.129467 -0.438196,-0.19918 -0.677212,-0.248975 -0.239016,-0.039836 -0.468073,-0.109549 -0.667253,-0.219098 l -0.1593439,0.139426 c -0.139426,-0.029877 -0.258934,-0.069713 -0.378442,-0.119508 -0.129467,-0.049795 -0.258934,-0.089631 -0.39836,-0.119508 l 0.069713,-0.09959 0.039836,-0.089631 0.09959,-0.029877 v -0.039836 l 0.219098,-0.169303 v -0.039836 h 0.039836 l 0.09959,-0.109549 c 0.159344,-0.14938499 0.3386059,-0.23901599 0.5377859,-0.26889298 0.209139,-0.029877 0.388401,-0.09959 0.567663,-0.209139 l 0.039836,-0.059754 v -0.049795 c -0.229057,-0.069713 -0.438196,-0.149385 -0.667253,-0.23901599 -0.2190979,-0.079672 -0.4481549,-0.149385 -0.6772119,-0.19918 h -0.059754 v 0.109549 l -0.149385,0.059754 -0.019918,0.09959 c -0.29877,0.089631 -0.59754,0.189221 -0.906269,0.29876999 -0.328647,0.119508 -0.647335,0.189221 -0.966023,0.21909799 l -0.3784419,-0.13942599 -0.049795,0.009959 v 0.039836 l -0.049795,0.029877 v 0.069713 l 0.4581139,0.47803199 0.189221,0.059754 v 0.039836 l 0.029877,0.019918 c 0.149385,0 0.308729,-0.019918 0.448155,-0.059754 0.149385,-0.029877 0.288811,-0.09959 0.408319,-0.179262 v -0.049795 l 0.149385,-0.019918 0.00996,-0.089631 h 0.049795 v -0.019918 l -0.059754,-0.039836 v -0.089631 c 0.079672,-0.049795 0.159344,-0.09959 0.229057,-0.14938499 0.079672,-0.049795 0.159344,-0.079672 0.248975,-0.089631 h 0.029877 l -0.587581,1.12536698 -0.19918,-0.00996 h -0.248975 l 0.507909,0.388401 -0.029877,0.069713 -0.278852,0.229057 c 0,0.089631 0.019918,0.1792619 0.069713,0.2688929 0.049795,0.089631 0.079672,0.169303 0.109549,0.239016 l 0.079672,0.049795 0.069713,-0.029877 0.229057,0.029877 0.00996,0.239016 c -0.119508,0.019918 -0.248975,0.049795 -0.378442,0.089631 -0.119508,0.049795 -0.239016,0.109549 -0.348565,0.179262 l -0.069713,-0.019918 -0.069713,-0.169303 c -0.089631,-0.059754 -0.179262,-0.109549 -0.278852,-0.149385 -0.109549,-0.029877 -0.19918,-0.059754 -0.288811,-0.079672 h -0.069713 l 0.179262,0.278852 c -0.019918,0.29877 -0.049795,0.577622 -0.089631,0.836556 -0.039836,0.278852 -0.109549,0.537786 -0.1991799,0.786761 0.00996,0.079672 0.019918,0.149385 0.049795,0.209139 0.019918,0.069713 0.049795,0.1294669 0.089631,0.1792619 h 0.039836 l 0.139426,0.219098 0.049795,0.049795 v 0.069713 l 0.049795,-0.019918 h 0.189221 v 0.029877 h 0.079672 l 0.029877,-0.059754 0.189221,-0.00996 v 0.049795 l 0.089631,-0.019918 C 3.9967378,5.6703684 3.9668608,5.6006554 3.9170658,5.5409014 3.8672708,5.4911064 3.8473528,5.4313524 3.8473528,5.3417215 l 0.019918,-0.776802 0.069713,0.019918 0.248975,-0.049795 0.049795,0.019918 0.368483,-0.069713 c 0.049795,0.059754 0.069713,0.139426 0.059754,0.239016 -0.00996,0.109549 0,0.19918 0.049795,0.278852 l 0.059754,-0.00996 c 0.049795,-0.089631 0.089631,-0.179262 0.109549,-0.268893 0.019918,-0.089631 0.039836,-0.169303 0.049795,-0.278852 0.149385,-0.069713 0.308729,-0.129467 0.458114,-0.179262 0.139426,-0.049795 0.278852,-0.119508 0.4182779,-0.219098 -0.00996,-0.059754 -0.049795,-0.089631 -0.1095489,-0.089631 -0.069713,0.00996 -0.129467,0 -0.179262,-0.00996 l -0.19918,0.029877 -0.19918,0.00996 0.069713,-0.39836 c 0.089631,-0.00996 0.169303,-0.039836 0.258934,-0.069713 0.079672,-0.029877 0.159344,-0.059754 0.229057,-0.109549 v -0.059754 l -0.378442,-0.119508 c -0.029877,-0.089631 -0.059754,-0.169303 -0.069713,-0.248975 -0.00996,-0.069713 -0.039836,-0.139426 -0.089631,-0.209139 l 0.059754,-0.089631 v -0.049795 h 0.069713 l 0.019918,-0.069713 0.129467,-0.00996 0.089631,0.039836 -0.019918,0.1493849 0.109549,0.229057 0.049795,0.00996 c 0.1593439,0.229057 0.2390159,0.487991 0.2589339,0.776802 0.00996,0.278852 0.039836,0.567663 0.069713,0.856474 l -0.019918,0.8465149 h -0.079672 l -0.039836,-0.049795 h -0.039836 c 0,-0.069713 -0.019918,-0.1394259 -0.049795,-0.1991799 -0.029877,-0.049795 -0.079672,-0.109549 -0.129467,-0.159344 l -0.109549,-0.039836 -0.039836,-0.129467 h -0.049795 c 0.039836,0.169303 0.069713,0.348565 0.09959,0.5278269 0.029877,0.169303 0.039836,0.348565 0.039836,0.527827 0.119508,0.079672 0.2390159,0.159344 0.3585239,0.239016 0.119508,0.079672 0.239016,0.149385 0.348565,0.229057 z M 4.6540318,4.1267235 4.4249748,4.1964365 h -0.109549 v -0.049795 l 0.239016,-0.149385 0.09959,0.019918 z m -0.547745,-0.139426 -0.159344,0.089631 h -0.049795 v -0.308729 l 0.129467,0.039836 0.258934,-0.09959 h 0.059754 z M 1.0090379,2.3639806 c 0.089631,-0.00996 0.189221,-0.049795 0.278852,-0.09959 0.079672,-0.049795 0.159344,-0.09959 0.248975,-0.139426 l 0.049795,-0.069713 0.149385,-0.00996 0.109549,0.00996 h 0.019918 L 1.7460039,1.7365636 C 1.6065779,1.5971376 1.4372749,1.4875886 1.2779309,1.4079166 1.1086279,1.3282446 0.91940693,1.2884086 0.74014493,1.2784496 H 0.63059594 v 0.039836 l 0.42823696,0.219098 v 0.049795 l 0.169303,0.139426 c 0.00996,0.129467 -0.00996,0.239016 -0.039836,0.338606 -0.039836,0.09959 -0.09959,0.189221 -0.179262,0.278852 z"
         id="path294" />
      <path
         d="m 11.037731,7.2438904 c 0.129467,0.00996 0.239016,0 0.328647,-0.049795 0.08963,-0.039836 0.189221,-0.069713 0.308729,-0.079672 l 0.169303,-0.129467 v -0.059754 l 0.149385,-0.079672 c 0.19918,-0.19918 0.348565,-0.428237 0.458114,-0.677212 0.09959,-0.248975 0.189221,-0.49795 0.258934,-0.756884 0.08963,0.039836 0.169303,0.069713 0.248975,0.09959 0.07967,0.039836 0.169303,0.069713 0.268893,0.079672 l 0.06971,-0.019918 c 0.03984,0 0.06971,0 0.109549,0 0.02988,0 0.06971,0.00996 0.09959,0.039836 l 0.05975,-0.019918 0.179262,0.069713 0.07967,-0.00996 -0.04979,-0.069713 0.04979,-0.089631 -0.159344,-0.2390159 c -0.04979,-0.049795 -0.109549,-0.089631 -0.159344,-0.129467 -0.04979,-0.029877 -0.119508,-0.059754 -0.179262,-0.069713 v -0.029877 l -0.19918,-0.069713 -0.08963,-0.089631 h -0.03984 l -0.07967,-0.278852 0.08963,-0.687171 c 0.129467,-0.069713 0.268893,-0.119508 0.388401,-0.169303 0.129467,-0.049795 0.268893,-0.089631 0.408319,-0.109549 h 0.169303 c -0.01,0.179262 -0.01,0.348565 0.01992,0.517868 0.02988,0.159344 0.04979,0.328647 0.05975,0.487991 0.06971,0.079672 0.139426,0.159344 0.229057,0.239016 0.07967,0.079672 0.169303,0.159344 0.258934,0.219098 l 0.09959,-0.039836 h 0.05975 l 0.01992,0.069713 0.04979,-0.00996 v -0.029877 l 0.278852,0.109549 v 0.029877 l 0.358524,0.129467 h 0.01 v -0.268893 l 0.278852,0.029877 0.109549,-0.039836 0.29877,0.029877 c 0.149385,0 0.278852,0 0.418278,-0.00996 0.139426,0 0.268893,-0.019918 0.39836,-0.059754 l -0.02988,-0.109549 c 0,-0.109549 0.02988,-0.19918 0.07967,-0.278852 0.04979,-0.069713 0.07967,-0.159344 0.07967,-0.258934 h 0.02988 l 0.07967,-0.239016 0.109549,-0.079672 0.04979,-0.258934 h 0.03984 l 0.06971,-0.139426 0.159344,-0.109549 0.06971,-0.119508 c 0.05975,-0.029877 0.119508,-0.049795 0.169303,-0.069713 0.04979,-0.019918 0.08963,-0.049795 0.139426,-0.09959 l 0.03984,-0.109549 -0.03984,-0.149385 h -0.03984 l -0.07967,-0.29877 -0.08963,-0.089631 c -0.119508,-0.039836 -0.229057,-0.079672 -0.328647,-0.129467 -0.109549,-0.049795 -0.229057,-0.089631 -0.348565,-0.139426 -0.139426,0.049795 -0.278852,0.089631 -0.418278,0.119508 -0.129467,0.029877 -0.268893,0.059754 -0.408319,0.089631 l -0.169303,-0.039836 -0.08963,0.019918 -0.08963,-0.039836 c -0.149385,0.079672 -0.308729,0.1693029 -0.478032,0.2589339 -0.159344,0.089631 -0.348565,0.149385 -0.527827,0.179262 l 0.219098,0.458114 0.368483,0.129467 c 0.129467,0.019918 0.248975,-0.00996 0.338606,-0.079672 0.07967,-0.059754 0.169303,-0.119508 0.258934,-0.179262 h 0.05975 l 0.109549,0.109549 -0.169303,1.185121 -0.08963,0.029877 -0.647335,-0.09959 -0.07967,0.019918 -0.06971,0.109549 -0.06971,-0.019918 c -0.06971,-0.089631 -0.129467,-0.179262 -0.189221,-0.268893 -0.05975,-0.089631 -0.109549,-0.169303 -0.159344,-0.278852 -0.01,-0.00996 -0.01992,-0.039836 -0.02988,-0.069713 -0.01,-0.029877 -0.02988,-0.039836 -0.07967,-0.029877 l -0.39836,-0.647335 -0.219098,-0.169303 h -0.01992 l -0.02988,0.288811 C 13.83621,3.3598805 13.666907,3.3200445 13.487645,3.3001265 13.308383,3.2802085 13.13908,3.2403725 12.979736,3.1806185 l -0.01992,-0.258934 c -0.03984,-0.00996 -0.07967,-0.039836 -0.109549,-0.069713 -0.03984,-0.029877 -0.08963,-0.039836 -0.149385,-0.029877 v -0.059754 l 0.06971,-0.019918 0.05975,-0.1195079 0.537786,-0.239016 0.07967,0.019918 0.189221,-0.079672 0.08963,0.019918 0.169303,-0.09959 -0.04979,-0.189221 -0.139426,-0.049795 v -0.069713 h -0.06971 v -0.039836 l -0.647335,-0.219098 c -0.05975,0.019918 -0.109549,0.029877 -0.179262,0.039836 -0.06971,0.00996 -0.139426,0.00996 -0.209139,0.00996 l -0.01992,0.089631 h -0.09959 l -0.01992,0.089631 h -0.06971 l -0.01992,0.059754 -0.29877,0.159344 h -0.03984 c 0.03984,-0.129467 0.06971,-0.268893 0.09959,-0.408319 0.02988,-0.149385 0.06971,-0.288811 0.119508,-0.408319 0.01,-0.049795 0,-0.089631 -0.02988,-0.129467 -0.03984,-0.029877 -0.06971,-0.059754 -0.07967,-0.089631 l -0.318688,-0.15934399 -0.189221,-0.17926199 -0.129467,-0.059754 -0.01992,-0.069713 c -0.05975,-0.029877 -0.119508,-0.059754 -0.169303,-0.10954899 -0.04979,-0.039836 -0.119508,-0.069713 -0.189221,-0.079672 h -0.01992 l 0.01,0.09959 -0.109549,-0.049795 h -0.01992 v 0.47803198 h -0.04979 l -0.03984,0.10954899 0.01992,0.139426 v 0.139426 h -0.03984 l -0.02988,0.139426 0.03984,0.129467 c -0.04979,0.29877 -0.09959,0.59754 -0.139426,0.906269 -0.03984,0.2987699 -0.05975,0.6074989 -0.06971,0.9162279 v 0.049795 l 0.169303,-0.069713 v -0.039836 h 0.05975 l 0.07967,-0.089631 0.03984,-0.089631 0.219098,-0.229057 0.05975,-0.139426 0.05975,-0.039836 0.08963,-0.129467 0.239016,-0.1493849 h 0.03984 l 0.06971,0.1693029 0.169303,0.079672 c -0.09959,0.258934 -0.229057,0.527827 -0.368483,0.776802 -0.149385,0.258934 -0.318688,0.49795 -0.478032,0.717048 l -0.06971,0.019918 -0.01,0.069713 -0.08963,0.069713 -0.248975,0.179262 -0.219097,0.169303 v 0.059754 c 0.06971,0.069713 0.139425,0.149385 0.18922,0.219098 0.04979,0.089631 0.109549,0.149385 0.189221,0.189221 l 0.268893,-0.049795 0.169303,-0.139426 0.07967,-0.049795 0.19918,-0.149385 0.01992,-0.089631 0.109549,-0.019918 0.258934,-0.19918 0.29877,0.159344 c -0.01,0.418278 -0.07967,0.7967199 -0.19918,1.1552439 -0.139426,0.358524 -0.338606,0.687171 -0.59754,1.005859 h -0.03984 l -0.02988,0.069713 c -0.06971,0.039836 -0.129467,0.079672 -0.189221,0.129467 -0.06971,0.049795 -0.139426,0.069713 -0.219098,0.09959 l 0.03984,0.069713 z m 0.79672,-3.3462239 -0.06971,0.039836 h -0.05975 l 0.109549,-0.149385 0.05975,-0.169303 h 0.04979 v -0.069713 c 0.03984,0.019918 0.06971,0.00996 0.08963,-0.019918 0.01,-0.029877 0.02988,-0.059754 0.03984,-0.089631 l 0.07967,0.029877 -0.02988,0.278852 z"
         id="path296" />
    </g>
  </g>
</svg>
