<?xml version="1.0" encoding="UTF-8" standalone="no"?>
<!-- Created with Inkscape (http://www.inkscape.org/) -->

<svg
   width="30mm"
   height="7mm"
   viewBox="0 0 30 7"
   version="1.1"
   id="svg5"
   inkscape:version="1.2.2 (b0a8486, 2022-12-01)"
   sodipodi:docname="topReportIndexLOGO.svg"
   xmlns:inkscape="http://www.inkscape.org/namespaces/inkscape"
   xmlns:sodipodi="http://sodipodi.sourceforge.net/DTD/sodipodi-0.dtd"
   xmlns="http://www.w3.org/2000/svg"
   xmlns:svg="http://www.w3.org/2000/svg">
  <sodipodi:namedview
     id="namedview7"
     pagecolor="#ffffff"
     bordercolor="#000000"
     borderopacity="0.25"
     inkscape:showpageshadow="2"
     inkscape:pageopacity="0.0"
     inkscape:pagecheckerboard="0"
     inkscape:deskcolor="#d1d1d1"
     inkscape:document-units="mm"
     showgrid="false"
     inkscape:zoom="4.7488465"
     inkscape:cx="73.59682"
     inkscape:cy="22.426499"
     inkscape:window-width="1440"
     inkscape:window-height="771"
     inkscape:window-x="1080"
     inkscape:window-y="1616"
     inkscape:window-maximized="0"
     inkscape:current-layer="layer1" />
  <defs
     id="defs2">
    <rect
       x="-1.8951972"
       y="4.0009718"
       width="213.31496"
       height="77.703079"
       id="rect268" />
  </defs>
  <g
     inkscape:label="Layer 1"
     inkscape:groupmode="layer"
     id="layer1">
    <g
       aria-label="通報一覧 "
       transform="matrix(0.82991989,0,0,0.90396425,0.05829994,-0.05571528)"
       id="text352"
       style="font-size:9.50305px;font-family:KouzanBrushFontGyousyoOTF;-inkscape-font-specification:KouzanBrushFontGyousyoOTF;fill:#241c1c;stroke-width:0.548254">
      <path
         d="m 6.8135376,7.4576403 0.038012,-0.0095 0.019006,0.0095 0.2185701,-0.0095 h 0.1140366 c 0.190061,-0.0095 0.3611159,-0.038012 0.5416739,-0.085527 C 7.9253941,7.3150983 8.086946,7.2580798 8.2675039,7.1915584 v -0.038012 h 0.076024 l 0.0095,-0.076024 0.1045335,-0.047515 -0.1520488,0.028509 C 7.2411748,7.010997 6.1863363,6.8589482 5.1410008,6.6213719 4.0766592,6.3837957 3.0408268,6.1272134 2.0240005,5.8801341 l 0.047515,-0.1425458 h 0.038012 C 2.128534,5.68057 2.1570432,5.6425578 2.1855523,5.5950426 2.2140615,5.5475273 2.2330676,5.490509 2.2330676,5.4239877 h 0.038012 c -0.0095,-0.066521 -0.0095,-0.1330427 -0.019006,-0.190061 -0.0095,-0.057018 -0.028509,-0.1140366 -0.076024,-0.1710549 L 2.128534,5.0343626 1.9194669,4.6732467 1.7959273,4.5592101 C 1.7103998,4.4926888 1.6248724,4.4166644 1.5678541,4.3216339 1.4918297,4.2361064 1.4538175,4.1220698 1.4443144,4.0080332 L 1.5393444,3.5138746 1.6913932,3.399838 1.7294052,3.333317 1.8624479,3.285802 1.8909569,3.257293 2.1570423,3.209778 2.0905213,3.171766 V 3.124251 L 2.0525093,3.105245 V 3.067233 h 0.057018 L 2.0525096,3.0482252 1.9859883,2.8961764 C 1.8719517,2.8486612 1.738909,2.810649 1.5963632,2.7821398 1.4633205,2.7536307 1.3397809,2.7061154 1.2162412,2.6586002 h -0.085527 l -0.21857017,0.066521 0.0190061,0.076024 -0.009503,0.1330427 L 0.18040879,3.4853655 0.05686915,3.4663594 V 3.4283472 H 0.0093539 l 0.23757624,0.2755884 c 0.0760244,0.028509 0.16155185,0.038012 0.2660854,0.028509 0.10453355,0 0.19956405,0 0.2850915,0 0.009503,0.1615518 0.0570183,0.3040976 0.13304269,0.4181342 0.0760244,0.1330427 0.17105487,0.2565823 0.28509147,0.3516128 l 0.066521,0.047515 0.3706189,0.4941586 c 0.0095,0.1235396 -0.0095,0.2280732 -0.057018,0.3136006 -0.038012,0.095031 -0.1045335,0.180558 -0.190061,0.2660854 L 1.1117077,5.8516249 1.0356833,5.8326188 c -0.0665214,-0.0095 -0.13304272,-0.0095 -0.18055797,0 -0.0570183,0.019006 -0.0950305,0.047515 -0.14254574,0.095031 0.009503,0.1235397 0.0570183,0.2280732 0.11403659,0.3231037 0.0665213,0.1045336 0.1520488,0.199564 0.24707932,0.2850915 0.1520488,0 0.3040976,-0.019006 0.4561464,-0.047515 C 1.6628846,6.4598201 1.8149334,6.440814 1.9574791,6.4028018 2.7652384,6.5263414 3.5729976,6.7068994 4.3712538,6.9349726 5.16951,7.1725488 5.9867723,7.3436037 6.8135376,7.4576403 Z M 5.9202509,6.1747286 6.1008089,6.1367164 6.1388211,6.060692 h 0.057018 v 0.0095 l 0.057018,-0.0095 V 6.032183 h 0.047515 L 6.2528576,5.8801341 6.3573912,4.6922528 6.3383851,4.1030637 6.3573912,3.4568563 6.3383851,3.3713289 6.3954034,3.2762984 C 6.4239125,3.1432557 6.4524217,3.00071 6.4714278,2.8676673 6.4904339,2.7251215 6.50944,2.5825758 6.5284461,2.4590361 l 0.1235396,-0.1615518 0.1330427,0.019006 h 0.066521 l -0.028509,-0.09503 C 6.6234766,2.0979202 6.4049064,2.0313989 6.1768333,1.9838836 5.9487601,1.9458714 5.7301899,1.8793501 5.5401289,1.7748165 L 5.3880801,1.9078592 C 5.2550374,1.8793501 5.1410008,1.8413379 5.0269642,1.7938226 4.9034246,1.7463074 4.7798849,1.7082952 4.6468422,1.679786 L 4.7133632,1.584755 4.7513752,1.499228 4.8464062,1.470719 V 1.4327067 L 5.0554734,1.2711549 v -0.038012 h 0.038012 L 5.1885161,1.1286091 C 5.3405649,0.98606339 5.5116198,0.90053594 5.7016808,0.87202679 5.9012448,0.84351764 6.0722997,0.77699629 6.2433546,0.67246274 l 0.038012,-0.0570183 V 0.56792919 C 6.0627967,0.50140784 5.8632326,0.42538344 5.6446625,0.339856 5.4355954,0.2638316 5.2170252,0.19731025 4.9984551,0.149795 H 4.9414368 V 0.25432855 L 4.798891,0.31134685 4.7798849,0.40637734 C 4.4947934,0.49190479 4.2097019,0.58693529 3.9151074,0.69146884 3.6015067,0.80550544 3.2974091,0.87202679 2.9933116,0.90053594 l -0.3611159,-0.1330427 -0.047515,0.009503 v 0.0380122 l -0.047515,0.0285091 v 0.0665214 L 2.974306,1.3661853 3.1548639,1.4232034 v 0.038012 l 0.028509,0.019006 c 0.1425458,0 0.2945946,-0.019006 0.4276373,-0.057018 0.1425457,-0.028509 0.2755884,-0.095031 0.389625,-0.171055 v -0.047515 l 0.1425458,-0.019006 0.0095,-0.085527 H 4.200196 V 1.0810939 L 4.1431806,1.0430817 V 0.95755424 C 4.219205,0.91003899 4.2952294,0.86252374 4.3617507,0.81500849 4.4377751,0.76749324 4.5137995,0.73898409 4.599327,0.72948104 H 4.627836 L 4.0671562,1.8033257 3.8770952,1.7938226 H 3.6395189 l 0.4846556,0.370619 -0.028509,0.066521 -0.2660854,0.2185702 c 0,0.085527 0.019006,0.1710549 0.066521,0.2565823 0.047515,0.085527 0.076024,0.1615519 0.1045335,0.2280732 l 0.076024,0.047515 0.066521,-0.028509 0.2185701,0.028509 0.0095,0.2280732 C 4.2572172,3.2287831 4.1336775,3.2572923 4.0101379,3.2953045 3.8961013,3.3428197 3.7820647,3.399838 3.6775311,3.4663594 L 3.6110098,3.4473533 3.5444884,3.2858014 C 3.458961,3.2287831 3.3734335,3.1812679 3.278403,3.1432557 3.1738695,3.1147466 3.088342,3.0862374 3.0028146,3.0672313 h -0.066521 l 0.1710548,0.2660854 c -0.019006,0.2850915 -0.047515,0.5511769 -0.085527,0.7982562 -0.038012,0.2660854 -0.1045335,0.5131647 -0.190061,0.7507409 0.0095,0.076024 0.019006,0.1425458 0.047515,0.1995641 0.019006,0.066521 0.047515,0.1235396 0.085527,0.1710549 h 0.038012 l 0.1330427,0.2090671 0.047515,0.047515 v 0.066521 l 0.047515,-0.019006 H 3.411445 v 0.028509 h 0.076024 l 0.028509,-0.057018 0.1805579,-0.0095 v 0.047515 l 0.085527,-0.019006 C 3.7535555,5.4715029 3.7250464,5.4049816 3.6775311,5.3479633 3.6300159,5.300448 3.6110098,5.2434297 3.6110098,5.1579023 l 0.019006,-0.7412379 0.066521,0.019006 0.2375763,-0.047515 0.047515,0.019006 0.3516129,-0.066521 c 0.047515,0.057018 0.066521,0.1330427 0.057018,0.2280732 -0.0095,0.1045335 0,0.190061 0.047515,0.2660854 l 0.057018,-0.0095 C 4.5423087,4.7397681 4.5803209,4.6542406 4.599327,4.5687132 4.6183331,4.4831857 4.6373392,4.4071613 4.6468422,4.3026278 4.789388,4.2361064 4.9414368,4.1790881 5.0839825,4.1315729 5.2170252,4.0840576 5.3500679,4.0175363 5.4831106,3.9225058 c -0.0095,-0.057018 -0.047515,-0.085527 -0.1045335,-0.085527 -0.066521,0.0095 -0.1235397,0 -0.1710549,-0.0095 l -0.190061,0.028509 -0.190061,0.0095 0.066521,-0.380122 C 4.979449,3.4758624 5.0554734,3.4473533 5.1410008,3.4188441 5.2170252,3.390335 5.2930496,3.3618258 5.359571,3.3143106 V 3.2572923 L 4.9984551,3.1432557 C 4.9699459,3.0577283 4.9414368,2.9817039 4.9319337,2.9056795 4.9224307,2.8391581 4.8939215,2.7726368 4.8464063,2.7061154 l 0.057018,-0.085527 v -0.047515 h 0.066521 l 0.019006,-0.066521 0.1235397,-0.0095 0.085527,0.038012 -0.019006,0.1425458 0.1045336,0.2185701 0.047515,0.0095 c 0.1520488,0.2185701 0.2280732,0.4656494 0.2470793,0.7412378 0.0095,0.2660854 0.038012,0.5416739 0.066521,0.8172623 L 5.6256564,5.2719389 H 5.549632 L 5.51162,5.2244239 H 5.473608 c 0,-0.066521 -0.019006,-0.1330427 -0.047515,-0.190061 C 5.3975832,4.9868474 5.3500679,4.9298291 5.3025527,4.8823138 L 5.1980191,4.8443016 5.1600069,4.720762 h -0.047515 c 0.038012,0.1615518 0.066521,0.3326067 0.095031,0.5036616 0.028509,0.1615519 0.038012,0.3326068 0.038012,0.5036617 0.1140366,0.076024 0.2280732,0.1520488 0.3421098,0.2280732 0.1140366,0.076024 0.2280732,0.1425457 0.3326062,0.2185701 z M 4.3807568,3.9985302 4.1621867,4.0650515 H 4.0576531 v -0.047515 l 0.2280732,-0.1425458 0.095031,0.019006 z M 3.8580891,3.8654875 3.7060403,3.9510149 H 3.658525 V 3.6564204 L 3.7820647,3.6944324 4.029144,3.5994014 H 4.086162 Z M 0.90264058,2.3164904 C 0.98816798,2.3069904 1.0831985,2.2689754 1.168726,2.2214594 1.24475,2.1739444 1.3207748,2.1264284 1.4063022,2.0884167 l 0.047515,-0.066521 0.1425457,-0.0095 0.1045336,0.0095 h 0.019006 L 1.6058663,1.7177982 C 1.4728236,1.5847555 1.3112717,1.480222 1.1592229,1.4041976 0.99767108,1.3281732 0.81711313,1.290161 0.64605824,1.2806579 H 0.54152469 v 0.038012 L 0.95015583,1.527737 V 1.575252 L 1.1117077,1.7082952 c 0.0095,0.1235396 -0.0095,0.2280732 -0.038012,0.3231037 -0.038012,0.095031 -0.0950305,0.1805579 -0.17105492,0.2660854 z"
         id="path406" />
      <path
         d="m 11.764608,7.6857135 c 0.04752,-0.0095 0.09503,-0.019006 0.133043,-0.019006 0.04752,0 0.08553,-0.019006 0.114037,-0.038012 L 11.907154,7.3626098 c -0.01901,-0.380122 0,-0.7412379 0.05702,-1.0833476 0.04752,-0.3326068 0.133043,-0.6557105 0.24708,-0.9883172 -0.0095,-0.047515 -0.0095,-0.1045336 -0.0095,-0.1615519 0,-0.047515 -0.01901,-0.1045335 -0.05702,-0.1520488 l 0.05702,-0.1045335 C 12.31579,4.7872838 12.43933,4.720762 12.56287,4.6637437 12.676906,4.6162287 12.809949,4.540204 12.933489,4.4451735 l -0.01901,-0.047515 -0.484655,0.0095 -0.01901,0.047515 -0.07603,0.019006 v 0.047515 l -0.123539,0.095031 c -0.03801,0 -0.06652,0 -0.08553,-0.0095 -0.02851,-0.0095 -0.04752,-0.028509 -0.05702,-0.057018 L 11.831119,4.4736835 12.11621,4.188592 12.10671,4.141077 c 0.104534,-0.038012 0.199564,-0.095031 0.294595,-0.190061 0.08553,-0.095031 0.190061,-0.1520488 0.304097,-0.1615518 l 0.02851,-0.047515 -0.02851,-0.1140366 -0.294594,-0.09503 h -0.09503 l -0.02851,0.076024 -0.123539,0.0095 -0.01901,0.066521 -0.570183,0.2945946 h -0.03801 C 11.64106,3.8369764 11.764599,3.7229398 11.897642,3.6374124 12.030685,3.5518854 12.163728,3.4663575 12.287267,3.38083 V 3.323812 L 12.410807,3.2858 c 0.07602,-0.047515 0.142546,-0.1140365 0.199564,-0.199564 0.05702,-0.085527 0.09503,-0.1615518 0.133043,-0.2375762 l 0.06652,-0.066521 c -0.01901,-0.057018 -0.05702,-0.085527 -0.12354,-0.095031 -0.05702,-0.0095 -0.123539,-0.019006 -0.171055,-0.038012 l -0.53217,0.1330427 v 0.038012 h -0.03801 v 0.038012 l 0.228074,0.019006 -0.07602,0.1995641 H 12.0497 l -0.275589,0.4466433 h -0.03801 v 0.047515 h -0.04751 l -0.171055,0.2565824 h -0.06652 l -0.161552,0.190061 c -0.07602,0.028509 -0.142546,0.066521 -0.199564,0.1140366 -0.05702,0.047515 -0.133043,0.076024 -0.21857,0.076024 l -0.02851,0.047515 c 0,0.066521 0.02851,0.1140366 0.07602,0.1615519 0.04752,0.047515 0.05702,0.095031 0.04752,0.1520488 l 0.731735,-0.3991281 h 0.01901 l -0.05702,0.1805579 -0.07603,-0.0095 h -0.03801 v 0.019006 l -0.04751,0.1805579 -0.522668,0.5511769 -0.161552,0.047515 -0.114036,0.1140366 0.142546,0.3611159 h 0.161551 l 0.01901,-0.095031 0.180558,-0.076024 v -0.047515 l 0.494158,-0.2565823 c 0.05702,0 0.07602,0.028509 0.06652,0.076024 -0.0095,0.057018 0,0.095031 0.02851,0.1235396 0,0.3326068 -0.01901,0.6652135 -0.05702,0.9883172 -0.03801,0.3231037 -0.114036,0.6367043 -0.228073,0.9217958 0,0.095031 0.02851,0.180558 0.08553,0.2470793 0.05702,0.066521 0.114036,0.1330427 0.171054,0.190061 z m 5.958413,-0.9217958 -0.01901,-0.028509 0.05702,-0.038012 0.06652,-0.0095 v 0.019006 l 0.02851,0.019006 h 0.07603 v -0.019006 l -0.09503,-0.085528 -0.05702,-0.028509 V 6.5548506 L 17.618487,6.4028018 17.40942,6.2697591 V 6.2127408 L 17.31439,6.1272134 16.991286,5.9181463 V 5.861128 C 16.820231,5.7375883 16.649176,5.6235517 16.487624,5.490509 16.316569,5.3669694 16.155017,5.2624358 15.983963,5.1579023 v -0.038012 l -0.07602,-0.028509 C 15.841417,4.9678413 15.765392,4.8538047 15.679865,4.730265 15.594338,4.6067254 15.527816,4.4926888 15.470798,4.3786522 c 0.04751,-0.1235397 0.09503,-0.2375763 0.152049,-0.3516129 0.05702,-0.1140366 0.104533,-0.2280732 0.133042,-0.3421098 l 0.04752,-0.019006 c 0.07602,-0.1805579 0.133042,-0.380122 0.180558,-0.5986921 0.04752,-0.2090671 0.08553,-0.4181342 0.123539,-0.6176982 l -0.04752,-0.1425458 -0.351613,-0.095031 c -0.09503,0 -0.180558,0.019006 -0.247079,0.057018 -0.05702,0.047515 -0.133043,0.085527 -0.209067,0.1140366 h -0.04752 l 0.01901,-0.066521 0.09503,-0.057018 V 2.192951 h 0.04751 l 0.24708,-0.2755884 c 0.02851,-0.047515 0.06652,-0.085527 0.114036,-0.1140366 0.04752,-0.028509 0.09503,-0.038012 0.142546,-0.038012 l 0.34211,-0.56068 0.05702,-0.019006 0.07602,-0.1140366 h 0.03801 l 0.123539,-0.11403656 0.03801,-0.0570183 0.104533,-0.0665214 -0.01901,-0.1710549 c -0.09503,-0.0760244 -0.199564,-0.12353965 -0.304098,-0.14254575 -0.09503,0 -0.199564,-0.0285091 -0.294594,-0.0760244 h -0.05702 l -0.03801,0.0760244 -0.237576,0.0190061 -0.01901,0.0380122 c -0.21857,0.0760244 -0.427637,0.16155185 -0.627201,0.2660854 -0.21857,0.0950305 -0.418135,0.17105491 -0.636705,0.23757631 v 0.085527 l 0.351613,0.1995641 h 0.03801 l -0.0095,-0.047515 0.722232,-0.3040976 0.12354,-0.0095 c -0.07602,0.2470793 -0.161552,0.4846555 -0.24708,0.7222318 -0.09503,0.2565824 -0.237576,0.4751526 -0.408631,0.6747166 l -0.475152,0.370619 c -0.04751,0 -0.08553,0 -0.114037,0 -0.03801,0.0095 -0.06652,0.038012 -0.09503,0.085527 l 0.06652,0.2660854 0.104534,0.1045335 0.07602,-0.09503 c 0.142546,-0.057018 0.294595,-0.1425458 0.43714,-0.2470793 0.133043,-0.1045336 0.275589,-0.1995641 0.427638,-0.2850915 h 0.09503 c -0.01901,0.2470793 -0.04752,0.4846555 -0.06652,0.7222317 -0.02851,0.2470793 -0.08553,0.4846556 -0.161552,0.7222318 C 15.109657,3.8654911 14.938602,3.7419514 14.739038,3.665927 14.548977,3.5804 14.330407,3.5613935 14.092831,3.599406 c 0.02851,-0.2185702 0.05702,-0.4276372 0.08553,-0.6462074 0.01901,-0.2090671 0.02851,-0.4181342 0.03801,-0.6176982 0.0095,-0.1995641 -0.01901,-0.380122 -0.08553,-0.5511769 -0.076,-0.1615557 -0.152022,-0.3326106 -0.237549,-0.4846594 l -0.218571,-0.180558 h -0.07602 l -0.05702,0.2470793 c 0.06652,0.3136006 0.114036,0.6176982 0.161552,0.9217958 0.04751,0.3040976 0.06652,0.6176983 0.07602,0.9408019 -0.0095,0.4371403 -0.04751,0.8552745 -0.09503,1.2829118 -0.05702,0.4276372 -0.133043,0.8457714 -0.218571,1.2544026 l -0.142545,0.199564 c -0.0095,0.1140366 0.0095,0.2090671 0.07602,0.2850915 0.05702,0.085528 0.104534,0.1710549 0.171055,0.2565823 l 0.171055,-0.019006 0.02851,0.019006 c 0.02851,0 0.05702,0 0.08553,-0.0095 0.0095,-0.0095 0.02851,-0.028509 0.04752,-0.047515 l -0.04752,-0.1330426 c 0.0095,-0.4276373 0.01901,-0.8552745 0.04752,-1.2829118 0.02851,-0.4276372 0.08553,-0.8362684 0.152048,-1.2353965 0.08553,-0.0095 0.152049,-0.0095 0.209068,0.019006 0.06652,0.028509 0.123539,0.076024 0.180558,0.1235397 0.104533,0.1235396 0.199564,0.2565823 0.275588,0.3991281 0.07602,0.1330427 0.152049,0.2755884 0.21857,0.4086311 l -0.01901,0.1330427 h -0.05702 l -0.351613,0.4276373 -0.01901,0.076024 -0.361116,0.1710549 0.01901,0.066521 0.275588,-0.038012 0.437141,-0.3991281 v -0.047515 h 0.05702 l 0.08553,-0.1520488 h 0.08553 l 0.06652,0.095031 c 0.380122,0.3516128 0.788753,0.6462074 1.206888,0.9027897 0.418134,0.2470793 0.855274,0.4751525 1.292414,0.6842196 v 0.066521 z m -6.300522,-1.7010459 -0.180558,0.085527 h -0.06652 L 11.54604,4.7017555 v -0.047515 h 0.08553 l 0.06652,0.1045336 v 0.1330427 z m -0.541674,-1.3494331 0.275588,-0.038012 c 0.0095,-0.085527 0.0095,-0.1615519 0.01901,-0.2470793 0.0095,-0.085527 0.04752,-0.1425458 0.133043,-0.180558 v -0.019006 l -0.07602,0.076024 -0.08553,0.038012 -0.389625,-0.2280731 0.01901,-0.066521 c 0.228073,-0.1140366 0.456147,-0.2090671 0.693723,-0.3136006 0.228073,-0.095031 0.465649,-0.1615519 0.731735,-0.2090671 0.05702,-0.0095 0.114036,-0.0095 0.180558,-0.0095 0.06652,0 0.142545,0.019006 0.209067,0.047515 0.05702,-0.028509 0.114036,-0.057018 0.180558,-0.066521 0.06652,0 0.123539,-0.0095 0.190061,-0.028509 l -0.04752,-0.1615519 c -0.09503,-0.047515 -0.199564,-0.085527 -0.304097,-0.095031 -0.114037,-0.0095 -0.21857,-0.028509 -0.313601,-0.076024 l -0.104533,0.028509 v 0.047515 L 12.0307,2.3069907 C 11.679081,2.4495331 11.327468,2.5920788 10.966352,2.7441276 10.605236,2.8961764 10.234617,3.010213 9.8639985,3.1147466 L 9.578907,3.0862374 9.4743734,3.1147466 v 0.066521 l -0.1330427,0.038012 v 0.066521 h -0.028509 c 0.076024,0.028509 0.1615518,0.057018 0.2565823,0.066521 0.1045336,0.019006 0.190061,0.057018 0.2660854,0.1235396 0.1520488,-0.0095 0.2945946,-0.047515 0.4276376,-0.1140366 0.114036,-0.066521 0.237576,-0.1330427 0.361115,-0.199564 h 0.04752 l -0.01901,0.095031 c -0.02851,0.095031 -0.01901,0.190061 0.04752,0.2565823 0.05702,0.066521 0.114036,0.1425458 0.180558,0.1995641 z m 0.494158,-1.3114209 h 0.04752 l 0.01901,-0.038012 0.294594,-0.1520488 0.152049,-0.380122 0.68422,-0.190061 V 1.622768 h -0.05702 V 1.5182342 l 0.161552,-0.019006 0.0095,-0.066521 0.07602,-0.0095 -0.05702,-0.1615519 -0.21857,-0.057018 c -0.09503,0 -0.180558,0.0095 -0.256582,0.019006 -0.08553,0.0095 -0.161552,0.047515 -0.21857,0.1045336 h -0.07602 L 12.135227,0.55842614 12.068706,0.2828377 11.536535,0.1307889 h -0.04752 V 0.159298 l -0.104534,0.0285092 0.0095,0.10453355 0.06652,0.0380122 0.03801,0.21857014 -0.04752,0.98831721 c -0.152049,0.085527 -0.313601,0.1520488 -0.475153,0.199564 -0.171055,0.057018 -0.332606,0.085527 -0.513164,0.076024 0.06652,0.1045336 0.152048,0.180558 0.256582,0.2470793 0.114037,0.057018 0.228073,0.1140366 0.34211,0.1710549 l 0.06652,-0.0095 v -0.047515 l 0.12354,-0.076024 h 0.05702 l -0.01901,0.1235397 h -0.05702 l 0.01901,0.1140366 z"
         id="path408" />
      <path
         d="m 19.994231,4.4261674 c 0.551177,-0.199564 1.111857,-0.3516128 1.691543,-0.4846555 0.56068,-0.1330427 1.130863,-0.2565824 1.691543,-0.370619 l 0.133043,0.019006 0.09503,-0.019006 0.218571,0.019006 0.08553,-0.019006 c 0.361116,0.0095 0.731735,0.038012 1.092851,0.085527 0.361116,0.038012 0.712729,0.095031 1.054838,0.1805579 h 0.06652 v -0.095031 l 0.05702,0.019006 0.209067,-0.047515 0.418134,0.076024 h 0.06652 L 26.99798,3.6659221 27.12152,3.2287818 h 0.01901 L 27.0455,3.1432548 V 3.0387222 C 26.693882,2.8961764 26.323263,2.7726368 25.933638,2.6776063 25.53451,2.5920788 25.154388,2.4875453 24.793272,2.3449995 h -0.209067 c 0,0.047515 -0.0095,0.085527 -0.02851,0.095031 -0.02851,0.0095 -0.06652,0.0095 -0.114036,-0.0095 l -0.114037,0.1330427 -1.168875,0.1140366 c -0.190061,0 -0.370619,-0.028509 -0.551177,-0.085527 -0.171055,-0.047515 -0.34211,-0.1140366 -0.484655,-0.2185701 v -0.047515 l -0.114037,-0.047515 -0.01901,-0.076024 c -0.06652,-0.019006 -0.104534,-0.0095 -0.133043,0.019006 -0.02851,0.038012 -0.06652,0.076024 -0.104533,0.1045335 l -0.34211,0.3136007 -0.03801,0.066521 -0.855275,0.3611159 -0.114036,-0.028509 c -0.12354,0.066521 -0.24708,0.1140366 -0.389625,0.1330427 -0.142546,0.019006 -0.275589,0.038012 -0.408632,0.057018 l -0.380122,-0.1330426 -0.08553,0.019006 -0.02851,0.066521 h -0.01901 l -0.03801,0.2280732 v 0.038012 c 0.08553,0.1235396 0.190061,0.2375762 0.304097,0.3611159 0.09503,0.1235396 0.209067,0.2565823 0.332607,0.3706189 z"
         id="path410" />
      <path
         d="m 30.571107,7.7332288 0.266085,-0.190061 0.24708,-0.3611159 h 0.04752 l 0.275588,-0.5986922 0.03801,0.0095 c 0.02851,-0.066521 0.06652,-0.1330427 0.12354,-0.190061 0.05702,-0.066521 0.08553,-0.1330427 0.09503,-0.2185701 h 0.02851 l 0.01901,-0.085527 0.171055,-0.028509 0.03801,-0.076024 -0.01901,-0.085527 C 31.844515,5.8611266 31.777995,5.8136106 31.711474,5.785102 31.654454,5.756593 31.578431,5.756593 31.492904,5.766096 l -0.0095,-0.066521 c 0.199564,-0.076024 0.418134,-0.1615518 0.627201,-0.2660854 0.21857,-0.095031 0.418134,-0.190061 0.617698,-0.3136006 l 0.08553,0.019006 0.104533,0.1615518 h 0.03801 l 0.03801,0.1710549 0.03801,-0.0095 0.0095,0.038012 0.247079,0.2375762 0.142546,-0.047515 -0.0095,-1.0738447 0.114036,-0.7887531 h 0.01901 l 0.01901,-0.047515 -0.03801,-0.1520488 0.08553,-0.3991281 0.01901,-0.0095 -0.0095,-0.038012 -0.04752,0.0095 -0.01901,-0.066521 c -0.09503,-0.085527 -0.209067,-0.1330427 -0.323104,-0.1615518 -0.12354,-0.019006 -0.266085,-0.047515 -0.408631,-0.066521 -0.180558,0.038012 -0.351613,0.1045336 -0.522668,0.190061 -0.180558,0.095031 -0.34211,0.190061 -0.503662,0.2755884 v 0.019006 l 0.152049,0.047515 0.674717,-0.095031 0.247079,0.019006 0.08553,0.6272013 c 0,0.1520488 0,0.3040976 0.0095,0.4561464 0,0.1520488 -0.01901,0.2945945 -0.04752,0.4371403 l -0.123539,0.0095 0.0095,0.1140366 -0.380122,-0.1045335 h -0.02851 l 0.0095,0.028509 c -0.04752,-0.028509 -0.07603,-0.028509 -0.09503,0 -0.01901,0.028509 -0.03801,0.066521 -0.04751,0.095031 l -0.636705,0.2945946 -0.04752,0.0095 c 0.133043,-0.1330427 0.275589,-0.2660854 0.427637,-0.380122 0.142546,-0.095031 0.304098,-0.190061 0.475153,-0.2565823 v -0.038012 h 0.04751 l 0.0095,-0.066521 h 0.03801 V 4.4926888 L 32.291159,4.3786522 h -0.104534 l -0.02851,0.066521 h -0.04751 l -0.01901,0.038012 -0.304098,0.1425458 h -0.03801 l 0.0095,-0.057018 c 0.142546,-0.1235397 0.285092,-0.2470793 0.418134,-0.370619 0.142546,-0.1140366 0.294595,-0.190061 0.475153,-0.2280732 l 0.08553,-0.1615518 h 0.04752 l -0.0095,-0.066521 C 32.728314,3.732448 32.690294,3.722942 32.642782,3.694433 32.595262,3.675427 32.557252,3.665924 32.519242,3.665924 32.35769,3.68493 32.196138,3.722942 32.04409,3.7894637 31.882538,3.8559847 31.730489,3.9415125 31.57844,4.046046 H 31.54043 V 3.9415119 l -0.114037,-0.1045336 -0.01901,-0.076024 -0.3136,-0.1235396 h -0.209067 v 0.019006 l 0.171054,0.095031 c -0.0095,0.199564 -0.01901,0.3706189 -0.02851,0.5321708 -0.0095,0.1710549 -0.03801,0.3136006 -0.09503,0.4561464 0.05702,0.085527 0.104533,0.1710549 0.152049,0.2565823 0.04752,0.085528 0.104533,0.1710549 0.180558,0.2375763 l -0.02851,0.057018 c -0.04752,0.047515 -0.104533,0.066521 -0.171055,0.076024 -0.06652,0.0095 -0.114036,0.038012 -0.152048,0.066521 0.01901,0.085527 0.05702,0.1615519 0.114036,0.2185702 0.05702,0.047515 0.08553,0.1140366 0.08553,0.199564 l 0.08553,-0.019006 h 0.08553 C 31.226817,6.1747286 31.131787,6.5073353 30.998744,6.820936 30.865701,7.1250336 30.723156,7.4291312 30.571107,7.7142227 Z M 33.94469,7.3816159 c 0.294594,-0.066521 0.589189,-0.1330427 0.893286,-0.199564 0.285092,-0.066521 0.570183,-0.1615519 0.836269,-0.2850915 v -0.038012 h 0.152048 l 0.01901,-0.1045336 0.171054,-0.019006 -0.04751,-0.1425457 v -0.047515 h 0.07602 l 0.05702,-0.066521 V 6.4598211 H 35.98785 l -0.07602,-0.095031 -0.285092,-0.066521 -0.04751,-0.1045336 -0.123539,-0.028509 v -0.066521 h -0.04752 C 35.341638,5.9751646 35.294123,5.8421219 35.246607,5.7185822 35.208595,5.6045456 35.16108,5.4715029 35.132571,5.3479633 c -0.03801,0.1805579 -0.08553,0.3611159 -0.133043,0.5416738 -0.05702,0.180558 -0.114036,0.370619 -0.152049,0.570183 l -0.171055,0.057018 v 0.019006 l -1.064341,0.3136006 c -0.161552,0 -0.332607,0 -0.503662,-0.0095 -0.180558,0 -0.34211,-0.019006 -0.503661,-0.057018 -0.0095,-0.1425458 0,-0.2660854 0.01901,-0.380122 0.01901,-0.1235396 0.03801,-0.2470793 0.05702,-0.3611159 l -0.08553,-0.2090671 -0.313601,-0.057018 -0.09503,0.028509 v 0.019006 l 0.08553,0.019006 0.06652,0.2850915 -0.02851,0.4371402 c 0.0095,0.1045336 0.03801,0.190061 0.08553,0.2565824 0.04752,0.057018 0.09503,0.1330427 0.152049,0.199564 0.209067,0.1425458 0.427638,0.2280732 0.68422,0.2660854 0.237576,0.038012 0.475152,0.066521 0.712729,0.095031 z M 31.4834,5.110387 l -0.01901,0.019006 -0.04752,-0.0095 -0.01901,-0.1045336 0.01901,-0.085527 -0.02851,-0.076024 0.01901,-0.1235397 0.04752,0.0095 0.08553,0.1330427 c 0.0095,0.038012 0.0095,0.076024 0,0.1235396 -0.0095,0.047515 -0.02851,0.085528 -0.05702,0.114036 z M 31.55942,4.530701 31.54041,4.55921 31.45488,4.54971 31.5119,4.2171032 31.758979,4.1980972 h 0.104534 l -0.114037,0.190061 z M 30.314525,3.2953045 30.2385,3.0482252 V 2.8676673 l 0.07603,0.019006 0.05702,0.1805579 0.133043,0.038012 c 0.199564,-0.028509 0.389625,-0.076024 0.551176,-0.1615518 0.161552,-0.076024 0.323104,-0.1520488 0.494159,-0.2375763 v -0.066521 l -0.06652,-0.028509 -0.332607,0.019006 -0.104534,0.0095 -0.0095,-0.038012 0.08553,-0.028509 v -0.019006 l 0.247079,-0.1710549 c 0.04752,-0.085527 0.07602,-0.1805579 0.08553,-0.2850915 0.0095,-0.095031 0.02851,-0.190061 0.07602,-0.2755884 l -0.0095,-0.057018 -0.171055,-0.057018 0.01901,-0.076024 0.06652,0.038012 c 0.05702,-0.028509 0.114037,-0.076024 0.161552,-0.1235397 0.04752,-0.047515 0.104534,-0.085527 0.190061,-0.1140366 l 0.0095,-0.038012 0.161552,-0.076024 V 1.261651 L 32.072603,1.242645 31.996573,1.052584 31.530924,0.90053524 h -0.08553 l -0.05702,0.0665213 -0.08553,0.009503 -0.0095,-0.0665214 -0.190061,-0.19956405 0.0095,-0.0855274 0.77925,-0.16155185 -0.05702,-0.10453355 C 31.758988,0.31134685 31.682964,0.2828377 31.587933,0.25432855 31.4834,0.23532245 31.388369,0.21631635 31.283836,0.2068133 31.150793,0.2448255 31.01775,0.2828377 30.884708,0.3208499 30.742162,0.36836514 30.609119,0.43488649 30.495083,0.52991699 v 0.0380122 l -0.08553,0.0380122 0.294595,-0.009503 0.190061,-0.009503 c 0.0095,0.10453355 0.0095,0.2090671 -0.0095,0.29459455 -0.02851,0.0855274 -0.08553,0.18055796 -0.152049,0.27558846 -0.02851,0.057018 -0.05702,0.085527 -0.104534,0.085527 -0.04752,0 -0.09503,0.0095 -0.133042,0.038012 -0.05702,0.0095 -0.104534,-0.0095 -0.142546,-0.057018 -0.03801,-0.038012 -0.08553,-0.057018 -0.142546,-0.066521 V 1.109603 l -0.43714,-0.30409756 h -0.01901 L 29.9249,1.109603 c 0,0.2470793 -0.0095,0.4941586 -0.03801,0.7127288 -0.02851,0.2375762 -0.06652,0.4561464 -0.133042,0.6747165 h -0.03801 l -0.03801,0.066521 c 0.0095,0.095031 0.02851,0.1805579 0.05702,0.2565823 0.03801,0.076024 0.06652,0.1520488 0.09503,0.2375763 0.05702,0.0095 0.114037,0.028509 0.171055,0.057018 0.04751,0.028509 0.09503,0.047515 0.152049,0.047515 l 0.05702,0.057018 z m 0.361115,-0.6272013 -0.332606,0.076024 h -0.05702 c 0.01901,-0.2280732 0.03801,-0.4466433 0.06652,-0.6557104 0.02851,-0.2185702 0.03801,-0.4276373 0.02851,-0.6557105 h 0.02851 l 0.0095,0.085527 c 0.01901,0.047515 0.04752,0.066521 0.08553,0.066521 0.03801,0.0095 0.06652,0.019006 0.09503,0.028509 l 0.43714,-0.190061 0.05702,-0.0095 c -0.04752,0.1140366 -0.114037,0.2185702 -0.180558,0.3040976 -0.06652,0.1045336 -0.161552,0.180558 -0.285092,0.2470793 l -0.05702,-0.019006 -0.171055,0.047515 c 0.0095,0.057018 0.02851,0.1045335 0.05702,0.1330427 0.02851,0.047515 0.04752,0.085527 0.07602,0.1235396 0.06652,0 0.142545,-0.0095 0.21857,-0.028509 0.07602,-0.0095 0.142546,-0.038012 0.190061,-0.085527 h 0.04752 l -0.01901,0.190061 h -0.03801 v 0.038012 c -0.03801,0.047515 -0.06652,0.095031 -0.114037,0.1330427 -0.04752,0.057018 -0.09503,0.095031 -0.142546,0.1235397 z m 2.480296,-0.2565823 1.016827,-0.370619 0.0095,-0.038012 0.06652,-0.038012 v -0.085527 l -0.171055,-0.047515 -0.0095,-0.047515 -0.07602,-0.019006 -0.313601,0.066521 -0.114036,0.0095 0.0095,-0.1045336 c 0.133042,-0.1045335 0.285091,-0.2090671 0.446643,-0.3136006 0.152049,-0.095031 0.304098,-0.1520488 0.456146,-0.190061 V 1.1286091 l -0.06652,-0.0095 V 1.0715908 L 34.296302,0.96705729 c -0.06652,-0.009503 -0.133042,-0.0190061 -0.190061,-0.0475153 -0.04751,-0.009503 -0.104533,-0.0285091 -0.161551,-0.0570183 l -0.03801,0.009503 -0.04752,0.0760244 C 33.76413,1.0335785 33.659596,1.0905968 33.54556,1.119106 33.42202,1.147615 33.307983,1.19513 33.212953,1.2521487 l -0.171055,-0.0095 -0.12354,0.019006 -0.04751,0.057018 0.380122,0.2565824 -0.06652,0.1520488 -0.07603,0.057018 -0.180558,0.076024 -0.05702,0.085527 c 0.08553,0.066521 0.142546,0.1425458 0.171055,0.2185702 0.02851,0.085527 0.06652,0.1615518 0.114036,0.2470793 z m -0.741237,-0.8362684 0.01901,-0.019006 0.01901,0.028509 0.09503,-0.038012 0.09503,-0.1615518 0.133042,-0.1045336 0.02851,-0.1615518 h 0.03801 v -0.085527 h 0.03801 l 0.04752,-0.10453351 h 0.05702 l 0.09503,-0.21857015 h 0.03801 l 0.133043,-0.36111589 -0.02851,-0.0760244 C 33.117924,0.2068133 32.984882,0.15929805 32.851839,0.1307889 32.709293,0.1117828 32.566747,0.0927767 32.443208,0.0737706 l -0.03801,-0.009503 0.02851,0.06652135 -0.06652,0.72223179 0.05702,0.41813426 z"
         id="path412" />
    </g>
    <path
       style="fill:none;fill-rule:evenodd;stroke:#000000;stroke-width:0.21864px;stroke-linecap:butt;stroke-linejoin:miter;stroke-opacity:1"
       d="m 4.4186655,7.736698 v 0"
       id="path208"
       inkscape:connector-type="polyline"
       inkscape:connector-curvature="0" />
    <text
       xml:space="preserve"
       transform="scale(0.26458333)"
       id="text266"
       style="font-size:53.3333px;font-family:KouzanBrushFontGyousyoOTF;-inkscape-font-specification:KouzanBrushFontGyousyoOTF;white-space:pre;shape-inside:url(#rect268);display:inline;fill:#000000" />
  </g>
</svg>
