<?xml version="1.0" encoding="UTF-8" standalone="no"?>
<!-- Created with Inkscape (http://www.inkscape.org/) -->

<svg
   width="30mm"
   height="7mm"
   viewBox="0 0 30 7"
   version="1.1"
   id="svg5"
   inkscape:version="1.2.2 (b0a8486, 2022-12-01)"
   sodipodi:docname="topregistrationLOGO.svg"
   xmlns:inkscape="http://www.inkscape.org/namespaces/inkscape"
   xmlns:sodipodi="http://sodipodi.sourceforge.net/DTD/sodipodi-0.dtd"
   xmlns="http://www.w3.org/2000/svg"
   xmlns:svg="http://www.w3.org/2000/svg">
  <sodipodi:namedview
     id="namedview7"
     pagecolor="#ffffff"
     bordercolor="#000000"
     borderopacity="0.25"
     inkscape:showpageshadow="2"
     inkscape:pageopacity="0.0"
     inkscape:pagecheckerboard="0"
     inkscape:deskcolor="#d1d1d1"
     inkscape:document-units="mm"
     showgrid="false"
     inkscape:zoom="4.7488465"
     inkscape:cx="59.48813"
     inkscape:cy="17.162062"
     inkscape:window-width="1440"
     inkscape:window-height="771"
     inkscape:window-x="1080"
     inkscape:window-y="1616"
     inkscape:window-maximized="0"
     inkscape:current-layer="layer1" />
  <defs
     id="defs2">
    <rect
       x="-1.8951972"
       y="4.0009718"
       width="213.31496"
       height="77.703079"
       id="rect268" />
  </defs>
  <g
     inkscape:label="Layer 1"
     inkscape:groupmode="layer"
     id="layer1">
    <path
       style="fill:none;fill-rule:evenodd;stroke:#000000;stroke-width:0.21864px;stroke-linecap:butt;stroke-linejoin:miter;stroke-opacity:1"
       d="m 4.4186655,7.736698 v 0"
       id="path208"
       inkscape:connector-type="polyline"
       inkscape:connector-curvature="0" />
    <text
       xml:space="preserve"
       style="font-size:8.85995px;font-family:KouzanBrushFontGyousyoOTF;-inkscape-font-specification:KouzanBrushFontGyousyoOTF;fill:#000000;stroke-width:0.166124"
       x="-1.3619121"
       y="8.4681635"
       id="text214"
       transform="scale(0.67763293,1.4757252)"><tspan
         sodipodi:role="line"
         id="tspan212"
         style="stroke-width:0.166124"
         x="-1.3619121"
         y="8.4681635" /></text>
    <text
       xml:space="preserve"
       transform="scale(0.26458333)"
       id="text266"
       style="font-size:53.3333px;font-family:KouzanBrushFontGyousyoOTF;-inkscape-font-specification:KouzanBrushFontGyousyoOTF;white-space:pre;shape-inside:url(#rect268);display:inline;fill:#000000" />
    <g
       aria-label="新規登録はこちらから"
       transform="scale(0.77757449,1.2860504)"
       id="text932"
       style="font-size:3.98897px;font-family:KouzanBrushFontGyousyoOTF;-inkscape-font-specification:KouzanBrushFontGyousyoOTF;stroke-width:0.0747932">
      <path
         d="m 2.7003686,4.6618463 c 0.03989,-0.027923 0.059835,-0.055846 0.059835,-0.095735 0,-0.03989 0.00798,-0.079779 0.019945,-0.1156801 l 0.00798,-0.5145772 -0.00798,-0.00798 0.00798,-0.047868 -0.00798,-0.035901 0.011967,-0.047868 -0.011967,-0.3669853 v -0.019945 h 0.015956 c 0.00399,-0.059835 0.00798,-0.1236581 0.011967,-0.1834926 0.00399,-0.059835 0.011967,-0.1156802 0.019945,-0.1715257 l -0.00399,-0.027923 c 0.00798,-0.063824 0.019945,-0.1236581 0.023934,-0.1914706 0.00399,-0.059835 0.011967,-0.1196691 0.031912,-0.1755147 l 0.047868,-0.015956 -0.00798,-0.043879 0.011967,-0.027923 c 0.055846,-0.019945 0.1116912,-0.035901 0.1715257,-0.047868 0.055846,-0.011967 0.1196691,-0.019945 0.1834926,-0.031912 0.023934,-0.00399 0.03989,-0.015956 0.043879,-0.035901 0.00399,-0.015956 0.011967,-0.035901 0.019945,-0.059835 v -0.019945 h -0.019945 c 0.00798,-0.023934 0.00798,-0.043879 0.00399,-0.063824 -0.00798,-0.019945 -0.015956,-0.035901 -0.027923,-0.055845 -0.035901,-0.019945 -0.07579,-0.031912 -0.1156801,-0.043879 -0.035901,-0.00798 -0.075791,-0.023934 -0.1116912,-0.047868 l -0.027923,-0.00399 -0.019945,0.035901 c -0.1515809,0.035901 -0.2951838,0.083768 -0.4347978,0.1436029 -0.1436029,0.063824 -0.2792279,0.131636 -0.4148529,0.2074265 -0.03989,-0.00399 -0.079779,-0.011967 -0.1156801,-0.031912 -0.03989,-0.019945 -0.07579,-0.031912 -0.1116912,-0.043879 -0.027923,0 -0.063824,-0.00399 -0.099724,-0.00798 -0.031912,-0.00399 -0.067813,0.00399 -0.095735,0.031912 l 0.011967,0.027923 0.091746,0.043879 c 0.03989,0.063824 0.059835,0.135625 0.059835,0.2193934 -0.00399,0.079779 0,0.1635477 0.00798,0.2433271 l -0.015956,0.099724 0.011967,0.027923 c 0,0.083768 -0.00798,0.1555698 -0.023934,0.2233823 -0.019945,0.067813 -0.047868,0.131636 -0.083768,0.1954595 0.00399,0.043879 0.015956,0.091746 0.043879,0.135625 0.023934,0.043879 0.051857,0.083768 0.087757,0.1196691 h 0.035901 l 0.011967,-0.019945 -0.00798,-0.027923 C 2.0182548,3.632692 2.0501665,3.4811112 2.0780893,3.3215524 2.1060121,3.1619935 2.1299459,3.0064237 2.1459018,2.8508539 l 0.1954595,-0.099724 c 0.019945,0.00399 0.035901,0.00399 0.051857,0.00798 0.015956,0.00399 0.027923,0.011967 0.03989,0.023934 l 0.019945,0.051857 0.055846,0.035901 c 0.035901,0.275239 0.063823,0.5584558 0.087757,0.8416727 0.019945,0.2832169 0.055846,0.5624448 0.1037132,0.8297058 z M 1.188549,4.3746404 h 0.011967 c 0.011967,-0.1994485 0.031912,-0.394908 0.051857,-0.5903675 0.019945,-0.1994485 0.03989,-0.3949081 0.059835,-0.5903676 0.019945,-0.031912 0.051857,-0.059835 0.091746,-0.07579 0.035901,-0.019945 0.071801,-0.03989 0.099724,-0.067813 v -0.027923 h -0.00399 v -0.015956 l -0.131636,-0.047868 -0.055846,-0.1156802 -0.047868,-0.019945 0.00798,-0.035901 0.091746,-0.051857 0.1675367,-0.1236581 c 0.019945,-0.00399 0.035901,-0.011967 0.055846,-0.019945 0.019945,-0.00399 0.031912,-0.015956 0.035901,-0.035901 l -0.043879,-0.07579 C 1.5475563,2.4559459 1.5076666,2.436001 1.4677769,2.432012 1.4199093,2.4280231 1.3760306,2.4200451 1.3401299,2.4080782 l 0.00399,-0.03989 c 0.035901,-0.00399 0.071802,-0.019945 0.1077022,-0.047868 0.035901,-0.027923 0.067813,-0.03989 0.1037132,-0.043879 v -0.019945 l 0.043879,-0.00798 V 2.2006518 L 1.5555342,2.1527841 C 1.5196335,2.1248613 1.4877218,2.1089055 1.4438431,2.0969385 1.3999644,2.0849716 1.3520968,2.0730047 1.3122071,2.0530599 h -0.043879 l -0.095735,0.067813 H 1.1486593 L 1.3042291,1.9453577 v -0.019945 l 0.027923,-0.011967 0.00798,-0.027923 c 0.031912,-0.019945 0.063824,-0.03989 0.099724,-0.059834 0.035901,-0.019945 0.067813,-0.035901 0.1037132,-0.051857 L 1.5236225,1.6980415 C 1.4996887,1.6701188 1.4677769,1.6501739 1.4238982,1.642196 1.3800196,1.634218 1.3361409,1.6222511 1.3042291,1.6142732 v -0.015956 l 0.051857,-0.019945 V 1.4866261 L 1.316196,1.4427475 C 1.2603505,1.4068467 1.2045049,1.374935 1.1486593,1.3470122 1.0888248,1.3190894 1.0289902,1.2951556 0.96915565,1.2712218 l -0.0279228,0.023934 h -0.0279228 v 0.00798 L 1.1127586,1.4706703 c 0.019945,0.019945 0.035901,0.03989 0.051857,0.059835 0.00798,0.023934 0.015956,0.047868 0.015956,0.071801 l 0.019945,0.00399 -0.027923,0.055846 -0.57042269,0.2592831 v 0.011967 c 0.0438787,0.019945 0.0837684,0.027923 0.13562498,0.03989 0.0518566,0.011967 0.0957353,0.019945 0.14759189,0.023934 -0.0279228,0.055846 -0.0518566,0.1116912 -0.0837684,0.1595588 -0.0319118,0.051857 -0.0718015,0.1037132 -0.11568013,0.1436029 v 0.027923 c 0.0159559,0.035901 0.0398897,0.07579 0.0678125,0.1116912 0.0279228,0.035901 0.0638235,0.067813 0.0957353,0.095735 h 0.0279228 L 1.0010674,2.3641995 h 0.015956 L 1.060902,2.3203209 V 2.300376 l 0.1037132,-0.051857 h 0.023934 c -0.023934,0.047868 -0.047868,0.091746 -0.079779,0.135625 -0.035901,0.043879 -0.071802,0.07579 -0.11169116,0.1077022 v 0.019945 L 1.0130343,2.4998245 H 1.056913 C 0.93724389,2.567637 0.81358582,2.6274716 0.67796084,2.6952841 0.54632482,2.7630965 0.41069984,2.8149532 0.26709692,2.8628208 l -0.0359007,-0.011967 h -0.0199448 l 0.2393382,0.2074264 0.0518566,-0.00399 0.007978,-0.027923 0.48266538,-0.2353493 h 0.0159558 v 0.047868 l -0.23136021,0.2273713 -0.0199449,0.03989 c -0.0279228,0.011967 -0.0518566,0.023934 -0.0757904,0.043879 -0.0239338,0.019945 -0.0518566,0.031912 -0.0797794,0.031912 L 0.5622807,3.2178391 0.64206011,3.4093097 1.056913,3.2896406 v -0.015956 l 0.063824,-0.00798 v -0.019945 h 0.035901 l 0.011967,0.27125 c -0.00399,0.1037132 -0.00399,0.2114154 -0.011967,0.3151286 -0.00798,0.1077022 -0.019945,0.2074265 -0.031912,0.3031617 H 1.0768578 L 0.99308947,4.0196221 h -0.0119669 c -0.007978,0.023934 -0.007978,0.047868 0,0.071801 0.003989,0.023934 0.0119669,0.043879 0.0199448,0.063824 h 0.019945 z m -0.52255507,-0.2193933 0.0558456,-0.015956 0.0478676,-0.067812 h 0.0159559 C 0.86544243,3.9797324 0.92926595,3.8800082 0.96915565,3.772306 1.0010674,3.6606148 1.048935,3.5569016 1.1087696,3.4531884 l -0.00798,-0.1555699 h -0.00798 l -0.15955878,0.2233824 -0.0279228,0.011967 -0.0119669,0.027923 -0.0359007,0.015956 -0.19147056,-0.047868 H 0.65402702 L 0.51441306,3.899953 h -0.0239338 l -0.0199448,0.035901 v 0.023934 l 0.0199448,0.00399 0.0398897,0.083768 h 0.0159559 l 0.0119669,0.027923 0.0558456,0.035901 v 0.015956 z M 1.1207365,3.0901921 0.76571818,3.241773 0.72582848,3.229806 C 0.76571818,3.1699715 0.81757479,3.1181149 0.87342037,3.0702472 0.93325492,3.0223796 0.99308947,2.974512 1.048935,2.9306333 h 0.019945 l 0.055846,0.1236581 z m 0.7339705,-0.6861029 0.1116912,0.00399 0.1116911,-0.1196691 0.047868,-0.043879 0.027923,-0.051857 h 0.011967 c 0.011967,-0.019945 0.027923,-0.035901 0.047868,-0.051857 0.015956,-0.011967 0.023934,-0.027923 0.023934,-0.055846 h 0.015956 l 0.055846,-0.071801 0.019945,-0.027923 h 0.015956 l 0.063823,-0.059835 0.1037133,-0.1116911 0.035901,-0.031912 0.00798,-0.027923 0.1037132,0.00399 0.00399,-0.019945 -0.00399,-0.027923 0.00798,-0.035901 V 1.6262401 H 2.65649 l -0.019945,-0.043879 -0.027923,-0.011967 -0.00798,-0.027923 C 2.5567657,1.5185379 2.5088981,1.502582 2.4610304,1.4946041 2.4091738,1.4906151 2.3573172,1.4746592 2.3094496,1.4587033 l -0.07579,0.023934 c -0.011967,0.023934 -0.019945,0.047868 -0.023934,0.07579 -0.00798,0.027923 -0.023934,0.051857 -0.047868,0.067813 L 2.125957,1.6102842 h -0.00798 v 0.011967 h -0.019945 v 0.03989 h 0.019945 l 0.015956,0.043879 C 2.0900562,1.8216996 2.0461776,1.9413687 2.0022989,2.0610378 1.9624092,2.1807069 1.9145415,2.2963871 1.854707,2.4040892 Z"
         id="path294" />
      <path
         d="m 5.1176769,4.3826184 0.063823,-0.019945 0.067812,-0.067812 v -0.015956 l 0.031912,-0.00798 c 0.031912,-0.051857 0.063824,-0.1037132 0.099724,-0.1475919 0.035901,-0.03989 0.063823,-0.091746 0.083768,-0.1436029 h 0.015956 C 5.5365187,3.8919751 5.5963533,3.7962398 5.6521988,3.7044935 5.7000665,3.6167361 5.7559121,3.5249898 5.8077687,3.4372325 h 0.015956 c 0.00798,-0.027923 0.023934,-0.043879 0.051857,-0.055846 0.023934,-0.011967 0.047868,-0.019945 0.067812,-0.023934 v -0.07579 h -0.019945 v -0.027923 l -0.03989,-0.03989 c -0.051857,0 -0.095735,-0.011967 -0.131636,-0.035901 -0.03989,-0.019945 -0.087757,-0.031912 -0.135625,-0.031912 v -0.019945 l 0.3350735,-0.2193933 0.011967,-0.019945 c 0.031912,-0.019945 0.071802,-0.031912 0.1116912,-0.03989 0.03989,-0.00399 0.07579,-0.023934 0.1037132,-0.055846 h 0.047868 l 0.051857,0.1715257 h 0.019945 l 0.035901,0.047868 c 0.011967,0.00798 0.019945,0.019945 0.031912,0.031912 0.011967,0.011967 0.023934,0.015956 0.043879,0.00798 v 0.019945 l 0.031912,0.027923 0.1037132,0.075791 0.1037133,-0.00798 0.00798,-0.031912 C 6.6414634,3.0383355 6.6215186,2.9465892 6.5935958,2.8468649 6.565673,2.7551186 6.5537061,2.6514054 6.5537061,2.5437032 6.561684,2.4639238 6.565673,2.3841444 6.565673,2.300376 c 0,-0.079779 0.00798,-0.1635478 0.019945,-0.2353492 l -0.011967,-0.051857 0.019945,-0.091746 0.027923,-0.019945 0.011967,-0.079779 h 0.023934 l 0.03989,-0.07579 -0.047868,-0.1715257 H 6.6215186 V 1.5544386 L 6.4938715,1.506571 V 1.4866261 C 6.4659487,1.4746592 6.434037,1.4666813 6.3981362,1.4626923 6.3622355,1.4587033 6.3263348,1.4587033 6.298412,1.4507254 H 6.170765 L 5.9872723,1.6023063 v 0.011967 l 0.079779,0.00798 0.1795037,-0.019945 0.031912,0.011967 c 0.00399,0.1755147 0.011967,0.3510293 0.023934,0.526544 0.011967,0.1755147 0.019945,0.3550184 0.031912,0.534522 V 2.830909 l -0.035901,-0.011967 -0.03989,-0.063824 0.00798,-0.047868 -0.00798,-0.051857 -0.1077022,-0.035901 c -0.047868,-0.00399 -0.099724,0 -0.1475919,0.011967 -0.047868,0.015956 -0.091746,0.03989 -0.131636,0.07579 h -0.019945 v -0.031912 h 0.019945 L 6.0471069,2.4838686 v -0.019945 h 0.019945 L 6.2106547,2.2923981 V 2.2564974 L 6.027162,2.2166077 v -0.027923 c 0.043879,-0.03989 0.087757,-0.075791 0.1236581,-0.1196691 0.03989,-0.043879 0.07579,-0.091746 0.1077022,-0.139614 v -0.047868 c -0.019945,-0.011967 -0.043879,-0.019945 -0.067813,-0.019945 -0.027923,0 -0.047868,-0.00399 -0.07579,-0.011967 -0.011967,0 -0.027923,0 -0.047868,-0.00399 -0.019945,-0.00399 -0.035901,0.00399 -0.03989,0.023934 -0.03989,0.00798 -0.083768,0.027923 -0.1196691,0.059835 -0.035901,0.027923 -0.07579,0.055846 -0.1077022,0.07579 l -0.051857,0.059835 -0.027923,-0.011967 -0.047868,-0.1037132 h -0.019945 v -0.019945 c -0.03989,-0.027923 -0.083768,-0.055846 -0.123658,-0.087757 -0.03989,-0.031912 -0.079779,-0.055846 -0.1236581,-0.07579 h -0.011967 c 0.035901,0.043879 0.059835,0.091746 0.07579,0.143603 0.015956,0.047868 0.019945,0.1037132 0.019945,0.1635477 -0.00798,0.075791 -0.019945,0.1595588 -0.023934,0.2393382 -0.00798,0.083768 -0.023934,0.1595588 -0.051857,0.2313603 l 0.031912,0.083768 0.1515809,0.1555698 -0.143603,0.1635478 -0.00798,0.023934 h -0.031912 l 0.1037133,0.2154044 0.051857,-0.03989 h 0.019945 l 0.00798,0.03989 C 5.5564636,3.3973428 5.49264,3.6007803 5.4088717,3.7962398 5.3211143,3.9956883 5.2253791,4.1911478 5.1176769,4.3826184 Z M 6.430048,4.2509824 c 0.1874816,-0.019945 0.3749632,-0.03989 0.5624448,-0.055846 0.1874816,-0.015956 0.3629963,-0.051857 0.530533,-0.099724 l 0.00798,-0.067813 0.051857,-0.00798 -0.011967,-0.031912 -0.027923,-0.00798 V 3.9597876 H 7.5110589 V 3.9438317 H 7.491114 v -0.019945 l -0.091746,-0.03989 -0.03989,-0.03989 -0.07579,-0.027923 -0.00798,-0.043879 H 7.23582 L 7.223853,3.7324163 7.1879523,3.7044935 7.1201398,3.5967913 H 7.100195 l 0.011967,0.035901 c -0.00798,0.047868 -0.015956,0.095735 -0.019945,0.1436029 -0.00399,0.043879 -0.015956,0.091746 -0.027923,0.139614 -0.079779,0.03989 -0.1595588,0.07579 -0.2473161,0.095735 -0.083768,0.023934 -0.1675367,0.047868 -0.2513051,0.07579 -0.051857,0.00399 -0.099724,0.00399 -0.1515809,-0.00798 -0.051857,-0.00798 -0.099724,-0.019945 -0.1475919,-0.03989 l -0.047868,-0.079779 c 0.00399,-0.063824 0.011967,-0.1316361 0.019945,-0.1954596 0.00399,-0.067813 0.019945,-0.127647 0.03989,-0.1834926 0,-0.051857 0,-0.1037132 -0.00399,-0.1475919 -0.00399,-0.043879 -0.019945,-0.087757 -0.047868,-0.1236581 l -0.035901,-0.035901 -0.047868,0.00798 c -0.035901,0.095735 -0.063824,0.1914705 -0.079779,0.2951837 -0.019945,0.1037133 -0.035901,0.2074265 -0.047868,0.3071507 0.00798,0.03989 0.023934,0.071801 0.043879,0.1077022 0.019945,0.035901 0.03989,0.071801 0.063823,0.1037132 0.047868,0.023934 0.099724,0.051857 0.1515809,0.087757 0.043879,0.035901 0.095735,0.059835 0.1555698,0.067812 z M 4.1084674,3.9597876 4.3238718,3.772306 4.4156181,3.6646038 c 0.03989,-0.067813 0.075791,-0.139614 0.1077022,-0.2074265 0.031912,-0.063824 0.055846,-0.1396139 0.075791,-0.2154043 h 0.03989 l 0.091746,0.07579 0.031912,0.027923 0.075791,0.011967 v 0.00798 l 0.00798,-0.00798 h 0.019945 v 0.00798 h 0.00798 l 0.011967,-0.055846 0.047868,-0.011967 -0.00798,-0.043879 h -0.011967 l -0.00798,-0.031912 -0.095735,-0.027923 V 3.1739605 H 4.7826034 V 3.1540156 L 4.702824,3.1340708 v -0.023934 l -0.03989,-0.011967 0.051857,-0.2393382 0.087757,-0.07579 v -0.019945 l 0.2273713,-0.1914705 0.03989,-0.03989 v -0.019945 l 0.027923,-0.00798 0.019945,-0.03989 h 0.027923 l 0.07579,-0.083768 -0.019945,-0.047868 -0.1037132,-0.03989 -0.1156801,0.00798 -0.1914706,0.1635478 h -0.019945 c 0.00798,-0.03989 0.011967,-0.087757 0.011967,-0.139614 0,-0.043879 0.00798,-0.091746 0.019945,-0.1356249 l 0.063823,-0.051857 0.019945,-0.043879 0.027923,-0.00798 0.067813,-0.079779 0.1236581,-0.055846 0.011967,-0.019945 V 1.901479 H 5.097732 v -0.019945 c -0.03989,-0.031912 -0.079779,-0.051857 -0.1196691,-0.059835 -0.043879,-0.00399 -0.083768,-0.019945 -0.1236581,-0.043879 l -0.091746,0.015956 -0.047868,-0.00798 -0.019945,-0.03989 -0.1555698,-0.055846 -0.063823,0.00798 c 0.023934,0.027923 0.03989,0.055846 0.051857,0.083768 0.00798,0.023934 0.015956,0.055846 0.023934,0.087757 l -0.019945,0.059835 c -0.063824,0.027923 -0.1236581,0.055846 -0.1834927,0.095735 -0.055846,0.03989 -0.1156801,0.071801 -0.1834926,0.095735 v 0.035901 l 0.03989,0.011967 v 0.027923 l 0.027923,0.027923 0.1236581,0.051857 0.1755147,-0.011967 0.059835,0.011967 0.00798,0.015956 -0.03989,0.1077022 v 0.00798 l 0.011967,-0.00798 h 0.019945 l -0.011967,0.2353492 c -0.043879,0.035901 -0.087757,0.071801 -0.127647,0.1156801 -0.043879,0.03989 -0.091746,0.067813 -0.139614,0.087757 v 0.00798 l -0.095735,0.019945 -0.011967,0.031912 -0.019945,0.00798 c 0.00798,0.035901 0.023934,0.059834 0.047868,0.083768 0.019945,0.027923 0.031912,0.059835 0.031912,0.099724 l 0.027923,0.00798 0.011967,0.035901 0.035901,0.019945 h 0.035901 L 4.3876953,3.09817 4.4993865,3.0423244 h 0.019945 v 0.03989 h -0.027923 l 0.00798,0.027923 c -0.00798,0.1077022 -0.031912,0.2074265 -0.067812,0.3071507 -0.035901,0.095735 -0.079779,0.1874816 -0.1196691,0.275239 l -0.2114154,0.259283 z m 1.6314888,-1.3482719 -0.011967,0.00798 -0.00798,-0.00798 0.00798,-0.099724 0.03989,0.031912 z M 5.7798459,2.2245856 5.767879,2.2365525 5.7399562,2.16874 V 2.0650268 l 0.027923,0.00798 0.1236581,-0.019945 h 0.031912 z"
         id="path296" />
      <path
         d="m 8.9829812,4.4504309 h 0.015956 V 4.438464 l 0.1236581,-0.035901 0.011967,-0.019945 C 9.274176,4.3507066 9.4177789,4.3267728 9.5613819,4.3148059 9.7049848,4.302839 9.8565656,4.29885 10.016124,4.302839 l 0.11967,0.019945 0.03989,-0.00798 0.135625,0.019945 -0.008,0.023934 -0.04787,0.023934 v 0.015956 l 0.04388,0.03989 c 0.08776,0.011967 0.171526,0.00798 0.247316,-0.011967 0.07579,-0.023934 0.151581,-0.043879 0.231361,-0.055846 l 0.04388,0.00798 0.04388,0.00399 0.01197,-0.015956 -0.06781,-0.1914706 c -0.03191,-0.027923 -0.06781,-0.051857 -0.09972,-0.067812 -0.03191,-0.019945 -0.0718,-0.031912 -0.111691,-0.03989 l -0.355018,-0.023934 c -0.111691,-0.00399 -0.223383,-0.00399 -0.3350737,0 -0.1116912,0.00399 -0.2193934,0.00798 -0.3231066,0.019945 h -0.015956 l 0.00798,-0.027923 0.2193934,-0.1595588 c 0.019945,-0.019945 0.047868,-0.03989 0.07579,-0.059835 0.027923,-0.015956 0.047868,-0.035901 0.063823,-0.063824 L 9.8964553,3.64067 c -0.023934,-0.019945 -0.047868,-0.035901 -0.07579,-0.047868 -0.023934,-0.011967 -0.055846,-0.027923 -0.083768,-0.043879 -0.051857,0.015956 -0.095735,0.027923 -0.1436029,0.031912 -0.051857,0.00798 -0.099724,0.019945 -0.1475919,0.031912 h -0.03989 l 0.031912,-0.03989 0.063823,-0.059835 0.267261,-0.1795036 v -0.027923 l -0.063823,-0.071801 0.00798,-0.035901 0.035901,-0.019945 0.2712495,-0.2074264 c 0,-0.015956 0,-0.035901 0,-0.051857 -0.004,-0.015956 -0.01197,-0.031912 -0.023933,-0.043879 l -0.03989,-0.031912 v -0.027923 l -0.1436029,-0.03989 -0.043879,-0.00399 v 0.015956 C 9.6531282,2.8229311 9.5494149,2.8747877 9.4457017,2.9426002 9.3379995,3.0064237 9.2462532,3.0901921 9.1545069,3.1779494 l -0.015956,-0.00399 -0.023934,-0.1795037 0.031912,-0.1396139 0.015956,0.00399 0.051857,-0.063823 0.023934,-0.019945 c 0.1196691,-0.03989 0.2433272,-0.083768 0.3669852,-0.1276471 0.1196691,-0.03989 0.2473162,-0.07579 0.3789522,-0.1037132 l -0.00798,-0.047868 -0.011967,-0.00399 -0.00798,-0.035901 C 9.9323561,2.4280231 9.9044333,2.4040892 9.8685326,2.3921223 9.8326318,2.3801554 9.8007201,2.3681885 9.7608304,2.3562216 l -0.047868,-0.00399 -0.00399,0.027923 c -0.1077022,0.015956 -0.2114155,0.043879 -0.3031618,0.083768 -0.095735,0.043879 -0.1954595,0.087757 -0.2911948,0.127647 h -0.035901 l 0.079779,-0.1914705 h 0.019945 l 0.031912,-0.099724 h 0.015956 l 0.131636,-0.2154044 0.1196691,-0.027923 c 0.2951838,0.1874816 0.5823895,0.3949081 0.8695955,0.6182904 0.287206,0.2313603 0.610312,0.3789522 0.96932,0.4507536 l 0.09175,-0.011967 V 3.106148 C 11.192871,3.0423244 10.989433,2.9465892 10.805941,2.8149532 10.626437,2.6873061 10.438955,2.5596591 10.255463,2.432012 v -0.015956 l -0.207427,-0.2034375 0.004,-0.035901 0.08377,-0.015956 v -0.015956 c 0.02792,0.00399 0.05584,-0.00399 0.07978,-0.019945 0.01995,-0.00798 0.04388,-0.023934 0.06382,-0.043879 l 0.03191,-0.051857 h 0.01994 l 0.04787,-0.03989 0.03191,-0.051857 -0.02792,-0.1116911 -0.05983,-0.043879 v -0.019945 l -0.05186,-0.031912 -0.163548,-0.00399 c 0.008,0.019945 0.02393,0.031912 0.03989,0.043879 0.01994,0.011967 0.0359,0.015956 0.05585,0.019945 -0.01994,0.055846 -0.05984,0.1077021 -0.107702,0.1595588 -0.05186,0.047868 -0.1037134,0.095735 -0.1436031,0.1475918 C 9.8804995,2.0570488 9.808698,2.0171591 9.7448745,1.9732805 9.677062,1.9373797 9.6052605,1.909457 9.5254811,1.8895121 l 0.051857,-0.087757 c 0.023934,-0.00399 0.047868,-0.011967 0.063824,-0.031912 0.019945,-0.015956 0.03989,-0.023934 0.067813,-0.019945 l 0.027923,-0.075791 0.1316361,-0.00798 -0.03989,-0.1077022 C 9.8166759,1.5504497 9.808698,1.5384827 9.7967311,1.5265158 9.7847642,1.5145489 9.7688083,1.51056 9.7488635,1.5145489 V 1.502582 L 9.4177789,1.3789239 9.3778892,1.3829129 9.2582201,1.5743835 8.9191577,1.634218 c -0.047868,-0.00399 -0.095735,-0.00399 -0.135625,-0.00798 -0.047868,0 -0.091746,-0.00798 -0.131636,-0.027923 h -0.023934 l -0.00399,0.019945 v 0.011967 l 0.083768,0.095735 c 0.019945,0.019945 0.043879,0.043879 0.063823,0.067813 0.019945,0.027923 0.03989,0.043879 0.071802,0.051857 l -0.00399,0.019945 h 0.019945 l 0.031912,0.067813 0.2154044,0.019945 -0.067812,0.1914706 h -0.015956 c -0.035901,0.091746 -0.07579,0.1755147 -0.127647,0.259283 -0.051857,0.083768 -0.095735,0.1715258 -0.139614,0.2592831 l -0.019945,-0.00399 C 8.6598746,2.7870304 8.5800952,2.9106884 8.4883489,3.0263686 8.3966026,3.1460377 8.3128342,3.2696957 8.2290659,3.3893648 H 8.21311 l -0.051857,0.03989 0.00798,0.03989 0.03989,0.015956 c 0.023934,-0.00399 0.051857,-0.00399 0.083768,-0.00399 0.023934,0.00399 0.047868,-0.00399 0.067813,-0.019945 0.011967,-0.00399 0.023934,-0.00798 0.035901,-0.00798 0.011967,-0.00399 0.019945,-0.011967 0.023934,-0.031912 l 0.035901,-0.015956 0.019945,-0.027923 0.035901,-0.00798 C 8.612007,3.2657068 8.6997643,3.1500266 8.7835327,3.0343465 8.8633121,2.9186664 8.9430915,2.7989973 9.014893,2.6873061 l 0.083768,0.019945 0.143603,-0.00399 h 0.023934 l -0.00399,0.035901 H 9.2462532 C 9.1545069,2.8029862 9.1066393,2.8907436 9.0906834,2.9944568 9.0747275,3.102159 9.0547827,3.2058722 9.0308488,3.3055965 l 0.011967,0.07579 0.131636,0.1755147 0.027923,0.011967 -0.019945,0.043879 0.00798,0.099724 0.019945,0.00399 c 0,0.023934 0.00798,0.043879 0.019945,0.059835 0.011967,0.011967 0.027923,0.027923 0.03989,0.03989 l 0.27125,-0.091746 h 0.019945 L 9.282154,4.0156331 c -0.063824,0.03989 -0.1276471,0.071802 -0.1914706,0.091746 -0.067813,0.019945 -0.127647,0.03989 -0.1954595,0.055846 l -0.023934,0.043879 0.027923,0.131636 h 0.019945 l -0.00399,0.027923 z m 0.2832169,-0.9015073 -0.00798,0.00399 -0.023934,-0.063823 c 0.011967,-0.079779 0.031912,-0.1635478 0.067812,-0.2353492 0.027923,-0.07579 0.071802,-0.143603 0.1236581,-0.2114155 L 9.5932936,2.970523 h 0.027923 l -0.1715257,0.1515808 -0.031912,0.055846 c 0,0.023934 0.00399,0.047868 0.015956,0.067813 0.011967,0.019945 0.019945,0.03989 0.031912,0.067812 -0.019945,0.043879 -0.051857,0.083768 -0.091746,0.1196691 -0.03989,0.031912 -0.071802,0.071801 -0.1077022,0.1077022 z m -0.5424999,-1.0889888 0.035901,0.00399 0.011967,-0.035901 h 0.027923 L 8.7795437,2.3362768 C 8.747632,2.304365 8.7157202,2.2804312 8.6877974,2.2525084 8.6558857,2.2245856 8.6239739,2.2086297 8.5800952,2.2006518 c -0.035901,-0.00399 -0.07579,-0.00399 -0.1156801,-0.00798 -0.043879,-0.00399 -0.083768,0.00399 -0.1156801,0.019945 l 0.051857,0.067813 c 0.051857,0.031912 0.1037132,0.067812 0.1555698,0.1037132 0.051857,0.035901 0.1077022,0.063824 0.1675368,0.07579 z m 1.8269478,0.079779 c 0.08377,-0.019945 0.15557,-0.051857 0.223383,-0.091746 0.06382,-0.043879 0.131636,-0.087757 0.199448,-0.131636 v -0.019945 h 0.01596 l 0.09573,-0.059835 0.01197,-0.019945 -0.01994,-0.095735 -0.02792,-0.00399 0.004,-0.019945 -0.02792,-0.027923 c -0.02393,-0.019945 -0.04787,-0.03989 -0.0718,-0.051857 -0.02792,-0.011967 -0.05584,-0.023934 -0.08776,-0.031912 l -0.259283,0.027923 c 0.02792,0.019945 0.05585,0.031912 0.09175,0.043879 0.03191,0.011967 0.06781,0.023934 0.103714,0.031912 -0.02393,0.079779 -0.05983,0.1595588 -0.111692,0.2233823 -0.05186,0.071801 -0.107702,0.139614 -0.171525,0.1994485 z"
         id="path298" />
      <path
         d="m 14.288304,4.3347507 0.0359,-0.015956 c 0.02792,-0.035901 0.04787,-0.071802 0.05186,-0.1116912 0.004,-0.035901 0.01197,-0.079779 0.01994,-0.1236581 L 14.368083,3.7443832 V 3.0263686 l 0.04388,-0.2552941 V 2.575615 l -0.09972,-0.031912 v -0.027923 c 0.131636,-0.027923 0.267261,-0.059835 0.402886,-0.083768 0.135625,-0.027923 0.27125,-0.03989 0.414853,-0.03989 l 0.05584,-0.071801 -0.01197,-0.055846 -0.255294,-0.087757 c -0.05584,0.051857 -0.119669,0.083768 -0.187481,0.095735 -0.07579,0.011967 -0.139614,0.027923 -0.207427,0.047868 h -0.05584 c 0.01994,-0.131636 0.05186,-0.2552941 0.09972,-0.3669853 0.04787,-0.1156801 0.09175,-0.2233823 0.139614,-0.3350735 v -0.071801 l -0.239338,-0.087757 c -0.103714,0 -0.19546,0.019945 -0.279228,0.055846 -0.08377,0.03989 -0.187482,0.055846 -0.299173,0.043879 l 0.01596,0.043879 c 0.02792,0.019945 0.05983,0.035901 0.09175,0.059835 0.03191,0.023934 0.06781,0.03989 0.107702,0.051857 0.03191,0 0.0718,-0.00399 0.111692,-0.00798 0.0359,-0.00399 0.0718,-0.015956 0.09574,-0.035901 h 0.02792 l -0.01596,0.1555698 h -0.123658 l -0.01596,0.027923 -0.418842,0.1555698 0.06781,0.087757 0.08377,-0.015956 h 0.0718 c -0.01994,0.071801 -0.05584,0.1436029 -0.111691,0.2034374 -0.05983,0.059835 -0.107702,0.1236581 -0.15557,0.1874816 l -0.171525,0.131636 c -0.02792,0 -0.05186,0.00798 -0.07579,0.015956 -0.02393,0.015956 -0.03989,0.03989 -0.04787,0.067812 l 0.03989,0.1675368 0.46671,-0.2114155 c 0.02792,-0.011967 0.05186,-0.00399 0.07579,0.019945 0.02393,0.023934 0.04388,0.03989 0.06382,0.051857 l 0.04388,0.1236581 0.02393,0.015956 c 0.06781,0.1116911 0.09972,0.2393382 0.09573,0.3749631 -0.004,0.135625 0,0.2632721 0.01994,0.3869301 v 0.4387867 l -0.139614,-0.031912 -0.11568,-0.1236581 0.08776,0.2792279 z M 13.705914,4.039567 c 0.02792,-0.091746 0.06781,-0.1914706 0.111692,-0.2872059 0.04787,-0.099724 0.09574,-0.1954595 0.143602,-0.2911948 h 0.02792 l 0.02792,-0.055846 -0.111691,0.099724 -0.171526,0.1515808 h -0.02792 c 0.02792,-0.079779 0.05983,-0.1715257 0.09175,-0.259283 0.03191,-0.091746 0.06781,-0.1755147 0.107702,-0.263272 v -0.095735 l -0.211416,-0.043879 -0.155569,0.031912 0.139614,0.1077022 c 0,0.127647 -0.008,0.2433271 -0.02792,0.3550183 -0.01994,0.1156801 -0.06382,0.2154044 -0.139614,0.3111397 l 0.01197,0.071801 h 0.04388 v 0.027923 z m -1.124889,-0.043879 0.757904,-0.3909191 -0.01596,-0.071801 c -0.09175,-0.011967 -0.179503,0.00399 -0.251305,0.047868 -0.07579,0.03989 -0.151581,0.079779 -0.227371,0.1077022 h -0.02792 l 0.05983,-0.1116912 h 0.0718 l 0.01197,-0.071801 0.08377,-0.099724 0.04388,-0.083768 h 0.02792 l 0.09972,-0.099724 v -0.027923 h 0.02792 l 0.05584,-0.083768 v -0.043879 l -0.09972,-0.03989 h -0.127647 v 0.027923 l -0.05585,0.011967 H 12.9879 c -0.01197,-0.083768 -0.004,-0.1595588 0.01596,-0.2313603 0.01994,-0.067813 0.05186,-0.131636 0.09972,-0.1914706 V 2.575615 l -0.05983,-0.043879 -0.0718,-0.095735 v -0.059835 l 0.04388,-0.015956 0.11568,-0.1675368 -0.01596,-0.027923 -0.02792,-0.015956 c -0.05983,-0.00798 -0.107702,0 -0.139614,0.027923 -0.03989,0.027923 -0.08377,0.055846 -0.131636,0.075791 h -0.02393 v -0.059835 l -0.131636,0.087757 0.05983,0.1675367 h 0.0718 l -0.227371,0.3629963 c -0.01197,0.03989 -0.004,0.071801 0.02393,0.099724 0.02393,0.027923 0.04388,0.055846 0.05983,0.083768 l 0.167537,-0.067813 h 0.04388 l 0.01596,0.067813 v 0.1156801 l -0.283217,0.1954596 -0.123658,-0.055846 h -0.02792 v 0.03989 l 0.139614,0.1436029 c 0.02792,0.011967 0.05186,0.00798 0.05983,-0.00798 0.01197,-0.011967 0.03191,-0.027923 0.05186,-0.047868 h 0.02792 l 0.05584,0.095735 -0.0718,0.1436029 c -0.02792,0.047868 -0.06382,0.075791 -0.103713,0.083768 -0.04388,0.011967 -0.07978,0.035901 -0.107703,0.071801 0,0.043879 0.008,0.083768 0.02792,0.1196691 0.01994,0.035901 0.03989,0.067813 0.05983,0.1037132 z m 2.536985,-0.2513051 0.03989,-0.015956 v -0.027923 l 0.0718,-0.011967 0.08377,-0.083768 -0.01596,-0.027923 v -0.031912 l 0.04388,0.015956 h 0.01596 l -0.03191,-0.043879 c -0.09175,-0.00798 -0.183492,-0.027923 -0.263272,-0.055846 -0.08776,-0.023934 -0.171526,-0.055846 -0.259283,-0.083768 h -0.0359 l 0.02792,0.055846 -0.02792,0.1715257 v 0.03989 l 0.0359,-0.027923 h 0.159559 v 0.027923 z m -2.273713,-0.3829411 -0.01197,0.015956 -0.08377,-0.015956 0.02792,-0.079779 0.05585,-0.031912 h 0.02792 z m -0.873585,-0.2273713 0.131636,-0.051857 c 0.05186,-0.059835 0.103714,-0.1196691 0.15557,-0.1834926 0.04388,-0.067813 0.07579,-0.135625 0.09573,-0.2114154 h 0.02792 l 0.01596,-0.067812 h 0.02792 c 0.05585,-0.1475919 0.119669,-0.2872058 0.191471,-0.4228308 0.06781,-0.135625 0.15158,-0.267261 0.243327,-0.398897 l 0.09972,-0.011967 0.01197,-0.043879 0.159559,0.043879 v 0.03989 l -0.27125,0.2832169 c 0.08776,-0.047868 0.171525,-0.095735 0.259283,-0.143603 0.07978,-0.043879 0.175514,-0.067813 0.279228,-0.067813 V 1.7857989 c -0.06781,-0.047868 -0.139614,-0.07579 -0.215405,-0.079779 -0.0718,-0.00399 -0.151581,-0.011967 -0.223382,-0.019945 l -0.02792,-0.083768 -0.211415,-0.099724 h -0.0718 l 0.01197,0.055846 c -0.06382,0.2832169 -0.147592,0.5584558 -0.251305,0.8257168 -0.107702,0.267261 -0.255294,0.5145771 -0.446765,0.7379594 z M 14.523653,3.09817 c 0.04787,-0.03989 0.09972,-0.07579 0.15557,-0.1037132 0.05983,-0.027923 0.11568,-0.051857 0.167537,-0.079779 l 0.127647,0.027923 0.127647,-0.043879 v -0.043879 h 0.02792 l 0.01197,-0.027923 v -0.03989 l -0.323107,-0.099724 -0.127647,0.011967 -0.01197,0.071802 -0.09574,0.067813 0.03989,0.031912 z m -1.81897,-0.259283 -0.01197,0.015956 h -0.03191 c 0.01197,-0.059835 0.03191,-0.1077022 0.06781,-0.1555699 0.03191,-0.047868 0.06781,-0.087757 0.103713,-0.123658 h 0.02792 V 2.7311848 Z M 14.256392,2.3921223 13.749793,2.575615 h -0.04388 v -0.031912 h 0.02792 l 0.239338,-0.2552941 0.02792,-0.035901 0.243327,-0.1715257 h 0.04388 l -0.01596,0.095735 -0.11568,0.031912 0.09972,0.139614 z"
         id="path300" />
      <path
         d="m 16.697634,4.2230596 h 0.02792 c 0,-0.035901 0,-0.071802 -0.004,-0.1077022 -0.004,-0.031912 0.004,-0.063823 0.03191,-0.091746 v -0.055846 l -0.01197,0.03989 -0.06382,0.027923 h -0.03989 c -0.008,-0.2832169 0.008,-0.5584558 0.05186,-0.8257168 0.04388,-0.267261 0.08377,-0.534522 0.119669,-0.797794 0,-0.135625 -0.004,-0.27125 -0.01197,-0.402886 -0.008,-0.131636 -0.04787,-0.2513051 -0.119669,-0.3629963 l 0.07579,0.2473162 c -0.01994,0.2832168 -0.05186,0.5624448 -0.09972,0.8416727 -0.04787,0.2752389 -0.07978,0.5544668 -0.09972,0.8376837 0,0.1077022 0.004,0.2154043 0.008,0.3270955 0.004,0.1077022 0.02792,0.2114154 0.07579,0.2991728 h 0.05983 z m 2.273713,-0.1715257 -0.01197,-0.027923 0.04787,-0.2074265 -0.07978,-0.123658 C 18.839711,3.628703 18.755943,3.5768464 18.664196,3.5289788 18.576439,3.4851001 18.484693,3.4452104 18.388957,3.4053207 l 0.09972,-0.2433272 -0.02792,-0.6143013 0.02792,-0.4627206 0.207426,0.011967 0.139614,-0.043879 v -0.063824 c -0.008,-0.031912 -0.02393,-0.043879 -0.04787,-0.043879 -0.02393,0 -0.04388,-0.00399 -0.06382,-0.00798 -0.03989,-0.047868 -0.06382,-0.099724 -0.07579,-0.1475918 -0.01197,-0.051857 -0.02792,-0.099724 -0.05186,-0.143603 l -0.08776,-0.043879 -0.119669,0.015956 c -0.05186,0.055846 -0.08377,0.1156802 -0.09972,0.1715258 -0.01197,0.059835 -0.02393,0.123658 -0.03191,0.1834926 -0.151581,0.035901 -0.303161,0.083768 -0.450753,0.1396139 -0.147592,0.051857 -0.291195,0.1276471 -0.42682,0.2154044 l -0.219393,0.263272 v 0.015956 l 0.03191,-0.059835 c 0.135625,-0.1276471 0.287206,-0.2233824 0.458732,-0.2792279 0.167537,-0.059835 0.343051,-0.1077022 0.518566,-0.1475919 h 0.08776 c 0,0.1396139 0.004,0.2752389 0.008,0.4028859 0.004,0.1316361 0.01994,0.2632721 0.04787,0.3909191 L 18.3012,3.09817 c -0.01994,0.03989 -0.04787,0.083768 -0.07978,0.1196691 -0.0359,0.035901 -0.07579,0.067813 -0.11967,0.091746 L 17.95416,3.2856516 c -0.08377,-0.00798 -0.159559,-0.00399 -0.227372,0.00399 -0.07579,0.011967 -0.135625,0.03989 -0.195459,0.07579 -0.01994,0.051857 -0.04787,0.095735 -0.07579,0.139614 -0.03191,0.043879 -0.05186,0.095735 -0.05983,0.1475919 v 0.027923 h 0.03191 c 0,0.019945 0,0.03989 0,0.063824 0,0.023934 0.008,0.03989 0.02393,0.055846 0.08776,-0.031912 0.175515,-0.071802 0.259283,-0.1077022 0.07978,-0.035901 0.167537,-0.071801 0.255294,-0.1037133 0.139614,0.015956 0.263272,0.043879 0.378953,0.095735 0.11568,0.051857 0.239338,0.099724 0.362996,0.1475919 0.05186,0.027923 0.09573,0.059835 0.147592,0.091746 0.04787,0.027923 0.08776,0.071801 0.11568,0.1276471 z"
         id="path302" />
      <path
         d="m 22.018913,3.9837214 0.243327,-0.035901 v -0.031912 h 0.04787 v -0.031912 l 0.11568,-0.059835 -0.06781,0.015956 c -0.07579,0 -0.139614,-0.011967 -0.199449,-0.03989 -0.05585,-0.019945 -0.11568,-0.047868 -0.171526,-0.075791 C 21.891266,3.6047692 21.79952,3.4811112 21.727718,3.3574531 21.651928,3.237784 21.572148,3.1181149 21.484391,2.9984458 L 21.3727,2.8987215 h -0.03191 c -0.01197,0.1994485 0.02393,0.3789522 0.09972,0.538511 0.0718,0.1595588 0.171526,0.3111396 0.307151,0.4467646 0.03989,0.027923 0.08377,0.051857 0.127647,0.067812 0.04388,0.011967 0.08776,0.023934 0.143603,0.031912 z m 0.191471,-1.735202 c 0.0359,-0.031912 0.06781,-0.063824 0.107702,-0.099724 0.0359,-0.031912 0.07978,-0.051857 0.123658,-0.063824 l 0.01197,-0.059835 -0.01197,-0.099724 C 22.310108,1.8017548 22.154538,1.7379312 21.979023,1.7219754 21.79952,1.7100085 21.624005,1.6820857 21.452479,1.638207 c -0.119669,0 -0.223382,0.011967 -0.323106,0.035901 -0.09574,0.027923 -0.19546,0.055846 -0.303162,0.083768 l 0.01197,0.059835 0.04787,0.011967 v 0.047868 l 0.163547,0.07579 c 0.103714,0 0.207427,-0.015956 0.299173,-0.047868 0.09175,-0.027923 0.191471,-0.047868 0.299173,-0.055846 0.06781,0 0.127647,0.00798 0.195459,0.019945 0.06382,0.015956 0.11967,0.035901 0.175515,0.055846 0.04388,0.019945 0.08776,0.035901 0.119669,0.059835 0.0359,0.027923 0.06781,0.059835 0.09175,0.099724 l -0.01994,0.135625 z"
         id="path304" />
      <path
         d="m 26.346938,4.0435559 0.175514,-0.1675367 0.07579,-0.015956 v -0.035901 l 0.07579,-0.027923 0.08776,-0.1954595 -0.08776,-0.1755147 c -0.04388,-0.035901 -0.08377,-0.059835 -0.127647,-0.079779 -0.04388,-0.019945 -0.09175,-0.031912 -0.139614,-0.03989 -0.219393,-0.019945 -0.422831,0 -0.606323,0.051857 -0.183493,0.055846 -0.366985,0.1077022 -0.554467,0.1595588 -0.02792,0 -0.05984,-0.00399 -0.09574,-0.00798 -0.0359,-0.00399 -0.06382,-0.015956 -0.08377,-0.031912 0.01994,-0.2074265 0.05983,-0.4148529 0.119669,-0.6143014 0.05984,-0.1994485 0.123659,-0.394908 0.207427,-0.5863786 0.06382,-0.035901 0.131636,-0.079779 0.195459,-0.1236581 0.05585,-0.03989 0.103714,-0.099724 0.135625,-0.1715257 l -0.03191,-0.1037132 -0.06382,-0.023934 -0.03989,-0.1037132 0.02792,-0.099724 v -0.023934 l -0.09175,-0.035901 v -0.031912 l -0.08776,0.031912 c -0.03989,0.095735 -0.07579,0.1914705 -0.103714,0.2792279 -0.03191,0.091746 -0.06382,0.1914705 -0.08776,0.2872058 l -0.255294,0.051857 -0.235349,-0.015956 h -0.05983 c 0.05983,0.071801 0.127647,0.1037133 0.215405,0.1037133 0.07978,0 0.171525,0 0.259283,0 L 25.13828,2.436001 v 0.011967 l 0.01596,-0.027923 h 0.01596 l -0.223383,0.8616176 c -0.01197,0.051857 -0.01197,0.1037132 0,0.1515808 0.008,0.043879 0.02792,0.091746 0.05585,0.139614 l 0.09573,0.047868 c 0.183493,-0.00798 0.362996,-0.043879 0.530533,-0.1116912 0.167537,-0.063823 0.347041,-0.1037132 0.538511,-0.1196691 0.04388,0 0.08776,0 0.127647,0 0.04388,0 0.07978,0.011967 0.111691,0.035901 l 0.08776,0.1475919 -0.02792,0.1436029 v 0.03989 h 0.02792 l -0.05983,0.1196691 -0.08776,0.1436029 z m -1.372206,-0.6182903 -0.01596,0.015956 -0.01197,-0.015956 c 0.008,-0.1515809 0.0359,-0.2991728 0.08377,-0.4387867 0.04388,-0.139614 0.08377,-0.2792279 0.123658,-0.4188419 h 0.01596 l -0.19546,0.7658823 z m 0.506599,-1.3722057 -0.01197,0.011967 -0.01596,-0.011967 0.08776,-0.3191176 0.07579,0.091746 v 0.1077022 z"
         id="path306" />
      <path
         d="m 29.921047,4.3267728 0.008,-0.023934 0.07978,-0.023934 h 0.03989 v 0.023934 l 0.359007,-0.2832169 0.103714,-0.2353492 c 0,-0.047868 0,-0.099724 0,-0.1515809 0,-0.047868 -0.01994,-0.087757 -0.05585,-0.1196691 -0.03989,-0.051857 -0.09574,-0.091746 -0.15557,-0.1196691 -0.05584,-0.027923 -0.11568,-0.047868 -0.175514,-0.063823 -0.179504,0 -0.347041,0.031912 -0.498622,0.091746 -0.151581,0.059835 -0.30715,0.1196691 -0.458731,0.1795037 -0.02393,0 -0.05186,0.00399 -0.08377,0.00798 -0.0359,0.00399 -0.06382,-0.00399 -0.07978,-0.031912 0.008,-0.2353492 0.0359,-0.4587315 0.07978,-0.6701469 0.03989,-0.2154044 0.09574,-0.4268198 0.163548,-0.6342463 L 29.207021,2.037104 c -0.06781,0.2193934 -0.131636,0.4347977 -0.195459,0.6502021 -0.06781,0.2193934 -0.107702,0.4427757 -0.127647,0.6781249 0,0.079779 0.004,0.1475919 0.008,0.2154044 0.004,0.063824 0.03191,0.127647 0.0718,0.1914706 l 0.02393,0.011967 c 0.0718,0.00798 0.135625,0.00399 0.203438,-0.00399 0.06382,-0.011967 0.123658,-0.023934 0.183492,-0.031912 v -0.027923 c 0.103713,-0.035901 0.211416,-0.079779 0.315129,-0.1236581 0.103713,-0.047868 0.211415,-0.087757 0.319117,-0.1156801 l 0.179504,0.031912 0.01197,0.063823 c 0,0.139614 -0.02393,0.27125 -0.07579,0.3949081 -0.04787,0.131636 -0.11967,0.2433271 -0.203438,0.3470404 z m -0.343051,-2.4332717 0.163547,-0.011967 c 0.01197,-0.043879 0.008,-0.083768 -0.008,-0.1156802 -0.01994,-0.035901 -0.04388,-0.071801 -0.0718,-0.1077022 -0.04388,-0.03989 -0.08377,-0.071801 -0.135625,-0.095735 -0.05186,-0.019945 -0.103713,-0.051857 -0.151581,-0.091746 h -0.02393 c 0.05186,0.047868 0.09574,0.095735 0.143603,0.1436029 0.04388,0.043879 0.07978,0.099724 0.103713,0.1635477 l -0.0359,0.1037133 z"
         id="path308" />
      <path
         d="m 33.311664,3.9398427 0.06382,-0.047868 c 0,-0.2313603 0.0359,-0.4427757 0.119669,-0.6422242 0.07978,-0.1994485 0.15557,-0.402886 0.239339,-0.6023345 0,-0.087757 0,-0.1874816 0,-0.2872058 0,-0.095735 -0.02393,-0.1834927 -0.07579,-0.2513051 -0.0718,-0.03989 -0.147592,-0.063824 -0.23136,-0.067813 -0.08377,-0.00399 -0.175515,-0.00798 -0.263272,-0.00798 -0.01197,-0.071801 -0.01197,-0.1436029 -0.008,-0.2273713 0.004,-0.079779 -0.01197,-0.1436029 -0.05186,-0.1914705 l -0.119669,0.059835 c -0.04388,0.071802 -0.0718,0.1475919 -0.08776,0.2313603 -0.01994,0.083768 -0.04388,0.1675367 -0.06382,0.2473161 -0.08377,0.03989 -0.159558,0.083768 -0.239338,0.1276471 -0.07978,0.043879 -0.159559,0.087757 -0.239338,0.127647 l -0.05983,0.059835 h -0.04787 l -0.163548,0.1515808 v 0.027923 h 0.179504 l 0.03191,0.059835 c 0.07978,-0.019945 0.151581,-0.051857 0.219394,-0.095735 0.06382,-0.043879 0.131636,-0.083768 0.199448,-0.1156801 h 0.03191 l -0.05983,0.4547425 c 0,0.055846 0.004,0.1156802 0.008,0.1675368 0.004,0.055846 0.01596,0.1116911 0.0359,0.1635478 l 0.08776,0.03989 c 0.01994,-0.1595589 0.04388,-0.3231066 0.0718,-0.4906434 0.02393,-0.1635477 0.04388,-0.3231065 0.06382,-0.4826653 l 0.107703,-0.047868 h 0.02792 l -0.02792,0.6182904 c 0,0.127647 -0.004,0.2552941 -0.008,0.3789521 -0.004,0.1276471 0.02393,0.2393382 0.09574,0.3390625 v 0.059835 h -0.03191 l 0.03191,0.079779 0.03191,0.00798 0.04388,0.1077022 z m 0,-0.4826654 -0.01197,0.015956 -0.05983,-0.015956 -0.05983,-0.255294 V 2.2445304 l 0.131636,-0.047868 0.07978,0.015956 c 0.0359,0.071801 0.05983,0.1475919 0.0718,0.2353492 0.01197,0.083768 0.01994,0.1715257 0.03191,0.2592831 -0.01197,0.127647 -0.03191,0.255294 -0.06781,0.3829411 -0.03191,0.127647 -0.0718,0.2473161 -0.11568,0.3669852 z m 2.09022,-0.8376837 0.05585,-0.043879 v -0.047868 h 0.03191 v 0.031912 l -0.01596,-0.1037132 h -0.01596 v -0.047868 h -0.03191 v -0.059835 h -0.02393 v 0.031912 l -0.01596,-0.071801 h -0.03191 V 2.2764422 L 35.158557,2.0969385 c -0.08776,-0.051857 -0.179504,-0.1037132 -0.275239,-0.1436029 -0.09972,-0.043879 -0.19546,-0.087757 -0.291195,-0.131636 l 0.522555,0.5265441 v 0.063824 l -0.167537,0.131636 v 0.015956 l 0.04787,-0.015956 c 0.08377,0 0.151581,0.015956 0.219393,0.043879 0.06382,0.031912 0.135625,0.051857 0.219394,0.063823 z m -2.341525,-0.5225551 -0.01596,0.015956 -0.01197,-0.015956 0.01197,-0.1954595 h 0.03191 z"
         id="path310" />
      <path
         d="m 37.898971,4.3267728 0.008,-0.023934 0.07978,-0.023934 h 0.03989 v 0.023934 l 0.359008,-0.2832169 0.103713,-0.2353492 c 0,-0.047868 0,-0.099724 0,-0.1515809 0,-0.047868 -0.01994,-0.087757 -0.05585,-0.1196691 -0.03989,-0.051857 -0.09573,-0.091746 -0.155569,-0.1196691 -0.05585,-0.027923 -0.115681,-0.047868 -0.175515,-0.063823 -0.179504,0 -0.347041,0.031912 -0.498621,0.091746 -0.151581,0.059835 -0.307151,0.1196691 -0.458732,0.1795037 -0.02393,0 -0.05186,0.00399 -0.08377,0.00798 -0.0359,0.00399 -0.06382,-0.00399 -0.07978,-0.031912 0.008,-0.2353492 0.0359,-0.4587315 0.07978,-0.6701469 0.03989,-0.2154044 0.09574,-0.4268198 0.163547,-0.6342463 L 37.184946,2.037104 c -0.06781,0.2193934 -0.131636,0.4347977 -0.19546,0.6502021 -0.06781,0.2193934 -0.107702,0.4427757 -0.127647,0.6781249 0,0.079779 0.004,0.1475919 0.008,0.2154044 0.004,0.063824 0.03191,0.127647 0.0718,0.1914706 l 0.02393,0.011967 c 0.0718,0.00798 0.135625,0.00399 0.203438,-0.00399 0.06382,-0.011967 0.123658,-0.023934 0.183492,-0.031912 v -0.027923 c 0.103714,-0.035901 0.211416,-0.079779 0.315129,-0.1236581 0.103713,-0.047868 0.211416,-0.087757 0.319118,-0.1156801 l 0.179503,0.031912 0.01197,0.063823 c 0,0.139614 -0.02393,0.27125 -0.07579,0.3949081 -0.04787,0.131636 -0.119669,0.2433271 -0.203438,0.3470404 z M 37.55592,1.8935011 37.719468,1.8815342 c 0.01197,-0.043879 0.008,-0.083768 -0.008,-0.1156802 -0.01994,-0.035901 -0.04388,-0.071801 -0.0718,-0.1077022 -0.04388,-0.03989 -0.08377,-0.071801 -0.135625,-0.095735 -0.05186,-0.019945 -0.103713,-0.051857 -0.151581,-0.091746 h -0.02393 c 0.05186,0.047868 0.09573,0.095735 0.143603,0.1436029 0.04388,0.043879 0.07978,0.099724 0.103713,0.1635477 l -0.0359,0.1037133 z"
         id="path312" />
    </g>
  </g>
</svg>
