<?xml version="1.0" encoding="UTF-8" standalone="no"?>
<!-- Created with Inkscape (http://www.inkscape.org/) -->

<svg
   width="35.000999mm"
   height="7mm"
   viewBox="0 0 35.000998 7"
   version="1.1"
   id="svg5"
   inkscape:version="1.2.2 (b0a8486, 2022-12-01)"
   sodipodi:docname="topSignOutLOGO.svg"
   xmlns:inkscape="http://www.inkscape.org/namespaces/inkscape"
   xmlns:sodipodi="http://sodipodi.sourceforge.net/DTD/sodipodi-0.dtd"
   xmlns="http://www.w3.org/2000/svg"
   xmlns:svg="http://www.w3.org/2000/svg">
  <sodipodi:namedview
     id="namedview7"
     pagecolor="#ffffff"
     bordercolor="#000000"
     borderopacity="0.25"
     inkscape:showpageshadow="2"
     inkscape:pageopacity="0.0"
     inkscape:pagecheckerboard="0"
     inkscape:deskcolor="#d1d1d1"
     inkscape:document-units="mm"
     showgrid="false"
     inkscape:zoom="4.7488465"
     inkscape:cx="58.224666"
     inkscape:cy="18.004372"
     inkscape:window-width="1440"
     inkscape:window-height="771"
     inkscape:window-x="1080"
     inkscape:window-y="1616"
     inkscape:window-maximized="0"
     inkscape:current-layer="layer1" />
  <defs
     id="defs2">
    <rect
       x="-1.8951972"
       y="4.0009718"
       width="213.31496"
       height="77.703079"
       id="rect268" />
  </defs>
  <g
     inkscape:label="Layer 1"
     inkscape:groupmode="layer"
     id="layer1">
    <path
       style="fill:none;fill-rule:evenodd;stroke:#000000;stroke-width:0.21864px;stroke-linecap:butt;stroke-linejoin:miter;stroke-opacity:1"
       d="m 4.4186655,7.736698 v 0"
       id="path208"
       inkscape:connector-type="polyline"
       inkscape:connector-curvature="0" />
    <text
       xml:space="preserve"
       style="font-size:8.85995px;font-family:KouzanBrushFontGyousyoOTF;-inkscape-font-specification:KouzanBrushFontGyousyoOTF;fill:#000000;stroke-width:0.166124"
       x="-1.3619121"
       y="8.4681635"
       id="text214"
       transform="scale(0.67763293,1.4757252)"><tspan
         sodipodi:role="line"
         id="tspan212"
         style="stroke-width:0.166124"
         x="-1.3619121"
         y="8.4681635" /></text>
    <text
       xml:space="preserve"
       transform="scale(0.26458333)"
       id="text266"
       style="font-size:53.3333px;font-family:KouzanBrushFontGyousyoOTF;-inkscape-font-specification:KouzanBrushFontGyousyoOTF;white-space:pre;shape-inside:url(#rect268);display:inline;fill:#000000" />
    <g
       aria-label="ログアウト"
       transform="scale(0.91564529,1.092126)"
       id="text932"
       style="font-size:8.51505px;font-family:KouzanBrushFontGyousyoOTF;-inkscape-font-specification:KouzanBrushFontGyousyoOTF;stroke-width:0.159658">
      <path
         d="m 1.643834,5.1600053 c 0.3916923,0 0.7748696,-0.01703 1.1495318,-0.042575 0.3661471,-0.025545 0.7322943,-0.06812 1.1069565,-0.1277258 l 0.03406,-0.093665 0.076635,-0.025545 C 4.1131985,4.5043465 4.198349,4.1296843 4.2579544,3.737992 4.3175597,3.3462997 4.3941952,2.9716375 4.5134059,2.5969753 h 0.059605 L 4.7177671,2.3670689 5.049854,2.1627077 5.0157938,2.0179519 C 4.8540079,1.9413164 4.700737,1.8561659 4.530436,1.7795305 4.360135,1.7028951 4.2068641,1.6262596 4.0450781,1.5411091 L 3.687446,1.6432897 3.4915999,1.6092295 c -0.3916923,0 -0.7663545,0.042575 -1.1239866,0.1277257 -0.3661472,0.093666 -0.7322943,0.170301 -1.0984415,0.2469365 h -0.170301 l -0.03406,-0.059605 H 0.97966015 L 1.0052053,2.034982 v 0.093666 L 0.87747955,2.6225204 H 0.8178742 v 0.03406 h 0.0340602 v 0.085151 L 0.443212,2.5714301 H 0.3580615 v 0.05109 L 0.272911,2.5969753 0.2388508,2.6565806 0.0174595,2.5714301 v -0.03406 c 0.0681204,0.1788161 0.14475585,0.3491171 0.2213913,0.510903 0.0766355,0.161786 0.1873311,0.3235719 0.3235719,0.4768428 l 0.0596054,0.03406 c 0.0936655,0.2469365 0.17881605,0.510903 0.26396655,0.7833846 0.0766355,0.2724816 0.1958461,0.5279331 0.349117,0.7663545 z m 1.524194,-0.5279331 -0.1192107,0.03406 c -0.2554515,0 -0.510903,0 -0.7748696,0 -0.2554515,0 -0.4938729,-0.042575 -0.7237792,-0.1192107 C 1.5075932,4.2403799 1.465018,3.9508682 1.3883825,3.6698716 1.3117471,3.3888749 1.1669912,3.1078783 0.97966015,2.8524268 v -0.05109 C 1.3202621,2.5884602 1.6864093,2.3926141 2.0695865,2.213798 2.4527638,2.034982 2.8614862,1.9498315 3.2787236,1.9242863 l 0.093666,0.03406 0.025545,0.2043612 h 0.059605 l 0.059605,0.6897191 c 0,0.2895117 -0.00852,0.5875384 -0.025545,0.8685351 C 3.4660547,4.0019585 3.3894193,4.25741 3.2616935,4.4958314 l -0.093665,0.025545 z"
         id="path294" />
      <path
         d="M 9.0178511,6.3776575 9.2307273,6.3435973 9.5457842,6.0115103 9.6479648,5.951905 C 9.8182658,5.6879384 9.9459915,5.4069418 10.022627,5.1004 10.082232,4.8023732 10.158868,4.5043465 10.244018,4.1892896 L 10.354714,4.087109 10.610165,3.7890823 C 10.763436,3.5251157 10.882647,3.2696642 10.976313,2.9971826 11.061463,2.724701 11.180674,2.4692495 11.35949,2.2393432 h 0.05961 l 0.144756,-0.3235719 h 0.0596 L 12.040694,1.5325941 V 1.3878382 c -0.110696,-0.03406 -0.221391,-0.05109 -0.323572,-0.059605 -0.119211,0 -0.221391,-0.03406 -0.298027,-0.093666 l -0.391692,0.059605 -0.110696,0.1617859 -0.07664,0.05109 -0.280997,0.05109 c -0.0596,0 -0.110696,-0.00852 -0.161786,-0.01703 -0.04258,-0.00851 -0.08515,-0.025545 -0.127726,-0.059605 h -0.02554 l 0.178816,0.2980267 0.187331,0.1362408 0.102181,-0.059605 h 0.07663 C 10.61868,2.6395505 10.371744,3.4144201 10.056687,4.1722595 9.7501454,4.9471291 9.4010283,5.6709083 9.0178511,6.3435973 Z m 0.6471438,-0.4938729 -0.01703,0.01703 -0.025545,-0.01703 0.025545,-0.093666 h 0.05109 z M 8.9667608,2.724701 9.3839982,2.5629151 9.8267808,2.1031024 9.9630216,1.8561659 9.9374765,1.6518048 9.3584531,1.2601125 h -0.025545 v 0.03406 l -0.076635,0.03406 0.03406,0.1532709 C 9.2477574,1.6773499 9.1881521,1.873196 9.1030016,2.043497 9.009336,2.2308281 8.9327006,2.4096442 8.8475501,2.5884602 v 0.059605 h 0.025545 v 0.025545 h 0.093666 z m 3.6359262,-0.9451705 0.289512,-0.08515 0.02555,-0.076635 -0.05109,-0.3576321 C 12.781503,1.1664469 12.679323,1.0898115 12.568627,1.013176 12.457931,0.94505561 12.347236,0.88545026 12.245055,0.83435996 h -0.08515 c 0.05961,0.1362408 0.110696,0.28099664 0.161786,0.42575254 0.05109,0.1447558 0.110696,0.2980267 0.187332,0.4342675 l 0.09366,0.025545 z m 0.604569,-0.5449632 0.255451,-0.076635 c 0.02554,-0.059605 0.01703,-0.1192107 -0.0085,-0.17881609 -0.02555,-0.0425753 -0.05961,-0.0851505 -0.09367,-0.1192107 l -0.672689,-0.340602 h -0.05961 l 0.05961,0.19584615 0.07664,0.0255452 0.102181,0.22990635 z"
         id="path296" />
      <path
         d="M 18.137453,6.2499317 C 18.443995,5.8582394 18.707962,5.441002 18.946383,5.0152495 19.19332,4.589497 19.363621,4.1381993 19.491346,3.6613565 L 19.431741,2.6140054 C 19.32956,2.5373699 19.218865,2.4862796 19.082624,2.4777646 c -0.136241,-0.00852 -0.229906,-0.06812 -0.306542,-0.161786 h -0.09366 l -0.06812,0.3916923 h -0.07663 l 0.110695,0.2043612 h 0.05961 l 0.06812,0.2043612 c -0.02554,0.5619933 -0.07663,1.1069565 -0.170301,1.6348896 -0.08515,0.5194181 -0.246936,1.021806 -0.468328,1.4986488 z m 1.532709,-3.073933 0.84299,-0.2299064 C 20.726029,2.8183666 20.91336,2.6650957 21.0496,2.4692495 21.194356,2.2819184 21.339112,2.0860723 21.475353,1.8987412 L 21.986256,1.685865 21.918136,1.5070489 C 21.781895,1.4048683 21.637139,1.3367479 21.475353,1.3026877 21.313567,1.2601125 21.160296,1.2005071 21.024055,1.1153566 l -0.03406,0.03406 -0.09367,-0.03406 -0.349118,0.03406 -0.221391,-0.03406 c -0.357632,-0.025545 -0.698234,-0.01703 -1.038836,0.025545 -0.340602,0.042575 -0.681204,0.1106956 -1.004776,0.1873311 l -0.80893,-0.1192107 -0.238421,0.059605 -0.09367,-0.025545 -0.289511,0.1447558 v 0.059605 c 0.110695,0.042575 0.229906,0.093665 0.349117,0.1532709 0.127726,0.059605 0.238421,0.1277257 0.332087,0.2043611 0.442782,0.042575 0.86002,0.00852 1.251712,-0.1192106 0.391692,-0.1192107 0.7919,-0.1958462 1.175077,-0.2384214 h 0.315057 c -0.04257,0.3235718 -0.110696,0.6215986 -0.212876,0.9196253 -0.102181,0.2895117 -0.229907,0.5534783 -0.391693,0.8089298 z"
         id="path298" />
      <path
         d="m 27.614688,6.130721 0.144756,-0.1958461 c 0.110695,-0.1192107 0.238421,-0.2043612 0.357632,-0.2554515 0.127725,-0.05109 0.246936,-0.1021806 0.366147,-0.1788161 0.340602,-0.510903 0.621598,-1.0473511 0.80893,-1.6348896 0.195846,-0.5790234 0.434267,-1.1239866 0.723779,-1.6519197 l 0.11921,0.025545 0.144756,-0.025545 -0.03406,-0.178816 C 30.118112,1.9072562 29.973357,1.8135907 29.820086,1.7625004 29.6583,1.7199251 29.513544,1.6603198 29.351758,1.5751693 h -0.02555 v 0.03406 L 28.91749,1.5496242 28.193711,1.5751693 H 27.870139 V 1.515564 l 0.09367,-0.08515 c 0,-0.076636 -0.0085,-0.1447559 -0.01703,-0.2043612 -0.0085,-0.059605 -0.03406,-0.1192107 -0.07664,-0.1788161 C 27.716868,0.94505561 27.555082,0.84287501 27.384781,0.75772451 27.205965,0.68108906 27.027149,0.61296866 26.831303,0.56187836 h -0.127726 l 0.442783,0.4087224 c 0.07663,0.0851505 0.153271,0.18733114 0.221391,0.28099664 0.05961,0.093666 0.102181,0.2043612 0.127726,0.3235719 l 0.08515,-0.025545 h 0.0596 v 0.059605 L 27.1123,1.69438 26.890908,1.6688349 26.686547,1.69438 v 0.076635 c 0.05109,0.059605 0.102181,0.1362408 0.144756,0.2299064 0.04258,0.085151 0.102181,0.1447558 0.178816,0.178816 0.246937,-0.1106956 0.502388,-0.1873311 0.77487,-0.2384214 0.280996,-0.05109 0.544963,-0.085151 0.808929,-0.1021806 h 0.263967 l 0.09367,0.2639666 C 28.926005,2.724701 28.84937,3.3122395 28.721644,3.8657177 28.576888,4.4362261 28.372527,4.9726742 28.083015,5.5006073 l -0.11921,0.1021806 z M 26.167129,3.3462997 C 26.260795,3.3037244 26.294855,3.227089 26.277825,3.1078783 26.260795,2.9971826 26.26931,2.886487 26.30337,2.7928214 L 26.25228,2.3670689 26.388521,1.8987412 v -0.03406 l -0.221392,0.1532709 c -0.10218,0 -0.187331,-0.01703 -0.263966,-0.059605 -0.07664,-0.042575 -0.161786,-0.076635 -0.238422,-0.1192107 l 0.09367,0.1447559 -0.05961,0.1958461 v 0.03406 h 0.02555 l -0.08515,0.3150569 0.204361,0.5023879 z"
         id="path300" />
      <path
         d="m 36.087146,6.2414167 h 0.06812 c -0.02555,-0.3916923 -0.05109,-0.7918997 -0.07664,-1.2006221 -0.03406,-0.4002073 -0.05961,-0.8004147 -0.08515,-1.192107 -0.02555,-0.1958461 -0.02555,-0.3916923 0,-0.5619933 0.02554,-0.178816 0.05109,-0.349117 0.09366,-0.5279331 h 0.102181 l 0.82596,0.7663545 v 0.059605 l -0.05109,0.03406 0.894081,0.5279331 h 0.323571 l 0.03406,-0.1192107 V 3.908293 h -0.06812 L 37.475099,3.056788 36.342598,2.5203398 36.257447,1.3963533 36.282992,1.013176 c 0.01703,-0.11069564 0.0085,-0.22990634 -0.0085,-0.34060199 -0.03406,-0.1021806 -0.0596,-0.21287625 -0.08515,-0.340602 -0.06812,-0.0425753 -0.144756,-0.0596054 -0.229907,-0.0596054 -0.08515,0 -0.170301,0 -0.255451,0 L 35.601788,0.16167101 v 0.11069565 h -0.05109 l -0.102181,-0.2043612 h -0.06812 l -0.02555,0.09366555 c 0.0596,0.31505685 0.153271,0.62159865 0.272481,0.91111039 0.119211,0.2895117 0.170301,0.6045685 0.144756,0.9536855 v 0.2299064 h -0.06812 v 0.03406 h -0.03406 c 0.04258,0.042575 0.07664,0.085151 0.08515,0.1277257 0.0085,0.05109 0.02554,0.1021806 0.05109,0.161786 l -0.06812,0.5619933 0.06812,0.7067491 -0.06812,1.013291 0.03406,0.1362408 c 0,0.1277257 0.0085,0.2299063 0.01703,0.340602 0.0085,0.1106956 -0.01703,0.2213913 -0.08515,0.3065418 0,0.1277257 0.04257,0.2299063 0.136241,0.3150568 0.08515,0.093666 0.161786,0.170301 0.246936,0.2469365 z"
         id="path302" />
    </g>
  </g>
</svg>
