<?xml version="1.0" encoding="UTF-8" standalone="no"?>
<!-- Created with Inkscape (http://www.inkscape.org/) -->

<svg
   width="20mm"
   height="7mm"
   viewBox="0 0 20 7"
   version="1.1"
   id="svg5"
   inkscape:version="1.2.2 (b0a8486, 2022-12-01)"
   sodipodi:docname="topTopLOGO.svg"
   xmlns:inkscape="http://www.inkscape.org/namespaces/inkscape"
   xmlns:sodipodi="http://sodipodi.sourceforge.net/DTD/sodipodi-0.dtd"
   xmlns="http://www.w3.org/2000/svg"
   xmlns:svg="http://www.w3.org/2000/svg">
  <sodipodi:namedview
     id="namedview7"
     pagecolor="#ffffff"
     bordercolor="#000000"
     borderopacity="0.25"
     inkscape:showpageshadow="2"
     inkscape:pageopacity="0.0"
     inkscape:pagecheckerboard="0"
     inkscape:deskcolor="#d1d1d1"
     inkscape:document-units="mm"
     showgrid="false"
     inkscape:zoom="3.0467509"
     inkscape:cx="37.745127"
     inkscape:cy="12.964631"
     inkscape:window-width="1440"
     inkscape:window-height="771"
     inkscape:window-x="1080"
     inkscape:window-y="1616"
     inkscape:window-maximized="0"
     inkscape:current-layer="layer1" />
  <defs
     id="defs2">
    <rect
       x="-1.8951972"
       y="4.0009718"
       width="213.31496"
       height="77.703079"
       id="rect268" />
  </defs>
  <g
     inkscape:label="Layer 1"
     inkscape:groupmode="layer"
     id="layer1">
    <text
       xml:space="preserve"
       style="font-size:8.85995px;font-family:KouzanBrushFontGyousyoOTF;-inkscape-font-specification:KouzanBrushFontGyousyoOTF;fill:#000000;stroke-width:0.166124"
       x="-1.3619121"
       y="8.4681635"
       id="text214"
       transform="scale(0.67763293,1.4757252)"><tspan
         sodipodi:role="line"
         id="tspan212"
         style="stroke-width:0.166124"
         x="-1.3619121"
         y="8.4681635" /></text>
    <text
       xml:space="preserve"
       transform="scale(0.26458333)"
       id="text266"
       style="font-size:53.3333px;font-family:KouzanBrushFontGyousyoOTF;-inkscape-font-specification:KouzanBrushFontGyousyoOTF;white-space:pre;shape-inside:url(#rect268);display:inline;fill:#000000" />
    <g
       id="g198">
      <g
         id="g189">
        <path
           style="color:#000000;fill:#000000;fill-rule:evenodd;-inkscape-stroke:none"
           d="m 4.4179687,7.6269531 v 0.21875 z"
           id="path913" />
        <g
           id="g127">
          <g
             id="g121">
            <g
               aria-label="TOP
"
               transform="scale(1.3560253,0.73744937)"
               id="text932"
               style="font-size:10.5383px;font-family:KouzanBrushFontGyousyoOTF;-inkscape-font-specification:KouzanBrushFontGyousyoOTF;stroke-width:0.197593">
              <path
                 d="M 2.0068983,8.4488879 2.1544345,8.417273 2.2282026,8.2486603 V 6.0672322 l 0.021077,-0.021077 -0.021077,-0.2950723 0.021077,-0.5901448 c 0,-0.2213043 0,-0.4320703 0,-0.6533746 0,-0.210766 -0.010538,-0.4109937 -0.042153,-0.5901448 l 0.042153,-1.4859002 0.4636852,-0.031615 0.073768,0.031615 0.1475362,-0.031615 0.2213043,0.031615 0.6639129,-0.105383 0.1686128,-0.210766 c 0,-0.073768 0,-0.1475362 0,-0.2423809 0,-0.084306 -0.021077,-0.1369979 -0.052691,-0.1791511 L 3.6719497,1.4619953 3.5876433,1.5146868 3.4611837,1.4619953 3.4401071,1.5146868 3.0712666,1.4619953 C 2.8921155,1.5357634 2.7129644,1.5884549 2.5443516,1.6200698 2.3546622,1.6516847 2.1755111,1.6727613 1.9858217,1.6938379 H 1.0373748 l -0.031615,0.031615 -0.66391289,-0.1159213 -0.14753619,0.084306 -0.0316149,0.094845 c 0,0.1475362 0,0.2950724 0,0.421532 0,0.1475362 0.0210766,0.2739958 0.0526915,0.3899171 L 0.38400021,2.6633615 1.395677,2.399904 h 0.052691 l 0.094845,0.6849895 0.052691,0.042153 c 0.094845,0.3266873 0.1475362,0.6639128 0.1580745,1.022215 0,0.3583022 0.010538,0.7166044 0.031615,1.0749066 l -0.031615,0.316149 v 1.970662 l -0.010538,0.021077 c 0.010538,0.1791511 0.031615,0.3372256 0.073768,0.4636852 0.052691,0.1475362 0.1159212,0.2950724 0.1896893,0.4215319 z"
                 id="path910" />
              <path
                 d="M 7.307643,8.0695092 C 7.4867941,8.0589709 7.6659452,8.027356 7.8450963,7.9535879 8.0137091,7.8798198 8.1717836,7.7849751 8.3193198,7.6479772 l 0.021077,-0.105383 0.073768,-0.042153 c 0.073768,-0.06323 0.1159212,-0.1369979 0.1264595,-0.210766 0.010538,-0.06323 0.031615,-0.1475362 0.06323,-0.2423809 l 0.073768,-0.042153 C 8.75139,6.7838366 8.8040815,6.551994 8.8356964,6.2885365 8.856773,6.0356173 8.8989262,5.7721599 8.9410794,5.5192407 8.9410794,5.0555555 8.8883879,4.6129469 8.7830049,4.2124915 8.6670836,3.8120361 8.5933155,3.3799659 8.5617006,2.9162807 H 8.5195474 L 8.4668559,2.5685168 8.3825496,2.5369019 8.2033985,2.1575231 8.1296304,2.0732167 V 2.0205252 L 8.0137091,1.978372 V 1.9046039 C 7.8977878,1.8624507 7.7607899,1.8308358 7.623792,1.8097592 7.4973324,1.7992209 7.3603345,1.7570677 7.2444132,1.7043762 7.0652621,1.662223 6.8966493,1.6938379 6.7385748,1.7781443 6.5910386,1.872989 6.4540407,1.9994486 6.3381194,2.1575231 6.0852002,2.5263636 5.9060492,2.926819 5.8006662,3.3694276 5.6952832,3.8120361 5.6425917,4.2757213 5.6320534,4.7604831 c 0,0.4426086 0.021077,0.8641406 0.052691,1.2856725 0.031615,0.421532 0.1475362,0.7798342 0.3583021,1.0959832 0.1686128,0.2739958 0.3583022,0.4742235 0.5901448,0.6112214 0.2213043,0.1264596 0.4531469,0.2423809 0.6744512,0.316149 z m 0.2950724,-0.948447 -0.094845,0.073768 c -0.094845,0 -0.1896894,0 -0.2845341,0 -0.094845,0 -0.1686128,-0.052691 -0.2529192,-0.1475362 C 6.8018046,6.8892196 6.6858833,6.6889919 6.6226535,6.4571493 6.5488854,6.2147684 6.5172705,5.9829258 6.5172705,5.7194684 c 0,-0.4636852 0.042153,-0.9062938 0.1159213,-1.3383641 0.06323,-0.421532 0.1791511,-0.8325256 0.3372256,-1.232981 l 0.105383,-0.052691 v -0.073768 l 0.2318426,-0.105383 0.2002277,0.105383 c 0.210766,0.3583022 0.3793788,0.7587575 0.5058384,1.1908278 0.1264596,0.4426086 0.2002277,0.8852172 0.2318426,1.3383641 l -0.042153,0.811449 -0.2423809,0.3793788 v 0.06323 h -0.073768 z"
                 id="path907" />
              <path
                 d="m 11.449178,8.4910411 0.12646,-0.021077 c 0.07377,-0.5901447 0.126459,-1.1908278 0.179151,-1.7915109 0.05269,-0.5796065 0.09484,-1.1802895 0.136997,-1.7915109 l 0.495301,0.210766 c 0.273995,0 0.516376,-0.052691 0.737681,-0.1580745 0.210766,-0.094845 0.442608,-0.1896894 0.674451,-0.3056107 0.221304,-0.2318426 0.379379,-0.4742235 0.474223,-0.737681 0.09485,-0.2634575 0.168613,-0.5374532 0.221304,-0.8430639 0.03162,-0.1896894 0.03162,-0.3899171 0,-0.5796065 C 14.463132,2.2839827 14.368287,2.1364465 14.210212,1.9994486 13.999446,1.8624507 13.78868,1.7465294 13.577914,1.662223 13.35661,1.5673783 13.124768,1.4936102 12.86131,1.4409187 c -0.210766,0 -0.421532,0.021077 -0.611221,0.073768 -0.210766,0.052691 -0.389917,0.1264596 -0.569068,0.2213043 L 11.280565,1.5252251 11.038184,1.55684 v 0.084306 l -0.189689,0.021077 c -0.07377,0.021077 -0.105383,0.06323 -0.105383,0.1159213 0,0.073768 -0.04215,0.105383 -0.115921,0.105383 l 0.01054,0.210766 -0.01054,0.210766 v 0.031615 l 0.158074,0.052691 c 0.168613,0.1896894 0.284534,0.3793788 0.326687,0.5901448 0.05269,0.210766 0.08431,0.4320703 0.08431,0.6428362 v 2.0760451 c -0.02108,0.3688404 -0.05269,0.706066 -0.09484,1.0327533 -0.04215,0.3372256 -0.105383,0.6744512 -0.179151,1.0011385 -0.02108,0.1159213 -0.01054,0.2002277 0.04215,0.2739958 0.05269,0.084306 0.09484,0.1791511 0.115921,0.2739958 z m 1.506977,-4.4260858 -0.09485,0.06323 H 12.650544 L 11.944478,3.5696553 c -0.03162,-0.2318426 -0.03162,-0.4426086 0.01054,-0.6112214 0.05269,-0.1791511 0.136998,-0.3477639 0.273996,-0.4953001 l 0.421532,-0.2318426 c 0.115921,0 0.221304,0 0.326687,0.010538 0.105383,0.010538 0.200228,0.052691 0.273996,0.1159213 0.07377,0.073768 0.136998,0.1580745 0.179151,0.2529192 0.03162,0.094845 0.06323,0.2002277 0.08431,0.2950724 l -0.06323,0.6849894 c -0.07377,0.094845 -0.136998,0.1791511 -0.200228,0.2739958 -0.07377,0.084306 -0.179151,0.1580745 -0.295072,0.2002277 z"
                 id="path904" />
            </g>
          </g>
        </g>
      </g>
    </g>
  </g>
</svg>
