<?xml version="1.0" encoding="UTF-8" standalone="no"?>
<!-- Created with Inkscape (http://www.inkscape.org/) -->

<svg
   width="350mm"
   height="25mm"
   viewBox="0 0 350 25"
   version="1.1"
   id="svg5"
   inkscape:version="1.2.2 (b0a8486, 2022-12-01)"
   sodipodi:docname="topToIndexLOGO.svg"
   xmlns:inkscape="http://www.inkscape.org/namespaces/inkscape"
   xmlns:sodipodi="http://sodipodi.sourceforge.net/DTD/sodipodi-0.dtd"
   xmlns="http://www.w3.org/2000/svg"
   xmlns:svg="http://www.w3.org/2000/svg">
  <sodipodi:namedview
     id="namedview7"
     pagecolor="#ffffff"
     bordercolor="#000000"
     borderopacity="0.25"
     inkscape:showpageshadow="2"
     inkscape:pageopacity="0.0"
     inkscape:pagecheckerboard="0"
     inkscape:deskcolor="#d1d1d1"
     inkscape:document-units="mm"
     showgrid="false"
     inkscape:zoom="0.39494402"
     inkscape:cx="512.73089"
     inkscape:cy="196.23034"
     inkscape:window-width="1440"
     inkscape:window-height="771"
     inkscape:window-x="1080"
     inkscape:window-y="1616"
     inkscape:window-maximized="0"
     inkscape:current-layer="layer1" />
  <defs
     id="defs2">
    <rect
       x="-1.8951972"
       y="4.0009718"
       width="213.31496"
       height="77.703079"
       id="rect268" />
  </defs>
  <g
     inkscape:label="Layer 1"
     inkscape:groupmode="layer"
     id="layer1">
    <path
       style="fill:none;fill-rule:evenodd;stroke:#000000;stroke-width:0.21864px;stroke-linecap:butt;stroke-linejoin:miter;stroke-opacity:1"
       d="m 4.4186655,7.736698 v 0"
       id="path208"
       inkscape:connector-type="polyline"
       inkscape:connector-curvature="0" />
    <text
       xml:space="preserve"
       style="font-size:8.85995px;font-family:KouzanBrushFontGyousyoOTF;-inkscape-font-specification:KouzanBrushFontGyousyoOTF;fill:#000000;stroke-width:0.166124"
       x="-1.3619121"
       y="8.4681635"
       id="text214"
       transform="scale(0.67763293,1.4757252)"><tspan
         sodipodi:role="line"
         id="tspan212"
         style="stroke-width:0.166124"
         x="-1.3619121"
         y="8.4681635" /></text>
    <text
       xml:space="preserve"
       transform="scale(0.26458333)"
       id="text266"
       style="font-size:53.3333px;font-family:KouzanBrushFontGyousyoOTF;-inkscape-font-specification:KouzanBrushFontGyousyoOTF;white-space:pre;shape-inside:url(#rect268);display:inline;fill:#000000" />
    <g
       aria-label="お裾分け一覧はこちらから＞"
       transform="scale(0.94806535,1.0547796)"
       id="text932"
       style="font-size:29.0453px;font-family:KouzanBrushFontGyousyoOTF;-inkscape-font-specification:KouzanBrushFontGyousyoOTF;stroke-width:0.54459">
      <path
         d="M 3.2318122,22.984181 3.9288994,22.868 c 0.4066342,-0.319499 0.7261324,-0.638997 0.9875401,-1.045631 0.2033171,-0.406634 0.4066342,-0.784223 0.6099513,-1.219903 1.0456308,-0.813268 2.1783975,-1.510355 3.3692548,-2.033171 1.1908574,-0.522815 2.4398054,-0.900404 3.7758894,-1.103721 0.726132,-0.05809 1.423219,-0.02904 2.120306,0.05809 0.726133,0.116181 1.307039,0.406634 1.8589,0.900404 l -0.203318,0.406634 -2.701212,-0.609951 0.842313,0.609951 -0.116181,0.319498 v 0.08714 l 0.406634,0.116181 0.580906,1.045631 1.074676,0.638997 c 0.43568,0.05809 0.784223,0 1.161812,-0.145227 0.377589,-0.145226 0.697088,-0.261407 1.045631,-0.377589 l 0.406634,-0.958495 C 19.0615,19.063065 18.974365,18.656431 18.858183,18.278842 18.712957,17.901253 18.480594,17.523665 18.161096,17.175121 17.696371,16.62326 17.144511,16.274717 16.534559,16.0714 c -0.668042,-0.174272 -1.307038,-0.290453 -1.946035,-0.348544 -1.510355,0 -2.96262,0.203317 -4.327749,0.551861 -1.3651294,0.377589 -2.6721679,0.929449 -3.9501611,1.597491 H 6.1363421 l 0.580906,-4.037297 V 9.2457542 L 6.6301122,9.129573 V 8.2001234 L 7.7047883,7.3578097 8.1114225,6.4574054 H 8.3437849 V 6.225043 H 8.5180567 L 8.5761473,5.9926806 V 5.9055447 H 8.3437849 V 5.5570011 h 0.1742718 v -0.058091 l -0.4066342,0.290453 v 0.1161812 h -0.087136 v 0.087136 H 7.8209695 V 5.9055447 L 6.7172481,6.5735866 h -0.290453 v 0.058091 H 6.1944327 C 6.0782515,5.8764994 5.9620703,5.1213216 5.8458891,4.2790079 5.7006626,3.4947849 5.4973455,2.7396071 5.2359378,2.0134746 H 5.1197566 L 5.8168438,5.9055447 5.7587532,7.0383114 3.5513105,7.967761 C 2.9413592,8.0548969 2.4475891,7.9968063 1.9828643,7.8225345 1.4890942,7.677308 1.0534147,7.4739909 0.58868991,7.2706738 V 7.1544926 l 0.2614077,0.2033171 0.1161812,0.3485436 C 1.3438677,7.8806251 1.7795472,8.1129875 2.2152267,8.4034405 2.6218609,8.6938935 3.0865857,8.8972106 3.5513105,9.0133918 L 5.7587532,8.7229388 V 8.5196217 h 0.2614077 l 0.1161812,1.6846273 c 0.029045,1.452265 0.029045,2.90453 -0.1161812,4.298704 -0.1452265,1.42322 -0.4356795,2.759304 -0.9004043,4.008252 L 3.5513105,19.353518 V 19.4697 H 3.1737216 l 0.058091,0.406634 C 3.115631,20.224877 3.0284951,20.573421 2.9704045,20.921965 2.8832686,21.241463 2.7380421,21.560961 2.534725,21.822369 l 0.3194983,0.319498 0.087136,0.609951 L 3.3479934,22.868 Z M 16.854058,5.5570011 h 0.609951 V 5.3827293 c 0.174272,0 0.377589,0.029045 0.580906,0.058091 0.203317,0.029045 0.319498,-0.058091 0.377589,-0.2323624 L 18.742002,5.0922763 19.148636,4.4242344 19.032455,4.1628267 C 18.771047,3.7852379 18.480594,3.5238302 18.161096,3.3495584 17.812553,3.1752866 17.434964,3.0010148 17.057375,2.8848336 c -0.49377,0 -0.958495,0.058091 -1.394175,0.1452265 -0.49377,0.1161812 -0.958495,0.2323624 -1.394174,0.3485436 l 0.203317,0.4647247 c 0.377589,0.2614077 0.784223,0.4937701 1.190857,0.6970872 0.377589,0.2033171 0.784223,0.4647248 1.190858,0.7842231 z"
         id="path294" />
      <path
         d="m 41.745824,21.967595 0.580906,-0.116181 -0.638997,-1.103721 h -0.145226 l -0.174272,-1.655582 -0.435679,0.813268 h -0.145227 v -0.02904 l -1.597491,-1.539401 -0.319499,-0.261408 h -0.05809 c 0.145226,0.551861 0.406634,1.074676 0.726132,1.626537 0.319499,0.522815 0.609952,1.045631 0.92945,1.568446 0.203317,0.08714 0.435679,0.203317 0.638996,0.377589 0.174272,0.174272 0.377589,0.290453 0.638997,0.319498 z m 2.033171,-0.261407 0.05809,-0.05809 0.08714,0.05809 c 0.377588,-0.08714 0.755177,-0.203317 1.103721,-0.348544 0.377589,-0.145226 0.726132,-0.319498 1.074676,-0.522815 l 0.232362,-0.784223 h 0.145227 v -0.145227 h 0.116181 l 0.08714,-0.232362 h 0.116181 l 0.406634,-0.464725 0.49377,-1.074676 0.203318,-0.145227 0.755177,-1.336083 c 0,-0.174272 0,-0.319499 -0.02905,-0.43568 -0.02904,-0.116181 -0.08714,-0.232362 -0.145226,-0.377589 L 47.961518,15.63572 v -0.116181 l -1.103721,-0.348544 -0.261408,0.05809 -0.377589,-0.05809 -1.074676,0.203317 -1.539401,-0.377589 -0.784223,0.377589 h -0.116181 c 0.08714,-0.203317 0.203317,-0.406634 0.348544,-0.609951 0.145226,-0.203317 0.261407,-0.406634 0.290453,-0.609951 l 0.203317,-0.05809 0.174271,-0.49377 0.406635,-0.464725 c 0.435679,-0.203317 0.842313,-0.348543 1.336083,-0.435679 0.49377,-0.05809 0.92945,-0.08714 1.394175,-0.174272 0.464725,-0.05809 0.929449,-0.05809 1.365129,0 0.406634,0.08714 0.813268,0.145227 1.219902,0.290453 0.203318,0.02904 0.348544,0 0.493771,-0.08714 0.145226,-0.08714 0.290452,-0.116181 0.464724,-0.145226 v -0.203317 l -0.261407,-0.05809 v -0.145227 c -0.319499,-0.319498 -0.638997,-0.464724 -1.074676,-0.49377 -0.43568,-0.02904 -0.842314,-0.08714 -1.248948,-0.232362 l -0.261408,-0.232362 -0.697087,-0.116182 -1.277993,0.319499 v 0.02904 l 0.522815,0.203317 v 0.145227 l -1.597492,0.377588 h -0.319498 l -0.203317,-0.813268 -0.49377,-0.580906 c -0.174272,-0.145226 -0.377589,-0.203317 -0.609951,-0.203317 -0.261408,0 -0.464725,-0.05809 -0.668042,-0.145227 l -0.406634,0.08714 v 0.174272 l 0.261407,0.203317 0.261408,0.464725 v 1.452265 l -2.875485,0.900404 h -0.261407 c 0.319498,-0.697087 0.55186,-1.365129 0.755177,-2.091261 0.174272,-0.697087 0.43568,-1.365129 0.784224,-2.0041259 l 0.261407,0.1452265 h 0.116181 l 0.174272,0.6099514 c 0.580906,-0.174272 1.132767,-0.348544 1.655582,-0.5518608 0.551861,-0.2033171 1.045631,-0.4647248 1.568446,-0.7842231 V 8.9262559 h 0.203318 l 0.174271,-0.5228154 0.377589,-0.2033171 0.05809,-0.3775889 h 0.145226 C 45.666939,7.5901721 45.870257,7.2997191 46.044528,7.0092661 46.189755,6.7478584 46.334981,6.4864507 46.422117,6.1669524 L 46.683525,5.9636353 47.14825,5.1503669 47.322522,5.0922763 V 4.9470498 h 0.116181 V 4.8308686 h -0.05809 V 4.5113703 l -0.319498,-0.1452265 -0.05809,-0.2033171 -1.742718,-0.49377 c -0.98754,0.087136 -1.887944,0.2904529 -2.788348,0.5228153 -0.871359,0.290453 -1.742718,0.5228154 -2.643123,0.6970872 0.232363,0.1742718 0.464725,0.290453 0.784223,0.3485436 0.290453,0.087136 0.580906,0.1452265 0.871359,0.2033171 l 0.842314,-0.058091 0.08714,-0.1742718 c 0.261408,-0.029045 0.522815,-0.1452265 0.784223,-0.3485436 0.232362,-0.2033171 0.49377,-0.3485436 0.784223,-0.4356795 h 0.319498 c -0.02905,0.6680419 -0.145226,1.2489479 -0.290453,1.8298539 -0.145226,0.580906 -0.377588,1.1327667 -0.726132,1.6265368 -0.203317,0.2614077 -0.43568,0.4647248 -0.697087,0.6099513 -0.232363,0.1452265 -0.522816,0.2614077 -0.842314,0.3194983 H 40.84542 V 7.7063533 L 40.525921,7.386855 39.91597,7.4449456 v 0.087136 l -0.784223,0.058091 0.05809,0.4356795 0.203317,0.058091 c -0.08714,1.0165855 -0.232363,2.0331708 -0.43568,3.0207108 -0.174272,0.987541 -0.435679,1.91699 -0.784223,2.84644 l -0.406634,0.08714 v 0.05809 h 0.145226 V 14.2125 h 0.116182 c -0.261408,0.900405 -0.522816,1.800809 -0.900405,2.614077 -0.377588,0.813269 -0.813268,1.655582 -1.336083,2.468851 l 0.203317,-0.08714 0.49377,-0.551861 c 0.203317,-0.261407 0.377589,-0.522815 0.522815,-0.813268 0.145227,-0.290453 0.261408,-0.551861 0.406634,-0.871359 h 0.116182 l 0.116181,-0.261408 0.261407,-0.116181 0.842314,-1.97508 0.43568,0.116181 c 0.522815,0.05809 0.958495,-0.02905 1.394174,-0.290453 0.406634,-0.232363 0.784223,-0.43568 1.219903,-0.609952 h 0.261407 c -0.02905,0.493771 -0.116181,0.958495 -0.232362,1.36513 -0.145227,0.464724 -0.348544,0.900404 -0.638997,1.248947 l 0.05809,0.203318 h 0.174272 c 0.08714,-0.02905 0.174272,-0.08714 0.261407,-0.174272 0.08714,-0.05809 0.116182,-0.145227 0.116182,-0.261408 h 0.203317 l 0.203317,0.43568 h 0.203317 l 0.145226,0.406634 3.107847,-0.784223 h 0.377589 c 0,0.697087 -0.116181,1.307038 -0.348543,1.858899 -0.261408,0.551861 -0.580906,1.045631 -0.92945,1.539401 -0.145226,0.174271 -0.290453,0.261407 -0.464725,0.348543 -0.174271,0.08714 -0.377588,0.174272 -0.580906,0.203317 l -0.435679,-0.05809 -0.638997,0.05809 0.05809,0.464725 0.842314,0.697087 0.05809,0.203317 z M 32.335147,21.44478 c 0.08714,0 0.203317,0 0.290453,-0.02904 0.08714,-0.02905 0.145226,-0.05809 0.174272,-0.145227 L 32.741781,21.0091 c 0,-0.871359 0,-1.684627 0.02904,-2.497895 0.02905,-0.813269 0.116182,-1.568446 0.348544,-2.294579 0,-0.203317 0,-0.406634 -0.02905,-0.580906 -0.02905,-0.174272 -0.116181,-0.348544 -0.232363,-0.522815 l 0.05809,-0.43568 v -0.116181 l -0.116181,0.435679 -0.638997,-0.580906 c -0.232362,-0.145226 -0.464725,-0.261407 -0.668042,-0.348543 -0.232362,-0.08714 -0.49377,-0.145227 -0.755177,-0.174272 l 0.842313,-1.365129 h 0.116181 l 1.597492,-2.265533 v -0.116182 l 0.203317,-0.05809 C 33.874548,9.5652525 34.252137,9.0424371 34.629726,8.548667 35.007315,8.0258516 35.355858,7.5320815 35.791538,7.0092661 L 36.401489,6.7478584 36.633851,6.4283601 36.546715,6.1669524 36.198172,5.9636353 36.140081,5.7893635 34.716862,5.3827293 34.252137,5.8474541 C 33.671231,6.1669524 33.090325,6.515496 32.567509,6.8930849 31.986603,7.3287644 31.405697,7.7063533 30.795746,8.0258516 H 30.621474 L 31.20238,7.0673567 31.754241,6.6607225 v -0.087136 h 0.145226 L 33.032234,5.353684 33.11937,5.2084575 33.816457,4.772778 34.397363,4.1628267 35.268722,3.1462413 35.675356,2.7976977 V 2.6524712 h 0.116182 L 35.878674,2.53629 C 35.907719,2.3620182 35.907719,2.2167917 35.849628,2.1006105 35.762492,1.9844293 35.704402,1.8972934 35.617266,1.8101575 35.297768,1.4906592 34.978269,1.2582968 34.60068,1.1130703 34.194046,0.9678438 33.816457,0.8516626 33.438868,0.7064361 l -0.522815,0.1452265 1.539401,0.7842231 v 0.3775889 c -0.203317,0.4356795 -0.43568,0.8423137 -0.668042,1.2489479 -0.261408,0.4356795 -0.551861,0.8713589 -0.871359,1.2489478 -0.319498,0.4647248 -0.668042,0.9004043 -1.045631,1.3651291 -0.348543,0.4647248 -0.755178,0.871359 -1.190857,1.3070385 l -0.261408,0.2614077 -0.05809,0.1452265 -1.394175,0.9584949 0.232363,0.871359 0.116181,0.087136 0.203317,0.3194983 3.282119,-1.8879445 h 0.116181 c -0.174272,0.580906 -0.464725,1.1037214 -0.784223,1.6555821 -0.319498,0.5518602 -0.609951,1.0746762 -0.871359,1.6265372 l -0.377589,0.319498 -1.684627,2.817394 -0.116182,0.05809 -1.132766,1.8589 H 27.80408 l -0.377589,0.784223 h -0.145226 l -1.132767,1.539401 v 0.08714 l 0.609951,-0.232363 0.406635,-0.319498 0.203317,-0.319498 h 0.116181 l 0.05809,-0.145227 0.49377,-0.348544 1.568446,-2.207442 h 0.174272 l 0.842313,-1.074676 0.784223,0.319498 c 0.08714,0.145226 0.174272,0.261408 0.232363,0.406634 0.08714,0.145227 0.116181,0.290453 0.116181,0.464725 0,0.900404 -0.02904,1.742718 -0.05809,2.585032 -0.02904,0.871359 -0.203317,1.655582 -0.55186,2.352669 0.116181,0.203317 0.290453,0.406634 0.522815,0.609951 0.232362,0.203317 0.464725,0.406634 0.668042,0.668042 z m 2.236488,-5.867151 h 0.261408 v -0.145226 l 0.348543,-0.116181 -0.08714,-0.580906 h -0.05809 l 0.05809,-0.174272 -0.05809,-0.261408 -0.580906,0.319499 -1.016586,-0.319499 h -0.145226 l 0.145226,0.522816 0.755178,0.348543 0.05809,0.348544 z M 33.438868,13.71873 c 0.145227,-0.02904 0.290453,-0.08714 0.43568,-0.116181 0.116181,-0.02904 0.232362,-0.116181 0.377589,-0.261408 l 0.145226,-0.203317 0.522816,-0.319498 V 12.6731 h 0.116181 l 1.103721,-1.074677 -0.203317,-0.435679 -0.842314,-0.261408 -0.319498,0.05809 -0.377589,-0.05809 -0.203317,0.261408 H 34.04882 l -0.755178,2.236488 v 0.261408 z"
         id="path296" />
      <path
         d="m 65.301507,23.36177 0.05809,-0.05809 0.05809,0.05809 0.348543,-0.116181 0.116182,-0.493771 0.377589,-0.145226 c 0.755177,-1.97508 1.48131,-3.921115 2.091261,-5.896196 0.609951,-1.946035 1.161812,-3.950161 1.684627,-5.954286 h 0.203318 L 70.442525,10.407566 70.239208,9.8847508 C 69.745437,9.6523884 69.193577,9.4490713 68.670761,9.2457542 68.089855,9.0424371 67.537995,8.9262559 66.986134,8.83912 h -0.145226 v 0.1452265 l -0.319499,-0.058091 c -1.045631,0.029045 -2.062216,0.2033171 -2.96262,0.5518607 -0.92945,0.3775889 -1.800809,0.7551774 -2.701213,1.2199024 l 0.08714,0.203317 c 0.261407,0.203317 0.55186,0.348544 0.842313,0.49377 0.232363,0.116182 0.580906,0.145227 0.958495,0.116182 l -0.08714,0.203317 -0.49377,0.232362 0.145227,0.551861 c -0.261408,1.04563 -0.522816,2.120307 -0.842314,3.194983 -0.319498,1.074676 -0.580906,2.149352 -0.813268,3.253073 -0.02905,0.290453 -0.02905,0.551861 0.05809,0.813269 0.05809,0.232362 0.174272,0.435679 0.377589,0.638996 h 0.116181 c 0.08714,-0.203317 0.203318,-0.377589 0.290453,-0.522815 0.08714,-0.145227 0.145227,-0.319499 0.145227,-0.49377 l 0.203317,-0.08714 c 0.580906,-1.103722 1.103721,-2.207443 1.510356,-3.34021 0.435679,-1.103721 0.871359,-2.236488 1.307038,-3.3983 l -0.145226,-0.842313 -1.626537,-0.05809 0.319498,-0.319498 c 0.551861,-0.05809 1.074676,-0.174272 1.597492,-0.348544 0.49377,-0.145226 0.98754,-0.290453 1.510355,-0.435679 h 0.609951 c -0.05809,1.742718 -0.203317,3.45639 -0.435679,5.199108 -0.261408,1.713673 -0.784223,3.34021 -1.568446,4.850565 l -0.464725,-0.05809 -0.406634,-0.900405 h -0.145227 c 0,-0.49377 -0.05809,-0.958494 -0.203317,-1.394174 -0.145226,-0.435679 -0.261408,-0.871359 -0.348543,-1.365129 h -0.145227 l 0.05809,0.958495 -0.05809,1.045631 0.05809,0.203317 -0.203317,2.062216 v 0.261408 l 0.348543,0.377589 1.307039,1.016585 0.580906,0.49377 z m -9.178315,-8.510273 0.290453,-0.08714 c 0.406634,-0.784223 0.726132,-1.568446 1.045631,-2.381714 0.319498,-0.813269 0.668042,-1.597492 1.074676,-2.35267 h 0.145226 C 58.85345,9.8266602 58.998677,9.6233431 59.085813,9.3909807 59.172948,9.1586183 59.34722,8.9843465 59.550537,8.83912 L 59.899081,8.7229388 V 8.5777123 h 0.49377 l 0.08714,-0.290453 c 0,-0.1452265 0,-0.290453 0,-0.4356795 0,-0.1161812 -0.05809,-0.2323624 -0.145227,-0.3194983 l 0.203318,-0.8423137 h 0.116181 l 0.348543,-0.5228154 0.43568,-0.1452265 v -0.290453 h 0.145226 l 0.05809,-0.7261325 0.319498,0.1161812 h 0.08714 V 5.063231 H 61.903207 V 4.9180045 l -0.406635,-0.058091 -0.145226,-0.3485436 0.08714,-0.4647248 c 0,-0.1452265 -0.05809,-0.2614076 -0.174272,-0.3485435 -0.116181,-0.058091 -0.145226,-0.1452265 -0.116181,-0.290453 -0.232363,0 -0.43568,-0.029045 -0.609951,-0.1161812 C 60.33476,3.2043319 60.160489,3.117196 59.986217,2.9719695 V 2.8557883 l -0.290453,-0.2614077 -0.871359,-0.580906 -0.232363,0.087136 0.08714,0.7551778 v 0.4066342 l -0.435679,0.058091 -0.02904,0.6389965 h -0.08714 l -0.406635,1.2489479 0.145227,0.4647248 c -0.319498,1.5103556 -0.638997,3.0497565 -0.900404,4.5310667 -0.290453,1.510356 -0.580906,3.049756 -0.842314,4.560112 z m 18.385675,-2.991666 0.406634,-0.290453 0.145226,-0.319498 h 0.174272 l 0.145227,-0.551861 h 0.145226 l 0.145227,-0.290453 0.55186,-0.261408 0.348544,0.116182 V 9.9428414 l 0.406634,-0.2033171 0.290453,0.058091 h 0.377589 L 77.587668,9.6814337 V 9.4490713 l 0.348544,0.087136 0.49377,-0.1452265 L 78.023348,8.83912 V 8.7229388 l 0.49377,0.058091 h 0.377589 V 8.4324858 L 78.139529,7.8515798 78.081438,7.5320815 77.064853,6.6316772 C 76.106358,6.3702695 75.147863,6.0798165 74.189368,5.7603182 73.259919,5.4698652 72.301424,5.2375028 71.342929,5.0051404 h -0.05809 l 0.609952,1.0165855 c 0.319498,0.3194983 0.638996,0.6680419 0.929449,1.0456308 0.290453,0.4066342 0.580906,0.7842231 0.871359,1.161812 l 1.016586,0.871359 0.203317,0.4356795 c 0.05809,0.4066342 0.02904,0.7842228 -0.05809,1.1908568 -0.08714,0.406635 -0.203317,0.755178 -0.348543,1.132767 z"
         id="path298" />
      <path
         d="m 99.052091,24.058857 0.551861,-0.232362 v -0.203318 l -0.174272,0.116182 h -0.203317 l 0.609951,-2.468851 h 0.174276 l -0.406638,1.684628 v 0.290453 l 0.319498,-0.522816 -0.08714,-0.290453 v -0.174272 h 0.174276 l 0.23236,-0.580906 h -0.23236 l 0.11618,-0.580906 h 0.20331 l 0.66805,-3.688753 h 0.20331 c 0.20332,-0.900404 0.37759,-1.742718 0.52282,-2.614077 0.11618,-0.871359 0.20332,-1.742718 0.29045,-2.672167 l -0.3195,-4.3858404 0.0871,-3.194983 1.51036,0.1161812 c 0.20331,0 0.43567,0 0.69708,0.029045 0.23236,0.029045 0.43568,-0.058091 0.58091,-0.2614077 l -0.0871,-0.2614077 c -0.3195,-0.087136 -0.63899,-0.2323624 -0.9004,-0.4356794 -0.26141,-0.2033171 -0.55186,-0.3775889 -0.78423,-0.580906 l -0.0871,-0.8132684 c -0.0871,-0.2614077 -0.23236,-0.4647248 -0.46473,-0.580906 -0.23236,-0.1452265 -0.46472,-0.2614077 -0.63899,-0.4066342 l -0.60995,0.2033171 -0.37759,0.6970872 h -0.20332 l 0.11618,-0.6970872 h 0.0871 l -0.29046,0.4937701 0.0871,0.7261325 V 4.0466455 C 99.400635,4.2209173 98.500231,4.5404156 97.657917,4.9760951 96.786558,5.3827293 95.857108,5.7312729 94.869568,5.93459 l -1.48131,1.3941744 v 0.1161812 c 0.319498,-0.087136 0.609951,-0.058091 0.813268,0.029045 0.203317,0.087136 0.377589,0.290453 0.580906,0.5228154 l 0.49377,-0.058091 0.203317,-0.6099513 C 96.263743,7.0092661 97.01892,6.6026319 97.803143,6.1379071 98.558321,5.6731823 99.342544,5.2955934 100.12677,4.9470498 h 0.29045 l 0.49377,6.6513732 c -0.0871,2.091262 -0.26141,4.124433 -0.52281,6.128559 -0.3195,2.033171 -0.755183,4.008251 -1.336089,5.896195 z M 90.22232,19.876334 h 0.203317 v -0.377589 h 0.290453 l -0.08714,-0.406634 h -0.203317 c 0.08714,-0.522816 0.116182,-1.074676 0.116182,-1.626537 0,-0.580906 0.05809,-1.132767 0.174271,-1.655582 v -0.116181 c -0.116181,0.261407 -0.290453,0.522815 -0.49377,0.726132 -0.203317,0.261408 -0.319498,0.551861 -0.319498,0.900404 l -0.377589,-0.522815 c -0.05809,-1.452265 0.02904,-2.846439 0.261408,-4.153478 0.232362,-1.248948 0.377589,-2.614077 0.435679,-4.0082511 0.05809,-1.0456308 0,-2.0912616 -0.145226,-3.1078471 -0.174272,-0.9875402 -0.49377,-1.8879444 -1.045631,-2.6721675 l 0.406634,2.5850316 c 0,1.3360838 -0.05809,2.614077 -0.203317,3.8920702 -0.145226,1.2779929 -0.232362,2.5559859 -0.290453,3.8630249 0,1.132767 0,2.265533 0,3.3983 0,1.132767 0.261408,2.120307 0.784223,2.991666 z"
         id="path300" />
      <path
         d="m 115.66595,13.689685 c 1.68462,-0.609951 3.3983,-1.074676 5.17006,-1.48131 1.71367,-0.406634 3.45639,-0.784223 5.17006,-1.132767 l 0.40664,0.05809 0.29045,-0.05809 0.66804,0.05809 0.26141,-0.05809 c 1.10372,0.02904 2.23649,0.116181 3.34021,0.261408 1.10372,0.116181 2.1784,0.290453 3.22403,0.55186 h 0.20331 v -0.290453 l 0.17428,0.05809 0.63899,-0.145226 1.278,0.232362 h 0.20331 l 0.37759,-0.377589 0.37759,-1.336084 h 0.0581 L 137.21756,9.7685696 V 9.4490713 c -1.07468,-0.4356795 -2.20745,-0.8132684 -3.3983,-1.1037214 -1.2199,-0.2614077 -2.38172,-0.580906 -3.48544,-1.0165855 h -0.63899 c 0,0.1452265 -0.029,0.2614077 -0.0871,0.290453 -0.0871,0.029045 -0.20332,0.029045 -0.34854,-0.029045 l -0.34855,0.4066342 -3.57257,0.3485436 c -0.58091,0 -1.13277,-0.087136 -1.68463,-0.2614077 -0.52281,-0.1452265 -1.04563,-0.3485436 -1.48131,-0.6680419 V 7.2706738 l -0.34854,-0.1452265 -0.0581,-0.2323624 c -0.20332,-0.058091 -0.3195,-0.029045 -0.40664,0.058091 -0.0871,0.1161812 -0.20331,0.2323624 -0.31949,0.3194983 l -1.04563,0.9584949 -0.11619,0.2033171 -2.61407,1.1037214 -0.34855,-0.087136 c -0.37759,0.2033171 -0.75517,0.3485436 -1.19085,0.4066342 -0.43568,0.058091 -0.84232,0.1161812 -1.24895,0.1742715 l -1.16181,-0.4066339 -0.26141,0.058091 -0.0871,0.2033171 h -0.0581 l -0.11618,0.6970872 v 0.116181 c 0.26141,0.377589 0.58091,0.726133 0.92945,1.103722 0.29045,0.377588 0.639,0.784223 1.01659,1.132766 z"
         id="path302" />
      <path
         d="m 147.99331,23.797449 0.81327,-0.580906 0.75518,-1.103721 h 0.14523 l 0.84231,-1.829854 0.11618,0.02904 c 0.0871,-0.203317 0.20332,-0.406634 0.37759,-0.580906 0.17427,-0.203317 0.26141,-0.406634 0.29045,-0.668042 h 0.0871 l 0.0581,-0.261407 0.52282,-0.08714 0.11618,-0.232363 -0.0581,-0.261407 c -0.17428,-0.145227 -0.37759,-0.290453 -0.58091,-0.377589 -0.17427,-0.08714 -0.40663,-0.08714 -0.66804,-0.05809 l -0.0291,-0.203317 c 0.60995,-0.232362 1.278,-0.49377 1.91699,-0.813268 0.66804,-0.290453 1.278,-0.580906 1.88795,-0.958495 l 0.2614,0.05809 0.3195,0.493771 h 0.11618 l 0.11619,0.522815 0.11618,-0.02904 0.029,0.116181 0.75518,0.726132 0.43568,-0.145226 -0.0291,-3.282119 0.34855,-2.41076 h 0.0581 l 0.0581,-0.145226 -0.11618,-0.464725 0.26141,-1.219903 0.0581,-0.02904 -0.0291,-0.1161812 -0.14523,0.029045 -0.0581,-0.2033171 c -0.29045,-0.2614077 -0.63899,-0.4066342 -0.98754,-0.4937701 -0.37759,-0.058091 -0.81327,-0.1452265 -1.24894,-0.2033171 -0.55187,0.1161812 -1.07468,0.3194983 -1.5975,0.580906 -0.55186,0.290453 -1.04563,0.5809062 -1.5394,0.8423132 v 0.05809 l 0.46473,0.145227 2.06221,-0.290453 0.75518,0.05809 0.26141,1.91699 c 0,0.464725 0,0.929449 0.029,1.394174 0,0.464725 -0.0581,0.900405 -0.14522,1.336084 l -0.37759,0.02904 0.029,0.348544 -1.16181,-0.319498 h -0.0871 l 0.029,0.08714 c -0.14522,-0.08714 -0.23236,-0.08714 -0.29045,0 -0.0581,0.08713 -0.11618,0.203317 -0.14523,0.290453 l -1.94603,0.900404 -0.14523,0.02904 c 0.40664,-0.406634 0.84231,-0.813268 1.30704,-1.161812 0.43568,-0.290453 0.92945,-0.580906 1.45226,-0.784223 v -0.116181 h 0.14523 l 0.0291,-0.203317 h 0.11618 v -0.261408 l -0.90041,-0.348544 h -0.31949 l -0.0871,0.203318 h -0.14523 l -0.0581,0.116181 -0.92945,0.435679 h -0.11618 l 0.029,-0.174272 c 0.43568,-0.377588 0.87136,-0.755177 1.27799,-1.132766 0.43568,-0.348544 0.9004,-0.580906 1.45226,-0.697087 l 0.26141,-0.49377 h 0.14523 l -0.0291,-0.203318 c -0.14522,-0.02904 -0.2614,-0.05809 -0.40663,-0.145226 -0.14523,-0.05809 -0.26141,-0.08714 -0.37759,-0.08714 -0.49377,0.05809 -0.98754,0.174272 -1.45226,0.377589 -0.49377,0.203317 -0.9585,0.464725 -1.42322,0.784223 h -0.11619 v -0.319498 l -0.34854,-0.319499 -0.0581,-0.232362 -0.95849,-0.377589 h -0.639 v 0.05809 l 0.52281,0.290453 c -0.029,0.609951 -0.0581,1.132766 -0.0871,1.626536 -0.0291,0.522816 -0.11618,0.958495 -0.29045,1.394175 0.17427,0.261408 0.31949,0.522815 0.46472,0.784223 0.14523,0.261408 0.3195,0.522815 0.55186,0.726132 l -0.0871,0.174272 c -0.14523,0.145227 -0.3195,0.203317 -0.52282,0.232363 -0.20332,0.02904 -0.34854,0.116181 -0.46473,0.203317 0.0581,0.261407 0.17428,0.49377 0.34855,0.668042 0.17427,0.145226 0.26141,0.348543 0.26141,0.609951 l 0.2614,-0.05809 h 0.26141 c -0.17427,1.045631 -0.46472,2.062217 -0.87136,3.020711 -0.40663,0.92945 -0.84231,1.8589 -1.30704,2.730259 z m 10.31109,-1.074676 c 0.9004,-0.203317 1.8008,-0.406634 2.73025,-0.609951 0.87136,-0.203317 1.74272,-0.49377 2.55599,-0.871359 v -0.116181 h 0.46472 l 0.0581,-0.319499 0.52281,-0.05809 -0.14523,-0.43568 v -0.145226 h 0.23237 l 0.17427,-0.203317 v -0.05809 h -0.34855 l -0.23236,-0.290453 -0.87136,-0.203317 -0.14522,-0.319498 -0.37759,-0.08714 v -0.203317 h -0.14523 c -0.20332,-0.377589 -0.34854,-0.784223 -0.49377,-1.161812 -0.11618,-0.348544 -0.26141,-0.755178 -0.34854,-1.132767 -0.11618,0.551861 -0.26141,1.103721 -0.40664,1.655582 -0.17427,0.551861 -0.34854,1.132767 -0.46472,1.742718 l -0.52282,0.174272 v 0.05809 l -3.25307,0.958495 c -0.49377,0 -1.01659,0 -1.5394,-0.02904 -0.55186,0 -1.04563,-0.05809 -1.5394,-0.174272 -0.0291,-0.435679 0,-0.813268 0.0581,-1.161812 0.0581,-0.377589 0.11618,-0.755177 0.17427,-1.103721 l -0.26141,-0.638997 -0.95849,-0.174271 -0.29045,0.08713 v 0.05809 l 0.2614,0.05809 0.20332,0.871359 -0.0871,1.336083 c 0.029,0.319499 0.11619,0.580906 0.26141,0.784223 0.14523,0.174272 0.29045,0.406635 0.46473,0.609952 0.63899,0.435679 1.30703,0.697087 2.09126,0.813268 0.72613,0.116181 1.45226,0.203317 2.1784,0.290453 z m -7.52274,-6.941826 -0.0581,0.05809 -0.14522,-0.02904 -0.0581,-0.319498 0.0581,-0.261408 -0.0871,-0.232363 0.0581,-0.377588 0.14523,0.02904 0.2614,0.406634 c 0.0291,0.116181 0.0291,0.232362 0,0.377589 -0.029,0.145226 -0.0871,0.261408 -0.17427,0.348544 z m 0.23237,-1.771764 -0.0581,0.08714 -0.2614,-0.02904 0.17427,-1.016586 0.75518,-0.05809 h 0.31949 l -0.34854,0.580906 z m -3.80494,-3.775889 -0.23236,-0.7551774 V 8.9262559 l 0.23236,0.058091 0.17427,0.5518607 0.40664,0.1161812 c 0.60995,-0.087136 1.19085,-0.2323624 1.68462,-0.4937701 0.49377,-0.2323624 0.98754,-0.4647248 1.51036,-0.7261325 V 8.2291687 l -0.20332,-0.087136 -1.01658,0.058091 -0.3195,0.029045 -0.0291,-0.1161812 0.26141,-0.087136 V 7.967761 l 0.75518,-0.5228154 c 0.14523,-0.2614077 0.23236,-0.5518607 0.26141,-0.871359 0.029,-0.290453 0.0871,-0.580906 0.23236,-0.8423137 l -0.029,-0.1742718 -0.52281,-0.1742718 0.0581,-0.2323624 0.20332,0.1161812 c 0.17427,-0.087136 0.34854,-0.2323624 0.49377,-0.3775889 0.14522,-0.1452265 0.31949,-0.2614077 0.5809,-0.3485436 l 0.0291,-0.1161812 0.49377,-0.2323624 V 4.0176002 l 0.34854,-0.058091 -0.23236,-0.5809059 -1.42322,-0.4647248 h -0.26141 l -0.17427,0.2033171 -0.26141,0.029045 -0.029,-0.2033171 -0.58091,-0.6099513 0.029,-0.2614077 2.38171,-0.4937701 -0.17427,-0.3194983 c -0.23236,-0.1452265 -0.46473,-0.2323624 -0.75518,-0.3194983 -0.3195,-0.0580906 -0.60995,-0.1161812 -0.92945,-0.1452265 -0.40663,0.1161812 -0.81327,0.2323624 -1.2199,0.3485436 -0.43568,0.1452265 -0.84231,0.3485436 -1.19086,0.6389966 v 0.1161812 l -0.26141,0.1161812 0.90041,-0.029045 0.5809,-0.029045 c 0.029,0.3194983 0.029,0.6389966 -0.029,0.9004043 -0.0871,0.2614077 -0.26141,0.5518607 -0.46473,0.8423137 -0.0871,0.1742717 -0.17427,0.2614076 -0.31949,0.2614076 -0.14523,0 -0.29046,0.029045 -0.40664,0.1161812 -0.17427,0.029045 -0.3195,-0.029045 -0.43568,-0.1742718 -0.11618,-0.1161811 -0.26141,-0.1742717 -0.43568,-0.203317 V 3.5528755 l -1.33608,-0.9294496 h -0.0581 l 0.52281,0.9294496 c 0,0.7551777 -0.029,1.5103555 -0.11618,2.1783974 -0.0871,0.7261325 -0.20331,1.3941744 -0.40663,2.0622163 h -0.11618 l -0.11618,0.2033171 c 0.029,0.290453 0.0871,0.5518607 0.17427,0.7842231 0.11618,0.2323624 0.20331,0.4647248 0.29045,0.7261325 0.17427,0.029045 0.34854,0.087136 0.52282,0.1742718 0.14522,0.087136 0.29045,0.1452265 0.46472,0.1452265 l 0.17427,0.1742718 z m 1.10372,-1.9169894 -1.01658,0.2323624 h -0.17427 c 0.0581,-0.6970872 0.11618,-1.3651291 0.20331,-2.0041257 0.0871,-0.6680419 0.11618,-1.3070385 0.0871,-2.0041257 h 0.0871 l 0.0291,0.2614077 c 0.0581,0.1452265 0.14523,0.2033171 0.26141,0.2033171 0.11618,0.029045 0.20331,0.058091 0.29045,0.087136 l 1.33608,-0.580906 0.17428,-0.029045 c -0.14523,0.3485436 -0.34855,0.6680419 -0.55187,0.9294496 -0.20331,0.3194983 -0.49377,0.5518607 -0.87135,0.7551778 l -0.17428,-0.058091 -0.52281,0.1452265 c 0.029,0.1742718 0.0871,0.3194983 0.17427,0.4066342 0.0871,0.1452265 0.14523,0.2614077 0.23236,0.3775889 0.20332,0 0.43568,-0.029045 0.66804,-0.087136 0.23237,-0.029045 0.43568,-0.1161812 0.58091,-0.2614077 h 0.14523 l -0.0581,0.580906 h -0.11618 V 7.386855 c -0.11619,0.1452265 -0.20332,0.290453 -0.34855,0.4066342 -0.14522,0.1742718 -0.29045,0.290453 -0.43568,0.3775889 z m 7.58083,-0.7842231 3.10784,-1.1327667 0.0291,-0.1161812 0.20332,-0.1161812 V 5.9055447 l -0.52282,-0.1452265 -0.029,-0.1452265 -0.23236,-0.058091 -0.95849,0.2033171 -0.34855,0.029045 0.029,-0.3194983 c 0.40663,-0.3194983 0.87136,-0.6389966 1.36513,-0.9584949 0.46472,-0.290453 0.92945,-0.4647248 1.39417,-0.580906 V 3.6109661 l -0.20331,-0.029045 V 3.4366943 L 159.37907,3.117196 c -0.20332,-0.029045 -0.40663,-0.058091 -0.5809,-0.1452265 -0.14523,-0.029045 -0.3195,-0.087136 -0.49377,-0.1742718 l -0.11619,0.029045 -0.14522,0.2323624 c -0.29046,0.2614077 -0.60995,0.4356795 -0.9585,0.5228154 -0.37759,0.087136 -0.72613,0.2323623 -1.01658,0.4066341 l -0.52282,-0.029045 -0.37759,0.058091 -0.14522,0.1742718 1.16181,0.7842231 -0.20332,0.4647248 -0.23236,0.1742718 -0.55186,0.2323624 -0.17427,0.2614077 c 0.2614,0.2033171 0.43568,0.4356795 0.52281,0.6680419 0.0871,0.2614077 0.20332,0.4937701 0.34855,0.7551778 z m -2.26554,-2.5559864 0.0581,-0.058091 0.0581,0.087136 0.29046,-0.1161812 0.29045,-0.4937701 0.40663,-0.3194983 0.0871,-0.49377 h 0.11618 V 3.3205131 h 0.11618 l 0.14523,-0.3194983 h 0.17427 l 0.29045,-0.6680419 h 0.11618 l 0.40664,-1.1037214 -0.0871,-0.2323624 C 155.77745,0.793572 155.37082,0.6483455 154.96419,0.5612096 154.52851,0.503119 154.09283,0.4450284 153.71524,0.38693781 l -0.11618,-0.0290453 0.0871,0.20331709 -0.20331,2.2074428 0.17427,1.2779931 z"
         id="path304" />
      <path
         d="m 176.13815,21.880459 h 0.20332 c 0,-0.261407 0,-0.522815 -0.029,-0.784223 -0.029,-0.232362 0.029,-0.464724 0.23237,-0.668042 V 20.02156 l -0.0871,0.290453 -0.46472,0.203317 h -0.29046 c -0.0581,-2.062216 0.0581,-4.066342 0.37759,-6.012377 0.3195,-1.946035 0.60995,-3.89207 0.87136,-5.8090595 0,-0.9875402 -0.029,-1.9750804 -0.0871,-2.9335753 -0.0581,-0.9584949 -0.34854,-1.8298539 -0.87135,-2.6431222 l 0.55186,1.8008085 c -0.14523,2.0622163 -0.37759,4.0953873 -0.72614,6.1285585 -0.34854,2.004125 -0.5809,4.037296 -0.72613,6.099513 0,0.784223 0.029,1.568446 0.0581,2.381714 0.0291,0.784223 0.20332,1.539401 0.55186,2.178398 h 0.43568 z m 16.55582,-1.248947 -0.0871,-0.203318 0.34854,-1.510355 -0.58091,-0.900404 c -0.63899,-0.464725 -1.24894,-0.842314 -1.91699,-1.190858 -0.63899,-0.319498 -1.30703,-0.609951 -2.00412,-0.900404 l 0.72613,-1.771763 -0.20332,-4.4729763 0.20332,-3.3692548 1.51036,0.087136 1.01658,-0.3194983 V 5.6150917 c -0.0581,-0.2323624 -0.17427,-0.3194983 -0.34854,-0.3194983 -0.17427,0 -0.3195,-0.029045 -0.46473,-0.058091 -0.29045,-0.3485436 -0.46472,-0.7261325 -0.55186,-1.0746761 -0.0871,-0.3775888 -0.20331,-0.7261324 -0.37759,-1.0456307 l -0.63899,-0.3194983 -0.87136,0.1161812 c -0.37759,0.4066342 -0.60995,0.8423137 -0.72613,1.2489478 -0.0871,0.4356795 -0.17428,0.9004043 -0.23237,1.3360838 -1.10372,0.2614077 -2.20744,0.6099513 -3.28211,1.0165855 -1.07468,0.3775889 -2.12031,0.9294496 -3.10785,1.5684462 l -1.59749,1.9169898 v 0.116181 l 0.23236,-0.4356793 c 0.98754,-0.9294496 2.09126,-1.6265368 3.34021,-2.033171 1.2199,-0.4356795 2.49789,-0.7842231 3.77589,-1.0746761 h 0.63899 c 0,1.0165855 0.0291,2.0041257 0.0581,2.9335753 0.029,0.9584951 0.14523,1.9169901 0.34855,2.8464391 l -0.0871,1.336084 c -0.14522,0.290453 -0.34854,0.609951 -0.5809,0.871359 -0.26141,0.261408 -0.55186,0.49377 -0.87136,0.668042 l -1.07468,-0.174272 c -0.60995,-0.05809 -1.16181,-0.02904 -1.65558,0.02904 -0.55186,0.08714 -0.98754,0.290453 -1.42322,0.551861 -0.14523,0.377589 -0.34854,0.697087 -0.55186,1.016586 -0.23236,0.319498 -0.37759,0.697087 -0.43568,1.074676 v 0.203317 h 0.23236 c 0,0.145226 0,0.290453 0,0.464725 0,0.174271 0.0581,0.290453 0.17427,0.406634 0.639,-0.232363 1.278,-0.522816 1.88795,-0.784223 0.5809,-0.261408 1.2199,-0.522816 1.8589,-0.755178 1.01658,0.116181 1.91699,0.319498 2.7593,0.697087 0.84231,0.377589 1.74272,0.726133 2.64312,1.074676 0.37759,0.203317 0.69709,0.43568 1.07468,0.668042 0.34854,0.203317 0.639,0.522815 0.84231,0.92945 z"
         id="path306" />
      <path
         d="m 214.88452,20.137741 1.77177,-0.261407 v -0.232363 h 0.34854 v -0.232362 l 0.84232,-0.435679 -0.49377,0.116181 c -0.55187,0 -1.01659,-0.08714 -1.45227,-0.290453 -0.40663,-0.145227 -0.84231,-0.348544 -1.24895,-0.551861 -0.69709,-0.871359 -1.36513,-1.771763 -1.88794,-2.672168 -0.55186,-0.871359 -1.13277,-1.742718 -1.77177,-2.614076 l -0.81326,-0.726133 h -0.23237 c -0.0871,1.452265 0.17428,2.759303 0.72614,3.921115 0.52281,1.161812 1.24894,2.265534 2.23648,3.253074 0.29046,0.203317 0.60996,0.377589 0.92945,0.49377 0.3195,0.08714 0.639,0.174272 1.04563,0.232362 z M 216.2787,7.5030362 c 0.26141,-0.2323624 0.49377,-0.4647248 0.78422,-0.7261325 0.26141,-0.2323624 0.58091,-0.3775889 0.90041,-0.4647248 l 0.0871,-0.4356795 -0.0871,-0.7261325 c -0.9585,-0.9004043 -2.09127,-1.365129 -3.36926,-1.4813102 -1.30704,-0.087136 -2.58503,-0.290453 -3.83398,-0.6099513 -0.87136,0 -1.62653,0.087136 -2.35267,0.2614077 -0.69708,0.2033171 -1.42322,0.4066342 -2.20744,0.6099512 l 0.0871,0.4356795 0.34854,0.087136 v 0.3485436 l 1.19086,0.5518607 c 0.75517,0 1.51035,-0.1161812 2.17839,-0.3485436 0.66805,-0.2033171 1.39418,-0.3485436 2.1784,-0.4066342 0.49377,0 0.92945,0.058091 1.42322,0.1452265 0.46473,0.1161812 0.87136,0.2614077 1.27799,0.4066342 0.3195,0.1452265 0.639,0.2614077 0.87136,0.4356795 0.26141,0.2033171 0.49377,0.4356795 0.66805,0.7261325 l -0.14523,0.9875402 z"
         id="path308" />
      <path
         d="m 246.39862,20.573421 1.27799,-1.219903 0.55186,-0.116181 V 18.97593 l 0.55186,-0.203318 0.639,-1.423219 -0.639,-1.277993 c -0.3195,-0.261408 -0.60995,-0.43568 -0.92945,-0.580906 -0.3195,-0.145227 -0.66804,-0.232363 -1.01658,-0.290453 -1.59749,-0.145227 -3.0788,0 -4.41489,0.377588 -1.33608,0.406635 -2.67217,0.784224 -4.0373,1.161812 -0.20331,0 -0.43567,-0.02904 -0.69708,-0.05809 -0.26141,-0.02904 -0.46473,-0.116181 -0.60995,-0.232363 0.14522,-1.510355 0.43568,-3.020711 0.87136,-4.472976 0.43567,-1.452265 0.9004,-2.8754843 1.51035,-4.2696587 0.46473,-0.2614077 0.9585,-0.580906 1.42322,-0.9004043 0.40663,-0.290453 0.75518,-0.7261325 0.98754,-1.2489479 l -0.23236,-0.7551778 -0.46473,-0.1742718 -0.29045,-0.7551778 0.20332,-0.7261324 V 2.9719695 L 240.41529,2.7105618 V 2.4781994 l -0.639,0.2323624 c -0.29045,0.6970872 -0.55186,1.3941743 -0.75518,2.0331709 -0.23236,0.6680419 -0.46472,1.3941744 -0.639,2.0912616 l -1.85889,0.3775889 -1.71368,-0.1161812 h -0.43568 c 0.43568,0.5228154 0.92945,0.7551778 1.56845,0.7551778 0.58091,0 1.24895,0 1.88794,0 l -0.23236,1.0165855 v 0.087136 l 0.11618,-0.2033171 h 0.11618 l -1.62653,6.2737849 c -0.0871,0.377589 -0.0871,0.755178 0,1.103721 0.0581,0.319498 0.20331,0.668042 0.40663,1.016586 l 0.69709,0.348543 c 1.33608,-0.05809 2.64312,-0.319498 3.86302,-0.813268 1.21991,-0.464725 2.52694,-0.755178 3.92112,-0.871359 0.3195,0 0.639,0 0.92945,0 0.3195,0 0.5809,0.08714 0.81327,0.261408 l 0.63899,1.074676 -0.20331,1.04563 v 0.290453 h 0.20331 l -0.43568,0.871359 -0.63899,1.045631 z m -9.99159,-4.502021 -0.11618,0.116181 -0.0871,-0.116181 c 0.0581,-1.103722 0.2614,-2.178398 0.60995,-3.194983 0.3195,-1.016586 0.60995,-2.033171 0.9004,-3.0497568 h 0.11618 l -1.42322,5.5766978 z m 3.68876,-9.9915835 -0.0871,0.087136 -0.11618,-0.087136 0.639,-2.3236239 0.55186,0.6680418 v 0.7842231 z"
         id="path310" />
      <path
         d="m 272.42315,22.635637 0.0581,-0.174272 0.58091,-0.174271 h 0.29045 v 0.174271 l 2.61408,-2.062216 0.75517,-1.713672 c 0,-0.348544 0,-0.726133 0,-1.103722 0,-0.348543 -0.14522,-0.638996 -0.40663,-0.871359 -0.29045,-0.377589 -0.69709,-0.668042 -1.13277,-0.871359 -0.40663,-0.203317 -0.84231,-0.348543 -1.27799,-0.464725 -1.30704,0 -2.52694,0.232363 -3.63066,0.668042 -1.10373,0.43568 -2.23649,0.871359 -3.34021,1.307039 -0.17427,0 -0.37759,0.02904 -0.60995,0.05809 -0.26141,0.02905 -0.46473,-0.02904 -0.58091,-0.232362 0.0581,-1.713673 0.26141,-3.34021 0.58091,-4.87961 0.29045,-1.568447 0.69708,-3.1078474 1.19085,-4.618203 l -0.29045,-1.7136727 c -0.49377,1.5974915 -0.9585,3.1659377 -1.42322,4.7343837 -0.49377,1.597492 -0.78422,3.224028 -0.92945,4.937701 0,0.580906 0.029,1.074676 0.0581,1.568446 0.029,0.464725 0.23236,0.92945 0.52282,1.394175 l 0.17427,0.08714 c 0.52281,0.05809 0.98754,0.02904 1.48131,-0.02905 0.46472,-0.08714 0.9004,-0.174272 1.33608,-0.232362 v -0.203317 c 0.75518,-0.261408 1.5394,-0.580906 2.29458,-0.900405 0.75518,-0.348543 1.5394,-0.638996 2.32363,-0.842313 l 1.30703,0.232362 0.0871,0.464725 c 0,1.016585 -0.17427,1.97508 -0.55186,2.875485 -0.34854,0.958494 -0.87136,1.771763 -1.48131,2.526941 z m -2.4979,-17.7176325 1.19086,-0.087136 c 0.0871,-0.3194983 0.0581,-0.6099513 -0.0581,-0.8423137 -0.14523,-0.2614076 -0.3195,-0.5228153 -0.52282,-0.784223 -0.31949,-0.290453 -0.60995,-0.5228154 -0.98754,-0.6970872 -0.37759,-0.1452265 -0.75517,-0.3775889 -1.10372,-0.6680419 h -0.17427 c 0.37759,0.3485436 0.69709,0.6970872 1.04563,1.0456308 0.3195,0.3194983 0.58091,0.7261325 0.75518,1.1908572 l -0.26141,0.7551778 z"
         id="path312" />
      <path
         d="m 297.11161,19.818243 0.46473,-0.348543 c 0,-1.684628 0.2614,-3.224029 0.87135,-4.676294 0.58091,-1.452265 1.13277,-2.933575 1.74272,-4.38584 0,-0.6389964 0,-1.3651289 0,-2.0912614 0,-0.6970872 -0.17427,-1.3360838 -0.55186,-1.8298539 -0.52281,-0.290453 -1.07467,-0.4647248 -1.68463,-0.4937701 -0.60995,-0.029045 -1.27799,-0.058091 -1.91698,-0.058091 -0.0871,-0.5228154 -0.0871,-1.0456308 -0.0581,-1.6555821 0.029,-0.5809059 -0.0871,-1.0456307 -0.37758,-1.3941743 l -0.87136,0.4356795 c -0.3195,0.5228153 -0.52282,1.074676 -0.639,1.6846273 -0.14523,0.6099513 -0.3195,1.2199026 -0.46472,1.8008086 -0.60996,0.290453 -1.16182,0.6099513 -1.74272,0.9294496 -0.58091,0.3194983 -1.16181,0.6389966 -1.74272,0.9294496 l -0.43568,0.4356795 h -0.34854 l -1.19086,1.1037213 v 0.203317 h 1.30704 l 0.23236,0.43568 c 0.58091,-0.145227 1.10372,-0.377589 1.59749,-0.697088 0.46473,-0.3194978 0.9585,-0.6099508 1.45227,-0.8423132 h 0.23236 l -0.43568,3.3111642 c 0,0.406634 0.029,0.842314 0.0581,1.219902 0.029,0.406635 0.11618,0.813269 0.26141,1.190858 l 0.63899,0.290453 c 0.14523,-1.161812 0.3195,-2.352669 0.52282,-3.572572 0.17427,-1.190857 0.3195,-2.3526693 0.46472,-3.5144813 l 0.78423,-0.3485436 h 0.20331 l -0.20331,4.5020219 c 0,0.929449 -0.0291,1.858899 -0.0581,2.759303 -0.0291,0.92945 0.17427,1.742718 0.69708,2.46885 v 0.43568 h -0.23236 l 0.23236,0.580906 0.23237,0.05809 0.31949,0.784223 z m 0,-3.514481 -0.0871,0.116181 -0.43568,-0.116181 -0.43568,-1.858899 V 7.4739909 l 0.95849,-0.3485436 0.58091,0.1161812 c 0.2614,0.5228154 0.43568,1.0746761 0.52281,1.7136727 0.0871,0.6099513 0.14523,1.2489478 0.23236,1.8879448 -0.0871,0.929449 -0.23236,1.858899 -0.49377,2.788348 -0.23236,0.92945 -0.52281,1.800809 -0.84231,2.672168 z m 15.21974,-6.099513 0.40663,-0.3194982 V 9.5362072 h 0.23236 v 0.2323624 l -0.11618,-0.7551778 h -0.11618 V 8.6648482 h -0.23236 V 8.2291687 h -0.17427 V 8.4615311 L 312.21517,7.9387157 H 311.9828 V 7.7063533 L 310.55958,6.3993148 C 309.92059,6.0217259 309.25255,5.644137 308.55546,5.353684 307.82933,5.0341857 307.13224,4.7146874 306.43515,4.3951891 l 3.80494,3.8339796 v 0.4647248 l -1.21991,0.9584949 v 0.1161812 l 0.34855,-0.1161812 c 0.60995,0 1.10372,0.1161812 1.59749,0.3194983 0.46472,0.2323623 0.98754,0.3775893 1.59749,0.4647243 z m -17.04959,-3.8049342 -0.11618,0.1161812 -0.0871,-0.1161812 0.0871,-1.4232197 h 0.23236 z"
         id="path314" />
      <path
         d="m 330.51363,22.635637 0.0581,-0.174272 0.58091,-0.174271 h 0.29045 v 0.174271 l 2.61408,-2.062216 0.75518,-1.713672 c 0,-0.348544 0,-0.726133 0,-1.103722 0,-0.348543 -0.14523,-0.638996 -0.40664,-0.871359 -0.29045,-0.377589 -0.69708,-0.668042 -1.13276,-0.871359 -0.40664,-0.203317 -0.84232,-0.348543 -1.278,-0.464725 -1.30704,0 -2.52694,0.232363 -3.63066,0.668042 -1.10372,0.43568 -2.23649,0.871359 -3.34021,1.307039 -0.17427,0 -0.37759,0.02904 -0.60995,0.05809 -0.26141,0.02905 -0.46472,-0.02904 -0.58091,-0.232362 0.0581,-1.713673 0.26141,-3.34021 0.58091,-4.87961 0.29045,-1.568447 0.69709,-3.1078474 1.19086,-4.618203 l -0.29046,-1.7136727 c -0.49377,1.5974915 -0.95849,3.1659377 -1.42322,4.7343837 -0.49377,1.597492 -0.78422,3.224028 -0.92944,4.937701 0,0.580906 0.029,1.074676 0.0581,1.568446 0.029,0.464725 0.23236,0.92945 0.52281,1.394175 l 0.17427,0.08714 c 0.52282,0.05809 0.98754,0.02904 1.48131,-0.02905 0.46473,-0.08714 0.90041,-0.174272 1.33609,-0.232362 v -0.203317 c 0.75517,-0.261408 1.5394,-0.580906 2.29458,-0.900405 0.75517,-0.348543 1.5394,-0.638996 2.32362,-0.842313 l 1.30704,0.232362 0.0871,0.464725 c 0,1.016585 -0.17427,1.97508 -0.55186,2.875485 -0.34854,0.958494 -0.87136,1.771763 -1.48131,2.526941 z m -2.49789,-17.7176325 1.19085,-0.087136 c 0.0871,-0.3194983 0.0581,-0.6099513 -0.0581,-0.8423137 -0.14522,-0.2614076 -0.31949,-0.5228153 -0.52281,-0.784223 -0.3195,-0.290453 -0.60995,-0.5228154 -0.98754,-0.6970872 -0.37759,-0.1452265 -0.75518,-0.3775889 -1.10372,-0.6680419 h -0.17427 c 0.37758,0.3485436 0.69708,0.6970872 1.04563,1.0456308 0.31949,0.3194983 0.5809,0.7261325 0.75517,1.1908572 l -0.2614,0.7551778 z"
         id="path316" />
      <path
         d="m 348.6669,19.905379 0.46473,-0.08714 v -0.203317 c 1.36513,-0.377589 2.70121,-0.871359 3.9792,-1.48131 1.278,-0.638997 2.55599,-1.219903 3.86303,-1.800809 l 0.11618,-0.145226 c 1.65558,-1.248948 3.51448,-2.149352 5.46052,-2.672168 1.94603,-0.55186 3.86302,-1.132766 5.72192,-1.829854 h -0.20332 v -0.203317 l 0.66805,-0.261407 -0.0871,-0.755178 -1.2199,-1.4813105 H 367.2559 C 367.05258,8.83912 366.87831,8.7229388 366.70403,8.6358029 366.50072,8.548667 366.35549,8.3743952 366.21026,8.1129875 363.65428,7.5320815 361.15638,6.7769037 358.68753,5.93459 356.21868,5.1213216 353.72079,4.3370985 351.1648,3.6400114 l -1.36513,0.1161812 h -0.95849 V 3.5528755 h -0.34855 l -0.11618,0.2033171 -0.84231,0.1742717 v 0.4647248 l 0.75517,0.8423137 c 2.4979,0.5518607 4.96675,1.1908573 7.40656,1.8588992 2.41076,0.6970872 4.82152,1.4232197 7.17418,2.2364881 l -0.0871,0.4937701 c -0.52282,0.3194978 -1.01659,0.5809058 -1.56845,0.8713588 -0.52281,0.290453 -1.07467,0.522816 -1.62653,0.726133 v 0.145226 c -1.36513,0.842314 -2.75931,1.597492 -4.18253,2.294579 -1.45226,0.726132 -2.90453,1.365129 -4.38584,1.91699 v 0.203317 l -0.87136,0.08714 v 0.203317 c -0.34854,0.02904 -0.69708,0.145226 -1.01658,0.290453 -0.3195,0.174271 -0.60995,0.290453 -0.92945,0.348543 l -0.29045,0.638997 0.20331,0.958495 -0.11618,0.435679 v 0.290453 z"
         id="path318" />
    </g>
  </g>
</svg>
